# Blender 4.4.0
# www.blender.org
mtllib Corner 1.mtl
o Esquina_1
v 0.219045 0.254990 0.092969
v 0.219045 0.842628 0.092969
v 0.204304 0.239573 0.074428
v 0.204304 0.858045 0.074428
v 0.118929 0.947329 0.131015
v 0.118929 0.150289 0.131015
v 0.500000 0.239573 0.074428
v 0.500000 0.858045 0.074428
v 0.500000 0.254990 0.092969
v 0.500000 0.842628 0.092969
v 0.500000 0.150289 0.131015
v 0.500000 0.947329 0.131015
v -0.000000 0.947329 0.081836
v -0.000000 0.150289 0.081836
v 0.118929 0.139093 0.159590
v 0.500000 0.139093 0.159590
v -0.000000 0.139093 0.159590
v -0.000000 0.150289 0.168738
v 0.500000 0.150289 0.168738
v 0.118929 0.150289 0.168738
v 0.500000 0.126595 0.152571
v -0.000000 0.126595 0.152571
v 0.500000 0.993712 0.174128
v 0.500000 0.113204 0.149563
v -0.000000 0.113204 0.149563
v 0.500000 0.098474 0.154576
v -0.000000 0.098474 0.154576
v -0.000000 0.947329 0.174128
v 0.500000 0.084976 0.163239
v -0.000000 0.084976 0.163239
v 0.500000 0.947329 0.174128
v 0.500000 0.075335 0.170459
v -0.000000 0.075335 0.170459
v 0.118929 0.947329 0.174128
v 0.500000 0.019414 0.170459
v -0.000000 0.019414 0.170459
v 0.118929 0.000774 0.179844
v 0.500000 0.000774 0.179844
v -0.000000 0.000774 0.179844
v 0.118929 0.993712 0.174128
v -0.000000 0.993712 0.174128
v 0.118929 0.993712 0.080190
v 0.500000 0.993712 0.080190
v -0.000000 0.993712 0.080190
v 0.118929 0.126595 0.152521
v 0.118929 0.113204 0.149513
v 0.118929 0.098474 0.154526
v 0.118929 0.084976 0.163189
v 0.118929 0.075335 0.170408
v 0.118929 0.019414 0.170408
v 0.118929 0.993712 0.000000
v 0.500000 0.993712 0.000000
v -0.000000 0.993712 0.000000
v 0.118929 3.500000 0.000000
v 0.500000 3.500000 0.000000
v -0.000000 3.500000 0.000000
v 0.780954 0.254990 0.092969
v 0.780954 0.842628 0.092969
v 0.795695 0.239573 0.074428
v 0.795695 0.858045 0.074428
v 0.820156 0.000774 0.179844
v 0.825872 0.993712 0.174128
v 0.881070 0.993712 0.080190
v 0.847479 0.126595 0.152521
v 0.850487 0.113204 0.149513
v 0.845474 0.098474 0.154526
v 0.836811 0.084976 0.163189
v 0.829592 0.019414 0.170408
v 0.881070 0.993712 0.000000
v 0.999999 0.993712 0.000000
v 0.881070 3.500000 0.000000
v 0.907031 0.254990 0.219045
v 0.907031 0.842628 0.219045
v 0.925572 0.239573 0.204304
v 0.925572 0.858045 0.204304
v 0.868985 0.947329 0.131015
v 0.868985 0.150288 0.131015
v 0.925572 0.239573 0.500000
v 0.925572 0.858045 0.500000
v 0.907031 0.254990 0.500000
v 0.907031 0.842628 0.500000
v 0.868985 0.150289 0.500000
v 0.868985 0.947329 0.500000
v 0.840410 0.139093 0.159590
v 0.840410 0.139093 0.500000
v 0.831262 0.150289 0.500000
v 0.831262 0.150288 0.168738
v 0.847429 0.126595 0.500000
v 0.825872 0.993712 0.500000
v 0.850437 0.113204 0.500000
v 0.845424 0.098474 0.500000
v 0.836761 0.084976 0.500000
v 0.825872 0.947329 0.500000
v 0.829541 0.075335 0.500000
v 0.825872 0.947329 0.174128
v 0.829541 0.019414 0.500000
v 0.820156 0.000774 0.500000
v 0.919810 0.993712 0.118929
v 0.919810 0.993712 0.500000
v 0.919810 0.993712 0.080190
v 0.829592 0.075335 0.170408
v 1.000000 0.993712 0.118929
v 1.000000 0.993712 0.500000
v 1.000000 3.500000 0.118929
v 1.000000 3.500000 0.500000
v 1.000000 3.500000 -0.000000
v 0.907031 0.254990 0.780954
v 0.907031 0.842628 0.780954
v 0.925572 0.239573 0.795695
v 0.925572 0.858045 0.795695
v 0.868985 0.947329 0.881070
v 0.868985 0.150289 0.881070
v 0.918164 0.947329 0.999999
v 0.918164 0.150289 0.999999
v 0.840410 0.139093 0.881070
v 0.840410 0.139093 0.999999
v 0.831262 0.150289 0.999999
v 0.831262 0.150289 0.881070
v 0.847429 0.126595 0.999999
v 0.850437 0.113204 0.999999
v 0.845424 0.098474 0.999999
v 0.825872 0.947329 0.999999
v 0.836761 0.084976 0.999999
v 0.829541 0.075335 0.999999
v 0.825872 0.947329 0.881070
v 0.829541 0.019414 0.999999
v 0.820156 0.000774 0.881070
v 0.820156 0.000774 0.999999
v 0.825872 0.993712 0.881070
v 0.825872 0.993712 0.999999
v 0.919810 0.993712 0.881070
v 0.919810 0.993712 0.999999
v 0.847479 0.126595 0.881070
v 0.850487 0.113204 0.881070
v 0.845474 0.098474 0.881070
v 0.836811 0.084976 0.881070
v 0.829592 0.075335 0.881070
v 0.829592 0.019414 0.881070
v 1.000000 0.993712 0.881070
v 1.000000 0.993712 0.999999
v 1.000000 3.500000 0.881070
v 1.000000 3.500000 0.999999
vn -0.7827 -0.0000 0.6223
vn -0.0000 -0.0000 1.0000
vn -0.0000 0.7689 0.6394
vn -0.0000 -0.5353 0.8446
vn -0.0000 0.5353 0.8446
vn 0.5525 -0.0000 0.8335
vn -0.0000 -0.7689 0.6394
vn -0.3821 -0.0000 0.9241
vn -0.0000 1.0000 -0.0000
vn -0.0000 -0.6328 0.7743
vn -0.0000 -1.0000 -0.0000
vn 0.0002 0.4507 0.8927
vn 0.0004 -0.0000 1.0000
vn 0.0003 0.5994 0.8005
vn 0.0004 0.5401 0.8416
vn 0.0004 0.3222 0.9467
vn 0.0004 -0.2192 0.9757
vn 0.0002 -0.4910 0.8712
vn -0.0001 -0.4910 0.8712
vn -0.0001 -0.2192 0.9757
vn -0.0001 0.3222 0.9467
vn -0.0001 0.5401 0.8416
vn -0.0001 0.5994 0.8005
vn -0.0001 -0.0000 1.0000
vn -0.0001 0.4507 0.8927
vn 0.7827 -0.0000 0.6224
vn -0.6111 -0.0000 0.7915
vn -0.0000 -0.6327 0.7744
vn 0.0001 -0.4910 0.8712
vn 0.0001 -0.2192 0.9757
vn 0.0001 0.3222 0.9467
vn 0.0001 0.5401 0.8416
vn 0.0001 0.5993 0.8005
vn 0.0002 -0.0000 1.0000
vn 0.0001 0.4507 0.8927
vn -0.6223 -0.0000 -0.7827
vn -1.0000 -0.0000 -0.0000
vn -0.6394 0.7689 -0.0000
vn -0.8446 -0.5353 -0.0000
vn -0.8446 0.5353 -0.0000
vn -0.7915 -0.0000 0.6111
vn -0.6394 -0.7689 -0.0000
vn -0.7744 -0.6327 -0.0000
vn -0.8712 -0.4910 -0.0001
vn -0.9757 -0.2192 -0.0001
vn -0.9467 0.3222 -0.0001
vn -0.8416 0.5401 -0.0001
vn -0.8005 0.5993 -0.0001
vn -1.0000 -0.0000 -0.0002
vn -0.8927 0.4507 -0.0001
vn -0.6223 -0.0000 0.7827
vn -0.8335 -0.0000 -0.5525
vn -0.9241 -0.0000 0.3821
vn -0.7743 -0.6328 -0.0000
vn -0.8927 0.4507 -0.0002
vn -1.0000 -0.0000 -0.0004
vn -0.8005 0.5994 -0.0003
vn -0.8416 0.5401 -0.0004
vn -0.9467 0.3222 -0.0004
vn -0.9757 -0.2192 -0.0004
vn -0.8712 -0.4910 -0.0002
vn -0.8712 -0.4910 0.0001
vn -0.9757 -0.2192 0.0001
vn -0.9467 0.3222 0.0001
vn -0.8416 0.5401 0.0001
vn -0.8005 0.5994 0.0001
vn -1.0000 -0.0000 0.0001
vn -0.8927 0.4507 0.0001
vt 0.375000 0.000000
vt 0.625000 0.000000
vt 0.625000 0.250000
vt 0.375000 0.250000
vt 0.375000 0.875000
vt 0.625000 0.875000
vt 0.625000 1.000000
vt 0.375000 1.000000
vt 0.750000 0.500000
vt 0.875000 0.500000
vt 0.875000 0.750000
vt 0.750000 0.750000
vt 0.250000 0.500000
vt 0.125000 0.500000
vt 0.250000 0.750000
vt 0.125000 0.750000
vt 0.000000 0.000000
s 0
f 1/1/1 2/2/1 4/3/1 3/4/1
f 9/5/2 10/6/2 2/7/2 1/8/2
f 8/9/3 4/10/3 2/11/3 10/12/3
f 4/10/4 8/9/4 12/9/4 5/10/4
f 7/13/5 3/14/5 6/14/5 11/13/5
f 3/4/6 4/3/6 5/3/6 6/4/6
f 3/14/7 7/13/7 9/15/7 1/16/7
f 6/4/8 5/3/8 13/3/8 14/4/8
f 6/4/9 14/4/9 18/4/9 20/4/9
f 19/13/10 20/14/10 15/14/10 16/13/10
f 11/13/9 6/14/9 20/14/9 19/13/9
f 20/4/10 18/4/10 17/4/10 15/4/10
f 13/3/11 5/3/11 34/3/11 28/3/11
f 5/10/11 12/9/11 31/9/11 34/10/11
f 28/3/2 34/3/2 40/3/2 41/3/2
f 34/10/2 31/9/2 23/9/2 40/10/2
f 41/3/9 40/3/9 42/3/9 44/3/9
f 40/10/9 23/9/9 43/9/9 42/10/9
f 39/17/12 37/17/12 50/17/12 36/17/12
f 36/17/13 50/17/13 49/14/13 33/17/13
f 33/17/14 49/14/14 48/14/14 30/17/14
f 30/17/15 48/14/15 47/14/15 27/17/15
f 27/17/16 47/14/16 46/14/16 25/17/16
f 25/17/17 46/14/17 45/14/17 22/17/17
f 22/17/18 45/17/18 15/17/18 17/17/18
f 16/17/19 15/17/19 45/17/19 21/17/19
f 24/17/20 21/17/20 45/17/20 46/17/20
f 26/17/21 24/17/21 46/17/21 47/17/21
f 29/17/22 26/17/22 47/17/22 48/17/22
f 32/17/23 29/17/23 48/17/23 49/17/23
f 35/17/24 32/17/24 49/17/24 50/17/24
f 37/17/25 38/17/25 35/17/25 50/17/25
f 44/3/9 42/3/9 51/3/9 53/3/9
f 42/10/9 43/9/9 52/9/9 51/10/9
f 51/10/2 52/9/2 55/9/2 54/10/2
f 53/3/2 51/3/2 54/3/2 56/3/2
f 57/1/26 59/4/26 60/3/26 58/2/26
f 9/5/2 57/8/2 58/7/2 10/6/2
f 8/9/3 10/12/3 58/11/3 60/10/3
f 60/10/4 76/10/4 12/9/4 8/9/4
f 7/13/5 11/13/5 77/14/5 59/14/5
f 59/4/27 77/4/27 76/3/27 60/3/27
f 59/14/7 57/16/7 9/15/7 7/13/7
f 19/13/28 16/13/28 84/14/28 87/14/28
f 11/13/9 19/13/9 87/14/9 77/14/9
f 76/10/11 95/10/11 31/9/11 12/9/11
f 95/10/2 62/10/2 23/9/2 31/9/2
f 62/10/9 63/10/9 43/9/9 23/9/9
f 16/17/29 21/17/29 64/17/29 84/17/29
f 24/17/30 65/17/30 64/17/30 21/17/30
f 26/17/31 66/17/31 65/17/31 24/17/31
f 29/17/32 67/17/32 66/17/32 26/17/32
f 32/17/33 101/17/33 67/17/33 29/17/33
f 35/17/34 68/17/34 101/17/34 32/17/34
f 61/17/35 68/17/35 35/17/35 38/17/35
f 100/3/9 70/3/9 69/3/9 63/3/9
f 63/10/9 69/10/9 52/9/9 43/9/9
f 69/10/2 71/10/2 55/9/2 52/9/2
f 70/3/2 106/3/2 71/3/2 69/3/2
f 72/1/36 73/2/36 75/3/36 74/4/36
f 80/5/37 81/6/37 73/7/37 72/8/37
f 79/9/38 75/10/38 73/11/38 81/12/38
f 75/10/39 79/9/39 83/9/39 76/10/39
f 78/13/40 74/14/40 77/14/40 82/13/40
f 74/4/41 75/3/41 76/3/41 77/4/41
f 74/14/42 78/13/42 80/15/42 72/16/42
f 86/13/43 87/14/43 84/14/43 85/13/43
f 82/13/9 77/14/9 87/14/9 86/13/9
f 76/10/11 83/9/11 93/9/11 95/10/11
f 95/10/37 93/9/37 89/9/37 62/10/37
f 62/10/9 89/9/9 99/9/9 98/10/9
f 85/17/44 84/17/44 64/17/44 88/17/44
f 90/17/45 88/17/45 64/17/45 65/17/45
f 91/17/46 90/17/46 65/17/46 66/17/46
f 92/17/47 91/17/47 66/17/47 67/17/47
f 94/17/48 92/17/48 67/17/48 101/17/48
f 96/17/49 94/17/49 101/17/49 68/17/49
f 61/17/50 97/17/50 96/17/50 68/17/50
f 100/3/9 98/3/9 102/3/9 70/3/9
f 98/10/9 99/9/9 103/9/9 102/10/9
f 102/10/37 103/9/37 105/9/37 104/10/37
f 70/3/37 102/3/37 104/3/37 106/3/37
f 107/1/51 109/4/51 110/3/51 108/2/51
f 80/5/37 107/8/37 108/7/37 81/6/37
f 79/9/38 81/12/38 108/11/38 110/10/38
f 110/10/39 111/10/39 83/9/39 79/9/39
f 78/13/40 82/13/40 112/14/40 109/14/40
f 109/4/52 112/4/52 111/3/52 110/3/52
f 109/14/42 107/16/42 80/15/42 78/13/42
f 112/4/53 114/4/53 113/3/53 111/3/53
f 112/4/9 118/4/9 117/4/9 114/4/9
f 86/13/54 85/13/54 115/14/54 118/14/54
f 82/13/9 86/13/9 118/14/9 112/14/9
f 118/4/54 115/4/54 116/4/54 117/4/54
f 113/3/11 122/3/11 125/3/11 111/3/11
f 111/10/11 125/10/11 93/9/11 83/9/11
f 122/3/37 130/3/37 129/3/37 125/3/37
f 125/10/37 129/10/37 89/9/37 93/9/37
f 130/3/9 132/3/9 131/3/9 129/3/9
f 129/10/9 131/10/9 99/9/9 89/9/9
f 128/17/55 126/17/55 138/17/55 127/17/55
f 126/17/56 124/17/56 137/14/56 138/17/56
f 124/17/57 123/17/57 136/14/57 137/14/57
f 123/17/58 121/17/58 135/14/58 136/14/58
f 121/17/59 120/17/59 134/14/59 135/14/59
f 120/17/60 119/17/60 133/14/60 134/14/60
f 119/17/61 116/17/61 115/17/61 133/17/61
f 85/17/62 88/17/62 133/17/62 115/17/62
f 90/17/63 134/17/63 133/17/63 88/17/63
f 91/17/64 135/17/64 134/17/64 90/17/64
f 92/17/65 136/17/65 135/17/65 91/17/65
f 94/17/66 137/17/66 136/17/66 92/17/66
f 96/17/67 138/17/67 137/17/67 94/17/67
f 127/17/68 138/17/68 96/17/68 97/17/68
f 132/3/9 140/3/9 139/3/9 131/3/9
f 131/10/9 139/10/9 103/9/9 99/9/9
f 139/10/37 141/10/37 105/9/37 103/9/37
f 140/3/37 142/3/37 141/3/37 139/3/37
f 62/3/9 98/3/9 100/3/9 63/3/9
