# Blender 4.4.0
# www.blender.org
mtllib Corner 2.mtl
o Esquina_2
v 0.001966 0.149334 -0.074230
v 0.501966 0.149334 -0.074230
v 0.001966 0.138139 -0.020182
v 0.501966 0.138139 -0.020182
v 0.501966 0.149334 -0.011033
v 0.001966 0.149334 -0.011033
v 0.501966 0.125640 -0.027200
v 0.501966 0.112250 -0.030208
v 0.501966 0.097520 -0.025195
v 0.501966 0.084022 -0.016532
v 0.501966 0.074380 -0.009313
v 0.501966 0.018460 -0.009313
v 0.001966 -0.000180 0.000072
v 0.501966 -0.000180 0.000072
v 0.001966 0.125640 -0.027250
v 0.001966 0.112250 -0.030258
v 0.001966 0.097520 -0.025245
v 0.001966 0.084022 -0.016582
v 0.001966 0.074380 -0.009363
v 0.001966 0.018460 -0.009363
v 0.001966 2.999820 -0.074230
v 0.501966 2.999820 -0.074230
v 1.001965 0.149334 -0.074230
v 1.012354 0.138139 -0.009108
v 1.007780 0.149334 -0.004534
v 1.002227 -0.000180 0.001019
v 1.015889 0.125640 -0.012642
v 1.017393 0.112250 -0.014146
v 1.014886 0.097520 -0.011640
v 1.010555 0.084022 -0.007308
v 1.006945 0.074380 -0.003699
v 1.006945 0.018460 -0.003699
v 1.001965 2.999820 -0.074230
v 1.076791 0.149334 0.001966
v 1.076791 0.149334 0.501966
v 1.022743 0.138139 0.501966
v 1.013595 0.149334 0.501966
v 1.029762 0.125640 0.501966
v 1.032770 0.112250 0.501966
v 1.027756 0.097520 0.501966
v 1.019094 0.084022 0.501966
v 1.011874 0.074380 0.501966
v 1.011874 0.018460 0.501966
v 1.002489 -0.000180 0.501966
v 1.076791 2.999821 0.001966
v 1.076791 2.999821 0.501966
v 1.076791 0.149334 1.001966
v 1.022743 0.138139 1.001966
v 1.013595 0.149334 1.001966
v 1.002489 -0.000180 1.001966
v 1.029812 0.125640 1.001966
v 1.032820 0.112250 1.001966
v 1.027807 0.097520 1.001966
v 1.019144 0.084022 1.001966
v 1.011924 0.074380 1.001966
v 1.011924 0.018460 1.001966
v 1.076792 2.999821 1.001966
v 1.076791 0.149334 -0.074230
v 1.076791 2.999820 -0.074230
vn -0.0000 -0.6328 0.7743
vn -0.0000 1.0000 -0.0000
vn -0.0000 -0.4910 0.8712
vn -0.0001 -0.2192 0.9757
vn -0.0001 0.3222 0.9467
vn -0.0001 0.5401 0.8416
vn -0.0001 0.5994 0.8005
vn -0.0001 -0.0000 1.0000
vn -0.0000 0.4507 0.8927
vn -0.0000 -0.0000 1.0000
vn -0.0147 -0.5247 0.8512
vn -0.0230 -0.3916 0.9198
vn -0.0293 -0.1677 0.9854
vn -0.0279 0.2495 0.9680
vn -0.0201 0.4362 0.8996
vn -0.0127 0.4914 0.8708
vn -0.0111 -0.0000 0.9999
vn -0.0061 0.3545 0.9350
vn -0.8513 -0.5245 0.0136
vn -0.9199 -0.3915 0.0218
vn -0.9855 -0.1676 0.0280
vn -0.9680 0.2494 0.0266
vn -0.8997 0.4361 0.0188
vn -0.8709 0.4913 0.0116
vn -1.0000 -0.0000 0.0097
vn -0.9351 0.3543 0.0048
vn -1.0000 -0.0000 -0.0000
vn -0.7743 -0.6328 -0.0000
vn -0.8712 -0.4910 -0.0000
vn -0.9757 -0.2192 0.0001
vn -0.9467 0.3222 0.0001
vn -0.8416 0.5401 0.0001
vn -0.8005 0.5994 0.0001
vn -1.0000 -0.0000 0.0001
vn -0.8927 0.4507 -0.0000
vt 0.250000 0.500000
vt 0.125000 0.500000
vt 0.000000 0.000000
vt 0.875000 0.500000
vt 0.750000 0.500000
s 0
f 5/1/1 6/2/1 3/2/1 4/1/1
f 2/1/2 1/2/2 6/2/2 5/1/2
f 4/3/3 3/3/3 15/3/3 7/3/3
f 8/3/4 7/3/4 15/3/4 16/3/4
f 9/3/5 8/3/5 16/3/5 17/3/5
f 10/3/6 9/3/6 17/3/6 18/3/6
f 11/3/7 10/3/7 18/3/7 19/3/7
f 12/3/8 11/3/8 19/3/8 20/3/8
f 13/3/9 14/3/9 12/3/9 20/3/9
f 1/4/10 2/5/10 22/5/10 21/4/10
f 5/1/11 4/1/11 24/2/11 25/2/11
f 2/1/2 5/1/2 25/2/2 23/2/2
f 4/3/12 7/3/12 27/3/12 24/3/12
f 8/3/13 28/3/13 27/3/13 7/3/13
f 9/3/14 29/3/14 28/3/14 8/3/14
f 10/3/15 30/3/15 29/3/15 9/3/15
f 11/3/16 31/3/16 30/3/16 10/3/16
f 12/3/17 32/3/17 31/3/17 11/3/17
f 26/3/18 32/3/18 12/3/18 14/3/18
f 23/4/10 33/4/10 22/5/10 2/5/10
f 37/1/19 25/2/19 24/2/19 36/1/19
f 35/1/2 34/2/2 25/2/2 37/1/2
f 36/3/20 24/3/20 27/3/20 38/3/20
f 39/3/21 38/3/21 27/3/21 28/3/21
f 40/3/22 39/3/22 28/3/22 29/3/22
f 41/3/23 40/3/23 29/3/23 30/3/23
f 42/3/24 41/3/24 30/3/24 31/3/24
f 43/3/25 42/3/25 31/3/25 32/3/25
f 26/3/26 44/3/26 43/3/26 32/3/26
f 34/4/27 35/5/27 46/5/27 45/4/27
f 37/1/28 36/1/28 48/2/28 49/2/28
f 35/1/2 37/1/2 49/2/2 47/2/2
f 36/3/29 38/3/29 51/3/29 48/3/29
f 39/3/30 52/3/30 51/3/30 38/3/30
f 40/3/31 53/3/31 52/3/31 39/3/31
f 41/3/32 54/3/32 53/3/32 40/3/32
f 42/3/33 55/3/33 54/3/33 41/3/33
f 43/3/34 56/3/34 55/3/34 42/3/34
f 50/3/35 56/3/35 43/3/35 44/3/35
f 47/4/27 57/4/27 46/5/27 35/5/27
f 23/2/10 58/2/10 59/4/10 33/4/10
f 58/2/27 34/2/27 45/4/27 59/4/27
f 25/2/2 34/2/2 58/2/2 23/2/2
