# Blender 4.4.0
# www.blender.org
mtllib Door 1.mtl
o Puerta
v 3.108249 0.254636 -0.084901
v 3.108249 0.842139 -0.084901
v 3.091402 0.239223 -0.103441
v 3.091402 0.857552 -0.103441
v 2.993833 0.946816 -0.046855
v 2.993833 0.149959 -0.046855
v 3.429332 0.239223 -0.103441
v 3.429332 0.857552 -0.103441
v 3.429332 0.254636 -0.084901
v 3.429332 0.842139 -0.084901
v 3.429332 0.149959 -0.046855
v 3.429332 0.946816 -0.046855
v 2.857917 0.149959 -0.096034
v 2.993833 0.138766 -0.018280
v 3.429332 0.138766 -0.018280
v 2.857917 0.138766 -0.018280
v 2.857917 0.149959 -0.009131
v 3.429332 0.149959 -0.009131
v 2.993833 0.149959 -0.009131
v 3.429332 0.126271 -0.025299
v 2.857917 0.126271 -0.025299
v 3.429332 0.993187 -0.003742
v 3.429332 0.112883 -0.028307
v 2.857917 0.112883 -0.028307
v 3.429332 0.098157 -0.023293
v 2.857917 0.098157 -0.023293
v 2.857917 0.946816 -0.003742
v 3.429332 0.084662 -0.014630
v 2.857917 0.084662 -0.014630
v 3.429332 0.946816 -0.003742
v 3.429332 0.075023 -0.007411
v 2.857917 0.075023 -0.007411
v 2.993833 0.946816 -0.003742
v 3.429332 0.019116 -0.007411
v 2.857917 0.019116 -0.007411
v 2.993833 0.000480 0.001974
v 3.429332 0.000480 0.001974
v 2.857917 0.000480 0.001974
v 2.993833 0.993187 -0.003742
v 2.857917 0.993187 -0.003742
v 2.993833 0.993187 -0.097680
v 3.429332 0.993187 -0.097680
v 2.993833 0.126271 -0.025349
v 2.993833 0.112883 -0.028357
v 2.993833 0.098157 -0.023343
v 2.993833 0.084662 -0.014680
v 2.993833 0.075023 -0.007461
v 2.993833 0.019116 -0.007461
v 2.993833 0.993187 -0.177870
v 3.429332 0.993187 -0.177870
v 2.857917 0.993187 -0.177870
v 2.993833 2.999785 -0.177870
v 3.429332 2.999785 -0.177870
v 2.857917 2.999785 -0.177870
v 3.750415 0.254636 -0.084901
v 3.750415 0.842139 -0.084901
v 3.767262 0.239223 -0.103441
v 3.767262 0.857552 -0.103441
v 3.864831 0.946816 -0.046855
v 3.864831 0.149959 -0.046855
v 4.000747 0.946816 -0.096034
v 4.000747 0.149959 -0.096034
v 3.864831 0.138766 -0.018280
v 4.000747 0.138766 -0.018280
v 4.000747 0.149959 -0.009131
v 3.864831 0.149959 -0.009131
v 4.000747 0.126271 -0.025299
v 4.000747 0.112883 -0.028307
v 4.000747 0.098157 -0.023293
v 4.000747 0.946816 -0.003742
v 4.000747 0.084662 -0.014630
v 4.000747 0.075023 -0.007411
v 3.864831 0.946816 -0.003742
v 4.000747 0.019116 -0.007411
v 3.864831 0.000480 0.001974
v 4.000747 0.000480 0.001974
v 3.864831 0.993187 -0.003742
v 4.000747 0.993187 -0.003742
v 3.864831 0.993187 -0.097680
v 4.000747 0.993187 -0.097680
v 3.864831 0.126271 -0.025349
v 3.864831 0.112883 -0.028357
v 3.864831 0.098157 -0.023343
v 3.864831 0.084662 -0.014680
v 3.864831 0.075023 -0.007461
v 3.864831 0.019116 -0.007461
v 3.864831 0.993187 -0.177870
v 4.000747 0.993187 -0.177870
v 3.864831 2.999785 -0.177870
v 4.000747 2.999785 -0.177870
v 0.251079 0.254636 -0.084901
v 0.251079 0.842139 -0.084901
v 0.234232 0.239223 -0.103441
v 0.234232 0.857552 -0.103441
v 0.136663 0.946815 -0.046855
v 0.136663 0.149959 -0.046855
v 0.572162 0.239223 -0.103441
v 0.572162 0.857552 -0.103441
v 0.572162 0.254636 -0.084901
v 0.572162 0.842139 -0.084901
v 0.572162 0.149959 -0.046855
v 0.572162 0.946815 -0.046855
v 0.000747 0.946815 -0.096034
v 0.000747 0.149959 -0.096034
v 0.136663 0.138766 -0.018280
v 0.572162 0.138766 -0.018280
v 0.000747 0.138766 -0.018280
v 0.000747 0.149959 -0.009131
v 0.572162 0.149959 -0.009131
v 0.136663 0.149959 -0.009131
v 0.572162 0.126271 -0.025299
v 0.000747 0.126271 -0.025299
v 0.572162 0.993187 -0.003742
v 0.572162 0.112883 -0.028307
v 0.000747 0.112883 -0.028307
v 0.572162 0.098157 -0.023293
v 0.000747 0.098157 -0.023293
v 0.000747 0.946815 -0.003742
v 0.572162 0.084662 -0.014630
v 0.000747 0.084662 -0.014630
v 0.572162 0.946815 -0.003742
v 0.572162 0.075023 -0.007411
v 0.000747 0.075023 -0.007411
v 0.136663 0.946815 -0.003742
v 0.572162 0.019116 -0.007411
v 0.000747 0.019116 -0.007411
v 0.136663 0.000480 0.001974
v 0.572162 0.000480 0.001974
v 0.000747 0.000480 0.001974
v 0.136663 0.993187 -0.003742
v 0.000747 0.993187 -0.003742
v 0.136663 0.993187 -0.097680
v 0.572162 0.993187 -0.097680
v 0.000747 0.993187 -0.097680
v 0.136663 0.126271 -0.025349
v 0.136663 0.112883 -0.028357
v 0.136663 0.098157 -0.023343
v 0.136663 0.084662 -0.014680
v 0.136663 0.075023 -0.007461
v 0.136663 0.019116 -0.007461
v 0.136663 0.993187 -0.177870
v 0.572162 0.993187 -0.177870
v 0.000747 0.993187 -0.177870
v 0.136663 2.999785 -0.177870
v 0.572162 2.999785 -0.177870
v 0.000747 2.999785 -0.177870
v 0.893245 0.254636 -0.084901
v 0.893245 0.842139 -0.084901
v 0.910092 0.239223 -0.103441
v 0.910092 0.857552 -0.103441
v 1.007662 0.946815 -0.046855
v 1.007662 0.149959 -0.046855
v 1.007662 0.138766 -0.018280
v 1.143577 0.138766 -0.018280
v 1.143577 0.149959 -0.009131
v 1.007662 0.149959 -0.009131
v 1.143577 0.126271 -0.025299
v 1.143577 0.112883 -0.028307
v 1.143577 0.098157 -0.023293
v 1.143577 0.946815 -0.003742
v 1.143577 0.084662 -0.014630
v 1.143577 0.075023 -0.007411
v 1.007662 0.946815 -0.003742
v 1.143577 0.019116 -0.007411
v 1.007662 0.000480 0.001974
v 1.143577 0.000480 0.001974
v 1.007662 0.993187 -0.003742
v 1.143577 0.993187 -0.003742
v 1.007662 0.993187 -0.097680
v 1.007662 0.126271 -0.025349
v 1.007662 0.112883 -0.028357
v 1.007662 0.098157 -0.023343
v 1.007662 0.084662 -0.014680
v 1.007662 0.075023 -0.007461
v 1.007662 0.019116 -0.007461
v 1.007662 0.993187 -0.177870
v 1.143577 0.993187 -0.177870
v 1.007662 2.999785 -0.177870
v 1.143577 2.999785 -0.177870
v 0.572162 2.533967 -0.177870
v 0.136663 2.533967 -0.177870
v 0.000747 2.533967 -0.177870
v 1.007662 2.533967 -0.177870
v 3.429332 2.533967 -0.177870
v 2.993833 2.533967 -0.177870
v 3.864831 2.533967 -0.177870
v 4.000747 2.533967 -0.177870
v 1.143577 2.533977 -0.177870
v 2.857917 2.534013 -0.177870
v 1.143577 0.125788 -0.096034
v 1.143577 0.111285 -0.096034
v 2.857917 0.000580 -0.096034
v 2.857917 0.993184 -0.097680
v 1.143577 0.993184 -0.097680
v 2.857917 0.946816 -0.096034
v 1.143577 0.946815 -0.096034
v 1.143577 0.149959 -0.096034
v 2.857917 0.138357 -0.096034
v 1.143577 0.138357 -0.096034
v 2.857917 0.125788 -0.096034
v 2.857917 0.111285 -0.096034
v 2.857917 0.097266 -0.096034
v 1.143577 0.097266 -0.096034
v 2.857917 0.083729 -0.096034
v 1.143577 0.083729 -0.096034
v 2.857917 0.070919 -0.096034
v 1.143577 0.070919 -0.096034
v 2.857917 0.018950 -0.096034
v 1.143577 0.018950 -0.096034
v 1.143577 0.000580 -0.096034
vn -0.7401 -0.0000 0.6725
vn -0.0000 -0.0000 1.0000
vn -0.0000 0.7690 0.6393
vn -0.0000 -0.5354 0.8446
vn -0.0000 0.5354 0.8446
vn 0.5017 -0.0000 0.8650
vn -0.0000 -0.7690 0.6393
vn -0.3402 -0.0000 0.9403
vn -0.0000 1.0000 -0.0000
vn -0.0000 -0.6328 0.7743
vn -0.0000 -1.0000 -0.0000
vn 0.0002 0.4507 0.8927
vn 0.0004 -0.0000 1.0000
vn 0.0003 0.5995 0.8004
vn 0.0003 0.5402 0.8415
vn 0.0003 0.3223 0.9466
vn 0.0004 -0.2192 0.9757
vn 0.0002 -0.4911 0.8711
vn -0.0001 -0.4911 0.8711
vn -0.0001 -0.2192 0.9757
vn -0.0001 0.3223 0.9466
vn -0.0001 0.5402 0.8415
vn -0.0001 0.5995 0.8004
vn -0.0001 -0.0000 1.0000
vn -0.0001 0.4507 0.8927
vn 0.7401 -0.0000 0.6725
vn -0.5017 -0.0000 0.8650
vn 0.3402 -0.0000 0.9403
vn -0.0002 0.4507 0.8927
vn -0.0004 -0.0000 1.0000
vn -0.0003 0.5995 0.8004
vn -0.0003 0.5402 0.8415
vn -0.0003 0.3223 0.9466
vn -0.0004 -0.2192 0.9757
vn -0.0002 -0.4911 0.8711
vn 0.0001 -0.4911 0.8711
vn 0.0001 -0.2192 0.9757
vn 0.0001 0.3223 0.9466
vn 0.0001 0.5402 0.8415
vn 0.0001 0.5995 0.8004
vn 0.0001 -0.0000 1.0000
vn 0.0001 0.4507 0.8927
vn -1.0000 -0.0000 -0.0000
vn 1.0000 -0.0000 -0.0000
vt 0.375000 0.000000
vt 0.625000 0.000000
vt 0.625000 0.250000
vt 0.375000 0.250000
vt 0.375000 0.875000
vt 0.625000 0.875000
vt 0.625000 1.000000
vt 0.375000 1.000000
vt 0.750000 0.500000
vt 0.875000 0.500000
vt 0.875000 0.750000
vt 0.750000 0.750000
vt 0.250000 0.500000
vt 0.125000 0.500000
vt 0.250000 0.750000
vt 0.125000 0.750000
vt 0.000000 0.000000
s 0
f 1/1/1 2/2/1 4/3/1 3/4/1
f 9/5/2 10/6/2 2/7/2 1/8/2
f 8/9/3 4/10/3 2/11/3 10/12/3
f 4/10/4 8/9/4 12/9/4 5/10/4
f 7/13/5 3/14/5 6/14/5 11/13/5
f 3/4/6 4/3/6 5/3/6 6/4/6
f 3/14/7 7/13/7 9/15/7 1/16/7
f 6/4/8 5/3/8 195/3/8 13/4/8
f 6/4/9 13/4/9 17/4/9 19/4/9
f 18/13/10 19/14/10 14/14/10 15/13/10
f 11/13/9 6/14/9 19/14/9 18/13/9
f 19/4/10 17/4/10 16/4/10 14/4/10
f 195/3/11 5/3/11 33/3/11 27/3/11
f 5/10/11 12/9/11 30/9/11 33/10/11
f 27/3/2 33/3/2 39/3/2 40/3/2
f 33/10/2 30/9/2 22/9/2 39/10/2
f 40/3/9 39/3/9 41/3/9 193/3/9
f 39/10/9 22/9/9 42/9/9 41/10/9
f 38/17/12 36/17/12 48/17/12 35/17/12
f 35/17/13 48/17/13 47/14/13 32/17/13
f 32/17/14 47/14/14 46/14/14 29/17/14
f 29/17/15 46/14/15 45/14/15 26/17/15
f 26/17/16 45/14/16 44/14/16 24/17/16
f 24/17/17 44/14/17 43/14/17 21/17/17
f 21/17/18 43/17/18 14/17/18 16/17/18
f 15/17/19 14/17/19 43/17/19 20/17/19
f 23/17/20 20/17/20 43/17/20 44/17/20
f 25/17/21 23/17/21 44/17/21 45/17/21
f 28/17/22 25/17/22 45/17/22 46/17/22
f 31/17/23 28/17/23 46/17/23 47/17/23
f 34/17/24 31/17/24 47/17/24 48/17/24
f 36/17/25 37/17/25 34/17/25 48/17/25
f 193/3/9 41/3/9 49/3/9 51/3/9
f 41/10/9 42/9/9 50/9/9 49/10/9
f 185/10/2 184/9/2 53/9/2 52/10/2
f 189/3/2 185/3/2 52/3/2 54/3/2
f 55/1/26 57/4/26 58/3/26 56/2/26
f 9/5/2 55/8/2 56/7/2 10/6/2
f 8/9/3 10/12/3 56/11/3 58/10/3
f 58/10/4 59/10/4 12/9/4 8/9/4
f 7/13/5 11/13/5 60/14/5 57/14/5
f 57/4/27 60/4/27 59/3/27 58/3/27
f 57/14/7 55/16/7 9/15/7 7/13/7
f 60/4/28 62/4/28 61/3/28 59/3/28
f 60/4/9 66/4/9 65/4/9 62/4/9
f 18/13/10 15/13/10 63/14/10 66/14/10
f 11/13/9 18/13/9 66/14/9 60/14/9
f 66/4/10 63/4/10 64/4/10 65/4/10
f 61/3/11 70/3/11 73/3/11 59/3/11
f 59/10/11 73/10/11 30/9/11 12/9/11
f 70/3/2 78/3/2 77/3/2 73/3/2
f 73/10/2 77/10/2 22/9/2 30/9/2
f 78/3/9 80/3/9 79/3/9 77/3/9
f 77/10/9 79/10/9 42/9/9 22/9/9
f 76/17/29 74/17/29 86/17/29 75/17/29
f 74/17/30 72/17/30 85/14/30 86/17/30
f 72/17/31 71/17/31 84/14/31 85/14/31
f 71/17/32 69/17/32 83/14/32 84/14/32
f 69/17/33 68/17/33 82/14/33 83/14/33
f 68/17/34 67/17/34 81/14/34 82/14/34
f 67/17/35 64/17/35 63/17/35 81/17/35
f 15/17/36 20/17/36 81/17/36 63/17/36
f 23/17/37 82/17/37 81/17/37 20/17/37
f 25/17/38 83/17/38 82/17/38 23/17/38
f 28/17/39 84/17/39 83/17/39 25/17/39
f 31/17/40 85/17/40 84/17/40 28/17/40
f 34/17/41 86/17/41 85/17/41 31/17/41
f 75/17/42 86/17/42 34/17/42 37/17/42
f 80/3/9 88/3/9 87/3/9 79/3/9
f 79/10/9 87/10/9 50/9/9 42/9/9
f 186/10/2 89/10/2 53/9/2 184/9/2
f 187/3/2 90/3/2 89/3/2 186/3/2
f 91/1/1 92/2/1 94/3/1 93/4/1
f 99/5/2 100/6/2 92/7/2 91/8/2
f 98/9/3 94/10/3 92/11/3 100/12/3
f 94/10/4 98/9/4 102/9/4 95/10/4
f 97/13/5 93/14/5 96/14/5 101/13/5
f 93/4/6 94/3/6 95/3/6 96/4/6
f 93/14/7 97/13/7 99/15/7 91/16/7
f 96/4/8 95/3/8 103/3/8 104/4/8
f 96/4/9 104/4/9 108/4/9 110/4/9
f 109/13/10 110/14/10 105/14/10 106/13/10
f 101/13/9 96/14/9 110/14/9 109/13/9
f 110/4/10 108/4/10 107/4/10 105/4/10
f 103/3/11 95/3/11 124/3/11 118/3/11
f 95/10/11 102/9/11 121/9/11 124/10/11
f 118/3/2 124/3/2 130/3/2 131/3/2
f 124/10/2 121/9/2 113/9/2 130/10/2
f 131/3/9 130/3/9 132/3/9 134/3/9
f 130/10/9 113/9/9 133/9/9 132/10/9
f 129/17/12 127/17/12 140/17/12 126/17/12
f 126/17/13 140/17/13 139/14/13 123/17/13
f 123/17/14 139/14/14 138/14/14 120/17/14
f 120/17/15 138/14/15 137/14/15 117/17/15
f 117/17/16 137/14/16 136/14/16 115/17/16
f 115/17/17 136/14/17 135/14/17 112/17/17
f 112/17/18 135/17/18 105/17/18 107/17/18
f 106/17/19 105/17/19 135/17/19 111/17/19
f 114/17/20 111/17/20 135/17/20 136/17/20
f 116/17/21 114/17/21 136/17/21 137/17/21
f 119/17/22 116/17/22 137/17/22 138/17/22
f 122/17/23 119/17/23 138/17/23 139/17/23
f 125/17/24 122/17/24 139/17/24 140/17/24
f 127/17/25 128/17/25 125/17/25 140/17/25
f 134/3/9 132/3/9 141/3/9 143/3/9
f 132/10/9 133/9/9 142/9/9 141/10/9
f 181/10/2 180/9/2 145/9/2 144/10/2
f 182/3/2 181/3/2 144/3/2 146/3/2
f 147/1/26 149/4/26 150/3/26 148/2/26
f 99/5/2 147/8/2 148/7/2 100/6/2
f 98/9/3 100/12/3 148/11/3 150/10/3
f 150/10/4 151/10/4 102/9/4 98/9/4
f 97/13/5 101/13/5 152/14/5 149/14/5
f 149/4/27 152/4/27 151/3/27 150/3/27
f 149/14/7 147/16/7 99/15/7 97/13/7
f 152/4/28 197/4/28 196/3/28 151/3/28
f 152/4/9 156/4/9 155/4/9 197/4/9
f 109/13/10 106/13/10 153/14/10 156/14/10
f 101/13/9 109/13/9 156/14/9 152/14/9
f 156/4/10 153/4/10 154/4/10 155/4/10
f 196/3/11 160/3/11 163/3/11 151/3/11
f 151/10/11 163/10/11 121/9/11 102/9/11
f 160/3/2 168/3/2 167/3/2 163/3/2
f 163/10/2 167/10/2 113/9/2 121/9/2
f 168/3/9 194/3/9 169/3/9 167/3/9
f 167/10/9 169/10/9 133/9/9 113/9/9
f 166/17/29 164/17/29 175/17/29 165/17/29
f 164/17/30 162/17/30 174/14/30 175/17/30
f 162/17/31 161/17/31 173/14/31 174/14/31
f 161/17/32 159/17/32 172/14/32 173/14/32
f 159/17/33 158/17/33 171/14/33 172/14/33
f 158/17/34 157/17/34 170/14/34 171/14/34
f 157/17/35 154/17/35 153/17/35 170/17/35
f 106/17/36 111/17/36 170/17/36 153/17/36
f 114/17/37 171/17/37 170/17/37 111/17/37
f 116/17/38 172/17/38 171/17/38 114/17/38
f 119/17/39 173/17/39 172/17/39 116/17/39
f 122/17/40 174/17/40 173/17/40 119/17/40
f 125/17/41 175/17/41 174/17/41 122/17/41
f 165/17/42 175/17/42 125/17/42 128/17/42
f 194/3/9 177/3/9 176/3/9 169/3/9
f 169/10/9 176/10/9 142/9/9 133/9/9
f 183/10/2 178/10/2 145/9/2 180/9/2
f 188/3/2 179/3/2 178/3/2 183/3/2
f 177/3/2 188/3/2 183/3/2 176/3/2
f 176/10/2 183/10/2 180/9/2 142/9/2
f 143/3/2 141/3/2 181/3/2 182/3/2
f 141/10/2 142/9/2 180/9/2 181/10/2
f 88/3/2 187/3/2 186/3/2 87/3/2
f 87/10/2 186/10/2 184/9/2 50/9/2
f 51/3/2 49/3/2 185/3/2 189/3/2
f 49/10/2 50/9/2 184/9/2 185/10/2
f 27/3/43 40/3/43 193/3/43 195/3/43
f 154/4/44 199/17/44 197/4/44 155/4/44
f 157/17/44 190/17/44 199/17/44 154/4/44
f 158/17/44 191/17/44 190/17/44 157/17/44
f 159/17/44 203/17/44 191/17/44 158/17/44
f 161/17/44 205/17/44 203/17/44 159/17/44
f 162/17/44 207/17/44 205/17/44 161/17/44
f 164/17/44 209/17/44 207/17/44 162/17/44
f 166/17/44 210/17/44 209/17/44 164/17/44
f 16/4/43 17/4/43 13/4/43 198/17/43
f 38/17/43 35/17/43 208/17/43 192/17/43
f 35/17/43 32/17/43 206/17/43 208/17/43
f 32/17/43 29/17/43 204/17/43 206/17/43
f 29/17/43 26/17/43 202/17/43 204/17/43
f 26/17/43 24/17/43 201/17/43 202/17/43
f 24/17/43 21/17/43 200/17/43 201/17/43
f 21/17/43 16/4/43 198/17/43 200/17/43
f 160/3/44 196/3/44 194/3/44 168/3/44
f 188/3/2 189/3/2 54/3/2 179/3/2
