# Blender 4.4.0
# www.blender.org
mtllib Door 2.mtl
o Puerta_2
v -0.000000 0.149334 0.000000
v 0.500000 0.149334 0.000000
v -0.000000 0.138139 0.054048
v 0.500000 0.138139 0.054048
v 0.500000 0.149334 0.063197
v -0.000000 0.149334 0.063197
v 0.500000 0.125640 0.047029
v 0.500000 0.112250 0.044021
v 0.500000 0.097520 0.049035
v 0.500000 0.084022 0.057698
v 0.500000 0.074380 0.064917
v 0.500000 0.018460 0.064917
v -0.000000 -0.000180 0.074302
v 0.500000 -0.000180 0.074302
v -0.000000 0.125640 0.046979
v -0.000000 0.112250 0.043971
v -0.000000 0.097520 0.048985
v -0.000000 0.084022 0.057648
v -0.000000 0.074380 0.064867
v -0.000000 0.018460 0.064867
v -0.000000 3.500000 -0.000000
v 0.500000 3.500000 -0.000000
v 1.142830 0.149334 0.000000
v 1.142830 0.138139 0.054048
v 1.142830 0.149334 0.063197
v 1.142830 -0.000180 0.074302
v 1.142830 0.125640 0.046979
v 1.142830 0.112250 0.043971
v 1.142830 0.097520 0.048985
v 1.142830 0.084022 0.057648
v 1.142830 0.074380 0.064867
v 1.142830 0.018460 0.064867
v 1.142830 3.500000 -0.000000
v 2.857170 0.149334 0.000000
v 3.500000 0.149334 0.000000
v 2.857170 0.138139 0.054048
v 3.500000 0.138139 0.054048
v 3.500000 0.149334 0.063197
v 2.857170 0.149334 0.063197
v 3.500000 0.125640 0.047029
v 3.500000 0.112250 0.044021
v 3.500000 0.097520 0.049035
v 3.500000 0.084022 0.057698
v 3.500000 0.074380 0.064917
v 3.500000 0.018460 0.064917
v 2.857170 -0.000180 0.074302
v 3.500000 -0.000180 0.074302
v 2.857170 0.125640 0.046979
v 2.857170 0.112250 0.043971
v 2.857170 0.097520 0.048985
v 2.857170 0.084022 0.057648
v 2.857170 0.074380 0.064867
v 2.857170 0.018460 0.064867
v 2.857170 3.500000 -0.000000
v 3.500000 3.500000 -0.000000
v 4.000000 0.149334 0.000000
v 4.000000 0.138139 0.054048
v 4.000000 0.149334 0.063197
v 4.000000 -0.000180 0.074302
v 4.000000 0.125640 0.046979
v 4.000000 0.112250 0.043971
v 4.000000 0.097520 0.048985
v 4.000000 0.084022 0.057648
v 4.000000 0.074380 0.064867
v 4.000000 0.018460 0.064867
v 4.000000 3.500000 -0.000000
v 0.500000 2.534000 -0.000000
v 1.142830 2.534000 -0.000000
v -0.000000 2.534000 -0.000000
v 3.500000 2.534000 -0.000000
v 4.000000 2.534000 -0.000000
v 2.857170 2.534000 -0.000000
vn -0.0000 -0.6328 0.7743
vn -0.0000 1.0000 -0.0000
vn -0.0000 -0.4910 0.8712
vn -0.0001 -0.2192 0.9757
vn -0.0001 0.3222 0.9467
vn -0.0001 0.5401 0.8416
vn -0.0001 0.5994 0.8005
vn -0.0001 -0.0000 1.0000
vn -0.0000 0.4507 0.8927
vn -0.0000 -0.0000 1.0000
vn 0.0001 -0.2192 0.9757
vn 0.0001 0.3222 0.9467
vn 0.0001 0.5401 0.8416
vn 0.0001 0.5994 0.8005
vn 0.0001 -0.0000 1.0000
vt 0.250000 0.500000
vt 0.125000 0.500000
vt 0.000000 0.000000
vt 0.875000 0.500000
vt 0.750000 0.500000
s 0
f 5/1/1 6/2/1 3/2/1 4/1/1
f 2/1/2 1/2/2 6/2/2 5/1/2
f 4/3/3 3/3/3 15/3/3 7/3/3
f 8/3/4 7/3/4 15/3/4 16/3/4
f 9/3/5 8/3/5 16/3/5 17/3/5
f 10/3/6 9/3/6 17/3/6 18/3/6
f 11/3/7 10/3/7 18/3/7 19/3/7
f 12/3/8 11/3/8 19/3/8 20/3/8
f 13/3/9 14/3/9 12/3/9 20/3/9
f 69/4/10 67/5/10 22/5/10 21/4/10
f 5/1/1 4/1/1 24/2/1 25/2/1
f 2/1/2 5/1/2 25/2/2 23/2/2
f 4/3/3 7/3/3 27/3/3 24/3/3
f 8/3/11 28/3/11 27/3/11 7/3/11
f 9/3/12 29/3/12 28/3/12 8/3/12
f 10/3/13 30/3/13 29/3/13 9/3/13
f 11/3/14 31/3/14 30/3/14 10/3/14
f 12/3/15 32/3/15 31/3/15 11/3/15
f 26/3/9 32/3/9 12/3/9 14/3/9
f 68/4/10 33/4/10 22/5/10 67/5/10
f 38/1/1 39/2/1 36/2/1 37/1/1
f 35/1/2 34/2/2 39/2/2 38/1/2
f 37/3/3 36/3/3 48/3/3 40/3/3
f 41/3/4 40/3/4 48/3/4 49/3/4
f 42/3/5 41/3/5 49/3/5 50/3/5
f 43/3/6 42/3/6 50/3/6 51/3/6
f 44/3/7 43/3/7 51/3/7 52/3/7
f 45/3/8 44/3/8 52/3/8 53/3/8
f 46/3/9 47/3/9 45/3/9 53/3/9
f 72/4/10 70/5/10 55/5/10 54/4/10
f 38/1/1 37/1/1 57/2/1 58/2/1
f 35/1/2 38/1/2 58/2/2 56/2/2
f 37/3/3 40/3/3 60/3/3 57/3/3
f 41/3/11 61/3/11 60/3/11 40/3/11
f 42/3/12 62/3/12 61/3/12 41/3/12
f 43/3/13 63/3/13 62/3/13 42/3/13
f 44/3/14 64/3/14 63/3/14 43/3/14
f 45/3/15 65/3/15 64/3/15 44/3/15
f 59/3/9 65/3/9 45/3/9 47/3/9
f 71/4/10 66/4/10 55/5/10 70/5/10
f 23/4/10 68/4/10 67/5/10 2/5/10
f 1/4/10 2/5/10 67/5/10 69/4/10
f 56/4/10 71/4/10 70/5/10 35/5/10
f 34/4/10 35/5/10 70/5/10 72/4/10
f 68/4/10 72/4/10 54/4/10 33/4/10
