# Blender 4.4.0
# www.blender.org
mtllib Frame.mtl
o Marco
v -1.714340 0.000290 -0.100000
v 0.000000 -0.000290 -0.100000
v 0.000000 2.533692 -0.100000
v -1.714340 2.533728 -0.100000
v 0.000000 0.000290 0.100000
v -1.714340 -0.000290 0.100000
v -1.714340 2.533692 0.100000
v 0.000000 2.533728 0.100000
v -1.600150 2.533710 -0.100000
v -1.600150 2.533710 0.100000
v -1.600150 -0.000290 -0.100000
v -1.600150 -0.000290 0.100000
v -1.714340 2.424937 -0.100000
v -1.714340 2.424629 0.100000
v -1.600150 2.424638 -0.100000
v -1.600150 2.424638 0.100000
v -0.100150 2.533719 0.100000
v -0.100150 2.533701 -0.100000
v -0.100150 0.000009 0.100000
v -0.100150 -0.000009 -0.100000
v 0.000000 2.424556 -0.100000
v 0.000000 2.424864 0.100000
v -0.100150 2.424701 -0.100000
v -0.100150 2.424719 0.100000
v 0.000000 -0.000000 -0.000000
v 0.000000 2.533710 -0.000000
v -1.714340 2.533710 0.000000
v -1.714340 -0.000000 0.000000
v -1.600150 2.533710 0.000000
v -1.714340 2.424783 0.000000
v -0.100150 2.533710 -0.000000
v 0.000000 2.424710 -0.000000
vn -1.0000 -0.0000 -0.0000
vn 1.0000 -0.0000 -0.0000
vn -0.0001 1.0000 0.0001
vn -0.0000 1.0000 -0.0000
vn -0.0000 -0.0000 1.0000
vn -0.0000 -0.0000 -1.0000
vn -0.0000 1.0000 -0.0001
vn -0.0000 -1.0000 -0.0000
vn 0.0001 1.0000 0.0001
vt 0.000000 0.000000
s 0
f 30/1/1 14/1/1 7/1/1 27/1/1
f 32/1/2 26/1/2 8/1/2 22/1/2
f 29/1/3 27/1/3 7/1/3 10/1/3
f 31/1/4 29/1/4 10/1/4 17/1/4
f 16/1/2 12/1/2 11/1/2 15/1/2
f 14/1/5 6/1/5 12/1/5 16/1/5
f 13/1/6 4/1/6 9/1/6 15/1/6
f 1/1/6 13/1/6 15/1/6 11/1/6
f 7/1/5 14/1/5 16/1/5 10/1/5
f 28/1/1 6/1/1 14/1/1 30/1/1
f 26/1/7 31/1/7 17/1/7 8/1/7
f 24/1/1 23/1/1 20/1/1 19/1/1
f 22/1/5 24/1/5 19/1/5 5/1/5
f 21/1/6 23/1/6 18/1/6 3/1/6
f 2/1/6 20/1/6 23/1/6 21/1/6
f 8/1/5 17/1/5 24/1/5 22/1/5
f 25/1/2 32/1/2 22/1/2 5/1/2
f 16/1/5 24/1/5 17/1/5 10/1/5
f 18/1/6 23/1/6 15/1/6 9/1/6
f 15/1/8 23/1/8 24/1/8 16/1/8
f 2/1/2 21/1/2 32/1/2 25/1/2
f 3/1/7 18/1/7 31/1/7 26/1/7
f 1/1/1 28/1/1 30/1/1 13/1/1
f 18/1/4 9/1/4 29/1/4 31/1/4
f 9/1/9 4/1/9 27/1/9 29/1/9
f 21/1/2 3/1/2 26/1/2 32/1/2
f 13/1/1 30/1/1 27/1/1 4/1/1
