# Blender 4.4.0
# www.blender.org
mtllib Pared.mtl
o Pared
v 3.465771 0.285129 -0.981459
v 3.465771 0.945137 -0.981459
v 3.449610 0.267813 -1.000000
v 3.449610 0.962453 -1.000000
v 3.356021 1.062732 -0.943413
v 3.356021 0.167534 -0.943413
v 3.773758 0.267813 -1.000000
v 3.773758 0.962453 -1.000000
v 3.773758 0.285129 -0.981459
v 3.773758 0.945137 -0.981459
v 3.773758 0.167534 -0.943413
v 3.773758 1.062732 -0.943413
v 3.225648 1.062732 -0.992592
v 3.225648 0.167534 -0.992592
v 3.356021 0.154959 -0.914839
v 3.773758 0.154959 -0.914839
v 3.225648 0.154959 -0.914839
v 3.225648 0.167534 -0.905690
v 3.773758 0.167534 -0.905690
v 3.356021 0.167534 -0.905690
v 3.773758 0.140922 -0.921857
v 3.225648 0.140922 -0.921857
v 3.773758 1.114827 -0.900301
v 3.773758 0.125882 -0.924865
v 3.225648 0.125882 -0.924865
v 3.773758 0.109338 -0.919852
v 3.225648 0.109338 -0.919852
v 3.225648 1.062732 -0.900301
v 3.773758 0.094178 -0.911189
v 3.225648 0.094178 -0.911189
v 3.773758 1.062732 -0.900301
v 3.773758 0.083349 -0.903970
v 3.225648 0.083349 -0.903970
v 3.356021 1.062732 -0.900301
v 3.773758 0.020542 -0.903970
v 3.225648 0.020542 -0.903970
v 3.356021 -0.000393 -0.894585
v 3.773758 -0.000393 -0.894585
v 3.225648 -0.000393 -0.894585
v 3.356021 0.154959 -0.943715
v 3.773758 0.154959 -0.943715
v 3.225648 0.154959 -0.992894
v 3.356021 0.140922 -0.950734
v 3.773758 0.140922 -0.950734
v 3.225648 0.140922 -0.999913
v 3.356021 0.125882 -0.953742
v 3.773758 0.125882 -0.953742
v 3.225648 0.125882 -1.002921
v 3.356021 0.109338 -0.948729
v 3.773758 0.109338 -0.948729
v 3.225648 0.109338 -0.997908
v 3.356021 0.094178 -0.940066
v 3.773758 0.094178 -0.940066
v 3.225648 0.094178 -0.989245
v 3.356021 0.083349 -0.932846
v 3.773758 0.083349 -0.932846
v 3.225648 0.083349 -0.982025
v 3.356021 0.020542 -0.932846
v 3.773758 0.020542 -0.932846
v 3.225648 0.020542 -0.982025
v 3.356021 -0.000393 -0.923461
v 3.773758 -0.000393 -0.923461
v 3.225648 -0.000393 -0.972640
v 3.356021 1.114827 -0.900301
v 3.225648 1.114827 -0.900301
v 3.356021 1.114827 -0.994239
v 3.773758 1.114827 -0.994239
v 3.225648 1.114827 -0.994239
v 3.356021 0.140922 -0.921907
v 3.356021 0.125882 -0.924915
v 3.356021 0.109338 -0.919902
v 3.356021 0.094178 -0.911239
v 3.356021 0.083349 -0.904020
v 3.356021 0.020542 -0.904020
v 3.225648 1.062732 -1.072782
v 3.225648 0.167534 -1.072782
v 3.225648 0.154959 -1.073084
v 3.225648 0.140922 -1.072836
v 3.225648 0.125882 -1.072335
v 3.225648 0.109338 -1.072335
v 3.225648 0.094178 -1.072195
v 3.225648 0.083349 -1.071994
v 3.225648 0.020542 -1.071994
v 3.225648 -0.000393 -1.072135
v 3.356021 1.114827 -1.074428
v 3.773758 1.114827 -1.074428
v 3.225648 1.114827 -1.074428
v 3.356021 1.114827 -1.146782
v 3.773758 1.114827 -1.146782
v 3.225648 1.114827 -1.146782
v 3.356021 3.369065 -1.074428
v 3.773758 3.369065 -1.074428
v 3.225648 3.369065 -1.074428
v 3.356021 3.369065 -1.146782
v 3.773758 3.369065 -1.146782
v 3.225648 3.369065 -1.146782
v 3.356021 1.063092 -1.146782
v 3.773758 1.063092 -1.146782
v 3.225648 1.063092 -1.146782
v 3.356021 0.167563 -1.146782
v 3.773758 0.167563 -1.146782
v 3.225648 0.167563 -1.146782
v 3.356021 0.156128 -1.146782
v 3.773758 0.156128 -1.146782
v 3.225648 0.156128 -1.146782
v 3.356021 0.143653 -1.146782
v 3.773758 0.143653 -1.146782
v 3.225648 0.143653 -1.146782
v 3.356021 0.125980 -1.146782
v 3.773758 0.125980 -1.146782
v 3.225648 0.125980 -1.146782
v 3.356021 0.108308 -1.146782
v 3.773758 0.108308 -1.146782
v 3.225648 0.108308 -1.146782
v 3.356021 0.093754 -1.146782
v 3.773758 0.093754 -1.146782
v 3.225648 0.093754 -1.146782
v 3.356021 0.082319 -1.146782
v 3.773758 0.082319 -1.146782
v 3.225648 0.082319 -1.146782
v 3.356021 0.022024 -1.146782
v 3.773758 0.022024 -1.146782
v 3.225648 0.022024 -1.146782
v 3.356021 0.001233 -1.146782
v 3.773758 0.001233 -1.146782
v 3.225648 0.001233 -1.146782
v 4.081745 0.285129 -0.981459
v 4.081745 0.945137 -0.981459
v 4.097905 0.267813 -1.000000
v 4.097905 0.962453 -1.000000
v 4.191494 1.062732 -0.943413
v 4.191494 0.167534 -0.943413
v 4.321867 1.062732 -0.992592
v 4.321867 0.167534 -0.992592
v 4.191494 0.154959 -0.914839
v 4.321867 0.154959 -0.914839
v 4.321867 0.167534 -0.905690
v 4.191494 0.167534 -0.905690
v 4.321867 0.140922 -0.921857
v 4.321867 0.125882 -0.924865
v 4.321867 0.109338 -0.919852
v 4.321867 1.062732 -0.900301
v 4.321867 0.094178 -0.911189
v 4.321867 0.083349 -0.903970
v 4.191494 1.062732 -0.900301
v 4.321867 0.020542 -0.903970
v 4.191494 -0.000393 -0.894585
v 4.321867 -0.000393 -0.894585
v 4.191494 0.154959 -0.943715
v 4.321867 0.154959 -0.992894
v 4.191494 0.140922 -0.950734
v 4.321867 0.140922 -0.999913
v 4.191494 0.125882 -0.953742
v 4.321867 0.125882 -1.002921
v 4.191494 0.109338 -0.948729
v 4.321867 0.109338 -0.997908
v 4.191494 0.094178 -0.940066
v 4.321867 0.094178 -0.989245
v 4.191494 0.083349 -0.932846
v 4.321867 0.083349 -0.982025
v 4.191494 0.020542 -0.932846
v 4.321867 0.020542 -0.982025
v 4.191494 -0.000393 -0.923461
v 4.321867 -0.000393 -0.972640
v 4.191494 1.114827 -0.900301
v 4.321867 1.114827 -0.900301
v 4.191494 1.114827 -0.994239
v 4.321867 1.114827 -0.994239
v 4.191494 0.140922 -0.921907
v 4.191494 0.125882 -0.924915
v 4.191494 0.109338 -0.919902
v 4.191494 0.094178 -0.911239
v 4.191494 0.083349 -0.904020
v 4.191494 0.020542 -0.904020
v 4.321867 1.062732 -1.072782
v 4.321867 0.167534 -1.072782
v 4.321867 0.154959 -1.073084
v 4.321867 0.140922 -1.072836
v 4.321867 0.125882 -1.072335
v 4.321867 0.109338 -1.072335
v 4.321867 0.094178 -1.072195
v 4.321867 0.083349 -1.071994
v 4.321867 0.020542 -1.071994
v 4.321867 -0.000393 -1.072135
v 4.191494 1.114827 -1.074428
v 4.321867 1.114827 -1.074428
v 4.191494 1.114827 -1.146782
v 4.321867 1.114827 -1.146782
v 4.191494 3.369065 -1.074428
v 4.321867 3.369065 -1.074428
v 4.191494 3.369065 -1.146782
v 4.321867 3.369065 -1.146782
v 4.191494 1.063092 -1.146782
v 4.321867 1.063092 -1.146782
v 4.191494 0.167563 -1.146782
v 4.321867 0.167563 -1.146782
v 4.191494 0.156128 -1.146782
v 4.321867 0.156128 -1.146782
v 4.191494 0.143653 -1.146782
v 4.321867 0.143653 -1.146782
v 4.191494 0.125980 -1.146782
v 4.321867 0.125980 -1.146782
v 4.191494 0.108308 -1.146782
v 4.321867 0.108308 -1.146782
v 4.191494 0.093754 -1.146782
v 4.321867 0.093754 -1.146782
v 4.191494 0.082319 -1.146782
v 4.321867 0.082319 -1.146782
v 4.191494 0.022024 -1.146782
v 4.321867 0.022024 -1.146782
v 4.191494 0.001233 -1.146782
v 4.321867 0.001233 -1.146782
vn -0.7538 -0.0000 0.6571
vn -0.0000 -0.0000 1.0000
vn -0.0000 0.7308 0.6826
vn -0.0000 -0.4914 0.8709
vn -0.0000 0.4914 0.8709
vn 0.5174 -0.0000 0.8557
vn -0.0000 -0.7308 0.6826
vn -0.3529 -0.0000 0.9356
vn -0.0000 1.0000 -0.0000
vn -0.0000 -0.5883 0.8086
vn -1.0000 -0.0000 -0.0000
vn 1.0000 -0.0000 -0.0000
vn -0.0000 -0.4472 0.8944
vn -0.3197 -0.4237 0.8475
vn -0.0000 -0.1961 0.9806
vn -0.3469 -0.1839 0.9197
vn -0.0000 0.2900 0.9570
vn -0.3396 0.2728 0.9002
vn -0.0000 0.4961 0.8682
vn -0.3112 0.4715 0.8251
vn -0.0000 0.5547 0.8320
vn -0.2995 0.5292 0.7939
vn -0.0000 0.4091 0.9125
vn -0.3255 0.3868 0.8628
vn -0.0000 -1.0000 -0.0000
vn -0.0002 -0.4100 -0.9121
vn -0.0004 -0.0000 -1.0000
vn -0.0003 -0.5547 -0.8320
vn -0.0003 -0.4961 -0.8682
vn -0.0004 -0.2900 -0.9570
vn -0.0004 0.1961 -0.9806
vn -0.0002 0.4485 -0.8938
vn 0.0001 0.4485 -0.8938
vn 0.0001 0.1961 -0.9806
vn 0.0001 -0.2900 -0.9570
vn 0.0001 -0.4961 -0.8682
vn 0.0001 -0.5547 -0.8320
vn 0.0001 -0.0000 -1.0000
vn 0.0001 -0.4100 -0.9121
vn -0.0000 -0.0000 -1.0000
vn 0.7538 -0.0000 0.6571
vn -0.5174 -0.0000 0.8557
vn 0.3529 -0.0000 0.9356
vn 0.3197 -0.4237 0.8475
vn 0.3469 -0.1839 0.9197
vn 0.3396 0.2728 0.9002
vn 0.3112 0.4715 0.8251
vn 0.2995 0.5292 0.7939
vn 0.3255 0.3868 0.8628
vn 0.0002 -0.4100 -0.9121
vn 0.0004 -0.0000 -1.0000
vn 0.0003 -0.5547 -0.8320
vn 0.0003 -0.4961 -0.8682
vn 0.0004 -0.2900 -0.9570
vn 0.0004 0.1961 -0.9806
vn 0.0002 0.4485 -0.8938
vn -0.0001 0.4485 -0.8938
vn -0.0001 0.1961 -0.9806
vn -0.0001 -0.2900 -0.9570
vn -0.0001 -0.4961 -0.8682
vn -0.0001 -0.5547 -0.8320
vn -0.0001 -0.0000 -1.0000
vn -0.0001 -0.4100 -0.9121
vt 0.375000 0.000000
vt 0.625000 0.000000
vt 0.625000 0.250000
vt 0.375000 0.250000
vt 0.375000 0.875000
vt 0.625000 0.875000
vt 0.625000 1.000000
vt 0.375000 1.000000
vt 0.750000 0.500000
vt 0.875000 0.500000
vt 0.875000 0.750000
vt 0.750000 0.750000
vt 0.250000 0.500000
vt 0.125000 0.500000
vt 0.250000 0.750000
vt 0.125000 0.750000
vt 0.000000 0.000000
s 0
f 1/1/1 2/2/1 4/3/1 3/4/1
f 9/5/2 10/6/2 2/7/2 1/8/2
f 8/9/3 4/10/3 2/11/3 10/12/3
f 4/10/4 8/9/4 12/9/4 5/10/4
f 7/13/5 3/14/5 6/14/5 11/13/5
f 3/4/6 4/3/6 5/3/6 6/4/6
f 3/14/7 7/13/7 9/15/7 1/16/7
f 6/4/8 5/3/8 13/3/8 14/4/8
f 6/4/9 14/4/9 18/4/9 20/4/9
f 19/13/10 20/14/10 15/14/10 16/13/10
f 11/13/9 6/14/9 20/14/9 19/13/9
f 20/4/10 18/4/10 17/4/10 15/4/10
f 29/17/11 26/17/11 50/17/11 53/17/11
f 21/17/11 16/17/11 41/17/11 44/17/11
f 30/17/12 33/17/12 57/17/12 54/17/12
f 22/17/12 25/17/12 48/17/12 45/17/12
f 37/17/9 38/17/9 62/17/9 61/17/9
f 32/17/11 29/17/11 53/17/11 56/17/11
f 24/17/11 21/17/11 44/17/11 47/17/11
f 39/17/9 37/17/9 61/17/9 63/17/9
f 33/17/12 36/17/12 60/17/12 57/17/12
f 25/17/12 27/17/12 51/17/12 48/17/12
f 35/17/11 32/17/11 56/17/11 59/17/11
f 26/17/11 24/17/11 47/17/11 50/17/11
f 41/13/13 40/14/13 43/14/13 44/13/13
f 40/4/14 42/4/14 45/4/14 43/4/14
f 44/13/15 43/14/15 46/14/15 47/13/15
f 43/4/16 45/4/16 48/4/16 46/4/16
f 47/13/17 46/14/17 49/14/17 50/13/17
f 46/4/18 48/4/18 51/4/18 49/4/18
f 50/13/19 49/14/19 52/14/19 53/13/19
f 49/4/20 51/4/20 54/4/20 52/4/20
f 53/13/21 52/14/21 55/14/21 56/13/21
f 52/4/22 54/4/22 57/4/22 55/4/22
f 56/13/2 55/14/2 58/14/2 59/13/2
f 55/4/8 57/4/8 60/4/8 58/4/8
f 59/13/23 58/14/23 61/14/23 62/13/23
f 58/4/24 60/4/24 63/4/24 61/4/24
f 38/17/11 35/17/11 59/17/11 62/17/11
f 17/17/12 22/17/12 45/17/12 42/17/12
f 27/17/12 30/17/12 54/17/12 51/17/12
f 36/17/12 39/17/12 63/17/12 60/17/12
f 13/3/25 5/3/25 34/3/25 28/3/25
f 5/10/25 12/9/25 31/9/25 34/10/25
f 28/3/2 34/3/2 64/3/2 65/3/2
f 34/10/2 31/9/2 23/9/2 64/10/2
f 18/17/11 14/17/11 42/17/11 17/17/11
f 28/3/11 65/3/11 68/3/11 13/3/11
f 65/3/9 64/3/9 66/3/9 68/3/9
f 64/10/9 23/9/9 67/9/9 66/10/9
f 39/17/26 36/17/26 74/17/26 37/17/26
f 36/17/27 33/17/27 73/14/27 74/17/27
f 33/17/28 30/17/28 72/14/28 73/14/28
f 30/17/29 27/17/29 71/14/29 72/14/29
f 27/17/30 25/17/30 70/14/30 71/14/30
f 25/17/31 22/17/31 69/14/31 70/14/31
f 22/17/32 17/17/32 15/17/32 69/17/32
f 16/17/33 21/17/33 69/17/33 15/17/33
f 24/17/34 70/17/34 69/17/34 21/17/34
f 26/17/35 71/17/35 70/17/35 24/17/35
f 29/17/36 72/17/36 71/17/36 26/17/36
f 32/17/37 73/17/37 72/17/37 29/17/37
f 35/17/38 74/17/38 73/17/38 32/17/38
f 37/17/39 74/17/39 35/17/39 38/17/39
f 14/4/11 13/3/11 75/3/11 76/4/11
f 51/4/12 54/4/12 81/4/12 80/4/12
f 68/3/9 66/3/9 85/3/9 87/3/9
f 48/17/11 45/17/11 78/17/11 79/17/11
f 60/4/12 63/4/12 84/4/12 83/4/12
f 57/17/11 54/17/11 81/17/11 82/17/11
f 42/17/11 14/17/11 76/17/11 77/17/11
f 51/17/11 48/17/11 79/17/11 80/17/11
f 42/4/12 45/4/12 78/4/12 77/4/12
f 66/10/9 67/9/9 86/9/9 85/10/9
f 13/3/11 68/3/11 87/3/11 75/3/11
f 60/17/11 57/17/11 82/17/11 83/17/11
f 85/10/2 86/9/2 92/9/2 91/10/2
f 88/17/40 90/17/40 96/17/40 94/17/40
f 93/3/9 91/3/9 94/3/9 96/3/9
f 91/10/9 92/9/9 95/9/9 94/10/9
f 86/17/12 89/17/12 95/17/12 92/17/12
f 89/17/40 88/17/40 94/17/40 95/17/40
f 87/3/2 85/3/2 91/3/2 93/3/2
f 90/17/11 87/17/11 93/17/11 96/17/11
f 90/17/40 88/17/40 97/17/40 99/17/40
f 88/17/40 89/17/40 98/17/40 97/17/40
f 99/17/40 97/17/40 100/17/40 102/17/40
f 97/17/40 98/17/40 101/17/40 100/17/40
f 102/17/40 100/17/40 103/17/40 105/17/40
f 100/17/40 101/17/40 104/17/40 103/17/40
f 105/17/40 103/17/40 106/17/40 108/17/40
f 103/17/40 104/17/40 107/17/40 106/17/40
f 108/17/40 106/17/40 109/17/40 111/17/40
f 106/17/40 107/17/40 110/17/40 109/17/40
f 111/17/40 109/17/40 112/17/40 114/17/40
f 109/17/40 110/17/40 113/17/40 112/17/40
f 114/17/40 112/17/40 115/17/40 117/17/40
f 112/17/40 113/17/40 116/17/40 115/17/40
f 117/17/40 115/17/40 118/17/40 120/17/40
f 115/17/40 116/17/40 119/17/40 118/17/40
f 120/17/40 118/17/40 121/17/40 123/17/40
f 118/17/40 119/17/40 122/17/40 121/17/40
f 123/17/40 121/17/40 124/17/40 126/17/40
f 121/17/40 122/17/40 125/17/40 124/17/40
f 87/17/11 90/17/11 99/17/11 75/3/11
f 75/3/11 99/17/11 102/17/11 76/4/11
f 76/4/11 102/17/11 105/17/11 77/17/11
f 77/17/12 78/4/12 108/17/12 105/17/12
f 78/4/11 108/17/11 111/17/11 79/17/11
f 79/17/11 111/17/11 114/17/11 80/17/11
f 80/17/12 81/4/12 117/17/12 114/17/12
f 81/4/11 117/17/11 120/17/11 82/17/11
f 82/17/11 120/17/11 123/17/11 83/17/11
f 83/17/12 84/4/12 126/17/12 123/17/12
f 127/1/41 129/4/41 130/3/41 128/2/41
f 9/5/2 127/8/2 128/7/2 10/6/2
f 8/9/3 10/12/3 128/11/3 130/10/3
f 130/10/4 131/10/4 12/9/4 8/9/4
f 7/13/5 11/13/5 132/14/5 129/14/5
f 129/4/42 132/4/42 131/3/42 130/3/42
f 129/14/7 127/16/7 9/15/7 7/13/7
f 132/4/43 134/4/43 133/3/43 131/3/43
f 132/4/9 138/4/9 137/4/9 134/4/9
f 19/13/10 16/13/10 135/14/10 138/14/10
f 11/13/9 19/13/9 138/14/9 132/14/9
f 138/4/10 135/4/10 136/4/10 137/4/10
f 143/17/11 158/17/11 160/17/11 144/17/11
f 139/17/11 152/17/11 154/17/11 140/17/11
f 147/17/9 163/17/9 62/17/9 38/17/9
f 148/17/9 164/17/9 163/17/9 147/17/9
f 144/17/11 160/17/11 162/17/11 146/17/11
f 140/17/11 154/17/11 156/17/11 141/17/11
f 41/13/13 44/13/13 151/14/13 149/14/13
f 149/4/44 151/4/44 152/4/44 150/4/44
f 44/13/15 47/13/15 153/14/15 151/14/15
f 151/4/45 153/4/45 154/4/45 152/4/45
f 47/13/17 50/13/17 155/14/17 153/14/17
f 153/4/46 155/4/46 156/4/46 154/4/46
f 50/13/19 53/13/19 157/14/19 155/14/19
f 155/4/47 157/4/47 158/4/47 156/4/47
f 53/13/21 56/13/21 159/14/21 157/14/21
f 157/4/48 159/4/48 160/4/48 158/4/48
f 56/13/2 59/13/2 161/14/2 159/14/2
f 159/4/43 161/4/43 162/4/43 160/4/43
f 59/13/23 62/13/23 163/14/23 161/14/23
f 161/4/49 163/4/49 164/4/49 162/4/49
f 136/17/11 150/17/11 152/17/11 139/17/11
f 141/17/11 156/17/11 158/17/11 143/17/11
f 146/17/11 162/17/11 164/17/11 148/17/11
f 133/3/25 142/3/25 145/3/25 131/3/25
f 131/10/25 145/10/25 31/9/25 12/9/25
f 142/3/2 166/3/2 165/3/2 145/3/2
f 145/10/2 165/10/2 23/9/2 31/9/2
f 137/17/12 136/17/12 150/17/12 134/17/12
f 142/3/12 133/3/12 168/3/12 166/3/12
f 166/3/9 168/3/9 167/3/9 165/3/9
f 165/10/9 167/10/9 67/9/9 23/9/9
f 148/17/50 147/17/50 174/17/50 146/17/50
f 146/17/51 174/17/51 173/14/51 144/17/51
f 144/17/52 173/14/52 172/14/52 143/17/52
f 143/17/53 172/14/53 171/14/53 141/17/53
f 141/17/54 171/14/54 170/14/54 140/17/54
f 140/17/55 170/14/55 169/14/55 139/17/55
f 139/17/56 169/17/56 135/17/56 136/17/56
f 16/17/57 135/17/57 169/17/57 21/17/57
f 24/17/58 21/17/58 169/17/58 170/17/58
f 26/17/59 24/17/59 170/17/59 171/17/59
f 29/17/60 26/17/60 171/17/60 172/17/60
f 32/17/61 29/17/61 172/17/61 173/17/61
f 35/17/62 32/17/62 173/17/62 174/17/62
f 147/17/63 38/17/63 35/17/63 174/17/63
f 134/4/12 176/4/12 175/3/12 133/3/12
f 156/4/11 180/4/11 181/4/11 158/4/11
f 168/3/9 186/3/9 185/3/9 167/3/9
f 154/17/12 179/17/12 178/17/12 152/17/12
f 162/4/11 183/4/11 184/4/11 164/4/11
f 160/17/12 182/17/12 181/17/12 158/17/12
f 150/17/12 177/17/12 176/17/12 134/17/12
f 156/17/12 180/17/12 179/17/12 154/17/12
f 150/4/11 177/4/11 178/4/11 152/4/11
f 167/10/9 185/10/9 86/9/9 67/9/9
f 133/3/12 175/3/12 186/3/12 168/3/12
f 162/17/12 183/17/12 182/17/12 160/17/12
f 185/10/2 189/10/2 92/9/2 86/9/2
f 187/17/40 191/17/40 192/17/40 188/17/40
f 190/3/9 192/3/9 191/3/9 189/3/9
f 189/10/9 191/10/9 95/9/9 92/9/9
f 89/17/40 95/17/40 191/17/40 187/17/40
f 186/3/2 190/3/2 189/3/2 185/3/2
f 188/17/12 192/17/12 190/17/12 186/17/12
f 188/17/40 194/17/40 193/17/40 187/17/40
f 187/17/40 193/17/40 98/17/40 89/17/40
f 194/17/40 196/17/40 195/17/40 193/17/40
f 193/17/40 195/17/40 101/17/40 98/17/40
f 196/17/40 198/17/40 197/17/40 195/17/40
f 195/17/40 197/17/40 104/17/40 101/17/40
f 198/17/40 200/17/40 199/17/40 197/17/40
f 197/17/40 199/17/40 107/17/40 104/17/40
f 200/17/40 202/17/40 201/17/40 199/17/40
f 199/17/40 201/17/40 110/17/40 107/17/40
f 202/17/40 204/17/40 203/17/40 201/17/40
f 201/17/40 203/17/40 113/17/40 110/17/40
f 204/17/40 206/17/40 205/17/40 203/17/40
f 203/17/40 205/17/40 116/17/40 113/17/40
f 206/17/40 208/17/40 207/17/40 205/17/40
f 205/17/40 207/17/40 119/17/40 116/17/40
f 208/17/40 210/17/40 209/17/40 207/17/40
f 207/17/40 209/17/40 122/17/40 119/17/40
f 210/17/40 212/17/40 211/17/40 209/17/40
f 209/17/40 211/17/40 125/17/40 122/17/40
f 186/17/12 175/3/12 194/17/12 188/17/12
f 175/3/12 176/4/12 196/17/12 194/17/12
f 176/4/12 177/17/12 198/17/12 196/17/12
f 177/17/11 198/17/11 200/17/11 178/4/11
f 178/4/12 179/17/12 202/17/12 200/17/12
f 179/17/12 180/17/12 204/17/12 202/17/12
f 180/17/11 204/17/11 206/17/11 181/4/11
f 181/4/12 182/17/12 208/17/12 206/17/12
f 182/17/12 183/17/12 210/17/12 208/17/12
f 183/17/11 210/17/11 212/17/11 184/4/11
