# Blender 4.4.0
# www.blender.org
mtllib Tip.mtl
o Punta
v 0.000000 0.947329 0.081836
v 0.000000 0.150289 0.081836
v 0.000000 0.139093 0.159590
v 0.000000 0.150289 0.168738
v 0.000000 0.126595 0.152571
v 0.000000 0.113204 0.149563
v 0.000000 0.098474 0.154576
v 0.000000 0.947329 0.174128
v 0.000000 0.084976 0.163239
v 0.000000 0.075335 0.170459
v 0.000000 0.019414 0.170459
v 0.000000 0.000774 0.179844
v 0.000000 0.993712 0.174128
v 0.000000 0.993712 0.080190
v 0.000000 0.993712 0.000000
v 0.081837 0.947329 -0.000000
v 0.081837 0.150289 -0.000000
v 0.159591 0.139093 -0.000000
v 0.168739 0.150289 -0.000000
v 0.152572 0.126595 -0.000000
v 0.149564 0.113204 -0.000000
v 0.154577 0.098474 -0.000000
v 0.174128 0.947329 -0.000000
v 0.163240 0.084976 -0.000000
v 0.170459 0.075335 -0.000000
v 0.170459 0.019414 -0.000000
v 0.179844 0.000774 -0.000000
v 0.174128 0.993712 -0.000000
v 0.080191 0.993712 -0.000000
v 0.081837 0.947329 0.080190
v 0.174128 0.947329 0.080190
v 0.174128 0.993712 0.080190
v 0.080191 0.993712 0.080190
v 0.081837 0.947329 0.174128
v 0.174128 0.947329 0.174128
v 0.174128 0.993712 0.174128
v 0.080191 0.993712 0.174128
v 0.081837 0.150289 0.081836
v 0.168739 0.150289 0.081836
v 0.081837 0.150289 0.168738
v 0.081841 0.139093 0.159590
v 0.081841 0.126595 0.152571
v 0.081841 0.113204 0.149563
v 0.081841 0.098474 0.154576
v 0.081841 0.084976 0.163239
v 0.081841 0.075335 0.170459
v 0.081841 0.019414 0.170459
v 0.081841 0.000774 0.179844
v 0.159591 0.139093 0.081836
v 0.152572 0.126595 0.081836
v 0.149564 0.113204 0.081836
v 0.154577 0.098474 0.081836
v 0.163240 0.084976 0.081836
v 0.170459 0.075335 0.081836
v 0.170459 0.019414 0.081836
v 0.179844 0.000774 0.081836
v 0.168737 0.150289 0.168738
v 0.152571 0.126595 0.152571
v 0.154581 0.098474 0.154576
v 0.179851 0.000774 0.179844
v 0.159591 0.139093 0.159590
v 0.149571 0.113204 0.149563
v 0.163241 0.084976 0.163239
v 0.168741 0.075335 0.168738
v 0.168741 0.019414 0.168738
vn -0.0000 1.0000 -0.0000
vn -0.0000 -1.0000 -0.0000
vn -0.0000 -0.0000 1.0000
vn 1.0000 -0.0000 -0.0000
vn 0.0101 0.0010 0.9999
vn -0.0000 0.4497 0.8932
vn -0.0000 0.5994 0.8005
vn -0.0000 -0.6327 0.7744
vn -0.0000 0.3222 0.9467
vn -0.0000 -0.4896 0.8719
vn -0.0000 0.5401 0.8416
vn -0.0000 -0.2192 0.9757
vn 0.9467 0.3222 -0.0000
vn 0.9757 -0.2192 -0.0000
vn 0.8719 -0.4897 -0.0000
vn 0.8932 0.4497 -0.0000
vn 0.7743 -0.6328 -0.0000
vn 0.8005 0.5994 -0.0000
vn 0.8416 0.5401 -0.0000
vn 0.0198 -0.0000 0.9998
vn 0.0081 0.4835 0.8753
vn 0.0085 0.5523 0.8336
vn -0.0000 -0.4897 0.8719
vn 0.8753 0.4836 0.0081
vn 0.8336 0.5523 0.0085
vn 0.9467 0.3221 -0.0001
vn 0.7744 -0.6327 -0.0000
vn 0.9998 -0.0000 0.0198
vn 0.9758 -0.2189 -0.0000
vt 0.625000 0.250000
vt 0.000000 0.000000
vt 0.375000 0.250000
s 0
f 28/1/1 29/1/1 33/1/1 32/1/1
f 16/1/2 23/1/2 31/1/2 30/1/2
f 32/1/1 33/1/1 37/1/1 36/1/1
f 30/1/2 31/1/2 35/1/2 34/1/2
f 14/1/1 33/1/1 29/1/1 15/1/1
f 13/1/1 37/1/1 33/1/1 14/1/1
f 13/1/3 8/1/3 34/2/3 37/1/3
f 35/1/3 36/1/3 37/1/3 34/2/3
f 36/1/4 35/1/4 31/1/4 32/1/4
f 23/1/4 28/1/4 32/1/4 31/1/4
f 1/1/2 30/1/2 34/1/2 8/1/2
f 19/3/1 17/3/1 38/3/1 39/3/1
f 39/3/1 38/3/1 40/3/1 57/3/1
f 4/3/1 40/3/1 38/3/1 2/3/1
f 2/3/5 38/3/5 30/1/5 1/1/5
f 17/3/4 16/1/4 30/1/4 38/3/4
f 11/2/6 12/2/6 48/2/6 47/2/6
f 9/2/7 10/2/7 46/2/7 45/2/7
f 4/3/8 3/3/8 41/3/8 40/3/8
f 6/2/9 7/2/9 44/2/9 43/2/9
f 3/2/10 5/2/10 42/2/10 41/2/10
f 10/2/3 11/2/3 47/2/3 46/2/3
f 7/2/11 9/2/11 45/2/11 44/2/11
f 5/2/12 6/2/12 43/2/12 42/2/12
f 22/2/13 21/2/13 51/2/13 52/2/13
f 21/2/14 20/2/14 50/2/14 51/2/14
f 20/2/15 18/2/15 49/2/15 50/2/15
f 27/2/16 26/2/16 55/2/16 56/2/16
f 26/2/4 25/2/4 54/2/4 55/2/4
f 18/3/17 19/3/17 39/3/17 49/3/17
f 25/2/18 24/2/18 53/2/18 54/2/18
f 24/2/19 22/2/19 52/2/19 53/2/19
f 46/2/20 47/2/20 65/2/20 64/2/20
f 44/2/11 45/2/11 63/2/11 59/2/11
f 42/2/12 43/2/12 62/2/12 58/2/12
f 40/3/8 41/3/8 61/3/8 57/3/8
f 47/2/21 48/2/21 60/2/21 65/2/21
f 45/2/22 46/2/22 64/2/22 63/2/22
f 43/2/9 44/2/9 59/2/9 62/2/9
f 41/2/23 42/2/23 58/2/23 61/2/23
f 56/2/24 55/2/24 65/2/24 60/2/24
f 54/2/25 53/2/25 63/2/25 64/2/25
f 52/2/26 51/2/26 62/2/26 59/2/26
f 50/2/15 49/2/15 61/2/15 58/2/15
f 49/3/27 39/3/27 57/3/27 61/3/27
f 55/2/28 54/2/28 64/2/28 65/2/28
f 53/2/19 52/2/19 59/2/19 63/2/19
f 51/2/29 50/2/29 58/2/29 62/2/29
