# Blender 4.4.0
# www.blender.org
mtllib Desk.mtl
o Desk
v -0.440748 0.110171 1.081129
v -0.440748 0.280222 1.081129
v 0.440748 0.110173 1.081129
v 0.440748 0.280222 1.081129
v -0.440748 0.110171 0.108891
v -0.440748 0.280222 0.108891
v 0.440748 0.110171 0.108891
v 0.440748 0.280222 0.108891
v -0.440748 0.351779 1.081129
v -0.440748 0.521830 1.081129
v 0.440748 0.351778 1.081129
v 0.440748 0.521830 1.081129
v -0.440748 0.351779 0.108891
v -0.440748 0.521830 0.108891
v 0.440748 0.351779 0.108891
v 0.440748 0.521830 0.108891
v -0.440748 0.590544 1.101870
v -0.440748 0.760595 1.101870
v 0.440748 0.590544 1.101870
v 0.440748 0.760595 1.101870
v -0.440748 0.590544 0.440748
v -0.440748 0.760595 0.440748
v 0.440748 0.590544 0.440748
v 0.440748 0.760595 0.440748
v -0.440748 0.590544 0.330561
v -0.440748 0.760595 0.330561
v 0.440748 0.760595 0.330561
v 0.440748 0.521830 0.000000
v 0.440748 0.351779 0.000000
v 0.440748 0.280222 0.000000
v 0.440748 0.110171 0.000000
v -0.440748 0.760595 0.000000
v 0.440748 0.760595 0.000000
v -0.440748 0.590544 0.000000
v 0.440748 0.590544 0.330561
v 0.440748 0.590544 0.000000
v 0.440748 0.556123 1.101870
v 0.440748 0.784599 1.101870
v 0.440748 0.556123 0.440748
v 0.440748 0.784599 0.440748
v 0.440748 0.784599 0.330561
v 0.440748 0.784599 0.000000
v 0.440748 0.556123 0.200954
v 0.440748 0.556123 0.000000
v -0.440748 0.110171 0.439929
v 0.440748 0.110171 0.439929
v -0.440748 0.351779 0.439929
v 0.440748 0.351779 0.439929
v -0.440748 0.521830 0.440748
v -0.440748 0.280222 0.439929
v 0.440748 0.521830 0.439929
v 0.440748 0.280222 0.439929
v 0.440748 0.351778 1.101870
v 0.440748 0.280222 1.101870
v 0.440748 0.110173 1.101870
v 0.440748 0.056469 1.081129
v 0.440748 0.056468 0.108891
v 0.440748 0.056468 0.000000
v 0.440748 0.056468 0.439929
v 0.440748 0.056468 1.101870
v 0.440748 0.784599 1.138093
v -0.532067 0.590544 1.138093
v -0.532067 0.760595 1.138093
v -0.532067 0.556123 1.137501
v -0.532067 0.784599 1.138093
v -0.532067 0.056468 1.136907
v -0.532067 0.110173 1.136907
v -0.532067 0.280222 1.136907
v -0.532067 0.351778 1.136907
v 0.404874 0.590544 1.138093
v 0.404874 0.556123 1.137501
v 0.404874 0.351778 1.136907
v 0.404874 0.280222 1.136907
v 0.404874 0.110173 1.136907
v 0.404874 0.784599 1.138093
v 0.404874 0.760595 1.138093
v 0.404874 0.056468 1.136907
v 0.459771 0.760516 1.120820
v 0.459771 0.590465 1.120820
v 0.459771 0.556044 1.120820
v 0.459771 0.772988 1.120820
v 0.459771 0.351699 1.120820
v 0.459771 0.280143 1.120820
v 0.459771 0.110093 1.120820
v 0.459771 0.056388 1.120820
v 0.459771 0.760516 1.157043
v 0.459771 0.590465 1.157043
v 0.459771 0.556044 1.156451
v 0.459771 0.772988 1.157043
v 0.459771 0.110093 1.155857
v 0.459771 0.280143 1.155857
v 0.459771 0.056388 1.155857
v 0.459771 0.351699 1.155857
v 0.423897 0.556044 1.156451
v 0.423897 0.280143 1.155857
v 0.423897 0.110093 1.155857
v 0.423897 0.760516 1.157043
v 0.423897 0.056388 1.155857
v 0.423897 0.590465 1.157043
v 0.423897 0.351699 1.155857
v 0.423897 0.772988 1.157043
v -0.559422 0.784599 1.138093
v -0.559422 0.784599 1.101870
v -0.559422 0.784599 0.440748
v -0.559422 0.784599 0.000000
v -0.519248 0.750406 1.129459
v -0.519248 0.600750 1.129459
v -0.519248 0.268058 1.128273
v -0.519248 0.122354 1.128273
v 0.392056 0.600750 1.129459
v 0.392056 0.365297 1.128273
v -0.519248 0.365297 1.128273
v -0.519248 0.542622 1.128867
v 0.392056 0.542622 1.128867
v 0.392056 0.268058 1.128273
v 0.392056 0.122354 1.128273
v 0.392056 0.750406 1.129459
v -0.559422 0.760596 1.101870
v -0.559422 0.590544 1.101870
v -0.559422 0.280222 1.101870
v -0.559422 0.110173 1.101870
v -0.559422 0.056468 1.101870
v -0.546031 0.760541 1.151754
v -0.546031 0.590490 1.151754
v -0.546031 0.556069 1.151161
v -0.546031 0.772988 1.151753
v -0.546031 0.110118 1.150567
v -0.546031 0.056413 1.150567
v -0.546031 0.280168 1.150567
v -0.546031 0.351724 1.150567
v -0.573386 0.760541 1.151753
v -0.573386 0.590490 1.151754
v -0.573386 0.556069 1.151161
v -0.573386 0.772988 1.151753
v -0.573386 0.110118 1.150567
v -0.573386 0.056413 1.150567
v -0.573386 0.280168 1.150567
v -0.573386 0.351724 1.150567
v -0.573386 0.556069 1.115531
v -0.573386 0.280168 1.115531
v -0.573386 0.056413 1.115531
v -0.559422 0.556123 1.101870
v -0.573386 0.110118 1.115531
v -0.573386 0.590490 1.115531
v -0.573386 0.351724 1.115531
v -0.559422 0.351778 1.101870
v -0.573386 0.772988 1.115531
v -0.573386 0.760541 1.115531
v -0.559422 0.056468 0.440748
v -0.559422 0.556123 0.440748
v -0.559422 0.110173 0.440748
v -0.559422 0.590544 0.440748
v -0.559422 0.760596 0.440748
v -0.559422 0.351778 0.440748
v -0.559422 0.280222 0.440748
v -0.559422 0.784599 0.330561
v -0.559422 0.056468 0.330561
v -0.559422 0.556123 0.330561
v -0.559422 0.110173 0.330561
v -0.559422 0.590544 0.330561
v -0.559422 0.760596 0.330561
v -0.559422 0.351778 0.330561
v -0.559422 0.280222 0.330561
v -0.559422 0.056468 0.000000
v -0.559422 0.556123 0.000000
v -0.559422 0.110173 0.000000
v -0.559422 0.590544 0.000000
v -0.559422 0.760596 0.000000
v -0.559422 0.351778 0.000000
v -0.559422 0.280222 0.000000
v 0.458188 0.797116 1.119220
v 0.458188 0.797116 0.440748
v 0.458188 0.797116 0.330561
v 0.458188 0.797116 0.000000
v 0.458188 0.797116 1.156700
v 0.421068 0.797116 1.156700
v -0.548409 0.797116 1.156700
v -0.576714 0.797116 1.156700
v -0.576714 0.797116 1.119220
v -0.576714 0.797116 0.440748
v -0.576714 0.797116 0.000000
v -0.576714 0.797116 0.330561
v 0.469211 0.814363 1.130186
v 0.469211 0.814363 0.440748
v 0.469211 0.814363 0.330561
v 0.469211 0.814363 0.000000
v 0.469211 0.814363 1.168462
v 0.431304 0.814363 1.168462
v -0.558738 0.814363 1.168462
v 0.430610 0.835887 1.167664
v 0.468464 0.835887 1.167664
v 0.468464 0.835887 0.000000
v 0.468464 0.835887 0.330561
v 0.468464 0.835887 0.440748
v 0.468464 0.835887 1.129443
v -0.587643 0.814363 1.168462
v -0.587643 0.814363 1.130186
v -0.587643 0.814363 0.440748
v -0.587643 0.814363 0.000000
v -0.587643 0.814363 0.330561
v 0.471834 0.824908 1.132795
v 0.471834 0.824908 0.440748
v 0.471834 0.824908 0.330561
v 0.471834 0.824908 0.000000
v 0.471834 0.824908 1.171260
v 0.433740 0.824908 1.171260
v -0.561196 0.824908 1.171260
v 0.423013 0.849860 1.158935
v 0.460282 0.849860 1.158935
v 0.460282 0.849860 1.121303
v 0.460282 0.849860 0.440748
v 0.460282 0.849860 0.000000
v 0.460282 0.849860 0.330561
v -0.590244 0.824908 1.171260
v -0.590244 0.824908 1.132795
v -0.590244 0.824908 0.440748
v -0.590244 0.824908 0.000000
v -0.590244 0.824908 0.330561
v -0.558038 0.835887 1.167664
v -0.586903 0.835887 1.167664
v -0.586903 0.835887 1.129443
v -0.586903 0.835887 0.440748
v -0.586903 0.835887 0.000000
v -0.586903 0.835887 0.330561
v -0.550371 0.849860 1.158935
v 0.423013 0.849860 1.121303
v 0.423013 0.849860 0.440748
v 0.423013 0.849860 0.330561
v 0.423013 0.849860 0.000000
v -0.550371 0.849860 1.121303
v -0.550371 0.849860 0.440748
v -0.550371 0.849860 0.330561
v -0.550371 0.849860 0.000000
v -0.578790 0.849860 1.158935
v -0.578790 0.849860 1.121303
v -0.578790 0.849860 0.440748
v -0.578790 0.849860 0.000000
v -0.578790 0.849860 0.330561
v 0.455968 0.030720 1.089974
v 0.455968 0.030718 0.108891
v 0.455968 0.030718 0.000000
v 0.455968 0.030718 0.440325
v 0.455968 0.030719 1.111386
v -0.548297 0.030719 1.147555
v 0.418934 0.030719 1.147555
v 0.475606 0.030637 1.130949
v 0.475606 0.030637 1.167118
v 0.438572 0.030637 1.167118
v -0.576537 0.030719 1.111386
v -0.562713 0.030662 1.161657
v -0.590952 0.030662 1.161657
v -0.590952 0.030662 1.125488
v -0.576537 0.030719 0.441171
v -0.576537 0.030719 0.330561
v -0.576537 0.030719 0.000000
v 0.455968 0.000027 1.089974
v 0.455968 0.000026 0.108891
v 0.455968 0.000026 0.000000
v 0.455968 0.000026 0.440325
v 0.455968 0.000026 1.111386
v -0.548297 0.000026 1.147555
v 0.418934 0.000026 1.147555
v 0.475606 -0.000056 1.130949
v 0.475606 -0.000056 1.167118
v 0.438572 -0.000056 1.167118
v -0.576537 0.000026 1.111386
v -0.562713 -0.000030 1.161657
v -0.590952 -0.000030 1.161657
v -0.590952 -0.000030 1.125488
v -0.576537 0.000026 0.441171
v -0.576537 0.000026 0.330561
v -0.576537 0.000026 0.000000
v -0.440748 0.110171 -1.081129
v -0.440748 0.280222 -1.081129
v 0.440748 0.110173 -1.081129
v 0.440748 0.280222 -1.081129
v -0.440748 0.110171 -0.108891
v -0.440748 0.280222 -0.108891
v 0.440748 0.110171 -0.108891
v 0.440748 0.280222 -0.108891
v -0.440748 0.351779 -1.081129
v -0.440748 0.521830 -1.081129
v 0.440748 0.351778 -1.081129
v 0.440748 0.521830 -1.081129
v -0.440748 0.351779 -0.108891
v -0.440748 0.521830 -0.108891
v 0.440748 0.351779 -0.108891
v 0.440748 0.521830 -0.108891
v -0.440748 0.590544 -1.101870
v -0.440748 0.760595 -1.101870
v 0.440748 0.590544 -1.101870
v 0.440748 0.760595 -1.101870
v -0.440748 0.590544 -0.440748
v -0.440748 0.760595 -0.440748
v 0.440748 0.590544 -0.440748
v 0.440748 0.760595 -0.440748
v -0.440748 0.590544 -0.330561
v -0.440748 0.760595 -0.330561
v 0.440748 0.760595 -0.330561
v 0.440748 0.590544 -0.330561
v 0.440748 0.556123 -1.101870
v 0.440748 0.784599 -1.101870
v 0.440748 0.556123 -0.440748
v 0.440748 0.784599 -0.440748
v 0.440748 0.784599 -0.330561
v 0.440748 0.556123 -0.200954
v -0.440748 0.110171 -0.439929
v 0.440748 0.110171 -0.439929
v -0.440748 0.351779 -0.439929
v 0.440748 0.351779 -0.439929
v -0.440748 0.521830 -0.440748
v -0.440748 0.280222 -0.439929
v 0.440748 0.521830 -0.439929
v 0.440748 0.280222 -0.439929
v 0.440748 0.351778 -1.101870
v 0.440748 0.280222 -1.101870
v 0.440748 0.110173 -1.101870
v 0.440748 0.056469 -1.081129
v 0.440748 0.056468 -0.108891
v 0.440748 0.056468 -0.439929
v 0.440748 0.056468 -1.101870
v 0.440748 0.784599 -1.138093
v -0.532067 0.590544 -1.138093
v -0.532067 0.760595 -1.138093
v -0.532067 0.556123 -1.137501
v -0.532067 0.784599 -1.138093
v -0.532067 0.056468 -1.136906
v -0.532067 0.110173 -1.136906
v -0.532067 0.280222 -1.136906
v -0.532067 0.351778 -1.136906
v 0.404874 0.590544 -1.138093
v 0.404874 0.556123 -1.137501
v 0.404874 0.351778 -1.136906
v 0.404874 0.280222 -1.136906
v 0.404874 0.110173 -1.136906
v 0.404874 0.784599 -1.138093
v 0.404874 0.760595 -1.138093
v 0.404874 0.056468 -1.136906
v 0.459771 0.760516 -1.120820
v 0.459771 0.590465 -1.120820
v 0.459771 0.556044 -1.120820
v 0.459771 0.772988 -1.120820
v 0.459771 0.351699 -1.120820
v 0.459771 0.280143 -1.120820
v 0.459771 0.110093 -1.120820
v 0.459771 0.056388 -1.120820
v 0.459771 0.760516 -1.157043
v 0.459771 0.590465 -1.157043
v 0.459771 0.556044 -1.156451
v 0.459771 0.772988 -1.157043
v 0.459771 0.110093 -1.155856
v 0.459771 0.280143 -1.155856
v 0.459771 0.056388 -1.155856
v 0.459771 0.351699 -1.155856
v 0.423897 0.556044 -1.156451
v 0.423897 0.280143 -1.155856
v 0.423897 0.110093 -1.155856
v 0.423897 0.760516 -1.157043
v 0.423897 0.056388 -1.155856
v 0.423897 0.590465 -1.157043
v 0.423897 0.351699 -1.155856
v 0.423897 0.772988 -1.157043
v -0.559422 0.784599 -1.138093
v -0.559422 0.784599 -1.101870
v -0.559422 0.784599 -0.440748
v -0.519248 0.750406 -1.129459
v -0.519248 0.600750 -1.129459
v -0.519248 0.268058 -1.128273
v -0.519248 0.122354 -1.128273
v 0.392056 0.600750 -1.129459
v 0.392056 0.365297 -1.128273
v -0.519248 0.365297 -1.128273
v -0.519248 0.542622 -1.128867
v 0.392056 0.542622 -1.128867
v 0.392056 0.268058 -1.128273
v 0.392056 0.122354 -1.128273
v 0.392056 0.750406 -1.129459
v -0.559422 0.760596 -1.101870
v -0.559422 0.590544 -1.101870
v -0.559422 0.280222 -1.101870
v -0.559422 0.110173 -1.101870
v -0.559422 0.056468 -1.101870
v -0.546031 0.760541 -1.151753
v -0.546031 0.590490 -1.151753
v -0.546031 0.556069 -1.151161
v -0.546031 0.772988 -1.151753
v -0.546031 0.110118 -1.150567
v -0.546031 0.056413 -1.150567
v -0.546031 0.280168 -1.150567
v -0.546031 0.351724 -1.150567
v -0.573386 0.760541 -1.151753
v -0.573386 0.590490 -1.151753
v -0.573386 0.556069 -1.151161
v -0.573386 0.772988 -1.151753
v -0.573386 0.110118 -1.150567
v -0.573386 0.056413 -1.150567
v -0.573386 0.280168 -1.150567
v -0.573386 0.351724 -1.150567
v -0.573386 0.556069 -1.115530
v -0.573386 0.280168 -1.115530
v -0.573386 0.056413 -1.115530
v -0.559422 0.556123 -1.101870
v -0.573386 0.110118 -1.115530
v -0.573386 0.590490 -1.115530
v -0.573386 0.351724 -1.115530
v -0.559422 0.351778 -1.101870
v -0.573386 0.772988 -1.115530
v -0.573386 0.760541 -1.115530
v -0.559422 0.056468 -0.440748
v -0.559422 0.556123 -0.440748
v -0.559422 0.110173 -0.440748
v -0.559422 0.590544 -0.440748
v -0.559422 0.760596 -0.440748
v -0.559422 0.351778 -0.440748
v -0.559422 0.280222 -0.440748
v -0.559422 0.784599 -0.330561
v -0.559422 0.056468 -0.330561
v -0.559422 0.556123 -0.330561
v -0.559422 0.110173 -0.330561
v -0.559422 0.590544 -0.330561
v -0.559422 0.760596 -0.330561
v -0.559422 0.351778 -0.330561
v -0.559422 0.280222 -0.330561
v 0.458188 0.797116 -1.119220
v 0.458188 0.797116 -0.440748
v 0.458188 0.797116 -0.330561
v 0.458188 0.797116 -1.156700
v 0.421068 0.797116 -1.156700
v -0.548409 0.797116 -1.156700
v -0.576714 0.797116 -1.156700
v -0.576714 0.797116 -1.119220
v -0.576714 0.797116 -0.440748
v -0.576714 0.797116 -0.330561
v 0.469211 0.814363 -1.130186
v 0.469211 0.814363 -0.440748
v 0.469211 0.814363 -0.330561
v 0.469211 0.814363 -1.168461
v 0.431304 0.814363 -1.168461
v -0.558738 0.814363 -1.168461
v 0.430610 0.835887 -1.167664
v 0.468464 0.835887 -1.167664
v 0.468464 0.835887 -0.330561
v 0.468464 0.835887 -0.440748
v 0.468464 0.835887 -1.129442
v -0.587643 0.814363 -1.168461
v -0.587643 0.814363 -1.130186
v -0.587643 0.814363 -0.440748
v -0.587643 0.814363 -0.330561
v 0.471834 0.824908 -1.132795
v 0.471834 0.824908 -0.440748
v 0.471834 0.824908 -0.330561
v 0.471834 0.824908 -1.171260
v 0.433740 0.824908 -1.171260
v -0.561196 0.824908 -1.171260
v 0.423013 0.849860 -1.158934
v 0.460282 0.849860 -1.158934
v 0.460282 0.849860 -1.121303
v 0.460282 0.849860 -0.440748
v 0.460282 0.849860 -0.330561
v -0.590244 0.824908 -1.171260
v -0.590244 0.824908 -1.132795
v -0.590244 0.824908 -0.440748
v -0.590244 0.824908 -0.330561
v -0.558038 0.835887 -1.167664
v -0.586903 0.835887 -1.167664
v -0.586903 0.835887 -1.129442
v -0.586903 0.835887 -0.440748
v -0.586903 0.835887 -0.330561
v -0.550371 0.849860 -1.158934
v 0.423013 0.849860 -1.121303
v 0.423013 0.849860 -0.440748
v 0.423013 0.849860 -0.330561
v -0.550371 0.849860 -1.121303
v -0.550371 0.849860 -0.440748
v -0.550371 0.849860 -0.330561
v -0.578790 0.849860 -1.158934
v -0.578790 0.849860 -1.121303
v -0.578790 0.849860 -0.440748
v -0.578790 0.849860 -0.330561
v 0.455968 0.030720 -1.089974
v 0.455968 0.030718 -0.108891
v 0.455968 0.030718 -0.440325
v 0.455968 0.030719 -1.111386
v -0.548297 0.030719 -1.147555
v 0.418934 0.030719 -1.147555
v 0.475606 0.030637 -1.130949
v 0.475606 0.030637 -1.167118
v 0.438572 0.030637 -1.167118
v -0.576537 0.030719 -1.111386
v -0.562713 0.030662 -1.161657
v -0.590952 0.030662 -1.161657
v -0.590952 0.030662 -1.125488
v -0.576537 0.030719 -0.441171
v -0.576537 0.030719 -0.330561
v 0.455968 0.000027 -1.089974
v 0.455968 0.000026 -0.108891
v 0.455968 0.000026 -0.440325
v 0.455968 0.000026 -1.111386
v -0.548297 0.000026 -1.147555
v 0.418934 0.000026 -1.147555
v 0.475606 -0.000056 -1.130949
v 0.475606 -0.000056 -1.167118
v 0.438572 -0.000056 -1.167118
v -0.576537 0.000026 -1.111386
v -0.562713 -0.000030 -1.161657
v -0.590952 -0.000030 -1.161657
v -0.590952 -0.000030 -1.125488
v -0.576537 0.000026 -0.441171
v -0.576537 0.000026 -0.330561
vn -0.0000 1.0000 -0.0000
vn -0.0000 -0.0000 -1.0000
vn -0.0000 -0.0000 1.0000
vn 1.0000 -0.0000 -0.0000
vn -0.0000 -1.0000 -0.0000
vn -0.7058 -0.0000 0.7085
vn 0.7058 -0.0000 -0.7085
vn 0.5956 0.1364 0.7916
vn -0.0000 -0.4343 0.9007
vn -0.0000 0.6402 0.7682
vn 0.3961 0.7420 0.5409
vn 0.9190 -0.3942 -0.0000
vn 0.7641 0.6451 -0.0000
vn -0.0000 -0.0172 0.9999
vn -0.5586 -0.0026 0.8294
vn -0.0000 0.5783 0.8158
vn 0.5586 -0.0000 0.8294
vn -0.7058 -0.0021 0.7085
vn -0.7057 -0.0122 0.7084
vn 0.5938 -0.0000 0.8046
vn 0.5937 -0.0069 0.8047
vn 0.5939 -0.0081 0.8045
vn 0.5938 -0.0012 0.8046
vn 0.9565 0.2916 -0.0000
vn 0.5583 0.3401 0.7567
vn -0.0000 0.2118 0.9773
vn -0.0000 -0.0101 0.9999
vn -0.0000 -0.0015 1.0000
vn -0.0000 -0.0086 1.0000
vn -0.8770 -0.4804 -0.0000
vn -0.5903 -0.1809 0.7867
vn -0.3363 -0.8232 0.4574
vn -0.7045 -0.7097 -0.0000
vn 0.3356 -0.8241 0.4564
vn -0.0000 -0.7349 0.6782
vn -0.0000 -0.5267 0.8501
vn 0.5831 -0.8124 -0.0000
vn 0.7015 -0.7127 -0.0000
vn -0.5863 -0.8101 -0.0000
vn -0.4594 0.6302 0.6259
vn -0.0000 0.5131 0.8583
vn -0.8518 0.5238 -0.0000
vn 0.6993 -0.0021 0.7148
vn 0.6993 -0.0123 0.7148
vn 0.6993 -0.0000 0.7148
vn -0.0000 -0.0034 1.0000
vn -0.5586 -0.0000 0.8294
vn -0.0000 0.5383 0.8428
vn -0.0000 -0.5387 0.8425
vn 0.5586 -0.0026 0.8294
vn -0.0000 0.6458 0.7635
vn -0.0000 -0.6465 0.7630
vn -0.0000 -0.5788 0.8155
vn -0.5938 -0.0012 0.8046
vn -0.5938 -0.0000 0.8046
vn -0.5939 -0.0081 0.8045
vn -0.0000 0.2085 0.9780
vn -0.5547 0.3545 0.7528
vn -0.5937 -0.0069 0.8047
vn -1.0000 -0.0000 -0.0000
vn -0.9473 0.3204 -0.0000
vn -0.6993 -0.0000 -0.7148
vn -0.9153 -0.4028 -0.0000
vn 0.9140 -0.4057 -0.0000
vn -0.4999 -0.5378 0.6789
vn 0.4994 -0.5391 0.6782
vn -0.0000 -0.4280 0.9038
vn -0.0000 0.0310 0.9995
vn -0.5919 0.0416 0.8050
vn 0.9996 0.0291 -0.0000
vn 0.5919 0.0418 0.8049
vn -0.9996 0.0288 -0.0000
vn -0.0000 0.4299 0.9029
vn -0.4990 0.5406 0.6773
vn 0.9132 0.4075 -0.0000
vn 0.4985 0.5419 0.6766
vn -0.9145 0.4046 -0.0000
vn 0.4546 0.6480 0.6111
vn -0.0000 0.5298 0.8481
vn -0.4554 0.6467 0.6119
vn 0.8629 0.5053 -0.0000
vn -0.8648 0.5021 -0.0000
vn 0.5597 0.3347 0.7581
vn 0.9552 0.2960 -0.0000
vn -0.0000 0.3822 0.9241
vn 0.8609 0.5088 -0.0000
vn 0.8609 0.5089 -0.0000
vn 0.6923 -0.1439 0.7071
vn -0.0000 0.2153 0.9765
vn -0.5570 0.3488 0.7537
vn -0.0000 0.2124 0.9772
vn -0.9457 0.3250 -0.0000
vn -0.8328 0.5536 -0.0000
vn -0.7029 -0.0922 0.7052
vn -0.6860 0.1971 -0.7004
vn 0.6977 0.1538 -0.6997
vn -0.7058 -0.0000 -0.7085
vn 0.7058 -0.0000 0.7085
vn 0.5956 0.1364 -0.7916
vn 0.3961 0.7420 -0.5409
vn -0.0000 0.6402 -0.7682
vn -0.0000 -0.4343 -0.9007
vn -0.0000 -0.0172 -0.9999
vn -0.5586 -0.0026 -0.8294
vn -0.0000 0.5783 -0.8158
vn 0.5586 -0.0000 -0.8294
vn -0.7058 -0.0021 -0.7085
vn -0.7057 -0.0122 -0.7084
vn 0.5938 -0.0000 -0.8046
vn 0.5939 -0.0081 -0.8045
vn 0.5937 -0.0069 -0.8047
vn 0.5938 -0.0012 -0.8046
vn 0.5583 0.3401 -0.7567
vn -0.0000 0.2118 -0.9773
vn -0.0000 -0.0015 -1.0000
vn -0.0000 -0.0101 -0.9999
vn -0.0000 -0.0086 -1.0000
vn -0.3363 -0.8232 -0.4574
vn -0.5903 -0.1809 -0.7867
vn -0.0000 -0.7349 -0.6782
vn 0.3356 -0.8241 -0.4564
vn -0.0000 -0.5267 -0.8501
vn -0.5864 -0.8101 -0.0000
vn -0.0000 0.5131 -0.8583
vn -0.4594 0.6302 -0.6259
vn 0.6993 -0.0021 -0.7148
vn 0.6993 -0.0123 -0.7148
vn 0.6993 -0.0000 -0.7148
vn -0.0000 -0.0034 -1.0000
vn -0.5586 -0.0000 -0.8294
vn -0.0000 0.5383 -0.8428
vn -0.0000 -0.5387 -0.8425
vn 0.5586 -0.0026 -0.8294
vn -0.0000 0.6458 -0.7635
vn -0.0000 -0.6465 -0.7630
vn -0.0000 -0.5788 -0.8155
vn -0.5938 -0.0000 -0.8046
vn -0.5938 -0.0012 -0.8046
vn -0.5939 -0.0081 -0.8045
vn -0.0000 0.2085 -0.9780
vn -0.5547 0.3545 -0.7528
vn -0.5937 -0.0069 -0.8047
vn -0.6993 -0.0000 0.7148
vn -0.4999 -0.5378 -0.6789
vn -0.0000 -0.4280 -0.9038
vn 0.4994 -0.5391 -0.6782
vn -0.0000 0.0310 -0.9995
vn -0.5919 0.0416 -0.8050
vn 0.5919 0.0418 -0.8049
vn -0.4990 0.5406 -0.6773
vn -0.0000 0.4299 -0.9029
vn 0.4985 0.5419 -0.6766
vn -0.0000 0.5298 -0.8481
vn 0.4546 0.6480 -0.6111
vn -0.4554 0.6467 -0.6119
vn 0.5597 0.3347 -0.7581
vn -0.0000 0.3822 -0.9241
vn 0.6923 -0.1439 -0.7071
vn -0.0000 0.2153 -0.9765
vn -0.0000 0.2124 -0.9772
vn -0.5570 0.3488 -0.7537
vn -0.7029 -0.0922 -0.7052
vn -0.6860 0.1971 0.7004
vn 0.6977 0.1538 0.6997
vt 0.433764 0.567247
vt 0.421153 0.507326
vt 0.382378 0.527465
vt 0.415586 0.570314
vt 0.507451 0.513510
vt 0.460383 0.572632
vt 0.469374 0.675049
vt 0.507451 0.734811
vt 0.378656 0.720087
vt 0.421571 0.677385
vt 0.648982 0.561757
vt 0.641882 0.507770
vt 0.605312 0.521193
vt 0.631303 0.562897
vt 0.637039 0.670735
vt 0.623230 0.666352
vt 0.712680 0.521015
vt 0.675071 0.568841
vt 0.669404 0.667019
vt 0.719951 0.739857
vt 0.572381 0.708410
vt 0.436129 0.680537
vt 0.244065 0.662377
vt 0.232296 0.660485
vt 0.222844 0.573706
vt 0.237851 0.569698
vt 0.101965 0.570499
vt 0.140995 0.511530
vt 0.051553 0.512979
vt 0.076613 0.563835
vt 0.093990 0.647846
vt 0.140995 0.746263
vt 0.010912 0.709182
vt 0.068387 0.647610
vt 0.420325 0.743290
vt 0.615031 0.739857
vt 0.189766 0.516417
vt 0.189766 0.737541
vt 0.744993 0.338057
vt 0.744993 0.314990
vt 0.956685 0.314989
vt 0.956685 0.338055
vt 0.447760 0.245790
vt 0.659453 0.245790
vt 0.659453 0.268586
vt 0.447760 0.268586
vt 0.146989 0.245790
vt 0.358682 0.245790
vt 0.358682 0.268586
vt 0.146989 0.268586
vt 0.249434 0.742459
vt 0.233685 0.507553
vt 0.447760 0.337885
vt 0.447760 0.472114
vt 0.358682 0.472114
vt 0.358682 0.337885
vt 0.702143 0.338057
vt 0.702143 0.287858
vt 0.744993 0.476456
vt 0.702143 0.476456
vt 0.986567 0.314988
vt 0.986567 0.338055
vt 0.956685 0.476455
vt 0.986567 0.476455
vt 0.744993 0.245790
vt 0.702143 0.245790
vt 0.956685 0.245789
vt 0.986566 0.245789
vt 0.659453 0.337885
vt 0.659453 0.472114
vt 0.447760 0.476456
vt 0.358682 0.476456
vt 0.146992 0.472114
vt 0.146992 0.476456
vt 0.146989 0.337885
vt 0.080135 0.337885
vt 0.080135 0.268586
vt 0.080136 0.476456
vt 0.080138 0.472114
vt 0.080135 0.245790
vt 0.949600 0.108639
vt 0.923983 0.110409
vt 0.923844 0.108623
vt 0.937058 0.108050
vt 0.151060 0.102028
vt 0.353140 0.102045
vt 0.353045 0.103843
vt 0.150965 0.103829
vt 0.949520 0.106589
vt 0.936982 0.106449
vt 0.721932 0.102015
vt 0.923993 0.102024
vt 0.923859 0.103804
vt 0.721838 0.103813
vt 0.721932 0.110391
vt 0.721839 0.108593
vt 0.949716 0.103690
vt 0.937090 0.104339
vt 0.481784 0.345505
vt 0.481779 0.366030
vt 0.014966 0.366030
vt 0.014971 0.345504
vt 0.482967 0.181938
vt 0.482979 0.224651
vt 0.015686 0.224651
vt 0.015675 0.181938
vt 0.473302 0.337505
vt 0.474272 0.232699
vt 0.481780 0.466594
vt 0.481909 0.480927
vt 0.014483 0.480940
vt 0.014355 0.466608
vt 0.016785 0.081362
vt 0.483584 0.081362
vt 0.474947 0.088606
vt 0.025284 0.088580
vt 0.024367 0.174692
vt 0.483584 0.049338
vt 0.016786 0.049338
vt 0.438176 0.102052
vt 0.438081 0.103850
vt 0.681030 0.110375
vt 0.438175 0.110339
vt 0.438081 0.108541
vt 0.680937 0.108576
vt 0.151059 0.110313
vt 0.087064 0.110324
vt 0.086934 0.108523
vt 0.150964 0.108512
vt 0.681030 0.102042
vt 0.680936 0.103840
vt 0.353139 0.110332
vt 0.353045 0.108533
vt 0.923823 0.106594
vt 0.721839 0.106574
vt 0.680937 0.106557
vt 0.438081 0.106522
vt 0.086944 0.103806
vt 0.150964 0.106492
vt 0.086906 0.106494
vt 0.353045 0.106514
vt 0.087075 0.102005
vt 0.603079 0.933001
vt 0.598866 0.932429
vt 0.599918 0.910241
vt 0.604175 0.910731
vt 0.514997 0.929307
vt 0.511936 0.929034
vt 0.512556 0.906999
vt 0.515662 0.907222
vt 0.596510 0.932470
vt 0.597528 0.910239
vt 0.417239 0.930496
vt 0.378369 0.930599
vt 0.378369 0.908180
vt 0.417103 0.908117
vt 0.430185 0.930399
vt 0.429994 0.908051
vt 0.693844 0.940627
vt 0.680857 0.939601
vt 0.682728 0.917173
vt 0.695674 0.918164
vt 0.949372 0.078312
vt 0.949348 0.079856
vt 0.936628 0.080186
vt 0.936656 0.078897
vt 0.732838 0.943562
vt 0.734603 0.921050
vt 0.949514 0.082784
vt 0.936751 0.082345
vt 0.437861 0.077237
vt 0.680531 0.077247
vt 0.680468 0.078551
vt 0.437796 0.078541
vt 0.507724 0.929302
vt 0.508301 0.907181
vt 0.721403 0.077238
vt 0.721339 0.078542
vt 0.923299 0.077236
vt 0.923215 0.078524
vt 0.474414 0.174719
vt 0.473203 0.372079
vt 0.473180 0.460543
vt 0.023011 0.460531
vt 0.023524 0.372105
vt 0.023592 0.337478
vt 0.024252 0.232671
vt 0.352889 0.077229
vt 0.352824 0.078532
vt 0.150962 0.077208
vt 0.150897 0.078514
vt 0.437796 0.080079
vt 0.352824 0.080071
vt 0.923200 0.080050
vt 0.680468 0.080089
vt 0.086902 0.078494
vt 0.150896 0.080047
vt 0.086879 0.080040
vt 0.721339 0.080079
vt 0.923212 0.082890
vt 0.721337 0.082839
vt 0.680466 0.082804
vt 0.437796 0.082749
vt 0.352824 0.082740
vt 0.150896 0.082717
vt 0.086916 0.082726
vt 0.086994 0.077188
vt 0.150961 0.084023
vt 0.087008 0.084032
vt 0.721401 0.084143
vt 0.680530 0.084108
vt 0.352888 0.084044
vt 0.923304 0.084179
vt 0.437860 0.084053
vt 0.446838 0.020317
vt 0.446838 0.158716
vt 0.357760 0.158716
vt 0.357760 0.020317
vt 0.701222 0.020317
vt 0.701222 0.158716
vt 0.744071 0.020317
vt 0.744071 0.158716
vt 0.985645 0.020317
vt 0.985645 0.158716
vt 0.955764 0.158716
vt 0.955764 0.020317
vt 0.146070 0.158716
vt 0.146070 0.020316
vt 0.079214 0.158716
vt 0.079214 0.020316
vt 0.357760 0.181783
vt 0.146070 0.181783
vt 0.701222 0.181783
vt 0.446838 0.181783
vt 0.955764 0.181783
vt 0.744071 0.181783
vt 0.079214 0.181782
vt 0.985645 0.181783
vt 0.701222 0.250982
vt 0.446838 0.250982
vt 0.955764 0.250983
vt 0.744071 0.250983
vt 0.146070 0.250982
vt 0.079214 0.250982
vt 0.357760 0.250982
vt 0.985645 0.250983
vt 0.605806 0.880824
vt 0.685178 0.886374
vt 0.429838 0.877383
vt 0.508897 0.877402
vt 0.601442 0.880480
vt 0.698092 0.887307
vt 0.736978 0.890073
vt 0.513254 0.877366
vt 0.516433 0.877501
vt 0.599005 0.880411
vt 0.516854 0.859297
vt 0.599917 0.862170
vt 0.602371 0.862295
vt 0.509263 0.859153
vt 0.513649 0.859240
vt 0.416989 0.877406
vt 0.378369 0.877429
vt 0.378369 0.858659
vt 0.416998 0.858682
vt 0.429841 0.858710
vt 0.606775 0.862511
vt 0.686552 0.867611
vt 0.699463 0.868478
vt 0.738366 0.871151
vt 0.600958 0.843027
vt 0.603413 0.843203
vt 0.509594 0.840039
vt 0.513983 0.840235
vt 0.378368 0.839109
vt 0.417065 0.839165
vt 0.429946 0.839232
vt 0.607833 0.843307
vt 0.687864 0.848034
vt 0.700810 0.848858
vt 0.739762 0.851443
vt 0.517192 0.840223
vt 0.514386 0.815586
vt 0.517592 0.815553
vt 0.602322 0.818221
vt 0.604772 0.818414
vt 0.509996 0.815352
vt 0.609200 0.818480
vt 0.689467 0.823006
vt 0.430135 0.814330
vt 0.417204 0.814253
vt 0.702463 0.823807
vt 0.741487 0.826340
vt 0.027091 0.770054
vt 0.015301 0.770054
vt 0.015301 0.761642
vt 0.027091 0.761642
vt 0.240305 0.761642
vt 0.274826 0.761642
vt 0.274826 0.770054
vt 0.240305 0.770054
vt 0.378389 0.761642
vt 0.378389 0.770054
vt 0.015301 0.989755
vt 0.027091 0.989755
vt 0.378389 0.989755
vt 0.274826 0.989755
vt 0.240305 0.989755
vt 0.240305 0.996170
vt 0.027091 0.996170
vt 0.015301 0.996170
vt 0.274826 0.996170
vt 0.378389 0.996170
vt 0.378368 0.814150
vt 0.056236 0.106473
vt 0.056277 0.103741
vt 0.008699 0.033979
vt 0.490589 0.033979
vt 0.048069 0.337968
vt 0.048069 0.268586
vt 0.048069 0.478448
vt 0.048071 0.473966
vt 0.056241 0.078504
vt 0.056334 0.077164
vt 0.056266 0.108539
vt 0.056216 0.080078
vt 0.056255 0.082809
vt 0.047144 0.250982
vt 0.047145 0.181782
vt 0.056399 0.110386
vt 0.056350 0.084149
vt 0.056411 0.101894
vt 0.047144 0.158627
vt 0.047144 0.018324
vt 0.048069 0.245790
vt 0.008936 0.181782
vt 0.008935 0.158627
vt 0.020006 0.106481
vt 0.020006 0.103712
vt 0.009862 0.473966
vt 0.009860 0.337968
vt 0.008935 0.250982
vt 0.020006 0.108558
vt 0.009860 0.268586
vt 0.009860 0.245790
vt 0.020006 0.078492
vt 0.020072 0.077151
vt 0.020006 0.080086
vt 0.009860 0.478448
vt 0.020075 0.084179
vt 0.020007 0.082837
vt 0.020105 0.101861
vt 0.020104 0.110409
vt 0.008935 0.018324
vt 0.008699 0.015678
vt 0.490589 0.015678
vt 0.433764 0.567252
vt 0.415586 0.570319
vt 0.382378 0.527470
vt 0.421153 0.507331
vt 0.507451 0.513516
vt 0.507451 0.734817
vt 0.469375 0.675055
vt 0.460384 0.572638
vt 0.421571 0.677391
vt 0.378656 0.720092
vt 0.648982 0.561753
vt 0.631303 0.562893
vt 0.605312 0.521190
vt 0.641882 0.507767
vt 0.637039 0.670731
vt 0.623230 0.666348
vt 0.712680 0.521011
vt 0.719951 0.739854
vt 0.669404 0.667016
vt 0.675071 0.568837
vt 0.572381 0.708407
vt 0.436129 0.680543
vt 0.253259 0.571667
vt 0.255476 0.658931
vt 0.100836 0.570494
vt 0.075484 0.563829
vt 0.050424 0.512974
vt 0.139866 0.511525
vt 0.139866 0.746257
vt 0.092861 0.647840
vt 0.067258 0.647604
vt 0.009783 0.709177
vt 0.420325 0.743296
vt 0.615031 0.739854
vt 0.278393 0.510475
vt 0.307912 0.729620
vt 0.744993 0.153524
vt 0.956685 0.153522
vt 0.956685 0.176589
vt 0.744993 0.176590
vt 0.447760 0.222995
vt 0.659453 0.222995
vt 0.146989 0.222995
vt 0.358682 0.222995
vt 0.447760 0.153695
vt 0.358682 0.153695
vt 0.358682 0.019466
vt 0.447760 0.019466
vt 0.702143 0.203722
vt 0.702143 0.153524
vt 0.702143 0.015125
vt 0.744992 0.015125
vt 0.986566 0.153522
vt 0.986566 0.176589
vt 0.956685 0.015123
vt 0.986566 0.015123
vt 0.659453 0.153695
vt 0.659453 0.019467
vt 0.447760 0.015124
vt 0.358682 0.015124
vt 0.146992 0.019466
vt 0.146992 0.015124
vt 0.080135 0.222995
vt 0.080135 0.153695
vt 0.146989 0.153695
vt 0.080138 0.019466
vt 0.080136 0.015124
vt 0.949600 0.094550
vt 0.937058 0.095136
vt 0.923844 0.094560
vt 0.923984 0.092775
vt 0.151059 0.101015
vt 0.150964 0.099215
vt 0.353045 0.099237
vt 0.353139 0.101036
vt 0.949519 0.096599
vt 0.936982 0.096737
vt 0.721931 0.101132
vt 0.721837 0.099334
vt 0.923858 0.099380
vt 0.923992 0.101159
vt 0.721839 0.094554
vt 0.721932 0.092756
vt 0.949715 0.099499
vt 0.937089 0.098846
vt 0.022381 0.345585
vt 0.489213 0.345604
vt 0.488957 0.366130
vt 0.022126 0.366111
vt 0.022442 0.182020
vt 0.489729 0.182021
vt 0.489719 0.224733
vt 0.022432 0.224733
vt 0.031042 0.232752
vt 0.030945 0.337585
vt 0.021796 0.466689
vt 0.489191 0.466691
vt 0.489167 0.481023
vt 0.021772 0.481020
vt 0.488630 0.081446
vt 0.480130 0.088664
vt 0.030474 0.088690
vt 0.021839 0.081446
vt 0.481037 0.174775
vt 0.021838 0.049423
vt 0.488630 0.049423
vt 0.438081 0.099245
vt 0.438175 0.101044
vt 0.681030 0.092765
vt 0.680937 0.094563
vt 0.438081 0.094555
vt 0.438176 0.092757
vt 0.151059 0.092731
vt 0.150964 0.094532
vt 0.086934 0.094509
vt 0.087065 0.092708
vt 0.681029 0.101098
vt 0.680936 0.099299
vt 0.353045 0.094547
vt 0.353140 0.092749
vt 0.923822 0.096590
vt 0.680937 0.096582
vt 0.721839 0.096573
vt 0.438081 0.096574
vt 0.086943 0.099226
vt 0.086906 0.096538
vt 0.150964 0.096552
vt 0.353045 0.096566
vt 0.087074 0.101027
vt 0.153682 0.933000
vt 0.152585 0.910733
vt 0.156842 0.910244
vt 0.157894 0.932428
vt 0.241753 0.929306
vt 0.241087 0.907223
vt 0.244192 0.907000
vt 0.244813 0.929033
vt 0.160250 0.932469
vt 0.159232 0.910242
vt 0.339500 0.930494
vt 0.339635 0.908117
vt 0.326555 0.930397
vt 0.326745 0.908051
vt 0.062929 0.940627
vt 0.061099 0.918166
vt 0.074043 0.917176
vt 0.075915 0.939601
vt 0.949372 0.090836
vt 0.936655 0.090250
vt 0.936628 0.088961
vt 0.949348 0.089292
vt 0.023941 0.943562
vt 0.022175 0.921053
vt 0.936752 0.086802
vt 0.949515 0.086364
vt 0.437861 0.091863
vt 0.437796 0.090559
vt 0.680467 0.090572
vt 0.680531 0.091876
vt 0.249024 0.929300
vt 0.248447 0.907182
vt 0.721339 0.090585
vt 0.721402 0.091889
vt 0.923215 0.090622
vt 0.923299 0.091909
vt 0.030996 0.174801
vt 0.030700 0.372186
vt 0.480393 0.372180
vt 0.480577 0.460641
vt 0.030434 0.460612
vt 0.481056 0.232782
vt 0.480672 0.337576
vt 0.352889 0.091863
vt 0.352824 0.090559
vt 0.150962 0.091865
vt 0.150897 0.090559
vt 0.352824 0.089021
vt 0.437796 0.089021
vt 0.923200 0.089096
vt 0.680468 0.089034
vt 0.086903 0.090573
vt 0.086879 0.089027
vt 0.150897 0.089026
vt 0.721339 0.089047
vt 0.923212 0.086256
vt 0.721338 0.086288
vt 0.680467 0.086319
vt 0.437796 0.086351
vt 0.352824 0.086352
vt 0.150897 0.086356
vt 0.086916 0.086340
vt 0.086994 0.091879
vt 0.150961 0.085050
vt 0.087009 0.085034
vt 0.721402 0.084984
vt 0.680530 0.085015
vt 0.352889 0.085048
vt 0.923304 0.084966
vt 0.437861 0.085047
vt 0.446838 0.481648
vt 0.357760 0.481648
vt 0.357760 0.343249
vt 0.446838 0.343249
vt 0.701222 0.481648
vt 0.701222 0.343249
vt 0.744071 0.481648
vt 0.744071 0.343249
vt 0.985645 0.481649
vt 0.955764 0.481648
vt 0.955764 0.343249
vt 0.985645 0.343249
vt 0.146070 0.481648
vt 0.146070 0.343249
vt 0.079214 0.481648
vt 0.079214 0.343249
vt 0.146070 0.320182
vt 0.357760 0.320182
vt 0.446838 0.320182
vt 0.701222 0.320182
vt 0.744071 0.320182
vt 0.955764 0.320182
vt 0.079214 0.320182
vt 0.985645 0.320182
vt 0.071594 0.886380
vt 0.150954 0.880830
vt 0.247851 0.877406
vt 0.326901 0.877384
vt 0.155318 0.880486
vt 0.019800 0.890080
vt 0.058681 0.887314
vt 0.240315 0.877505
vt 0.243495 0.877371
vt 0.157754 0.880417
vt 0.156842 0.862178
vt 0.239894 0.859304
vt 0.154389 0.862304
vt 0.243099 0.859247
vt 0.247484 0.859160
vt 0.339749 0.877407
vt 0.339740 0.858684
vt 0.326898 0.858713
vt 0.070219 0.867621
vt 0.149985 0.862519
vt 0.018412 0.871161
vt 0.057310 0.868488
vt 0.153346 0.843214
vt 0.155801 0.843038
vt 0.242765 0.840245
vt 0.247152 0.840048
vt 0.339671 0.839170
vt 0.326793 0.839235
vt 0.068907 0.848046
vt 0.148927 0.843318
vt 0.017016 0.851456
vt 0.055963 0.848870
vt 0.239556 0.840233
vt 0.239155 0.815566
vt 0.242360 0.815599
vt 0.154437 0.818235
vt 0.151987 0.818428
vt 0.246750 0.815365
vt 0.067304 0.823021
vt 0.147559 0.818494
vt 0.326597 0.814339
vt 0.339529 0.814252
vt 0.015290 0.826356
vt 0.054310 0.823822
vt 0.729687 0.770054
vt 0.729687 0.761642
vt 0.741477 0.761642
vt 0.741477 0.770054
vt 0.516473 0.761642
vt 0.516473 0.770054
vt 0.481952 0.770054
vt 0.481952 0.761642
vt 0.741477 0.989755
vt 0.729687 0.989755
vt 0.481952 0.989755
vt 0.516473 0.989755
vt 0.729687 0.996170
vt 0.516473 0.996170
vt 1.297617 1.196574
vt 1.298104 1.196085
vt 1.299313 1.196402
vt 1.298920 1.197331
vt 0.481952 0.996170
vt 0.056276 0.099285
vt 0.056236 0.096553
vt 0.014834 0.034064
vt 0.496716 0.034064
vt 0.048069 0.222995
vt 0.048069 0.153612
vt 0.048071 0.017615
vt 0.048069 0.013132
vt 0.056334 0.091900
vt 0.056241 0.090560
vt 0.056266 0.094487
vt 0.056216 0.088986
vt 0.056256 0.086255
vt 0.047145 0.320182
vt 0.056400 0.092640
vt 0.056351 0.084915
vt 0.056410 0.101133
vt 0.047144 0.483640
vt 0.047144 0.343337
vt 0.008935 0.343337
vt 0.008936 0.320182
vt 0.020006 0.099308
vt 0.020006 0.096539
vt 0.009860 0.153612
vt 0.009862 0.017615
vt 0.020007 0.094461
vt 0.009860 0.222995
vt 0.020072 0.091909
vt 0.020006 0.090568
vt 0.020006 0.088974
vt 0.009860 0.013132
vt 0.020008 0.086223
vt 0.020075 0.084881
vt 0.020104 0.101159
vt 0.020105 0.092611
vt 0.008935 0.483640
vt 0.014834 0.015763
vt 0.496716 0.015763
s 0
usemtl Material.005
f 45/1/1 46/2/1 7/3/1 5/4/1
f 3/5/2 1/6/2 2/7/2 4/8/2
f 7/3/3 8/9/3 6/10/3 5/4/3
f 47/11/1 48/12/1 15/13/1 13/14/1
f 49/15/4 47/11/4 13/14/4 14/16/4
f 11/17/2 9/18/2 10/19/2 12/20/2
f 15/13/3 16/21/3 14/16/3 13/14/3
f 50/22/4 45/1/4 5/4/4 6/10/4
f 32/23/4 26/24/4 25/25/4 34/26/4
f 17/27/1 19/28/1 23/29/1 21/30/1
f 19/28/2 17/27/2 18/31/2 20/32/2
f 23/29/3 24/33/3 22/34/3 21/30/3
f 50/22/5 6/10/5 8/9/5 52/35/5
f 49/15/5 14/16/5 16/21/5 51/36/5
f 35/37/2 25/25/2 26/24/2 27/38/2
f 18/31/4 17/27/4 21/30/4 22/34/4
f 18/31/5 22/34/5 24/33/5 20/32/5
f 23/39/4 35/40/4 27/41/4 24/42/4
f 29/43/4 28/44/4 16/45/4 15/46/4
f 31/47/4 30/48/4 8/49/4 7/50/4
f 26/24/5 32/23/5 33/51/5 27/38/5
f 25/25/1 35/37/1 36/52/1 34/26/1
f 48/53/4 11/54/4 4/55/4 52/56/4
f 15/46/4 8/49/4 30/48/4 29/43/4
f 35/40/4 23/39/4 39/57/4 43/58/4
f 23/39/4 19/59/4 37/60/4 39/57/4
f 24/42/4 27/41/4 41/61/4 40/62/4
f 20/63/4 24/42/4 40/62/4 38/64/4
f 36/65/4 35/40/4 43/58/4 44/66/4
f 27/41/4 33/67/4 42/68/4 41/61/4
f 16/45/4 28/44/4 44/66/4 43/58/4
f 51/69/4 16/45/4 43/58/4 39/57/4
f 12/70/4 51/69/4 39/57/4 37/60/4
f 15/46/4 48/53/4 52/56/4 8/49/4
f 10/19/5 49/15/5 51/36/5 12/20/5
f 2/7/5 50/22/5 52/35/5 4/8/5
f 2/7/4 1/6/4 45/1/4 50/22/4
f 10/19/4 9/18/4 47/11/4 49/15/4
f 9/18/1 11/17/1 48/12/1 47/11/1
f 1/6/1 3/5/1 46/2/1 45/1/1
f 11/54/4 12/70/4 37/60/4 53/71/4
f 4/55/4 11/54/4 53/71/4 54/72/4
f 3/73/4 4/55/4 54/72/4 55/74/4
f 7/50/4 46/75/4 59/76/4 57/77/4
f 3/73/4 55/74/4 60/78/4 56/79/4
f 31/47/4 7/50/4 57/77/4 58/80/4
f 46/75/4 3/73/4 56/79/4 59/76/4
f 75/81/6 76/82/6 97/83/6 101/84/6
f 55/85/7 54/86/7 83/87/7 84/88/7
s 1
f 61/89/8 75/81/9 101/84/10 89/90/11
s 0
f 19/91/7 20/92/7 78/93/7 79/94/7
f 76/82/6 70/95/6 99/96/6 97/83/6
s 1
f 38/97/12 61/89/8 89/90/11 81/98/13
s 0
f 71/99/14 70/100/14 62/101/14 64/102/14
f 73/103/3 72/104/3 69/105/3 68/106/3
f 72/104/15 71/99/15 114/107/15 111/108/15
f 76/109/3 75/110/3 65/111/3 63/112/3
f 67/113/16 74/114/16 116/115/16 109/116/16
f 68/106/17 67/113/17 109/116/17 108/117/17
f 77/118/3 74/114/3 67/113/3 66/119/3
f 20/92/7 38/97/7 81/98/7 78/93/7
f 54/86/7 53/120/7 82/121/7 83/87/7
f 71/122/18 72/123/18 100/124/18 94/125/18
f 74/126/6 77/127/6 98/128/6 96/129/6
f 70/95/19 71/122/19 94/125/19 99/96/19
f 37/130/7 19/91/7 79/94/7 80/131/7
f 72/123/6 73/132/6 95/133/6 100/124/6
s 1
f 78/93/4 81/98/13 89/90/11 86/134/20
f 80/131/4 79/94/4 87/135/21 88/136/22
f 79/94/4 78/93/4 86/134/20 87/135/21
f 80/131/4 88/136/22 93/137/23 82/121/4
f 85/138/24 84/88/4 90/139/20 92/140/25
f 84/88/4 83/87/4 91/141/20 90/139/20
f 83/87/4 82/121/4 93/137/23 91/141/20
f 92/140/25 90/139/20 96/129/3 98/128/26
f 93/137/23 88/136/22 94/125/27 100/124/28
f 87/135/21 86/134/20 97/83/3 99/96/29
f 86/134/20 89/90/11 101/84/10 97/83/3
f 90/139/20 91/141/20 95/133/3 96/129/3
f 91/141/20 93/137/23 100/124/28 95/133/3
f 88/136/22 87/135/21 99/96/29 94/125/27
s 0
f 60/142/7 55/85/7 84/88/7 85/138/7
f 73/132/6 74/126/6 96/129/6 95/133/6
f 53/120/7 37/130/7 80/131/7 82/121/7
s 1
f 103/143/30 102/144/31 178/145/32 179/146/33
f 75/147/9 61/148/8 175/149/34 176/150/35
f 65/151/36 75/147/9 176/150/35 177/152/35
f 102/144/31 65/151/36 177/152/35 178/145/32
f 41/153/37 42/154/37 174/155/38 173/156/38
f 40/157/37 41/153/37 173/156/38 172/158/38
f 156/159/39 104/160/39 180/161/33 182/162/33
f 65/163/36 102/164/31 134/165/40 126/166/41
f 105/167/39 156/159/39 182/162/33 181/168/33
f 102/164/31 103/169/30 147/170/42 134/165/40
s 0
f 69/171/43 64/172/43 125/173/43 130/174/43
s 1
f 38/175/12 40/157/37 172/158/38 171/176/38
s 0
f 64/172/44 62/177/44 124/178/44 125/173/44
s 1
f 61/148/8 38/175/12 171/176/38 175/149/34
s 0
f 62/177/45 63/179/45 123/180/45 124/178/45
f 116/115/3 115/181/3 108/117/3 109/116/3
f 110/182/3 117/183/3 106/184/3 107/185/3
f 111/108/46 114/107/46 113/186/46 112/187/46
f 74/114/47 73/103/47 115/181/47 116/115/47
f 69/105/48 72/104/48 111/108/48 112/187/48
f 71/99/49 64/102/49 113/186/49 114/107/49
f 64/102/50 69/105/50 112/187/50 113/186/50
f 62/101/51 70/100/51 110/182/51 107/185/51
f 70/100/47 76/109/47 117/183/47 110/182/47
f 76/109/52 63/112/52 106/184/52 117/183/52
f 63/112/17 62/101/17 107/185/17 106/184/17
f 73/103/53 68/106/53 108/117/53 115/181/53
f 68/188/45 69/171/45 130/174/45 129/189/45
f 67/190/45 68/188/45 129/189/45 127/191/45
s 1
f 129/189/3 130/174/28 138/192/54 137/193/55
f 123/180/3 126/166/41 134/165/40 131/194/55
f 130/174/28 125/173/27 133/195/56 138/192/54
f 128/196/57 127/191/3 135/197/55 136/198/58
f 124/178/29 123/180/3 131/194/55 132/199/59
f 127/191/3 129/189/3 137/193/55 135/197/55
f 125/173/27 124/178/29 132/199/59 133/195/56
f 131/194/55 134/165/40 147/170/42 148/200/60
f 132/199/59 131/194/55 148/200/60 144/201/60
f 133/195/56 132/199/59 144/201/60 139/202/60
f 145/203/60 138/192/54 133/195/56 139/202/60
f 137/193/55 138/192/54 145/203/60 140/204/60
f 135/197/55 137/193/55 140/204/60 143/205/60
f 136/198/58 135/197/55 143/205/60 141/206/61
s 0
f 63/179/45 65/163/45 126/166/45 123/180/45
f 66/207/45 67/190/45 127/191/45 128/196/45
f 121/208/62 122/209/62 141/206/62 143/205/62
f 119/210/62 142/211/62 139/202/62 144/201/62
f 120/212/62 121/208/62 143/205/62 140/204/62
f 118/213/62 119/210/62 144/201/62 148/200/62
f 146/214/62 120/212/62 140/204/62 145/203/62
f 103/169/62 118/213/62 148/200/62 147/170/62
f 142/211/62 146/214/62 145/203/62 139/202/62
f 146/215/60 154/216/60 155/217/60 120/218/60
f 142/219/60 150/220/60 154/216/60 146/215/60
f 119/221/60 152/222/60 150/220/60 142/219/60
f 103/223/60 104/224/60 153/225/60 118/226/60
f 120/218/60 155/217/60 151/227/60 121/228/60
f 118/226/60 153/225/60 152/222/60 119/221/60
f 121/228/60 151/227/60 149/229/60 122/230/60
f 151/227/60 155/217/60 163/231/60 159/232/60
f 154/216/60 150/220/60 158/233/60 162/234/60
f 152/222/60 153/225/60 161/235/60 160/236/60
f 149/229/60 151/227/60 159/232/60 157/237/60
f 155/217/60 154/216/60 162/234/60 163/231/60
f 150/220/60 152/222/60 160/236/60 158/233/60
f 153/225/60 104/224/60 156/238/60 161/235/60
f 162/234/60 158/233/60 165/239/60 169/240/60
f 160/236/60 161/235/60 168/241/60 167/242/60
f 157/237/60 159/232/60 166/243/60 164/244/60
f 163/231/60 162/234/60 169/240/60 170/245/60
f 158/233/60 160/236/60 167/242/60 165/239/60
f 161/235/60 156/238/60 105/246/60 168/241/60
f 159/232/60 163/231/60 170/245/60 166/243/60
s 1
f 180/161/33 179/146/33 197/247/63 198/248/63
f 171/176/38 172/158/38 184/249/64 183/250/64
f 179/146/33 178/145/32 196/251/65 197/247/63
f 181/168/33 182/162/33 200/252/63 199/253/63
f 182/162/33 180/161/33 198/248/63 200/252/63
f 176/150/35 175/149/34 187/254/66 188/255/67
f 177/152/35 176/150/35 188/255/67 189/256/67
f 178/145/32 177/152/35 189/256/67 196/251/65
f 175/149/34 171/176/38 183/250/64 187/254/66
f 104/160/39 103/143/30 179/146/33 180/161/33
f 189/256/67 188/255/67 206/257/68 207/258/68
f 196/251/65 189/256/67 207/258/68 214/259/69
f 187/254/66 183/250/64 201/260/70 205/261/71
f 185/262/64 186/263/64 204/264/70 203/265/70
f 184/249/64 185/262/64 203/265/70 202/266/70
f 198/248/63 197/247/63 215/267/72 216/268/72
f 183/250/64 184/249/64 202/266/70 201/260/70
f 197/247/63 196/251/65 214/259/69 215/267/72
f 199/253/63 200/252/63 218/269/72 217/270/72
f 172/158/38 173/156/38 185/262/64 184/249/64
f 173/156/38 174/155/38 186/263/64 185/262/64
f 214/259/69 207/258/68 219/271/73 220/272/74
f 205/261/71 201/260/70 195/273/75 191/274/76
f 203/265/70 204/264/70 192/275/75 193/276/75
f 202/266/70 203/265/70 193/276/75 194/277/75
f 216/268/72 215/267/72 221/278/77 222/279/77
f 201/260/70 202/266/70 194/277/75 195/273/75
f 215/267/72 214/259/69 220/272/74 221/278/77
f 217/270/72 218/269/72 224/280/77 223/281/77
f 218/269/72 216/268/72 222/279/77 224/280/77
f 206/257/68 205/261/71 191/274/76 190/282/73
f 188/255/67 187/254/66 205/261/71 206/257/68
f 200/252/63 198/248/63 216/268/72 218/269/72
f 190/282/73 191/274/76 209/283/78 208/284/79
f 219/271/73 190/282/73 208/284/79 225/285/79
f 220/272/74 219/271/73 225/285/79 234/286/80
f 191/274/76 195/273/75 210/287/81 209/283/78
f 222/279/77 221/278/77 235/288/82 236/289/82
f 195/273/75 194/277/75 211/290/81 210/287/81
f 194/277/75 193/276/75 213/291/81 211/290/81
f 221/278/77 220/272/74 234/286/80 235/288/82
f 223/281/77 224/280/77 238/292/82 237/293/82
f 207/258/68 206/257/68 190/282/73 219/271/73
s 0
f 226/294/1 208/295/1 209/296/1 210/297/1
f 211/298/1 213/299/1 228/300/1 227/301/1
f 211/298/1 227/301/1 226/294/1 210/297/1
f 212/302/1 229/303/1 228/300/1 213/299/1
f 225/304/1 208/295/1 226/294/1 230/305/1
f 228/300/1 229/303/1 233/306/1 232/307/1
f 227/301/1 228/300/1 232/307/1 231/308/1
f 227/301/1 231/308/1 230/305/1 226/294/1
f 230/305/1 231/308/1 236/309/1 235/310/1
f 225/304/1 230/305/1 235/310/1 234/311/1
f 231/308/1 232/307/1 238/312/1 236/309/1
f 232/307/1 233/306/1 237/313/1 238/312/1
s 1
f 224/280/77 222/279/77 236/289/82 238/292/82
f 193/276/75 192/275/75 212/314/81 213/291/81
f 85/138/24 92/140/25 247/315/83 246/316/84
s 0
f 77/118/85 66/119/85 244/317/85 245/318/85
f 57/77/86 59/76/86 242/319/86 240/320/86
f 56/79/87 60/78/87 243/321/87 239/322/87
f 66/207/88 128/196/88 250/323/88 244/324/88
s 1
f 92/140/25 98/128/26 248/325/89 247/315/83
f 128/196/57 136/198/58 251/326/90 250/323/91
f 136/198/58 141/206/61 252/327/92 251/326/90
s 0
f 157/237/93 164/244/93 255/328/93 254/329/93
f 98/128/94 77/127/94 245/330/94 248/325/94
f 59/76/86 56/79/86 239/322/86 242/319/86
f 141/206/95 122/209/95 249/331/95 252/327/95
f 60/142/96 85/138/96 246/316/96 243/332/96
f 122/230/93 149/229/93 253/333/93 249/334/93
f 149/229/93 157/237/93 254/329/93 253/333/93
f 58/80/86 57/77/86 240/320/86 241/335/86
f 253/333/60 254/329/60 271/336/60 270/337/60
s 1
f 246/316/84 247/315/83 264/338/20 263/339/4
s 0
f 242/319/4 239/322/4 256/340/4 259/341/4
f 254/329/60 255/328/60 272/342/60 271/336/60
s 1
f 247/315/83 248/325/89 265/343/3 264/338/20
s 0
f 241/335/4 240/320/4 257/344/4 258/345/4
f 244/324/45 250/323/45 267/346/45 261/347/45
f 240/320/4 242/319/4 259/341/4 257/344/4
s 1
f 250/323/91 251/326/90 268/348/55 267/346/3
s 0
f 239/322/4 243/321/4 260/349/4 256/340/4
f 252/327/62 249/331/62 266/350/62 269/351/62
f 243/332/7 246/316/7 263/339/7 260/352/7
s 1
f 251/326/90 252/327/92 269/351/60 268/348/55
s 0
f 248/325/6 245/330/6 262/353/6 265/343/6
f 249/334/60 253/333/60 270/337/60 266/354/60
f 245/318/3 244/317/3 261/355/3 262/356/3
f 307/357/1 277/358/1 279/359/1 308/360/1
f 275/361/3 276/362/3 274/363/3 273/364/3
f 279/359/2 277/358/2 278/365/2 280/366/2
f 309/367/1 285/368/1 287/369/1 310/370/1
f 311/371/4 286/372/4 285/368/4 309/367/4
f 283/373/3 284/374/3 282/375/3 281/376/3
f 287/369/2 285/368/2 286/372/2 288/377/2
f 312/378/4 278/365/4 277/358/4 307/357/4
f 32/23/4 34/26/4 297/379/4 298/380/4
f 289/381/1 293/382/1 295/383/1 291/384/1
f 291/384/3 292/385/3 290/386/3 289/381/3
f 295/383/2 293/382/2 294/387/2 296/388/2
f 312/378/5 314/389/5 280/366/5 278/365/5
f 311/371/5 313/390/5 288/377/5 286/372/5
f 300/391/3 299/392/3 298/380/3 297/379/3
f 290/386/4 294/387/4 293/382/4 289/381/4
f 290/386/5 292/385/5 296/388/5 294/387/5
f 295/393/4 296/394/4 299/395/4 300/396/4
f 29/43/4 287/397/4 288/398/4 28/44/4
f 31/47/4 279/399/4 280/400/4 30/48/4
f 298/380/5 299/392/5 33/51/5 32/23/5
f 297/379/1 34/26/1 36/52/1 300/391/1
f 310/401/4 314/402/4 276/403/4 283/404/4
f 287/397/4 29/43/4 30/48/4 280/400/4
f 300/396/4 306/405/4 303/406/4 295/393/4
f 295/393/4 303/406/4 301/407/4 291/408/4
f 296/394/4 304/409/4 305/410/4 299/395/4
f 292/411/4 302/412/4 304/409/4 296/394/4
f 36/65/4 44/66/4 306/405/4 300/396/4
f 299/395/4 305/410/4 42/68/4 33/67/4
f 288/398/4 306/405/4 44/66/4 28/44/4
f 313/413/4 303/406/4 306/405/4 288/398/4
f 284/414/4 301/407/4 303/406/4 313/413/4
f 287/397/4 280/400/4 314/402/4 310/401/4
f 282/375/5 284/374/5 313/390/5 311/371/5
f 274/363/5 276/362/5 314/389/5 312/378/5
f 274/363/4 312/378/4 307/357/4 273/364/4
f 282/375/4 311/371/4 309/367/4 281/376/4
f 281/376/1 309/367/1 310/370/1 283/373/1
f 273/364/1 307/357/1 308/360/1 275/361/1
f 283/404/4 315/415/4 301/407/4 284/414/4
f 276/403/4 316/416/4 315/415/4 283/404/4
f 275/417/4 317/418/4 316/416/4 276/403/4
f 279/399/4 319/419/4 320/420/4 308/421/4
f 275/417/4 318/422/4 321/423/4 317/418/4
f 31/47/4 58/80/4 319/419/4 279/399/4
f 308/421/4 320/420/4 318/422/4 275/417/4
f 336/424/97 362/425/97 358/426/97 337/427/97
f 317/428/98 345/429/98 344/430/98 316/431/98
s 1
f 322/432/99 350/433/100 362/425/101 336/424/102
s 0
f 291/434/98 340/435/98 339/436/98 292/437/98
f 337/427/97 358/426/97 360/438/97 331/439/97
s 1
f 302/440/12 342/441/13 350/433/100 322/432/99
s 0
f 332/442/103 325/443/103 323/444/103 331/445/103
f 334/446/2 329/447/2 330/448/2 333/449/2
f 333/449/104 371/450/104 374/451/104 332/442/104
f 337/452/2 324/453/2 326/454/2 336/455/2
f 328/456/105 369/457/105 376/458/105 335/459/105
f 329/447/106 368/460/106 369/457/106 328/456/106
f 338/461/2 327/462/2 328/456/2 335/459/2
f 292/437/98 339/436/98 342/441/98 302/440/98
f 316/431/98 344/430/98 343/463/98 315/464/98
f 332/465/107 355/466/107 361/467/107 333/468/107
f 335/469/97 357/470/97 359/471/97 338/472/97
f 331/439/108 360/438/108 355/466/108 332/465/108
f 301/473/98 341/474/98 340/435/98 291/434/98
f 333/468/97 361/467/97 356/475/97 334/476/97
s 1
f 339/436/4 347/477/109 350/433/100 342/441/13
f 341/474/4 349/478/110 348/479/111 340/435/4
f 340/435/4 348/479/111 347/477/109 339/436/4
f 341/474/4 343/463/4 354/480/112 349/478/110
f 346/481/24 353/482/113 351/483/109 345/429/4
f 345/429/4 351/483/109 352/484/109 344/430/4
f 344/430/4 352/484/109 354/480/112 343/463/4
f 353/482/113 359/471/114 357/470/2 351/483/109
f 354/480/112 361/467/115 355/466/116 349/478/110
f 348/479/111 360/438/117 358/426/2 347/477/109
f 347/477/109 358/426/2 362/425/101 350/433/100
f 351/483/109 357/470/2 356/475/2 352/484/109
f 352/484/109 356/475/2 361/467/115 354/480/112
f 349/478/110 355/466/116 360/438/117 348/479/111
s 0
f 321/485/98 346/481/98 345/429/98 317/428/98
f 334/476/97 356/475/97 357/470/97 335/469/97
f 315/464/98 343/463/98 341/474/98 301/473/98
s 1
f 364/486/30 431/487/33 430/488/118 363/489/119
f 336/490/102 428/491/120 427/492/121 322/493/99
f 326/494/122 429/495/120 428/491/120 336/490/102
f 363/489/119 430/488/118 429/495/120 326/494/122
f 305/496/37 426/497/38 174/155/38 42/154/37
f 304/498/37 425/499/38 426/497/38 305/496/37
f 416/500/39 433/501/33 432/502/33 365/503/123
f 326/504/122 386/505/124 394/506/125 363/507/119
f 105/508/39 181/509/33 433/501/33 416/500/39
f 363/507/119 394/506/125 407/510/42 364/511/30
s 0
f 330/512/126 390/513/126 385/514/126 325/515/126
s 1
f 302/516/12 424/517/38 425/499/38 304/498/37
s 0
f 325/515/127 385/514/127 384/518/127 323/519/127
s 1
f 322/493/99 427/492/121 424/517/38 302/516/12
s 0
f 323/519/128 384/518/128 383/520/128 324/521/128
f 376/458/2 369/457/2 368/460/2 375/522/2
f 370/523/2 367/524/2 366/525/2 377/526/2
f 371/450/129 372/527/129 373/528/129 374/451/129
f 335/459/130 376/458/130 375/522/130 334/446/130
f 330/448/131 372/527/131 371/450/131 333/449/131
f 332/442/132 374/451/132 373/528/132 325/443/132
f 325/443/133 373/528/133 372/527/133 330/448/133
f 323/444/134 367/524/134 370/523/134 331/445/134
f 331/445/130 370/523/130 377/526/130 337/452/130
f 337/452/135 377/526/135 366/525/135 324/453/135
f 324/453/106 366/525/106 367/524/106 323/444/106
f 334/446/136 375/522/136 368/460/136 329/447/136
f 329/529/128 389/530/128 390/513/128 330/512/128
f 328/531/128 387/532/128 389/530/128 329/529/128
s 1
f 389/530/2 397/533/137 398/534/138 390/513/115
f 383/520/2 391/535/137 394/506/125 386/505/124
f 390/513/115 398/534/138 393/536/139 385/514/116
f 388/537/140 396/538/141 395/539/137 387/532/2
f 384/518/117 392/540/142 391/535/137 383/520/2
f 387/532/2 395/539/137 397/533/137 389/530/2
f 385/514/116 393/536/139 392/540/142 384/518/117
f 391/535/137 408/541/60 407/510/42 394/506/125
f 392/540/142 404/542/60 408/541/60 391/535/137
f 393/536/139 399/543/60 404/542/60 392/540/142
f 405/544/60 399/543/60 393/536/139 398/534/138
f 397/533/137 400/545/60 405/544/60 398/534/138
f 395/539/137 403/546/60 400/545/60 397/533/137
f 396/538/141 401/547/61 403/546/60 395/539/137
s 0
f 324/521/128 383/520/128 386/505/128 326/504/128
f 327/548/128 388/537/128 387/532/128 328/531/128
f 381/549/143 403/546/143 401/547/143 382/550/143
f 379/551/143 404/542/143 399/543/143 402/552/143
f 380/553/143 400/545/143 403/546/143 381/549/143
f 378/554/143 408/541/143 404/542/143 379/551/143
f 406/555/143 405/544/143 400/545/143 380/553/143
f 364/511/143 407/510/143 408/541/143 378/554/143
f 402/552/143 399/543/143 405/544/143 406/555/143
f 406/556/60 380/557/60 415/558/60 414/559/60
f 402/560/60 406/556/60 414/559/60 410/561/60
f 379/562/60 402/560/60 410/561/60 412/563/60
f 364/564/60 378/565/60 413/566/60 365/567/60
f 380/557/60 381/568/60 411/569/60 415/558/60
f 378/565/60 379/562/60 412/563/60 413/566/60
f 381/568/60 382/570/60 409/571/60 411/569/60
f 411/569/60 419/572/60 423/573/60 415/558/60
f 414/559/60 422/574/60 418/575/60 410/561/60
f 412/563/60 420/576/60 421/577/60 413/566/60
f 409/571/60 417/578/60 419/572/60 411/569/60
f 415/558/60 423/573/60 422/574/60 414/559/60
f 410/561/60 418/575/60 420/576/60 412/563/60
f 413/566/60 421/577/60 416/579/60 365/567/60
f 422/574/60 169/240/60 165/239/60 418/575/60
f 420/576/60 167/242/60 168/241/60 421/577/60
f 417/578/60 164/244/60 166/243/60 419/572/60
f 423/573/60 170/245/60 169/240/60 422/574/60
f 418/575/60 165/239/60 167/242/60 420/576/60
f 421/577/60 168/241/60 105/246/60 416/579/60
f 419/572/60 166/243/60 170/245/60 423/573/60
s 1
f 432/502/33 447/580/63 446/581/63 431/487/33
f 424/517/38 434/582/64 435/583/64 425/499/38
f 431/487/33 446/581/63 445/584/144 430/488/118
f 181/509/33 199/585/63 448/586/63 433/501/33
f 433/501/33 448/586/63 447/580/63 432/502/33
f 428/491/120 438/587/145 437/588/146 427/492/121
f 429/495/120 439/589/145 438/587/145 428/491/120
f 430/488/118 445/584/144 439/589/145 429/495/120
f 427/492/121 437/588/146 434/582/64 424/517/38
f 365/503/123 432/502/33 431/487/33 364/486/30
f 439/589/145 454/590/147 453/591/147 438/587/145
f 445/584/144 460/592/148 454/590/147 439/589/145
f 437/588/146 452/593/149 449/594/70 434/582/64
f 436/595/64 451/596/70 204/264/70 186/263/64
f 435/583/64 450/597/70 451/596/70 436/595/64
f 447/580/63 462/598/72 461/599/72 446/581/63
f 434/582/64 449/594/70 450/597/70 435/583/64
f 446/581/63 461/599/72 460/592/148 445/584/144
f 199/585/63 217/600/72 463/601/72 448/586/63
f 425/499/38 435/583/64 436/595/64 426/497/38
f 426/497/38 436/595/64 186/263/64 174/155/38
f 460/592/148 465/602/150 464/603/151 454/590/147
f 452/593/149 441/604/152 444/605/75 449/594/70
f 451/596/70 442/606/75 192/275/75 204/264/70
f 450/597/70 443/607/75 442/606/75 451/596/70
f 462/598/72 467/608/77 466/609/77 461/599/72
f 449/594/70 444/605/75 443/607/75 450/597/70
f 461/599/72 466/609/77 465/602/150 460/592/148
f 217/600/72 223/610/77 468/611/77 463/601/72
f 463/601/72 468/611/77 467/608/77 462/598/72
f 453/591/147 440/612/151 441/604/152 452/593/149
f 438/587/145 453/591/147 452/593/149 437/588/146
f 448/586/63 463/601/72 462/598/72 447/580/63
f 440/612/151 455/613/153 456/614/154 441/604/152
f 464/603/151 469/615/153 455/613/153 440/612/151
f 465/602/150 476/616/155 469/615/153 464/603/151
f 441/604/152 456/614/154 457/617/81 444/605/75
f 467/608/77 478/618/82 477/619/82 466/609/77
f 444/605/75 457/617/81 458/620/81 443/607/75
f 443/607/75 458/620/81 459/621/81 442/606/75
f 466/609/77 477/619/82 476/616/155 465/602/150
f 223/610/77 237/622/82 479/623/82 468/611/77
f 454/590/147 464/603/151 440/612/151 453/591/147
s 0
f 470/624/1 457/625/1 456/626/1 455/627/1
f 458/628/1 471/629/1 472/630/1 459/631/1
f 458/628/1 457/625/1 470/624/1 471/629/1
f 212/302/1 459/631/1 472/630/1 229/303/1
f 469/632/1 473/633/1 470/624/1 455/627/1
f 472/630/1 475/634/1 233/306/1 229/303/1
f 471/629/1 474/635/1 475/634/1 472/630/1
f 471/629/1 470/624/1 473/633/1 474/635/1
f 473/633/1 477/636/1 478/637/1 474/635/1
f 469/638/1 476/639/1 477/640/1 473/641/1
f 474/635/1 478/637/1 479/642/1 475/634/1
f 475/634/1 479/642/1 237/313/1 233/306/1
s 1
f 468/611/77 479/623/82 478/618/82 467/608/77
f 442/606/75 459/621/81 212/314/81 192/275/75
f 346/481/24 486/643/84 487/644/156 353/482/113
s 0
f 338/461/157 485/645/157 484/646/157 327/462/157
f 319/419/86 481/647/86 482/648/86 320/420/86
f 318/422/87 480/649/87 483/650/87 321/423/87
f 327/548/158 484/651/158 490/652/158 388/537/158
s 1
f 353/482/113 487/644/156 488/653/159 359/471/114
f 388/537/140 490/652/160 491/654/161 396/538/141
f 396/538/141 491/654/161 492/655/92 401/547/61
s 0
f 417/578/93 494/656/93 255/328/93 164/244/93
f 359/471/162 488/653/162 485/657/162 338/472/162
f 320/420/86 482/648/86 480/649/86 318/422/86
f 401/547/163 492/655/163 489/658/163 382/550/163
f 321/485/164 483/659/164 486/643/164 346/481/164
f 382/570/93 489/660/93 493/661/93 409/571/93
f 409/571/93 493/661/93 494/656/93 417/578/93
f 58/80/86 241/335/86 481/647/86 319/419/86
f 493/661/60 508/662/60 509/663/60 494/656/60
s 1
f 486/643/84 501/664/4 502/665/109 487/644/156
s 0
f 482/648/4 497/666/4 495/667/4 480/649/4
f 494/656/60 509/663/60 272/342/60 255/328/60
s 1
f 487/644/156 502/665/109 503/668/2 488/653/159
s 0
f 241/335/4 258/345/4 496/669/4 481/647/4
f 484/651/128 499/670/128 505/671/128 490/652/128
f 481/647/4 496/669/4 497/666/4 482/648/4
s 1
f 490/652/160 505/671/2 506/672/137 491/654/161
s 0
f 480/649/4 495/667/4 498/673/4 483/650/4
f 492/655/143 507/674/143 504/675/143 489/658/143
f 483/659/98 498/676/98 501/664/98 486/643/98
s 1
f 491/654/161 506/672/137 507/674/60 492/655/92
s 0
f 488/653/97 503/668/97 500/677/97 485/657/97
f 489/660/60 504/678/60 508/662/60 493/661/60
f 485/645/2 500/679/2 499/680/2 484/646/2
