# Blender 4.4.0
# www.blender.org
mtllib Chair.mtl
o Chair
v -0.207397 0.685105 0.000972
v -0.207397 0.789042 0.000972
v -0.623146 0.685105 0.000972
v -0.623146 0.789042 0.000972
v -0.207397 0.685105 0.269023
v -0.207397 0.685105 0.093900
v -0.207397 0.789042 0.093900
v -0.207397 0.789042 0.269023
v -0.623146 0.685105 0.269023
v -0.130884 0.685105 0.093900
v -0.130884 0.789042 0.269023
v -0.130884 0.685105 0.269023
v -0.130880 0.789042 0.093900
v -0.207398 0.789042 -0.009566
v -0.207397 0.685105 -0.009568
v -0.130884 0.789042 -0.009568
v -0.130884 0.685105 -0.009568
v -0.199567 0.000000 0.076922
v -0.199567 0.000000 0.008382
v -0.138714 0.000000 0.076922
v -0.138714 0.000000 0.008382
v -0.199567 0.000000 0.000000
v -0.138714 0.000000 0.000000
v -0.156082 0.513829 -0.007176
v -0.164220 0.256914 -0.003588
v -0.154720 0.171276 -0.002392
v -0.150241 0.085638 0.004698
v -0.201574 0.085638 0.004698
v -0.219488 0.171276 -0.002392
v -0.230946 0.256914 -0.003588
v -0.223404 0.513829 -0.007176
v -0.223404 0.513829 0.002825
v -0.230946 0.256914 0.005603
v -0.219488 0.171276 0.006529
v -0.201574 0.085638 0.011770
v -0.201574 0.085638 0.070276
v -0.219488 0.171276 0.081167
v -0.230946 0.256914 0.083290
v -0.223404 0.513829 0.089656
v -0.150241 0.085638 0.070276
v -0.154720 0.171276 0.081167
v -0.164220 0.256914 0.083290
v -0.156082 0.513829 0.089656
v -0.048436 1.687450 0.027062
v -0.048436 1.687450 0.058194
v -0.011390 1.687450 0.027062
v -0.011390 1.687450 0.058194
v -0.011390 1.687450 0.021960
v -0.048436 1.687450 0.021960
v -0.098431 0.947210 -0.007445
v -0.047567 1.366715 -0.000581
v -0.031756 1.489124 0.002765
v -0.022320 1.598243 0.007222
v -0.098431 0.947210 0.089803
v -0.047567 1.366715 0.077623
v -0.031756 1.489124 0.071687
v -0.022320 1.598243 0.063776
v -0.071352 1.598243 0.063776
v -0.088084 1.489124 0.071687
v -0.109372 1.366715 0.077623
v -0.171472 0.947210 0.089803
v -0.071352 1.598243 0.013976
v -0.088084 1.489124 0.010523
v -0.109372 1.366715 0.007932
v -0.171472 0.947210 0.002616
v -0.071352 1.598243 0.007222
v -0.088084 1.489124 0.002765
v -0.109372 1.366715 -0.000581
v -0.171472 0.947210 -0.007445
v -0.020364 1.489124 0.071687
v -0.036175 1.366715 0.077623
v -0.087041 0.947210 0.089803
v -0.036175 1.366715 0.007932
v -0.020364 1.489124 0.010523
v -0.010930 1.598243 0.013976
v -0.020364 1.489124 0.002765
v -0.036175 1.366715 -0.000581
v -0.087041 0.947210 -0.007445
v -0.010930 1.598243 0.063776
v -0.087041 0.947210 0.002616
v 0.000000 1.687450 0.058194
v 0.000000 1.687450 0.027062
v -0.143329 0.171276 0.006529
v -0.152828 0.256914 0.005603
v -0.144691 0.513829 0.002825
v -0.144691 0.513829 0.089656
v -0.152828 0.256914 0.083290
v -0.143329 0.171276 0.081167
v -0.140932 0.085638 0.070276
v -0.143329 0.171276 -0.002392
v -0.152828 0.256914 -0.003588
v -0.144691 0.513829 -0.007176
v -0.140932 0.085638 0.011770
v -0.127322 0.000000 0.008382
v -0.127322 0.000000 0.076922
v -0.119492 0.685105 -0.009568
v -0.119492 0.789042 -0.009568
v -0.127322 -0.000000 0.000000
v -0.140932 0.085638 0.004698
v 0.000000 1.687450 0.021960
v -0.010930 1.598243 0.007222
v -0.119492 0.789042 0.093900
v -0.119492 0.685105 0.093900
v -0.119492 0.685105 0.000972
v -0.119492 0.789042 0.000972
v -0.623146 0.685105 0.093900
v -0.716026 0.685105 0.093901
v -0.716026 0.685105 0.000972
v -0.716026 0.685105 0.269023
v -0.716026 0.789042 0.093901
v -0.716026 0.789042 0.269023
v -0.623146 0.789042 0.093901
v -0.623146 0.789042 0.269023
v -0.623146 0.685105 -0.009566
v -0.727414 0.685105 0.093901
v -0.727414 0.685105 -0.009566
v -0.702089 0.674551 0.079957
v -0.637083 0.674551 0.079957
v -0.637083 0.674551 0.014916
v -0.702089 0.674551 0.014916
v -0.692378 0.659392 0.070242
v -0.646792 0.659392 0.070242
v -0.646792 0.659392 0.024631
v -0.692378 0.659392 0.024631
v -0.700666 0.645865 0.078533
v -0.638506 0.645865 0.078533
v -0.638506 0.645865 0.016339
v -0.700666 0.645865 0.016339
v -0.704708 0.632149 0.082578
v -0.634463 0.632149 0.082578
v -0.634463 0.632149 0.012295
v -0.704708 0.632149 0.012295
v -0.706016 0.618432 0.083886
v -0.633155 0.618432 0.083886
v -0.633155 0.618432 0.010986
v -0.706016 0.618432 0.010986
v -0.706016 0.602550 0.083886
v -0.633155 0.602550 0.083886
v -0.633155 0.602550 0.010986
v -0.706016 0.602550 0.010986
v -0.702785 0.589555 0.080653
v -0.636386 0.589555 0.080652
v -0.636386 0.589555 0.014220
v -0.702785 0.589555 0.014220
v -0.695863 0.576562 0.073728
v -0.643308 0.576562 0.073728
v -0.643308 0.576562 0.021145
v -0.695863 0.576562 0.021145
v -0.687870 0.565010 0.065730
v -0.651301 0.565010 0.065730
v -0.651301 0.565010 0.029142
v -0.687870 0.565010 0.029142
v -0.694409 0.551294 0.072274
v -0.644761 0.551294 0.072272
v -0.644761 0.551294 0.022600
v -0.694409 0.551294 0.022600
v -0.700158 0.535412 0.078025
v -0.639013 0.535412 0.078025
v -0.639013 0.535412 0.016848
v -0.700158 0.535412 0.016848
v -0.703397 0.517364 0.081265
v -0.635774 0.517364 0.081265
v -0.635774 0.517364 0.013607
v -0.703397 0.517364 0.013607
v -0.703397 0.498594 0.081265
v -0.635774 0.498594 0.081265
v -0.635774 0.498594 0.013607
v -0.703397 0.498594 0.013607
v -0.700801 0.479825 0.078668
v -0.638369 0.479825 0.078668
v -0.638369 0.479825 0.016204
v -0.700801 0.479825 0.016204
v -0.694398 0.461777 0.072262
v -0.644773 0.461777 0.072262
v -0.644773 0.461777 0.022610
v -0.694398 0.461777 0.022610
v -0.687475 0.444312 0.065335
v -0.651696 0.444312 0.065335
v -0.651696 0.444312 0.029537
v -0.687475 0.444312 0.029537
v -0.694204 0.429342 0.072067
v -0.644968 0.429342 0.072067
v -0.644968 0.429342 0.022805
v -0.694204 0.429342 0.022805
v -0.697718 0.413125 0.075583
v -0.641453 0.413125 0.075583
v -0.641453 0.413125 0.019289
v -0.697718 0.413125 0.019289
v -0.699600 0.395798 0.077466
v -0.639571 0.395798 0.077466
v -0.639571 0.395798 0.017406
v -0.699600 0.395798 0.017406
v -0.701197 0.378473 0.079064
v -0.637974 0.378473 0.079064
v -0.637974 0.378473 0.015808
v -0.701197 0.378473 0.015808
v -0.698392 0.358259 0.076258
v -0.640780 0.358259 0.076258
v -0.640780 0.358259 0.018614
v -0.698392 0.358259 0.018614
v -0.696136 0.339490 0.074000
v -0.643036 0.339490 0.074000
v -0.643036 0.339490 0.020872
v -0.696136 0.339490 0.020872
v -0.690678 0.320719 0.068539
v -0.648493 0.320719 0.068539
v -0.648493 0.320719 0.026333
v -0.690678 0.320719 0.026333
v -0.697448 0.309966 0.075314
v -0.641723 0.309966 0.075314
v -0.641723 0.309966 0.019559
v -0.697448 0.309966 0.019559
v -0.692658 0.296968 0.070520
v -0.646513 0.296968 0.070520
v -0.646513 0.296968 0.024352
v -0.692658 0.296968 0.024352
v -0.692658 0.286409 0.070520
v -0.646513 0.286409 0.070520
v -0.646513 0.286409 0.024352
v -0.692658 0.286409 0.024352
v -0.703788 0.280633 0.081656
v -0.635383 0.280633 0.081656
v -0.635383 0.280633 0.013216
v -0.703788 0.280633 0.013216
v -0.703788 0.147800 0.081656
v -0.635383 0.147800 0.081656
v -0.635383 0.147800 0.013216
v -0.703788 0.147800 0.013216
v -0.694146 0.141967 0.072010
v -0.645025 0.141967 0.072010
v -0.645025 0.141967 0.022862
v -0.694146 0.141967 0.022862
v -0.687433 0.131138 0.065293
v -0.651738 0.131138 0.065293
v -0.651738 0.131138 0.029579
v -0.687433 0.131138 0.029579
v -0.692351 0.118144 0.070213
v -0.646820 0.118144 0.070213
v -0.646820 0.118144 0.024659
v -0.692351 0.118144 0.024659
v -0.692351 0.104428 0.070213
v -0.646820 0.104428 0.070213
v -0.646820 0.104428 0.024659
v -0.692351 0.104428 0.024659
v -0.704536 0.000472 0.082405
v -0.634636 0.000472 0.082405
v -0.634636 0.000472 0.012468
v -0.704536 0.000472 0.012468
v -0.727414 0.794489 0.093901
v -0.623146 0.794489 0.093901
v -0.623146 0.794489 -0.009566
v -0.727414 0.794489 -0.009566
v -0.635383 0.256914 0.013216
v -0.635383 0.171276 0.013216
v -0.703788 0.171276 0.013216
v -0.703788 0.256914 0.013216
v -0.703788 0.171276 0.081656
v -0.703788 0.256914 0.081656
v -0.635383 0.171276 0.081656
v -0.635383 0.256914 0.081656
v -0.228760 0.240574 0.020312
v -0.221675 0.187616 0.020885
v -0.221675 0.187616 0.067040
v -0.228760 0.240574 0.068352
v -0.635383 0.240574 0.020312
v -0.635383 0.187616 0.020885
v -0.635383 0.187616 0.067040
v -0.635383 0.240574 0.068352
v -0.207397 0.789042 0.184078
v -0.207397 0.685105 0.184078
v -0.130884 0.685105 0.184078
v -0.130883 0.789042 0.184078
v -0.716026 0.685105 0.184078
v -0.716026 0.789042 0.184078
v -0.623146 0.789042 0.184078
v -0.623146 0.685105 0.184078
v -0.035311 1.498098 0.071036
v -0.027428 1.589270 0.064427
v -0.068396 1.589270 0.064427
v -0.082376 1.498098 0.071036
v -0.035311 1.498098 0.327149
v -0.027428 1.589270 0.327149
v -0.068396 1.589270 0.327149
v -0.082376 1.498092 0.327149
v -0.082376 1.498094 0.269591
v -0.035311 1.498098 0.269591
v -0.082376 1.498096 0.186281
v -0.035311 1.498098 0.186281
v -0.094228 0.930852 0.269023
v -0.024751 1.356282 0.269023
v -0.101266 1.356282 0.269023
v -0.170742 0.930852 0.269023
v -0.101266 1.356282 0.184078
v -0.170742 0.930852 0.184078
v -0.094226 0.930852 0.184078
v -0.024750 1.356282 0.184078
v -0.027428 1.589270 0.181874
v -0.027428 1.589270 0.267387
v -0.068396 1.589270 0.181874
v -0.068396 1.589270 0.267387
v -0.404353 0.240574 0.020312
v -0.465512 0.240574 0.020312
v -0.465512 0.240574 0.068352
v -0.404353 0.240574 0.068352
v -0.404353 0.187616 0.020885
v -0.465512 0.187616 0.020885
v -0.404353 0.187616 0.067040
v -0.465512 0.187616 0.067040
v -0.459450 0.235325 0.079186
v -0.410416 0.235325 0.079186
v -0.410416 0.192866 0.078133
v -0.459450 0.192866 0.078133
v -0.453554 0.230220 0.101942
v -0.416311 0.230220 0.101942
v -0.416311 0.197971 0.101143
v -0.453554 0.197971 0.101143
v -0.207397 0.685105 0.653326
v -0.207397 0.789042 0.653326
v -0.623146 0.685105 0.653327
v -0.623146 0.789042 0.653326
v -0.207397 0.685105 0.385274
v -0.207397 0.685105 0.560398
v -0.207397 0.789042 0.560398
v -0.207397 0.789042 0.385274
v -0.623146 0.685105 0.385274
v -0.130884 0.685105 0.560398
v -0.130884 0.789042 0.385274
v -0.130884 0.685105 0.385274
v -0.130880 0.789042 0.560398
v -0.207398 0.789042 0.663864
v -0.207397 0.685105 0.663865
v -0.130884 0.789042 0.663865
v -0.130884 0.685105 0.663865
v -0.199567 0.000000 0.577375
v -0.199567 0.000000 0.645916
v -0.138714 0.000000 0.577375
v -0.138714 0.000000 0.645916
v -0.199567 0.000000 0.654298
v -0.138714 0.000000 0.654298
v -0.156082 0.513829 0.661474
v -0.164220 0.256914 0.657886
v -0.154720 0.171276 0.656689
v -0.150241 0.085638 0.649600
v -0.201574 0.085638 0.649600
v -0.219488 0.171276 0.656689
v -0.230946 0.256914 0.657886
v -0.223404 0.513829 0.661474
v -0.223404 0.513829 0.651473
v -0.230946 0.256914 0.648695
v -0.219488 0.171276 0.647768
v -0.201574 0.085638 0.642528
v -0.201574 0.085638 0.584023
v -0.219488 0.171276 0.573131
v -0.230946 0.256914 0.571008
v -0.223404 0.513829 0.564642
v -0.150241 0.085638 0.584023
v -0.154720 0.171276 0.573131
v -0.164220 0.256914 0.571008
v -0.156082 0.513829 0.564642
v -0.048436 1.687450 0.627235
v -0.048436 1.687450 0.596103
v -0.011390 1.687450 0.627235
v -0.011390 1.687450 0.596103
v -0.011390 1.687450 0.632339
v -0.048436 1.687450 0.632339
v -0.098431 0.947210 0.661742
v -0.047567 1.366715 0.654880
v -0.031756 1.489124 0.651533
v -0.022320 1.598243 0.647076
v -0.098431 0.947210 0.564494
v -0.047567 1.366715 0.576674
v -0.031756 1.489124 0.582611
v -0.022320 1.598243 0.590521
v -0.071352 1.598243 0.590521
v -0.088084 1.489124 0.582611
v -0.109372 1.366715 0.576674
v -0.171472 0.947210 0.564494
v -0.071352 1.598243 0.640321
v -0.088084 1.489124 0.643775
v -0.109372 1.366715 0.646366
v -0.171472 0.947210 0.651682
v -0.071352 1.598243 0.647076
v -0.088084 1.489124 0.651533
v -0.109372 1.366715 0.654880
v -0.171472 0.947210 0.661742
v -0.020364 1.489124 0.582611
v -0.036175 1.366715 0.576674
v -0.087041 0.947210 0.564494
v -0.036175 1.366715 0.646366
v -0.020364 1.489124 0.643775
v -0.010930 1.598243 0.640321
v -0.020364 1.489124 0.651533
v -0.036175 1.366715 0.654880
v -0.087041 0.947210 0.661742
v -0.010930 1.598243 0.590521
v -0.087041 0.947210 0.651682
v 0.000000 1.687450 0.596103
v 0.000000 1.687450 0.627235
v -0.143329 0.171276 0.647768
v -0.152828 0.256914 0.648695
v -0.144691 0.513829 0.651473
v -0.144691 0.513829 0.564642
v -0.152828 0.256914 0.571008
v -0.143329 0.171276 0.573131
v -0.140932 0.085638 0.584023
v -0.143329 0.171276 0.656689
v -0.152828 0.256914 0.657886
v -0.144691 0.513829 0.661474
v -0.140932 0.085638 0.642528
v -0.127322 0.000000 0.645916
v -0.127322 0.000000 0.577375
v -0.119492 0.685105 0.663865
v -0.119492 0.789042 0.663865
v -0.127322 0.000000 0.654298
v -0.140932 0.085638 0.649600
v 0.000000 1.687450 0.632339
v -0.010930 1.598243 0.647076
v -0.119492 0.789042 0.560398
v -0.119492 0.685105 0.560398
v -0.119492 0.685105 0.653326
v -0.119492 0.789042 0.653326
v -0.623146 0.685105 0.560398
v -0.716026 0.685105 0.560396
v -0.716026 0.685105 0.653326
v -0.716026 0.685105 0.385274
v -0.716026 0.789042 0.560396
v -0.716026 0.789042 0.385274
v -0.623146 0.789042 0.560396
v -0.623146 0.789042 0.385274
v -0.623146 0.685105 0.663864
v -0.727414 0.685105 0.560396
v -0.727414 0.685105 0.663864
v -0.702089 0.674551 0.574340
v -0.637083 0.674551 0.574342
v -0.637083 0.674551 0.639382
v -0.702089 0.674551 0.639382
v -0.692378 0.659392 0.584056
v -0.646792 0.659392 0.584056
v -0.646792 0.659392 0.629666
v -0.692378 0.659392 0.629666
v -0.700666 0.645865 0.575765
v -0.638506 0.645865 0.575765
v -0.638506 0.645865 0.637958
v -0.700666 0.645865 0.637958
v -0.704708 0.632149 0.571720
v -0.634463 0.632149 0.571720
v -0.634463 0.632149 0.642002
v -0.704708 0.632149 0.642002
v -0.706016 0.618432 0.570412
v -0.633155 0.618432 0.570412
v -0.633155 0.618432 0.643312
v -0.706016 0.618432 0.643312
v -0.706016 0.602550 0.570412
v -0.633155 0.602550 0.570412
v -0.633155 0.602550 0.643312
v -0.706016 0.602550 0.643312
v -0.702785 0.589555 0.573646
v -0.636386 0.589555 0.573646
v -0.636386 0.589555 0.640078
v -0.702785 0.589555 0.640078
v -0.695863 0.576562 0.580570
v -0.643308 0.576562 0.580570
v -0.643308 0.576562 0.633152
v -0.695863 0.576562 0.633152
v -0.687870 0.565010 0.588568
v -0.651301 0.565010 0.588568
v -0.651301 0.565010 0.625156
v -0.687870 0.565010 0.625156
v -0.694409 0.551294 0.582024
v -0.644761 0.551294 0.582025
v -0.644761 0.551294 0.631698
v -0.694409 0.551294 0.631698
v -0.700158 0.535412 0.576272
v -0.639013 0.535412 0.576272
v -0.639013 0.535412 0.637450
v -0.700158 0.535412 0.637450
v -0.703397 0.517364 0.573032
v -0.635774 0.517364 0.573032
v -0.635774 0.517364 0.640691
v -0.703397 0.517364 0.640691
v -0.703397 0.498594 0.573032
v -0.635774 0.498594 0.573032
v -0.635774 0.498594 0.640691
v -0.703397 0.498594 0.640691
v -0.700801 0.479825 0.575629
v -0.638369 0.479825 0.575629
v -0.638369 0.479825 0.638094
v -0.700801 0.479825 0.638094
v -0.694398 0.461777 0.582036
v -0.644773 0.461777 0.582036
v -0.644773 0.461777 0.631687
v -0.694398 0.461777 0.631687
v -0.687475 0.444312 0.588962
v -0.651696 0.444312 0.588962
v -0.651696 0.444312 0.624761
v -0.687475 0.444312 0.624761
v -0.694204 0.429342 0.582230
v -0.644968 0.429342 0.582230
v -0.644968 0.429342 0.631493
v -0.694204 0.429342 0.631493
v -0.697718 0.413125 0.578714
v -0.641453 0.413125 0.578714
v -0.641453 0.413125 0.635009
v -0.697718 0.413125 0.635009
v -0.699600 0.395798 0.576832
v -0.639571 0.395798 0.576832
v -0.639571 0.395798 0.636892
v -0.699600 0.395798 0.636892
v -0.701197 0.378473 0.575233
v -0.637974 0.378473 0.575233
v -0.637974 0.378473 0.638490
v -0.701197 0.378473 0.638490
v -0.698392 0.358259 0.578040
v -0.640780 0.358259 0.578040
v -0.640780 0.358259 0.635683
v -0.698392 0.358259 0.635683
v -0.696136 0.339490 0.580297
v -0.643036 0.339490 0.580297
v -0.643036 0.339490 0.633426
v -0.696136 0.339490 0.633426
v -0.690678 0.320719 0.585758
v -0.648493 0.320719 0.585758
v -0.648493 0.320719 0.627965
v -0.690678 0.320719 0.627965
v -0.697448 0.309966 0.578983
v -0.641723 0.309966 0.578983
v -0.641723 0.309966 0.634739
v -0.697448 0.309966 0.634739
v -0.692658 0.296968 0.583777
v -0.646513 0.296968 0.583777
v -0.646513 0.296968 0.629946
v -0.692658 0.296968 0.629946
v -0.692658 0.286409 0.583777
v -0.646513 0.286409 0.583777
v -0.646513 0.286409 0.629946
v -0.692658 0.286409 0.629946
v -0.703788 0.280633 0.572641
v -0.635383 0.280633 0.572641
v -0.635383 0.280633 0.641082
v -0.703788 0.280633 0.641082
v -0.703788 0.147800 0.572641
v -0.635383 0.147800 0.572641
v -0.635383 0.147800 0.641082
v -0.703788 0.147800 0.641082
v -0.694146 0.141967 0.582288
v -0.645025 0.141967 0.582288
v -0.645025 0.141967 0.631435
v -0.694146 0.141967 0.631435
v -0.687433 0.131138 0.589004
v -0.651738 0.131138 0.589004
v -0.651738 0.131138 0.624719
v -0.687433 0.131138 0.624719
v -0.692351 0.118144 0.584084
v -0.646820 0.118144 0.584084
v -0.646820 0.118144 0.629639
v -0.692351 0.118144 0.629639
v -0.692351 0.104428 0.584084
v -0.646820 0.104428 0.584084
v -0.646820 0.104428 0.629639
v -0.692351 0.104428 0.629639
v -0.704536 0.000472 0.571892
v -0.634636 0.000472 0.571894
v -0.634636 0.000472 0.641830
v -0.704536 0.000472 0.641830
v -0.727414 0.794489 0.560396
v -0.623146 0.794489 0.560396
v -0.623146 0.794489 0.663864
v -0.727414 0.794489 0.663864
v -0.635383 0.256914 0.641082
v -0.635383 0.171276 0.641082
v -0.703788 0.171276 0.641082
v -0.703788 0.256914 0.641082
v -0.703788 0.171276 0.572641
v -0.703788 0.256914 0.572641
v -0.635383 0.171276 0.572641
v -0.635383 0.256914 0.572641
v -0.228760 0.240574 0.633985
v -0.221675 0.187616 0.633413
v -0.221675 0.187616 0.587257
v -0.228760 0.240574 0.585946
v -0.635383 0.240574 0.633985
v -0.635383 0.187616 0.633413
v -0.635383 0.187616 0.587257
v -0.635383 0.240574 0.585946
v -0.207397 0.789042 0.470220
v -0.207397 0.685105 0.470220
v -0.130884 0.685105 0.470220
v -0.130883 0.789042 0.470220
v -0.716026 0.685105 0.470220
v -0.716026 0.789042 0.470220
v -0.623146 0.789042 0.470220
v -0.623146 0.685105 0.470220
v -0.035311 1.498098 0.583261
v -0.027428 1.589270 0.589871
v -0.068396 1.589270 0.589871
v -0.082376 1.498098 0.583261
v -0.082376 1.498094 0.384707
v -0.035311 1.498098 0.384707
v -0.082376 1.498096 0.468017
v -0.035311 1.498098 0.468017
v -0.094228 0.930852 0.385274
v -0.024751 1.356282 0.385274
v -0.101266 1.356282 0.385274
v -0.170742 0.930852 0.385274
v -0.101266 1.356282 0.470220
v -0.170742 0.930852 0.470220
v -0.094226 0.930852 0.470220
v -0.024750 1.356282 0.470220
v -0.027428 1.589270 0.472423
v -0.027428 1.589270 0.386910
v -0.068396 1.589270 0.472423
v -0.068396 1.589270 0.386910
v -0.404353 0.240574 0.633985
v -0.465512 0.240574 0.633985
v -0.465512 0.240574 0.585946
v -0.404353 0.240574 0.585946
v -0.404353 0.187616 0.633413
v -0.465512 0.187616 0.633413
v -0.404353 0.187616 0.587257
v -0.465512 0.187616 0.587257
v -0.459450 0.235325 0.575112
v -0.410416 0.235325 0.575112
v -0.410416 0.192866 0.576164
v -0.459450 0.192866 0.576164
v -0.453554 0.230220 0.552355
v -0.416311 0.230220 0.552355
v -0.416311 0.197971 0.553154
v -0.453554 0.197971 0.553154
v -0.168775 0.342234 0.084775
v -0.166781 0.415170 0.086555
v -0.155389 0.415173 0.086555
v -0.157384 0.342243 0.084775
v -0.236871 0.342230 -0.004425
v -0.235096 0.415181 -0.005428
v -0.235097 0.415172 0.004178
v -0.236871 0.342236 0.004954
v -0.166780 0.415182 -0.005428
v -0.168775 0.342231 -0.004425
v -0.157384 0.342243 -0.004425
v -0.155389 0.415173 -0.005428
v -0.236871 0.342237 0.084775
v -0.235097 0.415174 0.086555
v -0.157384 0.342242 0.004954
v -0.155389 0.415172 0.004178
v -0.166781 0.415170 0.567743
v -0.168775 0.342234 0.569523
v -0.157384 0.342243 0.569523
v -0.155389 0.415173 0.567743
v -0.235096 0.415181 0.659726
v -0.236871 0.342230 0.658723
v -0.236871 0.342236 0.649343
v -0.235097 0.415172 0.650120
v -0.168775 0.342231 0.658723
v -0.166780 0.415182 0.659726
v -0.155389 0.415173 0.659726
v -0.157384 0.342243 0.658723
v -0.235097 0.415174 0.567743
v -0.236871 0.342237 0.569523
v -0.155389 0.415172 0.650120
v -0.157384 0.342242 0.649343
vn -0.9997 -0.0235 -0.0000
vn -0.9997 -0.0234 -0.0000
vn -0.0000 0.0625 0.9980
vn -0.0000 -1.0000 -0.0000
vn -0.0000 1.0000 -0.0000
vn -0.0000 -0.0000 -1.0000
vn 1.0000 -0.0000 -0.0000
vn -0.0000 -0.0040 1.0000
vn 0.0004 -0.9997 0.0227
vn 0.0001 -0.9992 0.0394
vn -0.0000 0.1122 0.9937
vn -0.0000 -0.0000 1.0000
vn -0.0000 -0.1604 0.9870
vn -1.0000 -0.0000 -0.0000
vn -1.0000 0.0001 -0.0000
vn -1.0000 0.0001 0.0001
vn -0.0000 0.0548 -0.9985
vn -0.0000 0.0773 0.9970
vn -0.0000 0.0774 0.9970
vn -0.0000 0.0408 -0.9992
vn -0.0000 0.0273 -0.9996
vn -0.0000 0.0272 -0.9996
vn -0.0000 -0.0825 -0.9966
vn -0.0000 0.0723 0.9974
vn -0.0000 0.0134 -0.9999
vn -0.0000 -0.0141 -0.9999
vn -0.0000 -0.0140 -0.9999
vn -0.9786 0.2057 -0.0000
vn -0.9786 0.2057 -0.0011
vn -0.9951 -0.0985 -0.0000
vn -0.9951 -0.0984 -0.0000
vn -0.9912 -0.1326 -0.0000
vn -0.9912 -0.1326 -0.0004
vn -0.0000 0.0484 0.9988
vn -0.0000 0.0236 0.9997
vn -0.0000 0.0235 0.9997
vn -0.0000 -0.0248 0.9997
vn -0.0000 0.0779 -0.9970
vn -0.0000 0.0778 -0.9970
vn -0.9997 -0.0232 -0.0000
vn -0.9788 -0.2048 -0.0000
vn -0.9686 0.2488 -0.0000
vn -0.0000 0.1630 -0.9866
vn -0.0000 0.0133 -0.9999
vn -0.0000 0.0173 -0.9999
vn -0.9752 0.2215 -0.0000
vn -0.9865 0.1639 -0.0000
vn -0.9852 0.1713 -0.0000
vn -0.0000 -0.1261 0.9920
vn -0.0000 -0.0817 -0.9967
vn -0.0000 0.0259 0.9997
vn -0.0000 0.0306 0.9995
vn 0.9963 -0.0861 -0.0000
vn 0.9918 -0.1281 -0.0000
vn 0.9904 -0.1383 -0.0000
vn 0.9796 -0.2009 -0.0000
vn 0.9926 -0.1216 -0.0000
vn 0.9996 0.0280 -0.0000
vn 0.9939 0.1103 -0.0003
vn 0.9939 0.1103 -0.0000
vn 0.9816 -0.1912 -0.0000
vn 0.9812 -0.1930 -0.0000
vn 0.9812 -0.1930 0.0013
vn 0.9876 0.1569 -0.0000
vn 0.6037 -0.7972 -0.0000
vn 0.6038 -0.7972 -0.0000
vn -0.8421 -0.5394 -0.0000
vn -0.0000 -0.7974 -0.6035
vn -0.0000 -0.7973 -0.6035
vn -0.6037 -0.7972 -0.0000
vn -0.0000 -0.7973 0.6035
vn -0.0000 -0.7973 0.6036
vn 0.8527 0.5224 -0.0000
vn 0.8527 0.5223 -0.0000
vn -0.0000 -0.5396 0.8419
vn 0.8421 -0.5393 -0.0000
vn -0.0000 -0.5396 -0.8419
vn -0.9592 0.2827 -0.0000
vn -0.9592 0.2826 -0.0000
vn -0.0000 0.5226 -0.8526
vn -0.0000 0.5225 -0.8526
vn -0.8527 0.5224 -0.0000
vn -0.0000 0.5226 0.8526
vn -0.0000 0.5225 0.8526
vn -0.9955 0.0949 -0.0000
vn -0.0000 0.2828 0.9592
vn 0.9592 0.2826 -0.0000
vn -0.0000 0.2828 -0.9592
vn 1.0000 -0.0001 -0.0000
vn -0.0000 0.0950 0.9955
vn -0.0000 0.0950 -0.9955
vn -0.9704 -0.2413 -0.0000
vn -0.9704 -0.2414 -0.0000
vn -0.0000 -0.0001 -1.0000
vn -0.0000 -0.0001 1.0000
vn -0.0000 -0.4702 0.8826
vn -0.0000 -0.4703 0.8825
vn 0.9704 -0.2414 -0.0000
vn -0.0000 -0.2415 -0.9704
vn 0.8223 -0.5690 -0.0000
vn -0.0000 -0.4703 -0.8825
vn -0.8826 -0.4701 -0.0000
vn -0.9027 0.4303 -0.0000
vn -0.0000 -0.5692 -0.8222
vn -0.8223 -0.5690 -0.0000
vn -0.0000 -0.5693 0.8222
vn 0.9403 0.3404 -0.0000
vn 0.9403 0.3403 -0.0000
vn -0.0000 0.4306 0.9026
vn -0.0000 0.4305 0.9026
vn 0.9026 0.4304 -0.0000
vn -0.0000 0.4305 -0.9026
vn -0.0000 0.1767 -0.9843
vn -0.9403 0.3404 -0.0000
vn -0.9403 0.3403 -0.0000
vn -0.0000 0.3404 0.9403
vn -0.0000 0.1767 0.9843
vn 0.9843 0.1767 -0.0000
vn 0.9906 -0.1370 -0.0000
vn -0.9424 -0.3344 -0.0000
vn -0.0000 -0.1371 -0.9906
vn -0.0000 -0.1371 0.9906
vn -0.9296 -0.3685 -0.0000
vn -0.0000 -0.3345 0.9424
vn 0.9424 -0.3344 -0.0000
vn -0.0000 -0.3345 -0.9424
vn 0.9121 0.4099 -0.0000
vn -0.0000 -0.3687 0.9296
vn 0.9296 -0.3685 -0.0000
vn -0.0000 -0.3687 -0.9296
vn -0.9773 0.2118 -0.0000
vn -0.0000 0.4101 -0.9120
vn -0.0000 0.4100 -0.9121
vn -0.9121 0.4099 -0.0000
vn -0.0000 0.4101 0.9120
vn -0.0000 0.4100 0.9121
vn -0.0000 0.1080 0.9942
vn 0.9773 0.2118 -0.0000
vn -0.0000 0.2119 -0.9773
vn -0.9958 0.0918 -0.0000
vn -0.9958 0.0917 -0.0000
vn 0.9942 0.1080 -0.0000
vn -0.0000 0.1080 -0.9942
vn -0.9905 -0.1375 -0.0000
vn -0.0000 0.0918 0.9958
vn 0.9958 0.0917 -0.0000
vn -0.0000 0.0918 -0.9958
vn 0.9929 -0.1193 -0.0000
vn -0.0000 -0.1375 0.9905
vn -0.0000 -0.1375 -0.9905
vn 0.9602 -0.2792 -0.0000
vn -0.0000 -0.1194 -0.9928
vn -0.9929 -0.1193 -0.0000
vn -0.0000 -0.1194 0.9928
vn -0.8462 0.5328 -0.0000
vn -0.0000 -0.2794 -0.9602
vn -0.9602 -0.2792 -0.0000
vn -0.0000 -0.2794 0.9602
vn -0.0000 0.5331 0.8461
vn 0.8462 0.5328 -0.0000
vn -0.0000 0.5330 -0.8461
vn -0.0000 -0.3460 0.9382
vn -0.0000 -0.3459 0.9383
vn -0.9383 -0.3458 -0.0000
vn -0.0000 -0.3460 -0.9383
vn -0.0000 -0.3459 -0.9383
vn 0.9383 -0.3458 -0.0000
vn 0.4606 0.8876 -0.0000
vn -0.0000 0.8877 -0.4604
vn -0.4606 0.8876 -0.0000
vn -0.0000 0.8877 0.4604
vn -0.5176 -0.8556 -0.0000
vn -0.5177 -0.8556 -0.0000
vn 0.8499 -0.5270 -0.0000
vn 0.8499 -0.5269 -0.0000
vn -0.0000 -0.8557 0.5174
vn -0.0000 -0.8557 0.5175
vn 0.5176 -0.8556 -0.0000
vn -0.0000 -0.8557 -0.5174
vn -0.0000 -0.8557 -0.5175
vn -0.0000 0.3541 -0.9352
vn -0.0000 0.3540 -0.9352
vn -0.0000 -0.5271 -0.8498
vn -0.8499 -0.5269 -0.0000
vn -0.0000 -0.5271 0.8498
vn -0.9353 0.3539 -0.0000
vn -0.0000 0.3541 0.9352
vn -0.0001 0.3540 0.9352
vn -0.0000 0.3540 0.9352
vn 0.9353 0.3539 -0.0000
vn 0.9353 0.3538 -0.0000
vn 0.9932 0.1164 -0.0000
vn -0.0000 0.1165 -0.9932
vn -0.9932 0.1164 -0.0000
vn -0.0000 0.1165 0.9932
vn -0.0000 1.0000 0.0001
vn -0.0000 -0.0108 -0.9999
vn -0.0000 -1.0000 0.0001
vn 0.9991 0.0428 -0.0000
vn -0.9884 0.1516 -0.0000
vn 0.0001 -1.0000 -0.0000
vn -0.9912 0.1320 -0.0000
vn -0.9899 0.1417 -0.0000
vn -0.9894 0.1450 -0.0000
vn 0.9972 0.0742 -0.0000
vn 0.9973 0.0734 -0.0000
vn -0.0000 0.0155 -0.9999
vn -0.0000 -0.9992 -0.0402
vn -0.0000 -0.9997 -0.0231
vn 0.9682 -0.2503 -0.0000
vn -0.9682 0.2503 -0.0000
vn -0.8751 -0.0120 0.4839
vn -0.8751 -0.0120 0.4838
vn 0.9683 -0.0062 0.2496
vn 0.9684 -0.0062 0.2494
vn -0.0000 -0.9039 0.4277
vn -0.0000 0.8999 0.4361
vn 0.8750 -0.0120 0.4839
vn -1.0000 -0.0000 0.0001
vn -1.0000 -0.0000 -0.0001
vn -0.0000 0.9758 0.2188
vn -0.0000 -0.9763 0.2165
vn -0.0000 -0.9763 -0.2165
vn 0.9684 -0.0062 -0.2494
vn -0.0000 0.9758 -0.2188
vn -0.0000 0.0625 -0.9980
vn -0.0000 -0.0040 -1.0000
vn 0.0001 -0.9992 -0.0394
vn 0.0001 -0.9997 -0.0227
vn -0.0000 0.1122 -0.9937
vn -0.0000 -0.1604 -0.9870
vn -0.0000 0.0548 0.9985
vn -0.0000 0.0773 -0.9970
vn -0.0000 0.0774 -0.9970
vn -0.0000 0.0408 0.9992
vn -0.0000 0.0273 0.9996
vn -0.0000 -0.0825 0.9966
vn -0.0000 0.0723 -0.9974
vn -0.0000 0.0134 0.9999
vn -0.0000 -0.0141 0.9999
vn -0.0000 -0.0140 0.9999
vn -0.9786 0.2056 -0.0000
vn -0.9786 0.2056 0.0014
vn -0.9912 -0.1326 0.0005
vn -0.0000 0.0484 -0.9988
vn -0.0000 0.0235 -0.9997
vn -0.0000 -0.0248 -0.9997
vn -0.0000 0.0778 0.9970
vn -0.0000 0.1630 0.9866
vn -0.0000 0.0135 0.9999
vn -0.0000 0.0173 0.9998
vn -0.9865 0.1638 -0.0000
vn -0.0000 -0.1261 -0.9920
vn -0.0000 -0.0817 0.9967
vn -0.0000 0.0259 -0.9997
vn -0.0000 0.0306 -0.9995
vn 0.9904 -0.1383 -0.0003
vn 0.9812 -0.1930 -0.0017
vn -0.0000 -0.7974 0.6035
vn -0.0000 -0.5395 -0.8420
vn -0.9592 0.2828 -0.0000
vn -0.0000 -0.4702 -0.8825
vn 0.9704 -0.2415 -0.0000
vn -0.0000 -0.2415 0.9704
vn -0.0000 -0.5692 0.8222
vn -0.0000 -0.5693 -0.8222
vn -0.0000 0.4306 -0.9026
vn -0.0000 0.3404 -0.9403
vn -0.0000 0.1766 -0.9843
vn -0.0000 0.2119 0.9773
vn -0.0000 -0.1376 0.9905
vn -0.0000 0.5331 -0.8461
vn -0.0000 0.5330 0.8461
vn -0.0000 -0.3460 -0.9382
vn -0.0000 -0.3460 0.9383
vn -0.0000 1.0000 -0.0001
vn -0.0000 -0.0108 0.9999
vn -0.0000 -1.0000 -0.0001
vn -0.9894 0.1451 -0.0000
vn -0.9912 0.1321 -0.0000
vn 0.9972 0.0742 -0.0005
vn 0.9963 -0.0856 -0.0000
vn 0.9942 -0.1079 -0.0000
vn -0.0000 0.0155 0.9999
vn -0.0002 -0.9997 0.0231
vn -0.0000 -0.9992 0.0402
vn -0.8751 -0.0120 -0.4839
vn -0.8751 -0.0120 -0.4838
vn 0.9683 -0.0062 -0.2496
vn -0.0000 -0.9039 -0.4277
vn -0.0000 0.8999 -0.4361
vn 0.8751 -0.0120 -0.4839
vn -0.0000 -0.0209 0.9998
vn -0.0000 -0.0284 0.9996
vn -0.0000 -0.0277 0.9996
vn -0.0000 -0.0206 0.9998
vn -0.0000 -0.0281 0.9996
vn 0.9972 -0.0753 -0.0000
vn 0.9999 0.0150 -0.0000
vn 0.9999 0.0154 -0.0000
vn 0.9972 -0.0748 -0.0000
vn -0.0000 -0.0118 -0.9999
vn -0.0000 -0.0156 -0.9999
vn -0.0000 -0.0161 -0.9999
vn -0.9968 0.0794 -0.0000
vn -0.9997 -0.0254 -0.0000
vn -0.9997 -0.0253 -0.0000
vn -0.9968 0.0795 -0.0000
vn -0.9997 -0.0249 -0.0000
vn -0.9968 0.0800 -0.0000
vn -0.0000 -0.0158 -0.9999
vn -0.0000 -0.0284 -0.9996
vn -0.0000 -0.0209 -0.9998
vn -0.0000 -0.0210 -0.9998
vn -0.0000 -0.0277 -0.9996
vn 0.9999 0.0151 -0.0000
vn 0.9972 -0.0748 -0.0001
vn -0.0000 -0.0156 0.9999
vn -0.0000 -0.0118 0.9999
vn -0.0000 -0.0162 0.9999
vn -0.0000 -0.0158 0.9999
vt 0.645288 0.113763
vt 0.645288 0.136173
vt 0.678099 0.137470
vt 0.678099 0.111217
vt 0.017908 0.453162
vt 0.017770 0.453532
vt 0.016932 0.453325
vt 0.017083 0.453014
vt 0.315555 0.049379
vt 0.341808 0.049379
vt 0.341808 0.072687
vt 0.315555 0.072687
vt 0.575913 0.605616
vt 0.575913 0.574439
vt 0.735156 0.574439
vt 0.735156 0.605616
vt 0.575913 0.541341
vt 0.575913 0.507233
vt 0.735156 0.507233
vt 0.735156 0.541341
vt 0.735747 0.647290
vt 0.735747 0.678467
vt 0.576504 0.678467
vt 0.576504 0.647290
vt 0.735747 0.711565
vt 0.735747 0.745673
vt 0.576504 0.745673
vt 0.576504 0.711565
vt 0.576504 0.604622
vt 0.735747 0.604622
vt 0.735156 0.648284
vt 0.575913 0.648284
vt 0.961561 0.672318
vt 0.808968 0.672318
vt 0.808968 0.632508
vt 0.961561 0.632508
vt 0.825330 0.068904
vt 0.825330 0.108705
vt 0.780814 0.108705
vt 0.780814 0.068904
vt 0.419963 0.219492
vt 0.380265 0.222484
vt 0.379937 0.218133
vt 0.419635 0.215141
vt 0.857859 0.068904
vt 0.857859 0.108705
vt 0.547197 0.647290
vt 0.547197 0.604622
vt 0.546606 0.605616
vt 0.546606 0.648284
vt 0.944899 0.325797
vt 0.915592 0.325794
vt 0.919633 0.380115
vt 0.937660 0.380115
vt 0.547197 0.711565
vt 0.547197 0.678467
vt 0.036269 0.069998
vt 0.036269 0.068043
vt 0.031906 0.068043
vt 0.031906 0.069998
vt 0.422165 0.248716
vt 0.382467 0.251708
vt 0.253701 0.429973
vt 0.253559 0.439200
vt 0.115453 0.456521
vt 0.115523 0.449287
vt 0.414037 0.140309
vt 0.374226 0.140309
vt 0.374226 0.144345
vt 0.414037 0.144346
vt 0.651092 0.229225
vt 0.649614 0.209619
vt 0.682041 0.202747
vt 0.683792 0.225990
vt 0.345019 0.049379
vt 0.345019 0.072687
vt 0.606638 0.437189
vt 0.606696 0.394560
vt 0.678099 0.396252
vt 0.678077 0.446845
vt 0.109975 0.204779
vt 0.067992 0.204319
vt 0.067664 0.199968
vt 0.109647 0.200428
vt 0.645288 0.138881
vt 0.678099 0.140681
vt 0.345019 0.077051
vt 0.341808 0.077051
vt 0.157201 0.207293
vt 0.156873 0.202942
vt 0.616922 0.213803
vt 0.616594 0.209453
vt 0.649346 0.206063
vt 0.018498 0.454312
vt 0.018403 0.454610
vt 0.017696 0.453619
vt 0.318586 0.210292
vt 0.318914 0.214643
vt 0.584484 0.219897
vt 0.584156 0.215546
vt 0.479926 0.143430
vt 0.479926 0.139599
vt 0.578683 0.138535
vt 0.578683 0.142055
vt 0.611777 0.141597
vt 0.611777 0.138180
vt 0.024375 0.454577
vt 0.024290 0.455241
vt 0.036269 0.056119
vt 0.031906 0.056119
vt 0.681713 0.198397
vt 0.053935 0.452978
vt 0.053812 0.453829
vt 0.115873 0.387618
vt 0.254084 0.375463
vt 0.464147 0.425074
vt 0.464349 0.370017
vt 0.535139 0.379613
vt 0.534999 0.433253
vt 0.488050 0.249899
vt 0.486112 0.224186
vt 0.586405 0.245383
vt 0.618787 0.238541
vt 0.479926 0.106340
vt 0.414037 0.104715
vt 0.578683 0.108779
vt 0.584997 0.132901
vt 0.584997 0.114500
vt 0.611777 0.109592
vt 0.050458 0.068043
vt 0.050458 0.056119
vt 0.050458 0.069998
vt 0.534962 0.442694
vt 0.464094 0.434482
vt 0.059795 0.135321
vt 0.059795 0.116246
vt 0.024517 0.118384
vt 0.024517 0.130308
vt 0.059794 0.137908
vt 0.024517 0.132262
vt 0.069403 0.223046
vt 0.034209 0.216896
vt 0.033143 0.202747
vt 0.321016 0.242540
vt 0.158980 0.230899
vt 0.111596 0.226293
vt 0.312100 0.139678
vt 0.312100 0.143531
vt 0.149668 0.140899
vt 0.149668 0.137638
vt 0.102078 0.136645
vt 0.102078 0.139616
vt 0.374227 0.104715
vt 0.312101 0.106283
vt 0.149669 0.110944
vt 0.102079 0.113217
vt 0.032815 0.198397
vt 0.315555 0.077051
vt 0.606622 0.444926
vt 0.678099 0.456322
vt 0.485784 0.219835
vt 0.066916 0.450835
vt 0.066876 0.453958
vt 0.066970 0.444653
vt 0.054161 0.447445
vt 0.024543 0.450934
vt 0.018573 0.452398
vt 0.018395 0.452958
vt 0.017968 0.453196
vt 0.016863 0.453423
vt 0.103286 0.311996
vt 0.103286 0.309024
vt 0.061335 0.310731
vt 0.061335 0.313319
vt 0.150562 0.311004
vt 0.150562 0.307743
vt 0.312420 0.305114
vt 0.312420 0.308967
vt 0.374265 0.308338
vt 0.374265 0.304301
vt 0.103286 0.335423
vt 0.061335 0.332393
vt 0.150562 0.337697
vt 0.312420 0.342362
vt 0.374265 0.343932
vt 0.026911 0.318331
vt 0.026911 0.330255
vt 0.612071 0.307049
vt 0.612071 0.310466
vt 0.644886 0.312473
vt 0.644886 0.309765
vt 0.579069 0.306591
vt 0.579069 0.310111
vt 0.480385 0.309047
vt 0.480385 0.305217
vt 0.414075 0.304301
vt 0.414075 0.308338
vt 0.612071 0.339054
vt 0.644886 0.334883
vt 0.579069 0.339868
vt 0.414075 0.343932
vt 0.480385 0.342306
vt 0.678099 0.337429
vt 0.678099 0.311176
vt 0.678099 0.307965
vt 0.026911 0.316377
vt 0.118280 0.870436
vt 0.142188 0.845957
vt 0.143388 0.853857
vt 0.126174 0.874452
vt 0.771322 0.678467
vt 0.771322 0.647290
vt 0.771322 0.604622
vt 0.495071 0.606981
vt 0.534881 0.606980
vt 0.534881 0.649648
vt 0.495071 0.649648
vt 0.534881 0.575803
vt 0.495071 0.575803
vt 0.540149 0.763796
vt 0.779683 0.763796
vt 0.779683 0.990766
vt 0.540149 0.990766
vt 0.770731 0.605616
vt 0.770731 0.648284
vt 0.770731 0.574439
vt 0.076658 0.881905
vt 0.081442 0.885246
vt 0.027544 0.901274
vt 0.019376 0.900811
vt 0.108752 0.937095
vt 0.112888 0.943096
vt 0.073857 0.925772
vt 0.079502 0.923197
vt 0.540780 0.763796
vt 0.778474 0.763796
vt 0.778474 0.990766
vt 0.540780 0.990766
vt 0.110538 0.906446
vt 0.105673 0.906445
vt 0.113620 0.875444
vt 0.121592 0.940837
vt 0.117700 0.906953
vt 0.128406 0.907655
vt 0.131123 0.936448
vt 0.135588 0.971534
vt 0.137536 0.962993
vt 0.134868 0.879740
vt 0.145658 0.858414
vt 0.150266 0.857781
vt 0.143032 0.881190
vt 0.140108 0.958734
vt 0.139534 0.935949
vt 0.138588 0.908264
vt 0.144868 0.908564
vt 0.145663 0.935161
vt 0.144532 0.959744
vt 0.150093 0.908839
vt 0.150749 0.934510
vt 0.150438 0.960345
vt 0.156130 0.857715
vt 0.148611 0.882614
vt 0.153564 0.883800
vt 0.161536 0.858728
vt 0.167593 0.860692
vt 0.158996 0.885038
vt 0.155797 0.959908
vt 0.156216 0.933768
vt 0.155824 0.909070
vt 0.160915 0.909336
vt 0.160989 0.933247
vt 0.161711 0.958763
vt 0.166527 0.956388
vt 0.166622 0.932659
vt 0.171456 0.952412
vt 0.172146 0.863693
vt 0.163601 0.886135
vt 0.169424 0.887596
vt 0.176571 0.868209
vt 0.180591 0.872972
vt 0.175467 0.889001
vt 0.167305 0.909298
vt 0.174122 0.932103
vt 0.174944 0.910609
vt 0.181705 0.910803
vt 0.181816 0.931543
vt 0.175114 0.949396
vt 0.183556 0.889884
vt 0.184735 0.871921
vt 0.190575 0.870055
vt 0.189777 0.890329
vt 0.181074 0.951971
vt 0.188649 0.910768
vt 0.195780 0.890656
vt 0.195055 0.910932
vt 0.188686 0.931803
vt 0.187547 0.954338
vt 0.194879 0.931885
vt 0.201026 0.910969
vt 0.200896 0.931749
vt 0.194675 0.955719
vt 0.196981 0.869134
vt 0.201542 0.890903
vt 0.203408 0.869534
vt 0.209906 0.871056
vt 0.207539 0.891240
vt 0.202039 0.955558
vt 0.207139 0.931638
vt 0.207359 0.911040
vt 0.214492 0.911021
vt 0.214352 0.931475
vt 0.209417 0.953933
vt 0.224313 0.911958
vt 0.223382 0.931208
vt 0.216655 0.950561
vt 0.216203 0.873868
vt 0.214664 0.891779
vt 0.222618 0.891992
vt 0.222382 0.876657
vt 0.228061 0.873310
vt 0.230782 0.892173
vt 0.222588 0.947952
vt 0.231312 0.931901
vt 0.231502 0.911910
vt 0.238336 0.911892
vt 0.237685 0.932549
vt 0.227616 0.950894
vt 0.233708 0.953526
vt 0.244011 0.933114
vt 0.240307 0.955533
vt 0.233913 0.871005
vt 0.237270 0.891549
vt 0.244873 0.911846
vt 0.251133 0.911785
vt 0.250313 0.933693
vt 0.240199 0.869250
vt 0.243613 0.890921
vt 0.259222 0.911696
vt 0.258052 0.934080
vt 0.247204 0.957350
vt 0.246731 0.867568
vt 0.249874 0.890294
vt 0.257136 0.889728
vt 0.254715 0.867531
vt 0.262045 0.867208
vt 0.264944 0.889136
vt 0.255714 0.957394
vt 0.270003 0.867828
vt 0.274464 0.887783
vt 0.267815 0.911562
vt 0.265839 0.934496
vt 0.263279 0.957499
vt 0.275651 0.935554
vt 0.277526 0.911327
vt 0.283605 0.911148
vt 0.282859 0.935956
vt 0.271690 0.956639
vt 0.278208 0.962254
vt 0.275976 0.862367
vt 0.281391 0.887074
vt 0.290595 0.936533
vt 0.286780 0.960947
vt 0.290686 0.910884
vt 0.288744 0.886110
vt 0.284112 0.863364
vt 0.296644 0.910865
vt 0.296192 0.937214
vt 0.293893 0.885455
vt 0.287816 0.862453
vt 0.293597 0.854274
vt 0.301074 0.885190
vt 0.291240 0.961776
vt 0.342234 0.907062
vt 0.342363 0.883255
vt 0.351197 0.883795
vt 0.350569 0.905605
vt 0.301942 0.910605
vt 0.303704 0.936914
vt 0.297863 0.970178
vt 0.355751 0.927682
vt 0.355474 0.905522
vt 0.361056 0.925776
vt 0.347820 0.931145
vt 0.362575 0.959620
vt 0.373274 0.952949
vt 0.348688 0.854217
vt 0.361635 0.859350
vt 0.355358 0.884963
vt 0.364237 0.865077
vt 0.367568 0.869189
vt 0.361573 0.886116
vt 0.375271 0.944179
vt 0.360717 0.904847
vt 0.368555 0.887206
vt 0.367549 0.904280
vt 0.367491 0.923367
vt 0.377651 0.938103
vt 0.372855 0.920699
vt 0.372774 0.903536
vt 0.377596 0.918067
vt 0.384221 0.936166
vt 0.372998 0.868782
vt 0.373502 0.888184
vt 0.379244 0.870405
vt 0.424212 0.899585
vt 0.394775 0.897270
vt 0.389286 0.932246
vt 0.395159 0.903448
vt 0.392222 0.900768
vt 0.778435 0.985442
vt 0.540740 0.985442
vt 0.540740 0.769086
vt 0.778435 0.769086
vt 0.305938 0.852527
vt 0.309907 0.883431
vt 0.316162 0.880577
vt 0.336659 0.880387
vt 0.314756 0.936548
vt 0.313842 0.971534
vt 0.311949 0.909508
vt 0.879357 0.974231
vt 0.879357 0.992632
vt 0.814292 0.992632
vt 0.814292 0.974231
vt 0.605462 0.115002
vt 0.605462 0.132681
vt 0.086667 0.801499
vt 0.086667 0.781214
vt 0.021602 0.781214
vt 0.021602 0.801499
vt 0.878449 0.756030
vt 0.878449 0.773709
vt 0.813384 0.773709
vt 0.813384 0.756030
vt 0.438139 0.782511
vt 0.437777 0.797122
vt 0.484631 0.798283
vt 0.484993 0.783672
vt 0.770731 0.541341
vt 0.314531 0.859243
vt 0.339615 0.860892
vt 0.534881 0.542705
vt 0.495071 0.542705
vt 0.771322 0.711565
vt 0.546606 0.574439
vt 0.546605 0.541341
vt 0.892391 0.068905
vt 0.892390 0.108705
vt 0.825097 0.384344
vt 0.825976 0.419453
vt 0.803068 0.419497
vt 0.803066 0.384540
vt 0.017903 0.453509
vt 0.018357 0.453775
vt 0.206706 0.054777
vt 0.206706 0.070469
vt 0.183815 0.070469
vt 0.183815 0.054777
vt 0.780025 0.418991
vt 0.780869 0.383660
vt 0.802915 0.383660
vt 0.802915 0.418991
vt 0.919633 0.402161
vt 0.937660 0.402161
vt 0.748115 0.328863
vt 0.780651 0.328863
vt 0.748959 0.383661
vt 0.825326 0.329867
vt 0.857860 0.329863
vt 0.857030 0.384332
vt 0.018361 0.453344
vt 0.018362 0.453343
vt 0.018363 0.453331
vt 0.018358 0.453369
vt 0.018361 0.453343
vt 0.857859 0.164793
vt 0.825330 0.164793
vt 0.748115 0.107651
vt 0.780651 0.107651
vt 0.780651 0.163753
vt 0.748115 0.163753
vt 0.985567 0.108532
vt 0.956261 0.108529
vt 0.942216 0.162845
vt 0.971523 0.162848
vt 0.702285 0.418991
vt 0.704817 0.383662
vt 0.747271 0.418991
vt 0.284445 0.054777
vt 0.284445 0.070469
vt 0.239459 0.070469
vt 0.239459 0.054777
vt 0.901213 0.384279
vt 0.903789 0.419361
vt 0.858761 0.419414
vt 0.488901 0.784057
vt 0.486585 0.798620
vt 0.438153 0.797420
vt 0.438515 0.782809
vt 0.434647 0.783949
vt 0.434357 0.795663
vt 0.971845 0.756030
vt 0.971845 0.773709
vt 0.901874 0.773709
vt 0.901874 0.756030
vt 0.177350 0.801499
vt 0.180063 0.781214
vt 0.110093 0.781214
vt 0.110093 0.801499
vt 0.970039 0.974231
vt 0.970039 0.992632
vt 0.902782 0.992632
vt 0.902782 0.974231
vt 0.435023 0.784247
vt 0.434732 0.795961
vt 0.428248 0.794548
vt 0.428468 0.785650
vt 0.899552 0.778410
vt 0.880771 0.778410
vt 0.881679 0.969620
vt 0.900460 0.969620
vt 0.427872 0.794250
vt 0.428093 0.785352
vt 0.303382 0.785352
vt 0.303603 0.794250
vt 0.883937 0.960687
vt 0.898202 0.960687
vt 0.897294 0.787437
vt 0.883029 0.787437
vt 0.897294 0.960570
vt 0.883029 0.960570
vt 0.303978 0.794548
vt 0.303758 0.785650
vt 0.883937 0.788167
vt 0.898202 0.788167
vt 0.645289 0.113846
vt 0.678099 0.111300
vt 0.678099 0.137553
vt 0.645288 0.136255
vt 0.018012 0.455245
vt 0.017208 0.455331
vt 0.017184 0.455647
vt 0.017968 0.455620
vt 0.315347 0.049379
vt 0.315347 0.072687
vt 0.341600 0.072687
vt 0.341600 0.049379
vt 0.575913 0.679462
vt 0.735156 0.679462
vt 0.575913 0.746668
vt 0.575913 0.712560
vt 0.735156 0.712560
vt 0.735156 0.746668
vt 0.735747 0.573444
vt 0.576504 0.573444
vt 0.735747 0.506238
vt 0.735747 0.540346
vt 0.576504 0.540346
vt 0.576504 0.506238
vt 0.809378 0.632545
vt 0.961971 0.632545
vt 0.961971 0.672355
vt 0.809378 0.672355
vt 0.419963 0.219557
vt 0.419635 0.215206
vt 0.379937 0.218198
vt 0.380265 0.222549
vt 0.748286 0.068904
vt 0.748286 0.108705
vt 0.944899 0.327087
vt 0.937660 0.381405
vt 0.919633 0.381405
vt 0.915592 0.327085
vt 0.547197 0.573444
vt 0.547197 0.540346
vt 0.035946 0.069998
vt 0.031583 0.069998
vt 0.031583 0.068044
vt 0.035946 0.068044
vt 0.422165 0.248780
vt 0.382467 0.251773
vt 0.253465 0.438723
vt 0.253612 0.429497
vt 0.115408 0.448763
vt 0.115359 0.455997
vt 0.414037 0.140391
vt 0.414037 0.144428
vt 0.374226 0.144427
vt 0.374226 0.140391
vt 0.651092 0.229290
vt 0.683792 0.226054
vt 0.682041 0.202812
vt 0.649614 0.209684
vt 0.344810 0.072687
vt 0.344810 0.049379
vt 0.606407 0.437458
vt 0.677762 0.447517
vt 0.678099 0.396919
vt 0.606665 0.394831
vt 0.109975 0.204843
vt 0.109647 0.200492
vt 0.067664 0.200033
vt 0.067992 0.204383
vt 0.678099 0.140764
vt 0.645288 0.138964
vt 0.341600 0.077051
vt 0.344810 0.077051
vt 0.157201 0.207357
vt 0.156873 0.203006
vt 0.649346 0.206128
vt 0.616594 0.209517
vt 0.616922 0.213868
vt 0.017912 0.455704
vt 0.018613 0.456638
vt 0.018692 0.456340
vt 0.318914 0.214707
vt 0.318586 0.210357
vt 0.584156 0.215611
vt 0.584484 0.219962
vt 0.479926 0.139681
vt 0.479926 0.143512
vt 0.578683 0.138617
vt 0.611777 0.138263
vt 0.611777 0.141679
vt 0.578683 0.142138
vt 0.024503 0.456989
vt 0.024557 0.456324
vt 0.031583 0.056119
vt 0.035946 0.056119
vt 0.681713 0.198461
vt 0.053863 0.454242
vt 0.053949 0.453392
vt 0.115782 0.387081
vt 0.254029 0.374980
vt 0.464020 0.424876
vt 0.534822 0.433251
vt 0.535139 0.379613
vt 0.464355 0.369820
vt 0.488050 0.249963
vt 0.486112 0.224250
vt 0.586405 0.245447
vt 0.618787 0.238606
vt 0.414037 0.104797
vt 0.479926 0.106423
vt 0.578683 0.108861
vt 0.584997 0.114583
vt 0.584997 0.132983
vt 0.611777 0.109674
vt 0.050135 0.068044
vt 0.050135 0.056119
vt 0.050135 0.069998
vt 0.463944 0.434280
vt 0.534754 0.442687
vt 0.059794 0.135402
vt 0.024516 0.130389
vt 0.024517 0.118465
vt 0.059795 0.116327
vt 0.059794 0.137989
vt 0.024516 0.132344
vt 0.033143 0.202812
vt 0.034210 0.216961
vt 0.069403 0.223111
vt 0.321016 0.242604
vt 0.158980 0.230963
vt 0.111596 0.226358
vt 0.312100 0.143613
vt 0.312100 0.139760
vt 0.149668 0.140981
vt 0.149668 0.137719
vt 0.102078 0.139697
vt 0.102078 0.136726
vt 0.312101 0.106365
vt 0.374227 0.104797
vt 0.149669 0.111026
vt 0.102079 0.113298
vt 0.032815 0.198461
vt 0.315347 0.077051
vt 0.606354 0.445190
vt 0.677698 0.456989
vt 0.485784 0.219899
vt 0.066812 0.453839
vt 0.066810 0.450718
vt 0.066607 0.444544
vt 0.053936 0.447864
vt 0.024556 0.452684
vt 0.018672 0.454430
vt 0.018094 0.455270
vt 0.018520 0.454998
vt 0.017178 0.455740
vt 0.103286 0.311780
vt 0.061335 0.313103
vt 0.061335 0.310516
vt 0.103286 0.308809
vt 0.150562 0.310788
vt 0.150562 0.307527
vt 0.312420 0.304898
vt 0.312420 0.308752
vt 0.374265 0.308122
vt 0.374265 0.304085
vt 0.103286 0.335208
vt 0.061335 0.332178
vt 0.150562 0.337481
vt 0.312420 0.342147
vt 0.374265 0.343716
vt 0.026911 0.330040
vt 0.026911 0.318115
vt 0.612071 0.306834
vt 0.644886 0.309549
vt 0.644886 0.312258
vt 0.612071 0.310251
vt 0.579069 0.306375
vt 0.579069 0.309896
vt 0.414075 0.304085
vt 0.480385 0.305001
vt 0.480385 0.308832
vt 0.414075 0.308122
vt 0.644886 0.334667
vt 0.612071 0.338839
vt 0.579069 0.339652
vt 0.480385 0.342090
vt 0.414075 0.343716
vt 0.678099 0.310960
vt 0.678099 0.337213
vt 0.678099 0.307750
vt 0.026911 0.316161
vt 0.111235 0.948555
vt 0.118433 0.944941
vt 0.133458 0.966154
vt 0.131739 0.973284
vt 0.771322 0.573444
vt 0.534881 0.680826
vt 0.495071 0.680826
vt 0.781482 0.990766
vt 0.541949 0.990766
vt 0.541949 0.763795
vt 0.781482 0.763795
vt 0.770731 0.679462
vt 0.073029 0.933723
vt 0.077834 0.931011
vt 0.107358 0.943385
vt 0.074144 0.891889
vt 0.079254 0.894764
vt 0.028593 0.911167
vt 0.020950 0.910911
vt 0.540820 0.990766
vt 0.540819 0.763795
vt 0.778513 0.763795
vt 0.778514 0.990766
vt 0.103086 0.912912
vt 0.107978 0.883827
vt 0.112262 0.878494
vt 0.107760 0.913334
vt 0.119292 0.882290
vt 0.128294 0.886782
vt 0.125087 0.913646
vt 0.115679 0.913475
vt 0.133523 0.854605
vt 0.134984 0.861758
vt 0.127670 0.940642
vt 0.135771 0.940085
vt 0.140324 0.963241
vt 0.135969 0.962167
vt 0.137348 0.865845
vt 0.136268 0.887552
vt 0.142099 0.888553
vt 0.140220 0.913931
vt 0.134327 0.913794
vt 0.141767 0.864949
vt 0.146950 0.889385
vt 0.145195 0.914033
vt 0.147519 0.864516
vt 0.141335 0.939253
vt 0.145920 0.963933
vt 0.146269 0.938592
vt 0.151706 0.937922
vt 0.157204 0.962340
vt 0.151199 0.963547
vt 0.152702 0.865099
vt 0.152173 0.890325
vt 0.156820 0.891081
vt 0.155563 0.914271
vt 0.150703 0.914194
vt 0.158409 0.866404
vt 0.163001 0.868890
vt 0.167641 0.872942
vt 0.162240 0.891883
vt 0.156274 0.937306
vt 0.161937 0.959991
vt 0.162216 0.936497
vt 0.168474 0.935782
vt 0.171097 0.952055
vt 0.166713 0.956144
vt 0.161793 0.914693
vt 0.169504 0.892720
vt 0.176949 0.893521
vt 0.176026 0.913904
vt 0.169380 0.913810
vt 0.171095 0.876030
vt 0.176539 0.934722
vt 0.183021 0.934793
vt 0.182580 0.956552
vt 0.176416 0.954276
vt 0.176925 0.873800
vt 0.182909 0.914170
vt 0.189316 0.914160
vt 0.189251 0.934853
vt 0.183655 0.893450
vt 0.183203 0.871784
vt 0.189718 0.893503
vt 0.195617 0.893712
vt 0.195319 0.914230
vt 0.190029 0.870728
vt 0.189338 0.957842
vt 0.195241 0.934917
vt 0.201431 0.934780
vt 0.203141 0.956468
vt 0.196206 0.957726
vt 0.196986 0.871129
vt 0.201799 0.893926
vt 0.208569 0.894174
vt 0.209226 0.914488
vt 0.201642 0.914245
vt 0.203923 0.872866
vt 0.217188 0.894789
vt 0.219905 0.914474
vt 0.210568 0.876196
vt 0.208935 0.934558
vt 0.210017 0.953686
vt 0.217339 0.934625
vt 0.225837 0.934538
vt 0.222929 0.954525
vt 0.216797 0.950876
vt 0.215723 0.878361
vt 0.225536 0.894492
vt 0.232179 0.893626
vt 0.233473 0.914333
vt 0.226707 0.914415
vt 0.221830 0.874593
vt 0.228094 0.872060
vt 0.234756 0.870162
vt 0.238726 0.892840
vt 0.232553 0.935180
vt 0.229259 0.956965
vt 0.245005 0.892157
vt 0.246409 0.914168
vt 0.239976 0.914230
vt 0.239120 0.935753
vt 0.236070 0.958766
vt 0.252619 0.891512
vt 0.254867 0.914018
vt 0.241645 0.868416
vt 0.245641 0.936212
vt 0.242828 0.960370
vt 0.253316 0.936698
vt 0.261426 0.937097
vt 0.258947 0.960605
vt 0.250934 0.960325
vt 0.250034 0.868435
vt 0.271418 0.938100
vt 0.267751 0.959764
vt 0.263359 0.913718
vt 0.260506 0.890834
vt 0.257420 0.868308
vt 0.270473 0.889311
vt 0.277753 0.888562
vt 0.278862 0.913245
vt 0.272913 0.913420
vt 0.265556 0.869059
vt 0.271451 0.863705
vt 0.278760 0.938407
vt 0.274666 0.965456
vt 0.279578 0.864710
vt 0.285676 0.887392
vt 0.285617 0.913006
vt 0.286671 0.938910
vt 0.283568 0.963855
vt 0.291343 0.886366
vt 0.291306 0.912779
vt 0.292214 0.939163
vt 0.299930 0.938684
vt 0.294988 0.972887
vt 0.287801 0.964539
vt 0.283480 0.863692
vt 0.339665 0.909863
vt 0.348421 0.910049
vt 0.352745 0.932450
vt 0.343573 0.934614
vt 0.298153 0.911583
vt 0.297071 0.885303
vt 0.288642 0.855374
vt 0.349859 0.887182
vt 0.355351 0.888154
vt 0.353401 0.909298
vt 0.341516 0.885052
vt 0.351394 0.855645
vt 0.362688 0.860338
vt 0.368528 0.957299
vt 0.355252 0.964981
vt 0.356805 0.930746
vt 0.363001 0.928241
vt 0.373096 0.943914
vt 0.370750 0.948804
vt 0.365965 0.868387
vt 0.359393 0.909596
vt 0.366001 0.908869
vt 0.369913 0.925619
vt 0.361311 0.889955
vt 0.369173 0.873848
vt 0.367359 0.891613
vt 0.372600 0.893291
vt 0.371226 0.908570
vt 0.375850 0.874501
vt 0.378614 0.943057
vt 0.374673 0.923785
vt 0.394320 0.910854
vt 0.424212 0.902412
vt 0.383832 0.940371
vt 0.381488 0.877334
vt 0.391799 0.907153
vt 0.393048 0.903953
vt 0.776492 0.991699
vt 0.544479 0.991699
vt 0.544479 0.763512
vt 0.776492 0.763512
vt 0.309558 0.939514
vt 0.308900 0.973284
vt 0.337971 0.938555
vt 0.316446 0.941546
vt 0.302820 0.852307
vt 0.306831 0.884008
vt 0.309289 0.911236
vt 0.879357 0.774623
vt 0.814292 0.774623
vt 0.814292 0.756223
vt 0.879357 0.756223
vt 0.605462 0.115085
vt 0.605462 0.132764
vt 0.086777 0.801083
vt 0.021712 0.801083
vt 0.021712 0.780798
vt 0.086777 0.780798
vt 0.878449 0.991977
vt 0.813384 0.991977
vt 0.813384 0.974298
vt 0.878449 0.974298
vt 0.293335 0.782511
vt 0.246482 0.783672
vt 0.246844 0.798283
vt 0.293697 0.797122
vt 0.770731 0.712560
vt 0.317429 0.964660
vt 0.344293 0.959109
vt 0.534881 0.713924
vt 0.495071 0.713924
vt 0.771322 0.540346
vt 0.546605 0.712560
vt 0.546606 0.679462
vt 0.713754 0.068904
vt 0.713754 0.108705
vt 0.781034 0.384354
vt 0.780160 0.419458
vt 0.018529 0.455815
vt 0.018076 0.455584
vt 0.160925 0.054777
vt 0.160925 0.070469
vt 0.825805 0.418991
vt 0.824961 0.383660
vt 0.857715 0.328863
vt 0.856871 0.383661
vt 0.825179 0.328863
vt 0.780822 0.329870
vt 0.749103 0.384339
vt 0.748284 0.329863
vt 0.018508 0.455391
vt 0.018505 0.455415
vt 0.018509 0.455377
vt 0.018508 0.455389
vt 0.018508 0.455390
vt 0.780814 0.164793
vt 0.748286 0.164793
vt 0.857715 0.107651
vt 0.857715 0.163753
vt 0.825179 0.163753
vt 0.825179 0.107651
vt 0.985567 0.109822
vt 0.971523 0.164138
vt 0.942216 0.164136
vt 0.956261 0.109820
vt 0.903545 0.418991
vt 0.858559 0.418991
vt 0.901013 0.383662
vt 0.083186 0.054777
vt 0.128171 0.054777
vt 0.128171 0.070469
vt 0.083186 0.070469
vt 0.704920 0.384290
vt 0.747375 0.419422
vt 0.702347 0.419372
vt 0.243325 0.784057
vt 0.293711 0.782809
vt 0.294073 0.797420
vt 0.245641 0.798620
vt 0.297118 0.795663
vt 0.296827 0.783949
vt 0.971845 0.991977
vt 0.901874 0.991977
vt 0.901874 0.974298
vt 0.971845 0.974298
vt 0.177459 0.801083
vt 0.110202 0.801083
vt 0.110202 0.780798
vt 0.180173 0.780798
vt 0.970039 0.774623
vt 0.902782 0.774623
vt 0.902782 0.756223
vt 0.970039 0.756223
vt 0.297203 0.784247
vt 0.297493 0.795961
vt 0.880771 0.969597
vt 0.899552 0.969597
vt 0.900460 0.779234
vt 0.881679 0.779234
vt 0.393860 0.420886
vt 0.334068 0.422023
vt 0.334402 0.366275
vt 0.394128 0.364975
vt 0.393781 0.430246
vt 0.333979 0.431327
vt 0.518394 0.341118
vt 0.546339 0.340436
vt 0.546339 0.309863
vt 0.518395 0.309565
vt 0.553988 0.250102
vt 0.526071 0.251524
vt 0.524104 0.225431
vt 0.552027 0.224093
vt 0.517975 0.142760
vt 0.545926 0.142376
vt 0.545923 0.138783
vt 0.517979 0.139081
vt 0.545923 0.108210
vt 0.517978 0.107528
vt 0.523779 0.221081
vt 0.551695 0.219743
vt 0.546339 0.306271
vt 0.518394 0.305886
vt 0.333982 0.421609
vt 0.393762 0.420549
vt 0.394124 0.364638
vt 0.334376 0.365856
vt 0.333883 0.430910
vt 0.393667 0.429907
vt 0.546339 0.340221
vt 0.518394 0.340903
vt 0.518395 0.309350
vt 0.546339 0.309647
vt 0.526071 0.251589
vt 0.553988 0.250166
vt 0.552027 0.224158
vt 0.524104 0.225496
vt 0.545926 0.142458
vt 0.517975 0.142843
vt 0.517979 0.139163
vt 0.545923 0.138866
vt 0.517978 0.107610
vt 0.545923 0.108292
vt 0.551695 0.219807
vt 0.523779 0.221145
vt 0.518394 0.305670
vt 0.546339 0.306055
s 1
usemtl initialShadingGroup.001
f 36/1/1 35/2/2 19/3/2 18/4/2
f 58/5/3 57/6/3 47/7/3 45/8/3
f 18/9/4 19/10/4 21/11/4 20/12/4
f 8/13/5 269/14/5 275/15/5 113/16/5
f 7/17/5 2/18/5 4/19/5 112/20/5
f 9/21/4 276/22/4 270/23/4 5/24/4
f 106/25/4 3/26/4 1/27/4 6/28/4
f 321/29/4 325/30/4 9/21/4 5/24/4
f 429/31/5 324/32/5 8/13/5 113/16/5
f 1/33/6 3/34/6 4/35/6 2/36/6
f 12/37/7 11/38/7 327/39/7 328/40/7
f 17/41/6 16/42/6 97/43/6 96/44/6
f 271/45/7 272/46/7 11/38/7 12/37/7
f 5/24/4 12/47/4 328/48/4 321/29/4
f 11/49/5 8/13/5 324/32/5 327/50/5
f 291/51/8 290/52/8 286/53/9 285/54/10
f 270/23/4 6/28/4 10/55/4 271/56/4
f 48/57/5 46/58/5 82/59/5 100/60/5
f 15/61/6 14/62/6 16/42/6 17/41/6
f 43/63/11 86/64/11 103/65/12 10/66/13
f 1/67/14 2/68/15 14/69/16 15/70/14
f 28/71/17 27/72/17 23/73/17 22/74/17
f 21/11/4 19/10/4 22/75/4 23/76/4
f 40/77/18 36/78/18 18/79/19 20/80/19
f 52/81/20 53/82/20 101/83/20 76/84/20
f 35/2/2 28/85/1 22/86/2 19/3/2
f 21/11/4 23/76/4 98/87/4 94/88/4
f 51/89/21 52/81/20 76/84/20 77/90/22
f 27/72/17 26/91/23 90/92/23 99/93/23
f 57/6/3 56/94/24 70/95/24 79/96/24
f 51/89/21 77/90/22 78/97/25 50/98/25
f 26/91/23 25/99/26 91/100/27 90/92/23
f 1/67/14 15/70/14 31/101/28 32/102/29
f 33/103/30 30/104/31 29/105/32 34/106/33
f 34/106/33 29/105/32 28/85/1 35/2/2
f 56/94/24 55/107/34 71/108/34 70/95/24
f 46/58/5 47/109/5 81/110/5 82/59/5
f 23/73/17 27/72/17 99/93/23 98/111/17
f 71/108/34 55/107/34 54/112/35 72/113/36
f 43/63/11 10/66/13 6/114/13 39/115/11
f 42/116/37 38/117/37 37/118/37 41/119/37
f 41/119/37 37/118/37 36/78/18 40/77/18
f 31/120/38 15/61/6 17/41/6 24/121/39
f 30/122/26 25/99/26 26/91/23 29/123/27
f 29/123/27 26/91/23 27/72/17 28/71/17
f 39/124/28 6/125/40 1/67/14 32/102/29
f 38/126/31 33/103/30 261/127/32 264/128/32
f 37/129/41 34/106/33 35/2/2 36/1/1
f 44/130/5 45/131/5 47/109/5 46/58/5
f 44/130/5 46/58/5 48/57/5 49/132/5
f 42/116/37 41/119/37 88/133/37 87/134/37
f 62/135/42 58/136/42 45/137/42 44/138/42
f 66/139/42 62/135/42 44/138/42 49/140/42
f 53/82/20 66/141/43 49/142/43 48/143/43
f 16/42/6 14/62/6 69/144/44 50/98/25
f 51/89/21 50/98/25 69/144/44 68/145/45
f 51/89/21 68/145/45 67/146/21 52/81/20
f 52/81/20 67/146/21 66/141/43 53/82/20
f 14/69/16 2/68/15 65/147/46 69/148/46
f 68/149/47 69/148/46 65/147/46 64/150/47
f 68/149/47 64/150/47 63/151/48 67/152/48
f 67/152/48 63/151/48 62/135/42 66/139/42
f 2/68/15 7/153/46 61/154/46 65/147/46
f 64/150/47 65/147/46 61/154/46 60/155/47
f 64/150/47 60/155/47 59/156/48 63/151/48
f 63/151/48 59/156/48 58/136/42 62/135/42
f 53/82/20 48/143/43 100/157/43 101/83/20
f 20/12/4 21/11/4 94/88/4 95/158/4
f 41/119/37 40/77/18 89/159/49 88/133/37
f 16/42/6 50/98/25 78/97/25 97/43/6
f 40/77/18 20/80/19 95/160/19 89/159/49
f 92/161/50 24/121/39 17/41/6 96/44/6
f 54/112/35 13/162/51 102/163/51 72/113/36
f 7/164/51 13/162/51 54/112/35 61/165/51
f 60/166/52 61/165/51 54/112/35 55/107/34
f 60/166/52 55/107/34 56/94/24 59/167/34
f 58/5/3 59/167/34 280/168/24 279/169/24
f 13/162/51 10/66/13 103/65/12 102/163/51
f 47/7/3 57/6/3 79/96/24 81/170/3
f 74/171/53 76/172/53 101/173/53 75/174/53
f 73/175/54 77/176/54 76/172/53 74/171/53
f 78/177/55 77/176/54 73/175/54 80/178/55
f 105/179/56 97/180/56 78/177/55 80/178/55
f 70/181/53 74/171/53 75/174/53 79/182/53
f 71/183/54 73/175/54 74/171/53 70/181/53
f 80/178/55 73/175/54 71/183/54 72/184/55
f 102/185/56 105/179/56 80/178/55 72/184/55
f 79/182/53 75/174/53 82/186/57 81/187/57
f 90/188/58 83/189/58 93/190/58 99/191/58
f 91/192/59 84/193/60 83/189/58 90/188/58
f 85/194/61 92/195/61 96/196/62 104/197/63
f 83/189/58 88/198/58 89/199/58 93/190/58
f 84/193/60 87/200/60 88/198/58 83/189/58
f 103/201/62 86/202/61 85/194/61 104/197/63
f 93/190/58 89/199/58 95/203/64 94/204/64
f 99/191/58 93/190/58 94/204/64 98/205/64
f 75/174/53 101/173/53 100/206/57 82/186/57
f 105/179/56 104/197/63 96/196/62 97/180/56
f 104/197/63 105/179/56 102/185/56 103/201/62
f 3/207/65 106/208/65 118/209/66 119/210/66
f 273/211/4 276/22/4 9/21/4 109/212/4
f 109/212/4 9/21/4 325/30/4 425/213/4
f 111/214/14 109/215/14 425/216/14 427/217/14
f 273/218/14 109/215/14 111/214/14 274/219/14
f 114/220/6 116/221/6 252/222/6 251/223/6
f 113/16/5 111/224/5 427/225/5 429/31/5
f 274/226/5 111/224/5 113/16/5 275/15/5
f 4/227/7 251/228/7 250/229/7 112/230/7
f 115/231/12 107/232/12 110/233/12 249/234/12
f 116/235/14 115/236/14 249/237/14 252/238/14
f 108/239/4 116/240/4 114/241/4 3/207/4
f 117/242/67 120/243/67 124/244/67 121/245/67
f 108/239/68 3/207/68 119/210/69 120/243/69
f 107/232/70 108/239/70 120/243/67 117/242/67
f 106/246/71 107/232/71 117/242/71 118/247/72
f 123/248/73 122/249/73 126/250/74 127/251/74
f 118/247/72 117/242/71 121/245/75 122/252/75
f 119/210/66 118/209/66 122/249/76 123/248/76
f 120/243/69 119/210/69 123/248/77 124/244/77
f 125/253/78 128/254/78 132/255/79 129/256/79
f 124/244/80 123/248/80 127/251/81 128/254/81
f 121/245/82 124/244/82 128/254/78 125/253/78
f 122/252/83 121/245/83 125/253/84 126/257/84
f 129/256/79 132/255/79 136/258/85 133/259/85
f 126/257/84 125/253/84 129/256/86 130/260/86
f 127/251/74 126/250/74 130/261/87 131/262/87
f 128/254/81 127/251/81 131/262/88 132/255/88
f 135/263/7 134/264/7 138/265/89 139/266/89
f 130/260/86 129/256/86 133/259/90 134/267/90
f 131/262/87 130/261/87 134/264/7 135/263/7
f 132/255/88 131/262/88 135/263/91 136/258/91
f 137/268/92 140/269/92 144/270/93 141/271/93
f 136/258/91 135/263/91 139/266/94 140/269/94
f 133/259/85 136/258/85 140/269/92 137/268/92
f 134/267/90 133/259/90 137/268/95 138/272/95
f 142/273/96 141/271/96 145/274/97 146/275/97
f 138/272/95 137/268/95 141/271/96 142/273/96
f 139/266/89 138/265/89 142/276/98 143/277/98
f 140/269/94 139/266/94 143/277/99 144/270/99
f 147/278/100 146/279/100 150/280/100 151/281/100
f 143/277/98 142/276/98 146/279/100 147/278/100
f 144/270/99 143/277/99 147/278/101 148/282/101
f 141/271/93 144/270/93 148/282/102 145/274/102
f 149/283/103 152/284/103 156/285/103 153/286/103
f 148/282/101 147/278/101 151/281/104 152/284/104
f 145/274/102 148/282/102 152/284/105 149/283/105
f 146/275/97 145/274/97 149/283/106 150/287/106
f 155/288/107 154/289/107 158/290/108 159/291/108
f 150/287/109 149/283/109 153/286/110 154/292/110
f 151/281/111 150/280/111 154/289/107 155/288/107
f 152/284/112 151/281/112 155/288/112 156/285/112
f 160/293/113 159/291/113 163/294/113 164/295/113
f 156/285/112 155/288/112 159/291/113 160/293/113
f 153/286/103 156/285/103 160/293/114 157/296/115
f 154/292/110 153/286/110 157/296/116 158/297/116
f 161/298/14 164/295/14 168/299/14 165/300/14
f 157/296/115 160/293/114 164/295/14 161/298/14
f 158/297/116 157/296/116 161/298/117 162/301/117
f 159/291/108 158/290/108 162/302/118 163/294/118
f 167/303/119 166/304/119 170/305/119 171/306/119
f 162/301/117 161/298/117 165/300/12 166/307/12
f 163/294/118 162/302/118 166/304/119 167/303/119
f 164/295/113 163/294/113 167/303/6 168/299/6
f 169/308/120 172/309/120 176/310/120 173/311/120
f 168/299/6 167/303/6 171/306/121 172/309/121
f 165/300/14 168/299/14 172/309/120 169/308/120
f 166/307/12 165/300/12 169/308/122 170/312/122
f 173/311/120 176/310/120 180/313/123 177/314/123
f 170/312/122 169/308/122 173/311/124 174/315/124
f 171/306/119 170/305/119 174/316/125 175/317/125
f 172/309/121 171/306/121 175/317/126 176/310/126
f 179/318/127 178/319/127 182/320/127 183/321/127
f 174/315/124 173/311/124 177/314/128 178/322/128
f 175/317/125 174/316/125 178/319/129 179/318/129
f 176/310/126 175/317/126 179/318/130 180/313/130
f 181/323/131 184/324/131 188/325/131 185/326/131
f 180/313/132 179/318/132 183/321/133 184/324/133
f 177/314/134 180/313/134 184/324/131 181/323/131
f 178/322/135 177/314/135 181/323/136 182/327/136
f 186/328/137 185/326/137 189/329/137 190/330/137
f 182/327/136 181/323/136 185/326/137 186/328/137
f 183/321/127 182/320/127 186/331/138 187/332/138
f 184/324/133 183/321/133 187/332/139 188/325/139
f 189/329/140 192/333/140 196/334/141 193/335/141
f 187/332/138 186/331/138 190/336/142 191/337/142
f 188/325/139 187/332/139 191/337/143 192/333/143
f 185/326/131 188/325/131 192/333/140 189/329/140
f 193/335/141 196/334/141 200/338/144 197/339/144
f 190/330/137 189/329/137 193/335/145 194/340/145
f 191/337/142 190/336/142 194/341/146 195/342/146
f 192/333/143 191/337/143 195/342/147 196/334/147
f 199/343/148 198/344/148 202/345/148 203/346/148
f 194/340/145 193/335/145 197/339/149 198/347/149
f 195/342/146 194/341/146 198/344/148 199/343/148
f 196/334/147 195/342/147 199/343/150 200/338/150
f 203/346/148 202/345/148 206/348/151 207/349/151
f 200/338/150 199/343/150 203/346/152 204/350/152
f 197/339/144 200/338/144 204/350/153 201/351/153
f 198/347/149 197/339/149 201/351/154 202/352/154
f 205/353/155 208/354/155 212/355/155 209/356/155
f 204/350/152 203/346/152 207/349/156 208/354/156
f 201/351/153 204/350/153 208/354/157 205/353/157
f 202/352/154 201/351/154 205/353/158 206/357/158
f 206/357/159 205/353/159 209/356/159 210/358/159
f 207/349/160 206/348/160 210/359/160 211/360/160
f 208/354/161 207/349/161 211/360/161 212/355/161
f 210/358/162 209/356/162 213/361/163 214/362/163
f 209/356/164 212/355/164 216/363/164 213/361/164
f 212/355/165 211/360/165 215/364/166 216/363/166
f 211/360/167 210/359/167 214/365/167 215/364/167
f 213/361/164 216/363/164 220/366/14 217/367/14
f 219/368/168 218/369/168 222/370/168 223/371/168
f 214/362/163 213/361/163 217/367/12 218/372/12
f 215/364/167 214/365/167 218/369/7 219/368/7
f 216/363/166 215/364/166 219/368/6 220/366/6
f 255/373/6 254/374/6 227/375/6 228/376/6
f 220/366/169 219/368/169 223/371/169 224/377/169
f 217/367/170 220/366/170 224/377/170 221/378/170
f 218/372/171 217/367/171 221/378/171 222/379/171
f 225/380/172 228/376/172 232/381/173 229/382/173
f 257/383/14 255/373/14 228/376/14 225/380/14
f 259/384/12 257/383/12 225/380/12 226/385/12
f 254/374/7 259/386/7 226/387/7 227/375/7
f 231/388/174 230/389/174 234/390/175 235/391/175
f 226/385/176 225/380/176 229/382/177 230/392/177
f 227/375/178 226/387/178 230/389/174 231/388/174
f 228/376/179 227/375/179 231/388/180 232/381/180
f 236/393/181 235/391/181 239/394/182 240/395/182
f 232/381/180 231/388/180 235/391/183 236/393/183
f 229/382/173 232/381/173 236/393/184 233/396/184
f 230/392/177 229/382/177 233/396/185 234/397/185
f 237/398/15 240/395/15 244/399/14 241/400/14
f 233/396/186 236/393/186 240/395/15 237/398/15
f 234/397/187 233/396/187 237/398/188 238/401/189
f 235/391/190 234/390/190 238/402/191 239/394/191
f 243/403/192 242/404/192 246/405/192 247/406/192
f 238/401/189 237/398/188 241/400/12 242/407/12
f 239/394/191 238/402/191 242/404/192 243/403/192
f 240/395/182 239/394/182 243/403/6 244/399/6
f 246/405/4 245/408/4 248/409/4 247/406/4
f 244/399/6 243/403/6 247/406/193 248/409/193
f 241/400/14 244/399/14 248/409/194 245/408/194
f 242/407/12 241/400/12 245/408/195 246/405/195
f 252/410/5 249/411/5 250/412/5 251/413/5
f 223/371/7 222/370/7 260/414/7 253/415/7
f 254/374/7 253/415/7 265/416/7 266/417/7
f 222/379/12 221/378/12 258/418/12 260/419/12
f 260/419/12 258/418/12 257/383/12 259/384/12
f 221/378/14 224/377/14 256/420/14 258/418/14
f 258/418/14 256/420/14 255/373/14 257/383/14
f 224/377/6 223/371/6 253/415/6 256/420/6
f 256/420/6 253/415/6 254/374/6 255/373/6
f 303/421/196 302/422/5 265/423/5 268/424/5
f 37/129/41 38/126/31 264/128/32 263/425/32
f 34/106/33 37/129/41 263/425/32 262/426/32
f 33/103/30 34/106/33 262/426/32 261/127/32
f 302/427/197 306/428/197 266/429/197 265/430/197
f 306/431/4 308/432/198 267/433/4 266/434/4
f 308/435/37 303/436/37 268/437/37 267/438/37
f 110/439/5 274/226/5 275/15/5 112/20/5
f 253/415/7 260/414/7 268/440/7 265/416/7
f 259/386/7 254/374/7 266/417/7 267/441/7
f 260/414/7 259/386/7 267/441/7 268/440/7
f 107/442/14 273/218/14 274/219/14 110/443/14
f 107/444/4 106/25/4 276/22/4 273/211/4
f 5/24/4 270/23/4 271/56/4 12/47/4
f 7/17/5 269/14/5 272/445/5 13/446/5
f 10/447/7 13/448/7 272/46/7 271/45/7
f 106/25/4 6/28/4 270/23/4 276/22/4
f 7/17/5 112/20/5 275/15/5 269/14/5
f 286/449/199 298/450/53 282/451/53 281/452/53
f 56/94/24 57/6/3 278/453/24 277/454/24
f 59/167/34 56/94/24 277/454/24 280/168/24
f 57/6/3 58/5/3 279/169/24 278/453/24
f 298/455/5 300/456/5 283/457/5 282/458/5
f 300/459/200 285/460/200 284/461/200 283/462/200
f 285/54/10 286/53/9 281/463/201 284/464/201
f 293/465/202 291/466/202 285/460/203 287/467/204
f 290/468/205 296/469/205 288/470/206 286/449/199
f 296/471/207 293/472/207 287/473/208 288/474/209
f 272/475/6 269/475/6 294/475/6 295/475/6
f 295/475/6 294/475/6 293/472/207 296/471/207
f 11/38/7 272/46/7 295/476/210 289/477/210
f 289/477/210 295/476/210 296/469/205 290/468/205
f 269/478/211 8/479/211 292/480/211 294/481/211
f 293/465/202 294/481/211 292/480/211 291/466/202
f 8/482/12 11/483/12 289/484/12 292/485/12
f 291/51/8 292/485/12 289/484/12 290/52/8
f 280/168/4 277/454/4 288/474/209 287/473/208
f 279/486/200 280/487/200 287/467/204 299/488/200
f 299/488/200 287/467/204 285/460/203 300/459/200
f 278/489/5 279/490/5 299/491/5 297/492/5
f 297/492/5 299/491/5 300/456/5 298/455/5
f 277/493/53 278/494/53 297/495/53 288/470/53
f 288/470/206 297/495/53 298/450/53 286/449/199
f 263/496/37 264/497/37 304/498/37 307/499/37
f 303/436/212 308/435/212 312/500/213 309/501/212
f 262/502/4 263/503/4 307/504/198 305/505/4
f 305/505/4 307/504/198 308/432/198 306/431/4
f 261/506/197 262/507/197 305/508/197 301/509/197
f 301/509/197 305/508/197 306/428/197 302/427/197
f 264/510/5 261/511/5 301/512/5 304/513/196
f 304/513/196 301/512/5 302/422/5 303/421/196
f 311/514/214 310/515/214 314/516/215 315/517/215
f 308/432/198 307/504/198 311/518/216 312/519/216
f 304/513/196 303/421/196 309/520/217 310/521/217
f 307/499/218 304/498/218 310/515/214 311/514/214
f 313/522/219 316/523/219 628/524/220 625/525/220
f 310/521/217 309/520/217 313/526/221 314/527/221
f 309/501/212 312/500/213 316/523/219 313/522/219
f 312/519/216 311/518/216 315/528/222 316/529/222
f 316/529/222 315/528/222 627/530/223 628/531/223
f 315/517/215 314/516/215 626/532/224 627/533/224
f 314/527/221 313/526/221 625/534/225 626/535/225
f 352/536/1 334/537/2 335/538/2 351/539/2
f 374/540/226 361/541/226 363/542/226 373/543/226
f 334/544/4 336/545/4 337/546/4 335/547/4
f 585/548/5 324/32/5 429/31/5 591/549/5
f 318/550/5 323/551/5 428/552/5 320/553/5
f 592/554/4 325/30/4 321/29/4 586/555/4
f 319/556/4 422/557/4 322/558/4 317/559/4
f 318/560/12 320/561/12 319/562/12 317/563/12
f 333/564/12 412/565/12 413/566/12 332/567/12
f 587/568/7 328/40/7 327/39/7 588/569/7
f 603/570/227 597/571/228 598/572/229 602/573/227
f 586/555/4 587/574/4 326/575/4 322/558/4
f 364/576/5 416/577/5 398/578/5 362/579/5
f 331/580/12 333/564/12 332/567/12 330/581/12
f 402/582/230 359/583/230 326/584/231 419/585/6
f 317/586/14 331/587/14 330/588/15 318/589/15
f 344/590/232 338/591/232 339/592/232 343/593/232
f 337/546/4 339/594/4 338/595/4 335/547/4
f 356/596/233 336/597/234 334/598/234 352/599/233
f 368/600/235 392/601/235 417/602/235 369/603/235
f 351/539/2 335/538/2 338/604/2 344/605/1
f 337/546/4 410/606/4 414/607/4 339/594/4
f 367/608/236 393/609/236 392/601/235 368/600/235
f 343/593/232 415/610/237 406/611/237 342/612/237
f 373/543/226 395/613/238 386/614/238 372/615/238
f 393/609/236 367/608/236 366/616/239 394/617/239
f 342/612/237 406/611/237 407/618/240 341/619/241
f 331/587/14 317/586/14 348/620/242 347/621/243
f 349/622/31 350/623/32 345/624/244 346/625/31
f 350/623/32 351/539/2 344/605/1 345/624/244
f 372/615/238 386/614/238 387/626/245 371/627/245
f 362/579/5 398/578/5 397/628/5 363/629/5
f 339/592/232 414/630/232 415/610/237 343/593/232
f 371/627/245 387/626/245 388/631/246 370/632/246
f 322/633/231 326/584/231 359/583/230 355/634/230
f 358/635/247 357/636/247 353/637/247 354/638/247
f 357/636/247 356/596/233 352/599/233 353/637/247
f 333/564/12 331/580/12 347/639/248 340/640/248
f 346/641/241 345/642/241 342/612/237 341/619/241
f 345/642/241 344/590/232 343/593/232 342/612/237
f 348/620/242 317/586/14 322/643/40 355/644/28
f 354/645/31 580/646/32 577/647/32 349/622/31
f 353/648/41 352/536/1 351/539/2 350/623/32
f 360/649/5 362/579/5 363/629/5 361/650/5
f 360/649/5 365/651/5 364/576/5 362/579/5
f 358/635/247 403/652/247 404/653/247 357/636/247
f 378/654/42 360/655/42 361/656/42 374/657/42
f 382/658/42 365/659/42 360/655/42 378/654/42
f 369/603/235 364/660/249 365/661/249 382/662/249
f 332/567/12 366/616/239 385/663/250 330/581/12
f 385/663/250 366/616/239 367/608/236 384/664/251
f 367/608/236 368/600/235 383/665/236 384/664/251
f 368/600/235 369/603/235 382/662/249 383/665/236
f 330/588/15 385/666/46 381/667/46 318/589/15
f 381/667/46 385/666/46 384/668/47 380/669/47
f 384/668/47 383/670/48 379/671/48 380/669/47
f 383/670/48 382/658/42 378/654/42 379/671/48
f 318/589/15 381/667/46 377/672/46 323/673/46
f 377/672/46 381/667/46 380/669/47 376/674/252
f 380/669/47 379/671/48 375/675/48 376/674/252
f 379/671/48 378/654/42 374/657/42 375/675/48
f 369/603/235 417/602/235 416/676/249 364/660/249
f 336/545/4 411/677/4 410/606/4 337/546/4
f 357/636/247 404/653/247 405/678/253 356/596/233
f 332/567/12 413/566/12 394/617/239 366/616/239
f 356/596/233 405/678/253 411/679/234 336/597/234
f 333/564/12 340/640/248 408/680/254 412/565/12
f 370/632/246 388/631/246 418/681/255 329/682/255
f 323/683/255 377/684/255 370/632/246 329/682/255
f 371/627/245 370/632/246 377/684/255 376/685/256
f 376/685/256 375/686/245 372/615/238 371/627/245
f 374/540/226 595/687/238 596/688/238 375/686/245
f 329/682/255 418/681/255 419/585/6 326/584/231
f 363/542/226 397/689/226 395/613/238 373/543/226
f 390/690/53 391/691/53 417/692/53 392/693/53
f 389/694/54 390/690/53 392/693/53 393/695/54
f 389/694/54 393/695/54 394/696/55 396/697/257
f 421/698/56 396/697/257 394/696/55 413/699/56
f 386/700/53 395/701/53 391/691/53 390/690/53
f 387/702/54 386/700/53 390/690/53 389/694/54
f 388/703/55 387/702/54 389/694/54 396/697/257
f 418/704/56 388/703/55 396/697/257 421/698/56
f 395/701/53 397/705/57 398/706/57 391/691/53
f 406/707/58 415/708/58 409/709/58 399/710/58
f 407/711/60 406/707/58 399/710/58 400/712/60
f 412/713/258 408/714/61 401/715/61 420/716/62
f 399/710/58 409/709/58 405/717/58 404/718/58
f 400/712/60 399/710/58 404/718/58 403/719/60
f 420/716/62 401/715/61 402/720/61 419/721/62
f 409/709/58 410/722/64 411/723/64 405/717/58
f 415/708/58 414/724/64 410/722/64 409/709/58
f 391/691/53 398/706/57 416/725/57 417/692/53
f 421/698/56 413/699/56 412/713/258 420/716/62
f 420/716/62 419/721/62 418/704/56 421/698/56
f 319/726/65 435/727/66 434/728/66 422/729/65
f 589/730/4 425/213/4 325/30/4 592/554/4
f 589/731/14 590/732/14 427/217/14 425/216/14
f 567/733/12 568/734/12 432/735/12 430/736/12
f 590/737/5 591/549/5 429/31/5 427/225/5
f 320/738/7 567/739/7 430/740/7 319/726/7
f 426/741/6 565/742/6 566/743/6 428/744/6
f 432/745/14 568/746/14 565/747/14 431/748/14
f 432/749/4 431/750/4 423/751/4 424/752/4
f 433/753/67 437/754/67 440/755/67 436/756/67
f 424/752/259 436/756/71 435/727/71 319/726/259
f 423/751/70 433/753/67 436/756/67 424/752/70
f 422/757/68 434/758/69 433/753/69 423/751/68
f 439/759/73 443/760/74 442/761/74 438/762/73
f 434/758/69 438/763/260 437/754/260 433/753/69
f 435/727/66 439/759/76 438/762/76 434/728/66
f 436/756/71 440/755/75 439/759/75 435/727/71
f 441/764/78 445/765/79 448/766/79 444/767/261
f 440/755/83 444/767/84 443/760/84 439/759/83
f 437/754/82 441/764/78 444/767/261 440/755/82
f 438/763/80 442/768/81 441/764/81 437/754/80
f 445/765/79 449/769/85 452/770/85 448/766/79
f 442/768/81 446/771/88 445/765/88 441/764/81
f 443/760/74 447/772/87 446/773/87 442/761/74
f 444/767/84 448/766/86 447/772/86 443/760/84
f 451/774/7 455/775/89 454/776/89 450/777/7
f 446/771/88 450/778/91 449/769/91 445/765/88
f 447/772/87 451/774/7 450/777/7 446/773/87
f 448/766/86 452/770/90 451/774/90 447/772/86
f 453/779/92 457/780/93 460/781/93 456/782/92
f 452/770/90 456/782/95 455/775/95 451/774/90
f 449/769/85 453/779/92 456/782/92 452/770/85
f 450/778/91 454/783/94 453/779/94 449/769/91
f 458/784/262 462/785/101 461/786/101 457/780/262
f 454/783/94 458/784/262 457/780/262 453/779/94
f 455/775/89 459/787/98 458/788/263 454/776/89
f 456/782/95 460/781/264 459/787/264 455/775/95
f 463/789/100 467/790/100 466/791/100 462/792/100
f 459/787/98 463/789/100 462/792/100 458/788/263
f 460/781/264 464/793/97 463/789/97 459/787/264
f 457/780/93 461/786/102 464/793/102 460/781/93
f 465/794/103 469/795/103 472/796/103 468/797/103
f 464/793/97 468/797/265 467/790/265 463/789/97
f 461/786/102 465/794/105 468/797/105 464/793/102
f 462/785/101 466/798/266 465/794/266 461/786/101
f 471/799/107 475/800/108 474/801/108 470/802/107
f 466/798/267 470/803/112 469/795/112 465/794/267
f 467/790/111 471/799/107 470/802/107 466/791/111
f 468/797/110 472/796/110 471/799/110 467/790/110
f 476/804/117 480/805/117 479/806/117 475/800/117
f 472/796/110 476/804/117 475/800/117 471/799/110
f 469/795/103 473/807/114 476/804/115 472/796/103
f 470/803/112 474/808/268 473/807/268 469/795/112
f 477/809/14 481/810/14 484/811/14 480/805/14
f 473/807/114 477/809/14 480/805/14 476/804/115
f 474/808/268 478/812/269 477/809/113 473/807/268
f 475/800/108 479/806/118 478/813/118 474/801/108
f 483/814/119 487/815/119 486/816/119 482/817/119
f 478/812/269 482/818/6 481/810/6 477/809/113
f 479/806/118 483/814/119 482/817/119 478/813/118
f 480/805/117 484/811/12 483/814/12 479/806/117
f 485/819/120 489/820/120 492/821/120 488/822/120
f 484/811/12 488/822/122 487/815/122 483/814/12
f 481/810/14 485/819/120 488/822/120 484/811/14
f 482/818/6 486/823/121 485/819/121 481/810/6
f 489/820/120 493/824/123 496/825/123 492/821/120
f 486/823/121 490/826/126 489/820/126 485/819/121
f 487/815/119 491/827/125 490/828/125 486/816/119
f 488/822/122 492/821/124 491/827/124 487/815/122
f 495/829/127 499/830/127 498/831/127 494/832/127
f 490/826/126 494/833/130 493/824/130 489/820/126
f 491/827/125 495/829/129 494/832/129 490/828/125
f 492/821/124 496/825/128 495/829/128 491/827/124
f 497/834/131 501/835/131 504/836/131 500/837/131
f 496/825/135 500/837/136 499/830/136 495/829/135
f 493/824/134 497/834/131 500/837/131 496/825/134
f 494/833/132 498/838/133 497/834/133 493/824/132
f 502/839/143 506/840/143 505/841/143 501/835/143
f 498/838/133 502/839/143 501/835/143 497/834/133
f 499/830/127 503/842/138 502/843/138 498/831/127
f 500/837/136 504/836/270 503/842/270 499/830/136
f 505/841/140 509/844/141 512/845/141 508/846/140
f 503/842/138 507/847/142 506/848/142 502/843/138
f 504/836/270 508/846/137 507/847/137 503/842/270
f 501/835/131 505/841/140 508/846/140 504/836/131
f 509/844/141 513/849/144 516/850/144 512/845/141
f 506/840/143 510/851/147 509/844/147 505/841/143
f 507/847/142 511/852/146 510/853/146 506/848/142
f 508/846/137 512/845/145 511/852/145 507/847/137
f 515/854/148 519/855/148 518/856/148 514/857/148
f 510/851/147 514/858/150 513/849/150 509/844/147
f 511/852/146 515/854/148 514/857/148 510/853/146
f 512/845/145 516/850/271 515/854/271 511/852/145
f 519/855/148 523/859/151 522/860/151 518/856/148
f 516/850/271 520/861/154 519/855/154 515/854/271
f 513/849/144 517/862/153 520/861/153 516/850/144
f 514/858/150 518/863/152 517/862/152 513/849/150
f 521/864/155 525/865/155 528/866/155 524/867/155
f 520/861/154 524/867/158 523/859/158 519/855/154
f 517/862/153 521/864/157 524/867/157 520/861/153
f 518/863/152 522/868/156 521/864/156 517/862/152
f 522/868/272 526/869/272 525/865/272 521/864/272
f 523/859/160 527/870/160 526/871/160 522/860/160
f 524/867/273 528/866/273 527/870/273 523/859/273
f 526/869/274 530/872/166 529/873/166 525/865/274
f 525/865/164 529/873/164 532/874/164 528/866/164
f 528/866/275 532/874/163 531/875/163 527/870/275
f 527/870/167 531/875/167 530/876/167 526/871/167
f 529/873/164 533/877/14 536/878/14 532/874/164
f 535/879/168 539/880/168 538/881/168 534/882/168
f 530/872/166 534/883/6 533/877/6 529/873/166
f 531/875/167 535/879/7 534/882/7 530/876/167
f 532/874/163 536/878/12 535/879/12 531/875/163
f 571/884/12 544/885/12 543/886/12 570/887/12
f 536/878/171 540/888/171 539/880/171 535/879/171
f 533/877/170 537/889/170 540/888/170 536/878/170
f 534/883/169 538/890/169 537/889/169 533/877/169
f 541/891/172 545/892/173 548/893/173 544/885/172
f 573/894/14 541/891/14 544/885/14 571/884/14
f 575/895/6 542/896/6 541/891/6 573/894/6
f 570/887/7 543/886/7 542/897/7 575/898/7
f 547/899/174 551/900/175 550/901/175 546/902/174
f 542/896/179 546/903/180 545/892/180 541/891/179
f 543/886/178 547/899/174 546/902/174 542/897/178
f 544/885/176 548/893/177 547/899/177 543/886/176
f 552/904/187 556/905/189 555/906/189 551/900/187
f 548/893/177 552/904/185 551/900/185 547/899/177
f 545/892/173 549/907/184 552/904/184 548/893/173
f 546/903/180 550/908/183 549/907/183 545/892/180
f 553/909/15 557/910/14 560/911/14 556/905/15
f 549/907/186 553/909/15 556/905/15 552/904/186
f 550/908/181 554/912/182 553/909/182 549/907/181
f 551/900/190 555/906/191 554/913/191 550/901/190
f 559/914/192 563/915/192 562/916/192 558/917/192
f 554/912/182 558/918/6 557/910/6 553/909/182
f 555/906/191 559/914/192 558/917/192 554/913/191
f 556/905/189 560/911/12 559/914/12 555/906/189
f 562/916/4 563/915/4 564/919/4 561/920/4
f 560/911/12 564/919/195 563/915/195 559/914/12
f 557/910/14 561/920/194 564/919/194 560/911/14
f 558/918/6 562/916/193 561/920/193 557/910/6
f 565/921/5 568/922/5 567/923/5 566/924/5
f 539/880/7 569/925/7 576/926/7 538/881/7
f 570/887/7 582/927/7 581/928/7 569/925/7
f 538/890/6 576/929/6 574/930/6 537/889/6
f 576/929/6 575/895/6 573/894/6 574/930/6
f 537/889/14 574/930/14 572/931/14 540/888/14
f 574/930/14 573/894/14 571/884/14 572/931/14
f 540/888/12 572/931/12 569/925/12 539/880/12
f 572/931/12 571/884/12 570/887/12 569/925/12
f 615/932/276 584/933/5 581/934/5 614/935/5
f 353/648/41 579/936/32 580/646/32 354/645/31
f 350/623/32 578/937/32 579/936/32 353/648/41
f 349/622/31 577/647/32 578/937/32 350/623/32
f 614/938/277 581/939/277 582/940/277 618/941/277
f 618/942/4 582/943/4 583/944/4 620/945/278
f 620/946/247 583/947/247 584/948/247 615/949/247
f 426/950/5 428/552/5 591/549/5 590/737/5
f 569/925/7 581/928/7 584/951/7 576/926/7
f 575/898/7 583/952/7 582/927/7 570/887/7
f 576/926/7 584/951/7 583/952/7 575/898/7
f 423/953/14 426/954/14 590/732/14 589/731/14
f 423/955/4 589/730/4 592/554/4 422/557/4
f 321/29/4 328/48/4 587/574/4 586/555/4
f 323/551/5 329/956/5 588/957/5 585/548/5
f 326/958/7 587/568/7 588/569/7 329/959/7
f 322/558/4 422/557/4 592/554/4 586/555/4
f 428/552/5 323/551/5 585/548/5 591/549/5
f 598/960/53 281/452/53 282/451/53 610/961/53
f 372/615/238 593/962/238 594/963/238 373/543/226
f 375/686/245 596/688/238 593/962/238 372/615/238
f 373/543/226 594/963/238 595/687/238 374/540/226
f 610/964/5 282/458/5 283/457/5 612/965/5
f 612/966/200 283/462/200 284/461/200 597/967/279
f 597/571/228 284/464/201 281/463/201 598/572/229
f 605/968/202 599/969/280 597/967/279 603/970/202
f 602/971/281 598/960/282 600/972/283 608/973/205
f 608/974/284 600/975/285 599/976/286 605/977/284
f 588/978/12 607/978/12 606/978/12 585/978/12
f 606/978/12 607/978/12 608/974/284 605/977/284
f 327/39/7 601/979/210 607/980/210 588/569/7
f 608/973/205 607/980/210 601/979/210 602/971/281
f 585/981/211 606/982/211 604/983/211 324/984/211
f 604/983/211 606/982/211 605/968/202 603/970/202
f 324/985/6 604/986/6 601/987/6 327/988/6
f 602/573/227 601/987/6 604/986/6 603/570/227
f 596/688/4 599/976/286 600/975/285 593/962/4
f 595/989/200 611/990/200 599/969/200 596/991/200
f 611/990/200 612/966/200 597/967/279 599/969/280
f 594/992/5 609/993/5 611/994/5 595/995/5
f 609/993/5 610/964/5 612/965/5 611/994/5
f 593/996/53 600/972/283 609/997/53 594/998/53
f 600/972/283 598/960/282 610/961/53 609/997/53
f 579/999/247 619/1000/247 616/1001/247 580/1002/247
f 615/949/287 621/1003/287 624/1004/288 620/946/287
f 578/1005/4 617/1006/4 619/1007/278 579/1008/4
f 617/1006/4 618/942/4 620/945/278 619/1007/278
f 577/1009/277 613/1010/277 617/1011/277 578/1012/277
f 613/1010/277 614/938/277 618/941/277 617/1011/277
f 580/1013/5 616/1014/276 613/1015/5 577/1016/5
f 616/1014/276 615/932/276 614/935/5 613/1015/5
f 623/1017/289 627/533/224 626/532/224 622/1018/289
f 620/945/278 624/1019/290 623/1020/290 619/1007/278
f 616/1014/276 622/1021/291 621/1022/291 615/932/276
f 619/1000/292 623/1017/289 622/1018/289 616/1001/292
f 622/1021/291 626/535/225 625/534/225 621/1022/291
f 621/1003/287 625/525/220 628/524/220 624/1004/288
f 624/1019/290 628/531/223 627/530/223 623/1020/290
f 629/1023/293 630/1024/294 642/1025/295 641/1026/296
f 630/1024/294 629/1023/293 632/1027/293 631/1028/297
f 631/1029/298 632/1030/299 643/1031/300 644/1032/301
f 633/1033/302 634/1034/303 637/1035/304 638/1036/302
f 634/1037/305 633/1038/306 636/1039/307 635/1040/308
f 635/1040/308 636/1039/307 641/1041/309 642/1042/310
f 638/1036/302 637/1035/304 640/1043/311 639/1044/302
f 639/1045/300 640/1046/301 644/1032/301 643/1031/300
f 645/1047/312 646/1048/313 658/1049/314 657/1050/315
f 646/1048/313 645/1047/312 648/1051/312 647/1052/313
f 647/1053/316 648/1054/298 659/1055/317 660/1056/300
f 649/1057/318 650/1058/319 653/1059/319 654/1060/320
f 650/1061/306 649/1062/305 652/1063/308 651/1064/307
f 651/1064/307 652/1063/308 657/1065/310 658/1066/309
f 654/1060/320 653/1059/319 656/1067/319 655/1068/321
f 655/1069/317 656/1070/300 660/1056/300 659/1055/317
f 86/64/11 43/63/11 630/1024/294 631/1028/297
f 32/102/29 31/101/28 634/1037/305 635/1040/308
f 636/1039/307 633/1038/306 30/104/31 33/103/30
f 629/1023/293 42/116/37 87/134/37 632/1027/293
f 25/99/26 638/1036/302 639/1044/302 91/100/27
f 630/1024/294 43/63/11 39/115/11 642/1025/295
f 629/1023/293 641/1026/296 38/117/37 42/116/37
f 634/1034/303 31/120/38 24/121/39 637/1035/304
f 633/1033/302 638/1036/302 25/99/26 30/122/26
f 642/1042/310 39/124/28 32/102/29 635/1040/308
f 641/1041/309 636/1039/307 33/103/30 38/126/31
f 640/1043/311 637/1035/304 24/121/39 92/161/50
f 639/1045/300 643/1031/300 84/193/60 91/192/59
f 644/1032/301 640/1046/301 92/195/61 85/194/61
f 643/1031/300 632/1030/299 87/200/60 84/193/60
f 86/202/61 631/1029/298 644/1032/301 85/194/61
f 359/583/230 402/582/230 648/1051/312 645/1047/312
f 347/621/243 348/620/242 652/1063/308 649/1062/305
f 651/1064/307 349/622/31 346/625/31 650/1061/306
f 646/1048/313 647/1052/313 403/652/247 358/635/247
f 341/619/241 407/618/240 656/1067/319 653/1059/319
f 355/634/230 359/583/230 645/1047/312 657/1050/315
f 646/1048/313 358/635/247 354/638/247 658/1049/314
f 340/640/248 347/639/248 649/1057/318 654/1060/320
f 650/1058/319 346/641/241 341/619/241 653/1059/319
f 652/1063/308 348/620/242 355/644/28 657/1065/310
f 658/1066/309 354/645/31 349/622/31 651/1064/307
f 340/640/248 654/1060/320 655/1068/321 408/680/254
f 656/1070/300 407/711/60 400/712/60 660/1056/300
f 408/714/61 655/1069/317 659/1055/317 401/715/61
f 660/1056/300 400/712/60 403/719/60 647/1053/316
f 401/715/61 659/1055/317 648/1054/298 402/720/61
f 108/239/4 107/232/4 115/231/4 116/240/4
f 4/227/7 3/207/7 114/241/7 251/228/7
f 249/234/12 110/233/12 112/230/12 250/229/12
f 432/749/4 424/752/4 319/726/4 430/740/4
f 566/743/7 567/739/7 320/738/7 428/744/7
f 426/741/6 423/751/6 431/750/6 565/742/6
