# Blender 4.4.0
# www.blender.org
mtllib Shelf1.mtl
o Shelf_1
v 0.513394 0.084994 0.021610
v 0.513394 0.089210 0.021195
v 0.513394 0.093264 0.019965
v 0.513394 0.097000 0.017968
v 0.513394 0.100274 0.015281
v 0.513394 0.102962 0.012006
v 0.513394 0.104959 0.008270
v 0.513394 0.106189 0.004216
v 0.513394 0.106604 0.000000
v 0.507675 0.084994 0.023731
v 0.507676 0.089623 0.023275
v 0.507675 0.094075 0.021925
v 0.507675 0.098178 0.019732
v 0.507675 0.101774 0.016780
v 0.507675 0.104725 0.013184
v 0.507675 0.106918 0.009082
v 0.507675 0.108269 0.004630
v 0.507675 0.108725 0.000000
v 0.513394 0.084994 0.018911
v 0.513394 0.088683 0.018547
v 0.513394 0.092231 0.017471
v 0.513394 0.095500 0.015724
v 0.513394 0.098366 0.013372
v 0.513394 0.100717 0.010506
v 0.513394 0.102465 0.007237
v 0.513394 0.103541 0.003689
v 0.513394 0.103905 0.000000
v 0.520973 0.084994 0.016241
v 0.520973 0.088162 0.015929
v 0.520973 0.091209 0.015005
v 0.520973 0.094017 0.013504
v 0.520973 0.096478 0.011484
v 0.520973 0.098498 0.009023
v 0.520973 0.099998 0.006215
v 0.520973 0.100923 0.003168
v 0.520973 0.101235 0.000000
v 0.528620 0.084994 0.016725
v 0.528620 0.088257 0.016404
v 0.528620 0.091394 0.015452
v 0.528620 0.094286 0.013907
v 0.528620 0.096820 0.011827
v 0.528620 0.098900 0.009292
v 0.528620 0.100446 0.006400
v 0.528620 0.101398 0.003263
v 0.528620 0.101719 0.000000
v 0.528620 0.084994 0.023209
v 0.528620 0.089521 0.022763
v 0.528620 0.093875 0.021442
v 0.528620 0.097888 0.019297
v 0.528620 0.101405 0.016411
v 0.528620 0.104291 0.012894
v 0.528620 0.106436 0.008882
v 0.528620 0.107756 0.004528
v 0.528620 0.108202 0.000000
v 0.534204 0.084994 0.021094
v 0.534204 0.089109 0.020689
v 0.534204 0.093066 0.019488
v 0.534204 0.096713 0.017539
v 0.534204 0.099910 0.014916
v 0.534204 0.102533 0.011719
v 0.534204 0.104482 0.008072
v 0.534204 0.105683 0.004115
v 0.534204 0.106088 0.000000
v 0.539689 0.084994 0.016160
v 0.539689 0.088146 0.015849
v 0.539689 0.091178 0.014930
v 0.539689 0.093972 0.013436
v 0.539689 0.096420 0.011427
v 0.539689 0.098430 0.008978
v 0.539689 0.099923 0.006184
v 0.539689 0.100843 0.003153
v 0.539689 0.101154 0.000000
v 0.540612 0.084994 0.016160
v 0.540612 0.088146 0.015849
v 0.540612 0.091178 0.014930
v 0.540612 0.093972 0.013436
v 0.540612 0.096420 0.011427
v 0.540612 0.098430 0.008978
v 0.540612 0.099923 0.006184
v 0.540612 0.100843 0.003153
v 0.540612 0.101154 0.000000
v 0.540612 0.084994 0.014960
v 0.540612 0.087912 0.014673
v 0.540612 0.090719 0.013822
v 0.540612 0.093305 0.012439
v 0.540612 0.095572 0.010579
v 0.540612 0.097433 0.008312
v 0.540612 0.098815 0.005725
v 0.540612 0.099667 0.002919
v 0.540612 0.099954 0.000000
v 0.539876 0.084994 0.014960
v 0.539876 0.087912 0.014673
v 0.539876 0.090719 0.013822
v 0.539876 0.093305 0.012439
v 0.539876 0.095572 0.010579
v 0.539876 0.097433 0.008312
v 0.539876 0.098815 0.005725
v 0.539876 0.099667 0.002919
v 0.539876 0.099954 0.000000
v 0.539876 0.084994 0.000000
v 0.539876 0.084994 0.005740
v 0.539876 0.088768 0.005126
v 0.539876 0.090841 0.000000
v 0.513394 0.080778 0.021195
v 0.513394 0.076724 0.019965
v 0.513394 0.072988 0.017968
v 0.513394 0.069713 0.015281
v 0.513394 0.067025 0.012006
v 0.513394 0.065028 0.008270
v 0.513394 0.063799 0.004216
v 0.513394 0.063383 0.000000
v 0.507675 0.080364 0.023275
v 0.507675 0.075912 0.021925
v 0.507675 0.071809 0.019732
v 0.507675 0.068213 0.016780
v 0.507675 0.065262 0.013184
v 0.507675 0.063069 0.009082
v 0.507675 0.061719 0.004630
v 0.507675 0.061263 0.000000
v 0.513394 0.081304 0.018547
v 0.513394 0.077757 0.017471
v 0.513394 0.074487 0.015724
v 0.513394 0.071622 0.013372
v 0.513394 0.069270 0.010506
v 0.513394 0.067522 0.007237
v 0.513394 0.066446 0.003689
v 0.513394 0.066083 0.000000
v 0.520973 0.081825 0.015929
v 0.520973 0.078779 0.015005
v 0.520973 0.075971 0.013504
v 0.520973 0.073510 0.011484
v 0.520973 0.071490 0.009023
v 0.520973 0.069989 0.006215
v 0.520973 0.069065 0.003168
v 0.520973 0.068753 0.000000
v 0.528620 0.081731 0.016404
v 0.528620 0.078593 0.015452
v 0.528620 0.075702 0.013907
v 0.528620 0.073167 0.011827
v 0.528620 0.071087 0.009292
v 0.528620 0.069542 0.006400
v 0.528620 0.068590 0.003263
v 0.528620 0.068269 0.000000
v 0.528620 0.080466 0.022763
v 0.528620 0.076112 0.021442
v 0.528620 0.072100 0.019297
v 0.528620 0.068583 0.016411
v 0.528620 0.065697 0.012894
v 0.528620 0.063552 0.008882
v 0.528620 0.062231 0.004528
v 0.528620 0.061785 0.000000
v 0.534204 0.080878 0.020689
v 0.534204 0.076921 0.019488
v 0.534204 0.073274 0.017539
v 0.534204 0.070078 0.014916
v 0.534204 0.067455 0.011719
v 0.534204 0.065505 0.008072
v 0.534204 0.064305 0.004115
v 0.534204 0.063900 0.000000
v 0.539689 0.081841 0.015849
v 0.539689 0.078810 0.014930
v 0.539689 0.076016 0.013436
v 0.539689 0.073567 0.011427
v 0.539689 0.071557 0.008978
v 0.539689 0.070064 0.006184
v 0.539689 0.069144 0.003153
v 0.539689 0.068834 0.000000
v 0.540612 0.081841 0.015849
v 0.540612 0.078810 0.014930
v 0.540612 0.076016 0.013436
v 0.540612 0.073567 0.011427
v 0.540612 0.071557 0.008978
v 0.540612 0.070064 0.006184
v 0.540612 0.069144 0.003153
v 0.540612 0.068834 0.000000
v 0.540612 0.082075 0.014673
v 0.540612 0.079269 0.013822
v 0.540612 0.076682 0.012439
v 0.540612 0.074415 0.010579
v 0.540612 0.072555 0.008312
v 0.540612 0.071172 0.005725
v 0.540612 0.070321 0.002919
v 0.540612 0.070033 0.000000
v 0.539876 0.082075 0.014673
v 0.539876 0.079269 0.013822
v 0.539876 0.076682 0.012439
v 0.539876 0.074415 0.010579
v 0.539876 0.072555 0.008312
v 0.539876 0.071172 0.005725
v 0.539876 0.070321 0.002919
v 0.539876 0.070033 0.000000
v 0.539876 0.081219 0.005126
v 0.539876 0.079146 0.000000
v 0.513394 0.084994 -0.021610
v 0.513394 0.089210 -0.021195
v 0.513394 0.093264 -0.019965
v 0.513394 0.097000 -0.017968
v 0.513394 0.100274 -0.015281
v 0.513394 0.102962 -0.012006
v 0.513394 0.104959 -0.008270
v 0.513394 0.106189 -0.004216
v 0.507675 0.084994 -0.023731
v 0.507675 0.089623 -0.023275
v 0.507675 0.094075 -0.021925
v 0.507675 0.098178 -0.019732
v 0.507675 0.101774 -0.016780
v 0.507675 0.104725 -0.013184
v 0.507675 0.106918 -0.009082
v 0.507675 0.108269 -0.004630
v 0.513394 0.084994 -0.018911
v 0.513394 0.088683 -0.018547
v 0.513394 0.092231 -0.017471
v 0.513394 0.095500 -0.015724
v 0.513394 0.098366 -0.013372
v 0.513394 0.100717 -0.010506
v 0.513394 0.102465 -0.007237
v 0.513394 0.103541 -0.003689
v 0.520973 0.084994 -0.016241
v 0.520973 0.088162 -0.015929
v 0.520973 0.091209 -0.015005
v 0.520973 0.094017 -0.013504
v 0.520973 0.096478 -0.011484
v 0.520973 0.098498 -0.009023
v 0.520973 0.099998 -0.006215
v 0.520973 0.100923 -0.003168
v 0.528620 0.084994 -0.016725
v 0.528620 0.088257 -0.016404
v 0.528620 0.091394 -0.015452
v 0.528620 0.094286 -0.013907
v 0.528620 0.096820 -0.011827
v 0.528620 0.098900 -0.009292
v 0.528620 0.100446 -0.006400
v 0.528620 0.101398 -0.003263
v 0.528620 0.084994 -0.023209
v 0.528620 0.089521 -0.022763
v 0.528620 0.093875 -0.021442
v 0.528620 0.097888 -0.019297
v 0.528620 0.101405 -0.016411
v 0.528620 0.104291 -0.012894
v 0.528620 0.106436 -0.008882
v 0.528620 0.107756 -0.004528
v 0.534204 0.084994 -0.021094
v 0.534204 0.089109 -0.020689
v 0.534204 0.093066 -0.019488
v 0.534204 0.096713 -0.017539
v 0.534204 0.099910 -0.014916
v 0.534204 0.102533 -0.011719
v 0.534204 0.104482 -0.008072
v 0.534204 0.105683 -0.004115
v 0.539689 0.084994 -0.016160
v 0.539689 0.088146 -0.015849
v 0.539689 0.091178 -0.014930
v 0.539689 0.093972 -0.013436
v 0.539689 0.096420 -0.011427
v 0.539689 0.098430 -0.008978
v 0.539689 0.099923 -0.006184
v 0.539689 0.100843 -0.003153
v 0.540612 0.084994 -0.016160
v 0.540612 0.088146 -0.015849
v 0.540612 0.091178 -0.014930
v 0.540612 0.093972 -0.013436
v 0.540612 0.096420 -0.011427
v 0.540612 0.098430 -0.008978
v 0.540612 0.099923 -0.006184
v 0.540612 0.100843 -0.003153
v 0.540612 0.084994 -0.014960
v 0.540612 0.087912 -0.014673
v 0.540612 0.090719 -0.013822
v 0.540612 0.093305 -0.012439
v 0.540612 0.095572 -0.010579
v 0.540612 0.097433 -0.008312
v 0.540612 0.098815 -0.005725
v 0.540612 0.099667 -0.002919
v 0.539876 0.084994 -0.014960
v 0.539876 0.087912 -0.014673
v 0.539876 0.090719 -0.013822
v 0.539876 0.093305 -0.012439
v 0.539876 0.095572 -0.010579
v 0.539876 0.097433 -0.008312
v 0.539876 0.098815 -0.005725
v 0.539876 0.099667 -0.002919
v 0.539876 0.084994 -0.005740
v 0.539876 0.088768 -0.005126
v 0.513394 0.080778 -0.021195
v 0.513394 0.076724 -0.019965
v 0.513394 0.072988 -0.017968
v 0.513394 0.069713 -0.015281
v 0.513394 0.067025 -0.012006
v 0.513394 0.065028 -0.008270
v 0.513394 0.063799 -0.004216
v 0.507675 0.080364 -0.023275
v 0.507675 0.075912 -0.021925
v 0.507675 0.071809 -0.019732
v 0.507675 0.068213 -0.016780
v 0.507675 0.065262 -0.013184
v 0.507675 0.063069 -0.009082
v 0.507675 0.061719 -0.004630
v 0.513394 0.081304 -0.018547
v 0.513394 0.077757 -0.017471
v 0.513394 0.074487 -0.015724
v 0.513394 0.071622 -0.013372
v 0.513394 0.069270 -0.010506
v 0.513394 0.067522 -0.007237
v 0.513394 0.066446 -0.003689
v 0.520973 0.081825 -0.015929
v 0.520973 0.078779 -0.015005
v 0.520973 0.075971 -0.013504
v 0.520973 0.073510 -0.011484
v 0.520973 0.071490 -0.009023
v 0.520973 0.069989 -0.006215
v 0.520973 0.069065 -0.003168
v 0.528620 0.081731 -0.016404
v 0.528620 0.078593 -0.015452
v 0.528620 0.075702 -0.013907
v 0.528620 0.073167 -0.011827
v 0.528620 0.071087 -0.009292
v 0.528620 0.069542 -0.006400
v 0.528620 0.068590 -0.003263
v 0.528620 0.080466 -0.022763
v 0.528620 0.076112 -0.021442
v 0.528620 0.072100 -0.019297
v 0.528620 0.068583 -0.016411
v 0.528620 0.065697 -0.012894
v 0.528620 0.063552 -0.008882
v 0.528620 0.062231 -0.004528
v 0.534204 0.080878 -0.020689
v 0.534204 0.076921 -0.019488
v 0.534204 0.073274 -0.017539
v 0.534204 0.070078 -0.014916
v 0.534204 0.067455 -0.011719
v 0.534204 0.065505 -0.008072
v 0.534204 0.064305 -0.004115
v 0.539689 0.081841 -0.015849
v 0.539689 0.078810 -0.014930
v 0.539689 0.076016 -0.013436
v 0.539689 0.073567 -0.011427
v 0.539689 0.071557 -0.008978
v 0.539689 0.070064 -0.006184
v 0.539689 0.069144 -0.003153
v 0.540612 0.081841 -0.015849
v 0.540612 0.078810 -0.014930
v 0.540612 0.076016 -0.013436
v 0.540612 0.073567 -0.011427
v 0.540612 0.071557 -0.008978
v 0.540612 0.070064 -0.006184
v 0.540612 0.069144 -0.003153
v 0.540612 0.082075 -0.014673
v 0.540612 0.079269 -0.013822
v 0.540612 0.076682 -0.012439
v 0.540612 0.074415 -0.010579
v 0.540612 0.072555 -0.008312
v 0.540612 0.071172 -0.005725
v 0.540612 0.070321 -0.002919
v 0.539876 0.082075 -0.014673
v 0.539876 0.079269 -0.013822
v 0.539876 0.076682 -0.012439
v 0.539876 0.074415 -0.010579
v 0.539876 0.072555 -0.008312
v 0.539876 0.071172 -0.005725
v 0.539876 0.070321 -0.002919
v 0.539876 0.081219 -0.005126
v 0.440748 -0.007930 0.374636
v 0.440748 0.177982 0.374636
v 0.468691 -0.007930 0.362700
v 0.468691 0.177982 0.362700
v 0.440748 -0.007930 0.330561
v 0.440748 0.177982 0.330561
v 0.495842 -0.007930 0.330561
v 0.495842 0.177982 0.330561
v 0.440748 0.170051 0.374636
v 0.440748 0.000000 0.374636
v 0.476503 0.154659 0.352300
v 0.476503 0.015393 0.352300
v 0.495842 0.154659 0.330561
v 0.495842 0.015393 0.330561
v -0.440748 0.000000 0.330561
v -0.440748 0.170051 0.330561
v 0.440748 0.000000 0.330561
v 0.440748 0.170051 0.330561
v -0.396673 0.170051 0.286486
v 0.396673 0.170051 0.286486
v -0.396673 0.034010 0.286486
v 0.396673 0.034010 0.286486
v 0.501315 0.176904 0.330561
v 0.487533 0.176904 0.352299
v 0.487533 0.000000 0.352300
v 0.487533 -0.007930 0.352300
v 0.501315 -0.007930 0.330561
v 0.501315 0.000000 0.330561
v 0.487533 0.171129 0.352300
v 0.501315 0.171129 0.330561
v 0.507560 0.133725 -0.302932
v 0.507560 0.036326 -0.302932
v 0.440748 -0.007930 -0.374636
v 0.440748 0.177982 -0.374636
v 0.468691 -0.007930 -0.362700
v 0.468691 0.177982 -0.362700
v 0.440748 -0.007930 -0.330561
v 0.440748 0.177982 -0.330561
v 0.495842 -0.007930 -0.330561
v 0.495842 0.177982 -0.330561
v 0.440748 0.170051 -0.374636
v 0.440748 0.000000 -0.374636
v 0.476503 0.154659 -0.352300
v 0.476503 0.015393 -0.352300
v 0.495842 0.154659 -0.330561
v 0.495842 0.015393 -0.330561
v -0.440748 0.000000 -0.330561
v -0.440748 0.170051 -0.330561
v 0.440748 0.000000 -0.330561
v 0.440748 0.170051 -0.330561
v -0.396673 0.170051 -0.286486
v 0.396673 0.170051 -0.286486
v -0.396673 0.034010 -0.286486
v 0.396673 0.034010 -0.286486
v 0.501315 0.176904 -0.330561
v 0.487533 0.176904 -0.352299
v 0.487533 0.000000 -0.352300
v 0.487533 -0.007930 -0.352300
v 0.501315 -0.007930 -0.330561
v 0.501315 0.000000 -0.330561
v 0.487533 0.171129 -0.352300
v 0.501315 0.171129 -0.330561
v 0.507560 0.036326 0.302932
v 0.507560 0.133725 0.302932
v 0.468691 0.000000 0.362700
v 0.468691 0.170824 0.362700
v 0.468691 0.170824 -0.362700
v 0.468691 -0.000000 -0.362700
v 0.440748 0.154659 0.330561
v 0.440748 0.015393 0.330561
v -0.440748 0.015393 0.330561
v -0.440748 0.154659 0.330561
v 0.454720 0.154659 0.362701
v 0.454720 0.015393 0.362701
v 0.440748 0.154659 0.374636
v 0.440748 0.015393 0.374636
v 0.440748 0.154659 -0.330561
v 0.440748 0.015393 -0.330561
v -0.440748 0.015393 -0.330561
v -0.440748 0.154659 -0.330561
v 0.454720 0.154659 -0.362701
v 0.454720 0.015393 -0.362701
v 0.440748 0.154659 -0.374636
v 0.440748 0.015393 -0.374636
vn 0.3478 -0.0000 0.9376
vn 0.7690 -0.0000 0.6393
vn 0.7670 0.0888 0.6355
vn 0.3472 0.2375 0.9072
vn 0.7594 0.2038 0.6179
vn 0.3469 0.4245 0.8364
vn 0.7447 0.3252 0.5828
vn 0.3467 0.5843 0.7338
vn 0.7219 0.4474 0.5279
vn 0.3466 0.7181 0.6035
vn 0.6902 0.5666 0.4502
vn 0.3466 0.8226 0.4507
vn 0.6479 0.6785 0.3461
vn 0.3466 0.8947 0.2819
vn 0.5772 0.7897 0.2079
vn 0.3467 0.9319 0.1066
vn 0.4148 0.9099 -0.0000
vn 0.3478 0.9376 -0.0000
vn 0.6291 0.7723 0.0884
vn 0.6211 0.7474 0.2356
vn 0.1017 0.8974 0.4293
vn 0.0685 0.9723 0.2233
vn 0.7644 -0.0000 0.6448
vn 0.7582 0.1644 0.6309
vn 0.7437 0.3021 0.5964
vn 0.7214 0.4311 0.5420
vn 0.6912 0.5530 0.4652
vn 0.6551 0.6625 0.3632
vn 0.8899 0.4561 -0.0000
vn 0.0397 0.9992 -0.0000
vn 0.1334 -0.0000 0.9911
vn 0.1324 0.1602 0.9782
vn 0.1305 0.3350 0.9331
vn 0.1278 0.5047 0.8538
vn 0.1237 0.6594 0.7416
vn 0.1163 0.7920 0.5993
vn -0.6337 -0.0000 0.7736
vn -0.6258 0.1657 0.7622
vn -0.6016 0.3299 0.7275
vn -0.5597 0.4909 0.6677
vn -0.4978 0.6455 0.5793
vn -0.4136 0.7866 0.4585
vn -0.3080 0.9017 0.3035
vn -0.2035 0.9718 0.1191
vn -0.3700 0.9290 -0.0000
vn -0.4177 -0.0000 0.9086
vn -0.4015 0.2324 0.8859
vn -0.3624 0.4221 0.8310
vn -0.3039 0.5936 0.7452
vn -0.2282 0.7454 0.6263
vn -0.1427 0.8681 0.4755
vn -0.0626 0.9519 0.2999
vn -0.0110 0.9935 0.1136
vn -0.0021 1.0000 -0.0000
vn 0.5117 -0.0000 0.8591
vn 0.5123 0.1650 0.8428
vn 0.5121 0.3225 0.7961
vn 0.5102 0.4701 0.7202
vn 0.5062 0.6015 0.6180
vn 0.4990 0.7121 0.4938
vn 0.4873 0.7994 0.3513
vn 0.4625 0.8656 0.1917
vn 0.3906 0.9205 -0.0000
vn 0.3206 0.3369 0.8853
vn 0.3286 0.1593 0.9309
vn 0.5909 0.1589 0.7910
vn 0.5672 0.3182 0.7596
vn 0.3319 -0.0000 0.9433
vn 0.3070 0.5071 0.8054
vn 0.2856 0.6620 0.6929
vn 0.2522 0.7964 0.5497
vn 0.1996 0.9048 0.3761
vn 0.1180 0.9791 0.1657
vn 0.1223 0.9925 -0.0000
vn 0.3749 0.7781 0.5040
vn 0.4628 0.6328 0.6207
vn 0.4686 -0.6306 -0.6186
vn 0.3833 -0.7752 -0.5021
vn 0.5257 0.4772 0.7042
vn 0.2583 0.9007 0.3493
vn 0.1106 0.9822 0.1519
vn 0.0318 0.9995 -0.0000
vn 0.5985 -0.0000 0.8011
vn 0.1422 -0.9898 -0.0000
vn 0.1391 -0.9786 -0.1513
vn 0.1106 -0.9822 -0.1519
vn 0.0318 -0.9995 -0.0000
vn 0.2720 -0.8972 -0.3479
vn 0.6015 -0.0000 -0.7989
vn 0.5940 -0.1585 -0.7887
vn 0.5708 -0.3172 -0.7573
vn 0.5300 -0.4756 -0.7020
vn 0.5985 -0.0000 -0.8011
vn 0.5908 -0.1589 -0.7910
vn 0.5673 -0.3182 -0.7596
vn 0.5257 -0.4772 -0.7043
vn 0.4628 -0.6328 -0.6207
vn 0.3749 -0.7781 -0.5040
vn 0.2583 -0.9007 -0.3493
vn 1.0000 -0.0000 -0.0000
vn 0.3472 -0.2375 0.9072
vn 0.7670 -0.0888 0.6355
vn 0.3469 -0.4245 0.8364
vn 0.7594 -0.2038 0.6179
vn 0.3467 -0.5843 0.7337
vn 0.7447 -0.3252 0.5828
vn 0.3466 -0.7181 0.6035
vn 0.7219 -0.4474 0.5279
vn 0.3466 -0.8226 0.4507
vn 0.6902 -0.5666 0.4502
vn 0.3466 -0.8947 0.2819
vn 0.6479 -0.6785 0.3461
vn 0.3467 -0.9319 0.1066
vn 0.5772 -0.7897 0.2079
vn 0.3478 -0.9376 -0.0000
vn 0.4148 -0.9099 -0.0000
vn 0.6291 -0.7723 0.0883
vn 0.0685 -0.9723 0.2233
vn 0.1017 -0.8974 0.4293
vn 0.6211 -0.7474 0.2356
vn 0.7582 -0.1644 0.6309
vn 0.7437 -0.3021 0.5964
vn 0.7214 -0.4311 0.5420
vn 0.6912 -0.5530 0.4652
vn 0.6551 -0.6625 0.3632
vn 0.8899 -0.4561 -0.0000
vn 0.0397 -0.9992 -0.0000
vn 0.1324 -0.1602 0.9782
vn 0.1305 -0.3350 0.9331
vn 0.1278 -0.5047 0.8538
vn 0.1237 -0.6594 0.7416
vn 0.1163 -0.7920 0.5993
vn -0.6258 -0.1657 0.7622
vn -0.6016 -0.3299 0.7275
vn -0.5597 -0.4909 0.6677
vn -0.4978 -0.6455 0.5793
vn -0.4136 -0.7866 0.4585
vn -0.3080 -0.9017 0.3035
vn -0.2035 -0.9718 0.1191
vn -0.3700 -0.9290 -0.0000
vn -0.4015 -0.2324 0.8859
vn -0.3624 -0.4221 0.8310
vn -0.3039 -0.5936 0.7452
vn -0.2282 -0.7454 0.6263
vn -0.1427 -0.8681 0.4755
vn -0.0626 -0.9519 0.2999
vn -0.0110 -0.9935 0.1136
vn -0.0021 -1.0000 -0.0000
vn 0.5123 -0.1650 0.8428
vn 0.5121 -0.3225 0.7961
vn 0.5102 -0.4701 0.7202
vn 0.5062 -0.6015 0.6180
vn 0.4990 -0.7121 0.4938
vn 0.4873 -0.7994 0.3513
vn 0.4625 -0.8656 0.1918
vn 0.3906 -0.9205 -0.0000
vn 0.3206 -0.3369 0.8853
vn 0.5673 -0.3182 0.7596
vn 0.5908 -0.1589 0.7910
vn 0.3286 -0.1593 0.9309
vn 0.3070 -0.5071 0.8054
vn 0.2856 -0.6620 0.6929
vn 0.2522 -0.7964 0.5497
vn 0.1996 -0.9048 0.3761
vn 0.1180 -0.9791 0.1657
vn 0.1223 -0.9925 -0.0000
vn 0.3749 -0.7781 0.5040
vn 0.3833 0.7752 -0.5021
vn 0.4687 0.6306 -0.6186
vn 0.4628 -0.6328 0.6207
vn 0.5257 -0.4772 0.7043
vn 0.2583 -0.9007 0.3493
vn 0.1106 -0.9822 0.1519
vn 0.1422 0.9898 -0.0000
vn 0.1106 0.9822 -0.1519
vn 0.1392 0.9786 -0.1513
vn 0.2720 0.8972 -0.3479
vn 0.5940 0.1585 -0.7887
vn 0.5708 0.3172 -0.7573
vn 0.5300 0.4756 -0.7020
vn 0.5908 0.1589 -0.7910
vn 0.5673 0.3182 -0.7596
vn 0.5257 0.4772 -0.7043
vn 0.4628 0.6328 -0.6207
vn 0.3749 0.7781 -0.5040
vn 0.2583 0.9007 -0.3493
vn 0.3478 -0.0000 -0.9376
vn 0.3472 0.2375 -0.9072
vn 0.7670 0.0888 -0.6355
vn 0.7690 -0.0000 -0.6393
vn 0.3469 0.4245 -0.8364
vn 0.7594 0.2038 -0.6179
vn 0.3467 0.5843 -0.7338
vn 0.7447 0.3252 -0.5828
vn 0.3466 0.7181 -0.6035
vn 0.7219 0.4474 -0.5279
vn 0.3466 0.8226 -0.4507
vn 0.6901 0.5666 -0.4502
vn 0.3466 0.8947 -0.2819
vn 0.6479 0.6785 -0.3462
vn 0.3467 0.9319 -0.1066
vn 0.5772 0.7897 -0.2079
vn 0.6291 0.7723 -0.0884
vn 0.0685 0.9723 -0.2233
vn 0.1017 0.8974 -0.4293
vn 0.6211 0.7474 -0.2356
vn 0.7582 0.1644 -0.6309
vn 0.7644 -0.0000 -0.6448
vn 0.7437 0.3021 -0.5964
vn 0.7214 0.4311 -0.5420
vn 0.6912 0.5530 -0.4652
vn 0.6551 0.6625 -0.3632
vn 0.1324 0.1602 -0.9782
vn 0.1334 -0.0000 -0.9911
vn 0.1305 0.3350 -0.9331
vn 0.1278 0.5047 -0.8538
vn 0.1237 0.6594 -0.7416
vn 0.1163 0.7920 -0.5993
vn -0.6258 0.1657 -0.7622
vn -0.6337 -0.0000 -0.7736
vn -0.6016 0.3299 -0.7275
vn -0.5597 0.4909 -0.6677
vn -0.4978 0.6455 -0.5793
vn -0.4136 0.7866 -0.4585
vn -0.3080 0.9017 -0.3035
vn -0.2035 0.9718 -0.1191
vn -0.4015 0.2324 -0.8859
vn -0.4177 -0.0000 -0.9086
vn -0.3624 0.4221 -0.8310
vn -0.3039 0.5936 -0.7452
vn -0.2282 0.7454 -0.6263
vn -0.1427 0.8681 -0.4755
vn -0.0626 0.9519 -0.2999
vn -0.0110 0.9935 -0.1136
vn 0.5123 0.1650 -0.8428
vn 0.5117 -0.0000 -0.8591
vn 0.5121 0.3225 -0.7961
vn 0.5102 0.4701 -0.7202
vn 0.5062 0.6015 -0.6180
vn 0.4990 0.7121 -0.4938
vn 0.4873 0.7994 -0.3513
vn 0.4625 0.8656 -0.1917
vn 0.3206 0.3369 -0.8853
vn 0.5672 0.3182 -0.7596
vn 0.5909 0.1589 -0.7910
vn 0.3286 0.1593 -0.9309
vn 0.3319 -0.0000 -0.9433
vn 0.3070 0.5071 -0.8054
vn 0.2856 0.6620 -0.6929
vn 0.2522 0.7964 -0.5497
vn 0.1996 0.9048 -0.3761
vn 0.1180 0.9791 -0.1657
vn 0.3833 -0.7752 0.5021
vn 0.4687 -0.6306 0.6186
vn 0.1391 -0.9786 0.1513
vn 0.2720 -0.8972 0.3479
vn 0.5940 -0.1585 0.7887
vn 0.6015 -0.0000 0.7989
vn 0.5708 -0.3172 0.7573
vn 0.5300 -0.4756 0.7020
vn 0.7670 -0.0888 -0.6355
vn 0.3472 -0.2375 -0.9072
vn 0.7594 -0.2038 -0.6179
vn 0.3469 -0.4245 -0.8364
vn 0.7447 -0.3252 -0.5828
vn 0.3467 -0.5843 -0.7337
vn 0.7219 -0.4474 -0.5279
vn 0.3466 -0.7181 -0.6035
vn 0.6902 -0.5666 -0.4502
vn 0.3466 -0.8226 -0.4507
vn 0.6479 -0.6785 -0.3461
vn 0.3466 -0.8947 -0.2819
vn 0.5772 -0.7897 -0.2079
vn 0.3467 -0.9319 -0.1066
vn 0.6291 -0.7723 -0.0884
vn 0.6211 -0.7474 -0.2356
vn 0.1017 -0.8974 -0.4293
vn 0.0685 -0.9723 -0.2233
vn 0.7582 -0.1644 -0.6309
vn 0.7437 -0.3021 -0.5964
vn 0.7214 -0.4311 -0.5420
vn 0.6912 -0.5530 -0.4652
vn 0.6551 -0.6625 -0.3632
vn 0.1324 -0.1602 -0.9782
vn 0.1305 -0.3350 -0.9331
vn 0.1278 -0.5047 -0.8538
vn 0.1237 -0.6594 -0.7416
vn 0.1163 -0.7920 -0.5993
vn -0.6258 -0.1657 -0.7622
vn -0.6016 -0.3299 -0.7275
vn -0.5597 -0.4909 -0.6677
vn -0.4978 -0.6455 -0.5793
vn -0.4136 -0.7866 -0.4585
vn -0.3080 -0.9017 -0.3035
vn -0.2035 -0.9718 -0.1191
vn -0.4015 -0.2324 -0.8859
vn -0.3624 -0.4221 -0.8310
vn -0.3039 -0.5936 -0.7452
vn -0.2282 -0.7454 -0.6263
vn -0.1427 -0.8681 -0.4755
vn -0.0626 -0.9519 -0.2999
vn -0.0110 -0.9935 -0.1136
vn 0.5123 -0.1650 -0.8428
vn 0.5121 -0.3225 -0.7961
vn 0.5102 -0.4701 -0.7202
vn 0.5062 -0.6015 -0.6180
vn 0.4990 -0.7121 -0.4938
vn 0.4873 -0.7994 -0.3513
vn 0.4625 -0.8656 -0.1918
vn 0.3206 -0.3369 -0.8853
vn 0.3286 -0.1593 -0.9309
vn 0.3070 -0.5071 -0.8054
vn 0.2856 -0.6620 -0.6929
vn 0.2522 -0.7964 -0.5497
vn 0.1996 -0.9048 -0.3761
vn 0.1180 -0.9791 -0.1657
vn 0.4686 0.6306 0.6186
vn 0.3833 0.7752 0.5021
vn 0.1392 0.9786 0.1513
vn 0.2720 0.8972 0.3479
vn 0.5940 0.1585 0.7887
vn 0.5708 0.3173 0.7573
vn 0.5300 0.4756 0.7020
vn 0.5908 0.1589 0.7910
vn 0.5673 0.3182 0.7596
vn 0.5257 0.4772 0.7043
vn -0.0000 1.0000 -0.0000
vn 0.3928 -0.0000 -0.9196
vn 0.4833 -0.0000 0.8755
vn -0.0000 -1.0000 -0.0000
vn 0.3928 -0.0000 0.9196
vn 0.4309 -0.0000 -0.9024
vn 0.9422 0.3350 -0.0000
vn -0.0000 -0.0000 -1.0000
vn -1.0000 -0.0000 -0.0000
vn 0.4833 -0.0000 -0.8755
vn -0.0000 -0.0000 1.0000
vn 0.7471 -0.0000 0.6647
vn 0.8446 -0.0000 0.5354
vn 0.7317 0.3922 0.5574
vn 0.7390 -0.3702 0.5629
vn 0.1296 0.9867 0.0984
vn 0.1932 0.9812 -0.0000
vn 0.9490 -0.3154 -0.0000
vn 0.4274 0.3471 0.8348
vn 0.9206 -0.0000 0.3905
vn 0.8446 -0.0000 -0.5354
vn 0.7317 0.3923 -0.5574
vn 0.7390 -0.3702 -0.5629
vn 0.1296 0.9867 -0.0984
vn 0.7471 -0.0000 -0.6647
vn 0.8726 -0.4885 -0.0000
vn 0.8726 0.4885 -0.0000
vn 0.4320 -0.3310 -0.8389
vn 0.4309 -0.0000 0.9024
vn 0.4320 -0.3310 0.8389
vn 0.9206 -0.0000 -0.3905
vn 0.4274 0.3471 -0.8348
vn 0.6495 -0.0000 0.7603
vn 0.6495 -0.0000 -0.7603
vn 0.4863 -0.2153 0.8469
vn 0.4828 0.2191 0.8478
vn 0.4863 -0.2153 -0.8469
vn 0.4828 0.2191 -0.8478
vt 0.765562 0.875871
vt 0.774718 0.875863
vt 0.781149 0.891040
vt 0.773184 0.892577
vt 0.793296 0.904832
vt 0.788013 0.907594
vt 0.808933 0.916499
vt 0.806296 0.920191
vt 0.825350 0.926801
vt 0.821001 0.932654
vt 0.838280 0.938311
vt 0.824819 0.948273
vt 0.846656 0.949929
vt 0.833206 0.964290
vt 0.858418 0.958494
vt 0.853564 0.975761
vt 0.874463 0.961604
vt 0.875541 0.979844
vt 0.862360 0.941303
vt 0.851018 0.935624
vt 0.846342 0.925112
vt 0.860052 0.928028
vt 0.779903 0.875859
vt 0.785189 0.889140
vt 0.794873 0.901327
vt 0.807349 0.911904
vt 0.821542 0.920670
vt 0.836522 0.928251
vt 0.873389 0.943448
vt 0.872527 0.928876
vt 0.791907 0.875848
vt 0.796003 0.887210
vt 0.803199 0.897730
vt 0.812235 0.907032
vt 0.822740 0.914851
vt 0.834159 0.920819
vt 0.802820 0.875839
vt 0.806905 0.887458
vt 0.813955 0.898221
vt 0.822797 0.907773
vt 0.833600 0.915786
vt 0.845957 0.921743
vt 0.859136 0.925857
vt 0.869773 0.927871
vt 0.872482 0.928102
vt 0.814991 0.875829
vt 0.821213 0.891751
vt 0.832951 0.906221
vt 0.847644 0.918374
vt 0.861055 0.926998
vt 0.869030 0.932646
vt 0.871359 0.936016
vt 0.871900 0.937840
vt 0.873093 0.938456
vt 0.823898 0.875822
vt 0.828981 0.890274
vt 0.838328 0.903452
vt 0.849500 0.914881
vt 0.860371 0.923440
vt 0.868292 0.929227
vt 0.872790 0.932926
vt 0.873521 0.935004
vt 0.872929 0.935673
vt 0.845221 0.897096
vt 0.839294 0.886899
vt 0.840550 0.886902
vt 0.846382 0.897061
vt 0.836080 0.875811
vt 0.852205 0.906172
vt 0.858984 0.913906
vt 0.864476 0.919747
vt 0.868126 0.923588
vt 0.870573 0.925524
vt 0.872363 0.926108
vt 0.864595 0.919735
vt 0.859336 0.913799
vt 0.859344 0.911070
vt 0.864118 0.916735
vt 0.853065 0.906097
vt 0.868011 0.923697
vt 0.870408 0.925503
vt 0.872360 0.926047
vt 0.837552 0.875810
vt 0.872238 0.923979
vt 0.871066 0.923287
vt 0.871413 0.923353
vt 0.872244 0.924098
vt 0.868641 0.920841
vt 0.839978 0.875808
vt 0.842448 0.886099
vt 0.847654 0.895516
vt 0.853633 0.903890
vt 0.841192 0.875807
vt 0.843449 0.886104
vt 0.848601 0.895492
vt 0.854375 0.903827
vt 0.859789 0.910984
vt 0.864197 0.916660
vt 0.868827 0.920819
vt 0.861394 0.888999
vt 0.858558 0.875792
vt 0.870567 0.895736
vt 0.869388 0.875783
vt 0.771207 0.859153
vt 0.779354 0.860676
vt 0.784259 0.844113
vt 0.789868 0.846866
vt 0.801051 0.831486
vt 0.804124 0.835173
vt 0.814280 0.819000
vt 0.819321 0.824844
vt 0.816251 0.803375
vt 0.830889 0.813314
vt 0.822743 0.787346
vt 0.837890 0.801683
vt 0.841742 0.775842
vt 0.848638 0.793100
vt 0.863235 0.771723
vt 0.864313 0.789962
vt 0.854613 0.810282
vt 0.853875 0.823559
vt 0.840511 0.826498
vt 0.843943 0.815980
vt 0.783618 0.862569
vt 0.791859 0.850368
vt 0.803083 0.839770
vt 0.816239 0.830982
vt 0.830321 0.823376
vt 0.865386 0.808118
vt 0.866248 0.822691
vt 0.794660 0.864481
vt 0.800610 0.853950
vt 0.808545 0.844634
vt 0.818124 0.836798
vt 0.828837 0.830811
vt 0.805530 0.864215
vt 0.811306 0.853441
vt 0.819018 0.843875
vt 0.828873 0.835845
vt 0.840524 0.829868
vt 0.853215 0.825732
vt 0.863613 0.823700
vt 0.866294 0.823465
vt 0.819329 0.859898
vt 0.829355 0.845410
vt 0.842610 0.833233
vt 0.854999 0.824587
vt 0.862306 0.818927
vt 0.864236 0.815553
vt 0.864561 0.813728
vt 0.865682 0.813111
vt 0.827271 0.861362
vt 0.835060 0.848170
vt 0.844879 0.836723
vt 0.854737 0.828146
vt 0.861972 0.822347
vt 0.866033 0.818641
vt 0.866518 0.816562
vt 0.865847 0.815894
vt 0.842703 0.854513
vt 0.843867 0.854546
vt 0.839238 0.864714
vt 0.837983 0.864719
vt 0.848613 0.845426
vt 0.854476 0.837682
vt 0.859277 0.831832
vt 0.862473 0.827986
vt 0.864690 0.826045
vt 0.866412 0.825458
vt 0.859397 0.831844
vt 0.859276 0.834845
vt 0.855172 0.840516
vt 0.854841 0.837788
vt 0.849482 0.845500
vt 0.862345 0.827876
vt 0.864528 0.826067
vt 0.866416 0.825520
vt 0.866538 0.827588
vt 0.866531 0.827469
vt 0.865788 0.828215
vt 0.865448 0.828281
vt 0.863312 0.830731
vt 0.841231 0.865514
vt 0.845323 0.856089
vt 0.850310 0.847706
vt 0.842231 0.865507
vt 0.846272 0.856111
vt 0.851059 0.847767
vt 0.855627 0.840602
vt 0.859364 0.834920
vt 0.863501 0.830753
vt 0.859831 0.862582
vt 0.868207 0.855830
vt 0.973213 0.875696
vt 0.967569 0.892413
vt 0.959421 0.890890
vt 0.964057 0.875703
vt 0.954517 0.907454
vt 0.948907 0.904700
vt 0.937724 0.920080
vt 0.934651 0.916393
vt 0.924495 0.932567
vt 0.919455 0.926722
vt 0.922525 0.948191
vt 0.907887 0.938252
vt 0.916032 0.964220
vt 0.900885 0.949884
vt 0.897033 0.975724
vt 0.890138 0.958467
vt 0.884163 0.941285
vt 0.884900 0.928007
vt 0.898265 0.925069
vt 0.894832 0.935587
vt 0.955157 0.888997
vt 0.958872 0.875708
vt 0.946916 0.901199
vt 0.935692 0.911796
vt 0.922537 0.920585
vt 0.908455 0.928191
vt 0.944116 0.887085
vt 0.946868 0.875718
vt 0.938166 0.897617
vt 0.930231 0.906933
vt 0.920652 0.914768
vt 0.909938 0.920755
vt 0.933245 0.887352
vt 0.935956 0.875727
vt 0.927469 0.898126
vt 0.919757 0.907692
vt 0.909903 0.915722
vt 0.898251 0.921699
vt 0.885561 0.925835
vt 0.875163 0.927866
vt 0.919446 0.891669
vt 0.923784 0.875737
vt 0.909420 0.906157
vt 0.896166 0.918333
vt 0.883777 0.926979
vt 0.876470 0.932640
vt 0.874540 0.936013
vt 0.874214 0.937839
vt 0.911505 0.890205
vt 0.914878 0.875745
vt 0.903716 0.903397
vt 0.893897 0.914843
vt 0.884039 0.923420
vt 0.876804 0.929220
vt 0.872743 0.932926
vt 0.872257 0.935005
vt 0.896072 0.897053
vt 0.894908 0.897020
vt 0.899537 0.886852
vt 0.900793 0.886847
vt 0.902695 0.875755
vt 0.890162 0.906140
vt 0.884299 0.913884
vt 0.879498 0.919735
vt 0.876302 0.923581
vt 0.874085 0.925521
vt 0.879378 0.919723
vt 0.879500 0.916722
vt 0.883604 0.911050
vt 0.883933 0.913778
vt 0.889293 0.906066
vt 0.876431 0.923690
vt 0.874248 0.925500
vt 0.901223 0.875756
vt 0.872988 0.923352
vt 0.873327 0.923285
vt 0.875463 0.920835
vt 0.897545 0.886052
vt 0.898798 0.875758
vt 0.893453 0.895478
vt 0.888465 0.903861
vt 0.896544 0.886060
vt 0.897583 0.875759
vt 0.892503 0.895455
vt 0.887716 0.903799
vt 0.883149 0.910965
vt 0.879411 0.916647
vt 0.875275 0.920813
vt 0.878944 0.888984
vt 0.880218 0.875774
vt 0.957626 0.860526
vt 0.965592 0.858990
vt 0.945479 0.846735
vt 0.950763 0.843973
vt 0.929843 0.835068
vt 0.932480 0.831376
vt 0.913426 0.824765
vt 0.917775 0.818913
vt 0.900495 0.813256
vt 0.913957 0.803293
vt 0.892120 0.801637
vt 0.905569 0.787277
vt 0.880358 0.793073
vt 0.885212 0.775806
vt 0.876415 0.810263
vt 0.887758 0.815943
vt 0.892434 0.826454
vt 0.878723 0.823538
vt 0.953585 0.862426
vt 0.943902 0.850240
vt 0.931427 0.839662
vt 0.917234 0.830897
vt 0.902254 0.823315
vt 0.942772 0.864357
vt 0.935577 0.853836
vt 0.926541 0.844534
vt 0.916036 0.836716
vt 0.904616 0.830748
vt 0.931870 0.864108
vt 0.924821 0.853345
vt 0.915979 0.843793
vt 0.905175 0.835781
vt 0.892819 0.829824
vt 0.879640 0.825709
vt 0.869003 0.823696
vt 0.917562 0.859815
vt 0.905825 0.845345
vt 0.891131 0.833192
vt 0.877720 0.824568
vt 0.869746 0.818920
vt 0.867417 0.815550
vt 0.866876 0.813726
vt 0.909795 0.861292
vt 0.900447 0.848114
vt 0.889275 0.836686
vt 0.878404 0.828126
vt 0.870484 0.822340
vt 0.865985 0.818641
vt 0.865254 0.816563
vt 0.893555 0.854470
vt 0.899481 0.864668
vt 0.898226 0.864665
vt 0.892394 0.854505
vt 0.886570 0.845394
vt 0.879791 0.837661
vt 0.874300 0.831819
vt 0.870650 0.827979
vt 0.868202 0.826042
vt 0.874181 0.831831
vt 0.879439 0.837768
vt 0.879431 0.840496
vt 0.874657 0.834832
vt 0.885710 0.845470
vt 0.870765 0.827869
vt 0.868367 0.826064
vt 0.867710 0.828279
vt 0.867363 0.828213
vt 0.870135 0.830726
vt 0.896328 0.865468
vt 0.891121 0.856050
vt 0.885143 0.847677
vt 0.895326 0.865462
vt 0.890174 0.856074
vt 0.884401 0.847739
vt 0.878987 0.840582
vt 0.874578 0.834907
vt 0.869949 0.830748
vt 0.877382 0.862568
vt 0.996401 0.774484
vt 0.994773 0.758995
vt 0.989874 0.764257
vt 0.986464 0.775876
vt 0.733865 0.764919
vt 0.734338 0.754567
vt 0.757075 0.754575
vt 0.756593 0.764935
vt 0.034060 0.997954
vt 0.034522 0.988614
vt 0.051007 0.989021
vt 0.050660 0.996553
vt 0.993809 0.764565
vt 0.993809 0.777697
vt 0.985602 0.777697
vt 0.989647 0.768121
vt 0.993809 0.974678
vt 0.985602 0.974678
vt 0.984786 0.777697
vt 0.986840 0.771220
vt 0.986845 0.981270
vt 0.996401 0.982694
vt 0.011334 0.997945
vt 0.011884 0.987591
vt 0.739874 0.967498
vt 0.721585 0.967506
vt 0.721564 0.785045
vt 0.739848 0.785053
vt 0.073606 0.764911
vt 0.694704 0.764909
vt 0.696868 0.785044
vt 0.071443 0.785010
vt 0.748944 0.992052
vt 0.017221 0.992052
vt 0.017221 0.758570
vt 0.748944 0.758570
vt 0.025849 0.756983
vt 0.682799 0.756983
vt 0.649951 0.772817
vt 0.058696 0.772816
vt 0.682799 0.994486
vt 0.649951 0.978652
vt 0.997838 0.511012
vt 0.997839 0.741207
vt 0.008974 0.741207
vt 0.008974 0.511012
vt 0.234116 0.686396
vt 0.234116 0.627119
vt 0.808216 0.627119
vt 0.808216 0.686396
vt 0.700603 0.991681
vt 0.705562 0.981887
vt 0.749358 0.981958
vt 0.745916 0.991976
vt 0.717350 0.764910
vt 0.717800 0.754562
vt 0.752308 0.772390
vt 0.709006 0.772390
vt 0.709009 0.762617
vt 0.752314 0.762617
vt 0.068707 0.991700
vt 0.063781 0.981894
vt 0.258873 0.975235
vt 0.258873 0.996455
vt 0.011045 0.996455
vt 0.011045 0.975235
vt 0.071500 0.967472
vt 0.046803 0.967471
vt 0.046770 0.785011
vt 0.073650 0.989022
vt 0.073372 0.996560
vt 0.059424 0.772390
vt 0.059418 0.762617
vt 0.694751 0.989022
vt 0.695025 0.996548
vt 0.073227 0.754574
vt 0.050997 0.764912
vt 0.050544 0.754580
vt 0.695079 0.754555
vt 0.984026 0.767357
vt 0.982451 0.775292
vt 0.982677 0.981864
vt 0.751093 0.962933
vt 0.707749 0.962918
vt 0.808216 0.743478
vt 0.234116 0.743478
vt 0.234116 0.570037
vt 0.808216 0.570037
vt 0.058696 0.978652
vt 0.025849 0.994486
vt 0.696909 0.967507
vt 0.984786 0.974678
vt 0.756465 0.975235
vt 0.756465 0.996455
vt 0.508637 0.996455
vt 0.508637 0.975235
vt 0.990171 0.992818
vt 0.995011 0.997828
vt 0.028503 0.785019
vt 0.034511 0.764921
vt 0.734258 0.997940
vt 0.717688 0.996541
vt 0.717365 0.989020
vt 0.733823 0.988616
vt 0.993809 0.987810
vt 0.989647 0.984254
vt 0.986840 0.981155
vt 0.756947 0.997932
vt 0.756427 0.987594
vt 0.047544 0.482565
vt 0.047413 0.044382
vt 0.086386 0.110365
vt 0.086437 0.416670
vt 0.234116 0.510759
vt 0.808216 0.510759
vt 0.024122 0.991958
vt 0.019955 0.981976
vt 0.016123 0.772390
vt 0.016114 0.762617
vt 0.259841 0.975235
vt 0.507669 0.975235
vt 0.507669 0.996455
vt 0.259841 0.996455
vt 0.984361 0.989853
vt 0.017694 0.962924
vt 0.061062 0.962906
vt 0.937863 0.044382
vt 0.898919 0.110294
vt 0.937793 0.482564
vt 0.898875 0.416598
vt 0.011821 0.764936
vt 0.011334 0.754594
vt 0.034033 0.754586
vt 0.028499 0.967463
vt 0.059456 0.791357
vt 0.016162 0.791359
vt 0.259841 0.762026
vt 0.507669 0.762026
vt 0.507669 0.783246
vt 0.259841 0.783246
vt 0.756465 0.762026
vt 0.756465 0.783246
vt 0.508637 0.783246
vt 0.508637 0.762026
vt 0.752279 0.791359
vt 0.708983 0.791358
vt 0.258873 0.762026
vt 0.258873 0.783246
vt 0.011045 0.783246
vt 0.011045 0.762026
vt 0.013498 0.967458
vt 0.013515 0.785024
vt 0.754863 0.967494
vt 0.754849 0.785058
s 1
usemtl Material.005
f 10/1/1 1/2/2 2/3/3 11/4/4
f 11/4/4 2/3/3 3/5/5 12/6/6
f 12/6/6 3/5/5 4/7/7 13/8/8
f 13/8/8 4/7/7 5/9/9 14/10/10
f 14/10/10 5/9/9 6/11/11 15/12/12
f 15/12/12 6/11/11 7/13/13 16/14/14
f 16/14/14 7/13/13 8/15/15 17/16/16
f 17/16/16 8/15/15 9/17/17 18/18/18
f 26/19/19 25/20/20 34/21/21 35/22/22
f 2/3/3 1/2/2 19/23/23 20/24/24
f 3/5/5 2/3/3 20/24/24 21/25/25
f 4/7/7 3/5/5 21/25/25 22/26/26
f 5/9/9 4/7/7 22/26/26 23/27/27
f 6/11/11 5/9/9 23/27/27 24/28/28
f 7/13/13 6/11/11 24/28/28 25/20/20
f 8/15/15 7/13/13 25/20/20 26/19/19
f 9/17/17 8/15/15 26/19/19 27/29/29
f 27/29/29 26/19/19 35/22/22 36/30/30
f 20/24/24 19/23/23 28/31/31 29/32/32
f 21/25/25 20/24/24 29/32/32 30/33/33
f 22/26/26 21/25/25 30/33/33 31/34/34
f 23/27/27 22/26/26 31/34/34 32/35/35
f 24/28/28 23/27/27 32/35/35 33/36/36
f 25/20/20 24/28/28 33/36/36 34/21/21
f 29/32/32 28/31/31 37/37/37 38/38/38
f 30/33/33 29/32/32 38/38/38 39/39/39
f 31/34/34 30/33/33 39/39/39 40/40/40
f 32/35/35 31/34/34 40/40/40 41/41/41
f 33/36/36 32/35/35 41/41/41 42/42/42
f 34/21/21 33/36/36 42/42/42 43/43/43
f 35/22/22 34/21/21 43/43/43 44/44/44
f 36/30/30 35/22/22 44/44/44 45/45/45
f 38/38/38 37/37/37 46/46/46 47/47/47
f 39/39/39 38/38/38 47/47/47 48/48/48
f 40/40/40 39/39/39 48/48/48 49/49/49
f 41/41/41 40/40/40 49/49/49 50/50/50
f 42/42/42 41/41/41 50/50/50 51/51/51
f 43/43/43 42/42/42 51/51/51 52/52/52
f 44/44/44 43/43/43 52/52/52 53/53/53
f 45/45/45 44/44/44 53/53/53 54/54/54
f 47/47/47 46/46/46 55/55/55 56/56/56
f 48/48/48 47/47/47 56/56/56 57/57/57
f 49/49/49 48/48/48 57/57/57 58/58/58
f 50/50/50 49/49/49 58/58/58 59/59/59
f 51/51/51 50/50/50 59/59/59 60/60/60
f 52/52/52 51/51/51 60/60/60 61/61/61
f 53/53/53 52/52/52 61/61/61 62/62/62
f 54/54/54 53/53/53 62/62/62 63/63/63
f 66/64/64 65/65/65 74/66/66 75/67/67
f 56/56/56 55/55/55 64/68/68 65/65/65
f 57/57/57 56/56/56 65/65/65 66/64/64
f 58/58/58 57/57/57 66/64/64 67/69/69
f 59/59/59 58/58/58 67/69/69 68/70/70
f 60/60/60 59/59/59 68/70/70 69/71/71
f 61/61/61 60/60/60 69/71/71 70/72/72
f 62/62/62 61/61/61 70/72/72 71/73/73
f 63/63/63 62/62/62 71/73/73 72/74/74
f 78/75/75 77/76/76 86/77/77 87/78/78
f 67/69/69 66/64/64 75/67/67 76/79/79
f 68/70/70 67/69/69 76/79/79 77/76/76
f 69/71/71 68/70/70 77/76/76 78/75/75
f 70/72/72 69/71/71 78/75/75 79/80/80
f 71/73/73 70/72/72 79/80/80 80/81/81
f 72/74/74 71/73/73 80/81/81 81/82/82
f 65/65/65 64/68/68 73/83/83 74/66/66
f 90/84/84 89/85/85 98/86/86 99/87/87
f 79/80/80 78/75/75 87/78/78 88/88/88
f 80/81/81 79/80/80 88/88/88 89/85/85
f 81/82/82 80/81/81 89/85/85 90/84/84
f 74/66/66 73/83/83 82/89/89 83/90/90
f 75/67/67 74/66/66 83/90/90 84/91/91
f 76/79/79 75/67/67 84/91/91 85/92/92
f 77/76/76 76/79/79 85/92/92 86/77/77
f 83/90/90 82/89/89 91/93/93 92/94/94
f 84/91/91 83/90/90 92/94/94 93/95/95
f 85/92/92 84/91/91 93/95/95 94/96/96
f 86/77/77 85/92/92 94/96/96 95/97/97
f 87/78/78 86/77/77 95/97/97 96/98/98
f 88/88/88 87/78/78 96/98/98 97/99/99
f 89/85/85 88/88/88 97/99/99 98/86/86
f 92/94/94 102/100/100 94/96/96 93/95/95
f 101/101/100 102/100/100 92/94/94 91/93/93
f 94/96/96 102/100/100 96/98/98 95/97/97
f 96/98/98 102/100/100 98/86/86 97/99/99
f 98/86/86 102/100/100 103/102/100 99/87/87
f 103/102/100 102/100/100 101/101/100 100/103/100
f 10/1/1 112/104/101 104/105/102 1/2/2
f 112/104/101 113/106/103 105/107/104 104/105/102
f 113/106/103 114/108/105 106/109/106 105/107/104
f 114/108/105 115/110/107 107/111/108 106/109/106
f 115/110/107 116/112/109 108/113/110 107/111/108
f 116/112/109 117/114/111 109/115/112 108/113/110
f 117/114/111 118/116/113 110/117/114 109/115/112
f 118/116/113 119/118/115 111/119/116 110/117/114
f 126/120/117 134/121/118 133/122/119 125/123/120
f 104/105/102 120/124/121 19/23/23 1/2/2
f 105/107/104 121/125/122 120/124/121 104/105/102
f 106/109/106 122/126/123 121/125/122 105/107/104
f 107/111/108 123/127/124 122/126/123 106/109/106
f 108/113/110 124/128/125 123/127/124 107/111/108
f 109/115/112 125/123/120 124/128/125 108/113/110
f 110/117/114 126/120/117 125/123/120 109/115/112
f 111/119/116 127/129/126 126/120/117 110/117/114
f 127/129/126 135/130/127 134/121/118 126/120/117
f 120/124/121 128/131/128 28/31/31 19/23/23
f 121/125/122 129/132/129 128/131/128 120/124/121
f 122/126/123 130/133/130 129/132/129 121/125/122
f 123/127/124 131/134/131 130/133/130 122/126/123
f 124/128/125 132/135/132 131/134/131 123/127/124
f 125/123/120 133/122/119 132/135/132 124/128/125
f 128/131/128 136/136/133 37/37/37 28/31/31
f 129/132/129 137/137/134 136/136/133 128/131/128
f 130/133/130 138/138/135 137/137/134 129/132/129
f 131/134/131 139/139/136 138/138/135 130/133/130
f 132/135/132 140/140/137 139/139/136 131/134/131
f 133/122/119 141/141/138 140/140/137 132/135/132
f 134/121/118 142/142/139 141/141/138 133/122/119
f 135/130/127 143/143/140 142/142/139 134/121/118
f 136/136/133 144/144/141 46/46/46 37/37/37
f 137/137/134 145/145/142 144/144/141 136/136/133
f 138/138/135 146/146/143 145/145/142 137/137/134
f 139/139/136 147/147/144 146/146/143 138/138/135
f 140/140/137 148/148/145 147/147/144 139/139/136
f 141/141/138 149/149/146 148/148/145 140/140/137
f 142/142/139 150/150/147 149/149/146 141/141/138
f 143/143/140 151/151/148 150/150/147 142/142/139
f 144/144/141 152/152/149 55/55/55 46/46/46
f 145/145/142 153/153/150 152/152/149 144/144/141
f 146/146/143 154/154/151 153/153/150 145/145/142
f 147/147/144 155/155/152 154/154/151 146/146/143
f 148/148/145 156/156/153 155/155/152 147/147/144
f 149/149/146 157/157/154 156/156/153 148/148/145
f 150/150/147 158/158/155 157/157/154 149/149/146
f 151/151/148 159/159/156 158/158/155 150/150/147
f 161/160/157 169/161/158 168/162/159 160/163/160
f 152/152/149 160/163/160 64/68/68 55/55/55
f 153/153/150 161/160/157 160/163/160 152/152/149
f 154/154/151 162/164/161 161/160/157 153/153/150
f 155/155/152 163/165/162 162/164/161 154/154/151
f 156/156/153 164/166/163 163/165/162 155/155/152
f 157/157/154 165/167/164 164/166/163 156/156/153
f 158/158/155 166/168/165 165/167/164 157/157/154
f 159/159/156 167/169/166 166/168/165 158/158/155
f 172/170/167 180/171/168 179/172/169 171/173/170
f 162/164/161 170/174/171 169/161/158 161/160/157
f 163/165/162 171/173/170 170/174/171 162/164/161
f 164/166/163 172/170/167 171/173/170 163/165/162
f 165/167/164 173/175/172 172/170/167 164/166/163
f 166/168/165 174/176/173 173/175/172 165/167/164
f 167/169/166 175/177/87 174/176/173 166/168/165
f 160/163/160 168/162/159 73/83/83 64/68/68
f 183/178/174 191/179/82 190/180/175 182/181/176
f 173/175/172 181/182/177 180/171/168 172/170/167
f 174/176/173 182/181/176 181/182/177 173/175/172
f 175/177/87 183/178/174 182/181/176 174/176/173
f 168/162/159 176/183/178 82/89/89 73/83/83
f 169/161/158 177/184/179 176/183/178 168/162/159
f 170/174/171 178/185/180 177/184/179 169/161/158
f 171/173/170 179/172/169 178/185/180 170/174/171
f 176/183/178 184/186/181 91/93/93 82/89/89
f 177/184/179 185/187/182 184/186/181 176/183/178
f 178/185/180 186/188/183 185/187/182 177/184/179
f 179/172/169 187/189/184 186/188/183 178/185/180
f 180/171/168 188/190/185 187/189/184 179/172/169
f 181/182/177 189/191/186 188/190/185 180/171/168
f 182/181/176 190/180/175 189/191/186 181/182/177
f 184/186/181 185/187/182 186/188/183 192/192/100
f 101/101/100 91/93/93 184/186/181 192/192/100
f 186/188/183 187/189/184 188/190/185 192/192/100
f 188/190/185 189/191/186 190/180/175 192/192/100
f 190/180/175 191/179/82 193/193/100 192/192/100
f 193/193/100 100/103/100 101/101/100 192/192/100
f 202/194/187 203/195/188 195/196/189 194/197/190
f 203/195/188 204/198/191 196/199/192 195/196/189
f 204/198/191 205/200/193 197/201/194 196/199/192
f 205/200/193 206/202/195 198/203/196 197/201/194
f 206/202/195 207/204/197 199/205/198 198/203/196
f 207/204/197 208/206/199 200/207/200 199/205/198
f 208/206/199 209/208/201 201/209/202 200/207/200
f 209/208/201 18/18/18 9/17/17 201/209/202
f 217/210/203 225/211/204 224/212/205 216/213/206
f 195/196/189 211/214/207 210/215/208 194/197/190
f 196/199/192 212/216/209 211/214/207 195/196/189
f 197/201/194 213/217/210 212/216/209 196/199/192
f 198/203/196 214/218/211 213/217/210 197/201/194
f 199/205/198 215/219/212 214/218/211 198/203/196
f 200/207/200 216/213/206 215/219/212 199/205/198
f 201/209/202 217/210/203 216/213/206 200/207/200
f 9/17/17 27/29/29 217/210/203 201/209/202
f 27/29/29 36/30/30 225/211/204 217/210/203
f 211/214/207 219/220/213 218/221/214 210/215/208
f 212/216/209 220/222/215 219/220/213 211/214/207
f 213/217/210 221/223/216 220/222/215 212/216/209
f 214/218/211 222/224/217 221/223/216 213/217/210
f 215/219/212 223/225/218 222/224/217 214/218/211
f 216/213/206 224/212/205 223/225/218 215/219/212
f 219/220/213 227/226/219 226/227/220 218/221/214
f 220/222/215 228/228/221 227/226/219 219/220/213
f 221/223/216 229/229/222 228/228/221 220/222/215
f 222/224/217 230/230/223 229/229/222 221/223/216
f 223/225/218 231/231/224 230/230/223 222/224/217
f 224/212/205 232/232/225 231/231/224 223/225/218
f 225/211/204 233/233/226 232/232/225 224/212/205
f 36/30/30 45/45/45 233/233/226 225/211/204
f 227/226/219 235/234/227 234/235/228 226/227/220
f 228/228/221 236/236/229 235/234/227 227/226/219
f 229/229/222 237/237/230 236/236/229 228/228/221
f 230/230/223 238/238/231 237/237/230 229/229/222
f 231/231/224 239/239/232 238/238/231 230/230/223
f 232/232/225 240/240/233 239/239/232 231/231/224
f 233/233/226 241/241/234 240/240/233 232/232/225
f 45/45/45 54/54/54 241/241/234 233/233/226
f 235/234/227 243/242/235 242/243/236 234/235/228
f 236/236/229 244/244/237 243/242/235 235/234/227
f 237/237/230 245/245/238 244/244/237 236/236/229
f 238/238/231 246/246/239 245/245/238 237/237/230
f 239/239/232 247/247/240 246/246/239 238/238/231
f 240/240/233 248/248/241 247/247/240 239/239/232
f 241/241/234 249/249/242 248/248/241 240/240/233
f 54/54/54 63/63/63 249/249/242 241/241/234
f 252/250/243 260/251/244 259/252/245 251/253/246
f 243/242/235 251/253/246 250/254/247 242/243/236
f 244/244/237 252/250/243 251/253/246 243/242/235
f 245/245/238 253/255/248 252/250/243 244/244/237
f 246/246/239 254/256/249 253/255/248 245/245/238
f 247/247/240 255/257/250 254/256/249 246/246/239
f 248/248/241 256/258/251 255/257/250 247/247/240
f 249/249/242 257/259/252 256/258/251 248/248/241
f 63/63/63 72/74/74 257/259/252 249/249/242
f 263/260/185 271/261/253 270/262/254 262/263/184
f 253/255/248 261/264/183 260/251/244 252/250/243
f 254/256/249 262/263/184 261/264/183 253/255/248
f 255/257/250 263/260/185 262/263/184 254/256/249
f 256/258/251 264/265/186 263/260/185 255/257/250
f 257/259/252 265/266/175 264/265/186 256/258/251
f 72/74/74 81/82/82 265/266/175 257/259/252
f 251/253/246 259/252/245 258/267/93 250/254/247
f 90/84/84 99/87/87 281/268/173 273/269/255
f 264/265/186 272/270/256 271/261/253 263/260/185
f 265/266/175 273/269/255 272/270/256 264/265/186
f 81/82/82 90/84/84 273/269/255 265/266/175
f 259/252/245 267/271/257 266/272/258 258/267/93
f 260/251/244 268/273/259 267/271/257 259/252/245
f 261/264/183 269/274/260 268/273/259 260/251/244
f 262/263/184 270/262/254 269/274/260 261/264/183
f 267/271/257 275/275/159 274/276/83 266/272/258
f 268/273/259 276/277/158 275/275/159 267/271/257
f 269/274/260 277/278/171 276/277/158 268/273/259
f 270/262/254 278/279/170 277/278/171 269/274/260
f 271/261/253 279/280/167 278/279/170 270/262/254
f 272/270/256 280/281/172 279/280/167 271/261/253
f 273/269/255 281/268/173 280/281/172 272/270/256
f 275/275/159 276/277/158 277/278/171 283/282/100
f 282/283/100 274/276/83 275/275/159 283/282/100
f 277/278/171 278/279/170 279/280/167 283/282/100
f 279/280/167 280/281/172 281/268/173 283/282/100
f 281/268/173 99/87/87 103/102/100 283/282/100
f 103/102/100 100/103/100 282/283/100 283/282/100
f 202/194/187 194/197/190 284/284/261 291/285/262
f 291/285/262 284/284/261 285/286/263 292/287/264
f 292/287/264 285/286/263 286/288/265 293/289/266
f 293/289/266 286/288/265 287/290/267 294/291/268
f 294/291/268 287/290/267 288/292/269 295/293/270
f 295/293/270 288/292/269 289/294/271 296/295/272
f 296/295/272 289/294/271 290/296/273 297/297/274
f 297/297/274 290/296/273 111/119/116 119/118/115
f 304/298/275 303/299/276 310/300/277 311/301/278
f 284/284/261 194/197/190 210/215/208 298/302/279
f 285/286/263 284/284/261 298/302/279 299/303/280
f 286/288/265 285/286/263 299/303/280 300/304/281
f 287/290/267 286/288/265 300/304/281 301/305/282
f 288/292/269 287/290/267 301/305/282 302/306/283
f 289/294/271 288/292/269 302/306/283 303/299/276
f 290/296/273 289/294/271 303/299/276 304/298/275
f 111/119/116 290/296/273 304/298/275 127/129/126
f 127/129/126 304/298/275 311/301/278 135/130/127
f 298/302/279 210/215/208 218/221/214 305/307/284
f 299/303/280 298/302/279 305/307/284 306/308/285
f 300/304/281 299/303/280 306/308/285 307/309/286
f 301/305/282 300/304/281 307/309/286 308/310/287
f 302/306/283 301/305/282 308/310/287 309/311/288
f 303/299/276 302/306/283 309/311/288 310/300/277
f 305/307/284 218/221/214 226/227/220 312/312/289
f 306/308/285 305/307/284 312/312/289 313/313/290
f 307/309/286 306/308/285 313/313/290 314/314/291
f 308/310/287 307/309/286 314/314/291 315/315/292
f 309/311/288 308/310/287 315/315/292 316/316/293
f 310/300/277 309/311/288 316/316/293 317/317/294
f 311/301/278 310/300/277 317/317/294 318/318/295
f 135/130/127 311/301/278 318/318/295 143/143/140
f 312/312/289 226/227/220 234/235/228 319/319/296
f 313/313/290 312/312/289 319/319/296 320/320/297
f 314/314/291 313/313/290 320/320/297 321/321/298
f 315/315/292 314/314/291 321/321/298 322/322/299
f 316/316/293 315/315/292 322/322/299 323/323/300
f 317/317/294 316/316/293 323/323/300 324/324/301
f 318/318/295 317/317/294 324/324/301 325/325/302
f 143/143/140 318/318/295 325/325/302 151/151/148
f 319/319/296 234/235/228 242/243/236 326/326/303
f 320/320/297 319/319/296 326/326/303 327/327/304
f 321/321/298 320/320/297 327/327/304 328/328/305
f 322/322/299 321/321/298 328/328/305 329/329/306
f 323/323/300 322/322/299 329/329/306 330/330/307
f 324/324/301 323/323/300 330/330/307 331/331/308
f 325/325/302 324/324/301 331/331/308 332/332/309
f 151/151/148 325/325/302 332/332/309 159/159/156
f 334/333/310 333/334/311 340/335/94 341/336/95
f 326/326/303 242/243/236 250/254/247 333/334/311
f 327/327/304 326/326/303 333/334/311 334/333/310
f 328/328/305 327/327/304 334/333/310 335/337/312
f 329/329/306 328/328/305 335/337/312 336/338/313
f 330/330/307 329/329/306 336/338/313 337/339/314
f 331/331/308 330/330/307 337/339/314 338/340/315
f 332/332/309 331/331/308 338/340/315 339/341/316
f 159/159/156 332/332/309 339/341/316 167/169/166
f 344/342/98 343/343/97 350/344/317 351/345/318
f 335/337/312 334/333/310 341/336/95 342/346/96
f 336/338/313 335/337/312 342/346/96 343/343/97
f 337/339/314 336/338/313 343/343/97 344/342/98
f 338/340/315 337/339/314 344/342/98 345/347/99
f 339/341/316 338/340/315 345/347/99 346/348/86
f 167/169/166 339/341/316 346/348/86 175/177/87
f 333/334/311 250/254/247 258/267/93 340/335/94
f 183/178/174 353/349/319 360/350/81 191/179/82
f 345/347/99 344/342/98 351/345/318 352/351/320
f 346/348/86 345/347/99 352/351/320 353/349/319
f 175/177/87 346/348/86 353/349/319 183/178/174
f 340/335/94 258/267/93 266/272/258 347/352/321
f 341/336/95 340/335/94 347/352/321 348/353/322
f 342/346/96 341/336/95 348/353/322 349/354/323
f 343/343/97 342/346/96 349/354/323 350/344/317
f 347/352/321 266/272/258 274/276/83 354/355/324
f 348/353/322 347/352/321 354/355/324 355/356/325
f 349/354/323 348/353/322 355/356/325 356/357/326
f 350/344/317 349/354/323 356/357/326 357/358/76
f 351/345/318 350/344/317 357/358/76 358/359/75
f 352/351/320 351/345/318 358/359/75 359/360/80
f 353/349/319 352/351/320 359/360/80 360/350/81
f 354/355/324 361/361/100 356/357/326 355/356/325
f 282/283/100 361/361/100 354/355/324 274/276/83
f 356/357/326 361/361/100 358/359/75 357/358/76
f 358/359/75 361/361/100 360/350/81 359/360/80
f 360/350/81 361/361/100 193/193/100 191/179/82
f 193/193/100 361/361/100 282/283/100 100/103/100
s 0
f 367/362/327 363/363/327 365/364/327 369/365/327
f 429/366/328 396/367/328 394/368/328 403/369/328
f 365/370/329 427/371/329 390/372/329 385/373/329
f 362/374/330 366/375/330 368/376/330 364/377/330
f 398/378/330 400/379/330 368/376/330 366/375/330
f 364/377/330 368/376/330 388/380/330 387/381/330
f 369/365/327 401/382/327 399/383/327 367/362/327
f 363/384/331 370/385/331 427/371/331 365/370/331
f 442/386/332 404/387/332 405/388/332 443/389/332
f 389/390/333 421/391/333 407/392/333 375/393/333
f 376/394/330 408/395/330 410/396/330 378/397/330
f 377/398/327 379/399/327 381/400/327 380/401/327
f 411/402/327 413/403/327 381/400/327 379/399/327
f 383/404/327 415/405/327 414/406/327 382/407/327
f 380/408/334 381/409/334 383/410/334 382/411/334
f 367/412/335 379/413/335 370/414/335 363/415/335
f 429/366/336 418/416/336 419/417/336 396/367/336
f 371/418/335 378/419/335 366/420/335 362/421/335
f 399/422/335 411/423/335 379/413/335 367/412/335
f 430/424/337 379/425/337 377/426/337 433/427/337
f 375/393/338 374/428/338 372/429/338 373/430/338
f 391/431/339 384/432/339 385/373/339 390/372/339
f 378/419/335 410/433/335 398/434/335 366/420/335
f 391/431/100 423/435/100 416/436/100 384/432/100
f 388/437/339 389/390/339 386/438/339 387/439/339
f 388/437/100 420/440/100 421/391/100 389/390/100
f 375/393/340 373/430/340 386/438/340 389/390/340
f 372/429/341 374/428/341 391/431/341 390/372/341
f 369/365/342 365/364/342 385/441/342 384/442/342
f 384/442/343 416/443/343 401/382/343 369/365/343
f 436/444/335 370/414/335 379/413/335 430/445/335
f 382/411/100 414/446/100 412/447/100 380/408/100
f 413/448/335 415/449/335 383/410/335 381/409/335
f 380/401/327 412/450/327 409/451/327 377/398/327
f 406/452/344 423/435/344 391/431/344 374/428/344
f 400/379/330 420/453/330 388/380/330 368/376/330
f 433/454/335 377/455/335 409/456/335 441/457/335
f 399/383/327 401/382/327 397/458/327 395/459/327
f 373/430/345 435/460/345 426/461/345 386/438/345
f 397/462/336 417/463/336 422/464/336 428/465/336
f 394/466/330 396/467/330 400/379/330 398/378/330
f 396/467/330 419/468/330 420/453/330 400/379/330
f 395/469/328 397/462/328 428/465/328 402/470/328
f 374/471/346 375/472/346 424/473/346 425/474/346
f 409/451/327 412/450/327 413/403/327 411/402/327
f 412/475/337 414/476/337 415/449/337 413/448/337
f 399/422/335 395/477/335 402/478/335 411/423/335
f 403/479/335 394/480/335 398/434/335 410/433/335
f 438/481/334 441/482/334 409/483/334 411/484/334
f 423/435/347 422/464/347 417/463/347 416/436/347
f 420/440/347 419/417/347 418/416/347 421/391/347
f 407/392/348 421/391/348 418/416/348 405/388/348
f 404/387/349 422/464/349 423/435/349 406/452/349
f 401/382/350 416/443/350 417/485/350 397/458/350
f 444/486/335 438/487/335 411/423/335 402/478/335
f 405/388/351 404/387/351 406/452/351 407/392/351
f 375/472/352 407/488/352 393/489/352 424/473/352
f 406/490/353 374/471/353 425/474/353 392/491/353
f 426/461/331 371/492/331 362/493/331 364/494/331
f 386/438/329 426/461/329 364/494/329 387/439/329
f 404/387/354 442/386/354 428/465/354 422/464/354
f 434/495/355 435/460/355 373/430/355 372/429/355
f 403/479/335 410/433/335 439/496/335 445/497/335
f 445/497/335 439/496/335 438/487/335 444/486/335
f 410/498/334 408/499/334 440/500/334 439/501/334
f 439/501/334 440/500/334 441/482/334 438/481/334
f 390/372/356 427/371/356 434/495/356 372/429/356
f 376/502/335 432/503/335 440/504/335 408/505/335
f 432/503/335 433/454/335 441/457/335 440/504/335
f 407/488/357 406/490/357 392/491/357 393/489/357
f 371/418/335 437/506/335 431/507/335 378/419/335
f 437/506/335 436/444/335 430/445/335 431/507/335
f 378/508/337 431/509/337 432/510/337 376/511/337
f 431/509/337 430/424/337 433/427/337 432/510/337
f 393/489/100 392/491/100 425/474/100 424/473/100
f 405/388/358 418/416/358 429/366/358 443/389/358
f 436/512/359 437/513/359 435/460/359 434/495/359
f 444/514/360 442/386/360 443/389/360 445/515/360
f 434/495/361 427/371/361 370/385/361 436/512/361
f 426/461/362 435/460/362 437/513/362 371/492/362
f 428/465/363 442/386/363 444/514/363 402/470/363
f 443/389/364 429/366/364 403/369/364 445/515/364
