# This file uses centimeters as units for non-parametric coordinates.

mtllib NightTable.mtl
g default
v -0.421465 0.000000 0.306491
v -0.306491 0.000000 0.421465
v 0.421465 0.000000 0.306491
v 0.306491 0.000000 0.421465
v -0.421465 0.000000 -0.306491
v -0.306491 0.000000 -0.421465
v 0.421465 0.000000 -0.306491
v 0.306491 0.000000 -0.421465
v -0.383287 0.106145 0.268313
v -0.268313 0.106145 0.383287
v 0.268313 0.106145 0.383287
v 0.383287 0.106145 0.268313
v 0.383287 0.106145 -0.268313
v 0.268313 0.106145 -0.383287
v -0.268313 0.106145 -0.383287
v -0.383287 0.106145 -0.268313
v -0.434402 1.096881 0.319428
v -0.319428 1.096881 0.434402
v 0.434402 1.096881 0.319428
v 0.319428 1.096881 0.434402
v 0.319428 1.096881 -0.434402
v 0.434402 1.096881 -0.319428
v -0.434402 1.096881 -0.319428
v -0.319428 1.096881 -0.434402
v -0.383287 0.980432 0.268313
v -0.268313 0.980432 0.383287
v 0.268313 0.980432 0.383287
v 0.383287 0.980432 0.268313
v 0.383287 0.980432 -0.268313
v 0.268313 0.980432 -0.383287
v -0.268313 0.980432 -0.383287
v -0.383287 0.980432 -0.268313
v -0.434402 1.062486 0.319428
v -0.430678 1.046800 0.315704
v -0.319428 1.062486 0.434402
v -0.315704 1.046800 0.430678
v 0.319428 1.062486 0.434402
v 0.315704 1.046800 0.430678
v 0.434402 1.062486 0.319428
v 0.430678 1.046800 0.315704
v 0.434402 1.062486 -0.319428
v 0.430678 1.046800 -0.315704
v 0.319428 1.062486 -0.434402
v 0.315704 1.046800 -0.430678
v -0.319428 1.062486 -0.434402
v -0.315704 1.046800 -0.430678
v -0.434402 1.062486 -0.319428
v -0.430678 1.046800 -0.315704
v -0.421465 0.057585 0.306491
v -0.416243 0.080230 0.301269
v -0.402378 0.095435 0.287404
v -0.287404 0.095435 0.402378
v -0.301269 0.080230 0.416243
v -0.306491 0.057585 0.421465
v 0.306491 0.057585 0.421465
v 0.301269 0.080230 0.416243
v 0.287404 0.095435 0.402378
v 0.402378 0.095435 0.287404
v 0.416243 0.080230 0.301269
v 0.421465 0.057585 0.306491
v -0.402378 0.095435 -0.287404
v -0.416243 0.080230 -0.301269
v -0.421465 0.057585 -0.306491
v -0.306491 0.057585 -0.421465
v -0.301269 0.080230 -0.416243
v -0.287404 0.095435 -0.402378
v 0.287404 0.095435 -0.402378
v 0.301269 0.080230 -0.416243
v 0.306491 0.057585 -0.421465
v 0.421465 0.057585 -0.306491
v 0.416243 0.080230 -0.301269
v 0.402378 0.095435 -0.287404
v 0.268313 0.892050 0.383287
v -0.268313 0.892050 0.383287
v -0.383287 0.892050 0.268313
v -0.383287 0.892050 -0.268313
v -0.268313 0.892050 -0.383287
v 0.268313 0.892050 -0.383287
v 0.383287 0.892050 -0.279607
v 0.383287 0.892050 0.279607
v 0.268313 0.693609 0.383287
v -0.268313 0.693609 0.383287
v -0.383287 0.693609 0.268313
v -0.383287 0.693609 -0.268313
v -0.268313 0.693609 -0.383287
v 0.268313 0.693609 -0.383287
v 0.383287 0.693609 -0.279607
v 0.383287 0.693609 0.279607
v 0.172237 0.693609 -0.279607
v 0.172237 0.693609 0.279607
v 0.172237 0.892050 -0.279607
v 0.172237 0.892050 0.279607
v 0.268313 0.634862 0.383287
v -0.268313 0.634862 0.383287
v -0.383287 0.634862 0.268313
v -0.383287 0.634862 -0.268313
v -0.268313 0.634862 -0.383287
v 0.268313 0.634862 -0.383287
v 0.383287 0.634862 -0.279607
v 0.383287 0.634862 0.279606
v 0.268313 0.423376 0.383287
v -0.268313 0.423376 0.383287
v -0.383287 0.423376 0.268313
v -0.383287 0.423376 -0.268313
v -0.268313 0.423376 -0.383287
v 0.268313 0.423376 -0.383287
v 0.383287 0.423376 -0.279606
v 0.383287 0.423376 0.279606
v 0.221699 0.423376 -0.279606
v 0.221699 0.423376 0.279606
v 0.221699 0.634862 -0.279607
v 0.221699 0.634862 0.279606
v -0.327843 0.980432 0.358629
v -0.358629 0.980432 0.327843
v 0.358637 0.980432 0.327822
v 0.327864 0.980432 0.358620
v 0.327864 0.980432 -0.358620
v 0.358637 0.980432 -0.327822
v -0.358629 0.980432 -0.327843
v -0.327843 0.980432 -0.358629
v -0.327843 0.106145 0.358629
v -0.358629 0.106145 0.327843
v -0.327843 0.423424 0.358629
v -0.358629 0.423424 0.327843
v 0.358629 0.106145 0.327843
v 0.327843 0.106145 0.358629
v 0.359713 0.423422 0.328612
v 0.328083 0.423424 0.358529
v 0.327843 0.106145 -0.358629
v 0.358629 0.106145 -0.327843
v 0.328083 0.423424 -0.358529
v 0.359713 0.423422 -0.328612
v -0.358629 0.106145 -0.327843
v -0.327843 0.106145 -0.358629
v -0.358629 0.423424 -0.327843
v -0.327843 0.423424 -0.358629
v -0.409744 1.062428 0.378958
v -0.378958 1.062428 0.409744
v -0.375259 1.046848 0.406045
v -0.406045 1.046848 0.375259
v 0.378958 1.062428 0.409744
v 0.409744 1.062428 0.378958
v 0.406045 1.046848 0.375259
v 0.375259 1.046848 0.406045
v 0.409744 1.062428 -0.378958
v 0.378958 1.062428 -0.409744
v 0.375259 1.046848 -0.406045
v 0.406045 1.046848 -0.375259
v -0.378958 1.062428 -0.409744
v -0.409744 1.062428 -0.378958
v -0.406045 1.046848 -0.375259
v -0.375259 1.046848 -0.406045
v -0.378958 1.096881 0.409744
v -0.409744 1.096881 0.378958
v 0.409744 1.096881 0.378958
v 0.378958 1.096881 0.409744
v 0.378958 1.096881 -0.409744
v 0.409744 1.096881 -0.378958
v -0.409744 1.096881 -0.378958
v -0.378958 1.096881 -0.409744
v -0.360927 0.080340 0.391713
v -0.391713 0.080340 0.360927
v -0.378188 0.095172 0.347402
v -0.347402 0.095172 0.378188
v -0.366022 0.058251 0.396807
v -0.396807 0.058251 0.366022
v 0.391713 0.080340 0.360927
v 0.360927 0.080340 0.391713
v 0.347402 0.095172 0.378188
v 0.378188 0.095172 0.347402
v 0.396807 0.058251 0.366022
v 0.366022 0.058251 0.396807
v -0.391713 0.080340 -0.360927
v -0.360927 0.080340 -0.391713
v -0.347402 0.095172 -0.378188
v -0.378188 0.095172 -0.347402
v -0.396807 0.058251 -0.366022
v -0.366022 0.058251 -0.396807
v 0.360927 0.080340 -0.391713
v 0.391713 0.080340 -0.360927
v 0.378188 0.095172 -0.347402
v 0.347402 0.095172 -0.378188
v 0.366022 0.058251 -0.396807
v 0.396807 0.058251 -0.366022
v -0.396807 0.000000 0.366022
v -0.366022 0.000000 0.396807
v 0.366022 0.000000 0.396807
v 0.396807 0.000000 0.366022
v -0.366022 0.000000 -0.396807
v -0.396807 0.000000 -0.366022
v 0.396807 0.000000 -0.366022
v 0.366022 0.000000 -0.396807
v -0.327843 0.892178 0.358629
v -0.358629 0.892178 0.327843
v -0.358629 0.892178 -0.327843
v -0.327843 0.892178 -0.358629
v 0.328083 0.892178 -0.358529
v 0.359713 0.892172 -0.328612
v 0.359713 0.892172 0.328612
v 0.328083 0.892178 0.358529
v -0.327843 0.693698 0.358629
v -0.358629 0.693698 0.327843
v -0.358629 0.693698 -0.327843
v -0.327843 0.693698 -0.358629
v 0.328083 0.693698 -0.358529
v 0.359713 0.693694 -0.328612
v 0.359713 0.693694 0.328612
v 0.328083 0.693698 0.358529
v -0.327843 0.634943 0.358629
v -0.358629 0.634943 0.327843
v -0.358629 0.634943 -0.327843
v -0.327843 0.634943 -0.358629
v 0.328083 0.634943 -0.358529
v 0.359713 0.634939 -0.328612
v 0.359713 0.634939 0.328612
v 0.328083 0.634943 0.358529
vt 0.526367 0.802828
vt 0.355874 0.802801
vt 0.360864 0.790761
vt 0.521381 0.790786
vt 0.528971 0.800195
vt 0.353246 0.800201
vt 0.358233 0.788160
vt 0.523984 0.788154
vt 0.156474 0.961903
vt 0.108744 0.853489
vt 0.236683 0.853456
vt 0.308143 0.966487
vt 0.364592 0.853486
vt 0.417467 0.992537
vt 0.492505 0.853462
vt 0.616244 0.985709
vt 0.191911 0.781511
vt 0.314518 0.845712
vt 0.309416 0.847257
vt 0.193355 0.850639
vt 0.346987 0.777416
vt 0.426873 0.845696
vt 0.432685 0.854415
vt 0.345598 0.841055
vt 0.484414 0.793214
vt 0.539233 0.845611
vt 0.620030 0.873055
vt 0.476654 0.863697
vt 0.033637 0.782387
vt 0.202153 0.845721
vt 0.155900 0.850954
vt 0.036598 0.851011
vt 0.209347 0.872167
vt 0.209933 0.874455
vt 0.100580 0.875030
vt 0.101175 0.872649
vt 0.228908 0.874326
vt 0.229471 0.872023
vt 0.337119 0.872048
vt 0.337679 0.874318
vt 0.356820 0.874318
vt 0.357381 0.872050
vt 0.465032 0.872069
vt 0.465594 0.874276
vt 0.484623 0.874348
vt 0.485200 0.872064
vt 0.593361 0.872452
vt 0.593956 0.874814
vt 0.337696 0.879060
vt 0.228884 0.879050
vt 0.528976 0.929410
vt 0.593949 0.879712
vt 0.484577 0.879110
vt 0.353251 0.929417
vt 0.231238 0.836842
vt 0.231246 0.829859
vt 0.319800 0.829875
vt 0.319807 0.836842
vt 0.544643 0.836842
vt 0.455947 0.836842
vt 0.455952 0.829849
vt 0.544637 0.829790
vt 0.343593 0.836842
vt 0.526348 0.926811
vt 0.432161 0.836842
vt 0.118842 0.836842
vt 0.355855 0.926784
vt 0.207453 0.836842
vt 0.233799 0.842511
vt 0.317246 0.842526
vt 0.346154 0.842523
vt 0.429602 0.842511
vt 0.458511 0.842532
vt 0.541968 0.842472
vt 0.121449 0.842414
vt 0.204885 0.842531
vt 0.231899 0.839709
vt 0.319147 0.839716
vt 0.206790 0.839720
vt 0.119533 0.839660
vt 0.543920 0.839698
vt 0.456608 0.839720
vt 0.344252 0.839715
vt 0.431503 0.839709
vt 0.193153 0.953633
vt 0.308507 0.957554
vt 0.039013 0.952492
vt 0.156540 0.953068
vt 0.470263 0.976319
vt 0.616304 0.976867
vt 0.349292 0.966147
vt 0.419496 0.984349
vt 0.194103 0.910188
vt 0.309319 0.911053
vt 0.040884 0.909588
vt 0.157156 0.909975
vt 0.471159 0.929021
vt 0.617266 0.933252
vt 0.346012 0.909025
vt 0.420298 0.925941
vt 0.402902 0.943859
vt 0.355780 0.919851
vt 0.410673 0.971624
vt 0.365622 0.947271
vt 0.194369 0.897265
vt 0.309435 0.897265
vt 0.041744 0.896868
vt 0.157377 0.897173
vt 0.471966 0.914933
vt 0.617741 0.920201
vt 0.344123 0.898963
vt 0.422346 0.914906
vt 0.417597 0.869550
vt 0.353457 0.852375
vt 0.416017 0.901157
vt 0.357667 0.883019
vt 0.179378 0.962293
vt 0.214762 0.852878
vt 0.170263 0.953306
vt 0.179508 0.953441
vt 0.221831 0.871914
vt 0.217005 0.871976
vt 0.332737 0.971122
vt 0.342686 0.852896
vt 0.323487 0.960084
vt 0.334352 0.962236
vt 0.349690 0.872004
vt 0.344807 0.872002
vt 0.452218 0.987619
vt 0.470596 0.852852
vt 0.437520 0.980579
vt 0.451134 0.978592
vt 0.477539 0.872008
vt 0.472692 0.871954
vt 0.023158 0.961333
vt 0.597532 0.853067
vt 0.633065 0.977146
vt 0.023219 0.952497
vt 0.091759 0.872061
vt 0.603531 0.872035
vt 0.224307 0.847990
vt 0.168632 0.781774
vt 0.215624 0.842951
vt 0.223085 0.842964
vt 0.179385 0.850754
vt 0.169928 0.850856
vt 0.180564 0.897262
vt 0.171221 0.897240
vt 0.336650 0.848003
vt 0.322844 0.777428
vt 0.327978 0.842944
vt 0.335438 0.842943
vt 0.333407 0.843842
vt 0.323722 0.845437
vt 0.332505 0.897562
vt 0.323257 0.897295
vt 0.448990 0.848008
vt 0.458367 0.790062
vt 0.440329 0.842962
vt 0.447789 0.842947
vt 0.459132 0.860755
vt 0.447348 0.858295
vt 0.452665 0.914346
vt 0.439363 0.914187
vt 0.113195 0.847390
vt 0.641206 0.804205
vt 0.552063 0.843694
vt 0.111370 0.842930
vt 0.020726 0.850990
vt 0.636889 0.873623
vt 0.027853 0.896856
vt 0.634713 0.920619
vt 0.217247 0.873652
vt 0.221621 0.873581
vt 0.364459 0.781933
vt 0.345018 0.873709
vt 0.349479 0.873710
vt 0.517757 0.781928
vt 0.472901 0.873631
vt 0.477313 0.873701
vt 0.517763 0.947678
vt 0.523989 0.941451
vt 0.604088 0.874280
vt 0.091176 0.874091
vt 0.358238 0.941458
vt 0.364465 0.947684
vt 0.222498 0.839605
vt 0.216210 0.839586
vt 0.216379 0.836842
vt 0.222338 0.836842
vt 0.360841 0.938825
vt 0.367066 0.945053
vt 0.334854 0.839581
vt 0.328567 0.839582
vt 0.328734 0.836842
vt 0.334693 0.836842
vt 0.515131 0.945076
vt 0.521358 0.938850
vt 0.110295 0.839646
vt 0.553461 0.840078
vt 0.553862 0.836842
vt 0.109788 0.836842
vt 0.367091 0.784536
vt 0.447209 0.839584
vt 0.440921 0.839604
vt 0.441086 0.836842
vt 0.447045 0.836842
vt 0.515156 0.784559
vt 0.170981 0.910086
vt 0.180306 0.910144
vt 0.634144 0.933654
vt 0.025799 0.909582
vt 0.437950 0.927733
vt 0.451568 0.928461
vt 0.323647 0.910990
vt 0.333457 0.910545
vt 0.447021 0.830041
vt 0.441104 0.830032
vt 0.503116 0.779569
vt 0.109781 0.829911
vt 0.553872 0.829841
vt 0.118852 0.829828
vt 0.334673 0.830042
vt 0.328748 0.830038
vt 0.343600 0.829877
vt 0.222312 0.830037
vt 0.216388 0.830035
vt 0.379106 0.950042
vt 0.084020 0.876062
vt 0.090218 0.878460
vt 0.376506 0.952671
vt 0.473198 0.876993
vt 0.476976 0.877057
vt 0.465614 0.879092
vt 0.345310 0.877128
vt 0.349187 0.877128
vt 0.505716 0.776941
vt 0.217621 0.876971
vt 0.221324 0.876918
vt 0.209998 0.879234
vt 0.100561 0.880040
vt 0.505722 0.952666
vt 0.356801 0.879055
vt 0.376500 0.776945
vt 0.432153 0.829857
vt 0.379133 0.779550
vt 0.503089 0.950062
vt 0.207447 0.829884
vt 0.015059 0.909571
vt 0.018466 0.896836
vt 0.012225 0.952490
vt 0.103562 0.836842
vt 0.103617 0.829792
vt 0.104447 0.844426
vt 0.103711 0.840431
vt 0.085306 0.872399
vt 0.085830 0.870529
vt 0.604418 0.879067
vt 0.009702 0.850960
vt 0.006513 0.782316
vt 0.088284 0.852970
vt 0.017585 0.782352
vt 0.124158 0.845554
vt 0.624569 0.803603
vt 0.105798 0.849344
vt 0.549588 0.848057
vt 0.468811 0.791335
vt 0.461242 0.845724
vt 0.443109 0.787679
vt 0.439105 0.847985
vt 0.332612 0.777418
vt 0.348883 0.845714
vt 0.308410 0.777828
vt 0.326762 0.848006
vt 0.178049 0.781661
vt 0.236526 0.845696
vt 0.154636 0.781976
vt 0.214418 0.848016
vt 0.096355 0.853373
vt 0.038932 0.961322
vt 0.585691 0.853504
vt 0.012199 0.961327
vt 0.632938 0.985932
vt 0.479719 0.852875
vt 0.470353 0.985273
vt 0.457822 0.853453
vt 0.438785 0.989469
vt 0.351819 0.852895
vt 0.349340 0.975142
vt 0.329913 0.853488
vt 0.322210 0.969130
vt 0.223896 0.852852
vt 0.192919 0.962484
vt 0.202000 0.853489
vt 0.170156 0.962157
vn 0.000000 -1.000000 0.000000
vn 0.000000 -1.000000 0.000000
vn 0.000000 -1.000000 0.000000
vn 0.000000 -1.000000 0.000000
vn 0.000000 1.000000 0.000000
vn 0.000000 1.000000 0.000000
vn 0.000000 1.000000 0.000000
vn 0.000000 1.000000 0.000000
vn -0.807177 -0.590002 -0.019080
vn -0.807177 -0.590002 0.019080
vn -0.853929 -0.518265 0.046980
vn -0.853929 -0.518265 -0.046980
vn -0.019080 -0.590001 0.807177
vn 0.019083 -0.590003 0.807176
vn 0.046986 -0.518270 0.853926
vn -0.046980 -0.518265 0.853929
vn 0.807178 -0.590000 0.019077
vn 0.807178 -0.590000 -0.019077
vn 0.853932 -0.518260 -0.046974
vn 0.853932 -0.518260 0.046974
vn 0.019083 -0.590003 -0.807176
vn -0.019080 -0.590002 -0.807177
vn -0.046980 -0.518265 -0.853929
vn 0.046986 -0.518270 -0.853925
vn -0.041330 0.000000 0.999146
vn 0.041404 0.000000 0.999142
vn 0.041437 0.000000 0.999141
vn -0.041333 0.000000 0.999146
vn 0.999271 -0.000873 0.038179
vn 0.999271 -0.000873 -0.038179
vn 0.997891 -0.000907 -0.064907
vn 0.997891 -0.000907 0.064907
vn 0.041404 0.000000 -0.999142
vn -0.041330 0.000000 -0.999146
vn -0.041333 0.000000 -0.999146
vn 0.041437 0.000000 -0.999141
vn -0.999146 0.000000 -0.041330
vn -0.999146 0.000000 0.041330
vn -0.999146 0.000000 0.041333
vn -0.999146 0.000000 -0.041333
vn -0.996892 -0.069021 0.037970
vn -0.996892 -0.069021 -0.037970
vn -0.037970 -0.069021 0.996892
vn 0.037970 -0.069021 0.996892
vn 0.996892 -0.069021 0.037970
vn 0.996892 -0.069021 -0.037970
vn 0.037970 -0.069021 -0.996892
vn -0.037970 -0.069021 -0.996892
vn 0.035313 0.000000 0.999376
vn -0.035313 0.000000 0.999376
vn 0.999376 0.000000 -0.035313
vn 0.999376 0.000000 0.035313
vn -0.035313 0.000000 -0.999376
vn 0.035313 0.000000 -0.999376
vn -0.999376 0.000000 0.035313
vn -0.999376 0.000000 -0.035313
vn -0.039147 0.060232 0.997416
vn -0.036834 0.000000 0.999321
vn 0.036834 0.000000 0.999321
vn 0.039147 0.060232 0.997416
vn -0.039147 0.060232 -0.997416
vn 0.039147 0.060232 -0.997416
vn 0.036834 0.000000 -0.999321
vn -0.036834 0.000000 -0.999321
vn 0.997416 0.060232 0.039147
vn 0.999321 0.000000 0.036834
vn 0.999321 0.000000 -0.036834
vn 0.997416 0.060232 -0.039147
vn -0.997416 0.060232 -0.039147
vn -0.999321 0.000000 -0.036834
vn -0.999321 0.000000 0.036834
vn -0.997416 0.060232 0.039147
vn -0.023487 0.757761 0.652109
vn 0.023487 0.757761 0.652109
vn 0.010641 0.876575 0.481147
vn -0.010641 0.876575 0.481147
vn 0.652108 0.757762 0.023487
vn 0.652108 0.757762 -0.023487
vn 0.481147 0.876575 -0.010641
vn 0.481147 0.876575 0.010641
vn 0.023487 0.757761 -0.652109
vn -0.023487 0.757761 -0.652109
vn -0.010641 0.876575 -0.481147
vn 0.010641 0.876575 -0.481147
vn -0.652108 0.757762 -0.023487
vn -0.652108 0.757762 0.023487
vn -0.481147 0.876575 0.010641
vn -0.481147 0.876575 -0.010641
vn -0.036490 0.400592 0.915530
vn 0.036490 0.400592 0.915530
vn -0.915530 0.400591 0.036490
vn -0.915530 0.400591 -0.036490
vn -0.036490 0.400592 -0.915530
vn 0.036490 0.400592 -0.915530
vn 0.915530 0.400591 0.036490
vn 0.915530 0.400591 -0.036490
vn -0.041336 0.000000 0.999145
vn 0.041465 -0.000000 0.999140
vn 0.041381 0.000000 0.999143
vn -0.041300 0.000000 0.999147
vn -0.999145 0.000000 -0.041336
vn -0.999145 0.000000 0.041336
vn -0.999147 0.000000 0.041300
vn -0.999147 0.000000 -0.041300
vn 0.041465 -0.000000 -0.999140
vn -0.041336 0.000000 -0.999145
vn -0.041300 0.000000 -0.999147
vn 0.041381 0.000000 -0.999143
vn 0.992976 0.003209 0.118272
vn 0.992976 0.003209 -0.118272
vn 0.999425 0.002774 -0.033780
vn 0.999425 0.002774 0.033780
vn -0.041315 0.000000 0.999146
vn 0.041465 -0.000000 0.999140
vn -0.999146 0.000000 -0.041315
vn -0.999146 0.000000 0.041315
vn 0.041465 -0.000000 -0.999140
vn -0.041315 0.000000 -0.999146
vn 0.000000 1.000000 0.000000
vn 0.000000 1.000000 0.000000
vn 0.000000 1.000000 0.000000
vn 0.000000 1.000000 0.000000
vn 0.000000 0.000000 1.000000
vn 0.000000 0.000000 1.000000
vn 0.000000 0.000000 1.000000
vn 0.000000 0.000000 1.000000
vn 0.000000 -1.000000 0.000000
vn 0.000000 -1.000000 0.000000
vn 0.000000 -1.000000 0.000000
vn 0.000000 -1.000000 0.000000
vn 0.000000 0.000000 -1.000000
vn 0.000000 0.000000 -1.000000
vn 0.000000 0.000000 -1.000000
vn 0.000000 0.000000 -1.000000
vn -0.041344 0.000000 0.999145
vn 0.041493 0.000000 0.999139
vn -0.999145 0.000000 -0.041344
vn -0.999145 0.000000 0.041344
vn 0.041493 0.000000 -0.999139
vn -0.041344 0.000000 -0.999145
vn 0.990578 0.000000 0.136949
vn 0.990578 0.000000 -0.136949
vn 0.991226 0.000000 -0.132175
vn 0.991226 0.000000 0.132175
vn 0.000000 1.000000 -0.000000
vn 0.000000 1.000000 -0.000000
vn 0.000000 1.000000 -0.000000
vn 0.000000 1.000000 -0.000000
vn 0.000000 0.000001 1.000000
vn 0.000000 0.000001 1.000000
vn 0.000000 0.000001 1.000000
vn 0.000000 0.000001 1.000000
vn 0.000000 -1.000000 0.000000
vn 0.000000 -1.000000 0.000000
vn 0.000000 -1.000000 0.000000
vn 0.000000 -1.000000 0.000000
vn 0.000000 0.000000 -1.000000
vn 0.000000 0.000000 -1.000000
vn 0.000000 0.000000 -1.000000
vn 0.000000 0.000000 -1.000000
vn -0.523112 0.000000 0.852264
vn -0.852264 0.000000 0.523112
vn -0.852215 0.000000 0.523192
vn -0.523192 0.000000 0.852215
vn -0.615236 -0.699223 0.364104
vn -0.364105 -0.699223 0.615236
vn -0.409385 -0.644164 0.646109
vn -0.646108 -0.644164 0.409386
vn 0.836905 0.023017 0.546864
vn 0.517948 0.003251 0.855406
vn 0.514989 0.001004 0.857196
vn 0.825087 0.007326 0.564959
vn 0.364162 -0.699232 0.615191
vn 0.615280 -0.699214 0.364047
vn 0.646127 -0.644155 0.409369
vn 0.409402 -0.644173 0.646090
vn 0.517948 0.003251 -0.855406
vn 0.836905 0.023017 -0.546864
vn 0.825087 0.007326 -0.564958
vn 0.514989 0.001004 -0.857196
vn 0.615280 -0.699214 -0.364047
vn 0.364162 -0.699233 -0.615191
vn 0.409402 -0.644173 -0.646089
vn 0.646127 -0.644156 -0.409369
vn -0.852264 0.000000 -0.523112
vn -0.523112 0.000000 -0.852264
vn -0.523192 0.000000 -0.852215
vn -0.852215 0.000000 -0.523192
vn -0.364105 -0.699223 -0.615235
vn -0.615236 -0.699223 -0.364104
vn -0.646108 -0.644164 -0.409386
vn -0.409385 -0.644164 -0.646109
vn -0.192312 0.925313 0.326820
vn -0.326820 0.925314 0.192312
vn -0.436789 0.859486 0.265518
vn -0.265518 0.859486 0.436789
vn -0.852224 0.000000 0.523178
vn -0.523178 0.000000 0.852223
vn -0.523184 0.000000 0.852220
vn -0.852220 0.000000 0.523184
vn -0.523208 0.000000 0.852205
vn -0.852205 0.000000 0.523209
vn 0.326820 0.925313 0.192312
vn 0.192312 0.925313 0.326820
vn 0.265518 0.859486 0.436789
vn 0.436789 0.859486 0.265518
vn 0.518169 -0.000906 0.855278
vn 0.836975 -0.006405 0.547204
vn 0.830249 -0.003916 0.557379
vn 0.516361 -0.000544 0.856371
vn 0.819408 -0.000000 0.573210
vn 0.513382 0.000000 0.858160
vn 0.192312 0.925313 -0.326820
vn 0.326820 0.925314 -0.192312
vn 0.436789 0.859486 -0.265518
vn 0.265518 0.859486 -0.436789
vn 0.836974 -0.006405 -0.547204
vn 0.518169 -0.000906 -0.855278
vn 0.516361 -0.000544 -0.856371
vn 0.830248 -0.003916 -0.557380
vn 0.513382 0.000000 -0.858160
vn 0.819408 -0.000000 -0.573210
vn -0.326820 0.925313 -0.192312
vn -0.192312 0.925313 -0.326820
vn -0.265518 0.859486 -0.436789
vn -0.436789 0.859486 -0.265518
vn -0.523178 0.000000 -0.852223
vn -0.852224 0.000000 -0.523178
vn -0.852220 0.000000 -0.523184
vn -0.523184 0.000000 -0.852220
vn -0.852205 0.000000 -0.523209
vn -0.523208 0.000000 -0.852205
vn -0.846754 -0.097751 0.522928
vn -0.522927 -0.097751 0.846754
vn -0.523241 0.000000 0.852184
vn -0.852185 0.000000 0.523240
vn 0.522927 -0.097751 0.846754
vn 0.846753 -0.097751 0.522928
vn 0.852185 0.000000 0.523240
vn 0.523241 0.000000 0.852184
vn 0.846754 -0.097751 -0.522928
vn 0.522927 -0.097751 -0.846754
vn 0.523241 0.000000 -0.852184
vn 0.852185 0.000000 -0.523240
vn -0.522927 -0.097751 -0.846754
vn -0.846753 -0.097751 -0.522928
vn -0.852185 0.000000 -0.523240
vn -0.523241 0.000000 -0.852184
vn -0.489669 0.301602 0.818084
vn -0.818084 0.301600 0.489669
vn -0.848024 0.084718 0.523143
vn -0.523143 0.084718 0.848023
vn -0.523669 0.783204 0.335206
vn -0.335206 0.783204 0.523669
vn -0.851941 0.000000 0.523638
vn -0.523638 0.000000 0.851941
vn 0.818084 0.301600 0.489669
vn 0.489669 0.301601 0.818084
vn 0.523144 0.084718 0.848023
vn 0.848024 0.084718 0.523143
vn 0.335206 0.783204 0.523669
vn 0.523669 0.783204 0.335206
vn 0.523638 0.000000 0.851941
vn 0.851941 0.000000 0.523638
vn -0.818084 0.301600 -0.489669
vn -0.489669 0.301601 -0.818084
vn -0.523144 0.084718 -0.848023
vn -0.848023 0.084718 -0.523144
vn -0.335206 0.783204 -0.523669
vn -0.523669 0.783204 -0.335206
vn -0.523638 0.000000 -0.851941
vn -0.851941 0.000000 -0.523638
vn 0.489669 0.301602 -0.818084
vn 0.818084 0.301600 -0.489669
vn 0.848023 0.084718 -0.523144
vn 0.523144 0.084718 -0.848023
vn 0.523669 0.783204 -0.335206
vn 0.335206 0.783204 -0.523669
vn 0.851941 0.000000 -0.523638
vn 0.523638 0.000000 -0.851941
vn -0.852243 0.000000 0.523146
vn -0.523146 0.000000 0.852243
vn -0.523146 0.000000 -0.852243
vn -0.852243 0.000000 -0.523146
vn 0.819457 -0.000000 -0.573141
vn 0.513328 -0.000000 -0.858192
vn 0.513328 -0.000000 0.858192
vn 0.819457 -0.000000 0.573141
vn 0.000000 1.000000 -0.000000
vn 0.000000 1.000000 -0.000000
vn 0.000000 1.000000 -0.000000
vn 0.000000 1.000000 -0.000000
vn 0.000000 1.000000 0.000001
vn 0.000000 1.000000 0.000001
vn 0.000000 1.000000 0.000001
vn 0.000000 1.000000 0.000001
vn 0.000000 1.000000 -0.000001
vn 0.000000 1.000000 -0.000001
vn 0.000000 1.000000 -0.000001
vn 0.000000 1.000000 -0.000001
vn 0.000000 -1.000000 0.000000
vn 0.000000 -1.000000 0.000000
vn 0.000000 -1.000000 0.000000
vn 0.000000 -1.000000 0.000000
vn 0.000000 -1.000000 0.000000
vn 0.000000 -1.000000 0.000000
vn 0.000000 -1.000000 0.000000
vn 0.000000 -1.000000 0.000000
vn 0.000000 -1.000000 0.000000
vn 0.000000 -1.000000 0.000000
vn 0.000000 -1.000000 0.000000
vn 0.000000 -1.000000 0.000000
s 1
g NightTable
usemtl initialShadingGroup
f 7/1/1 5/2/2 190/3/3 191/4/4
s 2
f 19/5/5 17/6/6 154/7/7 155/8/8
s 3
f 32/10/9 25/294/10 34/33/11 48/36/12
f 26/11/13 27/290/14 38/39/15 36/38/16
f 28/13/17 29/286/18 42/43/19 40/42/20
f 30/15/21 31/281/22 46/47/23 44/46/24
s 7
f 10/17/25 11/273/26 101/19/27 102/20/28
f 12/21/29 13/269/30 107/23/31 108/24/32
f 14/25/33 15/264/34 105/27/35 106/28/36
f 16/29/37 9/277/38 103/31/39 104/32/40
s 3
f 34/33/11 33/34/41 47/35/42 48/36/12
f 35/37/43 36/38/16 38/39/15 37/40/44
f 39/41/45 40/42/20 42/43/19 41/44/46
f 43/45/47 44/46/24 46/47/23 45/48/48
f 35/37/43 37/40/44 20/49/49 18/50/50
f 39/41/45 41/44/46 22/234/51 19/243/52
f 43/45/47 45/48/48 24/52/53 21/53/54
f 47/35/42 33/34/41 17/240/55 23/241/56
s 11
f 54/55/57 2/56/58 4/57/59 55/58/60
f 64/59/61 69/60/62 8/61/63 6/62/64
f 60/63/65 3/225/66 7/245/67 70/65/68
f 63/66/69 5/222/70 1/248/71 49/68/72
f 52/69/73 57/70/74 11/18/75 10/276/76
f 58/71/77 72/72/78 13/22/79 12/272/80
f 67/73/81 66/74/82 15/26/83 14/268/84
f 61/75/85 51/76/86 9/30/87 16/263/88
f 52/69/73 53/77/89 56/78/90 57/70/74
f 53/77/89 54/55/57 55/58/60 56/78/90
f 49/68/72 50/79/91 62/80/92 63/66/69
f 50/79/91 51/76/86 61/75/85 62/80/92
f 64/59/61 65/81/93 68/82/94 69/60/62
f 65/81/93 66/74/82 67/73/81 68/82/94
f 58/71/77 59/83/95 71/84/96 72/72/78
f 59/83/95 60/63/65 70/65/68 71/84/96
s 7
f 74/85/97 73/86/98 27/12/99 26/293/100
f 76/87/101 75/88/102 25/9/103 32/280/104
f 78/89/105 77/90/106 31/16/107 30/285/108
f 80/91/109 79/92/110 29/14/111 28/289/112
f 82/93/113 81/94/114 73/86/98 74/85/97
f 84/95/115 83/96/116 75/88/102 76/87/101
f 86/97/117 85/98/118 77/90/106 78/89/105
s off
f 88/99/119 87/100/120 89/101/121 90/102/122
f 87/100/123 79/92/124 91/103/125 89/101/126
f 79/92/127 80/91/128 92/104/129 91/103/130
f 80/91/131 88/99/132 90/102/133 92/104/134
s 7
f 94/105/135 93/106/136 81/94/114 82/93/113
f 96/107/137 95/108/138 83/96/116 84/95/115
f 98/109/139 97/110/140 85/98/118 86/97/117
f 100/111/141 99/112/142 87/100/143 88/99/144
f 102/20/28 101/19/27 93/106/136 94/105/135
f 104/32/40 103/31/39 95/108/138 96/107/137
f 106/28/36 105/27/35 97/110/140 98/109/139
s off
f 108/24/145 107/23/146 109/113/147 110/114/148
f 107/23/149 99/112/150 111/115/151 109/113/152
f 99/112/153 100/111/154 112/116/155 111/115/156
f 100/111/157 108/24/158 110/114/159 112/116/160
s 7
f 113/117/161 114/295/162 194/119/163 193/120/164
s 3
f 114/118/165 113/292/166 139/121/167 140/122/168
s 7
f 115/123/169 116/291/170 200/125/171 199/126/172
s 3
f 116/124/173 115/288/174 143/127/175 144/128/176
s 7
f 117/129/177 118/287/178 198/131/179 197/132/180
s 3
f 118/130/181 117/284/182 147/133/183 148/134/184
s 7
f 119/135/185 120/282/186 196/251/187 195/138/188
s 3
f 120/261/189 119/279/190 151/139/191 152/257/192
s 11
f 121/141/193 122/278/194 163/143/195 164/144/196
s 7
f 122/142/197 121/275/198 123/145/199 124/146/200
f 124/146/200 123/145/199 209/147/201 210/148/202
s 11
f 125/149/203 126/274/204 169/151/205 170/152/206
s 7
f 126/150/207 125/271/208 127/153/209 128/154/210
f 128/154/210 127/153/209 215/155/211 216/156/212
s 11
f 129/157/213 130/270/214 181/159/215 182/160/216
s 7
f 130/158/217 129/267/218 131/161/219 132/162/220
f 132/162/220 131/161/219 213/163/221 214/164/222
s 11
f 133/165/223 134/265/224 175/254/225 176/168/226
s 7
f 134/260/227 133/262/228 135/169/229 136/259/230
f 136/259/230 135/169/229 211/171/231 212/250/232
s 3
f 137/173/233 138/174/234 153/239/235 154/238/236
f 138/174/234 137/173/233 140/122/168 139/121/167
f 141/176/237 142/177/238 155/236/239 156/235/240
f 142/177/238 141/176/237 144/128/176 143/127/175
f 145/179/241 146/180/242 157/233/243 158/232/244
f 146/180/242 145/179/241 148/134/184 147/133/183
f 149/256/245 150/184/246 159/230/247 160/229/248
f 150/184/246 149/256/245 152/257/192 151/139/191
s 11
f 161/187/249 162/188/250 166/189/251 165/190/252
f 162/188/253 161/187/254 164/144/196 163/143/195
f 165/190/252 166/189/251 185/227/255 186/226/256
f 167/193/257 168/194/258 172/195/259 171/196/260
f 168/194/261 167/193/262 170/152/206 169/151/205
f 171/196/260 172/195/259 187/224/263 188/223/264
f 173/199/265 174/255/266 178/252/267 177/202/268
f 174/255/269 173/199/270 176/168/226 175/254/225
f 177/202/268 178/252/267 189/253/271 190/220/272
f 179/204/273 180/205/274 184/206/275 183/207/276
f 180/205/277 179/204/278 182/160/216 181/159/215
f 183/207/276 184/206/275 191/218/279 192/217/280
s 7
f 193/120/164 194/119/163 202/209/281 201/210/282
f 195/138/188 196/251/187 204/249/283 203/212/284
f 197/132/180 198/131/179 206/213/285 205/214/286
f 199/126/172 200/125/171 208/215/287 207/216/288
f 201/210/282 202/209/281 210/148/202 209/147/201
f 203/212/284 204/249/283 212/250/232 211/171/231
f 205/214/286 206/213/285 214/164/222 213/163/221
f 207/216/288 208/215/287 216/156/212 215/155/211
s 3
f 34/33/11 25/294/10 114/118/165 140/122/168
f 139/121/167 113/292/166 26/11/13 36/38/16
f 38/39/15 27/290/14 116/124/173 144/128/176
f 143/127/175 115/288/174 28/13/17 40/42/20
f 42/43/19 29/286/18 118/130/181 148/134/184
f 147/133/183 117/284/182 30/15/21 44/46/24
f 46/47/23 31/281/22 120/136/189 152/140/192
f 151/139/191 119/279/190 32/10/9 48/36/12
s 7
f 9/277/38 122/142/197 124/146/200 103/31/39
f 121/275/198 10/17/25 102/20/28 123/145/199
f 11/273/26 126/150/207 128/154/210 101/19/27
f 125/271/208 12/21/29 108/24/32 127/153/209
f 13/269/30 130/158/217 132/162/220 107/23/31
f 129/267/218 14/25/33 106/28/36 131/161/219
f 15/264/34 134/166/227 136/170/230 105/27/35
f 133/262/228 16/29/37 104/32/40 135/169/229
s 3
f 33/34/41 34/33/11 140/122/168 137/173/233
f 138/174/234 139/121/167 36/38/16 35/37/43
f 37/40/44 38/39/15 144/128/176 141/176/237
f 142/177/238 143/127/175 40/42/20 39/41/45
f 41/44/46 42/43/19 148/134/184 145/179/241
f 146/180/242 147/133/183 44/46/24 43/45/47
f 45/48/48 46/47/23 152/140/192 149/183/245
f 150/184/246 151/139/191 48/36/12 47/35/42
f 33/34/41 137/173/233 154/238/236 17/240/55
f 138/174/234 35/37/43 18/50/50 153/239/235
f 37/40/44 141/176/237 156/235/240 20/49/49
f 142/177/238 39/41/45 19/243/52 155/236/239
f 41/44/46 145/179/241 158/232/244 22/234/51
f 146/180/242 43/45/47 21/53/54 157/233/243
f 45/48/48 149/183/245 160/258/248 24/52/53
f 150/184/246 47/35/42 23/241/56 159/230/247
s 11
f 164/144/196 161/187/254 53/77/89 52/69/73
f 161/187/249 165/190/252 54/55/57 53/77/89
f 170/152/206 167/193/262 59/83/95 58/71/77
f 167/193/257 171/196/260 60/63/65 59/83/95
f 176/168/226 173/199/270 62/80/92 61/75/85
f 173/199/265 177/202/268 63/66/69 62/80/92
f 182/160/216 179/204/278 68/82/94 67/73/81
f 179/204/273 183/207/276 69/60/62 68/82/94
f 1/248/71 185/227/255 166/189/251 49/68/72
f 165/190/252 186/226/256 2/56/58 54/55/57
f 4/57/59 187/224/263 172/195/259 55/58/60
f 171/196/260 188/223/264 3/225/66 60/63/65
f 63/66/69 177/202/268 190/220/272 5/222/70
f 178/201/267 64/59/61 6/62/64 189/221/271
f 69/60/62 183/207/276 192/217/280 8/61/63
f 184/206/275 70/65/68 7/245/67 191/218/279
f 51/76/86 163/143/195 122/278/194 9/30/87
f 164/144/196 52/69/73 10/276/76 121/141/193
f 57/70/74 169/151/205 126/274/204 11/18/75
f 170/152/206 58/71/77 12/272/80 125/149/203
f 66/74/82 175/167/225 134/266/224 15/26/83
f 176/168/226 61/75/85 16/263/88 133/165/223
f 72/72/78 181/159/215 130/270/214 13/22/79
f 182/160/216 67/73/81 14/268/84 129/157/213
f 51/76/86 50/79/91 162/188/253 163/143/195
f 50/79/91 49/68/72 166/189/251 162/188/250
f 57/70/74 56/78/90 168/194/261 169/151/205
f 56/78/90 55/58/60 172/195/259 168/194/258
f 178/201/267 174/200/266 65/81/93 64/59/61
f 174/200/269 175/167/225 66/74/82 65/81/93
f 184/206/275 180/205/274 71/84/96 70/65/68
f 180/205/277 181/159/215 72/72/78 71/84/96
s 7
f 193/120/164 74/85/97 26/293/100 113/117/161
f 75/88/102 194/119/163 114/295/162 25/9/103
f 195/138/188 76/87/101 32/280/104 119/135/185
f 77/90/106 196/137/187 120/283/186 31/16/107
f 197/132/180 78/89/105 30/285/108 117/129/177
f 79/92/110 198/131/179 118/287/178 29/14/111
f 199/126/172 80/91/109 28/289/112 115/123/169
f 73/86/98 200/125/171 116/291/170 27/12/99
f 201/210/282 82/93/113 74/85/97 193/120/164
f 83/96/116 202/209/281 194/119/163 75/88/102
f 203/212/284 84/95/115 76/87/101 195/138/188
f 85/98/118 204/211/283 196/137/187 77/90/106
f 205/214/286 86/97/117 78/89/105 197/132/180
f 87/100/143 206/213/285 198/131/179 79/92/110
f 207/216/288 88/99/144 80/91/109 199/126/172
f 81/94/114 208/215/287 200/125/171 73/86/98
f 209/147/201 94/105/135 82/93/113 201/210/282
f 95/108/138 210/148/202 202/209/281 83/96/116
f 211/171/231 96/107/137 84/95/115 203/212/284
f 97/110/140 212/172/232 204/211/283 85/98/118
f 213/163/221 98/109/139 86/97/117 205/214/286
f 99/112/142 214/164/222 206/213/285 87/100/143
f 215/155/211 100/111/141 88/99/144 207/216/288
f 93/106/136 216/156/212 208/215/287 81/94/114
f 123/145/199 102/20/28 94/105/135 209/147/201
f 103/31/39 124/146/200 210/148/202 95/108/138
f 135/169/229 104/32/40 96/107/137 211/171/231
f 105/27/35 136/170/230 212/172/232 97/110/140
f 131/161/219 106/28/36 98/109/139 213/163/221
f 107/23/31 132/162/220 214/164/222 99/112/142
f 127/153/209 108/24/32 100/111/141 215/155/211
f 101/19/27 128/154/210 216/156/212 93/106/136
s 2
f 23/54/289 22/51/290 158/182/291 159/185/292
f 156/178/293 153/175/294 18/244/295 20/237/296
f 155/8/8 154/7/7 153/175/294 156/178/293
f 23/54/289 17/6/6 19/5/5 22/51/290
f 160/186/297 157/181/298 21/242/299 24/231/300
f 159/185/292 158/182/291 157/181/298 160/186/297
s 1
f 185/191/301 188/198/302 187/197/303 186/192/304
f 1/67/305 3/64/306 188/198/302 185/191/301
f 186/192/304 187/197/303 4/247/307 2/228/308
f 7/1/1 3/64/306 1/67/305 5/2/2
f 192/208/309 189/203/310 6/246/311 8/219/312
f 191/4/4 190/3/3 189/203/310 192/208/309
