# Blender 4.4.0
# www.blender.org
mtllib ShortTable.mtl
o ShortTable
v 0.031510 0.620883 -0.149214
v 0.031510 0.620883 -0.020519
v 0.172440 0.620883 -0.020519
v 0.172038 0.620883 -0.149214
v 0.031510 0.606489 -0.149214
v 0.031510 0.606489 -0.020519
v 0.172440 0.606489 -0.020519
v 0.172038 0.606489 -0.149214
v 0.043420 0.592094 -0.138322
v 0.043420 0.592094 -0.031411
v 0.160496 0.592094 -0.031411
v 0.160162 0.592094 -0.138322
v 0.060424 0.545257 -0.122773
v 0.060424 0.545257 -0.046961
v 0.143444 0.545257 -0.046961
v 0.143207 0.545257 -0.122773
v 0.048665 0.488369 -0.109026
v 0.048665 0.488369 -0.033213
v 0.131685 0.488369 -0.033213
v 0.131448 0.488369 -0.109026
v 0.041056 0.429293 -0.102234
v 0.041056 0.429293 -0.026421
v 0.124076 0.429293 -0.026421
v 0.123840 0.429293 -0.102234
v 0.036215 0.373611 -0.095869
v 0.036215 0.373611 -0.020057
v 0.119234 0.373611 -0.020057
v 0.118998 0.373611 -0.095869
v 0.034831 0.324587 -0.090295
v 0.034831 0.324587 -0.014483
v 0.117851 0.324587 -0.014483
v 0.117614 0.324587 -0.090295
v 0.041748 0.266656 -0.093477
v 0.041748 0.266656 -0.017665
v 0.124768 0.266656 -0.017665
v 0.124531 0.266656 -0.093477
v 0.062402 0.212578 -0.106206
v 0.062402 0.212578 -0.030394
v 0.145422 0.212578 -0.030394
v 0.145185 0.212578 -0.106206
v 0.093494 0.162888 -0.121954
v 0.093494 0.162888 -0.055018
v 0.166793 0.162888 -0.055018
v 0.166584 0.162888 -0.121954
v 0.108870 0.116483 -0.142362
v 0.108870 0.116483 -0.066549
v 0.191890 0.116483 -0.066549
v 0.191653 0.116483 -0.142362
v 0.074549 0.073170 -0.182477
v 0.074549 0.073170 -0.026434
v 0.245427 0.073170 -0.026434
v 0.244940 0.073170 -0.182477
v 0.074549 0.061268 -0.182477
v 0.074549 0.061268 -0.026434
v 0.245427 0.061268 -0.026434
v 0.244940 0.061268 -0.182477
v 0.099220 0.061268 -0.159915
v 0.099220 0.061268 -0.048996
v 0.220685 0.061268 -0.048996
v 0.220339 0.061268 -0.159915
v 0.078272 0.049365 -0.179072
v 0.078272 0.049365 -0.029839
v 0.241693 0.049365 -0.029839
v 0.241227 0.049365 -0.179072
v 0.063693 0.033293 -0.192404
v 0.063693 0.033293 -0.016507
v 0.256314 0.033293 -0.016507
v 0.255765 0.033293 -0.192404
v 0.053460 0.012628 -0.201763
v 0.053460 0.012628 -0.007148
v 0.266576 0.012628 -0.007148
v 0.265969 0.012628 -0.201763
v 0.080735 -0.000000 -0.176819
v 0.080735 -0.000000 -0.032092
v 0.239223 -0.000000 -0.032092
v 0.238771 -0.000000 -0.176819
v 2.135220 0.620883 -0.149214
v 2.135220 0.620883 -0.020519
v 1.994290 0.620883 -0.020519
v 1.994692 0.620883 -0.149214
v 2.135220 0.606489 -0.149214
v 2.135220 0.606489 -0.020519
v 1.994290 0.606489 -0.020519
v 1.994692 0.606489 -0.149214
v 2.123310 0.592094 -0.138322
v 2.123310 0.592094 -0.031411
v 2.006235 0.592094 -0.031411
v 2.006568 0.592094 -0.138322
v 2.106307 0.545257 -0.122773
v 2.106307 0.545257 -0.046961
v 2.023287 0.545257 -0.046961
v 2.023523 0.545257 -0.122773
v 2.118065 0.488369 -0.109026
v 2.118065 0.488369 -0.033213
v 2.035045 0.488369 -0.033213
v 2.035282 0.488369 -0.109026
v 2.125674 0.429293 -0.102234
v 2.125674 0.429293 -0.026421
v 2.042654 0.429293 -0.026421
v 2.042891 0.429293 -0.102234
v 2.130516 0.373611 -0.095869
v 2.130516 0.373611 -0.020057
v 2.047496 0.373611 -0.020057
v 2.047732 0.373611 -0.095869
v 2.131899 0.324587 -0.090295
v 2.131899 0.324587 -0.014483
v 2.048879 0.324587 -0.014483
v 2.049116 0.324587 -0.090295
v 2.124982 0.266656 -0.093477
v 2.124982 0.266656 -0.017665
v 2.041962 0.266656 -0.017665
v 2.042199 0.266656 -0.093477
v 2.104328 0.212578 -0.106206
v 2.104328 0.212578 -0.030394
v 2.021308 0.212578 -0.030394
v 2.021545 0.212578 -0.106206
v 2.073236 0.162888 -0.121954
v 2.073236 0.162888 -0.055018
v 1.999937 0.162888 -0.055018
v 2.000146 0.162888 -0.121954
v 2.057861 0.116483 -0.142362
v 2.057861 0.116483 -0.066549
v 1.974840 0.116483 -0.066549
v 1.975077 0.116483 -0.142362
v 2.092182 0.073170 -0.182477
v 2.092182 0.073170 -0.026434
v 1.921303 0.073170 -0.026434
v 1.921790 0.073170 -0.182477
v 2.092182 0.061268 -0.182477
v 2.092182 0.061268 -0.026434
v 1.921303 0.061268 -0.026434
v 1.921790 0.061268 -0.182477
v 2.067510 0.061268 -0.159915
v 2.067510 0.061268 -0.048996
v 1.946045 0.061268 -0.048996
v 1.946391 0.061268 -0.159915
v 2.088458 0.049365 -0.179072
v 2.088458 0.049365 -0.029839
v 1.925037 0.049365 -0.029839
v 1.925503 0.049365 -0.179072
v 2.103037 0.033293 -0.192404
v 2.103037 0.033293 -0.016507
v 1.910416 0.033293 -0.016507
v 1.910966 0.033293 -0.192404
v 2.113271 0.012628 -0.201763
v 2.113271 0.012628 -0.007148
v 1.900154 0.012628 -0.007148
v 1.900761 0.012628 -0.201763
v 2.085995 -0.000000 -0.176819
v 2.085995 -0.000000 -0.032092
v 1.927508 -0.000000 -0.032092
v 1.927959 -0.000000 -0.176819
v 0.031510 0.620883 -1.261764
v 0.031510 0.620883 -1.390458
v 0.172440 0.620883 -1.390458
v 0.172038 0.620883 -1.261764
v 0.031510 0.606489 -1.261764
v 0.031510 0.606489 -1.390458
v 0.172440 0.606489 -1.390458
v 0.172038 0.606489 -1.261764
v 0.043420 0.592094 -1.272655
v 0.043420 0.592094 -1.379567
v 0.160496 0.592094 -1.379567
v 0.160162 0.592094 -1.272655
v 0.060424 0.545257 -1.288205
v 0.060424 0.545257 -1.364017
v 0.143444 0.545257 -1.364017
v 0.143207 0.545257 -1.288205
v 0.048665 0.488369 -1.301952
v 0.048665 0.488369 -1.377764
v 0.131685 0.488369 -1.377764
v 0.131448 0.488369 -1.301952
v 0.041056 0.429293 -1.308744
v 0.041056 0.429293 -1.384556
v 0.124076 0.429293 -1.384556
v 0.123840 0.429293 -1.308744
v 0.036215 0.373611 -1.315108
v 0.036215 0.373611 -1.390921
v 0.119234 0.373611 -1.390921
v 0.118998 0.373611 -1.315108
v 0.034831 0.324587 -1.320683
v 0.034831 0.324587 -1.396495
v 0.117851 0.324587 -1.396495
v 0.117614 0.324587 -1.320683
v 0.041748 0.266656 -1.317500
v 0.041748 0.266656 -1.393313
v 0.124768 0.266656 -1.393313
v 0.124531 0.266656 -1.317500
v 0.062402 0.212578 -1.304772
v 0.062402 0.212578 -1.380584
v 0.145422 0.212578 -1.380584
v 0.145185 0.212578 -1.304772
v 0.093494 0.162888 -1.289024
v 0.093494 0.162888 -1.355959
v 0.166793 0.162888 -1.355959
v 0.166584 0.162888 -1.289024
v 0.108870 0.116483 -1.268616
v 0.108870 0.116483 -1.344428
v 0.191890 0.116483 -1.344428
v 0.191653 0.116483 -1.268616
v 0.074549 0.073170 -1.228500
v 0.074549 0.073170 -1.384544
v 0.245427 0.073170 -1.384544
v 0.244940 0.073170 -1.228500
v 0.074549 0.061268 -1.228500
v 0.074549 0.061268 -1.384544
v 0.245427 0.061268 -1.384544
v 0.244940 0.061268 -1.228500
v 0.099220 0.061268 -1.251063
v 0.099220 0.061268 -1.361982
v 0.220685 0.061268 -1.361982
v 0.220339 0.061268 -1.251063
v 0.078272 0.049365 -1.231906
v 0.078272 0.049365 -1.381139
v 0.241693 0.049365 -1.381139
v 0.241227 0.049365 -1.231906
v 0.063693 0.033293 -1.218574
v 0.063693 0.033293 -1.394471
v 0.256314 0.033293 -1.394471
v 0.255765 0.033293 -1.218574
v 0.053460 0.012628 -1.209215
v 0.053460 0.012628 -1.403829
v 0.266576 0.012628 -1.403829
v 0.265969 0.012628 -1.209215
v 0.080735 -0.000000 -1.234158
v 0.080735 -0.000000 -1.378886
v 0.239223 -0.000000 -1.378886
v 0.238771 -0.000000 -1.234158
v 2.135220 0.620883 -1.261764
v 2.135220 0.620883 -1.390458
v 1.994290 0.620883 -1.390458
v 1.994692 0.620883 -1.261764
v 2.135220 0.606489 -1.261764
v 2.135220 0.606489 -1.390458
v 1.994290 0.606489 -1.390458
v 1.994692 0.606489 -1.261764
v 2.123310 0.592094 -1.272655
v 2.123310 0.592094 -1.379567
v 2.006235 0.592094 -1.379567
v 2.006568 0.592094 -1.272655
v 2.106307 0.545257 -1.288205
v 2.106307 0.545257 -1.364017
v 2.023287 0.545257 -1.364017
v 2.023523 0.545257 -1.288205
v 2.118065 0.488369 -1.301952
v 2.118065 0.488369 -1.377764
v 2.035045 0.488369 -1.377764
v 2.035282 0.488369 -1.301952
v 2.125674 0.429293 -1.308744
v 2.125674 0.429293 -1.384556
v 2.042654 0.429293 -1.384556
v 2.042891 0.429293 -1.308744
v 2.130516 0.373611 -1.315108
v 2.130516 0.373611 -1.390921
v 2.047496 0.373611 -1.390921
v 2.047732 0.373611 -1.315108
v 2.131899 0.324587 -1.320683
v 2.131899 0.324587 -1.396495
v 2.048879 0.324587 -1.396495
v 2.049116 0.324587 -1.320683
v 2.124982 0.266656 -1.317500
v 2.124982 0.266656 -1.393313
v 2.041962 0.266656 -1.393313
v 2.042199 0.266656 -1.317500
v 2.104328 0.212578 -1.304772
v 2.104328 0.212578 -1.380584
v 2.021308 0.212578 -1.380584
v 2.021545 0.212578 -1.304772
v 2.073236 0.162888 -1.289024
v 2.073236 0.162888 -1.355959
v 1.999937 0.162888 -1.355959
v 2.000146 0.162888 -1.289024
v 2.057861 0.116483 -1.268616
v 2.057861 0.116483 -1.344428
v 1.974840 0.116483 -1.344428
v 1.975077 0.116483 -1.268616
v 2.092182 0.073170 -1.228500
v 2.092182 0.073170 -1.384544
v 1.921303 0.073170 -1.384544
v 1.921790 0.073170 -1.228500
v 2.092182 0.061268 -1.228500
v 2.092182 0.061268 -1.384544
v 1.921303 0.061268 -1.384544
v 1.921790 0.061268 -1.228500
v 2.067510 0.061268 -1.251063
v 2.067510 0.061268 -1.361982
v 1.946045 0.061268 -1.361982
v 1.946391 0.061268 -1.251063
v 2.088458 0.049365 -1.231906
v 2.088458 0.049365 -1.381139
v 1.925037 0.049365 -1.381139
v 1.925503 0.049365 -1.231906
v 2.103037 0.033293 -1.218574
v 2.103037 0.033293 -1.394471
v 1.910416 0.033293 -1.394471
v 1.910966 0.033293 -1.218574
v 2.113271 0.012628 -1.209215
v 2.113271 0.012628 -1.403829
v 1.900154 0.012628 -1.403829
v 1.900761 0.012628 -1.209215
v 2.085995 -0.000000 -1.234158
v 2.085995 -0.000000 -1.378886
v 1.927508 -0.000000 -1.378886
v 1.927959 -0.000000 -1.234158
v 0.031510 0.714676 -0.149214
v 0.031510 0.714676 -0.020519
v 0.172440 0.714676 -0.020519
v 2.135220 0.714676 -0.149214
v 2.135220 0.714676 -0.020519
v 1.994290 0.714676 -0.020519
v 0.031510 0.714676 -1.261764
v 0.031510 0.714676 -1.390458
v 0.172440 0.714676 -1.390458
v 2.135220 0.714676 -1.261764
v 2.135220 0.714676 -1.390458
v 1.994290 0.714676 -1.390458
v 0.016037 0.725522 -0.141031
v 0.016037 0.725522 -0.010444
v 0.159040 0.725522 -0.010444
v 2.150693 0.725522 -0.141031
v 2.150693 0.725522 -0.010444
v 2.007690 0.725522 -0.010444
v 0.016037 0.725522 -1.269946
v 0.016037 0.725522 -1.400534
v 0.159040 0.725522 -1.400534
v 2.150693 0.725522 -1.269946
v 2.150693 0.725522 -1.400534
v 2.007690 0.725522 -1.400534
v 0.016037 0.732309 -0.141031
v 0.016037 0.732309 -0.010444
v 0.159040 0.732309 -0.010444
v 2.150693 0.732309 -0.141031
v 2.150693 0.732309 -0.010444
v 2.007690 0.732309 -0.010444
v 0.016037 0.732309 -1.269946
v 0.016037 0.732309 -1.400534
v 0.159040 0.732309 -1.400534
v 2.150693 0.732309 -1.269946
v 2.150693 0.732309 -1.400534
v 2.007690 0.732309 -1.400534
v 0.000000 0.740454 -0.132550
v 0.000000 0.740454 -0.000000
v 0.145152 0.740454 -0.000000
v 2.166730 0.740454 -0.132550
v 2.166730 0.740454 -0.000000
v 2.021578 0.740454 -0.000000
v 0.000000 0.740454 -1.278428
v 0.000000 0.740454 -1.410978
v 0.145152 0.740454 -1.410978
v 2.166730 0.740454 -1.278428
v 2.166730 0.740454 -1.410978
v 2.021578 0.740454 -1.410978
v 0.012310 0.750000 -0.139060
v 0.012310 0.750000 -0.008016
v 0.155812 0.750000 -0.008016
v 2.154420 0.750000 -0.139060
v 2.154420 0.750000 -0.008016
v 2.010918 0.750000 -0.008016
v 0.012310 0.750000 -1.271917
v 0.012310 0.750000 -1.402961
v 0.155812 0.750000 -1.402961
v 2.154420 0.750000 -1.271917
v 2.154420 0.750000 -1.402961
v 2.010918 0.750000 -1.402961
v 0.092946 0.732719 -0.074861
v 2.073785 0.732719 -0.074861
v 0.092946 0.732719 -1.336116
v 2.073785 0.732719 -1.336116
v 0.476082 0.586010 -0.020519
v 0.779723 0.620883 -0.020519
v 1.083365 0.661574 -0.020519
v 1.387007 0.620883 -0.020519
v 1.690649 0.586010 -0.020519
v 0.475814 0.586010 -0.149214
v 0.779590 0.620883 -0.149214
v 1.083365 0.661574 -0.149214
v 1.387141 0.620883 -0.149214
v 1.690916 0.586010 -0.149214
v 0.476082 0.586010 -1.390458
v 0.779723 0.620883 -1.390458
v 1.083365 0.661574 -1.390458
v 1.387007 0.620883 -1.390458
v 1.690649 0.586010 -1.390458
v 0.475814 0.586010 -1.261764
v 0.779590 0.620883 -1.261764
v 1.083365 0.661574 -1.261764
v 1.387141 0.620883 -1.261764
v 1.690916 0.586010 -1.261764
v 0.476082 0.714676 -0.020519
v 0.779723 0.714676 -0.020519
v 1.083365 0.714676 -0.020519
v 1.387007 0.714676 -0.020519
v 1.690649 0.714676 -0.020519
v 0.476082 0.714676 -1.390458
v 0.779723 0.714676 -1.390458
v 1.083365 0.714676 -1.390458
v 1.387007 0.714676 -1.390458
v 1.690649 0.714676 -1.390458
v 0.467149 0.725522 -0.010444
v 0.775257 0.725522 -0.010444
v 1.083365 0.725522 -0.010444
v 1.391473 0.725522 -0.010444
v 1.699582 0.725522 -0.010444
v 0.467149 0.725522 -1.400534
v 0.775257 0.725522 -1.400534
v 1.083365 0.725522 -1.400534
v 1.391473 0.725522 -1.400534
v 1.699582 0.725522 -1.400534
v 0.467149 0.732309 -0.010444
v 0.775257 0.732309 -0.010444
v 1.083365 0.732309 -0.010444
v 1.391473 0.732309 -0.010444
v 1.699582 0.732309 -0.010444
v 0.467149 0.732309 -1.400534
v 0.775257 0.732309 -1.400534
v 1.083365 0.732309 -1.400534
v 1.391473 0.732309 -1.400534
v 1.699582 0.732309 -1.400534
v 0.457889 0.740454 -0.000000
v 0.770627 0.740454 -0.000000
v 1.083365 0.740454 -0.000000
v 1.396103 0.740454 -0.000000
v 1.708841 0.740454 -0.000000
v 0.457889 0.740454 -1.410978
v 0.770627 0.740454 -1.410978
v 1.083365 0.740454 -1.410978
v 1.396103 0.740454 -1.410978
v 1.708841 0.740454 -1.410978
v 0.464997 0.750000 -0.008016
v 0.774181 0.750000 -0.008016
v 1.083365 0.750000 -0.008016
v 1.392549 0.750000 -0.008016
v 1.701733 0.750000 -0.008016
v 0.464997 0.750000 -1.402961
v 0.774181 0.750000 -1.402961
v 1.083365 0.750000 -1.402961
v 1.392549 0.750000 -1.402961
v 1.701733 0.750000 -1.402961
v 0.595897 0.732719 -0.074862
v 1.083365 0.732719 -0.074862
v 1.534796 0.732719 -0.074861
v 0.595897 0.732719 -1.336116
v 1.083365 0.732719 -1.336116
v 1.534796 0.732719 -1.336116
vn 1.0000 -0.0000 -0.0031
vn -0.0000 -0.0000 1.0000
vn -0.0000 -0.0000 -1.0000
vn -1.0000 -0.0000 -0.0000
vn -0.0000 -0.6034 -0.7974
vn -0.0000 -0.6034 -0.7975
vn -0.7705 -0.6375 -0.0000
vn 0.7705 -0.6375 -0.0024
vn 0.7705 -0.6374 -0.0024
vn -0.0000 -0.6034 0.7974
vn 0.9400 -0.3412 -0.0029
vn -0.0000 -0.3151 0.9491
vn -0.0000 -0.3151 -0.9491
vn -0.9400 -0.3413 -0.0000
vn -0.0000 -0.2349 -0.9720
vn -0.9793 0.2024 -0.0000
vn 0.9792 -0.2031 -0.0031
vn 0.9791 -0.2031 -0.0031
vn -0.0000 0.2349 0.9720
vn -0.9918 0.1277 -0.0000
vn 0.9918 -0.1281 -0.0031
vn -0.0000 0.1139 0.9935
vn -0.0000 0.1142 0.9935
vn -0.0000 -0.1142 -0.9935
vn -0.0000 -0.1143 -0.9934
vn 0.9962 -0.0870 -0.0031
vn -0.0000 0.1136 0.9935
vn -0.0000 0.1133 0.9936
vn -0.0000 -0.1136 -0.9935
vn -0.0000 -0.1133 -0.9936
vn -0.9962 0.0866 -0.0000
vn -0.0000 -0.1130 -0.9936
vn -0.9996 0.0282 -0.0000
vn 0.9996 -0.0286 -0.0031
vn -0.0000 0.1130 0.9936
vn 0.9929 0.1187 -0.0031
vn -0.0000 -0.0548 0.9985
vn -0.0000 0.0548 -0.9985
vn -0.9929 -0.1187 -0.0000
vn -0.9929 -0.1186 -0.0000
vn -0.0000 -0.2291 0.9734
vn -0.0000 0.2291 -0.9734
vn -0.9342 -0.3568 -0.0000
vn 0.9339 0.3574 -0.0029
vn -0.0000 0.3021 -0.9533
vn -0.8478 -0.5304 -0.0000
vn -0.8477 -0.5304 -0.0000
vn 0.9181 0.3963 -0.0029
vn -0.0000 -0.4440 0.8960
vn 0.8793 0.4762 -0.0027
vn -0.0000 -0.2412 0.9705
vn -0.0000 0.4026 -0.9154
vn -0.9492 -0.3145 -0.0000
vn -0.0000 0.6795 -0.7337
vn -0.7838 0.6211 -0.0000
vn 0.6299 0.7767 -0.0020
vn -0.0000 0.6795 0.7337
vn -0.0000 -1.0000 -0.0000
vn -0.0000 0.8494 -0.5278
vn -0.4940 0.8694 -0.0000
vn -0.4940 0.8695 -0.0000
vn 0.4940 0.8694 -0.0015
vn 0.4941 0.8694 -0.0015
vn -0.0000 0.8494 0.5278
vn -0.7407 0.6719 -0.0000
vn 0.7407 0.6718 -0.0023
vn -0.0000 0.6384 0.7697
vn -0.0000 0.6384 -0.7697
vn 0.8961 0.4438 -0.0028
vn -0.0000 0.4126 0.9109
vn -0.0000 0.4126 -0.9109
vn -0.8961 0.4438 -0.0000
vn -0.0000 -0.8922 -0.4517
vn -0.4201 -0.9075 -0.0000
vn 0.4201 -0.9075 -0.0013
vn -0.0000 -0.8922 0.4517
vn -1.0000 -0.0000 -0.0031
vn 1.0000 -0.0000 -0.0000
vn 0.7705 -0.6375 -0.0000
vn 0.7705 -0.6374 -0.0000
vn -0.7705 -0.6375 -0.0024
vn -0.7705 -0.6374 -0.0024
vn -0.9400 -0.3412 -0.0029
vn 0.9400 -0.3412 -0.0000
vn 0.9793 0.2024 -0.0000
vn -0.9792 -0.2031 -0.0031
vn 0.9918 0.1277 -0.0000
vn -0.9918 -0.1281 -0.0031
vn -0.9962 -0.0870 -0.0031
vn 0.9962 0.0866 -0.0000
vn 0.9996 0.0282 -0.0000
vn -0.9996 -0.0286 -0.0031
vn -0.9929 0.1187 -0.0031
vn 0.9929 -0.1186 -0.0000
vn 0.9929 -0.1187 -0.0000
vn 0.9342 -0.3568 -0.0000
vn -0.9340 0.3574 -0.0029
vn -0.9339 0.3574 -0.0029
vn 0.8478 -0.5304 -0.0000
vn 0.8477 -0.5304 -0.0000
vn -0.9181 0.3963 -0.0029
vn -0.8793 0.4762 -0.0027
vn 0.9493 -0.3145 -0.0000
vn 0.7838 0.6211 -0.0000
vn -0.6299 0.7767 -0.0020
vn 0.4940 0.8694 -0.0000
vn 0.4940 0.8695 -0.0000
vn -0.4940 0.8694 -0.0015
vn -0.4941 0.8694 -0.0015
vn 0.7407 0.6718 -0.0000
vn -0.7407 0.6718 -0.0023
vn -0.8961 0.4438 -0.0028
vn 0.8961 0.4438 -0.0000
vn 0.4201 -0.9075 -0.0000
vn -0.4201 -0.9075 -0.0013
vn 1.0000 -0.0000 0.0031
vn -0.0000 -0.6033 0.7975
vn 0.7705 -0.6375 0.0024
vn 0.7705 -0.6374 0.0024
vn 0.9400 -0.3412 0.0029
vn -0.0000 -0.2349 0.9720
vn 0.9791 -0.2031 0.0031
vn 0.9792 -0.2031 0.0031
vn -0.0000 0.2349 -0.9720
vn 0.9918 -0.1281 0.0031
vn -0.0000 0.1143 -0.9935
vn -0.0000 0.1143 -0.9934
vn -0.0000 -0.1142 0.9935
vn -0.0000 -0.1139 0.9935
vn 0.9962 -0.0870 0.0031
vn -0.0000 0.1136 -0.9935
vn -0.0000 -0.1137 0.9935
vn -0.0000 -0.1136 0.9935
vn -0.0000 -0.1130 0.9936
vn 0.9996 -0.0286 0.0031
vn -0.0000 0.1130 -0.9936
vn 0.9929 0.1187 0.0031
vn -0.0000 -0.0549 -0.9985
vn -0.0000 0.0548 0.9985
vn -0.0000 -0.2291 -0.9734
vn -0.0000 0.2291 0.9734
vn 0.9339 0.3574 0.0029
vn -0.0000 0.3021 0.9533
vn 0.9181 0.3963 0.0029
vn -0.0000 -0.4440 -0.8960
vn 0.8793 0.4762 0.0027
vn -0.0000 -0.2412 -0.9705
vn -0.0000 0.4026 0.9154
vn 0.6299 0.7767 0.0020
vn 0.4940 0.8694 0.0015
vn 0.4941 0.8694 0.0015
vn 0.7407 0.6718 0.0023
vn 0.8961 0.4438 0.0028
vn -0.0000 0.4125 -0.9110
vn 0.4201 -0.9075 0.0013
vn -1.0000 -0.0000 0.0031
vn -0.0000 -0.6034 0.7975
vn -0.7705 -0.6375 0.0024
vn -0.7705 -0.6374 0.0024
vn -0.9400 -0.3412 0.0029
vn -0.9792 -0.2031 0.0031
vn -0.9918 -0.1281 0.0031
vn -0.0000 0.1139 -0.9935
vn -0.0000 0.1142 -0.9935
vn -0.9962 -0.0870 0.0031
vn -0.0000 0.1133 -0.9936
vn -0.9996 -0.0286 0.0031
vn -0.9929 0.1187 0.0031
vn -0.9339 0.3574 0.0029
vn -0.9340 0.3574 0.0029
vn -0.9181 0.3963 0.0029
vn -0.8793 0.4762 0.0027
vn -0.6299 0.7767 0.0020
vn -0.4940 0.8694 0.0015
vn -0.4941 0.8694 0.0015
vn -0.7407 0.6718 0.0023
vn -0.8961 0.4438 0.0028
vn -0.4201 -0.9075 0.0013
vn 0.1140 -0.9935 -0.0000
vn 0.1141 -0.9935 0.0003
vn 0.1140 -0.9935 -0.0003
vn 0.1141 -0.9935 -0.0001
vn 0.1141 -0.9935 -0.0003
vn 0.5740 -0.8189 -0.0000
vn -0.0000 -0.6806 0.7327
vn -0.5740 -0.8189 -0.0000
vn -0.0000 -0.6806 -0.7326
vn -0.0000 -0.7885 -0.6150
vn 0.4528 -0.8916 -0.0000
vn -0.0000 -0.7885 0.6150
vn -0.0000 -0.7886 0.6150
vn -0.4528 -0.8916 -0.0000
vn -0.6128 0.7902 -0.0000
vn -0.0000 0.6431 -0.7658
vn 0.6128 0.7902 -0.0000
vn -0.0000 0.6431 0.7658
vn -0.0000 0.9499 0.3126
vn -0.2096 0.9778 -0.0000
vn -0.0000 0.9499 -0.3126
vn 0.2096 0.9778 -0.0000
vn -0.0000 1.0000 -0.0000
vn -0.1139 -0.9935 -0.0000
vn 0.1140 -0.9935 -0.0001
vn 0.1328 -0.9911 -0.0000
vn -0.1328 -0.9911 -0.0000
vn -0.1328 -0.9911 -0.0001
vn -0.1141 -0.9935 -0.0003
vn 0.1141 -0.9935 0.0002
vn 0.1328 -0.9911 0.0001
vn -0.1328 -0.9911 0.0001
vn -0.1141 -0.9935 0.0001
vn -0.1141 -0.9935 0.0003
vn 0.1328 -0.9911 -0.0001
vt 0.257548 0.975338
vt 0.278672 0.944671
vt 0.274747 0.943040
vt 0.254118 0.972975
vt 0.286172 0.903029
vt 0.281453 0.902801
vt 0.280486 0.864730
vt 0.255646 0.829583
vt 0.251432 0.832665
vt 0.275958 0.866354
vt 0.249243 0.838712
vt 0.269818 0.868443
vt 0.276075 0.902949
vt 0.268883 0.940630
vt 0.251525 0.967499
vt 0.252509 0.935327
vt 0.242295 0.957026
vt 0.257152 0.904406
vt 0.240676 0.850588
vt 0.254010 0.874556
vt 0.229047 0.859285
vt 0.234983 0.881720
vt 0.234352 0.904495
vt 0.234555 0.928754
vt 0.230528 0.948968
vt 0.218149 0.884799
vt 0.217516 0.904368
vt 0.217955 0.925909
vt 0.216384 0.945203
vt 0.215296 0.864174
vt 0.203552 0.924195
vt 0.202902 0.942932
vt 0.203780 0.904422
vt 0.201952 0.867072
vt 0.204248 0.886777
vt 0.190099 0.868886
vt 0.192739 0.888222
vt 0.192987 0.904587
vt 0.191624 0.922900
vt 0.190933 0.941308
vt 0.177341 0.922560
vt 0.176406 0.941567
vt 0.181280 0.904527
vt 0.175945 0.869599
vt 0.179267 0.888579
vt 0.168447 0.904614
vt 0.162127 0.924292
vt 0.162110 0.867068
vt 0.165152 0.886896
vt 0.161362 0.944456
vt 0.150549 0.862196
vt 0.148730 0.882172
vt 0.149402 0.903984
vt 0.145022 0.929005
vt 0.147438 0.949884
vt 0.129802 0.934922
vt 0.132889 0.959811
vt 0.128042 0.901895
vt 0.141162 0.853543
vt 0.134071 0.875683
vt 0.126932 0.835183
vt 0.116906 0.872533
vt 0.111328 0.901187
vt 0.108080 0.939025
vt 0.109712 0.980123
vt 0.123349 0.834405
vt 0.114179 0.871865
vt 0.108311 0.900641
vt 0.105000 0.938894
vt 0.105604 0.980310
vt 0.096620 0.937829
vt 0.100280 0.975836
vt 0.101427 0.900973
vt 0.118871 0.837565
vt 0.109000 0.870794
vt 0.116845 0.833621
vt 0.103954 0.868986
vt 0.095654 0.898392
vt 0.089182 0.938318
vt 0.095635 0.980975
vt 0.099440 0.867888
vt 0.091191 0.897145
vt 0.083654 0.938351
vt 0.089275 0.986505
vt 0.113218 0.828418
vt 0.076940 0.937913
vt 0.082018 0.990694
vt 0.086965 0.896004
vt 0.108648 0.824072
vt 0.094278 0.866547
vt 0.100207 0.828296
vt 0.088628 0.864741
vt 0.078851 0.894901
vt 0.066376 0.936193
vt 0.071326 0.983582
vt 0.263787 0.833303
vt 0.260214 0.835643
vt 0.280609 0.866791
vt 0.284706 0.865248
vt 0.285942 0.908523
vt 0.290672 0.908531
vt 0.281923 0.945220
vt 0.277756 0.943461
vt 0.254067 0.973601
vt 0.257819 0.976593
vt 0.272884 0.941288
vt 0.252297 0.968058
vt 0.279712 0.907768
vt 0.257426 0.841202
vt 0.274505 0.869051
vt 0.247726 0.851852
vt 0.257741 0.874087
vt 0.261287 0.905502
vt 0.257649 0.934704
vt 0.244594 0.957237
vt 0.239231 0.927324
vt 0.233469 0.949061
vt 0.238871 0.904819
vt 0.235602 0.860008
vt 0.239500 0.880475
vt 0.222176 0.904721
vt 0.222689 0.924142
vt 0.221300 0.863798
vt 0.222807 0.883186
vt 0.219955 0.944447
vt 0.207783 0.866100
vt 0.208397 0.884820
vt 0.208508 0.904557
vt 0.208909 0.922134
vt 0.206709 0.941723
vt 0.197436 0.920673
vt 0.194867 0.940024
vt 0.197748 0.904319
vt 0.195856 0.867747
vt 0.196496 0.886053
vt 0.181457 0.867516
vt 0.182288 0.886296
vt 0.186051 0.904288
vt 0.183930 0.920269
vt 0.180651 0.939462
vt 0.167238 0.884395
vt 0.173196 0.904042
vt 0.169660 0.921859
vt 0.166558 0.942233
vt 0.166738 0.864673
vt 0.152770 0.926382
vt 0.154443 0.947472
vt 0.154005 0.904181
vt 0.153444 0.859294
vt 0.150534 0.879405
vt 0.140092 0.849534
vt 0.135896 0.873101
vt 0.132130 0.905049
vt 0.137411 0.932545
vt 0.143842 0.957024
vt 0.119390 0.934593
vt 0.126440 0.977942
vt 0.114604 0.904521
vt 0.119862 0.829735
vt 0.115472 0.867905
vt 0.116432 0.935092
vt 0.122300 0.978493
vt 0.111486 0.904811
vt 0.116058 0.829283
vt 0.112555 0.867777
vt 0.110776 0.833086
vt 0.104631 0.868093
vt 0.104342 0.903765
vt 0.111162 0.935754
vt 0.117833 0.974609
vt 0.103857 0.936435
vt 0.114557 0.979571
vt 0.099679 0.904562
vt 0.106909 0.828101
vt 0.097806 0.867017
vt 0.095097 0.905165
vt 0.098812 0.936965
vt 0.101465 0.822593
vt 0.092723 0.866523
vt 0.109628 0.985373
vt 0.095101 0.818253
vt 0.086551 0.866378
vt 0.090723 0.905625
vt 0.092949 0.937563
vt 0.103633 0.990083
vt 0.083945 0.939251
vt 0.093968 0.984132
vt 0.084746 0.905721
vt 0.084803 0.824015
vt 0.076925 0.867086
vt 0.267269 0.970926
vt 0.263390 0.968787
vt 0.282034 0.934974
vt 0.286391 0.936247
vt 0.284258 0.891434
vt 0.289142 0.891052
vt 0.277184 0.853867
vt 0.273023 0.856016
vt 0.246153 0.826822
vt 0.249784 0.823432
vt 0.268168 0.858649
vt 0.244773 0.832685
vt 0.277884 0.892707
vt 0.260070 0.963258
vt 0.275547 0.933117
vt 0.249202 0.953007
vt 0.257825 0.929221
vt 0.259044 0.896492
vt 0.252975 0.866654
vt 0.237696 0.844480
vt 0.234584 0.875723
vt 0.226886 0.853825
vt 0.235974 0.898926
vt 0.236009 0.945514
vt 0.238477 0.924018
vt 0.218791 0.900283
vt 0.217826 0.880297
vt 0.220878 0.942681
vt 0.221016 0.922458
vt 0.213355 0.859697
vt 0.206638 0.941288
vt 0.206007 0.921776
vt 0.204765 0.901434
vt 0.203865 0.883425
vt 0.199994 0.863615
vt 0.192283 0.885794
vt 0.188048 0.866384
vt 0.193769 0.902403
vt 0.194048 0.940390
vt 0.193646 0.921253
vt 0.178905 0.941425
vt 0.179016 0.921758
vt 0.181907 0.903173
vt 0.178665 0.887193
vt 0.173689 0.868337
vt 0.163702 0.924216
vt 0.169073 0.904121
vt 0.164314 0.886582
vt 0.159508 0.867164
vt 0.163268 0.944870
vt 0.147268 0.883067
vt 0.147840 0.863481
vt 0.150709 0.904741
vt 0.148674 0.950325
vt 0.146745 0.929312
vt 0.133608 0.959500
vt 0.131262 0.934817
vt 0.132152 0.904647
vt 0.130680 0.877250
vt 0.139771 0.855957
vt 0.117625 0.873026
vt 0.127210 0.835473
vt 0.112301 0.900987
vt 0.111025 0.977576
vt 0.110090 0.937740
vt 0.114945 0.872415
vt 0.123625 0.834624
vt 0.109318 0.900555
vt 0.107056 0.977672
vt 0.107122 0.937593
vt 0.102017 0.973259
vt 0.099152 0.936503
vt 0.104769 0.900409
vt 0.107981 0.870222
vt 0.118537 0.838024
vt 0.103406 0.868827
vt 0.116494 0.833874
vt 0.098626 0.897945
vt 0.097530 0.978034
vt 0.092027 0.936893
vt 0.094115 0.896921
vt 0.099127 0.867966
vt 0.091352 0.983222
vt 0.086734 0.936877
vt 0.112855 0.828703
vt 0.084335 0.987120
vt 0.080302 0.936424
vt 0.089918 0.896000
vt 0.094122 0.866942
vt 0.108242 0.824402
vt 0.088537 0.865474
vt 0.099803 0.828732
vt 0.082006 0.895296
vt 0.074220 0.980144
vt 0.070246 0.934723
vt 0.266090 0.971313
vt 0.285213 0.936635
vt 0.280856 0.935362
vt 0.262211 0.969174
vt 0.287965 0.891440
vt 0.283080 0.891822
vt 0.276008 0.854255
vt 0.248607 0.823820
vt 0.244977 0.827209
vt 0.271846 0.856403
vt 0.243597 0.833072
vt 0.266991 0.859036
vt 0.276706 0.893095
vt 0.274369 0.933505
vt 0.258892 0.963645
vt 0.256647 0.929609
vt 0.248024 0.953394
vt 0.257866 0.896879
vt 0.236520 0.844867
vt 0.251799 0.867041
vt 0.225709 0.854212
vt 0.233407 0.876109
vt 0.234797 0.899313
vt 0.237299 0.924405
vt 0.234831 0.945901
vt 0.216649 0.880683
vt 0.217613 0.900670
vt 0.219839 0.922845
vt 0.219700 0.943068
vt 0.212178 0.860083
vt 0.204829 0.922163
vt 0.205460 0.941674
vt 0.203588 0.901820
vt 0.198817 0.864002
vt 0.202688 0.883812
vt 0.186871 0.866770
vt 0.191106 0.886181
vt 0.192592 0.902789
vt 0.192468 0.921639
vt 0.192870 0.940776
vt 0.177838 0.922144
vt 0.177727 0.941811
vt 0.180729 0.903559
vt 0.172511 0.868723
vt 0.177487 0.887580
vt 0.167895 0.904507
vt 0.162524 0.924602
vt 0.158331 0.867550
vt 0.163137 0.886968
vt 0.162090 0.945256
vt 0.146663 0.863867
vt 0.146090 0.883452
vt 0.149532 0.905127
vt 0.145568 0.929698
vt 0.147496 0.950711
vt 0.130084 0.935203
vt 0.132430 0.959886
vt 0.130974 0.905033
vt 0.138594 0.856342
vt 0.129503 0.877636
vt 0.126033 0.835858
vt 0.116448 0.873411
vt 0.111124 0.901372
vt 0.108912 0.938126
vt 0.109847 0.977961
vt 0.122448 0.835010
vt 0.113767 0.872801
vt 0.108140 0.900940
vt 0.105944 0.937978
vt 0.105877 0.978058
vt 0.097975 0.936889
vt 0.100839 0.973644
vt 0.103592 0.900794
vt 0.117360 0.838410
vt 0.106803 0.870607
vt 0.115317 0.834259
vt 0.102229 0.869212
vt 0.097448 0.898331
vt 0.090849 0.937279
vt 0.096352 0.978420
vt 0.097949 0.868352
vt 0.092937 0.897306
vt 0.085555 0.937262
vt 0.090174 0.983608
vt 0.111678 0.829088
vt 0.079124 0.936810
vt 0.083157 0.987505
vt 0.088740 0.896385
vt 0.107065 0.824787
vt 0.092944 0.867328
vt 0.098626 0.829117
vt 0.087360 0.865859
vt 0.080828 0.895681
vt 0.069068 0.935108
vt 0.073042 0.980529
vt 0.077613 0.437470
vt 0.015054 0.437469
vt 0.015054 0.068276
vt 0.077613 0.068276
vt 0.758852 0.437470
vt 0.894972 0.437470
vt 0.894794 0.480176
vt 0.758734 0.480176
vt 0.894972 0.068276
vt 0.957531 0.068276
vt 0.957531 0.437470
vt 0.758852 0.068276
vt 0.758734 0.025569
vt 0.894795 0.025569
vt 0.145556 0.778284
vt 0.114760 0.778284
vt 0.114760 0.800728
vt 0.145556 0.800728
vt 0.442578 0.778284
vt 0.411782 0.778284
vt 0.411782 0.800728
vt 0.442578 0.800728
vt 0.145291 0.778284
vt 0.411517 0.778284
vt 0.411517 0.800728
vt 0.145291 0.800728
vt 0.529731 0.779191
vt 0.496007 0.779191
vt 0.496007 0.801635
vt 0.529731 0.801635
vt 0.496007 0.779349
vt 0.529731 0.779349
vt 0.529731 0.801793
vt 0.496007 0.801793
vt 0.114495 0.778284
vt 0.114495 0.800728
vt 0.442312 0.778284
vt 0.442312 0.800728
vt 0.132710 0.770846
vt 0.060051 0.779191
vt 0.060051 0.801635
vt 0.132710 0.801635
vt 0.026327 0.779191
vt 0.026327 0.801635
vt 0.423348 0.771004
vt 0.423348 0.801793
vt 0.026327 0.779349
vt 0.060051 0.779349
vt 0.060051 0.801793
vt 0.026327 0.801793
vt 0.143333 0.805249
vt 0.112084 0.805249
vt 0.056845 0.805177
vt 0.130573 0.805177
vt 0.444724 0.805249
vt 0.413475 0.805249
vt 0.022625 0.805177
vt 0.112349 0.805249
vt 0.143598 0.805249
vt 0.056845 0.805335
vt 0.022625 0.805335
vt 0.413740 0.805249
vt 0.444989 0.805249
vt 0.499214 0.805335
vt 0.425486 0.805335
vt 0.499214 0.805177
vt 0.533434 0.805177
vt 0.533434 0.805335
vt 0.533434 0.806960
vt 0.499214 0.806960
vt 0.143333 0.806873
vt 0.112084 0.806873
vt 0.056845 0.806801
vt 0.130573 0.806801
vt 0.444724 0.806873
vt 0.413475 0.806873
vt 0.022625 0.806801
vt 0.112349 0.806874
vt 0.143598 0.806873
vt 0.056845 0.806960
vt 0.022625 0.806960
vt 0.413740 0.806873
vt 0.444989 0.806873
vt 0.425486 0.806960
vt 0.499214 0.806801
vt 0.533434 0.806801
vt 0.537271 0.810129
vt 0.502537 0.810129
vt 0.141304 0.811177
vt 0.109585 0.811178
vt 0.053521 0.809970
vt 0.128357 0.809970
vt 0.447223 0.811177
vt 0.415504 0.811177
vt 0.018787 0.809970
vt 0.109850 0.811178
vt 0.141569 0.811178
vt 0.053521 0.810129
vt 0.018787 0.810129
vt 0.415769 0.811178
vt 0.447488 0.811178
vt 0.427701 0.810129
vt 0.502537 0.809970
vt 0.537271 0.809970
vt 0.985063 0.063904
vt 0.985063 0.439838
vt 0.978242 0.437536
vt 0.978254 0.066195
vt 0.920175 0.018352
vt 0.981470 0.021766
vt 0.975280 0.025282
vt 0.915201 0.022278
vt 0.018386 0.479668
vt 0.015054 0.437464
vt 0.021881 0.435199
vt 0.024606 0.476163
vt 0.218809 0.486840
vt 0.079799 0.483243
vt 0.084799 0.479315
vt 0.222144 0.482763
vt 0.017690 0.061951
vt 0.021720 0.019820
vt 0.027876 0.023369
vt 0.024477 0.064274
vt 0.981299 0.482150
vt 0.975095 0.478602
vt 0.083055 0.016730
vt 0.087993 0.020680
vt 0.781658 0.014960
vt 0.778349 0.019029
vt 0.919662 0.485425
vt 0.914681 0.481463
vt 0.941608 0.045721
vt 0.058392 0.455784
vt 0.297476 0.461348
vt 0.061387 0.043995
vt 0.941368 0.457977
vt 0.719410 0.040818
vt 0.717878 0.462197
vt 0.224776 0.018077
vt 0.299567 0.039828
vt 0.362599 0.016321
vt 0.501490 0.015626
vt 0.501403 0.038672
vt 0.640445 0.016891
vt 0.776973 0.484292
vt 0.638654 0.485866
vt 0.499595 0.486607
vt 0.499695 0.463539
vt 0.360442 0.485243
vt 0.221496 0.013998
vt 0.360941 0.012175
vt 0.501505 0.011449
vt 0.642129 0.012749
vt 0.780271 0.488393
vt 0.640312 0.490022
vt 0.499578 0.490790
vt 0.358742 0.489392
vt 0.130573 0.806960
vt 0.128357 0.810129
vt 0.204301 0.806960
vt 0.203193 0.810129
vt 0.278029 0.806960
vt 0.278029 0.810129
vt 0.351757 0.806960
vt 0.352865 0.810129
vt 0.425486 0.806801
vt 0.427701 0.809970
vt 0.351757 0.806801
vt 0.352865 0.809970
vt 0.278029 0.806801
vt 0.278029 0.809970
vt 0.204301 0.806801
vt 0.203193 0.809970
vt 0.130573 0.805335
vt 0.204301 0.805335
vt 0.278029 0.805335
vt 0.351757 0.805335
vt 0.425486 0.805177
vt 0.351757 0.805177
vt 0.278029 0.805177
vt 0.204301 0.805177
vt 0.132710 0.801793
vt 0.205370 0.801793
vt 0.278029 0.801793
vt 0.350689 0.801793
vt 0.423348 0.801635
vt 0.350689 0.801635
vt 0.278029 0.801635
vt 0.205370 0.801635
vt 0.132710 0.771004
vt 0.205370 0.779349
vt 0.278029 0.789086
vt 0.350689 0.779349
vt 0.423348 0.770846
vt 0.350689 0.779191
vt 0.278029 0.788928
vt 0.205370 0.779191
vt 0.213733 0.068276
vt 0.213733 0.437470
vt 0.349853 0.068276
vt 0.349853 0.437470
vt 0.486293 0.068276
vt 0.486293 0.437470
vt 0.622733 0.068276
vt 0.622732 0.437470
vt 0.077791 0.025569
vt 0.213852 0.025569
vt 0.349912 0.025569
vt 0.486293 0.025569
vt 0.622673 0.025569
vt 0.213852 0.480176
vt 0.077791 0.480176
vt 0.349912 0.480176
vt 0.486293 0.480176
vt 0.622673 0.480176
s 1
usemtl initialShadingGroup.001
f 4/1/1 3/2/1 7/3/1 8/4/1
f 3/2/2 2/5/2 6/6/2 7/3/2
f 1/7/3 4/8/3 8/9/3 5/10/3
f 2/5/4 1/7/4 5/10/4 6/6/4
f 5/10/5 8/9/5 12/11/5 9/12/6
f 6/6/7 5/10/7 9/12/7 10/13/7
f 8/4/8 7/3/8 11/14/9 12/15/8
f 7/3/10 6/6/10 10/13/10 11/14/10
f 12/15/8 11/14/9 15/16/11 16/17/11
f 11/14/10 10/13/10 14/18/12 15/16/12
f 9/12/6 12/11/5 16/19/13 13/20/13
f 10/13/7 9/12/7 13/20/14 14/18/14
f 13/20/13 16/19/13 20/21/15 17/22/15
f 14/18/16 13/20/16 17/22/16 18/23/16
f 16/17/11 15/16/11 19/24/17 20/25/18
f 15/16/19 14/18/19 18/23/19 19/24/19
f 18/23/16 17/22/16 21/26/20 22/27/20
f 20/25/18 19/24/17 23/28/21 24/29/21
f 19/24/19 18/23/19 22/27/22 23/28/23
f 17/22/15 20/21/15 24/30/24 21/26/25
f 24/29/21 23/28/21 27/31/26 28/32/26
f 23/28/23 22/27/22 26/33/27 27/31/28
f 21/26/25 24/30/24 28/34/29 25/35/30
f 22/27/20 21/26/20 25/35/31 26/33/31
f 25/35/30 28/34/29 32/36/32 29/37/32
f 26/33/31 25/35/31 29/37/33 30/38/33
f 28/32/26 27/31/26 31/39/34 32/40/34
f 27/31/28 26/33/27 30/38/35 31/39/35
f 32/40/34 31/39/34 35/41/36 36/42/36
f 31/39/35 30/38/35 34/43/37 35/41/37
f 29/37/32 32/36/32 36/44/38 33/45/38
f 30/38/33 29/37/33 33/45/39 34/43/40
f 35/41/37 34/43/37 38/46/41 39/47/41
f 33/45/38 36/44/38 40/48/42 37/49/42
f 34/43/40 33/45/39 37/49/43 38/46/43
f 36/42/36 35/41/36 39/47/44 40/50/44
f 37/49/42 40/48/42 44/51/45 41/52/45
f 38/46/43 37/49/43 41/52/46 42/53/47
f 40/50/44 39/47/44 43/54/48 44/55/48
f 39/47/41 38/46/41 42/53/49 43/54/49
f 44/55/48 43/54/48 47/56/50 48/57/50
f 43/54/49 42/53/49 46/58/51 47/56/51
f 41/52/45 44/51/45 48/59/52 45/60/52
f 42/53/47 41/52/46 45/60/53 46/58/53
f 45/60/52 48/59/52 52/61/54 49/62/54
f 46/58/55 45/60/55 49/62/55 50/63/55
f 48/57/50 47/56/50 51/64/56 52/65/56
f 47/56/57 46/58/57 50/63/57 51/64/57
f 49/62/3 52/61/3 56/66/3 53/67/3
f 50/63/4 49/62/4 53/67/4 54/68/4
f 52/65/1 51/64/1 55/69/1 56/70/1
f 51/64/2 50/63/2 54/68/2 55/69/2
f 56/70/58 55/69/58 59/71/58 60/72/58
f 55/69/58 54/68/58 58/73/58 59/71/58
f 53/67/58 56/66/58 60/74/58 57/75/58
f 54/68/58 53/67/58 57/75/58 58/73/58
f 57/75/59 60/74/59 64/76/59 61/77/59
f 58/73/60 57/75/60 61/77/61 62/78/61
f 60/72/62 59/71/62 63/79/63 64/80/63
f 59/71/64 58/73/64 62/78/64 63/79/64
f 62/78/61 61/77/61 65/81/65 66/82/65
f 64/80/63 63/79/63 67/83/66 68/84/66
f 63/79/64 62/78/64 66/82/67 67/83/67
f 61/77/59 64/76/59 68/85/68 65/81/68
f 68/84/66 67/83/66 71/86/69 72/87/69
f 67/83/67 66/82/67 70/88/70 71/86/70
f 65/81/68 68/85/68 72/89/71 69/90/71
f 66/82/65 65/81/65 69/90/72 70/88/72
f 69/90/73 72/89/73 76/91/73 73/92/73
f 70/88/74 69/90/74 73/92/74 74/93/74
f 72/87/75 71/86/75 75/94/75 76/95/75
f 71/86/76 70/88/76 74/93/76 75/94/76
f 80/96/77 84/97/77 83/98/77 79/99/77
f 79/99/2 83/98/2 82/100/2 78/101/2
f 77/102/3 81/103/3 84/104/3 80/105/3
f 78/101/78 82/100/78 81/103/78 77/102/78
f 81/103/5 85/106/6 88/107/5 84/104/5
f 82/100/79 86/108/80 85/106/80 81/103/79
f 84/97/81 88/109/82 87/110/81 83/98/81
f 83/98/10 87/110/10 86/108/10 82/100/10
f 88/109/82 92/111/83 91/112/83 87/110/81
f 87/110/10 91/112/12 90/113/12 86/108/10
f 85/106/6 89/114/13 92/115/13 88/107/5
f 86/108/80 90/113/84 89/114/84 85/106/80
f 89/114/13 93/116/15 96/117/15 92/115/13
f 90/113/85 94/118/85 93/116/85 89/114/85
f 92/111/83 96/119/86 95/120/86 91/112/83
f 91/112/19 95/120/19 94/118/19 90/113/19
f 94/118/85 98/121/87 97/122/87 93/116/85
f 96/119/86 100/123/88 99/124/88 95/120/86
f 95/120/19 99/124/23 98/121/23 94/118/19
f 93/116/15 97/122/24 100/125/24 96/117/15
f 100/123/88 104/126/89 103/127/89 99/124/88
f 99/124/23 103/127/27 102/128/27 98/121/23
f 97/122/24 101/129/30 104/130/29 100/125/24
f 98/121/87 102/128/90 101/129/90 97/122/87
f 101/129/30 105/131/32 108/132/32 104/130/29
f 102/128/90 106/133/91 105/131/91 101/129/90
f 104/126/89 108/134/92 107/135/92 103/127/89
f 103/127/27 107/135/35 106/133/35 102/128/27
f 108/134/92 112/136/93 111/137/93 107/135/92
f 107/135/35 111/137/37 110/138/37 106/133/35
f 105/131/32 109/139/38 112/140/38 108/132/32
f 106/133/91 110/138/94 109/139/95 105/131/91
f 111/137/37 115/141/41 114/142/41 110/138/37
f 109/139/38 113/143/42 116/144/42 112/140/38
f 110/138/94 114/142/96 113/143/96 109/139/95
f 112/136/93 116/145/97 115/141/98 111/137/93
f 113/143/42 117/146/45 120/147/45 116/144/42
f 114/142/96 118/148/99 117/146/100 113/143/96
f 116/145/97 120/149/101 119/150/101 115/141/98
f 115/141/41 119/150/49 118/148/49 114/142/41
f 120/149/101 124/151/102 123/152/102 119/150/101
f 119/150/49 123/152/51 122/153/51 118/148/49
f 117/146/45 121/154/52 124/155/52 120/147/45
f 118/148/99 122/153/103 121/154/103 117/146/100
f 121/154/52 125/156/54 128/157/54 124/155/52
f 122/153/104 126/158/104 125/156/104 121/154/104
f 124/151/102 128/159/105 127/160/105 123/152/102
f 123/152/57 127/160/57 126/158/57 122/153/57
f 125/156/3 129/161/3 132/162/3 128/157/3
f 126/158/78 130/163/78 129/161/78 125/156/78
f 128/159/77 132/164/77 131/165/77 127/160/77
f 127/160/2 131/165/2 130/163/2 126/158/2
f 132/164/58 136/166/58 135/167/58 131/165/58
f 131/165/58 135/167/58 134/168/58 130/163/58
f 129/161/58 133/169/58 136/170/58 132/162/58
f 130/163/58 134/168/58 133/169/58 129/161/58
f 133/169/59 137/171/59 140/172/59 136/170/59
f 134/168/106 138/173/107 137/171/107 133/169/106
f 136/166/108 140/174/109 139/175/108 135/167/108
f 135/167/64 139/175/64 138/173/64 134/168/64
f 138/173/107 142/176/110 141/177/110 137/171/107
f 140/174/109 144/178/111 143/179/111 139/175/108
f 139/175/64 143/179/67 142/176/67 138/173/64
f 137/171/59 141/177/68 144/180/68 140/172/59
f 144/178/111 148/181/112 147/182/112 143/179/111
f 143/179/67 147/182/70 146/183/70 142/176/67
f 141/177/68 145/184/71 148/185/71 144/180/68
f 142/176/110 146/183/113 145/184/113 141/177/110
f 145/184/73 149/186/73 152/187/73 148/185/73
f 146/183/114 150/188/114 149/186/114 145/184/114
f 148/181/115 152/189/115 151/190/115 147/182/115
f 147/182/76 151/190/76 150/188/76 146/183/76
f 156/191/116 160/192/116 159/193/116 155/194/116
f 155/194/3 159/193/3 158/195/3 154/196/3
f 153/197/2 157/198/2 160/199/2 156/200/2
f 154/196/4 158/195/4 157/198/4 153/197/4
f 157/198/117 161/201/10 164/202/10 160/199/117
f 158/195/7 162/203/7 161/201/7 157/198/7
f 160/192/118 164/204/118 163/205/119 159/193/118
f 159/193/6 163/205/6 162/203/5 158/195/6
f 164/204/118 168/206/120 167/207/120 163/205/119
f 163/205/6 167/207/13 166/208/13 162/203/5
f 161/201/10 165/209/12 168/210/12 164/202/10
f 162/203/7 166/208/14 165/209/14 161/201/7
f 165/209/12 169/211/121 172/212/121 168/210/12
f 166/208/16 170/213/16 169/211/16 165/209/16
f 168/206/120 172/214/122 171/215/123 167/207/120
f 167/207/124 171/215/124 170/213/124 166/208/124
f 170/213/16 174/216/20 173/217/20 169/211/16
f 172/214/122 176/218/125 175/219/125 171/215/123
f 171/215/124 175/219/126 174/216/127 170/213/124
f 169/211/121 173/217/128 176/220/129 172/212/121
f 176/218/125 180/221/130 179/222/130 175/219/125
f 175/219/126 179/222/131 178/223/131 174/216/127
f 173/217/128 177/224/132 180/225/133 176/220/129
f 174/216/20 178/223/31 177/224/31 173/217/20
f 177/224/132 181/226/134 184/227/134 180/225/133
f 178/223/31 182/228/33 181/226/33 177/224/31
f 180/221/130 184/229/135 183/230/135 179/222/130
f 179/222/131 183/230/136 182/228/136 178/223/131
f 184/229/135 188/231/137 187/232/137 183/230/135
f 183/230/136 187/232/138 186/233/138 182/228/136
f 181/226/134 185/234/139 188/235/139 184/227/134
f 182/228/33 186/233/40 185/234/39 181/226/33
f 187/232/138 191/236/140 190/237/140 186/233/138
f 185/234/139 189/238/141 192/239/141 188/235/139
f 186/233/40 190/237/43 189/238/43 185/234/39
f 188/231/137 192/240/142 191/236/142 187/232/137
f 189/238/141 193/241/143 196/242/143 192/239/141
f 190/237/43 194/243/47 193/241/46 189/238/43
f 192/240/142 196/244/144 195/245/144 191/236/142
f 191/236/140 195/245/145 194/243/145 190/237/140
f 196/244/144 200/246/146 199/247/146 195/245/144
f 195/245/145 199/247/147 198/248/147 194/243/145
f 193/241/143 197/249/148 200/250/148 196/242/143
f 194/243/47 198/248/53 197/249/53 193/241/46
f 197/249/148 201/251/57 204/252/57 200/250/148
f 198/248/55 202/253/55 201/251/55 197/249/55
f 200/246/146 204/254/149 203/255/149 199/247/146
f 199/247/54 203/255/54 202/253/54 198/248/54
f 201/251/2 205/256/2 208/257/2 204/252/2
f 202/253/4 206/258/4 205/256/4 201/251/4
f 204/254/116 208/259/116 207/260/116 203/255/116
f 203/255/3 207/260/3 206/258/3 202/253/3
f 208/259/58 212/261/58 211/262/58 207/260/58
f 207/260/58 211/262/58 210/263/58 206/258/58
f 205/256/58 209/264/58 212/265/58 208/257/58
f 206/258/58 210/263/58 209/264/58 205/256/58
f 209/264/64 213/266/64 216/267/64 212/265/64
f 210/263/60 214/268/61 213/266/61 209/264/60
f 212/261/150 216/269/151 215/270/151 211/262/150
f 211/262/59 215/270/59 214/268/59 210/263/59
f 214/268/61 218/271/65 217/272/65 213/266/61
f 216/269/151 220/273/152 219/274/152 215/270/151
f 215/270/59 219/274/68 218/271/68 214/268/59
f 213/266/64 217/272/67 220/275/67 216/267/64
f 220/273/152 224/276/153 223/277/153 219/274/152
f 219/274/68 223/277/154 222/278/154 218/271/68
f 217/272/67 221/279/70 224/280/70 220/275/67
f 218/271/65 222/278/72 221/279/72 217/272/65
f 221/279/76 225/281/76 228/282/76 224/280/76
f 222/278/74 226/283/74 225/281/74 221/279/74
f 224/276/155 228/284/155 227/285/155 223/277/155
f 223/277/73 227/285/73 226/283/73 222/278/73
f 232/286/156 231/287/156 235/288/156 236/289/156
f 231/287/3 230/290/3 234/291/3 235/288/3
f 229/292/2 232/293/2 236/294/2 233/295/2
f 230/290/78 229/292/78 233/295/78 234/291/78
f 233/295/157 236/294/157 240/296/10 237/297/10
f 234/291/79 233/295/79 237/297/80 238/298/80
f 236/289/158 235/288/158 239/299/159 240/300/158
f 235/288/6 234/291/6 238/298/5 239/299/6
f 240/300/158 239/299/159 243/301/160 244/302/160
f 239/299/6 238/298/5 242/303/13 243/301/13
f 237/297/10 240/296/10 244/304/12 241/305/12
f 238/298/80 237/297/80 241/305/84 242/303/84
f 241/305/12 244/304/12 248/306/121 245/307/121
f 242/303/85 241/305/85 245/307/85 246/308/85
f 244/302/160 243/301/160 247/309/161 248/310/161
f 243/301/124 242/303/124 246/308/124 247/309/124
f 246/308/85 245/307/85 249/311/87 250/312/87
f 248/310/161 247/309/161 251/313/162 252/314/162
f 247/309/124 246/308/124 250/312/163 251/313/164
f 245/307/121 248/306/121 252/315/128 249/311/128
f 252/314/162 251/313/162 255/316/165 256/317/165
f 251/313/164 250/312/163 254/318/166 255/316/131
f 249/311/128 252/315/128 256/319/133 253/320/132
f 250/312/87 249/311/87 253/320/90 254/318/90
f 253/320/132 256/319/133 260/321/134 257/322/134
f 254/318/90 253/320/90 257/322/91 258/323/91
f 256/317/165 255/316/165 259/324/167 260/325/167
f 255/316/131 254/318/166 258/323/136 259/324/136
f 260/325/167 259/324/167 263/326/168 264/327/168
f 259/324/136 258/323/136 262/328/138 263/326/138
f 257/322/134 260/321/134 264/329/139 261/330/139
f 258/323/91 257/322/91 261/330/95 262/328/94
f 263/326/138 262/328/138 266/331/140 267/332/140
f 261/330/139 264/329/139 268/333/141 265/334/141
f 262/328/94 261/330/95 265/334/96 266/331/96
f 264/327/168 263/326/168 267/332/169 268/335/170
f 265/334/141 268/333/141 272/336/143 269/337/143
f 266/331/96 265/334/96 269/337/100 270/338/99
f 268/335/170 267/332/169 271/339/171 272/340/171
f 267/332/140 266/331/140 270/338/145 271/339/145
f 272/340/171 271/339/171 275/341/172 276/342/172
f 271/339/145 270/338/145 274/343/147 275/341/147
f 269/337/143 272/336/143 276/344/148 273/345/148
f 270/338/99 269/337/100 273/345/103 274/343/103
f 273/345/148 276/344/148 280/346/57 277/347/57
f 274/343/104 273/345/104 277/347/104 278/348/104
f 276/342/172 275/341/172 279/349/173 280/350/173
f 275/341/54 274/343/54 278/348/54 279/349/54
f 277/347/2 280/346/2 284/351/2 281/352/2
f 278/348/78 277/347/78 281/352/78 282/353/78
f 280/350/156 279/349/156 283/354/156 284/355/156
f 279/349/3 278/348/3 282/353/3 283/354/3
f 284/355/58 283/354/58 287/356/58 288/357/58
f 283/354/58 282/353/58 286/358/58 287/356/58
f 281/352/58 284/351/58 288/359/58 285/360/58
f 282/353/58 281/352/58 285/360/58 286/358/58
f 285/360/64 288/359/64 292/361/64 289/362/64
f 286/358/106 285/360/106 289/362/107 290/363/107
f 288/357/174 287/356/174 291/364/174 292/365/175
f 287/356/59 286/358/59 290/363/59 291/364/59
f 290/363/107 289/362/107 293/366/110 294/367/110
f 292/365/175 291/364/174 295/368/176 296/369/176
f 291/364/59 290/363/59 294/367/68 295/368/68
f 289/362/64 292/361/64 296/370/67 293/366/67
f 296/369/176 295/368/176 299/371/177 300/372/177
f 295/368/68 294/367/68 298/373/154 299/371/154
f 293/366/67 296/370/67 300/374/70 297/375/70
f 294/367/110 293/366/110 297/375/113 298/373/113
f 297/375/76 300/374/76 304/376/76 301/377/76
f 298/373/114 297/375/114 301/377/114 302/378/114
f 300/372/178 299/371/178 303/379/178 304/380/178
f 299/371/73 298/373/73 302/378/73 303/379/73
f 4/381/58 1/382/58 153/383/58 156/384/58
f 378/385/179 80/386/180 79/387/180 373/388/180
f 80/386/180 232/389/58 229/390/58 77/391/58
f 388/392/181 383/393/182 231/394/183 232/389/58
f 388/392/181 232/389/58 80/386/180 378/385/179
f 1/395/4 2/396/4 306/397/4 305/398/4
f 154/399/4 153/400/4 311/401/4 312/402/4
f 153/400/4 1/395/4 305/398/4 311/401/4
f 77/403/78 229/404/78 314/405/78 308/406/78
f 2/407/2 3/408/2 307/409/2 306/410/2
f 155/411/3 154/412/3 312/413/3 313/414/3
f 78/415/78 77/403/78 308/406/78 309/416/78
f 229/404/78 230/417/78 315/418/78 314/405/78
f 373/419/2 79/420/2 310/421/2 393/422/2
f 79/420/2 78/423/2 309/424/2 310/421/2
f 379/425/3 155/411/3 313/414/3 394/426/3
f 230/427/3 231/428/3 316/429/3 315/430/3
f 309/416/184 308/406/184 320/431/184 321/432/184
f 393/422/185 310/421/185 322/433/185 403/434/185
f 314/405/184 315/418/184 327/435/184 326/436/184
f 310/421/185 309/424/185 321/437/185 322/433/185
f 308/406/184 314/405/184 326/436/184 320/431/184
f 305/398/186 306/397/186 318/438/186 317/439/186
f 315/430/187 316/429/187 328/440/187 327/441/187
f 312/402/186 311/401/186 323/442/186 324/443/186
f 394/426/187 313/414/187 325/444/187 404/445/187
f 306/410/185 307/409/185 319/446/185 318/447/185
f 311/401/186 305/398/186 317/439/186 323/442/186
f 313/414/187 312/413/187 324/448/187 325/444/187
f 325/444/3 324/448/3 336/449/3 337/450/3
f 321/432/78 320/431/78 332/451/78 333/452/78
f 403/434/2 322/433/2 334/453/2 413/454/2
f 326/436/78 327/435/78 339/455/78 338/456/78
f 322/433/2 321/437/2 333/457/2 334/453/2
f 320/431/78 326/436/78 338/456/78 332/451/78
f 317/439/4 318/438/4 330/458/4 329/459/4
f 327/441/3 328/440/3 340/460/3 339/461/3
f 324/443/4 323/442/4 335/462/4 336/463/4
f 404/445/3 325/444/3 337/450/3 414/464/3
f 318/447/2 319/446/2 331/465/2 330/466/2
f 323/442/4 317/439/4 329/459/4 335/462/4
f 337/450/188 336/449/188 348/467/188 349/468/188
f 333/452/189 332/451/189 344/469/189 345/470/189
f 413/454/190 334/453/190 346/471/190 423/472/190
f 338/456/189 339/455/189 351/473/189 350/474/189
f 334/453/190 333/457/191 345/475/191 346/471/190
f 332/451/189 338/456/189 350/474/189 344/469/189
f 329/459/192 330/458/192 342/476/192 341/477/192
f 339/461/188 340/460/188 352/478/188 351/479/188
f 336/463/192 335/462/192 347/480/192 348/481/192
f 414/464/188 337/450/188 349/468/188 424/482/188
f 330/466/190 331/465/190 343/483/190 342/484/190
f 335/462/192 329/459/192 341/477/192 347/480/192
f 347/485/193 341/486/193 353/487/193 359/488/193
f 349/489/194 348/490/194 360/491/194 361/492/194
f 345/493/195 344/494/195 356/495/195 357/496/195
f 423/497/196 346/498/196 358/499/196 433/500/196
f 350/501/195 351/502/195 363/503/195 362/504/195
f 346/498/196 345/493/196 357/496/196 358/499/196
f 344/494/195 350/501/195 362/504/195 356/495/195
f 341/486/193 342/505/193 354/506/193 353/487/193
f 351/502/194 352/507/194 364/508/194 363/503/194
f 348/490/193 347/485/193 359/488/193 360/491/193
f 424/509/194 349/489/194 361/492/194 434/510/194
f 342/505/196 343/511/196 355/512/196 354/506/196
f 361/492/197 360/491/197 367/513/197
f 357/496/198 356/495/198 366/514/198
f 433/500/199 358/499/199 366/514/199 441/515/199
f 362/504/198 363/503/198 368/516/198
f 358/499/199 357/496/199 366/514/199
f 356/495/198 362/504/198 368/516/198 366/514/198
f 353/487/200 354/506/200 365/517/200
f 363/503/197 364/508/197 368/516/197
f 360/491/200 359/488/200 367/513/200
f 434/510/197 361/492/197 367/513/197 442/518/197
f 354/506/199 355/512/199 365/517/199
f 359/488/200 353/487/200 365/517/200 367/513/200
f 442/518/201 367/513/201 365/517/201 439/519/201
f 364/508/197 438/520/197 444/521/197 368/516/197
f 438/520/197 437/522/197 444/521/197
f 437/522/197 436/523/197 443/524/197 444/521/197
f 436/523/197 435/525/197 442/518/197 443/524/197
f 435/525/197 434/510/197 442/518/197
f 355/512/199 429/526/199 439/519/199 365/517/199
f 429/526/199 430/527/199 439/519/199
f 430/527/199 431/528/199 440/529/199 439/519/199
f 431/528/199 432/530/199 441/515/199 440/529/199
f 432/530/199 433/500/199 441/515/199
f 352/507/194 428/531/194 438/520/194 364/508/194
f 428/531/194 427/532/194 437/522/194 438/520/194
f 427/532/194 426/533/194 436/523/194 437/522/194
f 426/533/194 425/534/194 435/525/194 436/523/194
f 425/534/194 424/509/194 434/510/194 435/525/194
f 343/511/196 419/535/196 429/526/196 355/512/196
f 419/535/196 420/536/196 430/527/196 429/526/196
f 420/536/196 421/537/196 431/528/196 430/527/196
f 421/537/196 422/538/196 432/530/196 431/528/196
f 422/538/196 423/497/196 433/500/196 432/530/196
f 340/460/188 418/539/188 428/540/188 352/478/188
f 418/539/188 417/541/188 427/542/188 428/540/188
f 417/541/188 416/543/188 426/544/188 427/542/188
f 416/543/188 415/545/188 425/546/188 426/544/188
f 415/545/188 414/464/188 424/482/188 425/546/188
f 331/465/190 409/547/190 419/548/190 343/483/190
f 409/547/190 410/549/190 420/550/190 419/548/190
f 410/549/190 411/551/190 421/552/190 420/550/190
f 411/551/190 412/553/190 422/554/190 421/552/190
f 412/553/190 413/454/190 423/472/190 422/554/190
f 328/440/3 408/555/3 418/539/3 340/460/3
f 408/555/3 407/556/3 417/541/3 418/539/3
f 407/556/3 406/557/3 416/543/3 417/541/3
f 406/557/3 405/558/3 415/545/3 416/543/3
f 405/558/3 404/445/3 414/464/3 415/545/3
f 319/446/2 399/559/2 409/547/2 331/465/2
f 399/559/2 400/560/2 410/549/2 409/547/2
f 400/560/2 401/561/2 411/551/2 410/549/2
f 401/561/2 402/562/2 412/553/2 411/551/2
f 402/562/2 403/434/2 413/454/2 412/553/2
f 316/429/187 398/563/187 408/555/187 328/440/187
f 398/563/187 397/564/187 407/556/187 408/555/187
f 397/564/187 396/565/187 406/557/187 407/556/187
f 396/565/187 395/566/187 405/558/187 406/557/187
f 395/566/187 394/426/187 404/445/187 405/558/187
f 307/409/185 389/567/185 399/559/185 319/446/185
f 389/567/185 390/568/185 400/560/185 399/559/185
f 390/568/185 391/569/185 401/561/185 400/560/185
f 391/569/185 392/570/185 402/562/185 401/561/185
f 392/570/185 393/422/185 403/434/185 402/562/185
f 231/428/3 383/571/3 398/563/3 316/429/3
f 383/571/3 382/572/3 397/564/3 398/563/3
f 382/572/3 381/573/3 396/565/3 397/564/3
f 381/573/3 380/574/3 395/566/3 396/565/3
f 380/574/3 379/425/3 394/426/3 395/566/3
f 3/408/2 369/575/2 389/567/2 307/409/2
f 369/575/2 370/576/2 390/568/2 389/567/2
f 370/576/2 371/577/2 391/569/2 390/568/2
f 371/577/2 372/578/2 392/570/2 391/569/2
f 372/578/2 373/419/2 393/422/2 392/570/2
f 156/384/58 384/579/202 374/580/202 4/381/58
f 384/579/202 385/581/179 375/582/203 374/580/202
f 385/581/179 386/583/204 376/584/204 375/582/203
f 386/583/204 387/585/205 377/586/206 376/584/204
f 387/585/205 388/392/181 378/385/179 377/586/206
f 156/384/58 155/587/207 379/588/207 384/579/202
f 384/579/202 379/588/207 380/589/208 385/581/179
f 385/581/179 380/589/208 381/590/209 386/583/204
f 386/583/204 381/590/209 382/591/210 387/585/205
f 387/585/205 382/591/210 383/393/182 388/392/181
f 4/381/58 374/580/202 369/592/211 3/593/212
f 374/580/202 375/582/203 370/594/182 369/592/211
f 375/582/203 376/584/204 371/595/213 370/594/182
f 376/584/204 377/586/206 372/596/206 371/595/213
f 377/586/206 378/385/179 373/388/180 372/596/206
f 444/521/201 441/515/201 366/514/201 368/516/201
f 443/524/201 440/529/201 441/515/201 444/521/201
f 442/518/201 439/519/201 440/529/201 443/524/201
