# Blender 4.4.0
# www.blender.org
mtllib Table.mtl
o Table
v 0.038929 1.201683 -0.039835
v 0.038928 1.235591 -0.039835
v 0.061479 1.201683 -0.062110
v 0.061478 1.147977 -0.132084
v 0.061478 1.201683 -0.132084
v 0.038928 1.201683 -0.111951
v 0.038928 1.235591 -0.111951
v 0.111933 1.201683 -0.039835
v 0.133180 1.201683 -0.062110
v 0.111932 1.235591 -0.039835
v 0.133179 1.147977 -0.062110
v 0.111724 1.235591 -0.111951
v 0.048659 1.188208 -0.050987
v 0.048658 1.147977 -0.120961
v 0.048658 1.188208 -0.120961
v 0.048658 1.147977 -0.050987
v 0.120361 1.188208 -0.050987
v 0.120360 1.147977 -0.050987
v 0.038929 1.096239 -0.039835
v 0.038928 1.062331 -0.039835
v 0.061479 1.096239 -0.062110
v 0.061478 1.096239 -0.132084
v 0.038928 1.096239 -0.132084
v 0.038928 1.062331 -0.132084
v 0.111933 1.096239 -0.039835
v 0.133180 1.096239 -0.062110
v 0.133321 1.062331 -0.039835
v 0.133113 1.062331 -0.132084
v 0.048659 1.109831 -0.050987
v 0.048658 1.109831 -0.120961
v 0.120361 1.109831 -0.050987
v 0.027956 1.045864 -0.029100
v 0.027956 1.045864 -0.142819
v 0.144318 1.045864 -0.029100
v 0.144061 1.045864 -0.142819
v 0.021068 1.026403 -0.022361
v 0.021068 1.026403 -0.149558
v 0.151221 1.026403 -0.022361
v 0.150934 1.026403 -0.149558
v 0.017753 1.006943 -0.019119
v 0.017753 1.006943 -0.152800
v 0.154543 1.006943 -0.019119
v 0.154241 1.006943 -0.152800
v 0.022963 0.984488 -0.024216
v 0.022963 0.984488 -0.147703
v 0.149321 0.984488 -0.024216
v 0.149043 0.984488 -0.147703
v 0.031618 0.965028 -0.032683
v 0.031618 0.965028 -0.139236
v 0.140647 0.965028 -0.032683
v 0.140407 0.965028 -0.139236
v 0.042027 0.945567 -0.042867
v 0.042027 0.945567 -0.129052
v 0.130216 0.945567 -0.042867
v 0.130022 0.945567 -0.129052
v 0.011961 0.018440 -0.011350
v 0.011961 0.018440 -0.126582
v 0.129872 0.018440 -0.011350
v 0.129612 0.018440 -0.126582
v 0.011961 -0.000000 -0.011350
v 0.011961 -0.000000 -0.126582
v 0.129872 0.000003 -0.011350
v 0.129612 0.000003 -0.126582
v 0.146911 0.790323 -0.145267
v 0.129817 0.482003 -0.127817
v 0.146639 0.173684 -0.143624
v 0.000002 0.173680 -0.143624
v 0.026994 0.482003 -0.127817
v 0.019997 0.790323 -0.145267
v 0.000000 0.173680 -0.000000
v 0.026994 0.482003 -0.027109
v 0.019997 0.790323 -0.020962
v 0.147191 0.790323 -0.020962
v 0.130044 0.482003 -0.027109
v 0.146962 0.173684 -0.000000
v 0.134438 0.337619 -0.132026
v 0.017617 0.337619 -0.132026
v 0.017617 0.337619 -0.017607
v 0.134696 0.337619 -0.017607
v 0.134565 0.626387 -0.132796
v 0.026981 0.626388 -0.132796
v 0.026981 0.626388 -0.027423
v 0.134803 0.626387 -0.027423
v 4.044852 1.201683 -0.039835
v 4.044853 1.235591 -0.039835
v 4.022303 1.201683 -0.062110
v 4.022304 1.147977 -0.132084
v 4.022304 1.201683 -0.132084
v 4.044853 1.201683 -0.111951
v 4.044853 1.235591 -0.111951
v 3.971849 1.201683 -0.039835
v 3.950602 1.201683 -0.062110
v 3.971849 1.235591 -0.039835
v 3.950603 1.147977 -0.062110
v 3.972057 1.235591 -0.111951
v 4.035122 1.188208 -0.050987
v 4.035123 1.147977 -0.120961
v 4.035123 1.188208 -0.120961
v 4.035123 1.147977 -0.050987
v 3.963421 1.188208 -0.050987
v 3.963422 1.147977 -0.050987
v 4.044852 1.096239 -0.039835
v 4.044853 1.062331 -0.039835
v 4.022303 1.096239 -0.062110
v 4.022304 1.096239 -0.132084
v 4.044853 1.096239 -0.132084
v 4.044853 1.062331 -0.132084
v 3.971849 1.096239 -0.039835
v 3.950602 1.096239 -0.062110
v 3.950461 1.062331 -0.039835
v 3.950669 1.062331 -0.132084
v 4.035122 1.109831 -0.050987
v 4.035123 1.109831 -0.120961
v 3.963421 1.109831 -0.050987
v 4.055825 1.045864 -0.029100
v 4.055825 1.045864 -0.142819
v 3.939464 1.045864 -0.029100
v 3.939720 1.045864 -0.142819
v 4.062714 1.026403 -0.022361
v 4.062714 1.026403 -0.149558
v 3.932561 1.026403 -0.022361
v 3.932848 1.026403 -0.149558
v 4.066028 1.006943 -0.019119
v 4.066028 1.006943 -0.152800
v 3.929239 1.006943 -0.019119
v 3.929540 1.006943 -0.152800
v 4.060818 0.984488 -0.024216
v 4.060818 0.984488 -0.147703
v 3.934460 0.984488 -0.024216
v 3.934739 0.984488 -0.147703
v 4.052163 0.965028 -0.032683
v 4.052163 0.965028 -0.139236
v 3.943134 0.965028 -0.032683
v 3.943374 0.965028 -0.139236
v 4.041755 0.945567 -0.042867
v 4.041755 0.945567 -0.129052
v 3.953565 0.945567 -0.042867
v 3.953760 0.945567 -0.129052
v 4.071820 0.018440 -0.011350
v 4.071820 0.018440 -0.126582
v 3.953910 0.018440 -0.011350
v 3.954170 0.018440 -0.126582
v 4.071820 0.000003 -0.011350
v 4.071820 -0.000000 -0.126582
v 3.953910 0.000003 -0.011350
v 3.954170 0.000003 -0.126582
v 3.936870 0.790323 -0.145267
v 3.953965 0.482003 -0.127817
v 3.937143 0.173684 -0.143624
v 4.083779 0.173680 -0.143624
v 4.056788 0.482003 -0.127817
v 4.063785 0.790323 -0.145267
v 4.083782 0.173684 -0.000000
v 4.056788 0.482003 -0.027109
v 4.063785 0.790323 -0.020962
v 3.936590 0.790323 -0.020962
v 3.953738 0.482003 -0.027109
v 3.936819 0.173684 -0.000000
v 3.949344 0.337619 -0.132026
v 4.066165 0.337619 -0.132026
v 4.066165 0.337619 -0.017607
v 3.949086 0.337619 -0.017607
v 3.949216 0.626387 -0.132796
v 4.056801 0.626388 -0.132796
v 4.056801 0.626388 -0.027423
v 3.948978 0.626387 -0.027423
v 0.038929 1.201683 -2.039472
v 0.038928 1.235591 -2.039472
v 0.061479 1.201683 -2.017198
v 0.061478 1.147977 -1.947224
v 0.061478 1.201683 -1.947224
v 0.038928 1.201683 -1.967357
v 0.038928 1.235591 -1.967357
v 0.111933 1.201683 -2.039472
v 0.133180 1.201683 -2.017198
v 0.111932 1.235591 -2.039472
v 0.133179 1.147977 -2.017198
v 0.111724 1.235591 -1.967357
v 0.048659 1.188208 -2.028321
v 0.048658 1.147977 -1.958347
v 0.048658 1.188208 -1.958347
v 0.048658 1.147977 -2.028321
v 0.120361 1.188208 -2.028321
v 0.120360 1.147977 -2.028321
v 0.038929 1.096239 -2.039472
v 0.038928 1.062331 -2.039472
v 0.061479 1.096239 -2.017198
v 0.061478 1.096239 -1.947224
v 0.038928 1.096239 -1.947224
v 0.038928 1.062331 -1.947224
v 0.111933 1.096239 -2.039472
v 0.133180 1.096239 -2.017198
v 0.133321 1.062331 -2.039472
v 0.133113 1.062331 -1.947224
v 0.048659 1.109831 -2.028321
v 0.048658 1.109831 -1.958347
v 0.120361 1.109831 -2.028321
v 0.027956 1.045864 -2.050207
v 0.027956 1.045864 -1.936489
v 0.144318 1.045864 -2.050207
v 0.144061 1.045864 -1.936489
v 0.021068 1.026403 -2.056947
v 0.021068 1.026403 -1.929750
v 0.151221 1.026403 -2.056947
v 0.150934 1.026403 -1.929750
v 0.017753 1.006943 -2.060189
v 0.017753 1.006943 -1.926508
v 0.154543 1.006943 -2.060189
v 0.154241 1.006943 -1.926508
v 0.022963 0.984488 -2.055092
v 0.022963 0.984488 -1.931605
v 0.149321 0.984488 -2.055092
v 0.149043 0.984488 -1.931605
v 0.031618 0.965028 -2.046625
v 0.031618 0.965028 -1.940072
v 0.140647 0.965028 -2.046625
v 0.140407 0.965028 -1.940072
v 0.042027 0.945567 -2.036441
v 0.042027 0.945567 -1.950256
v 0.130216 0.945567 -2.036441
v 0.130022 0.945567 -1.950256
v 0.011961 0.018440 -2.067958
v 0.011961 0.018440 -1.952726
v 0.129872 0.018440 -2.067958
v 0.129612 0.018440 -1.952726
v 0.011961 0.000003 -2.067958
v 0.011961 -0.000000 -1.952726
v 0.129872 0.000003 -2.067958
v 0.129612 0.000003 -1.952726
v 0.146911 0.790323 -1.934041
v 0.129817 0.482003 -1.951491
v 0.146639 0.173684 -1.935684
v 0.000002 0.173680 -1.935684
v 0.026994 0.482003 -1.951491
v 0.019997 0.790323 -1.934041
v 0.000000 0.173684 -2.079308
v 0.026994 0.482003 -2.052199
v 0.019997 0.790323 -2.058346
v 0.147191 0.790323 -2.058346
v 0.130044 0.482003 -2.052199
v 0.146962 0.173684 -2.079308
v 0.134438 0.337619 -1.947282
v 0.017617 0.337619 -1.947282
v 0.017617 0.337619 -2.061701
v 0.134696 0.337619 -2.061701
v 0.134565 0.626387 -1.946512
v 0.026981 0.626388 -1.946512
v 0.026981 0.626388 -2.051885
v 0.134803 0.626387 -2.051885
v 4.044852 1.201683 -2.039472
v 4.044853 1.235591 -2.039472
v 4.022303 1.201683 -2.017198
v 4.022304 1.147977 -1.947224
v 4.022304 1.201683 -1.947224
v 4.044853 1.201683 -1.967357
v 4.044853 1.235591 -1.967357
v 3.971849 1.201683 -2.039472
v 3.950602 1.201683 -2.017198
v 3.971849 1.235591 -2.039472
v 3.950603 1.147977 -2.017198
v 3.972057 1.235591 -1.967357
v 4.035122 1.188208 -2.028321
v 4.035123 1.147977 -1.958347
v 4.035123 1.188208 -1.958347
v 4.035123 1.147977 -2.028321
v 3.963421 1.188208 -2.028321
v 3.963422 1.147977 -2.028321
v 4.044852 1.096239 -2.039472
v 4.044853 1.062331 -2.039472
v 4.022303 1.096239 -2.017198
v 4.022304 1.096239 -1.947224
v 4.044853 1.096239 -1.947224
v 4.044853 1.062331 -1.947224
v 3.971849 1.096239 -2.039472
v 3.950602 1.096239 -2.017198
v 3.950461 1.062331 -2.039472
v 3.950669 1.062331 -1.947224
v 4.035122 1.109831 -2.028321
v 4.035123 1.109831 -1.958347
v 3.963421 1.109831 -2.028321
v 4.055825 1.045864 -2.050207
v 4.055825 1.045864 -1.936489
v 3.939464 1.045864 -2.050207
v 3.939720 1.045864 -1.936489
v 4.062714 1.026403 -2.056947
v 4.062714 1.026403 -1.929750
v 3.932561 1.026403 -2.056947
v 3.932848 1.026403 -1.929750
v 4.066028 1.006943 -2.060189
v 4.066028 1.006943 -1.926508
v 3.929239 1.006943 -2.060189
v 3.929540 1.006943 -1.926508
v 4.060818 0.984488 -2.055092
v 4.060818 0.984488 -1.931605
v 3.934460 0.984488 -2.055092
v 3.934739 0.984488 -1.931605
v 4.052163 0.965028 -2.046625
v 4.052163 0.965028 -1.940072
v 3.943134 0.965028 -2.046625
v 3.943374 0.965028 -1.940072
v 4.041755 0.945567 -2.036441
v 4.041755 0.945567 -1.950256
v 3.953565 0.945567 -2.036441
v 3.953760 0.945567 -1.950256
v 4.071820 0.018440 -2.067958
v 4.071820 0.018440 -1.952726
v 3.953910 0.018440 -2.067958
v 3.954170 0.018440 -1.952726
v 4.071820 0.000003 -2.067958
v 4.071820 -0.000000 -1.952726
v 3.953910 0.000003 -2.067958
v 3.954170 0.000003 -1.952726
v 3.936870 0.790323 -1.934041
v 3.953965 0.482003 -1.951491
v 3.937143 0.173684 -1.935684
v 4.083779 0.173680 -1.935684
v 4.056788 0.482003 -1.951491
v 4.063785 0.790323 -1.934041
v 4.083782 0.173684 -2.079308
v 4.056788 0.482003 -2.052199
v 4.063785 0.790323 -2.058346
v 3.936590 0.790323 -2.058346
v 3.953738 0.482003 -2.052199
v 3.936819 0.173684 -2.079308
v 3.949344 0.337619 -1.947282
v 4.066165 0.337619 -1.947282
v 4.066165 0.337619 -2.061701
v 3.949086 0.337619 -2.061701
v 3.949216 0.626387 -1.946512
v 4.056801 0.626388 -1.946512
v 4.056801 0.626388 -2.051885
v 3.948978 0.626387 -2.051885
vn -1.0000 -0.0000 -0.0000
vn -0.0000 -1.0000 -0.0000
vn -0.0000 -0.0000 1.0000
vn -0.0000 1.0000 -0.0000
vn -0.7245 0.6893 -0.0000
vn -0.0000 0.6366 0.7712
vn 0.6554 -0.0000 0.7553
vn -0.6553 -0.0000 -0.7553
vn -0.7275 -0.6862 -0.0000
vn -0.0000 -0.6333 0.7739
vn -0.0000 0.5461 -0.8377
vn -0.0000 0.5460 -0.8378
vn -0.8322 0.5545 -0.0000
vn -0.8322 0.5544 -0.0000
vn 0.8322 0.5545 -0.0019
vn 0.8322 0.5544 -0.0019
vn -0.0000 0.5461 0.8377
vn -0.0000 0.5460 0.8378
vn -0.0000 0.3272 -0.9450
vn -0.0000 0.3271 -0.9450
vn -0.9427 0.3336 -0.0000
vn 0.9427 0.3336 -0.0021
vn -0.0000 0.3271 0.9450
vn -0.0000 0.3272 0.9450
vn 0.9858 0.1678 -0.0022
vn -0.0000 0.1643 0.9864
vn -0.0000 0.1643 -0.9864
vn -0.9858 0.1678 -0.0000
vn -0.0000 -0.2214 -0.9752
vn -0.9741 -0.2260 -0.0000
vn 0.9741 -0.2260 -0.0022
vn -0.0000 -0.2214 0.9752
vn -0.9137 -0.4064 -0.0000
vn 0.9137 -0.4064 -0.0021
vn -0.0000 -0.3990 0.9170
vn -0.0000 -0.3990 -0.9169
vn -0.0000 -0.3990 -0.9170
vn 0.8818 -0.4716 -0.0020
vn -0.0000 -0.4637 0.8860
vn -0.0000 -0.4637 -0.8860
vn -0.8818 -0.4716 -0.0000
vn -0.0000 -0.1091 -0.9940
vn -0.9970 -0.0768 -0.0000
vn 0.9940 -0.1092 -0.0022
vn 0.9940 -0.1093 -0.0022
vn -0.0000 -0.0729 0.9973
vn -0.0000 -0.0000 -1.0000
vn 1.0000 -0.0000 -0.0023
vn -0.0000 0.1397 0.9902
vn -0.0000 0.0022 1.0000
vn -0.0000 0.1068 0.9943
vn 0.9941 0.1084 -0.0022
vn 0.9995 -0.0329 -0.0023
vn 0.9972 0.0744 -0.0022
vn -0.9901 0.1405 -0.0000
vn -1.0000 -0.0001 -0.0000
vn -0.9943 0.1068 -0.0000
vn -0.0000 0.1039 -0.9946
vn -0.0000 0.1038 -0.9946
vn -0.0000 -0.0345 -0.9994
vn -0.0000 0.0706 -0.9975
vn 1.0000 -0.0000 -0.0000
vn 0.7245 0.6893 -0.0000
vn -0.6554 -0.0000 0.7553
vn 0.6554 -0.0000 -0.7553
vn 0.7275 -0.6861 -0.0000
vn 0.8322 0.5545 -0.0000
vn 0.8322 0.5544 -0.0000
vn -0.8322 0.5545 -0.0019
vn -0.8322 0.5544 -0.0019
vn 0.9427 0.3336 -0.0000
vn -0.9427 0.3336 -0.0021
vn -0.9858 0.1678 -0.0022
vn 0.9858 0.1678 -0.0000
vn 0.9741 -0.2260 -0.0000
vn -0.9741 -0.2260 -0.0022
vn 0.9137 -0.4064 -0.0000
vn -0.9137 -0.4063 -0.0021
vn -0.8818 -0.4716 -0.0020
vn 0.8818 -0.4716 -0.0000
vn 0.9970 -0.0768 -0.0000
vn -0.9940 -0.1092 -0.0022
vn -0.9940 -0.1093 -0.0022
vn -1.0000 -0.0000 -0.0023
vn -0.9941 0.1084 -0.0022
vn -0.9995 -0.0329 -0.0023
vn -0.9972 0.0744 -0.0022
vn 0.9901 0.1405 -0.0000
vn 0.9901 0.1404 -0.0000
vn 1.0000 -0.0001 -0.0000
vn 0.9943 0.1068 -0.0000
vn -0.0000 0.6366 -0.7712
vn -0.6553 -0.0000 0.7553
vn -0.0000 -0.6333 -0.7739
vn 0.8322 0.5545 0.0019
vn 0.8322 0.5544 0.0019
vn 0.9427 0.3337 0.0021
vn 0.9427 0.3336 0.0021
vn 0.9858 0.1678 0.0022
vn 0.9741 -0.2260 0.0022
vn 0.9137 -0.4064 0.0021
vn -0.0000 -0.3990 0.9169
vn 0.8818 -0.4716 0.0020
vn -0.0000 -0.4636 -0.8860
vn -0.0000 -0.1091 0.9940
vn 0.9940 -0.1092 0.0022
vn 0.9940 -0.1093 0.0022
vn -0.0000 -0.0729 -0.9973
vn 1.0000 -0.0000 0.0023
vn -0.0000 0.1397 -0.9902
vn -0.0000 0.0022 -1.0000
vn -0.0000 0.1068 -0.9943
vn 0.9941 0.1084 0.0022
vn 0.9995 -0.0329 0.0023
vn 0.9972 0.0744 0.0022
vn -0.0000 0.1039 0.9946
vn -0.0000 0.1038 0.9946
vn -0.0000 -0.0345 0.9994
vn -0.0000 0.0706 0.9975
vn 0.7245 0.6892 -0.0000
vn -0.6554 -0.0000 -0.7553
vn -0.8322 0.5545 0.0019
vn -0.8322 0.5544 0.0019
vn -0.9427 0.3337 0.0021
vn -0.9427 0.3336 0.0021
vn -0.9858 0.1678 0.0022
vn -0.9741 -0.2260 0.0022
vn -0.9137 -0.4063 0.0021
vn -0.8818 -0.4716 0.0020
vn -0.9940 -0.1092 0.0022
vn -0.9940 -0.1093 0.0022
vn -1.0000 -0.0000 0.0023
vn -0.9941 0.1084 0.0022
vn -0.9995 -0.0329 0.0023
vn -0.9972 0.0744 0.0022
vt 0.720273 0.026189
vt 0.737528 0.026189
vt 0.737528 0.034302
vt 0.720273 0.034302
vt 0.283110 0.030709
vt 0.278291 0.025313
vt 0.722332 0.025313
vt 0.717514 0.030709
vt 0.985817 0.110300
vt 0.985817 0.123150
vt 0.018430 0.123150
vt 0.018431 0.110300
vt 0.266363 0.030710
vt 0.261032 0.025313
vt 0.276336 0.034302
vt 0.276336 0.026189
vt 0.038290 0.029942
vt 0.043375 0.024611
vt 0.956970 0.024611
vt 0.962055 0.029942
vt 0.057536 0.057607
vt 0.057490 0.072852
vt 0.041191 0.072852
vt 0.041191 0.057607
vt 0.038397 0.030692
vt 0.038397 0.022579
vt 0.961947 0.022578
vt 0.961947 0.030692
vt 0.272197 0.122316
vt 0.272197 0.109466
vt 0.732177 0.109466
vt 0.732177 0.122316
vt 0.057490 0.465080
vt 0.041191 0.465080
vt 0.921804 0.072852
vt 0.921804 0.465080
vt 0.020930 0.022579
vt 0.020930 0.030692
vt 0.921757 0.057607
vt 0.020818 0.029942
vt 0.026215 0.024611
vt 0.820538 0.918293
vt 0.832314 0.900542
vt 0.883928 0.890887
vt 0.884564 0.908125
vt 0.765589 0.771052
vt 0.765589 0.880137
vt 0.552270 0.880137
vt 0.552270 0.771052
vt 0.770857 0.769127
vt 0.770860 0.878212
vt 0.552273 0.878212
vt 0.552270 0.769127
vt 0.939053 0.903934
vt 0.951270 0.922278
vt 0.944614 0.866792
vt 0.963230 0.867093
vt 0.809731 0.864758
vt 0.827932 0.865017
vt 0.281152 0.026415
vt 0.281152 0.034528
vt 0.259080 0.034528
vt 0.259080 0.026415
vt 0.283110 0.030631
vt 0.283110 0.025234
vt 0.717513 0.025234
vt 0.717513 0.030631
vt 0.985817 0.135530
vt 0.018431 0.135530
vt 0.261032 0.030630
vt 0.266363 0.025234
vt 0.715456 0.026415
vt 0.715456 0.034528
vt 0.043374 0.030062
vt 0.038289 0.024731
vt 0.962055 0.024731
vt 0.956970 0.030062
vt 0.961947 0.022565
vt 0.956830 0.030678
vt 0.043514 0.030678
vt 0.038397 0.022565
vt 0.272197 0.134695
vt 0.732177 0.134695
vt 0.062279 0.460330
vt 0.041191 0.460330
vt 0.041191 0.076614
vt 0.062279 0.076614
vt 0.917016 0.460330
vt 0.917016 0.076613
vt 0.979414 0.022565
vt 0.979415 0.030678
vt 0.062325 0.479831
vt 0.916969 0.479831
vt 0.020818 0.024731
vt 0.026215 0.030062
vt 0.822046 0.811545
vt 0.885849 0.823552
vt 0.884690 0.840857
vt 0.833306 0.829720
vt 0.765589 0.988896
vt 0.552270 0.988896
vt 0.770857 0.986971
vt 0.552270 0.986971
vt 0.953070 0.811545
vt 0.940269 0.829586
vt 0.033983 0.920817
vt 0.031966 0.961479
vt 0.040218 0.966626
vt 0.042539 0.920797
vt 0.033501 0.881415
vt 0.041239 0.880848
vt 0.020062 0.794813
vt 0.027393 0.838743
vt 0.036606 0.837349
vt 0.028634 0.788140
vt 0.049395 0.969985
vt 0.050039 0.920689
vt 0.048524 0.880309
vt 0.044665 0.836428
vt 0.038446 0.783320
vt 0.052081 0.835923
vt 0.047966 0.780759
vt 0.054975 0.879854
vt 0.058098 0.971352
vt 0.056936 0.920441
vt 0.068387 0.968224
vt 0.064619 0.920090
vt 0.062996 0.879341
vt 0.060860 0.835531
vt 0.059776 0.782992
vt 0.072400 0.919376
vt 0.070973 0.878718
vt 0.069619 0.835311
vt 0.070322 0.787315
vt 0.077295 0.963313
vt 0.080151 0.834964
vt 0.079777 0.792097
vt 0.080168 0.877574
vt 0.085111 0.958383
vt 0.081344 0.918230
vt 0.399677 0.925226
vt 0.397099 0.981076
vt 0.462519 0.972927
vt 0.460344 0.923644
vt 0.402252 0.875661
vt 0.459531 0.875636
vt 0.397929 0.770638
vt 0.400039 0.825061
vt 0.460426 0.826993
vt 0.462626 0.779385
vt 0.470034 0.972607
vt 0.468041 0.923413
vt 0.467072 0.875616
vt 0.467947 0.827211
vt 0.470034 0.779727
vt 0.151645 0.875822
vt 0.149145 0.828949
vt 0.214465 0.829925
vt 0.214652 0.875303
vt 0.276974 0.875294
vt 0.276685 0.830228
vt 0.337741 0.827580
vt 0.338800 0.875471
vt 0.146158 0.779530
vt 0.215122 0.785201
vt 0.275236 0.787656
vt 0.333446 0.781768
vt 0.149982 0.920976
vt 0.214436 0.919296
vt 0.276319 0.919201
vt 0.337302 0.922278
vt 0.147814 0.968708
vt 0.214970 0.964088
vt 0.274506 0.962396
vt 0.332526 0.969042
vt 0.276336 0.026448
vt 0.276336 0.034561
vt 0.259081 0.034561
vt 0.259081 0.026448
vt 0.278291 0.030337
vt 0.283109 0.024941
vt 0.717513 0.024941
vt 0.722332 0.030337
vt 0.261032 0.030337
vt 0.266363 0.024941
vt 0.720273 0.026448
vt 0.720273 0.034561
vt 0.938103 0.057607
vt 0.938103 0.072852
vt 0.272197 0.135471
vt 0.272197 0.122621
vt 0.732177 0.122621
vt 0.732177 0.135471
vt 0.938103 0.465080
vt 0.979414 0.022578
vt 0.979415 0.030691
vt 0.979526 0.029942
vt 0.974130 0.024611
vt 0.820537 0.918295
vt 0.884564 0.908126
vt 0.883929 0.890888
vt 0.832312 0.900544
vt 0.552270 0.768285
vt 0.765593 0.768285
vt 0.765593 0.877372
vt 0.552270 0.877372
vt 0.770857 0.986974
vt 0.552270 0.986974
vt 0.552273 0.877888
vt 0.770860 0.877888
vt 0.951270 0.922278
vt 0.939053 0.903934
vt 0.963230 0.867093
vt 0.944614 0.866792
vt 0.809730 0.864760
vt 0.827930 0.865018
vt 0.281153 0.034044
vt 0.259081 0.034044
vt 0.259081 0.025931
vt 0.281153 0.025931
vt 0.283109 0.030258
vt 0.283109 0.024862
vt 0.717513 0.024862
vt 0.717513 0.030258
vt 0.266363 0.030258
vt 0.261032 0.024862
vt 0.715456 0.025931
vt 0.715456 0.034044
vt 0.272197 0.110241
vt 0.732177 0.110241
vt 0.938103 0.460330
vt 0.938103 0.076613
vt 0.020930 0.022565
vt 0.020929 0.030678
vt 0.979526 0.024731
vt 0.974130 0.030062
vt 0.822044 0.811545
vt 0.833304 0.829719
vt 0.884691 0.840857
vt 0.885849 0.823552
vt 0.552270 0.986133
vt 0.765593 0.986133
vt 0.770857 0.769127
vt 0.552270 0.769127
vt 0.940269 0.829586
vt 0.953069 0.811545
vt 0.032518 0.919877
vt 0.041074 0.919857
vt 0.038752 0.965687
vt 0.030501 0.960538
vt 0.032036 0.880475
vt 0.039775 0.879908
vt 0.018597 0.793874
vt 0.027169 0.787201
vt 0.035141 0.836409
vt 0.025929 0.837804
vt 0.048574 0.919749
vt 0.047930 0.969045
vt 0.047060 0.879369
vt 0.036981 0.782380
vt 0.043201 0.835488
vt 0.046501 0.779819
vt 0.050616 0.834983
vt 0.053511 0.878914
vt 0.055471 0.919501
vt 0.056632 0.970413
vt 0.063154 0.919150
vt 0.066922 0.967284
vt 0.061531 0.878402
vt 0.058311 0.782053
vt 0.059395 0.834591
vt 0.069509 0.877779
vt 0.070935 0.918437
vt 0.068856 0.786375
vt 0.068154 0.834371
vt 0.075831 0.962373
vt 0.078312 0.791157
vt 0.078687 0.834024
vt 0.078703 0.876635
vt 0.079879 0.917290
vt 0.083645 0.957443
vt 0.398212 0.924287
vt 0.458879 0.922705
vt 0.461055 0.971987
vt 0.395634 0.980137
vt 0.400785 0.874721
vt 0.458067 0.874697
vt 0.396464 0.769698
vt 0.461161 0.778446
vt 0.458961 0.826054
vt 0.398574 0.824121
vt 0.466576 0.922473
vt 0.468569 0.971667
vt 0.465606 0.874677
vt 0.468569 0.778788
vt 0.466483 0.826272
vt 0.147680 0.828010
vt 0.150180 0.874883
vt 0.213001 0.828985
vt 0.275220 0.829288
vt 0.275509 0.874355
vt 0.213187 0.874363
vt 0.336276 0.826641
vt 0.337335 0.874531
vt 0.144693 0.778590
vt 0.213657 0.784262
vt 0.273771 0.786716
vt 0.331981 0.780828
vt 0.148516 0.920036
vt 0.274854 0.918262
vt 0.212971 0.918356
vt 0.335837 0.921339
vt 0.146349 0.967769
vt 0.273041 0.961456
vt 0.213504 0.963150
vt 0.331061 0.968102
vt 0.259081 0.034302
vt 0.259081 0.026189
vt 0.985817 0.122276
vt 0.985817 0.135126
vt 0.018431 0.135126
vt 0.018430 0.122276
vt 0.739590 0.025313
vt 0.734260 0.030709
vt 0.956970 0.024662
vt 0.962054 0.029993
vt 0.038289 0.029993
vt 0.043374 0.024662
vt 0.057536 0.480325
vt 0.041191 0.480325
vt 0.961947 0.023522
vt 0.961947 0.031635
vt 0.038398 0.031635
vt 0.038398 0.023521
vt 0.979414 0.023522
vt 0.979415 0.031635
vt 0.921757 0.480325
vt 0.979526 0.029993
vt 0.974129 0.024662
vt 0.952162 0.814462
vt 0.888136 0.824630
vt 0.888772 0.841867
vt 0.940386 0.832212
vt 0.548423 0.769139
vt 0.761742 0.769139
vt 0.761742 0.878224
vt 0.548423 0.878224
vt 0.767009 0.987828
vt 0.548423 0.987828
vt 0.548426 0.878744
vt 0.767013 0.878744
vt 0.821430 0.810476
vt 0.833647 0.828820
vt 0.809470 0.865661
vt 0.828086 0.865962
vt 0.962969 0.867996
vt 0.944768 0.867737
vt 0.737528 0.026415
vt 0.737528 0.034528
vt 0.985817 0.109897
vt 0.018431 0.109897
vt 0.734260 0.025234
vt 0.739590 0.030630
vt 0.962055 0.024851
vt 0.956970 0.030182
vt 0.043374 0.030182
vt 0.038289 0.024851
vt 0.956830 0.022572
vt 0.961947 0.030685
vt 0.038397 0.030685
vt 0.043514 0.022572
vt 0.979415 0.030685
vt 0.979415 0.022572
vt 0.062325 0.057113
vt 0.916969 0.057113
vt 0.979526 0.024851
vt 0.974129 0.030182
vt 0.950654 0.921209
vt 0.939394 0.903035
vt 0.888010 0.891897
vt 0.886851 0.909202
vt 0.548423 0.986983
vt 0.761742 0.986983
vt 0.767009 0.769984
vt 0.548423 0.769984
vt 0.832431 0.903168
vt 0.819631 0.921209
vt 0.030088 0.916520
vt 0.038919 0.916993
vt 0.034252 0.964966
vt 0.025851 0.959129
vt 0.031971 0.876389
vt 0.039689 0.876318
vt 0.022522 0.791586
vt 0.031139 0.785352
vt 0.037206 0.833845
vt 0.028181 0.834823
vt 0.046496 0.917452
vt 0.043737 0.968974
vt 0.047115 0.876354
vt 0.040913 0.780969
vt 0.045118 0.833243
vt 0.050325 0.778783
vt 0.052404 0.832955
vt 0.053612 0.876275
vt 0.053593 0.917532
vt 0.052833 0.970863
vt 0.061990 0.917487
vt 0.063771 0.968085
vt 0.061264 0.876208
vt 0.061804 0.781364
vt 0.061022 0.832826
vt 0.069284 0.875793
vt 0.070034 0.916930
vt 0.071979 0.785947
vt 0.069649 0.832970
vt 0.073354 0.963441
vt 0.081077 0.790916
vt 0.080055 0.833158
vt 0.077440 0.875672
vt 0.080311 0.916741
vt 0.081946 0.958524
vt 0.398401 0.925695
vt 0.458904 0.924122
vt 0.461075 0.973274
vt 0.395829 0.981408
vt 0.400979 0.876261
vt 0.458095 0.876248
vt 0.396700 0.771577
vt 0.461185 0.780299
vt 0.458989 0.827754
vt 0.398790 0.825816
vt 0.466580 0.923892
vt 0.468570 0.972955
vt 0.465613 0.876229
vt 0.468570 0.780640
vt 0.466487 0.827971
vt 0.148784 0.828836
vt 0.150691 0.875351
vt 0.213847 0.830317
vt 0.275832 0.830843
vt 0.276021 0.875749
vt 0.213784 0.875480
vt 0.336686 0.828294
vt 0.337701 0.876034
vt 0.146554 0.779918
vt 0.214742 0.785922
vt 0.274468 0.788482
vt 0.332436 0.782655
vt 0.148584 0.920535
vt 0.275294 0.919602
vt 0.213375 0.919511
vt 0.336179 0.922734
vt 0.146100 0.969663
vt 0.273480 0.962813
vt 0.213878 0.964603
vt 0.331413 0.969416
vt 0.737528 0.026448
vt 0.737528 0.034561
vt 0.734260 0.024941
vt 0.739590 0.030337
vt 0.938103 0.480325
vt 0.020931 0.023522
vt 0.020931 0.031635
vt 0.020818 0.029993
vt 0.026215 0.024662
vt 0.821081 0.918439
vt 0.832857 0.900688
vt 0.884473 0.891032
vt 0.885108 0.908270
vt 0.766111 0.765460
vt 0.766111 0.874547
vt 0.552789 0.874547
vt 0.552789 0.765460
vt 0.771375 0.767341
vt 0.771378 0.876427
vt 0.552791 0.876427
vt 0.552789 0.767341
vt 0.939597 0.904078
vt 0.951815 0.922422
vt 0.945158 0.866936
vt 0.963775 0.867237
vt 0.810275 0.864904
vt 0.828475 0.865162
vt 0.737528 0.025931
vt 0.737528 0.034044
vt 0.739590 0.024862
vt 0.734260 0.030258
vt 0.020930 0.030685
vt 0.020929 0.022572
vt 0.020818 0.024851
vt 0.026214 0.030182
vt 0.822589 0.811689
vt 0.886393 0.823696
vt 0.885235 0.841001
vt 0.833848 0.829863
vt 0.766111 0.983308
vt 0.552789 0.983308
vt 0.771375 0.985188
vt 0.552789 0.985188
vt 0.953614 0.811689
vt 0.940814 0.829730
vt 0.030088 0.916853
vt 0.025851 0.959461
vt 0.034252 0.965299
vt 0.038919 0.917326
vt 0.031971 0.876722
vt 0.039689 0.876651
vt 0.022520 0.791919
vt 0.028181 0.835156
vt 0.037205 0.834179
vt 0.031138 0.785684
vt 0.043737 0.969306
vt 0.046496 0.917784
vt 0.047114 0.876687
vt 0.045117 0.833576
vt 0.040911 0.781302
vt 0.052403 0.833288
vt 0.050324 0.779115
vt 0.053611 0.876607
vt 0.052833 0.971195
vt 0.053593 0.917865
vt 0.063771 0.968416
vt 0.061990 0.917820
vt 0.061264 0.876541
vt 0.061021 0.833158
vt 0.061803 0.781696
vt 0.070034 0.917263
vt 0.069284 0.876126
vt 0.069649 0.833302
vt 0.071977 0.786279
vt 0.073354 0.963773
vt 0.080055 0.833491
vt 0.081076 0.791248
vt 0.077440 0.876005
vt 0.081945 0.958856
vt 0.080311 0.917073
vt 0.398401 0.926028
vt 0.395828 0.981741
vt 0.461074 0.973606
vt 0.458904 0.924455
vt 0.400979 0.876593
vt 0.458095 0.876580
vt 0.396700 0.771910
vt 0.398790 0.826148
vt 0.458989 0.828086
vt 0.461185 0.780632
vt 0.468569 0.973287
vt 0.466580 0.924224
vt 0.465613 0.876561
vt 0.466487 0.828303
vt 0.468569 0.780973
vt 0.150690 0.875683
vt 0.148783 0.829168
vt 0.213846 0.830649
vt 0.213784 0.875813
vt 0.276021 0.876081
vt 0.275831 0.831176
vt 0.336685 0.828626
vt 0.337701 0.876366
vt 0.146553 0.780250
vt 0.214741 0.786254
vt 0.274467 0.788815
vt 0.332436 0.782987
vt 0.148584 0.920868
vt 0.213374 0.919843
vt 0.275293 0.919934
vt 0.336178 0.923066
vt 0.146099 0.969996
vt 0.213877 0.964936
vt 0.273480 0.963146
vt 0.331413 0.969748
s 1
usemtl initialShadingGroup.001
f 6/1/1 1/2/1 2/3/1 7/4/1
f 5/5/2 6/6/2 172/7/2 171/8/2
f 9/9/3 11/10/3 94/11/3 92/12/3
f 6/6/2 5/5/2 3/13/2 1/14/2
f 6/1/1 7/4/1 173/15/1 172/16/1
f 8/17/2 9/18/2 92/19/2 91/20/2
f 10/21/4 12/22/4 7/23/4 2/24/4
f 10/25/3 8/26/3 91/27/3 93/28/3
f 4/29/1 5/30/1 171/31/1 170/32/1
f 7/23/4 12/22/4 178/33/4 173/34/4
f 12/22/4 95/35/4 261/36/4 178/33/4
f 1/37/3 8/26/3 10/25/3 2/38/3
f 12/22/4 10/21/4 93/39/4 95/35/4
f 1/40/2 3/41/2 9/18/2 8/17/2
f 5/42/5 15/43/5 13/44/5 3/45/5
f 15/46/1 14/47/1 16/48/1 13/49/1
f 13/50/3 16/51/3 18/52/3 17/53/3
f 3/45/6 13/44/6 17/54/6 9/55/6
f 9/55/7 17/54/7 18/56/7 11/57/7
f 4/58/8 14/59/8 15/43/8 5/42/8
f 23/60/1 24/61/1 20/62/1 19/63/1
f 23/64/4 22/65/4 188/66/4 189/67/4
f 11/10/3 26/68/3 109/69/3 94/11/3
f 23/64/4 19/70/4 21/71/4 22/65/4
f 24/61/1 23/60/1 189/72/1 190/73/1
f 26/74/4 25/75/4 108/76/4 109/77/4
f 25/78/3 27/79/3 110/80/3 108/81/3
f 22/82/1 4/29/1 170/32/1 188/83/1
f 28/84/2 24/85/2 190/86/2 194/87/2
f 111/88/2 28/84/2 194/87/2 277/89/2
f 19/90/3 20/91/3 27/79/3 25/78/3
f 27/92/2 28/84/2 111/88/2 110/93/2
f 19/94/4 25/75/4 26/74/4 21/95/4
f 22/96/9 21/97/9 29/98/9 30/99/9
f 30/100/1 29/101/1 16/48/1 14/47/1
f 29/102/3 31/103/3 18/52/3 16/51/3
f 21/97/10 26/104/10 31/105/10 29/98/10
f 26/104/7 11/57/7 18/56/7 31/105/7
f 4/58/8 22/96/8 30/99/8 14/59/8
f 24/106/11 28/107/11 35/108/12 33/109/12
f 20/110/13 24/106/13 33/109/14 32/111/14
f 28/112/15 27/113/15 34/114/16 35/115/16
f 27/113/17 20/110/17 32/111/18 34/114/18
f 33/109/12 35/108/12 39/116/19 37/117/20
f 32/111/14 33/109/14 37/117/21 36/118/21
f 35/115/16 34/114/16 38/119/22 39/120/22
f 34/114/18 32/111/18 36/118/23 38/119/24
f 39/120/22 38/119/22 42/121/25 43/122/25
f 38/119/24 36/118/23 40/123/26 42/121/26
f 37/117/20 39/116/19 43/124/27 41/125/27
f 36/118/21 37/117/21 41/125/28 40/123/28
f 41/125/27 43/124/27 47/126/29 45/127/29
f 40/123/28 41/125/28 45/127/30 44/128/30
f 43/122/25 42/121/25 46/129/31 47/130/31
f 42/121/26 40/123/26 44/128/32 46/129/32
f 44/128/30 45/127/30 49/131/33 48/132/33
f 47/130/31 46/129/31 50/133/34 51/134/34
f 46/129/32 44/128/32 48/132/35 50/133/35
f 45/127/29 47/126/29 51/135/36 49/131/37
f 51/134/34 50/133/34 54/136/38 55/137/38
f 50/133/35 48/132/35 52/138/39 54/136/39
f 49/131/37 51/135/36 55/139/40 53/140/40
f 48/132/33 49/131/33 53/140/41 52/138/41
f 67/141/42 66/142/42 59/143/42 57/144/42
f 70/145/43 67/141/43 57/144/43 56/146/43
f 66/147/44 75/148/45 58/149/45 59/150/45
f 75/148/46 70/145/46 56/146/46 58/149/46
f 57/144/42 59/143/42 63/151/47 61/152/47
f 56/146/43 57/144/43 61/152/1 60/153/1
f 59/150/45 58/149/45 62/154/48 63/155/48
f 58/149/46 56/146/46 60/153/3 62/154/3
f 54/136/49 52/138/49 72/156/49 73/157/49
f 83/158/50 82/159/50 71/160/50 74/161/50
f 79/162/51 78/163/51 70/145/46 75/148/46
f 55/137/52 54/136/52 73/157/52 64/164/52
f 80/165/53 83/158/53 74/161/53 65/166/53
f 76/167/54 79/162/54 75/148/45 66/147/44
f 52/138/55 53/140/55 69/168/55 72/156/55
f 82/159/56 81/169/56 68/170/56 71/160/56
f 78/163/57 77/171/57 67/141/43 70/145/43
f 53/140/58 55/139/58 64/172/58 69/168/59
f 81/169/60 80/173/60 65/174/60 68/170/60
f 77/171/61 76/175/61 66/142/42 67/141/42
f 68/170/60 65/174/60 76/175/61 77/171/61
f 71/160/56 68/170/56 77/171/57 78/163/57
f 65/166/53 74/161/53 79/162/54 76/167/54
f 74/161/50 71/160/50 78/163/51 79/162/51
f 69/168/59 64/172/58 80/173/60 81/169/60
f 72/156/55 69/168/55 81/169/56 82/159/56
f 64/164/52 73/157/52 83/158/53 80/165/53
f 73/157/49 72/156/49 82/159/50 83/158/50
f 89/176/62 90/177/62 85/178/62 84/179/62
f 89/180/2 88/181/2 254/182/2 255/183/2
f 89/180/2 84/184/2 86/185/2 88/181/2
f 90/177/62 89/176/62 255/186/62 256/187/62
f 93/39/4 85/188/4 90/189/4 95/35/4
f 88/190/62 87/191/62 253/192/62 254/193/62
f 95/35/4 90/189/4 256/194/4 261/36/4
f 84/195/3 85/196/3 93/28/3 91/27/3
f 84/197/2 91/20/2 92/19/2 86/198/2
f 88/199/63 86/200/63 96/201/63 98/202/63
f 98/203/62 96/204/62 99/205/62 97/206/62
f 96/207/3 100/208/3 101/209/3 99/210/3
f 86/200/6 92/211/6 100/212/6 96/201/6
f 92/211/64 94/213/64 101/214/64 100/212/64
f 87/215/65 88/199/65 98/202/65 97/216/65
f 106/217/62 102/218/62 103/219/62 107/220/62
f 105/221/4 106/222/4 272/223/4 271/224/4
f 106/222/4 105/221/4 104/225/4 102/226/4
f 106/217/62 107/220/62 273/227/62 272/228/62
f 87/191/62 105/229/62 271/230/62 253/192/62
f 107/231/2 111/88/2 277/89/2 273/232/2
f 102/233/3 108/81/3 110/80/3 103/234/3
f 102/235/4 104/236/4 109/77/4 108/76/4
f 105/237/66 113/238/66 112/239/66 104/240/66
f 113/241/62 97/206/62 99/205/62 112/242/62
f 112/243/3 99/210/3 101/209/3 114/244/3
f 104/240/10 112/239/10 114/245/10 109/246/10
f 109/246/64 114/245/64 101/214/64 94/213/64
f 87/215/65 97/216/65 113/238/65 105/237/65
f 107/247/11 116/248/12 118/249/11 111/250/11
f 103/251/67 115/252/68 116/248/68 107/247/67
f 111/253/69 118/254/70 117/255/70 110/256/69
f 110/256/17 117/255/18 115/252/18 103/251/17
f 116/248/12 120/257/19 122/258/19 118/249/11
f 115/252/68 119/259/71 120/257/71 116/248/68
f 118/254/70 122/260/72 121/261/72 117/255/70
f 117/255/18 121/261/24 119/259/23 115/252/18
f 122/260/72 126/262/73 125/263/73 121/261/72
f 121/261/24 125/263/26 123/264/26 119/259/23
f 120/257/19 124/265/27 126/266/27 122/258/19
f 119/259/71 123/264/74 124/265/74 120/257/71
f 124/265/27 128/267/29 130/268/29 126/266/27
f 123/264/74 127/269/75 128/267/75 124/265/74
f 126/262/73 130/270/76 129/271/76 125/263/73
f 125/263/26 129/271/32 127/269/32 123/264/26
f 127/269/75 131/272/77 132/273/77 128/267/75
f 130/270/76 134/274/78 133/275/78 129/271/76
f 129/271/32 133/275/35 131/272/35 127/269/32
f 128/267/29 132/273/37 134/276/36 130/268/29
f 134/274/78 138/277/79 137/278/79 133/275/78
f 133/275/35 137/278/39 135/279/39 131/272/35
f 132/273/37 136/280/40 138/281/40 134/276/36
f 131/272/77 135/279/80 136/280/80 132/273/77
f 150/282/42 140/283/42 142/284/42 149/285/42
f 153/286/81 139/287/81 140/283/81 150/282/81
f 149/288/82 142/289/83 141/290/83 158/291/83
f 158/291/46 141/290/46 139/287/46 153/286/46
f 140/283/42 144/292/47 146/293/47 142/284/42
f 139/287/81 143/294/62 144/292/62 140/283/81
f 142/289/83 146/295/84 145/296/84 141/290/83
f 141/290/46 145/296/3 143/294/3 139/287/46
f 137/278/49 156/297/49 155/298/49 135/279/49
f 166/299/50 157/300/50 154/301/50 165/302/50
f 162/303/51 158/291/46 153/286/46 161/304/51
f 138/277/85 147/305/85 156/297/85 137/278/85
f 163/306/86 148/307/86 157/300/86 166/299/86
f 159/308/87 149/288/82 158/291/83 162/303/87
f 135/279/88 155/298/89 152/309/88 136/280/88
f 165/302/90 154/301/90 151/310/90 164/311/90
f 161/304/91 153/286/81 150/282/81 160/312/91
f 136/280/58 152/309/58 147/313/58 138/281/58
f 164/311/60 151/310/60 148/314/60 163/315/60
f 160/312/61 150/282/42 149/285/42 159/316/61
f 151/310/60 160/312/61 159/316/61 148/314/60
f 154/301/90 161/304/91 160/312/91 151/310/90
f 148/307/86 159/308/87 162/303/87 157/300/86
f 157/300/50 162/303/51 161/304/51 154/301/50
f 152/309/58 164/311/60 163/315/60 147/313/58
f 155/298/89 165/302/90 164/311/90 152/309/88
f 147/305/85 163/306/86 166/299/86 156/297/85
f 156/297/49 166/299/50 165/302/50 155/298/49
f 172/16/1 173/15/1 168/317/1 167/318/1
f 177/319/47 175/320/47 258/321/47 260/322/47
f 172/7/2 167/323/2 169/324/2 171/8/2
f 175/325/2 174/326/2 257/327/2 258/328/2
f 176/329/4 168/330/4 173/34/4 178/33/4
f 174/331/47 176/332/47 259/333/47 257/334/47
f 167/335/47 168/336/47 176/332/47 174/331/47
f 176/329/4 178/33/4 261/36/4 259/337/4
f 167/338/2 174/326/2 175/325/2 169/339/2
f 171/340/5 169/341/5 179/342/5 181/343/5
f 181/344/1 179/345/1 182/346/1 180/347/1
f 179/348/47 183/349/47 184/350/47 182/351/47
f 169/341/92 175/352/92 183/353/92 179/342/92
f 175/352/65 177/354/65 184/355/65 183/353/65
f 170/356/93 171/340/93 181/343/93 180/357/93
f 189/72/1 185/358/1 186/359/1 190/73/1
f 192/360/47 177/319/47 260/322/47 275/361/47
f 189/67/4 188/66/4 187/362/4 185/363/4
f 191/364/4 192/365/4 275/366/4 274/367/4
f 193/368/47 191/369/47 274/370/47 276/371/47
f 185/372/47 191/369/47 193/368/47 186/373/47
f 194/87/2 193/374/2 276/375/2 277/89/2
f 185/376/4 187/377/4 192/365/4 191/364/4
f 188/378/9 196/379/9 195/380/9 187/381/9
f 196/382/1 180/347/1 182/346/1 195/383/1
f 195/384/47 182/351/47 184/350/47 197/385/47
f 187/381/94 195/380/94 197/386/94 192/387/94
f 192/387/65 197/386/65 184/355/65 177/354/65
f 170/356/93 180/357/93 196/379/93 188/378/93
f 190/388/17 199/389/18 201/390/18 194/391/17
f 186/392/13 198/393/14 199/389/14 190/388/13
f 194/394/95 201/395/96 200/396/96 193/397/95
f 193/397/11 200/396/12 198/393/12 186/392/11
f 199/389/18 203/398/24 205/399/23 201/390/18
f 198/393/14 202/400/21 203/398/21 199/389/14
f 201/395/96 205/401/97 204/402/98 200/396/96
f 200/396/12 204/402/19 202/400/19 198/393/12
f 205/401/97 209/403/99 208/404/99 204/402/98
f 204/402/19 208/404/27 206/405/27 202/400/19
f 203/398/24 207/406/26 209/407/26 205/399/23
f 202/400/21 206/405/28 207/406/28 203/398/21
f 207/406/26 211/408/32 213/409/32 209/407/26
f 206/405/28 210/410/30 211/408/30 207/406/28
f 209/403/99 213/411/100 212/412/100 208/404/99
f 208/404/27 212/412/29 210/410/29 206/405/27
f 210/410/30 214/413/33 215/414/33 211/408/30
f 213/411/100 217/415/101 216/416/101 212/412/100
f 212/412/29 216/416/37 214/413/37 210/410/29
f 211/408/32 215/414/35 217/417/102 213/409/32
f 217/415/101 221/418/103 220/419/103 216/416/101
f 216/416/37 220/419/104 218/420/104 214/413/37
f 215/414/35 219/421/39 221/422/39 217/417/102
f 214/413/33 218/420/41 219/421/41 215/414/33
f 233/423/105 223/424/105 225/425/105 232/426/105
f 236/427/43 222/428/43 223/424/43 233/423/43
f 232/429/106 225/430/107 224/431/107 241/432/107
f 241/432/108 224/431/108 222/428/108 236/427/108
f 223/424/105 227/433/3 229/434/3 225/425/105
f 222/428/43 226/435/1 227/433/1 223/424/43
f 225/430/107 229/436/109 228/437/109 224/431/107
f 224/431/108 228/437/47 226/435/47 222/428/108
f 220/419/110 239/438/110 238/439/110 218/420/110
f 249/440/111 240/441/111 237/442/111 248/443/111
f 245/444/112 241/432/108 236/427/108 244/445/112
f 221/418/113 230/446/113 239/438/113 220/419/113
f 246/447/114 231/448/114 240/441/114 249/440/114
f 242/449/115 232/429/106 241/432/107 245/444/115
f 218/420/55 238/439/55 235/450/55 219/421/55
f 248/443/56 237/442/56 234/451/56 247/452/56
f 244/445/57 236/427/43 233/423/43 243/453/57
f 219/421/116 235/450/117 230/454/116 221/422/116
f 247/452/118 234/451/118 231/455/118 246/456/118
f 243/453/119 233/423/105 232/426/105 242/457/119
f 234/451/118 243/453/119 242/457/119 231/455/118
f 237/442/56 244/445/57 243/453/57 234/451/56
f 231/448/114 242/449/115 245/444/115 240/441/114
f 240/441/111 245/444/112 244/445/112 237/442/111
f 235/450/117 247/452/118 246/456/118 230/454/116
f 238/439/55 248/443/56 247/452/56 235/450/55
f 230/446/113 246/447/114 249/440/114 239/438/113
f 239/438/110 249/440/111 248/443/111 238/439/110
f 255/186/62 250/458/62 251/459/62 256/187/62
f 255/183/2 254/182/2 252/460/2 250/461/2
f 259/337/4 261/36/4 256/194/4 251/462/4
f 250/463/47 257/334/47 259/333/47 251/464/47
f 250/465/2 252/466/2 258/328/2 257/327/2
f 254/467/120 264/468/120 262/469/120 252/470/120
f 264/471/62 263/472/62 265/473/62 262/474/62
f 262/475/47 265/476/47 267/477/47 266/478/47
f 252/470/92 262/469/92 266/479/92 258/480/92
f 258/480/121 266/479/121 267/481/121 260/482/121
f 253/483/7 263/484/7 264/468/7 254/467/7
f 272/228/62 273/227/62 269/485/62 268/486/62
f 272/223/4 268/487/4 270/488/4 271/224/4
f 268/489/47 269/490/47 276/371/47 274/370/47
f 268/491/4 274/367/4 275/366/4 270/492/4
f 271/493/66 270/494/66 278/495/66 279/496/66
f 279/497/62 278/498/62 265/473/62 263/472/62
f 278/499/47 280/500/47 267/477/47 265/476/47
f 270/494/94 275/501/94 280/502/94 278/495/94
f 275/501/121 260/482/121 267/481/121 280/502/121
f 253/483/7 271/493/7 279/496/7 263/484/7
f 273/503/17 277/504/17 284/505/17 282/506/18
f 269/507/67 273/503/67 282/506/68 281/508/68
f 277/509/122 276/510/122 283/511/123 284/512/123
f 276/510/11 269/507/11 281/508/12 283/511/12
f 282/506/18 284/505/17 288/513/23 286/514/23
f 281/508/68 282/506/68 286/514/71 285/515/71
f 284/512/123 283/511/123 287/516/124 288/517/125
f 283/511/12 281/508/12 285/515/20 287/516/19
f 288/517/125 287/516/124 291/518/126 292/519/126
f 287/516/19 285/515/20 289/520/27 291/518/27
f 286/514/23 288/513/23 292/521/26 290/522/26
f 285/515/71 286/514/71 290/522/74 289/520/74
f 290/522/26 292/521/26 296/523/32 294/524/32
f 289/520/74 290/522/74 294/524/75 293/525/75
f 292/519/126 291/518/126 295/526/127 296/527/127
f 291/518/27 289/520/27 293/525/29 295/526/29
f 293/525/75 294/524/75 298/528/77 297/529/77
f 296/527/127 295/526/127 299/530/128 300/531/128
f 295/526/29 293/525/29 297/529/37 299/530/37
f 294/524/32 296/523/32 300/532/102 298/528/35
f 300/531/128 299/530/128 303/533/129 304/534/129
f 299/530/37 297/529/37 301/535/40 303/533/40
f 298/528/35 300/532/102 304/536/39 302/537/39
f 297/529/77 298/528/77 302/537/80 301/535/80
f 316/538/105 315/539/105 308/540/105 306/541/105
f 319/542/81 316/538/81 306/541/81 305/543/81
f 315/544/130 324/545/131 307/546/131 308/547/131
f 324/545/108 319/542/108 305/543/108 307/546/108
f 306/541/105 308/540/105 312/548/3 310/549/3
f 305/543/81 306/541/81 310/549/62 309/550/62
f 308/547/131 307/546/131 311/551/132 312/552/132
f 307/546/108 305/543/108 309/550/47 311/551/47
f 303/533/110 301/535/110 321/553/110 322/554/110
f 332/555/111 331/556/111 320/557/111 323/558/111
f 328/559/112 327/560/112 319/542/108 324/545/108
f 304/534/133 303/533/133 322/554/133 313/561/133
f 329/562/134 332/555/134 323/558/134 314/563/134
f 325/564/135 328/559/135 324/545/131 315/544/130
f 301/535/88 302/537/88 318/565/88 321/553/88
f 331/556/90 330/566/90 317/567/90 320/557/90
f 327/560/91 326/568/91 316/538/81 319/542/81
f 302/537/116 304/536/116 313/569/116 318/565/116
f 330/566/118 329/570/118 314/571/118 317/567/118
f 326/568/119 325/572/119 315/539/105 316/538/105
f 317/567/118 314/571/118 325/572/119 326/568/119
f 320/557/90 317/567/90 326/568/91 327/560/91
f 314/563/134 323/558/134 328/559/135 325/564/135
f 323/558/111 320/557/111 327/560/112 328/559/112
f 318/565/116 313/569/116 329/570/118 330/566/118
f 321/553/88 318/565/88 330/566/90 331/556/90
f 313/561/133 322/554/133 332/555/134 329/562/134
f 322/554/110 321/553/110 331/556/111 332/555/111
