# Blender 4.4.0
# www.blender.org
mtllib WardrobeDoor2.mtl
o Wardrobe_Door_2
v 0.022733 0.000000 0.000000
v 0.022733 1.885342 0.000000
v 0.022733 0.835833 0.000000
v 0.022733 1.107039 0.000000
v 0.022733 1.005337 0.000000
v 0.022733 1.039238 0.000000
v 0.022733 1.073139 0.000000
v 0.022733 0.869734 0.000000
v 0.022733 0.903634 0.000000
v 0.022733 0.937535 0.000000
v -0.022733 0.000000 0.000000
v -0.022733 1.885342 0.000000
v -0.022733 0.835833 0.000000
v -0.022733 1.107039 0.000000
v -0.022733 1.005337 0.000000
v -0.022733 1.039238 0.000000
v -0.022733 1.073139 0.000000
v -0.022733 0.869734 0.000000
v -0.022733 0.903634 0.000000
v -0.022733 0.937535 0.000000
v 0.022733 0.000000 0.538669
v 0.022733 1.944259 0.538669
v 0.022733 1.888691 0.089778
v 0.022733 1.893118 0.179557
v 0.022733 1.902938 0.269335
v 0.022733 1.920307 0.359113
v 0.022733 1.936597 0.448891
v 0.022733 0.120035 0.087707
v 0.022733 0.120035 0.450962
v 0.022733 1.778210 0.087707
v 0.022733 1.821333 0.450962
v 0.022733 1.780661 0.148250
v 0.022733 1.783902 0.208792
v 0.022733 1.803801 0.329877
v 0.022733 1.815725 0.390420
v 0.022733 0.000000 0.448891
v 0.022733 0.000000 0.359113
v 0.022733 0.000000 0.269335
v 0.022733 0.000000 0.179556
v 0.022733 0.000000 0.089778
v 0.022733 0.105127 0.390420
v 0.022733 0.093945 0.329877
v 0.022733 0.093945 0.208792
v 0.022733 0.105127 0.148249
v 0.009882 0.120035 0.087707
v 0.009882 0.120035 0.450962
v 0.009882 1.778210 0.087707
v 0.009882 1.821333 0.450962
v 0.009882 1.780661 0.148250
v 0.009882 1.783902 0.208792
v 0.009882 1.791089 0.269335
v 0.009882 1.803801 0.329877
v 0.009882 1.815725 0.390420
v 0.009882 0.105127 0.390420
v 0.009882 0.093945 0.329877
v 0.009882 0.088354 0.269335
v 0.009882 0.093945 0.208792
v 0.009882 0.105127 0.148249
v 0.022733 0.835833 0.538669
v 0.022733 1.107039 0.538669
v 0.022733 0.852377 0.450962
v 0.022733 1.089687 0.450962
v 0.009882 0.852374 0.450962
v 0.009882 1.089687 0.450962
v 0.022733 0.852377 0.087707
v 0.022733 1.089687 0.087707
v 0.009882 0.852377 0.087707
v 0.009882 1.089687 0.087707
v 0.022733 0.869734 0.538669
v 0.022733 0.903634 0.538669
v 0.022733 0.937535 0.538669
v 0.022733 0.882041 0.445638
v 0.022733 0.911704 0.429640
v 0.022733 0.941368 0.419407
v 0.009882 0.888374 0.433087
v 0.009882 0.915927 0.418228
v 0.009882 0.943479 0.408724
v 0.022733 1.005337 0.538669
v 0.022733 1.039238 0.538669
v 0.022733 1.073139 0.538669
v 0.022733 1.000696 0.419407
v 0.022733 1.030360 0.429640
v 0.022733 1.060024 0.445638
v 0.009882 0.998584 0.408724
v 0.009882 1.026136 0.418228
v 0.009882 1.053688 0.433087
v 0.022733 1.000696 0.119262
v 0.022733 1.030360 0.109030
v 0.022733 1.060024 0.093031
v 0.009882 0.998584 0.129945
v 0.009882 1.026136 0.120441
v 0.009882 1.053688 0.105582
v 0.022733 0.882041 0.093031
v 0.022733 0.911704 0.109030
v 0.022733 0.941368 0.119262
v 0.009882 0.888376 0.105582
v 0.009882 0.915928 0.120441
v 0.009882 0.943480 0.129945
v 0.009882 0.998584 0.269335
v 0.009882 0.943480 0.269335
v 0.009882 0.915927 0.269335
v 0.009882 1.053688 0.269335
v 0.009882 0.888375 0.269335
v 0.009882 1.089687 0.269335
v 0.009882 0.852376 0.269335
v 0.009882 1.026136 0.269335
v 0.009882 1.489462 0.199279
v 0.009882 1.509444 0.339340
v 0.009882 0.507117 0.214349
v 0.009882 0.507117 0.325281
v 0.009882 0.631240 0.087707
v 0.009882 0.630243 0.450962
v 0.009882 1.527458 0.087707
v 0.009882 1.560708 0.450962
v 0.022733 0.507117 0.214349
v 0.022733 0.852376 0.269335
v 0.022733 0.507117 0.325281
v 0.022733 1.089687 0.269335
v 0.022733 1.489462 0.199279
v 0.022733 1.791089 0.269335
v 0.022733 1.509444 0.339340
v 0.022733 0.088354 0.269335
v 0.022733 0.948505 0.396404
v 0.022733 0.948505 0.142265
v 0.022733 0.993559 0.396404
v 0.022733 0.993559 0.142265
v 0.022733 0.993559 0.269335
v 0.022733 0.948505 0.269335
v 0.022733 1.013143 0.513591
v 0.022733 1.026771 0.513591
v 0.022733 1.013143 0.499962
v 0.022733 1.026771 0.499962
v 0.022733 0.929326 0.499962
v 0.022733 0.915697 0.499962
v 0.022733 0.929326 0.513591
v 0.022733 0.915697 0.513591
v 0.028586 1.013143 0.513591
v 0.028586 1.026771 0.513591
v 0.028586 1.013143 0.499962
v 0.028586 1.026771 0.499962
v 0.031247 1.013901 0.512832
v 0.031247 1.026013 0.512832
v 0.031247 1.013901 0.500720
v 0.031247 1.026013 0.500720
v 0.033182 1.014109 0.512625
v 0.033182 1.025805 0.512625
v 0.033182 1.014109 0.500928
v 0.033182 1.025805 0.500928
v 0.035359 1.013045 0.513688
v 0.035359 1.026869 0.513688
v 0.035359 1.013045 0.499864
v 0.035359 1.026869 0.499864
v 0.038504 1.012477 0.514257
v 0.038504 1.027437 0.514257
v 0.038504 1.012477 0.499296
v 0.038504 1.027437 0.499296
v 0.041165 1.012477 0.514257
v 0.041165 1.027437 0.514257
v 0.041165 1.012477 0.499296
v 0.041165 1.027437 0.499296
v 0.043342 1.013237 0.513496
v 0.043342 1.026676 0.513496
v 0.043342 1.013237 0.500057
v 0.043342 1.026676 0.500057
v 0.045157 1.015875 0.510859
v 0.045157 1.024039 0.510859
v 0.045157 1.015875 0.502694
v 0.045157 1.024039 0.502694
v 0.047939 1.016663 0.510070
v 0.047939 1.023250 0.510070
v 0.047939 1.016663 0.503483
v 0.047939 1.023250 0.503483
v 0.049299 1.017047 0.510070
v 0.052384 1.022867 0.510070
v 0.049299 1.017047 0.503483
v 0.052384 1.022867 0.503483
v 0.050730 1.014902 0.510070
v 0.055476 1.019469 0.510070
v 0.050730 1.014902 0.503483
v 0.055476 1.019469 0.503483
v 0.051783 1.011363 0.510070
v 0.057742 1.014169 0.510070
v 0.051783 1.011363 0.503483
v 0.057742 1.014169 0.503483
v 0.052177 1.007650 0.510070
v 0.058764 1.007649 0.510070
v 0.052177 1.007650 0.503483
v 0.058764 1.007649 0.503483
v 0.051278 1.004515 0.510968
v 0.059662 1.004514 0.510968
v 0.051278 1.004515 0.502584
v 0.059662 1.004514 0.502584
v 0.050690 1.001206 0.511557
v 0.060250 1.001204 0.511557
v 0.050690 1.001206 0.501996
v 0.060250 1.001204 0.501996
v 0.050278 0.997199 0.511968
v 0.060661 0.997198 0.511968
v 0.050278 0.997199 0.501585
v 0.060661 0.997198 0.501585
v 0.049819 0.993193 0.512427
v 0.061120 0.993192 0.512427
v 0.049819 0.993193 0.501126
v 0.061120 0.993192 0.501126
v 0.049325 0.984833 0.512920
v 0.061612 0.984832 0.512920
v 0.049325 0.984833 0.500632
v 0.061612 0.984832 0.500632
v 0.048642 0.971234 0.513602
v 0.062292 0.971234 0.513602
v 0.048642 0.971234 0.499951
v 0.062292 0.971234 0.499951
v 0.028586 0.929326 0.513591
v 0.028586 0.915697 0.513591
v 0.028586 0.929326 0.499962
v 0.028586 0.915697 0.499962
v 0.031247 0.928567 0.512832
v 0.031247 0.916456 0.512832
v 0.031247 0.928567 0.500720
v 0.031247 0.916456 0.500720
v 0.033182 0.928360 0.512625
v 0.033182 0.916663 0.512625
v 0.033182 0.928360 0.500928
v 0.033182 0.916663 0.500928
v 0.035359 0.929423 0.513688
v 0.035359 0.915600 0.513688
v 0.035359 0.929423 0.499864
v 0.035359 0.915600 0.499864
v 0.038504 0.929992 0.514257
v 0.038504 0.915031 0.514257
v 0.038504 0.929992 0.499296
v 0.038504 0.915031 0.499296
v 0.041165 0.929992 0.514257
v 0.041165 0.915031 0.514257
v 0.041165 0.929992 0.499296
v 0.041165 0.915031 0.499296
v 0.043342 0.929231 0.513496
v 0.043342 0.915792 0.513496
v 0.043342 0.929231 0.500057
v 0.043342 0.915792 0.500057
v 0.045157 0.926594 0.510859
v 0.045157 0.918429 0.510859
v 0.045157 0.926594 0.502694
v 0.045157 0.918429 0.502694
v 0.047939 0.925805 0.510070
v 0.047939 0.919218 0.510070
v 0.047939 0.925805 0.503483
v 0.047939 0.919218 0.503483
v 0.049299 0.925421 0.510070
v 0.052384 0.919602 0.510070
v 0.049299 0.925421 0.503483
v 0.052384 0.919602 0.503483
v 0.050730 0.927566 0.510070
v 0.055476 0.922999 0.510070
v 0.050730 0.927566 0.503483
v 0.055476 0.922999 0.503483
v 0.051783 0.931105 0.510070
v 0.057742 0.928299 0.510070
v 0.051783 0.931105 0.503483
v 0.057742 0.928299 0.503483
v 0.052177 0.934818 0.510070
v 0.058764 0.934819 0.510070
v 0.052177 0.934818 0.503483
v 0.058764 0.934819 0.503483
v 0.051278 0.937953 0.510968
v 0.059662 0.937954 0.510968
v 0.051278 0.937953 0.502584
v 0.059662 0.937954 0.502584
v 0.050690 0.941263 0.511557
v 0.060250 0.941264 0.511557
v 0.050690 0.941263 0.501996
v 0.060250 0.941264 0.501996
v 0.050278 0.945269 0.511968
v 0.060661 0.945270 0.511968
v 0.050278 0.945269 0.501585
v 0.060661 0.945270 0.501585
v 0.049819 0.949275 0.512427
v 0.061120 0.949276 0.512427
v 0.049819 0.949275 0.501126
v 0.061120 0.949276 0.501126
v 0.049325 0.957635 0.512920
v 0.061612 0.957636 0.512920
v 0.049325 0.957635 0.500632
v 0.061612 0.957636 0.500632
v -0.022733 0.000000 0.538669
v -0.022733 1.944259 0.538669
v -0.022733 1.888691 0.089778
v -0.022733 1.893118 0.179557
v -0.022733 1.902938 0.269335
v -0.022733 1.920307 0.359113
v -0.022733 1.936597 0.448891
v -0.022733 0.000000 0.448891
v -0.022733 0.000000 0.359113
v -0.022733 0.000000 0.269335
v -0.022733 0.000000 0.179556
v -0.022733 0.000000 0.089778
v -0.022733 0.835833 0.538669
v -0.022733 1.107039 0.538669
v -0.022733 0.869734 0.538669
v -0.022733 0.903634 0.538669
v -0.022733 0.937535 0.538669
v -0.022733 1.005337 0.538669
v -0.022733 1.039238 0.538669
v -0.022733 1.073139 0.538669
v -0.022733 1.581693 0.323210
v -0.022733 1.573642 0.197083
v -0.022733 1.093285 0.261488
v -0.022733 0.388850 0.261220
vn -0.0000 -0.0000 -1.0000
vn 1.0000 -0.0000 -0.0000
vn -0.0000 -0.9957 0.0922
vn -0.0000 0.9710 -0.2391
vn -0.0000 -0.9986 0.0534
vn -0.0000 0.9834 -0.1816
vn -0.0000 -0.9930 0.1179
vn -0.0000 0.9958 -0.0920
vn -0.0000 -0.9787 0.2055
vn -0.0000 0.9958 0.0920
vn -0.0000 -0.9812 0.1932
vn -0.0000 0.9834 0.1816
vn -0.0000 0.9710 0.2391
vn -0.0000 -0.9992 0.0404
vn -0.0000 -0.0000 1.0000
vn 0.3538 0.3116 -0.8819
vn 0.6393 -0.0000 0.7690
vn 0.3538 0.3116 0.8819
vn 0.6920 -0.0000 0.7219
vn -0.0000 -0.7071 -0.7071
vn 0.1761 -0.6961 -0.6961
vn 0.1761 -0.6961 0.6961
vn -0.0000 -0.7071 0.7071
vn 0.3539 -0.3116 -0.8819
vn 0.5304 -0.4024 -0.7462
vn 0.5908 -0.2631 -0.7627
vn 0.5908 0.2631 -0.7627
vn 0.5304 0.4024 -0.7462
vn 0.5908 0.2631 0.7627
vn 0.5304 0.4024 0.7462
vn 0.3538 -0.3116 0.8819
vn 0.5304 -0.4024 0.7462
vn 0.5908 -0.2631 0.7627
vn 0.3642 0.9313 -0.0000
vn 0.3642 -0.9313 -0.0000
vn -0.0000 0.1573 -0.9876
vn -0.0000 0.2262 -0.9741
vn -0.0000 -0.1645 0.9864
vn -0.0000 -0.1726 -0.9850
vn -0.0000 0.1600 0.9871
vn -0.0000 -0.1324 0.9912
vn -0.0000 -0.1302 -0.9915
vn -0.0000 0.2412 0.9705
vn 0.6920 -0.0000 -0.7219
vn 0.6393 -0.0000 -0.7690
vn 0.1761 0.6961 0.6961
vn -0.0000 0.7071 0.7071
vn -0.0000 0.7071 -0.7071
vn 0.1761 0.6961 -0.6961
vn 0.2781 -0.6792 -0.6792
vn -0.2729 -0.6803 -0.6803
vn -0.2729 -0.6803 0.6803
vn 0.2781 -0.6792 0.6792
vn 0.2781 0.6792 0.6792
vn 0.2781 0.6792 -0.6792
vn -0.2729 0.6803 0.6803
vn -0.3869 0.6520 0.6520
vn -0.3869 0.6520 -0.6520
vn -0.2729 0.6803 -0.6803
vn -0.3870 -0.6520 0.6520
vn -0.1183 -0.7021 0.7021
vn -0.1183 0.7021 0.7021
vn -0.3870 -0.6520 -0.6520
vn 0.2075 0.6917 0.6917
vn 0.2075 0.6917 -0.6917
vn -0.1183 0.7021 -0.7021
vn -0.1183 -0.7021 -0.7021
vn 0.2076 -0.6917 -0.6917
vn 0.6413 -0.5425 -0.5425
vn 0.6413 -0.5425 0.5425
vn 0.2076 -0.6917 0.6917
vn 0.6413 0.5425 0.5425
vn 0.7776 0.4446 0.4446
vn 0.7776 0.4446 -0.4446
vn 0.6413 0.5425 -0.5425
vn 0.2373 0.6952 -0.6785
vn 0.3033 -0.6963 -0.6505
vn 0.7776 -0.4446 -0.4446
vn 0.7776 -0.4446 0.4446
vn -0.1734 -0.4692 -0.8659
vn -0.1734 -0.4692 0.8659
vn 0.3033 -0.6963 0.6505
vn 0.2373 0.6952 0.6785
vn 0.3430 0.6936 0.6335
vn 0.6234 0.4006 0.6715
vn 0.6234 0.4006 -0.6715
vn 0.3430 0.6936 -0.6335
vn -0.6067 -0.2847 -0.7422
vn -0.6719 -0.1345 -0.7283
vn -0.6719 -0.1345 0.7283
vn -0.6067 -0.2847 0.7422
vn -0.6844 0.1743 -0.7080
vn -0.6844 0.1743 0.7080
vn 0.7045 0.2024 0.6802
vn 0.7045 0.2024 -0.6802
vn 0.6963 0.2636 0.6676
vn 0.6742 0.3015 0.6742
vn 0.6742 0.3015 -0.6742
vn 0.6963 0.2636 -0.6676
vn -0.6741 0.3017 -0.6742
vn -0.6942 0.1898 -0.6943
vn -0.6942 0.1898 0.6943
vn -0.6741 0.3017 0.6742
vn -0.6988 0.1525 0.6988
vn 0.6989 0.1523 0.6988
vn 0.6943 0.1896 0.6943
vn 0.6943 0.1896 -0.6943
vn 0.7020 0.1196 0.7020
vn 0.7020 0.1196 -0.7020
vn 0.6989 0.1523 -0.6988
vn -0.6988 0.1525 -0.6988
vn -0.7020 0.1197 -0.7020
vn -0.7050 0.0768 -0.7050
vn -0.7050 0.0768 0.7050
vn -0.7020 0.1197 0.7020
vn 0.7050 0.0766 0.7050
vn 0.7071 -0.0000 0.7071
vn 0.7071 -0.0000 -0.7071
vn 0.7050 0.0766 -0.7050
vn -0.7071 -0.0000 -0.7071
vn -0.7071 -0.0000 0.7071
vn -0.3869 -0.6520 -0.6520
vn -0.3869 -0.6520 0.6520
vn 0.2075 -0.6917 -0.6917
vn 0.2075 -0.6917 0.6917
vn 0.2076 0.6917 -0.6917
vn 0.2076 0.6917 0.6917
vn 0.3033 0.6963 -0.6505
vn 0.2373 -0.6952 -0.6785
vn 0.3033 0.6963 0.6505
vn -0.1733 0.4692 0.8659
vn -0.1733 0.4692 -0.8659
vn 0.2373 -0.6952 0.6785
vn 0.3430 -0.6936 0.6335
vn 0.3430 -0.6936 -0.6335
vn 0.6234 -0.4006 -0.6715
vn 0.6234 -0.4006 0.6715
vn -0.6067 0.2847 -0.7422
vn -0.6067 0.2847 0.7422
vn -0.6719 0.1345 0.7283
vn -0.6719 0.1345 -0.7283
vn -0.6844 -0.1743 0.7080
vn -0.6844 -0.1743 -0.7080
vn 0.7045 -0.2024 0.6802
vn 0.7045 -0.2024 -0.6802
vn 0.6963 -0.2636 0.6676
vn 0.6963 -0.2636 -0.6676
vn 0.6742 -0.3015 -0.6742
vn 0.6742 -0.3015 0.6742
vn -0.6741 -0.3017 -0.6742
vn -0.6741 -0.3017 0.6742
vn -0.6942 -0.1898 0.6943
vn -0.6942 -0.1898 -0.6943
vn 0.6943 -0.1896 0.6943
vn 0.6989 -0.1523 0.6988
vn -0.6988 -0.1525 0.6988
vn 0.6943 -0.1896 -0.6943
vn 0.6989 -0.1523 -0.6988
vn 0.7020 -0.1196 -0.7020
vn 0.7020 -0.1196 0.7020
vn -0.6988 -0.1525 -0.6988
vn -0.7020 -0.1197 -0.7020
vn -0.7020 -0.1197 0.7020
vn -0.7050 -0.0768 0.7050
vn -0.7050 -0.0768 -0.7050
vn 0.7050 -0.0766 0.7050
vn 0.7050 -0.0766 -0.7050
vn -0.0000 -1.0000 -0.0000
vn -0.0000 0.9964 -0.0850
vn -0.0000 0.9988 -0.0493
vn -0.0000 0.9941 -0.1087
vn -0.0000 0.9818 -0.1899
vn -0.0000 0.9839 -0.1785
vn -0.0000 0.9993 -0.0373
vn -1.0000 -0.0000 -0.0000
vt 0.402743 0.778839
vt 0.402824 0.762331
vt 0.387473 0.762203
vt 0.387597 0.779039
vt 0.356498 0.762463
vt 0.356958 0.779522
vt 0.719970 0.793297
vt 0.730721 0.781379
vt 0.432413 0.763532
vt 0.431997 0.778289
vt 0.340841 0.762744
vt 0.341594 0.779902
vt 0.326254 0.780435
vt 0.325025 0.763232
vt 0.309005 0.764079
vt 0.311033 0.781212
vt 0.417897 0.762732
vt 0.417615 0.778622
vt 0.358398 0.764871
vt 0.333623 0.789004
vt 0.026314 0.809010
vt 0.052151 0.775252
vt 0.031052 0.945272
vt 0.029542 0.972874
vt 0.086412 0.941386
vt 0.081515 0.916654
vt 0.102617 0.804859
vt 0.363637 0.790764
vt 0.032127 0.909726
vt 0.083881 0.894510
vt 0.050175 0.802481
vt 0.042248 0.836950
vt 0.090928 0.850317
vt 0.094360 0.827382
vt 0.367351 0.972874
vt 0.372065 0.947238
vt 0.746900 0.834389
vt 0.750305 0.812358
vt 0.704848 0.831811
vt 0.711314 0.849615
vt 0.036564 0.873385
vt 0.087962 0.872566
vt 0.747640 0.951018
vt 0.746029 0.928626
vt 0.712249 0.912622
vt 0.705002 0.929390
vt 0.745592 0.904362
vt 0.715744 0.896265
vt 0.745214 0.881828
vt 0.717486 0.882106
vt 0.745778 0.858556
vt 0.715359 0.866224
vt 0.091710 0.936832
vt 0.086775 0.916480
vt 0.371319 0.943426
vt 0.197140 0.940081
vt 0.707839 0.911569
vt 0.702130 0.926251
vt 0.096715 0.850910
vt 0.100656 0.828537
vt 0.711951 0.895724
vt 0.093635 0.872938
vt 0.713222 0.883723
vt 0.089418 0.895062
vt 0.093635 0.872943
vt 0.711316 0.866749
vt 0.713218 0.883720
vt 0.707340 0.850424
vt 0.701296 0.835039
vt 0.106759 0.808778
vt 0.197769 0.803189
vt 0.363034 0.794665
vt 0.537378 0.937098
vt 0.460758 0.941541
vt 0.460279 0.945220
vt 0.383245 0.944470
vt 0.384680 0.938379
vt 0.466582 0.969211
vt 0.417641 0.806870
vt 0.418606 0.802058
vt 0.397208 0.800858
vt 0.397521 0.805809
vt 0.379405 0.972815
vt 0.452621 0.795308
vt 0.452678 0.799073
vt 0.529211 0.809691
vt 0.424168 0.766332
vt 0.396706 0.764731
vt 0.375018 0.793297
vt 0.376656 0.799356
vt 0.461413 0.770945
vt 0.533676 0.683119
vt 0.527388 0.675215
vt 0.507285 0.674634
vt 0.501460 0.683557
vt 0.370718 0.764680
vt 0.449329 0.943036
vt 0.455091 0.970048
vt 0.918839 0.879801
vt 0.918691 0.879783
vt 0.918858 0.879868
vt 0.918897 0.879844
vt 0.443137 0.970863
vt 0.438217 0.963536
vt 0.433203 0.963748
vt 0.430601 0.971494
vt 0.447548 0.937190
vt 0.437050 0.933363
vt 0.438010 0.938641
vt 0.426699 0.931112
vt 0.427279 0.936080
vt 0.394544 0.939457
vt 0.396226 0.960727
vt 0.401314 0.960662
vt 0.405357 0.936440
vt 0.391733 0.972716
vt 0.405730 0.931276
vt 0.395201 0.934004
vt 0.383405 0.764605
vt 0.386428 0.798047
vt 0.387254 0.803425
vt 0.449565 0.769345
vt 0.441304 0.796679
vt 0.437241 0.767792
vt 0.429524 0.800252
vt 0.438882 0.802417
vt 0.428000 0.805434
vt 0.461365 0.704310
vt 0.474112 0.696764
vt 0.468023 0.620096
vt 0.449049 0.620381
vt 0.487687 0.688918
vt 0.482203 0.619899
vt 0.496074 0.619713
vt 0.503479 0.619619
vt 0.505692 0.564474
vt 0.499604 0.555667
vt 0.527888 0.619283
vt 0.525772 0.563445
vt 0.547849 0.687832
vt 0.548928 0.619005
vt 0.535321 0.619188
vt 0.562047 0.694989
vt 0.562696 0.618813
vt 0.575662 0.701851
vt 0.580799 0.618541
vt 0.979611 0.544614
vt 0.736877 0.575533
vt 0.989849 0.610452
vt 0.986360 0.577451
vt 0.028686 0.703960
vt 0.242259 0.677842
vt 0.044813 0.630481
vt 0.036679 0.667591
vt 0.485644 0.550587
vt 0.471774 0.542992
vt 0.531823 0.555416
vt 0.545817 0.550420
vt 0.559728 0.543004
vt 0.573021 0.535903
vt 0.678251 0.525304
vt 0.050674 0.543272
vt 0.246066 0.565992
vt 0.224459 0.505381
vt 0.052356 0.505381
vt 0.458700 0.535672
vt 0.980105 0.688476
vt 0.743087 0.659321
vt 0.684244 0.710725
vt 0.971697 0.720278
vt 0.212641 0.740052
vt 0.045181 0.614808
vt 0.049367 0.578778
vt 0.601562 0.617720
vt 0.737869 0.583838
vt 0.047231 0.622001
vt 0.246469 0.571808
vt 0.986497 0.656490
vt 0.989731 0.624382
vt 0.970786 0.512008
vt 0.025580 0.743662
vt 0.241691 0.668335
vt 0.426972 0.621138
vt 0.988651 0.617805
vt 0.743095 0.654104
vt 0.404517 0.972534
vt 0.766804 0.873376
vt 0.829386 0.868928
vt 0.876642 0.832133
vt 0.872606 0.771935
vt 0.401410 0.964850
vt 0.396294 0.964922
vt 0.432967 0.959643
vt 0.437940 0.959433
vt 0.919249 0.879861
vt 0.919028 0.879835
vt 0.874420 0.980992
vt 0.868704 0.916800
vt 0.918908 0.879759
vt 0.918940 0.879791
vt 0.972707 0.872541
vt 0.912876 0.876854
vt 0.918555 0.879764
vt 0.918400 0.879746
vt 0.918729 0.879827
vt 0.918790 0.879860
vt 0.919502 0.879892
vt 0.918865 0.879756
vt 0.919759 0.879922
vt 0.920175 0.879985
vt 0.918714 0.879763
vt 0.918810 0.879773
vt 0.918616 0.879797
vt 0.918387 0.879808
vt 0.920964 0.880082
vt 0.918186 0.879716
vt 0.922076 0.880234
vt 0.918080 0.879646
vt 0.918467 0.879698
vt 0.917857 0.879673
vt 0.917459 0.879620
vt 0.916974 0.879554
vt 0.917434 0.879673
vt 0.918030 0.879760
vt 0.918872 0.879794
vt 0.916132 0.879479
vt 0.915757 0.879480
vt 0.917500 0.879575
vt 0.913884 0.879274
vt 0.913469 0.879074
vt 0.915321 0.879241
vt 0.915580 0.879338
vt 0.911864 0.878963
vt 0.911827 0.878691
vt 0.913418 0.878988
vt 0.914212 0.879046
vt 0.912869 0.878767
vt 0.911234 0.878643
vt 0.910803 0.878747
vt 0.912448 0.879064
vt 0.910187 0.878709
vt 0.908309 0.878349
vt 0.908165 0.878356
vt 0.910089 0.878505
vt 0.906677 0.878210
vt 0.906519 0.878034
vt 0.909234 0.878393
vt 0.908763 0.878406
vt 0.906185 0.877884
vt 0.904991 0.877799
vt 0.904842 0.877956
vt 0.906341 0.878280
vt 0.904991 0.877930
vt 0.903553 0.877722
vt 0.903342 0.877645
vt 0.904774 0.877848
vt 0.901558 0.877421
vt 0.902213 0.877501
vt 0.903495 0.877661
vt 0.903294 0.877710
vt 0.900907 0.877353
vt 0.900489 0.877290
vt 0.901962 0.877501
vt 0.901733 0.877457
vt 0.900209 0.877230
vt 0.898230 0.876937
vt 0.898078 0.877085
vt 0.899996 0.877213
vt 0.899078 0.877116
vt 0.895437 0.876569
vt 0.895959 0.876726
vt 0.898424 0.876884
vt 0.896261 0.876796
vt 0.896765 0.876738
vt 0.869808 0.901840
vt 0.898463 0.875905
vt 0.891961 0.875418
vt 0.870533 0.894796
vt 0.875379 0.846666
vt 0.843979 0.870289
vt 0.874953 0.853564
vt 0.850549 0.870775
vt 0.856672 0.871447
vt 0.874380 0.860154
vt 0.886988 0.874945
vt 0.874220 0.865369
vt 0.882296 0.874461
vt 0.871383 0.886587
vt 0.860526 0.871827
vt 0.865645 0.872551
vt 0.874714 0.867972
vt 0.872394 0.881440
vt 0.873589 0.879034
vt 0.880420 0.874209
vt 0.879592 0.874099
vt 0.874800 0.877611
vt 0.875487 0.869645
vt 0.869331 0.873072
vt 0.873078 0.873531
vt 0.876506 0.871494
vt 0.876184 0.876091
vt 0.877761 0.875217
vt 0.875965 0.874019
vt 0.878891 0.874062
vt 0.878972 0.874011
vt 0.879745 0.874000
vt 0.879031 0.875168
vt 0.877680 0.872730
vt 0.879379 0.873893
vt 0.879336 0.874504
vt 0.881027 0.874858
vt 0.881014 0.874231
vt 0.881110 0.874973
vt 0.881507 0.874488
vt 0.883630 0.874843
vt 0.883284 0.875064
vt 0.885576 0.875180
vt 0.885279 0.875274
vt 0.882823 0.874661
vt 0.882927 0.875096
vt 0.884881 0.875091
vt 0.884951 0.875237
vt 0.887138 0.875468
vt 0.886916 0.875432
vt 0.886760 0.875411
vt 0.886874 0.875421
vt 0.888647 0.875660
vt 0.888521 0.875663
vt 0.888424 0.875617
vt 0.890138 0.875889
vt 0.890014 0.875848
vt 0.888554 0.875674
vt 0.890375 0.875895
vt 0.891638 0.876049
vt 0.891729 0.876075
vt 0.889969 0.875846
vt 0.891690 0.876078
vt 0.891737 0.876152
vt 0.894170 0.876524
vt 0.893896 0.876427
vt 0.893409 0.876290
vt 0.893669 0.876331
vt 0.044214 0.956712
vt 0.035600 0.966156
vt 0.317813 0.994971
vt 0.318329 0.980740
vt 0.438517 0.978498
vt 0.440174 0.995235
vt 0.723983 0.957466
vt 0.712110 0.946690
vt 0.331898 0.995914
vt 0.332523 0.980361
vt 0.739379 0.930408
vt 0.723285 0.926124
vt 0.745431 0.902554
vt 0.728469 0.900678
vt 0.748707 0.874375
vt 0.731107 0.873504
vt 0.041088 0.940753
vt 0.026523 0.942732
vt 0.750305 0.844852
vt 0.731636 0.845317
vt 0.039706 0.841411
vt 0.021934 0.840190
vt 0.021847 0.868562
vt 0.038206 0.868493
vt 0.747757 0.812091
vt 0.727970 0.816543
vt 0.423402 0.979074
vt 0.424460 0.996107
vt 0.023534 0.894476
vt 0.038876 0.894039
vt 0.408110 0.979503
vt 0.408757 0.996603
vt 0.024988 0.918890
vt 0.039751 0.918440
vt 0.362293 0.980134
vt 0.362079 0.996865
vt 0.393117 0.996865
vt 0.392771 0.979815
vt 0.347245 0.980222
vt 0.346794 0.996535
vt 0.041952 0.819056
vt 0.021383 0.927952
vt 0.027514 0.900162
vt 0.034052 0.872373
vt 0.154966 0.889049
vt 0.333623 0.955741
vt 0.018499 0.955741
vt 0.039414 0.816794
vt 0.040674 0.789004
vt 0.157997 0.850008
vt 0.338800 0.869944
vt 0.037748 0.844583
vt 0.346383 0.789004
vt 0.359143 0.789004
vt 0.371903 0.789004
vt 0.346383 0.955741
vt 0.397423 0.789004
vt 0.410183 0.789004
vt 0.371903 0.955741
vt 0.359143 0.955741
vt 0.422943 0.789004
vt 0.435703 0.789004
vt 0.410183 0.955741
vt 0.397423 0.955741
vt 0.603945 0.869861
vt 0.435703 0.955741
vt 0.422943 0.955741
vt 0.750305 0.927951
vt 0.750305 0.955741
vt 0.750305 0.816794
vt 0.750305 0.844583
vt 0.750305 0.872373
vt 0.750305 0.900162
vt 0.750305 0.789004
s 0
usemtl Material.008
f 9/1/1 19/2/1 20/3/1 10/4/1
f 10/4/1 20/3/1 15/5/1 5/6/1
f 1/7/1 11/8/1 13/9/1 3/10/1
f 5/6/1 15/5/1 16/11/1 6/12/1
f 7/13/1 17/14/1 14/15/1 4/16/1
f 3/10/1 13/9/1 18/17/1 8/18/1
f 6/12/1 16/11/1 17/14/1 7/13/1
f 4/19/1 14/20/1 12/21/1 2/22/1
f 8/18/1 18/17/1 19/2/1 9/1/1
f 27/23/2 22/24/2 31/25/2 35/26/2
f 4/19/2 2/22/2 30/27/2 66/28/2
f 26/29/2 27/23/2 35/26/2 34/30/2
f 23/31/2 24/32/2 33/33/2 32/34/2
f 60/35/2 62/36/2 31/25/2 22/24/2
f 40/37/2 1/38/2 28/39/2 44/40/2
f 24/32/2 25/41/2 120/42/2 33/33/2
f 2/22/2 23/31/2 32/34/2 30/27/2
f 25/41/2 26/29/2 34/30/2 120/42/2
f 21/43/2 36/44/2 41/45/2 29/46/2
f 36/44/2 37/47/2 42/48/2 41/45/2
f 37/47/2 38/49/2 122/50/2 42/48/2
f 38/49/2 39/51/2 43/52/2 122/50/2
f 39/51/2 40/37/2 44/40/2 43/52/2
f 35/26/3 31/25/3 48/53/3 53/54/3
f 62/36/1 64/55/1 114/56/1 48/53/1 31/25/1
f 29/46/4 41/45/4 54/57/4 46/58/4
f 32/34/5 33/33/5 50/59/5 49/60/5
f 41/45/6 42/48/6 55/61/6 54/57/6
f 33/33/7 120/42/7 51/62/7 50/59/7
f 42/48/8 122/50/8 56/63/8 55/61/8
f 120/42/9 34/30/9 52/64/9 51/65/9
f 122/50/10 43/52/10 57/66/10 56/67/10
f 34/30/11 35/26/11 53/54/11 52/64/11
f 43/52/12 44/40/12 58/68/12 57/66/12
f 44/40/13 28/39/13 45/69/13 58/68/13
f 30/27/14 32/34/14 49/60/14 47/70/14
f 66/28/15 30/27/15 47/70/15 113/71/15 68/72/15
f 29/46/1 46/58/1 112/73/1 63/74/1 61/75/1
f 83/76/16 86/77/16 64/55/16 62/36/16
f 21/43/2 29/46/2 61/75/2 59/78/2
f 98/79/17 95/80/17 87/81/17 90/82/17
f 80/83/2 83/76/2 62/36/2 60/35/2
f 28/39/15 65/84/15 67/85/15 111/86/15 45/69/15
f 95/80/2 10/87/2 5/88/2 87/81/2
f 89/89/18 66/28/18 68/72/18 92/90/18
f 1/38/2 3/91/2 65/84/2 28/39/2
f 77/92/19 123/93/19 125/94/19 84/95/19
f 7/96/2 4/19/2 66/28/2 89/89/2
f 59/78/2 61/75/2 72/97/2 69/98/2
s 1
f 131/99/20 139/100/21 137/101/22 129/102/23
s 0
f 70/103/2 136/104/2 135/105/2 71/106/2
f 61/75/24 63/74/24 75/107/24 72/97/24
f 72/97/25 75/107/25 76/108/25 73/109/25
f 73/109/26 76/108/26 77/110/26 74/111/26
f 82/112/2 132/113/2 131/114/2 81/115/2
f 79/116/2 82/112/2 83/76/2 80/83/2
f 81/115/27 84/117/27 85/118/27 82/112/27
f 82/112/28 85/118/28 86/77/28 83/76/28
f 5/88/2 6/119/2 88/120/2 87/81/2
f 6/119/2 7/96/2 89/89/2 88/120/2
f 87/81/29 88/120/29 91/121/29 90/82/29
f 88/120/30 89/89/30 92/90/30 91/121/30
f 3/91/2 8/122/2 93/123/2 65/84/2
f 8/122/2 9/124/2 94/125/2 93/123/2
f 9/124/2 10/87/2 95/80/2 94/125/2
f 65/84/31 93/123/31 96/126/31 67/85/31
f 93/123/32 94/125/32 97/127/32 96/126/32
f 94/125/33 95/80/33 98/79/33 97/127/33
f 64/128/2 86/129/2 102/130/2 104/131/2
f 86/129/2 85/132/2 106/133/2 102/130/2
f 85/132/2 84/95/2 99/134/2 106/133/2
f 99/134/34 127/135/34 126/136/34 90/137/34
f 128/138/2 124/139/2 126/136/2 127/135/2
f 77/92/2 76/140/2 101/141/2 100/142/2
f 76/140/2 75/143/2 103/144/2 101/141/2
f 75/143/2 63/145/2 105/146/2 103/144/2
f 58/147/2 109/148/2 56/149/2 57/150/2
f 53/151/2 108/152/2 51/153/2 52/154/2
f 106/133/2 91/155/2 92/156/2 102/130/2
f 99/134/2 90/137/2 91/155/2 106/133/2
f 98/157/35 124/139/35 128/138/35 100/142/35
f 101/141/2 97/158/2 98/157/2 100/142/2
f 103/144/2 96/159/2 97/158/2 101/141/2
f 105/146/2 67/160/2 96/159/2 103/144/2
f 105/146/2 109/148/2 111/161/2 67/160/2
f 49/162/2 107/163/2 113/164/2 47/165/2
f 102/130/2 92/156/2 68/166/2 104/131/2
f 54/167/2 110/168/2 112/169/2 46/170/2
f 104/131/2 108/152/2 114/171/2 64/128/2
f 51/172/2 107/163/2 49/162/2 50/173/2
f 105/146/36 116/174/36 115/175/36 109/148/36
f 51/172/37 120/176/37 119/177/37 107/163/37
f 110/168/2 54/167/2 55/178/2 56/179/2
f 111/161/2 109/148/2 58/147/2 45/180/2
f 112/169/2 110/168/2 105/146/2 63/145/2
f 113/164/2 107/163/2 104/131/2 68/166/2
f 114/171/2 108/152/2 53/151/2 48/181/2
f 120/176/2 121/182/2 118/183/2 119/177/2
f 122/184/2 115/175/2 116/174/2 117/185/2
f 104/131/38 118/183/38 121/182/38 108/152/38
f 107/163/39 119/177/39 118/183/39 104/131/39
f 110/168/40 117/185/40 116/174/40 105/146/40
f 56/179/41 122/184/41 117/185/41 110/168/41
f 109/148/42 115/175/42 122/184/42 56/149/42
f 108/152/43 121/182/43 120/176/43 51/153/43
f 90/137/44 126/136/44 124/139/44 98/157/44
f 127/135/2 125/94/2 123/93/2 128/138/2
f 100/142/35 128/138/35 123/93/35 77/92/35
f 84/95/34 125/94/34 127/135/34 99/134/34
f 74/111/45 77/110/45 84/117/45 81/115/45
f 74/111/2 81/115/2 78/186/2 71/106/2
s 1
f 134/187/20 216/188/21 214/189/22 136/190/23
s 0
f 81/115/2 131/114/2 129/191/2 78/186/2
f 78/186/2 129/191/2 130/192/2 79/116/2
f 79/116/2 130/192/2 132/113/2 82/112/2
f 74/111/2 133/193/2 134/194/2 73/109/2
f 71/106/2 135/105/2 133/193/2 74/111/2
f 69/98/2 72/97/2 73/109/2 70/103/2
f 73/109/2 134/194/2 136/104/2 70/103/2
s 1
f 129/102/23 137/101/22 138/195/46 130/196/47
f 133/197/48 215/198/49 216/188/21 134/187/20
f 130/196/47 138/195/46 140/199/49 132/200/48
f 135/201/47 213/202/46 215/198/49 133/197/48
f 132/200/48 140/199/49 139/100/21 131/99/20
f 136/190/23 214/189/22 213/202/46 135/201/47
s 0
f 22/343/15 286/344/15 298/345/15 60/346/15
f 59/347/15 297/348/15 285/349/15 21/350/15
f 60/346/15 298/345/15 304/351/15 80/352/15
f 21/350/168 285/349/168 292/353/168 36/354/168
f 36/354/168 292/353/168 293/355/168 37/356/168
f 37/356/168 293/355/168 294/357/168 38/358/168
f 27/359/169 291/360/169 286/344/169 22/343/169
f 38/358/168 294/357/168 295/361/168 39/362/168
f 23/363/170 287/364/170 288/365/170 24/366/170
f 39/362/168 295/361/168 296/367/168 40/368/168
f 69/369/15 299/370/15 297/348/15 59/347/15
f 24/366/171 288/365/171 289/371/171 25/372/171
f 70/373/15 300/374/15 299/370/15 69/369/15
f 25/372/172 289/371/172 290/375/172 26/376/172
f 78/377/15 302/378/15 301/379/15 71/380/15
f 71/380/15 301/379/15 300/374/15 70/373/15
f 26/376/173 290/375/173 291/360/173 27/359/173
f 79/381/15 303/382/15 302/378/15 78/377/15
f 40/368/168 296/367/168 11/8/168 1/7/168
f 80/352/15 304/351/15 303/382/15 79/381/15
f 2/383/174 12/21/174 287/364/174 23/363/174
f 291/384/175 290/385/175 289/386/175 305/387/175
f 298/388/175 286/389/175 291/384/175 305/387/175
f 287/390/175 12/391/175 14/20/175 306/392/175
f 289/386/175 306/392/175 307/393/175 305/387/175
f 306/392/175 289/386/175 288/394/175 287/390/175
f 306/392/175 14/20/175 17/395/175 307/393/175
f 17/395/175 16/396/175 15/397/175 307/393/175
f 304/398/175 298/388/175 305/387/175 307/393/175
f 15/397/175 20/399/175 19/400/175 307/393/175
f 302/401/175 303/402/175 304/398/175 307/393/175
f 19/400/175 18/403/175 13/404/175 307/393/175
f 300/405/175 301/406/175 302/401/175 307/393/175
f 13/404/175 308/407/175 297/408/175 307/393/175
f 297/408/175 299/409/175 300/405/175 307/393/175
f 292/410/175 285/411/175 297/408/175 308/407/175
f 296/412/175 295/413/175 294/414/175 308/407/175
f 294/414/175 293/415/175 292/410/175 308/407/175
f 308/407/175 13/404/175 11/416/175 296/412/175
s 1
usemtl Material.008
f 143/203/50 147/204/51 145/205/52 141/206/53
f 139/100/21 143/203/50 141/206/53 137/101/22
f 137/101/22 141/206/53 142/207/54 138/195/46
f 138/195/46 142/207/54 144/208/55 140/199/49
f 140/199/49 144/208/55 143/203/50 139/100/21
f 146/209/56 150/210/57 152/211/58 148/212/59
f 141/206/53 145/205/52 146/209/56 142/207/54
f 142/207/54 146/209/56 148/212/59 144/208/55
f 144/208/55 148/212/59 147/204/51 143/203/50
f 149/213/60 153/214/61 154/215/62 150/210/57
f 148/212/59 152/211/58 151/216/63 147/204/51
f 147/204/51 151/216/63 149/213/60 145/205/52
f 145/205/52 149/213/60 150/210/57 146/209/56
f 154/215/62 158/217/64 160/218/65 156/219/66
f 150/210/57 154/215/62 156/219/66 152/211/58
f 152/211/58 156/219/66 155/220/67 151/216/63
f 151/216/63 155/220/67 153/214/61 149/213/60
f 159/221/68 163/222/69 161/223/70 157/224/71
f 156/219/66 160/218/65 159/221/68 155/220/67
f 155/220/67 159/221/68 157/224/71 153/214/61
f 153/214/61 157/224/71 158/217/64 154/215/62
f 162/225/72 166/226/73 168/227/74 164/228/75
f 157/224/71 161/223/70 162/225/72 158/217/64
f 158/217/64 162/225/72 164/228/75 160/218/65
f 160/218/65 164/228/75 163/222/69 159/221/68
f 168/227/74 172/229/76 171/230/77 167/231/78
f 164/228/75 168/227/74 167/231/78 163/222/69
f 163/222/69 167/231/78 165/232/79 161/223/70
f 161/223/70 165/232/79 166/226/73 162/225/72
f 171/230/77 175/233/80 173/234/81 169/235/82
f 167/231/78 171/230/77 169/235/82 165/232/79
f 165/232/79 169/235/82 170/236/83 166/226/73
f 166/226/73 170/236/83 172/229/76 168/227/74
f 174/237/84 178/238/85 180/239/86 176/240/87
f 169/235/82 173/234/81 174/237/84 170/236/83
f 170/236/83 174/237/84 176/240/87 172/229/76
f 172/229/76 176/240/87 175/233/80 171/230/77
f 179/241/88 183/242/89 181/243/90 177/244/91
f 176/240/87 180/239/86 179/241/88 175/233/80
f 175/233/80 179/241/88 177/244/91 173/234/81
f 173/234/81 177/244/91 178/238/85 174/237/84
f 183/242/89 187/245/92 185/246/93 181/243/90
f 177/244/91 181/243/90 182/247/94 178/238/85
f 178/238/85 182/247/94 184/248/95 180/239/86
f 180/239/86 184/248/95 183/242/89 179/241/88
f 186/249/96 190/250/97 192/251/98 188/252/99
f 181/243/90 185/246/93 186/249/96 182/247/94
f 182/247/94 186/249/96 188/252/99 184/248/95
f 184/248/95 188/252/99 187/245/92 183/242/89
f 191/253/100 195/254/101 193/255/102 189/256/103
f 188/252/99 192/251/98 191/253/100 187/245/92
f 187/245/92 191/253/100 189/256/103 185/246/93
f 185/246/93 189/256/103 190/250/97 186/249/96
f 193/255/102 197/257/104 198/258/105 194/259/106
f 189/256/103 193/255/102 194/259/106 190/250/97
f 190/250/97 194/259/106 196/260/107 192/251/98
f 192/251/98 196/260/107 195/254/101 191/253/100
f 198/258/105 202/261/108 204/262/109 200/263/110
f 194/259/106 198/258/105 200/263/110 196/260/107
f 196/260/107 200/263/110 199/264/111 195/254/101
f 195/254/101 199/264/111 197/257/104 193/255/102
f 203/265/112 207/266/113 205/267/114 201/268/115
f 200/263/110 204/262/109 203/265/112 199/264/111
f 199/264/111 203/265/112 201/268/115 197/257/104
f 197/257/104 201/268/115 202/261/108 198/258/105
f 206/269/116 210/270/117 212/271/118 208/272/119
f 201/268/115 205/267/114 206/269/116 202/261/108
f 202/261/108 206/269/116 208/272/119 204/262/109
f 204/262/109 208/272/119 207/266/113 203/265/112
f 208/272/119 212/271/118 211/273/120 207/266/113
f 207/266/113 211/273/120 209/274/121 205/267/114
f 205/267/114 209/274/121 210/270/117 206/269/116
f 219/275/55 217/276/54 221/277/56 223/278/59
f 215/198/49 213/202/46 217/276/54 219/275/55
f 213/202/46 214/189/22 218/279/53 217/276/54
f 214/189/22 216/188/21 220/280/50 218/279/53
f 216/188/21 215/198/49 219/275/55 220/280/50
f 222/281/52 224/282/51 228/283/122 226/284/123
f 217/276/54 218/279/53 222/281/52 221/277/56
f 218/279/53 220/280/50 224/282/51 222/281/52
f 220/280/50 219/275/55 223/278/59 224/282/51
f 225/285/57 226/284/123 230/286/61 229/287/62
f 224/282/51 223/278/59 227/288/58 228/283/122
f 223/278/59 221/277/56 225/285/57 227/288/58
f 221/277/56 222/281/52 226/284/123 225/285/57
f 230/286/61 232/289/67 236/290/124 234/291/125
f 226/284/123 228/283/122 232/289/67 230/286/61
f 228/283/122 227/288/58 231/292/66 232/289/67
f 227/288/58 225/285/57 229/287/62 231/292/66
f 235/293/126 233/294/127 237/295/72 239/296/75
f 232/289/67 231/292/66 235/293/126 236/290/124
f 231/292/66 229/287/62 233/294/127 235/293/126
f 229/287/62 230/286/61 234/291/125 233/294/127
f 238/297/70 240/298/69 244/299/78 242/300/79
f 233/294/127 234/291/125 238/297/70 237/295/72
f 234/291/125 236/290/124 240/298/69 238/297/70
f 236/290/124 235/293/126 239/296/75 240/298/69
f 244/299/78 243/301/74 247/302/128 248/303/129
f 240/298/69 239/296/75 243/301/74 244/299/78
f 239/296/75 237/295/72 241/304/73 243/301/74
f 237/295/72 238/297/70 242/300/79 241/304/73
f 247/302/128 245/305/130 249/306/131 251/307/132
f 243/301/74 241/304/73 245/305/130 247/302/128
f 241/304/73 242/300/79 246/308/133 245/305/130
f 242/300/79 244/299/78 248/303/129 246/308/133
f 250/309/134 252/310/135 256/311/136 254/312/137
f 245/305/130 246/308/133 250/309/134 249/306/131
f 246/308/133 248/303/129 252/310/135 250/309/134
f 248/303/129 247/302/128 251/307/132 252/310/135
f 255/313/138 253/314/139 257/315/140 259/316/141
f 252/310/135 251/307/132 255/313/138 256/311/136
f 251/307/132 249/306/131 253/314/139 255/313/138
f 249/306/131 250/309/134 254/312/137 253/314/139
f 259/316/141 257/315/140 261/317/142 263/318/143
f 253/314/139 254/312/137 258/319/144 257/315/140
f 254/312/137 256/311/136 260/320/145 258/319/144
f 256/311/136 255/313/138 259/316/141 260/320/145
f 262/321/146 264/322/147 268/323/148 266/324/149
f 257/315/140 258/319/144 262/321/146 261/317/142
f 258/319/144 260/320/145 264/322/147 262/321/146
f 260/320/145 259/316/141 263/318/143 264/322/147
f 267/325/150 265/326/151 269/327/152 271/328/153
f 264/322/147 263/318/143 267/325/150 268/323/148
f 263/318/143 261/317/142 265/326/151 267/325/150
f 261/317/142 262/321/146 266/324/149 265/326/151
f 269/327/152 270/329/154 274/330/155 273/331/156
f 265/326/151 266/324/149 270/329/154 269/327/152
f 266/324/149 268/323/148 272/332/157 270/329/154
f 268/323/148 267/325/150 271/328/153 272/332/157
f 274/330/155 276/333/158 280/334/159 278/335/160
f 270/329/154 272/332/157 276/333/158 274/330/155
f 272/332/157 271/328/153 275/336/161 276/333/158
f 271/328/153 269/327/152 273/331/156 275/336/161
f 279/337/162 277/338/163 281/339/164 283/340/165
f 276/333/158 275/336/161 279/337/162 280/334/159
f 275/336/161 273/331/156 277/338/163 279/337/162
f 273/331/156 274/330/155 278/335/160 277/338/163
f 282/341/166 284/342/167 212/271/118 210/270/117
f 277/338/163 278/335/160 282/341/166 281/339/164
f 278/335/160 280/334/159 284/342/167 282/341/166
f 280/334/159 279/337/162 283/340/165 284/342/167
f 284/342/167 283/340/165 211/273/120 212/271/118
f 283/340/165 281/339/164 209/274/121 211/273/120
f 281/339/164 282/341/166 210/270/117 209/274/121
