# Blender 4.4.0
# www.blender.org
mtllib Wardrobe.mtl
o Wardrobe
v 0.216230 0.134667 0.000000
v -0.190206 0.134667 0.000000
v 0.216230 0.336668 0.000000
v 0.216230 0.202001 0.000000
v -0.190206 0.404002 0.000000
v 0.233064 0.336668 0.000000
v 0.233064 0.404002 0.000000
v 0.233064 0.134667 0.000000
v 0.233064 0.202001 0.000000
v -0.190206 2.348261 0.000000
v 0.233064 2.348261 0.000000
v 0.233064 2.365095 0.000000
v 0.242734 2.348261 0.000000
v 0.242734 2.365095 0.000000
v 0.233064 2.426208 0.000000
v -0.190206 1.346673 0.000000
v -0.223029 0.134508 0.000000
v -0.223029 0.201841 0.000000
v -0.223029 0.336509 0.000000
v -0.223029 0.403842 0.000000
v -0.223029 2.348102 0.000000
v -0.223029 2.364935 0.000000
v -0.223029 2.426048 0.000000
v -0.223029 1.346514 0.000000
v 0.251079 2.446362 0.000000
v -0.241754 2.446202 0.000000
v 0.186383 2.483362 0.000000
v -0.161575 2.483362 0.000000
v 0.200794 2.483362 0.000000
v -0.189675 2.483203 0.000000
v -0.190206 0.718226 0.000000
v -0.190206 1.032449 0.000000
v -0.223029 0.718066 0.000000
v -0.223029 1.032290 0.000000
v -0.190206 1.975118 0.000000
v -0.190206 1.660899 0.000000
v -0.223029 1.974963 0.000000
v -0.223029 1.660899 0.000000
v -0.231117 2.306018 -0.747309
v -0.231117 2.306018 -0.756396
v -0.231117 2.290881 -0.747311
v -0.231117 2.292786 -0.752869
v -0.231117 2.308533 -0.760955
v -0.231117 2.299032 -0.760955
v -0.231117 2.306018 -0.740670
v -0.231117 2.289185 -0.740670
v -0.231117 2.292533 -0.448891
v -0.231117 2.296961 -0.359113
v -0.231117 2.306780 -0.269335
v -0.231117 2.324149 -0.179556
v -0.231117 2.340439 -0.089778
v -0.231117 2.309367 -0.448891
v -0.231117 2.313794 -0.359113
v -0.231117 2.323614 -0.269335
v -0.231117 2.340982 -0.179556
v -0.231117 2.357273 -0.089778
v -0.231117 2.306018 -0.538669
v -0.231117 2.306018 -0.673337
v -0.231117 2.289185 -0.538669
v -0.231117 2.289185 -0.673337
v -0.231117 2.364935 0.000000
v -0.231117 2.348102 0.000000
v 0.216230 0.336668 -0.538669
v 0.216230 0.202001 -0.538669
v -0.190206 0.134667 -0.538669
v 0.216230 0.134667 -0.538669
v -0.190206 0.404002 -0.538669
v 0.233064 0.336668 -0.538669
v 0.233064 0.404002 -0.538669
v 0.233064 0.202001 -0.538669
v 0.233064 0.134667 -0.538669
v -0.190206 1.346673 -0.538669
v 0.233064 1.346673 -0.619213
v 0.233064 0.404002 -0.673337
v 0.233064 0.336668 -0.673337
v 0.233064 0.202001 -0.673337
v 0.233064 0.134667 -0.673337
v -0.190206 2.289344 -0.538669
v 0.233064 2.289344 -0.538669
v 0.233064 1.346673 -0.538669
v 0.233064 2.289344 -0.673337
v 0.242734 2.289344 -0.538669
v 0.242734 2.306178 -0.538669
v 0.242734 2.289344 -0.673337
v 0.242734 2.306178 -0.673337
v 0.242734 2.340599 -0.089778
v 0.242734 2.324308 -0.179556
v 0.242734 2.306940 -0.269335
v 0.242734 2.297120 -0.359113
v 0.242734 2.292693 -0.448891
v 0.233064 2.292693 -0.448891
v 0.233064 2.297120 -0.359113
v 0.233064 2.306940 -0.269335
v 0.233064 2.324309 -0.179556
v 0.233064 2.340599 -0.089778
v 0.242734 2.357432 -0.089778
v 0.242734 2.341142 -0.179556
v 0.242734 2.323773 -0.269335
v 0.242734 2.313954 -0.359113
v 0.242734 2.309526 -0.448891
v -0.190206 2.340599 -0.089778
v -0.190206 2.324308 -0.179556
v -0.190206 2.306940 -0.269335
v -0.190206 2.297120 -0.359113
v -0.190206 2.292693 -0.448891
v -0.190206 0.000000 -0.673337
v -0.190206 0.000000 -0.591983
v 0.200858 0.000000 -0.591983
v 0.200858 0.000000 -0.673337
v 0.216230 0.134667 -0.740670
v -0.190206 0.134667 -0.740670
v 0.233064 0.404002 -0.740670
v 0.233064 0.336668 -0.723837
v 0.233064 0.202001 -0.723837
v 0.233064 0.134667 -0.740670
v 0.216230 2.289344 -0.740670
v -0.190206 2.289344 -0.740670
v 0.233064 2.289344 -0.740670
v 0.242734 2.306178 -0.740670
v 0.242734 2.289344 -0.740670
v 0.216230 0.134667 -0.673337
v 0.233064 1.346673 -0.700628
v 0.216230 2.299192 -0.760955
v -0.190206 2.299192 -0.760955
v 0.233064 2.299192 -0.760955
v 0.216230 2.308692 -0.760955
v -0.190206 2.308692 -0.760955
v 0.233064 2.308692 -0.760955
v 0.242734 2.308692 -0.760955
v 0.242734 2.299192 -0.760955
v 0.233064 2.292945 -0.752869
v 0.233063 2.291040 -0.747311
v 0.242734 2.291040 -0.747312
v 0.242734 2.292945 -0.752869
v 0.216230 2.291040 -0.747312
v 0.216230 2.292945 -0.752869
v -0.190206 2.292945 -0.752869
v -0.190206 2.291040 -0.747311
v 0.242734 2.306178 -0.752869
v 0.242734 2.306178 -0.747309
v 0.233064 2.373581 -0.538669
v 0.233064 2.364594 -0.673337
v 0.233064 2.436519 -0.089778
v 0.233064 2.440899 -0.179556
v 0.233064 2.436112 -0.269335
v 0.233064 2.418205 -0.359113
v 0.233064 2.392208 -0.448891
v 0.233064 2.364596 -0.740670
v 0.216230 2.315193 -0.758788
v -0.190206 2.315193 -0.758788
v 0.233064 2.315193 -0.758788
v 0.216230 2.322056 -0.757705
v -0.190206 2.322056 -0.757705
v 0.233064 2.322056 -0.757705
v 0.216230 2.330363 -0.760955
v -0.190206 2.330363 -0.760955
v 0.233064 2.330363 -0.760955
v 0.216230 2.339031 -0.764928
v -0.190206 2.339031 -0.764928
v 0.233064 2.339031 -0.764928
v 0.216230 2.347699 -0.769623
v -0.190206 2.347699 -0.769623
v 0.233064 2.347699 -0.769623
v 0.216230 2.356367 -0.774680
v -0.190206 2.356367 -0.774680
v 0.233064 2.356367 -0.774680
v 0.216230 2.364596 -0.771475
v -0.190206 2.364596 -0.771475
v 0.233064 2.364596 -0.771475
v 0.233063 2.306178 -0.538669
v 0.233063 2.306178 -0.673337
v 0.233063 2.357432 -0.089778
v 0.233063 2.341142 -0.179556
v 0.233063 2.323773 -0.269335
v 0.233063 2.313954 -0.359113
v 0.233063 2.309526 -0.448891
v 0.233064 2.306178 -0.740670
v 0.233064 2.306178 -0.752869
v 0.233064 2.306178 -0.747309
v 0.233064 2.314095 -0.754356
v 0.233064 2.316607 -0.751628
v 0.233064 2.326290 -0.750152
v 0.233064 2.338330 -0.752869
v 0.233064 2.347014 -0.756778
v 0.233064 2.355820 -0.757729
v 0.233064 2.364596 -0.752871
v 0.233064 2.364596 -0.747309
v -0.223029 0.134508 -0.538669
v -0.223029 0.165453 -0.269380
v -0.223029 0.134508 -0.673337
v -0.223029 0.201841 -0.673337
v -0.223029 0.336509 -0.673337
v -0.223029 1.346511 -0.619213
v -0.223029 0.403842 -0.673337
v -0.223029 2.289185 -0.673337
v -0.223029 2.289185 -0.538669
v -0.223029 2.306018 -0.673337
v -0.223029 2.306018 -0.538669
v -0.223029 2.357273 -0.089778
v -0.223029 2.340982 -0.179556
v -0.223029 2.323614 -0.269335
v -0.223029 2.313794 -0.359113
v -0.223029 2.309367 -0.448891
v -0.223029 2.340439 -0.089778
v -0.223029 2.324149 -0.179556
v -0.223029 2.306780 -0.269335
v -0.223029 2.296961 -0.359113
v -0.223029 2.292533 -0.448891
v -0.223029 0.134508 -0.740670
v -0.223029 0.201841 -0.723837
v -0.223029 0.336509 -0.723837
v -0.223029 0.403842 -0.740670
v -0.223029 2.289185 -0.740670
v -0.223029 2.306018 -0.740670
v -0.223029 1.346514 -0.700628
v -0.223029 2.299032 -0.760955
v -0.223029 2.308533 -0.760955
v -0.223029 2.292786 -0.752869
v -0.223029 2.290881 -0.747311
v -0.223029 2.306018 -0.756396
v -0.223029 2.306018 -0.747309
v -0.223029 2.364434 -0.673337
v -0.223029 2.373422 -0.538669
v -0.223029 2.436360 -0.089778
v -0.223029 2.440740 -0.179556
v -0.223029 2.435953 -0.269335
v -0.223029 2.418045 -0.359113
v -0.223029 2.392048 -0.448891
v -0.223029 2.364437 -0.740670
v -0.223029 2.315034 -0.758788
v -0.223029 2.314361 -0.751928
v -0.223029 2.321896 -0.757705
v -0.223029 2.322710 -0.754053
v -0.223029 2.330203 -0.760955
v -0.223029 2.331053 -0.750013
v -0.223029 2.338871 -0.764928
v -0.223029 2.339402 -0.750016
v -0.223029 2.347539 -0.769623
v -0.223029 2.347745 -0.760474
v -0.223029 2.356207 -0.774680
v -0.223029 2.356088 -0.760739
v -0.223029 2.364437 -0.771475
v -0.223029 2.364437 -0.759573
v -0.223029 2.364437 -0.747309
v -0.223029 2.318985 -0.744929
v -0.223029 2.345180 -0.747309
v -0.223029 2.328034 -0.720837
v -0.223029 2.328342 -0.740670
v -0.223029 2.341353 -0.721505
v -0.223029 2.341395 -0.740670
v 0.251079 2.384748 -0.674507
v 0.251079 2.384750 -0.741841
v 0.251079 2.393735 -0.539840
v 0.251079 2.412362 -0.450062
v 0.251079 2.456673 -0.090949
v 0.251079 2.461053 -0.180727
v 0.251079 2.456266 -0.270506
v 0.251079 2.438358 -0.360284
v 0.232889 2.384750 -0.787745
v -0.206287 2.384750 -0.787745
v 0.251079 2.384750 -0.787745
v -0.241754 2.438199 -0.360284
v -0.241754 2.456107 -0.270506
v -0.241754 2.460893 -0.180727
v -0.241754 2.456514 -0.090949
v -0.241754 2.384591 -0.748480
v -0.241754 2.384591 -0.787745
v -0.241754 2.384591 -0.754042
v 0.251079 2.384750 -0.754042
v 0.251079 2.384750 -0.748480
v -0.241754 2.384591 -0.741841
v -0.241754 2.384588 -0.674507
v -0.241754 2.393575 -0.539840
v -0.241754 2.412202 -0.450062
v -0.161575 2.421751 -0.741841
v -0.161575 2.421749 -0.674507
v 0.200794 2.421749 -0.674507
v 0.200794 2.421751 -0.741841
v -0.161575 2.430736 -0.539840
v 0.186383 2.430736 -0.539840
v 0.200794 2.430736 -0.539840
v 0.186383 2.421749 -0.674507
v 0.186383 2.493674 -0.090949
v -0.161575 2.449363 -0.450062
v 0.200794 2.449363 -0.450062
v 0.186383 2.449363 -0.450062
v 0.186383 2.475359 -0.360284
v 0.186383 2.493267 -0.270506
v 0.186383 2.498054 -0.180727
v -0.161575 2.493674 -0.090949
v -0.161575 2.498054 -0.180727
v -0.161575 2.493267 -0.270506
v -0.161575 2.475359 -0.360284
v 0.200794 2.493674 -0.090949
v 0.200794 2.498054 -0.180727
v 0.200794 2.493267 -0.270506
v 0.200794 2.475359 -0.360284
v 0.186383 2.421749 -0.741841
v 0.186383 2.421751 -0.765618
v -0.161575 2.421751 -0.765618
v 0.200794 2.421751 -0.765618
v -0.161575 2.421751 -0.754042
v -0.161575 2.421751 -0.748480
v -0.189675 2.475200 -0.360284
v -0.189675 2.493108 -0.270506
v -0.189675 2.497894 -0.180727
v -0.189675 2.493515 -0.090949
v -0.189675 2.421592 -0.748480
v -0.189675 2.421592 -0.765618
v -0.189675 2.421592 -0.754042
v 0.200794 2.421751 -0.754042
v 0.200794 2.421751 -0.748480
v 0.186383 2.421749 -0.748480
v 0.186383 2.421749 -0.754042
v -0.189675 2.421592 -0.741841
v -0.189675 2.421589 -0.674507
v -0.189675 2.430576 -0.539840
v -0.189675 2.449203 -0.450062
v 0.233064 1.032449 -0.637254
v 0.233064 0.718226 -0.655295
v -0.190206 1.032449 -0.538669
v -0.190206 0.718226 -0.538669
v 0.233064 1.032449 -0.708823
v 0.233064 0.718226 -0.732475
v 0.233064 0.718226 -0.538669
v 0.233064 1.032449 -0.538669
v -0.223029 0.718065 -0.655295
v -0.223029 1.032288 -0.637254
v -0.223029 0.718066 -0.732475
v -0.223029 1.032290 -0.708823
v 0.233064 1.660897 -0.538669
v 0.233064 1.975121 -0.538669
v 0.233064 1.975120 -0.655295
v 0.233064 1.660897 -0.637254
v -0.190206 1.975118 -0.538669
v -0.190206 1.660899 -0.538669
v 0.233064 1.975120 -0.732475
v 0.233064 1.660897 -0.708823
v -0.170467 2.049984 -0.734431
v 0.145143 2.050050 -0.734430
v -0.223029 1.660899 -0.637254
v -0.223029 1.974960 -0.655295
v -0.223029 1.660737 -0.708823
v -0.223029 1.974961 -0.732475
v -0.190206 2.108271 -0.389905
v -0.190206 2.108271 -0.135563
v -0.190206 1.975118 -0.269335
v -0.190206 2.108479 -0.269335
v -0.223029 1.974963 -0.269335
v -0.190206 2.200827 -0.330726
v -0.223029 1.974963 -0.538669
v 0.233064 2.341808 -0.725588
v 0.233064 2.341582 -0.695838
v 0.233064 2.324462 -0.725588
v 0.233064 2.324240 -0.695364
v 0.233064 2.346182 -0.739508
v 0.233064 2.328989 -0.739508
v -0.190206 0.134667 -0.673337
v 0.216230 0.134667 -0.269335
v 0.216230 0.336668 -0.269335
v -0.190206 0.134667 -0.269335
v 0.216230 0.202001 -0.269335
v -0.190206 0.404002 -0.269335
v 0.233064 0.336668 -0.269335
v 0.233064 0.404002 -0.269335
v 0.233064 0.134667 -0.269335
v 0.233064 0.202001 -0.269335
v -0.223029 0.134508 -0.269335
v -0.190206 1.346673 -0.269335
v -0.190206 0.718226 -0.269335
v -0.190206 1.032449 -0.269335
v -0.190206 2.200827 -0.210455
v -0.190206 2.201006 -0.269335
v -0.190206 1.660899 -0.269335
v -0.223029 2.108507 -0.398057
v -0.223029 2.109782 -0.269335
v -0.223029 2.110897 -0.156803
v -0.223029 2.181844 -0.269335
v -0.223029 2.181844 -0.197047
v -0.223029 2.181844 -0.346141
v -0.231117 2.306018 0.747309
v -0.231117 2.306018 0.756396
v -0.231117 2.290881 0.747311
v -0.231117 2.292786 0.752869
v -0.231117 2.308533 0.760955
v -0.231117 2.299032 0.760955
v -0.231117 2.306018 0.740670
v -0.231117 2.289185 0.740670
v -0.231117 2.292533 0.448891
v -0.231117 2.296961 0.359113
v -0.231117 2.306780 0.269335
v -0.231117 2.324149 0.179556
v -0.231117 2.340439 0.089778
v -0.231117 2.309367 0.448891
v -0.231117 2.313794 0.359113
v -0.231117 2.323614 0.269335
v -0.231117 2.340982 0.179556
v -0.231117 2.357273 0.089778
v -0.231117 2.306018 0.538669
v -0.231117 2.306018 0.673337
v -0.231117 2.289185 0.538669
v -0.231117 2.289185 0.673337
v 0.216230 0.336668 0.538669
v 0.216230 0.202001 0.538669
v -0.190206 0.134667 0.538669
v 0.216230 0.134667 0.538669
v -0.190206 0.404002 0.538669
v 0.233064 0.336668 0.538669
v 0.233064 0.404002 0.538669
v 0.233064 0.202001 0.538669
v 0.233064 0.134667 0.538669
v -0.190206 1.346673 0.538669
v 0.233064 1.346673 0.619213
v 0.233064 0.404002 0.673337
v 0.233064 0.336668 0.673337
v 0.233064 0.202001 0.673337
v 0.233064 0.134667 0.673337
v -0.190206 2.289344 0.538669
v 0.233064 2.289344 0.538669
v 0.233064 1.346673 0.538669
v 0.233064 2.289344 0.673337
v 0.242734 2.289344 0.538669
v 0.242734 2.306178 0.538669
v 0.242734 2.289344 0.673337
v 0.242734 2.306178 0.673337
v 0.242734 2.340599 0.089778
v 0.242734 2.324308 0.179556
v 0.242734 2.306940 0.269335
v 0.242734 2.297120 0.359113
v 0.242734 2.292693 0.448891
v 0.233064 2.292693 0.448891
v 0.233064 2.297120 0.359113
v 0.233064 2.306940 0.269335
v 0.233064 2.324309 0.179556
v 0.233064 2.340599 0.089778
v 0.242734 2.357432 0.089778
v 0.242734 2.341142 0.179556
v 0.242734 2.323773 0.269335
v 0.242734 2.313954 0.359113
v 0.242734 2.309526 0.448891
v -0.190206 2.340599 0.089778
v -0.190206 2.324308 0.179556
v -0.190206 2.306940 0.269335
v -0.190206 2.297120 0.359113
v -0.190206 2.292693 0.448891
v -0.190206 0.000000 0.673337
v -0.190206 0.000000 0.591983
v 0.200858 0.000000 0.591983
v 0.200858 0.000000 0.673337
v 0.216230 0.134667 0.740670
v -0.190206 0.134667 0.740670
v 0.233064 0.404002 0.740670
v 0.233064 0.336668 0.723837
v 0.233064 0.202001 0.723837
v 0.233064 0.134667 0.740670
v 0.216230 2.289344 0.740670
v -0.190206 2.289344 0.740670
v 0.233064 2.289344 0.740670
v 0.242734 2.306178 0.740670
v 0.242734 2.289344 0.740670
v 0.216230 0.134667 0.673337
v 0.233064 1.346673 0.700628
v 0.216230 2.299192 0.760955
v -0.190206 2.299192 0.760955
v 0.233064 2.299192 0.760955
v 0.216230 2.308692 0.760955
v -0.190206 2.308692 0.760955
v 0.233064 2.308692 0.760955
v 0.242734 2.308692 0.760955
v 0.242734 2.299192 0.760955
v 0.233064 2.292945 0.752869
v 0.233063 2.291040 0.747311
v 0.242734 2.291040 0.747312
v 0.242734 2.292945 0.752869
v 0.216230 2.291040 0.747312
v 0.216230 2.292945 0.752869
v -0.190206 2.292945 0.752869
v -0.190206 2.291040 0.747311
v 0.242734 2.306178 0.752869
v 0.242734 2.306178 0.747309
v 0.233064 2.373581 0.538669
v 0.233064 2.364594 0.673337
v 0.233064 2.436519 0.089778
v 0.233064 2.440899 0.179556
v 0.233064 2.436112 0.269335
v 0.233064 2.418205 0.359113
v 0.233064 2.392208 0.448891
v 0.233064 2.364596 0.740670
v 0.216230 2.315193 0.758788
v -0.190206 2.315193 0.758788
v 0.233064 2.315193 0.758788
v 0.216230 2.322056 0.757705
v -0.190206 2.322056 0.757705
v 0.233064 2.322056 0.757705
v 0.216230 2.330363 0.760955
v -0.190206 2.330363 0.760955
v 0.233064 2.330363 0.760955
v 0.216230 2.339031 0.764928
v -0.190206 2.339031 0.764928
v 0.233064 2.339031 0.764928
v 0.216230 2.347699 0.769623
v -0.190206 2.347699 0.769623
v 0.233064 2.347699 0.769623
v 0.216230 2.356367 0.774680
v -0.190206 2.356367 0.774680
v 0.233064 2.356367 0.774680
v 0.216230 2.364596 0.771475
v -0.190206 2.364596 0.771475
v 0.233064 2.364596 0.771475
v 0.233063 2.306178 0.538669
v 0.233063 2.306178 0.673337
v 0.233063 2.357432 0.089778
v 0.233063 2.341142 0.179556
v 0.233063 2.323773 0.269335
v 0.233063 2.313954 0.359113
v 0.233063 2.309526 0.448891
v 0.233064 2.306178 0.740670
v 0.233064 2.306178 0.752869
v 0.233064 2.306178 0.747309
v 0.233064 2.314095 0.754356
v 0.233064 2.316607 0.751628
v 0.233064 2.326290 0.750152
v 0.233064 2.338330 0.752869
v 0.233064 2.347014 0.756778
v 0.233064 2.355820 0.757729
v 0.233064 2.364596 0.752871
v 0.233064 2.364596 0.747309
v -0.223029 0.134508 0.538669
v -0.223029 0.166921 -0.545315
v -0.223029 0.134508 0.673337
v -0.223029 0.201841 0.673337
v -0.223029 0.336509 0.673337
v -0.223029 1.346511 0.619213
v -0.223029 0.403842 0.673337
v -0.223029 2.289185 0.673337
v -0.223029 2.289185 0.538669
v -0.223029 2.306018 0.673337
v -0.223029 2.306018 0.538669
v -0.223029 2.357273 0.089778
v -0.223029 2.340982 0.179556
v -0.223029 2.323614 0.269335
v -0.223029 2.313794 0.359113
v -0.223029 2.309367 0.448891
v -0.223029 2.340439 0.089778
v -0.223029 2.324149 0.179556
v -0.223029 2.306780 0.269335
v -0.223029 2.296961 0.359113
v -0.223029 2.292533 0.448891
v -0.223029 0.134508 0.740670
v -0.223029 0.201841 0.723837
v -0.223029 0.336509 0.723837
v -0.223029 0.403842 0.740670
v -0.223029 2.289185 0.740670
v -0.223029 2.306018 0.740670
v -0.223029 1.346514 0.700628
v -0.223029 2.299032 0.760955
v -0.223029 2.308533 0.760955
v -0.223029 2.292786 0.752869
v -0.223029 2.290881 0.747311
v -0.223029 2.306018 0.756396
v -0.223029 2.306018 0.747309
v -0.223029 2.364434 0.673337
v -0.223029 2.373422 0.538669
v -0.223029 2.436360 0.089778
v -0.223029 2.440740 0.179556
v -0.223029 2.435953 0.269335
v -0.223029 2.418045 0.359113
v -0.223029 2.392048 0.448891
v -0.223029 2.364437 0.740670
v -0.223029 2.315034 0.758788
v -0.223029 2.314361 0.751928
v -0.223029 2.321896 0.757705
v -0.223029 2.322710 0.754053
v -0.223029 2.330203 0.760955
v -0.223029 2.331053 0.750013
v -0.223029 2.338871 0.764928
v -0.223029 2.339402 0.750016
v -0.223029 2.347539 0.769623
v -0.223029 2.347745 0.760474
v -0.223029 2.356207 0.774680
v -0.223029 2.356088 0.760739
v -0.223029 2.364437 0.771475
v -0.223029 2.364437 0.759573
v -0.223029 2.364437 0.747309
v -0.223029 2.318985 0.744929
v -0.223029 2.345180 0.747309
v -0.223029 2.328034 0.720837
v -0.223029 2.328342 0.740670
v -0.223029 2.341353 0.721505
v -0.223029 2.341395 0.740670
v 0.251079 2.384748 0.674507
v 0.251079 2.384750 0.741841
v 0.251079 2.393735 0.539840
v 0.251079 2.412362 0.450062
v 0.251079 2.456673 0.090949
v 0.251079 2.461053 0.180727
v 0.251079 2.456266 0.270506
v 0.251079 2.438358 0.360284
v 0.232889 2.384750 0.787745
v -0.206287 2.384750 0.787745
v 0.251079 2.384750 0.787745
v -0.241754 2.438199 0.360284
v -0.241754 2.456107 0.270506
v -0.241754 2.460893 0.180727
v -0.241754 2.456514 0.090949
v -0.241754 2.384591 0.748480
v -0.241754 2.384591 0.787745
v -0.241754 2.384591 0.754042
v 0.251079 2.384750 0.754042
v 0.251079 2.384750 0.748480
v -0.241754 2.384591 0.741841
v -0.241754 2.384588 0.674507
v -0.241754 2.393575 0.539840
v -0.241754 2.412202 0.450062
v -0.161575 2.421751 0.741841
v -0.161575 2.421749 0.674507
v 0.200794 2.421749 0.674507
v 0.200794 2.421751 0.741841
v -0.161575 2.430736 0.539840
v 0.186383 2.430736 0.539840
v 0.200794 2.430736 0.539840
v 0.186383 2.421749 0.674507
v 0.186383 2.493674 0.090949
v -0.161575 2.449363 0.450062
v 0.200794 2.449363 0.450062
v 0.186383 2.449363 0.450062
v 0.186383 2.475359 0.360284
v 0.186383 2.493267 0.270506
v 0.186383 2.498054 0.180727
v -0.161575 2.493674 0.090949
v -0.161575 2.498054 0.180727
v -0.161575 2.493267 0.270506
v -0.161575 2.475359 0.360284
v 0.200794 2.493674 0.090949
v 0.200794 2.498054 0.180727
v 0.200794 2.493267 0.270506
v 0.200794 2.475359 0.360284
v 0.186383 2.421749 0.741841
v 0.186383 2.421751 0.765618
v -0.161575 2.421751 0.765618
v 0.200794 2.421751 0.765618
v -0.161575 2.421751 0.754042
v -0.161575 2.421751 0.748480
v -0.189675 2.475200 0.360284
v -0.189675 2.493108 0.270506
v -0.189675 2.497894 0.180727
v -0.189675 2.493515 0.090949
v -0.189675 2.421592 0.748480
v -0.189675 2.421592 0.765618
v -0.189675 2.421592 0.754042
v 0.200794 2.421751 0.754042
v 0.200794 2.421751 0.748480
v 0.186383 2.421749 0.748480
v 0.186383 2.421749 0.754042
v -0.189675 2.421592 0.741841
v -0.189675 2.421589 0.674507
v -0.189675 2.430576 0.539840
v -0.189675 2.449203 0.450062
v 0.233064 1.032449 0.637254
v 0.233064 0.718226 0.655295
v -0.190206 1.032449 0.538669
v -0.190206 0.718226 0.538669
v 0.233064 1.032449 0.708823
v 0.233064 0.718226 0.732475
v 0.233064 0.718226 0.538669
v 0.233064 1.032449 0.538669
v -0.223029 0.718065 0.655295
v -0.223029 1.032288 0.637254
v -0.223029 0.718066 0.732475
v -0.223029 1.032290 0.708823
v 0.233064 1.660897 0.538669
v 0.233064 1.975121 0.538669
v 0.207090 0.167657 0.732423
v -0.190505 0.164644 0.733139
v 0.233064 1.975120 0.655295
v 0.233064 1.660897 0.637254
v -0.190206 1.975118 0.538669
v -0.190206 1.660899 0.538669
v 0.233064 1.975120 0.732475
v 0.233064 1.660897 0.708823
v 0.194213 2.065435 0.734831
v -0.169385 2.065969 0.734848
v -0.223029 1.660899 0.637254
v -0.223029 1.974960 0.655295
v -0.223029 1.660737 0.708823
v -0.223029 1.974961 0.732475
v -0.190206 2.108271 0.389905
v -0.190206 2.108271 0.135563
v -0.190206 1.975118 0.269335
v -0.190206 2.108479 0.269335
v -0.223029 1.974963 0.269335
v -0.190206 2.200827 0.330726
v -0.223029 1.974963 0.538669
v 0.233064 2.341808 0.725588
v 0.233064 2.341582 0.695838
v 0.233064 2.324462 0.725588
v 0.233064 2.324240 0.695364
v 0.233064 2.346182 0.739508
v 0.233064 2.328989 0.739508
v -0.190206 0.134667 0.673337
v 0.216230 0.134667 0.269335
v 0.216230 0.336668 0.269335
v -0.190206 0.134667 0.269335
v 0.216230 0.202001 0.269335
v -0.190206 0.404002 0.269335
v 0.233064 0.336668 0.269335
v 0.233064 0.404002 0.269335
v 0.233064 0.134667 0.269335
v 0.233064 0.202001 0.269335
v -0.223029 0.134508 0.269335
v -0.223029 0.161355 0.544266
v -0.223029 0.165954 0.270520
v -0.190206 1.346673 0.269335
v -0.223029 1.808046 0.533105
v -0.223029 1.804813 0.281921
v -0.190206 0.718226 0.269335
v -0.190206 1.032449 0.269335
v -0.223029 1.802154 -0.288566
v -0.223029 1.798906 -0.515936
v -0.190206 2.200827 0.210455
v -0.190206 2.201006 0.269335
v -0.190206 1.660899 0.269335
v -0.223029 2.108507 0.398057
v -0.223029 2.109782 0.269335
v -0.223029 2.110897 0.156803
v -0.223029 2.181844 0.269335
v -0.223029 2.181844 0.197047
v -0.223029 2.181844 0.346141
v 0.213089 0.170114 -0.731807
v -0.200243 0.167445 -0.732456
v 0.088600 0.404002 0.000000
v 0.087901 0.404002 -0.269335
v 0.088039 0.404002 0.269335
vn -0.0000 -0.9998 0.0186
vn -0.0000 -0.9991 0.0433
vn -0.7058 -0.7078 0.0307
vn -0.7029 -0.7111 0.0133
vn -0.6550 0.7317 0.1884
vn -0.3778 0.4026 -0.8337
vn -0.5554 0.7161 -0.4228
vn -0.7678 0.6205 0.1598
vn -0.7179 -0.6901 0.0918
vn -0.7267 -0.6869 -0.0000
vn -0.6885 0.7253 -0.0000
vn -0.6966 0.7111 -0.0947
vn -0.7005 -0.7115 0.0564
vn -0.7139 0.6981 -0.0553
vn -0.7085 0.7051 -0.0305
vn -0.6980 -0.7081 0.1070
vn -0.7165 0.6898 -0.1043
vn -0.7084 -0.6937 0.1300
vn -0.7058 0.6963 -0.1305
vn -0.7113 0.7027 -0.0131
vn -0.7071 0.7071 -0.0000
vn -0.6722 -0.6519 -0.3510
vn -0.6982 -0.6860 -0.2048
vn -0.6801 -0.7274 -0.0914
vn -0.6200 -0.3459 -0.7042
vn 0.0016 -0.9861 -0.1661
vn -0.0000 -1.0000 -0.0000
vn -0.7071 -0.7071 -0.0000
vn -0.7029 0.7111 -0.0133
vn 0.0011 -0.4414 -0.8973
vn -0.6980 0.7081 -0.1070
vn -0.7005 0.7115 -0.0564
vn -0.0000 -0.9913 0.1319
vn -0.7058 0.7078 -0.0307
vn 0.0023 -0.9582 -0.2860
vn -0.0000 -0.9829 0.1842
vn 1.0000 -0.0000 -0.0000
vn -0.0000 -0.9861 -0.1661
vn 0.6801 -0.7274 -0.0914
vn 0.7071 -0.7071 -0.0000
vn 0.7071 0.7071 -0.0000
vn -0.0000 -0.9997 0.0249
vn -0.0000 -0.9993 0.0373
vn 0.6966 0.7111 -0.0947
vn 0.6885 0.7253 -0.0000
vn 0.7267 -0.6869 -0.0000
vn 0.7179 -0.6901 0.0918
vn 0.7113 0.7027 -0.0131
vn 0.7029 -0.7111 0.0133
vn -0.0000 -0.9969 0.0790
vn -0.0000 -0.9888 0.1495
vn -0.0000 -0.0000 1.0000
vn 0.7058 -0.7078 0.0307
vn 0.7005 -0.7115 0.0564
vn 0.6980 -0.7081 0.1070
vn 0.7084 -0.6937 0.1300
vn 0.7085 0.7051 -0.0305
vn 0.7139 0.6981 -0.0553
vn 0.7165 0.6898 -0.1043
vn 0.7058 0.6963 -0.1305
vn -0.0000 -0.3681 0.9298
vn -0.0000 -0.0751 -0.9972
vn -0.0000 -0.0000 -1.0000
vn -0.0001 0.2425 -0.9701
vn 0.0001 -0.2425 -0.9701
vn 0.0021 -0.8804 -0.4743
vn 0.0011 -0.4403 -0.8979
vn -0.0000 -0.4408 -0.8976
vn -0.0000 -0.8804 -0.4742
vn 0.6200 -0.3459 -0.7042
vn 0.6722 -0.6519 -0.3511
vn -0.0000 0.0261 -0.9997
vn -0.0000 1.0000 -0.0000
vn -0.0000 0.1602 -0.9871
vn 0.3182 0.4098 -0.8549
vn 0.5631 0.6655 -0.4899
vn -0.0004 0.1604 -0.9870
vn 0.7425 0.6622 0.1006
vn 0.6982 -0.6860 -0.2048
vn -0.0000 -0.9689 -0.2474
vn -0.0000 -0.9582 -0.2861
vn 0.0024 -0.9689 -0.2474
vn 0.0023 -0.9582 -0.2861
vn 0.9393 -0.3401 0.0456
vn 0.9974 0.0724 -0.0065
vn 0.9961 0.0863 -0.0174
vn 0.9359 -0.3423 0.0837
vn 0.9287 -0.3679 0.0472
vn 0.9904 0.1369 -0.0205
vn 0.9919 0.1270 0.0003
vn 0.9303 -0.3667 0.0003
vn 0.9931 0.1170 0.0110
vn 0.9311 -0.3634 -0.0304
vn -0.9259 -0.3667 0.0909
vn -0.9921 0.1211 -0.0339
vn -0.9963 0.0847 -0.0170
vn -0.9325 -0.3509 0.0859
vn 0.9988 0.0494 -0.0000
vn 0.9424 -0.3343 -0.0000
vn -0.9249 -0.3770 0.0483
vn -0.9905 0.1362 -0.0204
vn 0.5774 0.5774 0.5774
vn -0.0000 0.7071 0.7071
vn -0.0000 -0.7071 0.7071
vn 0.5774 -0.5774 0.5774
vn -0.9267 -0.3758 0.0003
vn -0.9920 0.1261 0.0003
vn 0.9342 -0.3567 -0.0000
vn 0.9946 0.1033 -0.0000
vn -0.0006 0.2368 -0.9716
vn -0.0000 0.2369 -0.9715
vn 0.7261 0.1629 -0.6680
vn -0.0000 -0.1080 -0.9942
vn 0.7710 -0.0688 -0.6331
vn 0.0003 -0.1084 -0.9941
vn -0.0000 -0.3907 -0.9205
vn 0.7135 -0.2737 -0.6449
vn 0.0009 -0.3907 -0.9205
vn 0.0011 -0.4468 -0.8947
vn -0.0000 -0.4467 -0.8947
vn 0.7147 -0.3125 -0.6258
vn 0.0012 -0.4902 -0.8716
vn -0.0000 -0.4901 -0.8716
vn 0.7107 -0.3448 -0.6132
vn 0.0002 -0.0776 -0.9970
vn -0.0000 -0.0783 -0.9969
vn 0.6211 -0.0614 -0.7813
vn -0.0000 -0.1533 -0.9882
vn 0.6742 -0.4229 -0.6055
vn -0.0000 -0.1538 -0.9881
vn -0.7709 -0.0683 -0.6333
vn -0.7129 -0.2739 -0.6456
vn -0.7139 -0.3127 -0.6265
vn 0.0021 -0.8805 -0.4740
vn 0.9369 -0.3495 0.0118
vn 0.9961 0.0882 -0.0029
vn -0.9275 -0.3725 -0.0311
vn -0.9932 0.1160 0.0109
vn 0.7402 0.0316 -0.6717
vn -0.9394 -0.3429 -0.0000
vn -0.9989 0.0473 -0.0000
vn -0.7266 0.1629 -0.6675
vn -0.0000 -0.0700 -0.9975
vn -0.6210 -0.0624 -0.7814
vn -0.6673 -0.4286 -0.6091
vn -0.9975 0.0706 -0.0062
vn -0.9361 -0.3487 0.0467
vn -0.7098 -0.3452 -0.6140
vn -0.9308 -0.3657 -0.0000
vn -0.9948 0.1020 -0.0000
vn -0.9308 -0.3656 -0.0000
vn -0.0000 -0.0675 -0.9977
vn 0.6748 0.7296 0.1108
vn 0.7058 0.7078 -0.0307
vn 0.7005 0.7115 -0.0564
vn 0.7084 0.6937 -0.1300
vn 0.7179 0.6901 -0.0918
vn 0.6980 0.7081 -0.1070
vn 0.7029 0.7111 -0.0133
vn 0.7267 0.6869 -0.0000
vn 0.9295 -0.3579 0.0888
vn -0.9962 0.0866 -0.0028
vn -0.9335 -0.3584 0.0121
vn -0.7428 0.0319 -0.6688
vn 0.9919 0.1221 -0.0341
vn -1.0000 -0.0000 -0.0000
vn -0.7084 0.6937 -0.1300
vn -0.7179 0.6901 -0.0918
vn -0.7267 0.6869 -0.0000
vn 0.0049 -1.0000 -0.0000
vn 0.3032 0.9261 -0.2244
vn 0.3061 0.9447 -0.1174
vn 0.3138 0.9406 -0.1299
vn 0.3071 0.9233 -0.2307
vn 0.3089 0.9511 -0.0021
vn -0.3067 0.9518 -0.0000
vn -0.2239 0.8789 -0.4212
vn -0.0020 0.8702 -0.4926
vn 0.3093 0.9479 0.0764
vn 0.3187 0.9478 -0.0000
vn -0.2981 0.9277 -0.2248
vn -0.3018 0.9249 -0.2311
vn 0.3137 0.9490 -0.0318
vn -0.3011 0.9463 -0.1176
vn -0.3039 0.9527 -0.0021
vn -0.3042 0.9495 0.0765
vn -0.3132 0.9497 -0.0000
vn -0.3083 0.9423 -0.1301
vn 0.3118 0.9501 -0.0000
vn -0.3084 0.9507 -0.0318
vn -0.0000 0.8699 -0.4933
vn 0.2282 0.8781 -0.4206
vn -0.0000 0.9908 -0.1352
vn -0.0000 0.9994 -0.0333
vn -0.0028 0.9994 -0.0333
vn -0.0028 0.9908 -0.1352
vn -0.0028 0.9967 0.0807
vn -0.0028 1.0000 -0.0000
vn -0.0000 0.9967 0.0807
vn -0.0000 0.9706 -0.2408
vn -0.0000 0.9715 -0.2371
vn -0.0000 0.9922 -0.1248
vn -0.0000 1.0000 -0.0023
vn -0.0028 0.9706 -0.2408
vn -0.0028 0.9715 -0.2371
vn -0.0028 0.9922 -0.1247
vn -0.0028 1.0000 -0.0023
vn -0.0001 1.0000 -0.0000
vn -0.0000 0.0751 -0.9972
vn -0.0000 -0.0261 -0.9997
vn 0.9935 -0.1134 -0.0000
vn -0.0000 -0.9998 -0.0186
vn -0.7029 -0.7111 -0.0133
vn -0.7058 -0.7078 -0.0307
vn -0.0000 -0.9991 -0.0433
vn -0.6550 0.7317 -0.1884
vn -0.7678 0.6205 -0.1598
vn -0.5554 0.7161 0.4228
vn -0.3778 0.4026 0.8337
vn -0.7179 -0.6901 -0.0918
vn -0.6966 0.7111 0.0947
vn -0.7085 0.7051 0.0305
vn -0.7139 0.6981 0.0553
vn -0.7005 -0.7115 -0.0564
vn -0.7165 0.6898 0.1043
vn -0.6980 -0.7081 -0.1070
vn -0.7058 0.6963 0.1305
vn -0.7084 -0.6937 -0.1300
vn -0.7113 0.7027 0.0131
vn -0.6982 -0.6860 0.2048
vn -0.6722 -0.6519 0.3510
vn -0.6801 -0.7274 0.0914
vn -0.6200 -0.3459 0.7042
vn 0.0016 -0.9861 0.1661
vn -0.7029 0.7111 0.0133
vn 0.0011 -0.4414 0.8973
vn -0.6980 0.7081 0.1070
vn -0.7005 0.7115 0.0564
vn -0.0000 -0.9913 -0.1319
vn -0.7058 0.7078 0.0307
vn 0.0023 -0.9582 0.2860
vn -0.0000 -0.9829 -0.1842
vn 0.6801 -0.7274 0.0914
vn -0.0000 -0.9861 0.1661
vn -0.0000 -0.9997 -0.0249
vn -0.0000 -0.9993 -0.0373
vn 0.6966 0.7111 0.0947
vn 0.7179 -0.6901 -0.0918
vn 0.7029 -0.7111 -0.0133
vn 0.7113 0.7027 0.0131
vn -0.0000 -0.9969 -0.0790
vn -0.0000 -0.9888 -0.1495
vn 0.7058 -0.7078 -0.0307
vn 0.7005 -0.7115 -0.0564
vn 0.6980 -0.7081 -0.1070
vn 0.7084 -0.6937 -0.1300
vn 0.7085 0.7051 0.0305
vn 0.7139 0.6981 0.0553
vn 0.7165 0.6898 0.1043
vn 0.7058 0.6963 0.1305
vn -0.0000 -0.3681 -0.9298
vn -0.0000 -0.0751 0.9972
vn -0.0001 0.2426 0.9701
vn 0.0001 -0.2425 0.9701
vn 0.0021 -0.8804 0.4743
vn -0.0000 -0.8804 0.4742
vn -0.0000 -0.4408 0.8976
vn 0.0011 -0.4403 0.8979
vn -0.0000 0.2425 0.9701
vn 0.6722 -0.6519 0.3511
vn 0.6200 -0.3459 0.7042
vn -0.0000 0.0261 0.9997
vn -0.0004 0.2429 0.9701
vn 0.3182 0.4098 0.8549
vn -0.0000 0.1602 0.9871
vn 0.5631 0.6655 0.4899
vn -0.0004 0.1604 0.9870
vn 0.7425 0.6622 -0.1006
vn 0.6982 -0.6860 0.2048
vn -0.0000 -0.9689 0.2474
vn -0.0000 -0.9582 0.2861
vn 0.0024 -0.9689 0.2474
vn 0.0023 -0.9582 0.2861
vn 0.9393 -0.3401 -0.0456
vn 0.9359 -0.3423 -0.0837
vn 0.9961 0.0863 0.0174
vn 0.9974 0.0724 0.0065
vn 0.9287 -0.3679 -0.0472
vn 0.9303 -0.3667 -0.0003
vn 0.9919 0.1270 -0.0003
vn 0.9904 0.1369 0.0205
vn 0.9311 -0.3634 0.0304
vn 0.9931 0.1170 -0.0110
vn -0.9259 -0.3667 -0.0909
vn -0.9325 -0.3509 -0.0859
vn -0.9963 0.0847 0.0170
vn -0.9921 0.1211 0.0339
vn -0.9249 -0.3770 -0.0483
vn -0.9905 0.1362 0.0204
vn 0.5774 0.5774 -0.5774
vn 0.5774 -0.5774 -0.5774
vn -0.0000 -0.7071 -0.7071
vn -0.0000 0.7071 -0.7071
vn -0.9267 -0.3758 -0.0003
vn -0.9920 0.1261 -0.0003
vn -0.0000 0.2369 0.9715
vn -0.0006 0.2368 0.9716
vn 0.7261 0.1629 0.6680
vn 0.7710 -0.0688 0.6331
vn -0.0000 -0.1080 0.9942
vn 0.0003 -0.1084 0.9941
vn 0.7135 -0.2737 0.6449
vn -0.0000 -0.3907 0.9205
vn 0.0009 -0.3907 0.9205
vn -0.0000 -0.4467 0.8947
vn 0.0011 -0.4468 0.8947
vn 0.7147 -0.3125 0.6258
vn -0.0000 -0.4901 0.8716
vn 0.0012 -0.4902 0.8716
vn 0.7107 -0.3448 0.6132
vn -0.0000 -0.0783 0.9969
vn 0.0002 -0.0776 0.9970
vn 0.6211 -0.0614 0.7813
vn 0.6742 -0.4229 0.6055
vn -0.0000 -0.1533 0.9882
vn -0.0000 -0.1538 0.9881
vn -0.7129 -0.2739 0.6456
vn -0.7709 -0.0683 0.6333
vn -0.7139 -0.3127 0.6265
vn 0.0021 -0.8805 0.4740
vn 0.9369 -0.3495 -0.0118
vn 0.9961 0.0882 0.0029
vn -0.9275 -0.3725 0.0311
vn -0.9932 0.1160 -0.0109
vn 0.7402 0.0316 0.6717
vn -0.7266 0.1629 0.6675
vn -0.0000 -0.0700 0.9975
vn -0.6673 -0.4286 0.6091
vn -0.6210 -0.0624 0.7814
vn -0.9361 -0.3487 -0.0467
vn -0.9975 0.0706 0.0062
vn -0.7098 -0.3452 0.6140
vn -0.0000 -0.0675 0.9977
vn -0.0000 0.2431 0.9700
vn 0.6748 0.7296 -0.1108
vn 0.7005 0.7115 0.0564
vn 0.7058 0.7078 0.0307
vn 0.7179 0.6901 0.0918
vn 0.7084 0.6937 0.1300
vn 0.6980 0.7081 0.1070
vn 0.7029 0.7111 0.0133
vn 0.9295 -0.3579 -0.0888
vn -0.9335 -0.3584 -0.0121
vn -0.9962 0.0866 0.0028
vn -0.7428 0.0319 0.6688
vn 0.9919 0.1221 0.0341
vn -0.7084 0.6937 0.1300
vn -0.7179 0.6901 0.0918
vn 0.3061 0.9447 0.1174
vn 0.3032 0.9261 0.2244
vn 0.3071 0.9233 0.2307
vn 0.3138 0.9406 0.1299
vn 0.3089 0.9511 0.0021
vn -0.0020 0.8702 0.4926
vn -0.2239 0.8789 0.4212
vn 0.3093 0.9479 -0.0764
vn -0.3018 0.9249 0.2311
vn -0.2981 0.9277 0.2248
vn 0.3137 0.9490 0.0318
vn -0.3011 0.9463 0.1176
vn -0.3039 0.9527 0.0021
vn -0.3042 0.9495 -0.0765
vn -0.3083 0.9423 0.1301
vn -0.3084 0.9507 0.0318
vn 0.2282 0.8781 0.4206
vn -0.0000 0.8699 0.4933
vn -0.0000 0.9908 0.1352
vn -0.0028 0.9908 0.1352
vn -0.0028 0.9994 0.0333
vn -0.0000 0.9994 0.0333
vn -0.0028 0.9967 -0.0807
vn -0.0000 0.9967 -0.0807
vn -0.0000 0.9706 0.2408
vn -0.0000 0.9715 0.2371
vn -0.0000 0.9922 0.1248
vn -0.0000 1.0000 0.0023
vn -0.0028 0.9706 0.2408
vn -0.0028 0.9715 0.2371
vn -0.0028 0.9922 0.1247
vn -0.0028 1.0000 0.0023
vn -0.0000 0.0751 0.9972
vn -0.0000 -0.0261 0.9997
vn -0.0001 0.2428 -0.9701
vn -0.0000 0.2428 -0.9701
vn -0.0010 0.2426 -0.9701
vt 0.862500 0.221367
vt 0.880595 0.184715
vt 0.882331 0.187823
vt 0.864253 0.224421
vt 0.827562 0.318262
vt 0.826507 0.319729
vt 0.826335 0.316509
vt 0.826867 0.315671
vt 0.959799 0.047596
vt 0.978960 0.011560
vt 0.982836 0.017813
vt 0.963714 0.053614
vt 0.900539 0.151583
vt 0.904336 0.157642
vt 0.886086 0.193987
vt 0.919434 0.116590
vt 0.923299 0.122378
vt 0.939549 0.082446
vt 0.943480 0.088147
vt 0.867969 0.230667
vt 0.828191 0.313652
vt 0.825642 0.312287
vt 0.825787 0.310078
vt 0.829242 0.311687
vt 0.826172 0.307236
vt 0.825764 0.315105
vt 0.823840 0.305895
vt 0.835959 0.277193
vt 0.837771 0.280127
vt 0.869720 0.233723
vt 0.843137 0.289242
vt 0.841433 0.286296
vt 0.824616 0.316667
vt 0.830560 0.314515
vt 0.924935 0.125696
vt 0.906020 0.160788
vt 0.958134 0.044262
vt 0.977282 0.008347
vt 0.829281 0.316370
vt 0.887816 0.197083
vt 0.823809 0.309800
vt 0.937928 0.079037
vt 0.487505 0.888088
vt 0.489453 0.829262
vt 0.515423 0.834583
vt 0.512908 0.893048
vt 0.612549 0.246454
vt 0.612362 0.323719
vt 0.555457 0.323463
vt 0.555515 0.246524
vt 0.524872 0.836316
vt 0.522502 0.895998
vt 0.725429 0.402884
vt 0.741608 0.403480
vt 0.741811 0.479686
vt 0.727632 0.479314
vt 0.511247 0.921494
vt 0.487458 0.917163
vt 0.699453 0.478576
vt 0.700871 0.402127
vt 0.491267 0.799426
vt 0.516101 0.807068
vt 0.685286 0.403725
vt 0.703339 0.405551
vt 0.702158 0.410127
vt 0.685213 0.408672
vt 0.387357 0.819551
vt 0.406646 0.819551
vt 0.406646 0.910164
vt 0.387357 0.910164
vt 0.701960 0.417068
vt 0.685124 0.417526
vt 0.503566 0.910164
vt 0.484333 0.910164
vt 0.484333 0.819551
vt 0.503566 0.819551
vt 0.527380 0.806666
vt 0.525381 0.431639
vt 0.500409 0.434182
vt 0.500409 0.425131
vt 0.525661 0.422904
vt 0.648455 0.417249
vt 0.648510 0.408524
vt 0.648490 0.403512
vt 0.500409 0.419985
vt 0.525478 0.417888
vt 0.465090 0.910164
vt 0.465090 0.819551
vt 0.445756 0.910164
vt 0.445756 0.819551
vt 0.426179 0.910164
vt 0.426179 0.819551
vt 0.702247 0.167917
vt 0.703139 0.246220
vt 0.612228 0.169294
vt 0.624007 0.409324
vt 0.623947 0.404308
vt 0.599638 0.410577
vt 0.599518 0.405590
vt 0.575380 0.413449
vt 0.575160 0.408512
vt 0.550715 0.418347
vt 0.550454 0.413392
vt 0.623909 0.418034
vt 0.599478 0.419247
vt 0.575077 0.422017
vt 0.550334 0.426945
vt 0.690492 0.879166
vt 0.700392 0.876161
vt 0.702442 0.837858
vt 0.690770 0.835028
vt 0.652357 0.918727
vt 0.665884 0.802305
vt 0.836519 0.402766
vt 0.739173 0.325451
vt 0.838290 0.325289
vt 0.610150 0.858691
vt 0.607490 0.917044
vt 0.530297 0.807839
vt 0.529720 0.823275
vt 0.604977 0.945556
vt 0.522691 0.926412
vt 0.815829 0.318100
vt 0.816987 0.323253
vt 0.710708 0.410943
vt 0.709492 0.405926
vt 0.705798 0.410084
vt 0.706888 0.413841
vt 0.705322 0.414531
vt 0.704378 0.412641
vt 0.837659 0.167110
vt 0.838366 0.246228
vt 0.738288 0.246085
vt 0.738683 0.166860
vt 0.445664 0.819551
vt 0.503322 0.819551
vt 0.445664 0.850627
vt 0.723356 0.167358
vt 0.720560 0.246157
vt 0.711669 0.415783
vt 0.706934 0.418227
vt 0.705474 0.416271
vt 0.818046 0.327551
vt 0.704367 0.416508
vt 0.703463 0.411434
vt 0.703342 0.416831
vt 0.707658 0.399807
vt 0.708683 0.403157
vt 0.704835 0.408025
vt 0.814516 0.311599
vt 0.815218 0.315134
vt 0.832575 0.333920
vt 0.826506 0.332883
vt 0.827271 0.312061
vt 0.833395 0.312898
vt 0.831907 0.270435
vt 0.825722 0.270221
vt 0.825789 0.249924
vt 0.831943 0.249738
vt 0.826213 0.229603
vt 0.832349 0.229180
vt 0.705958 0.294114
vt 0.712213 0.293257
vt 0.712197 0.314659
vt 0.705930 0.315759
vt 0.827188 0.208689
vt 0.833395 0.208586
vt 0.705770 0.272960
vt 0.712079 0.272504
vt 0.485665 0.836034
vt 0.485172 0.882413
vt 0.704942 0.252200
vt 0.711236 0.252148
vt 0.818908 0.379240
vt 0.814819 0.375488
vt 0.815502 0.374505
vt 0.819940 0.378132
vt 0.818869 0.330944
vt 0.712306 0.419116
vt 0.707374 0.422193
vt 0.713010 0.422699
vt 0.708017 0.426245
vt 0.819679 0.334334
vt 0.713982 0.427129
vt 0.709394 0.431058
vt 0.820718 0.338825
vt 0.821807 0.343613
vt 0.715097 0.431855
vt 0.710761 0.435828
vt 0.822933 0.348530
vt 0.716251 0.436645
vt 0.712165 0.440326
vt 0.824174 0.353779
vt 0.717362 0.441505
vt 0.713400 0.444382
vt 0.718240 0.446252
vt 0.713462 0.448723
vt 0.825241 0.358072
vt 0.828911 0.326482
vt 0.829786 0.331655
vt 0.830649 0.336848
vt 0.823972 0.312608
vt 0.826744 0.364209
vt 0.821047 0.362374
vt 0.703750 0.231557
vt 0.710048 0.231751
vt 0.813731 0.383074
vt 0.811356 0.378787
vt 0.814242 0.376254
vt 0.818013 0.380120
vt 0.701963 0.210840
vt 0.708328 0.210729
vt 0.827616 0.322936
vt 0.810212 0.385320
vt 0.809834 0.379720
vt 0.831879 0.346591
vt 0.833501 0.350056
vt 0.713820 0.335725
vt 0.707610 0.337020
vt 0.831343 0.341963
vt 0.721438 0.381299
vt 0.726200 0.377601
vt 0.726883 0.378595
vt 0.722451 0.382469
vt 0.735674 0.389295
vt 0.734071 0.384126
vt 0.704967 0.419856
vt 0.703832 0.420642
vt 0.623965 0.423021
vt 0.599590 0.424183
vt 0.702295 0.421270
vt 0.685137 0.422428
vt 0.550610 0.432000
vt 0.525582 0.436761
vt 0.575295 0.426993
vt 0.648473 0.422249
vt 0.500409 0.439227
vt 0.691209 0.431393
vt 0.691508 0.440387
vt 0.685499 0.453064
vt 0.598263 0.478014
vt 0.573224 0.484490
vt 0.548678 0.483397
vt 0.524462 0.478014
vt 0.500409 0.470940
vt 0.703168 0.432103
vt 0.699201 0.430545
vt 0.623348 0.466116
vt 0.648220 0.457394
vt 0.706131 0.422791
vt 0.705700 0.424462
vt 0.705946 0.429648
vt 0.707236 0.436061
vt 0.708590 0.440582
vt 0.709136 0.445302
vt 0.708063 0.450410
vt 0.720394 0.365419
vt 0.714581 0.367407
vt 0.727448 0.379374
vt 0.724721 0.384757
vt 0.730518 0.382058
vt 0.727298 0.386756
vt 0.826395 0.290867
vt 0.832526 0.291476
vt 0.616220 0.945728
vt 0.616786 0.918372
vt 0.619372 0.861891
vt 0.610433 0.828629
vt 0.621429 0.834560
vt 0.945107 0.091588
vt 0.149025 0.862272
vt 0.031800 0.894476
vt 0.078118 0.866968
vt 0.125489 0.852016
vt 0.898848 0.148419
vt 0.965371 0.056945
vt 0.917800 0.113284
vt 0.984509 0.021022
vt 0.851828 0.089967
vt 0.835688 0.089261
vt 0.835853 0.013342
vt 0.849970 0.013805
vt 0.853604 0.324723
vt 0.856027 0.246131
vt 0.829353 0.320943
vt 0.830041 0.325598
vt 0.832623 0.327996
vt 0.831672 0.320970
vt 0.835817 0.333241
vt 0.834152 0.331668
vt 0.834234 0.323530
vt 0.836639 0.329136
vt 0.833350 0.338954
vt 0.834836 0.342659
vt 0.836584 0.346148
vt 0.839604 0.341773
vt 0.884765 0.258841
vt 0.855956 0.312466
vt 0.838417 0.316288
vt 0.929814 0.197989
vt 0.906491 0.227448
vt 0.950872 0.164546
vt 0.998295 0.042893
vt 0.983787 0.085209
vt 0.968382 0.126235
vt 0.841179 0.339267
vt 0.840906 0.321970
vt 0.555041 0.093084
vt 0.611521 0.092561
vt 0.555370 0.169667
vt 0.732850 0.976175
vt 0.734151 0.948873
vt 0.736796 0.894498
vt 0.441409 0.816235
vt 0.499068 0.816235
vt 0.499068 0.823262
vt 0.441409 0.823262
vt 0.441409 0.913875
vt 0.383750 0.913875
vt 0.383750 0.910271
vt 0.441409 0.910271
vt 0.438156 0.816769
vt 0.438057 0.823667
vt 0.438790 0.785816
vt 0.439213 0.902692
vt 0.384165 0.901729
vt 0.384163 0.893673
vt 0.438995 0.894009
vt 0.439734 0.930054
vt 0.384175 0.933960
vt 0.700359 0.090879
vt 0.610754 0.016404
vt 0.698793 0.014718
vt 0.499068 0.910271
vt 0.990082 0.017574
vt 0.988627 0.093400
vt 0.812593 0.289388
vt 0.811974 0.269382
vt 0.812663 0.330474
vt 0.813246 0.310150
vt 0.811843 0.249777
vt 0.736111 0.373418
vt 0.736419 0.374501
vt 0.737091 0.377109
vt 0.741529 0.376667
vt 0.812189 0.229883
vt 0.736663 0.375383
vt 0.812538 0.208932
vt 0.726357 0.291190
vt 0.726600 0.312096
vt 0.808694 0.358247
vt 0.726168 0.271122
vt 0.725559 0.251468
vt 0.724482 0.231520
vt 0.723388 0.210466
vt 0.728049 0.332715
vt 0.805586 0.371559
vt 0.805865 0.370464
vt 0.732969 0.361092
vt 0.802956 0.374061
vt 0.805033 0.374089
vt 0.805370 0.372427
vt 0.809602 0.330225
vt 0.805860 0.357734
vt 0.738553 0.359982
vt 0.734162 0.332018
vt 0.730834 0.231210
vt 0.729904 0.210353
vt 0.809216 0.208988
vt 0.808938 0.229832
vt 0.810037 0.310164
vt 0.809402 0.289486
vt 0.808815 0.269436
vt 0.808680 0.249765
vt 0.732917 0.311844
vt 0.732599 0.291101
vt 0.732334 0.270976
vt 0.731741 0.251225
vt 0.803255 0.369966
vt 0.741072 0.372457
vt 0.741216 0.373641
vt 0.741325 0.374615
vt 0.803055 0.372108
vt 0.803134 0.371142
vt 0.554664 0.016918
vt 0.498641 0.246576
vt 0.498617 0.169790
vt 0.987424 0.245369
vt 0.852998 0.167592
vt 0.987571 0.169338
vt 0.740912 0.089478
vt 0.726833 0.013872
vt 0.740963 0.013439
vt 0.724809 0.090085
vt 0.702596 0.324597
vt 0.879286 0.477026
vt 0.851253 0.478189
vt 0.852622 0.401999
vt 0.876995 0.400972
vt 0.933354 0.398934
vt 0.928303 0.357140
vt 0.988010 0.321254
vt 0.989567 0.397137
vt 0.957682 0.431052
vt 0.934201 0.431589
vt 0.555124 0.432592
vt 0.580377 0.432694
vt 0.567875 0.455059
vt 0.555044 0.455036
vt 0.555237 0.400161
vt 0.611828 0.400559
vt 0.498712 0.400046
vt 0.527111 0.432445
vt 0.611139 0.476848
vt 0.592408 0.477483
vt 0.837133 0.478781
vt 0.760020 0.421540
vt 0.745334 0.479669
vt 0.825705 0.420975
vt 0.388005 0.850477
vt 0.388005 0.819551
vt 0.723775 0.325053
vt 0.699667 0.439473
vt 0.704496 0.451115
vt 0.706436 0.450783
vt 0.703678 0.441119
vt 0.722055 0.803266
vt 0.527897 0.910271
vt 0.527897 0.913875
vt 0.499068 0.913875
vt 0.542312 0.910271
vt 0.542312 0.913875
vt 0.732508 0.918727
vt 0.527897 0.816235
vt 0.527897 0.823262
vt 0.542312 0.823262
vt 0.542312 0.816235
vt 0.517499 0.488723
vt 0.498764 0.490564
vt 0.573684 0.478411
vt 0.554956 0.480679
vt 0.536230 0.484820
vt 0.542737 0.454940
vt 0.498576 0.017155
vt 0.498594 0.093227
vt 0.642644 0.853890
vt 0.690611 0.866655
vt 0.385584 0.400730
vt 0.386366 0.477031
vt 0.298035 0.478912
vt 0.296502 0.402459
vt 0.383750 0.823262
vt 0.384143 0.825732
vt 0.384131 0.785816
vt 0.384141 0.817796
vt 0.383750 0.816235
vt 0.063683 0.399673
vt 0.067297 0.358368
vt 0.120235 0.360822
vt 0.120192 0.401588
vt 0.498674 0.323438
vt 0.907328 0.432248
vt 0.897991 0.477121
vt 0.918646 0.449590
vt 0.916702 0.477497
vt 0.949729 0.448490
vt 0.934659 0.449018
vt 0.991798 0.487260
vt 0.973050 0.486041
vt 0.954253 0.482744
vt 0.935454 0.479197
vt 0.138318 0.221368
vt 0.136565 0.224421
vt 0.118487 0.187823
vt 0.120223 0.184715
vt 0.173256 0.318262
vt 0.173951 0.315672
vt 0.174482 0.316510
vt 0.174311 0.319729
vt 0.041019 0.047596
vt 0.037104 0.053614
vt 0.017982 0.017814
vt 0.021857 0.011560
vt 0.114732 0.193987
vt 0.096481 0.157643
vt 0.100279 0.151583
vt 0.077519 0.122378
vt 0.081383 0.116590
vt 0.057337 0.088147
vt 0.061268 0.082446
vt 0.132849 0.230667
vt 0.172626 0.313652
vt 0.175031 0.310079
vt 0.175176 0.312287
vt 0.171576 0.311687
vt 0.174646 0.307237
vt 0.175054 0.315106
vt 0.176978 0.305896
vt 0.163047 0.280128
vt 0.164858 0.277194
vt 0.131098 0.233724
vt 0.159385 0.286297
vt 0.157681 0.289243
vt 0.176202 0.316667
vt 0.170257 0.314515
vt 0.075882 0.125696
vt 0.094797 0.160789
vt 0.042683 0.044262
vt 0.023535 0.008347
vt 0.171537 0.316370
vt 0.113002 0.197083
vt 0.177009 0.309801
vt 0.062889 0.079038
vt 0.280819 0.888419
vt 0.255420 0.893452
vt 0.252877 0.835011
vt 0.278837 0.829602
vt 0.384713 0.246564
vt 0.441764 0.246578
vt 0.441885 0.323535
vt 0.384967 0.323866
vt 0.245830 0.896423
vt 0.243439 0.836775
vt 0.271932 0.403266
vt 0.269857 0.479703
vt 0.255680 0.480106
vt 0.255744 0.403899
vt 0.280881 0.917495
vt 0.257094 0.921894
vt 0.277005 0.799774
vt 0.252176 0.807508
vt 0.315532 0.403725
vt 0.315605 0.408673
vt 0.298660 0.410127
vt 0.297479 0.405552
vt 0.368067 0.819551
vt 0.368067 0.910164
vt 0.315694 0.417526
vt 0.298858 0.417069
vt 0.271148 0.910164
vt 0.271148 0.819551
vt 0.290381 0.819551
vt 0.290381 0.910164
vt 0.240897 0.807175
vt 0.475437 0.431639
vt 0.475157 0.422904
vt 0.352308 0.408524
vt 0.352363 0.417249
vt 0.352327 0.403512
vt 0.475340 0.417888
vt 0.309624 0.819551
vt 0.309624 0.910164
vt 0.328958 0.819551
vt 0.328958 0.910164
vt 0.348534 0.819551
vt 0.348534 0.910164
vt 0.294924 0.168098
vt 0.384994 0.169344
vt 0.294071 0.246447
vt 0.376870 0.404309
vt 0.376811 0.409324
vt 0.401300 0.405590
vt 0.401180 0.410577
vt 0.425658 0.408512
vt 0.425438 0.413450
vt 0.450364 0.413392
vt 0.450103 0.418347
vt 0.376909 0.418034
vt 0.401339 0.419247
vt 0.425741 0.422017
vt 0.450484 0.426945
vt 0.689943 0.880768
vt 0.690222 0.836631
vt 0.701893 0.839460
vt 0.699844 0.877764
vt 0.651809 0.920330
vt 0.665336 0.803908
vt 0.158846 0.325742
vt 0.258080 0.325787
vt 0.160742 0.403297
vt 0.160829 0.917478
vt 0.158237 0.859154
vt 0.164040 0.841412
vt 0.237397 0.823005
vt 0.245649 0.926836
vt 0.163336 0.946016
vt 0.184989 0.318100
vt 0.291326 0.405926
vt 0.290110 0.410943
vt 0.183831 0.323254
vt 0.237996 0.808313
vt 0.295020 0.410085
vt 0.296440 0.412641
vt 0.295495 0.414531
vt 0.293930 0.413842
vt 0.158696 0.246576
vt 0.159355 0.167345
vt 0.258448 0.167046
vt 0.258892 0.246347
vt 0.163718 0.828380
vt 0.158032 0.829104
vt 0.330346 0.819551
vt 0.330346 0.850597
vt 0.272688 0.819551
vt 0.273793 0.167539
vt 0.276637 0.246402
vt 0.293884 0.418227
vt 0.289148 0.415783
vt 0.295344 0.416272
vt 0.182772 0.327552
vt 0.296451 0.416508
vt 0.297476 0.416831
vt 0.297355 0.411435
vt 0.293160 0.399807
vt 0.295983 0.408026
vt 0.292134 0.403157
vt 0.186302 0.311599
vt 0.185600 0.315135
vt 0.828295 0.083233
vt 0.829847 0.104233
vt 0.823750 0.105283
vt 0.822261 0.084482
vt 0.829829 0.146771
vt 0.830572 0.167487
vt 0.824409 0.167509
vt 0.823647 0.147198
vt 0.831663 0.188039
vt 0.825513 0.187821
vt 0.703048 0.127449
vt 0.702265 0.105803
vt 0.708570 0.106685
vt 0.709333 0.128087
vt 0.703598 0.148608
vt 0.709922 0.148844
vt 0.282629 0.836361
vt 0.283149 0.882737
vt 0.703495 0.169393
vt 0.709790 0.169226
vt 0.813048 0.038379
vt 0.814118 0.039452
vt 0.809806 0.043234
vt 0.809089 0.042275
vt 0.288512 0.419116
vt 0.181949 0.330945
vt 0.293444 0.422194
vt 0.292801 0.426245
vt 0.287808 0.422700
vt 0.181139 0.334335
vt 0.291424 0.431059
vt 0.286836 0.427130
vt 0.180100 0.338825
vt 0.285721 0.431855
vt 0.179011 0.343613
vt 0.290056 0.435828
vt 0.284567 0.436646
vt 0.177885 0.348530
vt 0.288653 0.440327
vt 0.283456 0.441505
vt 0.176644 0.353779
vt 0.287418 0.444382
vt 0.287356 0.448724
vt 0.282578 0.446252
vt 0.175577 0.358072
vt 0.171032 0.331655
vt 0.171906 0.326482
vt 0.170169 0.336849
vt 0.176845 0.312608
vt 0.821408 0.053140
vt 0.815775 0.055175
vt 0.703025 0.190071
vt 0.709313 0.189657
vt 0.807736 0.034725
vt 0.812122 0.037530
vt 0.808485 0.041528
vt 0.805510 0.039095
vt 0.173202 0.322936
vt 0.804139 0.032602
vt 0.803956 0.038216
vt 0.167316 0.350056
vt 0.168939 0.346592
vt 0.703203 0.084481
vt 0.709459 0.085560
vt 0.169475 0.341963
vt 0.715490 0.039715
vt 0.716463 0.038510
vt 0.721031 0.042229
vt 0.720382 0.043247
vt 0.729450 0.031222
vt 0.728027 0.036447
vt 0.296986 0.420642
vt 0.295851 0.419856
vt 0.401228 0.424183
vt 0.376853 0.423021
vt 0.315680 0.422429
vt 0.298522 0.421270
vt 0.475236 0.436761
vt 0.450208 0.432000
vt 0.425523 0.426993
vt 0.352345 0.422249
vt 0.315319 0.453065
vt 0.309310 0.440387
vt 0.309609 0.431394
vt 0.427594 0.484490
vt 0.402555 0.478015
vt 0.476356 0.478014
vt 0.452140 0.483397
vt 0.301617 0.430545
vt 0.297650 0.432104
vt 0.377470 0.466116
vt 0.352598 0.457394
vt 0.294687 0.422792
vt 0.295118 0.424463
vt 0.294872 0.429649
vt 0.293581 0.436061
vt 0.292228 0.440582
vt 0.291682 0.445303
vt 0.292755 0.450410
vt 0.709116 0.053848
vt 0.715000 0.055633
vt 0.718654 0.036142
vt 0.721569 0.041431
vt 0.721161 0.034053
vt 0.724545 0.038639
vt 0.829721 0.125694
vt 0.823609 0.126516
vt 0.152075 0.946169
vt 0.151525 0.918754
vt 0.880417 0.357901
vt 0.147005 0.834927
vt 0.055711 0.091588
vt 0.691255 0.854056
vt 0.738180 0.867035
vt 0.101970 0.148419
vt 0.035446 0.056945
vt 0.083017 0.113284
vt 0.016308 0.021022
vt 0.145130 0.090092
vt 0.146965 0.013812
vt 0.161104 0.013342
vt 0.161294 0.089376
vt 0.143510 0.325201
vt 0.141009 0.246496
vt 0.171465 0.320943
vt 0.170777 0.325599
vt 0.168195 0.327996
vt 0.169145 0.320970
vt 0.166666 0.331668
vt 0.165001 0.333241
vt 0.166584 0.323530
vt 0.164179 0.329137
vt 0.167468 0.338954
vt 0.165981 0.342660
vt 0.164233 0.346148
vt 0.161214 0.341774
vt 0.144861 0.312466
vt 0.116053 0.258842
vt 0.162401 0.316288
vt 0.094326 0.227448
vt 0.071004 0.197989
vt 0.049945 0.164546
vt 0.017030 0.085210
vt 0.002522 0.042893
vt 0.032436 0.126235
vt 0.159639 0.339268
vt 0.159912 0.321971
vt 0.442143 0.093131
vt 0.441859 0.169700
vt 0.385646 0.092661
vt 0.034448 0.948753
vt 0.035731 0.976006
vt 0.326092 0.816235
vt 0.326092 0.823262
vt 0.268433 0.823262
vt 0.268433 0.816235
vt 0.326092 0.913875
vt 0.326092 0.910271
vt 0.330125 0.816944
vt 0.330228 0.823841
vt 0.329473 0.785993
vt 0.329119 0.902870
vt 0.329331 0.894185
vt 0.328614 0.930233
vt 0.386409 0.016460
vt 0.296806 0.090917
vt 0.298360 0.014699
vt 0.268433 0.910271
vt 0.077273 0.854242
vt 0.123969 0.841462
vt 0.008108 0.093613
vt 0.006619 0.017661
vt 0.144610 0.402571
vt 0.008838 0.321868
vt 0.007328 0.397951
vt 0.809918 0.148506
vt 0.809851 0.128471
vt 0.809787 0.107681
vt 0.808499 0.087373
vt 0.810468 0.168132
vt 0.730711 0.045992
vt 0.730440 0.047086
vt 0.735746 0.043648
vt 0.731292 0.043360
vt 0.811477 0.188018
vt 0.730924 0.045102
vt 0.723064 0.108746
vt 0.723549 0.129662
vt 0.803563 0.059732
vt 0.724058 0.149735
vt 0.724133 0.169407
vt 0.723750 0.189385
vt 0.723795 0.088075
vt 0.800307 0.047612
vt 0.799991 0.046526
vt 0.727727 0.059523
vt 0.799349 0.044015
vt 0.797273 0.044115
vt 0.799744 0.045666
vt 0.805445 0.087728
vt 0.729933 0.088560
vt 0.733351 0.060439
vt 0.800746 0.060344
vt 0.730109 0.189474
vt 0.808243 0.188177
vt 0.806576 0.107778
vt 0.806655 0.128484
vt 0.806756 0.148561
vt 0.807293 0.168258
vt 0.729390 0.108778
vt 0.729794 0.129533
vt 0.730228 0.149667
vt 0.730321 0.169435
vt 0.797715 0.048200
vt 0.735435 0.047874
vt 0.735538 0.046686
vt 0.735614 0.045707
vt 0.797440 0.046065
vt 0.797553 0.047028
vt 0.442493 0.016955
vt 0.009199 0.169679
vt 0.143993 0.167838
vt 0.009384 0.245841
vt 0.256198 0.089540
vt 0.270287 0.013847
vt 0.272323 0.090141
vt 0.256140 0.013414
vt 0.294685 0.324880
vt 0.171846 0.425443
vt 0.247597 0.425697
vt 0.252153 0.480097
vt 0.167165 0.479612
vt 0.118018 0.477861
vt 0.146134 0.478963
vt 0.062880 0.432409
vt 0.039337 0.431912
vt 0.030433 0.867063
vt 0.442335 0.432679
vt 0.442441 0.455125
vt 0.429609 0.455169
vt 0.417079 0.432820
vt 0.442185 0.400244
vt 0.470349 0.432489
vt 0.405101 0.477635
vt 0.160296 0.479519
vt 0.388005 0.910164
vt 0.330346 0.910164
vt 0.273490 0.325366
vt 0.301151 0.439473
vt 0.296321 0.451115
vt 0.294382 0.450783
vt 0.297139 0.441119
vt 0.721507 0.804868
vt 0.268433 0.913875
vt 0.239604 0.913875
vt 0.239604 0.910271
vt 0.225189 0.913875
vt 0.225189 0.910271
vt 0.731959 0.920330
vt 0.239604 0.816235
vt 0.239604 0.823262
vt 0.225189 0.823262
vt 0.225189 0.816235
vt 0.480028 0.488753
vt 0.442559 0.480769
vt 0.423828 0.478533
vt 0.461292 0.484880
vt 0.454749 0.455009
vt 0.644468 0.841131
vt 0.089826 0.433016
vt 0.099259 0.477995
vt 0.080493 0.478410
vt 0.078502 0.450428
vt 0.062445 0.449884
vt 0.047333 0.449383
vt 0.023995 0.487078
vt 0.005196 0.488331
vt 0.061690 0.480150
vt 0.042841 0.483740
vt 0.830280 0.478892
vt 0.606134 0.842539
vt 0.604713 0.827860
vt 0.272688 0.910164
vt 0.503322 0.910164
vt 0.445664 0.910164
s 1
usemtl Material.005
f 196/1/1 208/2/2 47/3/3 59/4/4
f 220/5/5 217/6/6 43/7/7 40/8/8
f 51/9/9 62/10/10 61/11/11 56/12/12
f 47/3/3 48/13/13 53/14/14 52/15/15
f 48/13/13 49/16/16 54/17/17 53/14/14
f 49/16/16 50/18/18 55/19/19 54/17/17
f 59/4/4 47/3/3 52/15/15 57/20/20
f 39/21/21 40/8/8 42/22/22 41/23/23
f 45/24/21 39/21/21 41/23/23 46/25/24
f 40/8/8 43/7/7 44/26/25 42/22/22
f 50/18/18 51/9/9 56/12/12 55/19/19
f 213/27/26 195/28/27 60/29/28 46/25/24
f 198/30/29 197/31/21 58/32/21 57/20/20
f 217/6/6 216/33/30 44/26/25 43/7/7
f 197/31/21 214/34/21 45/24/21 58/32/21
f 201/35/31 202/36/32 53/14/14 54/17/17
f 204/37/33 21/38/27 62/10/10 51/9/9
f 221/39/21 220/5/5 40/8/8 39/21/21
f 203/40/34 198/30/29 57/20/20 52/15/15
f 219/41/35 213/27/26 46/25/24 41/23/23
f 205/42/36 204/37/33 51/9/9 50/18/18
f 202/36/32 203/40/34 52/15/15 53/14/14
f 59/4/4 57/20/20 58/32/21 60/29/28
f 58/32/21 45/24/21 46/25/24 60/29/28
s 0
f 68/43/37 70/44/37 76/45/37 75/46/37
f 72/47/37 336/48/37 374/49/37 369/50/37
f 75/46/37 76/45/37 114/51/37 113/52/37
f 333/53/37 337/54/37 118/55/37 81/56/37
f 68/43/37 75/46/37 74/57/37 69/58/37
f 333/53/37 81/56/37 79/59/37 332/60/37
f 71/61/37 77/62/37 76/45/37 70/44/37
s 1
f 81/63/27 118/64/38 120/65/39 84/66/40
f 10/67/27 101/68/33 95/69/33 11/70/27
f 84/66/40 120/65/39 119/71/41 85/72/41
f 79/73/42 91/74/2 105/75/2 78/76/43
s 0
f 77/62/37 115/77/37 114/51/37 76/45/37
s 1
f 96/78/44 14/79/45 13/80/46 86/81/47
f 84/66/40 85/72/41 83/82/48 82/83/49
f 81/63/27 84/66/40 82/83/49 79/84/42
f 86/81/47 13/80/46 11/85/27 95/86/33
f 91/74/2 92/87/50 104/88/50 105/75/2
f 92/87/50 93/89/51 103/90/51 104/88/50
f 93/89/51 94/91/36 102/92/36 103/90/51
f 94/91/36 95/69/33 101/68/33 102/92/36
s 0
f 326/93/52 80/94/52 72/47/52 321/95/52
s 1
f 82/83/49 90/96/53 91/97/2 79/84/42
f 90/96/53 89/98/54 92/99/50 91/97/2
f 89/98/54 88/100/55 93/101/51 92/99/50
f 88/100/55 87/102/56 94/103/36 93/101/51
f 87/102/56 86/81/47 95/86/33 94/103/36
f 83/82/48 100/104/57 90/96/53 82/83/49
f 100/104/57 99/105/58 89/98/54 90/96/53
f 99/105/58 98/106/59 88/100/55 89/98/54
f 98/106/59 97/107/60 87/102/56 88/100/55
f 97/107/60 96/78/44 86/81/47 87/102/56
s 0
f 107/108/27 106/109/27 109/110/27 108/111/27
f 65/112/61 107/108/61 108/111/61 66/113/61
f 344/114/62 337/54/62 338/115/62 343/116/62
f 210/117/63 211/118/63 113/52/63 114/51/63
f 110/119/64 729/120/64 114/51/64 115/77/64
f 212/121/65 112/122/65 113/52/65 211/118/65
s 1
f 137/123/66 124/124/67 123/125/68 136/126/69
f 131/127/69 125/128/68 130/129/70 134/130/71
s 0
f 75/46/37 113/52/37 112/122/37 74/57/37
f 330/131/72 215/132/72 122/133/72 323/134/72
f 365/135/73 69/136/73 732/137/73
f 319/138/37 73/139/37 80/94/37 326/93/37
f 319/138/37 323/134/37 122/133/37 73/139/37
s 1
f 123/125/68 126/140/74 128/141/75 125/128/68
f 128/141/75 129/142/76 130/129/70 125/128/68
f 124/124/67 127/143/77 126/140/74 123/125/68
f 136/126/69 123/125/68 125/128/68 131/127/69
f 134/130/71 130/129/70 129/142/76 139/144/78
f 120/65/39 133/145/79 140/146/41 119/71/41
f 133/145/79 134/130/71 139/144/78 140/146/41
f 116/147/80 135/148/81 132/149/81 118/64/38
f 135/148/81 136/126/69 131/127/69 132/149/81
f 118/64/38 132/149/81 133/145/79 120/65/39
f 132/149/81 131/127/69 134/130/71 133/145/79
f 117/150/82 138/151/83 135/148/81 116/147/80
f 138/151/83 137/123/66 136/126/69 135/148/81
f 141/152/84 253/153/85 254/154/86 147/155/87
f 145/156/88 257/157/89 256/158/90 144/159/91
f 144/159/91 256/158/90 255/160/92 143/161/93
f 227/162/94 262/163/95 274/164/96 228/165/97
f 143/161/93 255/160/92 25/166/98 15/167/99
f 226/168/100 263/169/101 262/163/95 227/162/94
f 64/170/102 70/44/103 68/43/104 63/171/105
f 225/172/106 264/173/107 263/169/101 226/168/100
f 187/174/108 270/175/109 252/176/109 148/177/108
f 127/143/77 150/178/110 149/179/111 126/140/74
f 126/140/74 149/179/111 151/180/112 128/141/75
f 149/179/111 152/181/113 154/182/114 151/180/112
f 150/178/110 153/183/115 152/181/113 149/179/111
f 152/181/113 155/184/116 157/185/117 154/182/114
f 153/183/115 156/186/118 155/184/116 152/181/113
f 156/186/118 159/187/119 158/188/120 155/184/116
f 155/184/116 158/188/120 160/189/121 157/185/117
f 159/187/119 162/190/122 161/191/123 158/188/120
f 158/188/120 161/191/123 163/192/124 160/189/121
f 162/190/122 165/193/125 164/194/126 161/191/123
f 161/191/123 164/194/126 166/195/127 163/192/124
f 164/194/126 167/196/128 169/197/129 166/195/127
f 165/193/125 168/198/130 167/196/128 164/194/126
f 153/183/115 232/199/131 234/200/132 156/186/118
f 156/186/118 234/200/132 236/201/133 159/187/119
f 138/151/83 219/41/35 218/202/134 137/123/66
f 142/203/135 251/204/136 253/153/85 141/152/84
f 137/123/66 218/202/134 216/33/30 124/124/67
f 224/205/137 265/206/138 264/173/107 225/172/106
f 124/124/67 216/33/30 217/6/6 127/143/77
f 169/207/129 261/208/139 269/209/109 186/210/108
f 23/211/140 26/212/141 265/206/138 224/205/137
f 127/143/77 217/6/6 230/213/142 150/178/110
f 167/214/128 259/215/143 261/208/139 169/207/129
f 165/193/125 240/216/144 242/217/145 168/198/130
f 228/165/97 274/164/96 273/218/146 223/219/147
f 159/187/119 236/201/133 238/220/148 162/190/122
f 229/221/149 271/222/150 266/223/150 244/224/151
f 168/225/130 260/226/152 259/215/143 167/214/128
f 150/178/110 230/213/142 232/199/131 153/183/115
f 186/210/108 269/209/109 270/175/109 187/174/108
f 117/150/82 213/27/26 219/41/35 138/151/83
f 139/144/78 178/227/153 179/228/41 140/146/41
f 100/104/57 176/229/154 175/230/155 99/105/58
f 119/71/41 177/231/41 171/232/41 85/72/41
f 140/146/41 179/228/41 177/231/41 119/71/41
f 97/107/60 173/233/156 172/234/157 96/78/44
f 98/106/59 174/235/158 173/233/156 97/107/60
f 129/142/76 128/141/75 178/227/153 139/144/78
f 85/72/41 171/232/41 170/236/159 83/82/48
f 83/82/48 170/236/159 176/229/154 100/104/57
f 99/105/58 175/230/155 174/235/158 98/106/59
f 12/237/160 14/79/45 96/78/44 172/234/157
f 171/232/41 355/238/37 353/239/37 142/240/135
f 174/235/158 175/230/155 146/241/161 145/242/88
f 172/234/157 173/233/156 144/243/91 143/244/93
f 173/233/156 174/235/158 145/242/88 144/243/91
f 172/234/157 143/244/93 15/245/99 12/237/160
f 177/231/41 179/228/41 357/246/37 354/247/37
f 175/230/155 176/229/154 147/248/87 146/241/161
f 176/229/154 170/236/159 141/249/84 147/248/87
f 170/236/159 171/232/41 142/240/135 141/249/84
f 128/141/75 151/180/112 180/250/37 178/227/153
f 151/180/112 154/182/114 181/251/37 180/250/37
f 154/182/114 157/185/117 182/252/37 181/251/37
f 157/185/117 160/189/121 183/253/37 182/252/37
f 160/189/121 163/192/124 184/254/37 183/253/37
f 163/192/124 166/195/127 185/255/37 184/254/37
f 166/195/127 169/197/129 186/256/108 185/255/37
f 179/228/41 181/251/37 182/252/37 357/246/37
f 223/219/147 273/218/146 272/257/162 222/258/163
f 222/258/163 272/257/162 271/222/150 229/221/149
f 244/224/151 266/223/150 268/259/150 243/260/151
f 243/260/151 268/259/150 267/261/164 242/262/145
f 147/155/87 254/154/86 258/263/165 146/264/161
f 148/177/108 252/176/109 251/204/136 142/203/135
f 162/190/122 238/220/148 240/216/144 165/193/125
f 242/262/145 267/261/164 260/226/152 168/225/130
f 146/264/161 258/263/165 257/157/89 145/156/88
s 0
f 194/265/166 212/121/166 211/118/166 192/266/166
f 191/267/166 210/117/166 209/268/166 190/269/166
s 1
f 200/270/167 201/35/31 54/17/17 55/19/19
s 0
f 531/271/166 18/272/166 712/273/166 711/274/166
s 1
f 208/2/2 207/275/50 48/13/13 47/3/3
f 218/202/134 219/41/35 41/23/23 42/22/22
f 199/276/168 200/270/167 55/19/19 56/12/12
f 207/275/50 206/277/51 49/16/16 48/13/13
f 216/33/30 218/202/134 42/22/22 44/26/25
f 22/278/169 199/276/168 56/12/12 61/11/11
f 206/277/51 205/42/36 50/18/18 49/16/16
s 0
f 192/266/166 211/118/166 210/117/166 191/267/166
f 327/279/166 329/280/166 212/281/166 194/282/166
f 341/283/166 343/116/166 215/132/166 193/284/166
s 1
f 195/28/27 196/1/1 59/4/4 60/29/28
f 214/34/21 221/39/21 39/21/21 45/24/21
f 220/5/5 231/285/166 230/213/142 217/6/6
f 231/285/166 233/286/166 232/199/131 230/213/142
f 233/286/166 235/287/166 234/200/132 232/199/131
f 245/288/166 231/285/166 220/5/5 221/39/21
f 245/288/166 246/289/166 237/290/166 235/287/166
f 235/287/166 237/290/166 236/201/133 234/200/132
f 248/291/166 250/292/166 246/289/166 245/288/166
f 237/290/166 239/293/166 238/220/148 236/201/133
f 239/293/166 241/294/166 240/216/144 238/220/148
f 231/285/166 245/288/166 235/287/166 233/286/166
f 241/294/166 243/295/151 242/217/145 240/216/144
f 246/289/166 244/296/151 243/295/151 241/294/166
f 197/31/21 198/30/29 223/297/147 222/298/163
f 214/34/21 197/31/21 247/299/166 248/291/166
f 203/40/34 202/36/32 227/300/94 228/301/97
f 227/300/94 202/36/32 201/35/31 226/302/100
f 198/30/29 203/40/34 228/301/97 223/297/147
f 199/276/168 22/278/169 23/303/140 224/304/137
f 200/270/167 199/276/168 224/304/137 225/305/106
f 201/35/31 200/270/167 225/305/106 226/302/100
f 250/292/166 229/306/149 244/296/151 246/289/166
f 246/289/166 241/294/166 239/293/166 237/290/166
f 249/307/166 250/292/166 248/291/166 247/299/166
f 197/31/21 222/298/163 249/307/166 247/299/166
f 222/298/163 229/306/149 250/292/166 249/307/166
f 221/39/21 214/34/21 248/291/166 245/288/166
s 0
f 370/308/37 322/309/37 321/95/37 371/310/37
f 20/311/166 194/265/166 192/266/166 19/312/166
f 191/267/166 18/313/166 19/312/166 192/266/166
f 368/314/170 188/315/170 65/316/170 361/317/170
f 366/318/27 8/319/27 1/320/27 359/321/27
s 1
f 367/322/73 70/44/103 64/170/102 362/323/41
s 0
f 366/324/37 71/61/37 70/44/37 367/322/37
s 1
f 364/325/27 6/326/27 3/327/40 360/328/40
s 0
f 365/329/37 7/330/37 6/326/37 364/325/37
f 325/331/52 322/309/52 67/332/52 69/333/52
s 1
f 362/323/41 64/170/102 63/171/105 360/328/40
s 0
f 361/317/27 65/316/27 66/334/27 359/321/27
f 194/282/166 20/335/166 33/336/166 327/279/166
s 1
f 258/263/165 297/337/171 296/338/172 257/157/89
f 253/153/85 281/339/173 285/340/174 254/154/86
f 257/157/89 296/338/172 295/341/175 256/158/90
f 271/222/150 315/342/176 308/343/176 266/223/150
f 267/261/164 309/344/177 300/345/178 260/226/152
f 256/158/90 295/341/175 294/346/179 255/160/92
f 266/223/150 308/343/176 310/347/176 268/259/150
f 255/160/92 294/346/179 29/348/180 25/166/98
f 268/259/150 310/347/176 309/344/177 267/261/164
f 262/163/95 304/349/181 318/350/182 274/164/96
f 251/204/136 277/351/183 281/339/173 253/153/85
f 263/169/101 305/352/184 304/349/181 262/163/95
f 264/173/107 306/353/185 305/352/184 263/169/101
f 265/206/138 307/354/186 306/353/185 264/173/107
f 26/212/141 30/355/187 307/354/186 265/206/138
f 274/164/96 318/350/182 317/356/188 273/218/146
f 270/175/109 312/357/189 278/358/189 252/176/109
f 273/218/146 317/356/188 316/359/190 272/257/162
f 259/215/143 299/360/191 301/361/192 261/208/139
f 261/208/139 301/361/192 311/362/189 269/209/109
f 272/257/162 316/359/190 315/342/176 271/222/150
f 260/226/152 300/345/178 299/360/191 259/215/143
f 269/209/109 311/362/189 312/357/189 270/175/109
f 254/154/86 285/340/174 297/337/171 258/263/165
f 252/176/109 278/358/189 277/351/183 251/204/136
f 280/363/193 282/364/194 276/365/195 279/366/196
f 281/339/173 277/351/183 282/364/194 280/363/193
f 290/367/197 28/368/198 27/369/73 283/370/199
f 283/370/199 27/369/73 29/348/180 294/346/179
f 280/363/193 286/371/200 285/340/174 281/339/173
f 286/371/200 287/372/201 297/337/171 285/340/174
f 287/372/201 288/373/202 296/338/172 297/337/171
f 288/373/202 289/374/203 295/341/175 296/338/172
f 289/374/203 283/370/199 294/346/179 295/341/175
f 279/366/196 284/375/204 286/371/200 280/363/193
f 284/375/204 293/376/205 287/372/201 286/371/200
f 293/376/205 292/377/206 288/373/202 287/372/201
f 292/377/206 291/378/207 289/374/203 288/373/202
f 291/378/207 290/367/197 283/370/199 289/374/203
f 278/358/189 298/379/208 282/364/194 277/351/183
f 275/380/198 276/365/195 282/364/194 298/379/208
f 284/375/204 318/350/182 304/349/181 293/376/205
f 293/376/205 304/349/181 305/352/184 292/377/206
f 292/377/206 305/352/184 306/353/185 291/378/207
f 303/381/198 308/343/176 315/342/176 275/380/198
f 291/378/207 306/353/185 307/354/186 290/367/197
f 290/367/197 307/354/186 30/355/187 28/368/198
f 302/382/198 310/347/176 308/343/176 303/381/198
f 300/345/178 309/344/177 310/347/176 302/382/198
f 276/365/195 316/359/190 317/356/188 279/366/196
f 314/383/73 313/384/208 312/357/189 311/362/189
f 298/379/208 278/358/189 312/357/189 313/384/208
f 299/360/191 314/383/73 311/362/189 301/361/192
f 298/379/208 313/384/208 303/381/198 275/380/198
f 302/382/198 303/381/198 313/384/208 314/383/73
f 299/360/191 300/345/178 302/382/198 314/383/73
f 275/380/198 315/342/176 316/359/190 276/365/195
f 279/366/196 317/356/188 318/350/182 284/375/204
s 0
f 363/385/37 67/332/37 322/309/37 370/308/37
f 371/310/37 369/50/37 16/386/37 32/387/37
f 24/388/166 193/284/166 328/389/166 34/390/166
f 193/284/166 215/132/166 330/131/166 328/389/166
f 328/389/166 330/131/166 329/280/166 327/279/166
f 330/131/209 323/134/209 324/391/209 329/280/209
f 343/116/210 338/115/210 122/133/210 215/132/210
f 74/392/37 112/393/37 324/391/37 320/394/37
f 320/394/37 324/391/37 323/134/37 319/138/37
f 74/392/37 320/394/37 325/331/37 69/333/37
f 320/394/37 319/138/37 326/93/37 325/331/37
f 326/93/52 321/95/52 322/309/52 325/331/52
f 80/94/52 331/395/52 336/48/52 72/47/52
f 329/280/72 324/391/72 112/393/72 212/281/72
f 196/396/166 195/397/166 342/398/166 351/399/166
f 349/400/166 718/401/166 38/402/166 37/403/166
f 341/283/166 193/284/166 24/388/166 38/402/166
f 37/403/166 377/404/166 376/405/166 349/400/166
f 348/406/37 345/407/37 350/408/37 373/409/37
f 347/410/37 335/411/37 345/407/37 348/406/37
f 35/412/37 347/410/37 348/406/37 346/413/37
f 345/407/37 335/411/37 78/414/37 105/415/37
f 195/397/166 213/416/166 344/114/166 342/398/166
f 342/398/166 344/114/166 343/116/166 341/283/166
f 337/54/210 340/417/210 116/418/210 118/55/210
f 344/114/210 339/419/210 340/417/210 337/54/210
f 331/395/52 332/60/52 335/411/52 336/48/52
f 365/135/73 732/137/73 731/420/73 7/421/73
f 73/139/37 334/422/37 331/395/37 80/94/37
f 334/422/37 333/53/37 332/60/37 331/395/37
f 73/139/37 122/133/37 338/115/37 334/422/37
f 334/422/37 338/115/37 337/54/37 333/53/37
s 1
f 352/423/37 148/424/108 142/240/135 353/239/37
f 355/238/37 171/232/41 177/231/41 354/247/37
f 355/238/37 354/247/37 352/423/37 353/239/37
f 184/254/37 185/255/37 186/256/108 187/425/108
f 356/426/37 187/425/108 148/424/108 352/423/37
f 183/253/37 184/254/37 187/425/108 356/426/37
f 357/246/37 356/426/37 352/423/37 354/247/37
f 181/251/37 179/228/41 178/227/153 180/250/37
f 182/252/37 183/253/37 356/426/37 357/246/37
s 0
f 109/110/211 121/427/211 66/113/211 108/111/211
f 66/334/27 121/428/27 77/429/27 71/430/27
f 77/429/27 121/428/27 110/431/27 115/432/27
f 358/433/166 106/109/166 107/108/166 65/112/166
f 190/434/170 358/435/170 65/316/170 188/315/170
f 111/436/170 358/435/170 190/434/170 209/437/170
f 111/436/27 110/431/27 121/428/27 358/435/27
f 106/109/63 358/433/63 121/427/63 109/110/63
f 347/410/37 374/49/37 336/48/37 335/411/37
f 346/413/37 101/438/37 10/439/37 35/412/37
f 373/409/37 350/408/37 104/440/37 103/441/37
f 102/442/37 372/443/37 373/409/37 103/441/37
f 101/438/37 346/413/37 372/443/37 102/442/37
f 328/389/166 327/279/166 33/336/166 34/390/166
f 321/95/37 72/47/37 369/50/37 371/310/37
f 5/444/37 363/385/37 370/308/37 31/445/37
f 529/446/166 189/447/166 18/313/166 191/267/166
f 677/448/63 418/449/63 419/450/63 672/451/63
f 2/452/27 361/317/27 359/321/27 1/320/27
s 1
f 4/453/41 362/323/41 360/328/40 3/327/40
s 0
f 69/58/37 365/329/37 364/325/37 68/43/37
s 1
f 68/43/104 364/325/27 360/328/40 63/171/105
s 0
f 8/454/37 366/324/37 367/322/37 9/455/37
s 1
f 9/455/73 367/322/73 362/323/41 4/453/41
s 0
f 71/430/27 366/318/27 359/321/27 66/334/27
f 17/456/170 368/314/170 361/317/170 2/452/170
f 691/457/166 715/458/166 714/459/166 693/460/166
f 31/445/37 370/308/37 371/310/37 32/387/37
f 372/443/37 346/413/37 348/406/37 373/409/37
f 36/461/37 374/49/37 347/410/37 35/412/37
f 369/50/37 374/49/37 36/461/37 16/386/37
f 350/408/37 345/407/37 105/415/37 104/440/37
f 349/400/166 376/405/166 375/462/166 351/399/166
f 351/399/166 375/462/166 208/463/166 196/396/166
f 375/462/166 380/464/166 207/465/166 208/463/166
f 376/405/166 377/404/166 379/466/166 378/467/166
f 377/404/166 37/403/166 21/468/166 204/469/166
f 378/467/166 379/466/166 205/470/166 206/471/166
f 378/467/166 380/464/166 375/462/166 376/405/166
f 207/465/166 380/464/166 378/467/166 206/471/166
f 205/470/166 379/466/166 377/404/166 204/469/166
s 1
f 536/472/212 401/473/213 389/474/214 548/475/215
f 560/476/216 382/477/217 385/478/218 557/479/219
f 393/480/220 398/481/221 61/482/11 62/483/10
f 389/474/214 394/484/222 395/485/223 390/486/224
f 390/486/224 395/485/223 396/487/225 391/488/226
f 391/488/226 396/487/225 397/489/227 392/490/228
f 401/473/213 399/491/229 394/484/222 389/474/214
f 381/492/21 383/493/230 384/494/231 382/477/217
f 387/495/21 388/496/232 383/493/230 381/492/21
f 382/477/217 384/494/231 386/497/233 385/478/218
f 392/490/228 397/489/227 398/481/221 393/480/220
f 553/498/234 388/496/232 402/499/28 535/500/27
f 538/501/235 399/491/229 400/502/21 537/503/21
f 557/479/219 385/478/218 386/497/233 556/504/236
f 537/503/21 400/502/21 387/495/21 554/505/21
f 541/506/237 396/487/225 395/485/223 542/507/238
f 544/508/239 393/480/220 62/483/10 21/509/27
f 561/510/21 381/492/21 382/477/217 560/476/216
f 543/511/240 394/484/222 399/491/229 538/501/235
f 559/512/241 383/493/230 388/496/232 553/498/234
f 545/513/242 392/490/228 393/480/220 544/508/239
f 542/507/238 395/485/223 394/484/222 543/511/240
f 401/473/213 402/499/28 400/502/21 399/491/229
f 400/502/21 402/499/28 388/496/232 387/495/21
s 0
f 408/514/37 415/515/37 416/516/37 410/517/37
f 412/518/37 713/519/37 722/520/37 678/521/37
f 415/515/37 453/522/37 454/523/37 416/516/37
f 675/524/37 421/525/37 458/526/37 679/527/37
f 408/514/37 409/528/37 414/529/37 415/515/37
f 675/524/37 672/451/37 419/450/37 421/525/37
f 411/530/37 410/517/37 416/516/37 417/531/37
s 1
f 421/532/27 424/533/40 460/534/243 458/535/244
f 441/536/239 10/67/27 11/70/27 435/537/239
f 424/533/40 425/538/41 459/539/41 460/534/243
f 419/540/245 418/541/246 445/542/215 431/543/215
s 0
f 417/531/37 416/516/37 454/523/37 455/544/37
s 1
f 436/545/247 426/546/248 13/80/46 14/79/45
f 424/533/40 422/547/249 423/548/250 425/538/41
f 421/532/27 419/549/245 422/547/249 424/533/40
f 426/546/248 435/550/239 11/85/27 13/80/46
f 431/543/215 445/542/215 444/551/251 432/552/251
f 432/552/251 444/551/251 443/553/252 433/554/252
f 433/554/252 443/553/252 442/555/242 434/556/242
f 434/556/242 442/555/242 441/536/239 435/537/239
s 0
f 666/557/63 661/558/63 412/518/63 420/559/63
s 1
f 422/547/249 419/549/245 431/560/215 430/561/253
f 430/561/253 431/560/215 432/562/251 429/563/254
f 429/563/254 432/562/251 433/564/252 428/565/255
f 428/565/255 433/564/252 434/566/242 427/567/256
f 427/567/256 434/566/242 435/550/239 426/546/248
f 423/548/250 422/547/249 430/561/253 440/568/257
f 440/568/257 430/561/253 429/563/254 439/569/258
f 439/569/258 429/563/254 428/565/255 438/570/259
f 438/570/259 428/565/255 427/567/256 437/571/260
f 437/571/260 427/567/256 426/546/248 436/545/247
s 0
f 447/572/27 448/573/27 449/574/27 446/575/27
f 405/576/261 406/577/261 448/573/261 447/572/261
f 685/578/262 680/579/262 679/527/262 686/580/262
f 453/522/52 551/581/52 550/582/52 454/523/52
f 550/582/263 674/583/263 673/584/263 454/523/263
f 453/522/264 452/585/264 552/586/264 551/581/264
s 1
f 477/587/265 476/588/266 463/589/267 464/590/268
s 0
f 454/523/269 673/584/269 450/591/269 455/544/269
s 1
f 471/592/266 474/593/270 470/594/271 465/595/267
s 0
f 415/515/37 414/529/37 452/585/37 453/522/37
f 555/596/272 670/597/272 663/598/272 462/599/272
f 451/600/273 674/583/273 550/582/273 549/601/273
f 707/602/73 733/603/73 409/604/73
f 659/605/37 666/557/37 420/559/37 413/606/37
f 659/605/37 413/606/37 462/599/37 663/598/37
s 1
f 463/589/267 465/595/267 468/607/274 466/608/275
f 468/607/274 465/595/267 470/594/271 469/609/276
f 464/590/268 463/589/267 466/608/275 467/610/277
f 476/588/266 471/592/266 465/595/267 463/589/267
f 474/593/270 479/611/278 469/609/276 470/594/271
f 460/534/243 459/539/41 480/612/41 473/613/279
f 473/613/279 480/612/41 479/611/278 474/593/270
f 456/614/280 458/535/244 472/615/281 475/616/281
f 475/616/281 472/615/281 471/592/266 476/588/266
f 458/535/244 460/534/243 473/613/279 472/615/281
f 472/615/281 473/613/279 474/593/270 471/592/266
f 457/617/282 456/614/280 475/616/281 478/618/283
f 478/618/283 475/616/281 476/588/266 477/587/265
f 481/619/284 487/620/285 594/621/286 593/622/287
f 485/623/288 484/624/289 596/625/290 597/626/291
f 484/624/289 483/627/292 595/628/293 596/625/290
f 567/629/294 568/630/295 614/631/296 602/632/297
f 483/627/292 15/167/99 25/166/98 595/628/293
f 566/633/298 567/629/294 602/632/297 603/634/299
f 404/635/300 403/636/301 408/514/302 410/517/303
f 565/637/304 566/633/298 603/634/299 604/638/305
f 527/639/108 488/640/108 592/641/109 610/642/109
f 467/610/277 466/608/275 489/643/306 490/644/307
f 466/608/275 468/607/274 491/645/308 489/643/306
f 489/643/306 491/645/308 494/646/309 492/647/310
f 490/644/307 489/643/306 492/647/310 493/648/311
f 492/647/310 494/646/309 497/649/312 495/650/313
f 493/648/311 492/647/310 495/650/313 496/651/314
f 496/651/314 495/650/313 498/652/315 499/653/316
f 495/650/313 497/649/312 500/654/317 498/652/315
f 499/653/316 498/652/315 501/655/318 502/656/319
f 498/652/315 500/654/317 503/657/320 501/655/318
f 502/656/319 501/655/318 504/658/321 505/659/322
f 501/655/318 503/657/320 506/660/323 504/658/321
f 504/658/321 506/660/323 509/661/324 507/662/325
f 505/659/322 504/658/321 507/662/325 508/663/326
f 493/648/311 496/651/314 574/664/327 572/665/328
f 496/651/314 499/653/316 576/666/329 574/664/327
f 478/618/283 477/587/265 558/667/330 559/512/241
f 482/668/331 481/619/284 593/622/287 591/669/332
f 477/587/265 464/590/268 556/504/236 558/667/330
f 564/670/333 565/637/304 604/638/305 605/671/334
f 464/590/268 467/610/277 557/479/219 556/504/236
f 509/672/324 526/673/108 609/674/109 601/675/335
f 23/211/140 564/670/333 605/671/334 26/212/141
f 467/610/277 490/644/307 570/676/336 557/479/219
f 507/677/325 509/672/324 601/675/335 599/678/337
f 505/659/322 508/663/326 582/679/338 580/680/339
f 568/630/295 563/681/340 613/682/341 614/631/296
f 499/653/316 502/656/319 578/683/342 576/666/329
f 569/684/149 584/685/151 606/686/150 611/687/150
f 508/688/326 507/677/325 599/678/337 600/689/343
s 0
f 450/591/344 673/584/344 674/583/344 451/600/344
s 1
f 490/644/307 493/648/311 572/665/328 570/676/336
f 526/673/108 527/639/108 610/642/109 609/674/109
f 457/617/282 478/618/283 559/512/241 553/498/234
f 479/611/278 480/612/41 519/690/41 518/691/345
f 440/568/257 439/569/258 515/692/346 516/693/347
f 459/539/41 425/538/41 511/694/41 517/695/41
f 480/612/41 459/539/41 517/695/41 519/690/41
f 437/571/260 436/545/247 512/696/348 513/697/349
f 438/570/259 437/571/260 513/697/349 514/698/350
f 469/609/276 479/611/278 518/691/345 468/607/274
f 425/538/41 423/548/250 510/699/351 511/694/41
f 423/548/250 440/568/257 516/693/347 510/699/351
f 439/569/258 438/570/259 514/698/350 515/692/346
f 12/237/160 512/696/348 436/545/247 14/79/45
f 511/694/41 482/700/331 695/701/37 697/702/37
f 514/698/350 485/703/288 486/704/352 515/692/346
f 512/696/348 483/705/292 484/706/289 513/697/349
f 513/697/349 484/706/289 485/703/288 514/698/350
f 512/696/348 12/237/160 15/245/99 483/705/292
f 517/695/41 696/707/37 699/708/37 519/690/41
f 515/692/346 486/704/352 487/709/285 516/693/347
f 516/693/347 487/709/285 481/710/284 510/699/351
f 510/699/351 481/710/284 482/700/331 511/694/41
f 468/607/274 518/691/345 520/711/37 491/645/308
f 491/645/308 520/711/37 521/712/37 494/646/309
f 494/646/309 521/712/37 522/713/37 497/649/312
f 497/649/312 522/713/37 523/714/37 500/654/317
f 500/654/317 523/714/37 524/715/37 503/657/320
f 503/657/320 524/715/37 525/716/37 506/660/323
f 506/660/323 525/716/37 526/717/108 509/661/324
f 519/690/41 699/708/37 522/713/37 521/712/37
f 563/681/340 562/718/353 612/719/354 613/682/341
f 562/718/353 569/684/149 611/687/150 612/719/354
f 584/685/151 583/720/151 608/721/150 606/686/150
f 583/720/151 582/722/338 607/723/355 608/721/150
f 487/620/285 486/724/352 598/725/356 594/621/286
f 488/640/108 482/668/331 591/669/332 592/641/109
f 502/656/319 505/659/322 580/680/339 578/683/342
f 582/722/338 508/688/326 600/689/343 607/723/355
f 486/724/352 485/623/288 597/626/291 598/725/356
s 0
f 534/726/166 532/727/166 551/581/166 552/586/166
f 38/402/166 718/401/166 719/728/166 341/283/166
f 531/271/166 530/729/166 549/601/166 550/582/166
s 1
f 540/730/357 397/489/227 396/487/225 541/506/237
s 0
f 189/447/166 368/731/166 17/732/166 18/313/166
s 1
f 548/475/215 389/474/214 390/486/224 547/733/251
f 558/667/330 384/494/231 383/493/230 559/512/241
f 539/734/358 398/481/221 397/489/227 540/730/357
f 547/733/251 390/486/224 391/488/226 546/735/252
f 556/504/236 386/497/233 384/494/231 558/667/330
f 22/736/169 61/482/11 398/481/221 539/734/358
f 546/735/252 391/488/226 392/490/228 545/513/242
s 0
f 532/727/166 531/271/166 550/582/166 551/581/166
f 667/737/166 534/738/166 552/739/166 669/740/166
f 683/741/166 533/742/166 555/596/166 685/578/166
s 1
f 535/500/27 402/499/28 401/473/213 536/472/212
f 554/505/21 387/495/21 381/492/21 561/510/21
f 560/476/216 557/479/219 570/676/336 571/743/166
f 571/743/166 570/676/336 572/665/328 573/744/166
f 573/744/166 572/665/328 574/664/327 575/745/166
f 585/746/166 561/510/21 560/476/216 571/743/166
f 585/746/166 575/745/166 577/747/166 586/748/166
f 575/745/166 574/664/327 576/666/329 577/747/166
f 588/749/166 585/746/166 586/748/166 590/750/166
f 577/747/166 576/666/329 578/683/342 579/751/166
f 579/751/166 578/683/342 580/680/339 581/752/166
f 571/743/166 573/744/166 575/745/166 585/746/166
f 581/752/166 580/680/339 582/679/338 583/753/151
f 586/748/166 581/752/166 583/753/151 584/754/151
f 537/503/21 562/755/353 563/756/340 538/501/235
f 554/505/21 588/749/166 587/757/166 537/503/21
f 543/511/240 568/758/295 567/759/294 542/507/238
f 567/759/294 566/760/298 541/506/237 542/507/238
f 538/501/235 563/756/340 568/758/295 543/511/240
f 539/734/358 564/761/333 23/762/140 22/736/169
f 540/730/357 565/763/304 564/761/333 539/734/358
f 541/506/237 566/760/298 565/763/304 540/730/357
f 590/750/166 586/748/166 584/754/151 569/764/149
f 586/748/166 577/747/166 579/751/166 581/752/166
f 589/765/166 587/757/166 588/749/166 590/750/166
f 537/503/21 587/757/166 589/765/166 562/755/353
f 562/755/353 589/765/166 590/750/166 569/764/149
f 561/510/21 585/746/166 588/749/166 554/505/21
s 0
f 716/766/37 717/767/37 661/558/37 662/768/37
f 19/769/166 532/727/166 534/726/166 20/770/166
f 532/727/166 19/769/166 18/272/166 531/271/166
f 710/771/170 703/772/170 405/773/170 528/774/170
f 708/775/27 701/776/27 1/320/27 8/319/27
s 1
f 709/777/73 704/778/41 404/635/300 410/517/303
s 0
f 708/779/37 709/777/37 410/517/37 411/530/37
s 1
f 706/780/27 702/781/40 3/327/40 6/326/27
s 0
f 707/782/37 706/780/37 6/326/37 7/330/37
f 407/783/63 662/768/63 665/784/63 409/785/63
s 1
f 704/778/41 702/781/40 403/636/301 404/635/300
s 0
f 703/772/27 701/776/27 406/786/27 405/773/27
f 711/274/166 712/273/166 710/787/166 528/788/166
f 667/737/166 33/789/166 20/790/166 534/738/166
f 693/460/166 714/459/166 683/741/166 684/791/166
f 38/792/166 715/458/166 691/457/166 37/793/166
s 1
f 598/725/356 597/626/291 636/794/359 637/795/360
f 593/622/287 594/621/286 625/796/361 621/797/362
f 597/626/291 596/625/290 635/798/363 636/794/359
f 611/687/150 606/686/150 648/799/176 655/800/176
f 607/723/355 600/689/343 640/801/364 649/802/365
f 596/625/290 595/628/293 634/803/366 635/798/363
f 606/686/150 608/721/150 650/804/176 648/799/176
f 595/628/293 25/166/98 29/348/180 634/803/366
f 608/721/150 607/723/355 649/802/365 650/804/176
f 602/632/297 614/631/296 658/805/367 644/806/368
f 591/669/332 593/622/287 621/797/362 617/807/369
f 603/634/299 602/632/297 644/806/368 645/808/370
f 604/638/305 603/634/299 645/808/370 646/809/371
f 605/671/334 604/638/305 646/809/371 647/810/372
f 26/212/141 605/671/334 647/810/372 30/355/187
f 614/631/296 613/682/341 657/811/373 658/805/367
f 610/642/109 592/641/109 618/812/189 652/813/189
f 613/682/341 612/719/354 656/814/374 657/811/373
f 599/678/337 601/675/335 641/815/375 639/816/376
f 601/675/335 609/674/109 651/817/189 641/815/375
f 612/719/354 611/687/150 655/800/176 656/814/374
f 600/689/343 599/678/337 639/816/376 640/801/364
f 609/674/109 610/642/109 652/813/189 651/817/189
f 594/621/286 598/725/356 637/795/360 625/796/361
f 592/641/109 591/669/332 617/807/369 618/812/189
f 620/818/377 619/819/378 616/820/379 622/821/380
f 621/797/362 620/818/377 622/821/380 617/807/369
f 630/822/381 623/823/382 27/369/73 28/368/198
f 623/823/382 634/803/366 29/348/180 27/369/73
f 620/818/377 621/797/362 625/796/361 626/824/383
f 626/824/383 625/796/361 637/795/360 627/825/384
f 627/825/384 637/795/360 636/794/359 628/826/385
f 628/826/385 636/794/359 635/798/363 629/827/386
f 629/827/386 635/798/363 634/803/366 623/823/382
f 619/819/378 620/818/377 626/824/383 624/828/387
f 624/828/387 626/824/383 627/825/384 633/829/388
f 633/829/388 627/825/384 628/826/385 632/830/389
f 632/830/389 628/826/385 629/827/386 631/831/390
f 631/831/390 629/827/386 623/823/382 630/822/381
f 618/812/189 617/807/369 622/821/380 638/832/208
f 615/833/198 638/832/208 622/821/380 616/820/379
f 624/828/387 633/829/388 644/806/368 658/805/367
f 633/829/388 632/830/389 645/808/370 644/806/368
f 632/830/389 631/831/390 646/809/371 645/808/370
f 643/834/198 615/833/198 655/800/176 648/799/176
f 631/831/390 630/822/381 647/810/372 646/809/371
f 630/822/381 28/368/198 30/355/187 647/810/372
f 642/835/198 643/834/198 648/799/176 650/804/176
f 640/801/364 642/835/198 650/804/176 649/802/365
f 616/820/379 619/819/378 657/811/373 656/814/374
f 654/836/73 651/817/189 652/813/189 653/837/208
f 638/832/208 653/837/208 652/813/189 618/812/189
f 639/816/376 641/815/375 651/817/189 654/836/73
f 638/832/208 615/833/198 643/834/198 653/837/208
f 642/835/198 654/836/73 653/837/208 643/834/198
f 639/816/376 654/836/73 642/835/198 640/801/364
f 615/833/198 616/820/379 656/814/374 655/800/176
f 619/819/378 624/828/387 658/805/367 657/811/373
s 0
f 718/401/166 349/400/166 351/399/166 719/728/166
f 528/788/166 530/729/166 531/271/166 711/274/166
f 705/838/37 716/766/37 662/768/37 407/783/37
f 717/767/37 32/387/37 16/386/37 713/519/37
f 34/839/166 668/840/166 533/742/166 24/841/166
f 533/742/166 668/840/166 670/597/166 555/596/166
f 668/840/166 667/737/166 669/740/166 670/597/166
f 669/740/391 664/842/391 663/598/391 670/597/391
f 555/596/392 462/599/392 680/579/392 685/578/392
f 414/843/37 660/844/37 664/842/37 452/845/37
f 660/844/37 659/605/37 663/598/37 664/842/37
f 414/843/37 409/785/37 665/784/37 660/844/37
f 660/844/37 665/784/37 666/557/37 659/605/37
f 665/784/63 662/768/63 661/558/63 666/557/63
f 420/559/63 412/518/63 678/521/63 671/846/63
f 682/847/392 681/848/392 456/849/392 457/850/392
f 552/739/272 452/845/272 664/842/272 669/740/272
f 536/851/166 693/460/166 684/791/166 535/852/166
f 683/741/166 714/459/166 715/458/166 38/792/166
f 24/841/166 533/742/166 683/741/166 38/792/166
f 37/793/166 691/457/166 724/853/166 725/854/166
f 710/787/166 712/273/166 18/272/166 17/855/166
f 690/856/37 721/857/37 692/858/37 687/859/37
f 689/860/37 690/856/37 687/859/37 677/448/37
f 35/412/37 688/861/37 690/856/37 689/860/37
f 687/859/37 445/862/37 418/449/37 677/448/37
f 535/852/166 684/791/166 686/580/166 553/863/166
f 684/791/166 683/741/166 685/578/166 686/580/166
f 679/527/392 681/848/392 682/847/392 686/580/392
f 457/850/392 553/863/392 686/580/392 682/847/392
f 456/849/392 681/848/392 679/527/392 458/526/392
f 671/846/63 678/521/63 677/448/63 672/451/63
f 5/864/73 705/865/73 733/603/73 731/420/73
f 413/606/37 420/559/37 671/846/37 676/866/37
f 676/866/37 671/846/37 672/451/37 675/524/37
f 413/606/37 676/866/37 680/579/37 462/599/37
f 676/866/37 675/524/37 679/527/37 680/579/37
s 1
f 694/867/37 695/701/37 482/700/331 488/868/108
f 697/702/37 696/707/37 517/695/41 511/694/41
f 697/702/37 695/701/37 694/867/37 696/707/37
f 524/715/37 527/869/108 526/717/108 525/716/37
f 698/870/37 694/867/37 488/868/108 527/869/108
f 523/714/37 698/870/37 527/869/108 524/715/37
f 699/708/37 696/707/37 694/867/37 698/870/37
f 521/712/37 520/711/37 518/691/345 519/690/41
f 522/713/37 699/708/37 698/870/37 523/714/37
s 0
f 449/574/211 448/573/211 406/577/211 461/871/211
f 406/786/27 411/872/27 417/873/27 461/874/27
f 417/873/27 455/875/27 450/876/27 461/874/27
f 700/877/166 405/576/166 447/572/166 446/575/166
f 530/878/170 528/774/170 405/773/170 700/879/170
f 451/880/170 549/881/170 530/878/170 700/879/170
f 451/880/27 700/879/27 461/874/27 450/876/27
f 446/575/52 449/574/52 461/871/52 700/877/52
f 689/860/37 677/448/37 678/521/37 722/520/37
f 688/861/37 35/412/37 10/439/37 441/882/37
f 721/857/37 443/883/37 444/884/37 692/858/37
f 442/885/37 443/883/37 721/857/37 720/886/37
f 441/882/37 442/885/37 720/886/37 688/861/37
f 667/737/166 668/840/166 34/839/166 33/789/166
f 661/558/37 717/767/37 713/519/37 412/518/37
f 5/444/37 31/445/37 716/766/37 705/838/37
f 529/446/166 191/267/166 190/269/166 188/887/166
f 2/452/27 1/320/27 701/776/27 703/772/27
s 1
f 4/453/41 3/327/40 702/781/40 704/778/41
s 0
f 409/528/37 408/514/37 706/780/37 707/782/37
s 1
f 408/514/302 403/636/301 702/781/40 706/780/27
s 0
f 8/454/37 9/455/37 709/777/37 708/779/37
s 1
f 9/455/73 4/453/41 704/778/41 709/777/73
s 0
f 411/872/27 406/786/27 701/776/27 708/775/27
f 17/456/170 2/452/170 703/772/170 710/771/170
f 719/728/166 351/399/166 342/398/166 341/283/166
f 188/887/166 368/731/166 189/447/166 529/446/166
f 31/445/37 32/387/37 717/767/37 716/766/37
f 720/886/37 721/857/37 690/856/37 688/861/37
f 36/461/37 35/412/37 689/860/37 722/520/37
f 713/519/37 16/386/37 36/461/37 722/520/37
f 692/858/37 444/884/37 445/862/37 687/859/37
f 691/457/166 693/460/166 723/888/166 724/853/166
f 693/460/166 536/851/166 548/889/166 723/888/166
f 723/888/166 548/889/166 547/890/166 728/891/166
f 724/853/166 726/892/166 727/893/166 725/854/166
f 725/854/166 544/894/166 21/895/166 37/793/166
f 726/892/166 546/896/166 545/897/166 727/893/166
f 726/892/166 724/853/166 723/888/166 728/891/166
f 547/890/166 546/896/166 726/892/166 728/891/166
f 545/897/166 544/894/166 725/854/166 727/893/166
f 116/418/210 340/417/210 339/419/210 117/898/210
f 117/898/210 339/419/210 344/114/210 213/416/210
f 114/51/393 729/120/393 730/899/393 210/117/393
f 729/120/394 110/119/394 111/900/394 730/899/394
f 730/899/395 111/900/395 209/268/395 210/117/395
f 78/414/52 335/411/52 332/60/52 79/59/52
f 409/604/73 733/603/73 705/865/73 407/901/73
f 731/420/73 733/603/73 707/602/73 7/421/73
f 732/137/73 69/136/73 67/902/73 363/903/73
f 731/420/73 732/137/73 363/903/73 5/864/73
