# Blender 4.4.0
# www.blender.org
mtllib WardrobeDoor1.mtl
o Wardrobe_Door_1
v 0.022733 0.000000 0.000000
v 0.022733 0.000000 -0.538669
v 0.022733 1.885342 -0.000000
v 0.022733 1.944259 -0.538669
v 0.022733 1.888691 -0.089778
v 0.022733 1.893118 -0.179557
v 0.022733 1.902938 -0.269335
v 0.022733 1.920307 -0.359113
v 0.022733 1.936597 -0.448891
v 0.022733 0.120035 -0.087707
v 0.022733 0.120035 -0.450962
v 0.022733 1.778210 -0.087707
v 0.022733 1.821333 -0.450962
v 0.022733 1.780661 -0.148250
v 0.022733 1.783902 -0.208792
v 0.022733 1.803801 -0.329877
v 0.022733 1.815725 -0.390420
v 0.022733 0.000000 -0.448891
v 0.022733 0.000000 -0.359113
v 0.022733 0.000000 -0.269335
v 0.022733 0.000000 -0.179556
v 0.022733 0.000000 -0.089778
v 0.022733 0.105127 -0.390420
v 0.022733 0.093945 -0.329877
v 0.022733 0.093945 -0.208792
v 0.022733 0.105127 -0.148249
v 0.009882 0.120035 -0.087707
v 0.009882 0.120035 -0.450962
v 0.009882 1.778210 -0.087707
v 0.009882 1.821333 -0.450962
v 0.009882 1.780661 -0.148250
v 0.009882 1.783902 -0.208792
v 0.009882 1.791089 -0.269335
v 0.009882 1.803801 -0.329877
v 0.009882 1.815725 -0.390420
v 0.009882 0.105127 -0.390420
v 0.009882 0.093945 -0.329877
v 0.009882 0.088354 -0.269335
v 0.009882 0.093945 -0.208792
v 0.009882 0.105127 -0.148249
v 0.022733 0.835833 -0.538669
v 0.022733 1.107039 -0.538669
v 0.022733 0.852377 -0.450962
v 0.022733 1.089687 -0.450962
v 0.009882 0.852374 -0.450962
v 0.009882 1.089687 -0.450962
v 0.022733 0.835833 -0.000000
v 0.022733 1.107039 -0.000000
v 0.022733 0.852377 -0.087707
v 0.022733 1.089687 -0.087707
v 0.009882 0.852377 -0.087707
v 0.009882 1.089687 -0.087707
v 0.022733 0.869734 -0.538669
v 0.022733 0.903634 -0.538669
v 0.022733 0.937535 -0.538669
v 0.022733 0.882041 -0.445638
v 0.022733 0.911704 -0.429640
v 0.022733 0.941368 -0.419407
v 0.009882 0.888374 -0.433087
v 0.009882 0.915927 -0.418228
v 0.009882 0.943479 -0.408724
v 0.022733 1.005337 -0.538669
v 0.022733 1.039238 -0.538669
v 0.022733 1.073139 -0.538669
v 0.022733 1.000696 -0.419407
v 0.022733 1.030360 -0.429640
v 0.022733 1.060024 -0.445638
v 0.009882 0.998584 -0.408724
v 0.009882 1.026136 -0.418228
v 0.009882 1.053688 -0.433087
v 0.022733 1.005337 -0.000000
v 0.022733 1.039238 -0.000000
v 0.022733 1.073139 -0.000000
v 0.022733 1.000696 -0.119262
v 0.022733 1.030360 -0.109030
v 0.022733 1.060024 -0.093031
v 0.009882 0.998584 -0.129945
v 0.009882 1.026136 -0.120441
v 0.009882 1.053688 -0.105582
v 0.022733 0.869734 -0.000000
v 0.022733 0.903634 -0.000000
v 0.022733 0.937535 -0.000000
v 0.022733 0.882041 -0.093031
v 0.022733 0.911704 -0.109030
v 0.022733 0.941368 -0.119262
v 0.009882 0.888376 -0.105582
v 0.009882 0.915928 -0.120441
v 0.009882 0.943480 -0.129945
v 0.009882 0.998584 -0.269335
v 0.009882 0.943480 -0.269335
v 0.009882 0.915927 -0.269335
v 0.009882 1.053688 -0.269335
v 0.009882 0.888375 -0.269335
v 0.009882 1.089687 -0.269335
v 0.009882 0.852376 -0.269335
v 0.009882 1.026136 -0.269335
v 0.009882 1.489462 -0.199279
v 0.009882 1.509444 -0.339340
v 0.009882 0.507117 -0.214349
v 0.009882 0.507117 -0.325281
v 0.009882 0.631240 -0.087707
v 0.009882 0.630243 -0.450962
v 0.009882 1.527458 -0.087707
v 0.009882 1.560708 -0.450962
v 0.022733 0.507117 -0.214349
v 0.022733 0.852376 -0.269335
v 0.022733 0.507117 -0.325281
v 0.022733 1.089687 -0.269335
v 0.022733 1.489462 -0.199279
v 0.022733 1.791089 -0.269335
v 0.022733 1.509444 -0.339340
v 0.022733 0.088354 -0.269335
v 0.022733 0.948505 -0.396404
v 0.022733 0.948505 -0.142265
v 0.022733 0.993559 -0.396404
v 0.022733 0.993559 -0.142265
v 0.022733 0.993559 -0.269335
v 0.022733 0.948505 -0.269335
v 0.022733 1.013143 -0.513591
v 0.022733 1.026771 -0.513591
v 0.022733 1.013143 -0.499962
v 0.022733 1.026771 -0.499962
v 0.022733 0.929326 -0.499962
v 0.022733 0.915697 -0.499962
v 0.022733 0.929326 -0.513591
v 0.022733 0.915697 -0.513591
v 0.028586 1.013143 -0.513591
v 0.028586 1.026771 -0.513591
v 0.028586 1.013143 -0.499962
v 0.028586 1.026771 -0.499962
v 0.031247 1.013901 -0.512832
v 0.031247 1.026013 -0.512832
v 0.031247 1.013901 -0.500720
v 0.031247 1.026013 -0.500720
v 0.033182 1.014109 -0.512625
v 0.033182 1.025805 -0.512625
v 0.033182 1.014109 -0.500928
v 0.033182 1.025805 -0.500928
v 0.035359 1.013045 -0.513688
v 0.035359 1.026869 -0.513688
v 0.035359 1.013045 -0.499864
v 0.035359 1.026869 -0.499864
v 0.038504 1.012477 -0.514257
v 0.038504 1.027437 -0.514257
v 0.038504 1.012477 -0.499296
v 0.038504 1.027437 -0.499296
v 0.041165 1.012477 -0.514257
v 0.041165 1.027437 -0.514257
v 0.041165 1.012477 -0.499296
v 0.041165 1.027437 -0.499296
v 0.043342 1.013237 -0.513496
v 0.043342 1.026676 -0.513496
v 0.043342 1.013237 -0.500057
v 0.043342 1.026676 -0.500057
v 0.045157 1.015875 -0.510859
v 0.045157 1.024039 -0.510859
v 0.045157 1.015875 -0.502694
v 0.045157 1.024039 -0.502694
v 0.047939 1.016663 -0.510070
v 0.047939 1.023250 -0.510070
v 0.047939 1.016663 -0.503483
v 0.047939 1.023250 -0.503483
v 0.049299 1.017047 -0.510070
v 0.052384 1.022867 -0.510070
v 0.049299 1.017047 -0.503483
v 0.052384 1.022867 -0.503483
v 0.050730 1.014902 -0.510070
v 0.055476 1.019469 -0.510070
v 0.050730 1.014902 -0.503483
v 0.055476 1.019469 -0.503483
v 0.051783 1.011363 -0.510070
v 0.057742 1.014169 -0.510070
v 0.051783 1.011363 -0.503483
v 0.057742 1.014169 -0.503483
v 0.052177 1.007650 -0.510070
v 0.058764 1.007649 -0.510070
v 0.052177 1.007650 -0.503483
v 0.058764 1.007649 -0.503483
v 0.051278 1.004515 -0.510968
v 0.059662 1.004514 -0.510968
v 0.051278 1.004515 -0.502584
v 0.059662 1.004514 -0.502584
v 0.050690 1.001206 -0.511557
v 0.060250 1.001204 -0.511557
v 0.050690 1.001206 -0.501996
v 0.060250 1.001204 -0.501996
v 0.050278 0.997199 -0.511968
v 0.060661 0.997198 -0.511968
v 0.050278 0.997199 -0.501585
v 0.060661 0.997198 -0.501585
v 0.049819 0.993193 -0.512427
v 0.061120 0.993192 -0.512427
v 0.049819 0.993193 -0.501126
v 0.061120 0.993192 -0.501126
v 0.049325 0.984833 -0.512920
v 0.061612 0.984832 -0.512920
v 0.049325 0.984833 -0.500632
v 0.061612 0.984832 -0.500632
v 0.048642 0.971234 -0.513602
v 0.062292 0.971234 -0.513602
v 0.048642 0.971234 -0.499951
v 0.062292 0.971234 -0.499951
v 0.028586 0.929326 -0.513591
v 0.028586 0.915697 -0.513591
v 0.028586 0.929326 -0.499962
v 0.028586 0.915697 -0.499962
v 0.031247 0.928567 -0.512832
v 0.031247 0.916456 -0.512832
v 0.031247 0.928567 -0.500720
v 0.031247 0.916456 -0.500720
v 0.033182 0.928360 -0.512625
v 0.033182 0.916663 -0.512625
v 0.033182 0.928360 -0.500928
v 0.033182 0.916663 -0.500928
v 0.035359 0.929423 -0.513688
v 0.035359 0.915600 -0.513688
v 0.035359 0.929423 -0.499864
v 0.035359 0.915600 -0.499864
v 0.038504 0.929992 -0.514257
v 0.038504 0.915031 -0.514257
v 0.038504 0.929992 -0.499296
v 0.038504 0.915031 -0.499296
v 0.041165 0.929992 -0.514257
v 0.041165 0.915031 -0.514257
v 0.041165 0.929992 -0.499296
v 0.041165 0.915031 -0.499296
v 0.043342 0.929231 -0.513496
v 0.043342 0.915792 -0.513496
v 0.043342 0.929231 -0.500057
v 0.043342 0.915792 -0.500057
v 0.045157 0.926594 -0.510859
v 0.045157 0.918429 -0.510859
v 0.045157 0.926594 -0.502694
v 0.045157 0.918429 -0.502694
v 0.047939 0.925805 -0.510070
v 0.047939 0.919218 -0.510070
v 0.047939 0.925805 -0.503483
v 0.047939 0.919218 -0.503483
v 0.049299 0.925421 -0.510070
v 0.052384 0.919602 -0.510070
v 0.049299 0.925421 -0.503483
v 0.052384 0.919602 -0.503483
v 0.050730 0.927566 -0.510070
v 0.055476 0.922999 -0.510070
v 0.050730 0.927566 -0.503483
v 0.055476 0.922999 -0.503483
v 0.051783 0.931105 -0.510070
v 0.057742 0.928299 -0.510070
v 0.051783 0.931105 -0.503483
v 0.057742 0.928299 -0.503483
v 0.052177 0.934818 -0.510070
v 0.058764 0.934819 -0.510070
v 0.052177 0.934818 -0.503483
v 0.058764 0.934819 -0.503483
v 0.051278 0.937953 -0.510968
v 0.059662 0.937954 -0.510968
v 0.051278 0.937953 -0.502584
v 0.059662 0.937954 -0.502584
v 0.050690 0.941263 -0.511557
v 0.060250 0.941264 -0.511557
v 0.050690 0.941263 -0.501996
v 0.060250 0.941264 -0.501996
v 0.050278 0.945269 -0.511968
v 0.060661 0.945270 -0.511968
v 0.050278 0.945269 -0.501585
v 0.060661 0.945270 -0.501585
v 0.049819 0.949275 -0.512427
v 0.061120 0.949276 -0.512427
v 0.049819 0.949275 -0.501126
v 0.061120 0.949276 -0.501126
v 0.049325 0.957635 -0.512920
v 0.061612 0.957636 -0.512920
v 0.049325 0.957635 -0.500632
v 0.061612 0.957636 -0.500632
v -0.022733 0.000000 0.000000
v -0.022733 0.000000 -0.538669
v -0.022733 1.885342 -0.000000
v -0.022733 1.944259 -0.538669
v -0.022733 1.888691 -0.089778
v -0.022733 1.893118 -0.179557
v -0.022733 1.902938 -0.269335
v -0.022733 1.920307 -0.359113
v -0.022733 1.936597 -0.448891
v -0.022733 0.000000 -0.448891
v -0.022733 0.000000 -0.359113
v -0.022733 0.000000 -0.269335
v -0.022733 0.000000 -0.179556
v -0.022733 0.000000 -0.089778
v -0.022733 0.835833 -0.538669
v -0.022733 1.107039 -0.538669
v -0.022733 0.835833 -0.000000
v -0.022733 1.107039 -0.000000
v -0.022733 0.869734 -0.538669
v -0.022733 0.903634 -0.538669
v -0.022733 0.937535 -0.538669
v -0.022733 1.005337 -0.538669
v -0.022733 1.039238 -0.538669
v -0.022733 1.073139 -0.538669
v -0.022733 1.005337 -0.000000
v -0.022733 1.039238 -0.000000
v -0.022733 1.073139 -0.000000
v -0.022733 0.869734 -0.000000
v -0.022733 0.903634 -0.000000
v -0.022733 0.937535 -0.000000
v -0.022733 1.581693 -0.323210
v -0.022733 1.573642 -0.197083
v -0.022733 1.093285 -0.261488
v -0.022733 0.388850 -0.261220
vn 1.0000 -0.0000 -0.0000
vn -0.0000 -0.9957 -0.0922
vn -0.0000 -0.0000 1.0000
vn -0.0000 0.9710 0.2391
vn -0.0000 -0.9986 -0.0534
vn -0.0000 0.9834 0.1816
vn -0.0000 -0.9930 -0.1179
vn -0.0000 0.9958 0.0920
vn -0.0000 -0.9787 -0.2055
vn -0.0000 0.9958 -0.0920
vn -0.0000 -0.9812 -0.1932
vn -0.0000 0.9834 -0.1816
vn -0.0000 0.9710 -0.2391
vn -0.0000 -0.9992 -0.0404
vn -0.0000 -0.0000 -1.0000
vn 0.3538 0.3116 0.8819
vn 0.6393 -0.0000 -0.7690
vn 0.3538 0.3116 -0.8819
vn 0.6920 -0.0000 -0.7219
vn -0.0000 -0.7071 0.7071
vn -0.0000 -0.7071 -0.7071
vn 0.1761 -0.6961 -0.6961
vn 0.1761 -0.6961 0.6961
vn 0.3539 -0.3116 0.8819
vn 0.5304 -0.4024 0.7462
vn 0.5908 -0.2631 0.7627
vn 0.5908 0.2631 0.7627
vn 0.5304 0.4024 0.7462
vn 0.5908 0.2631 -0.7627
vn 0.5304 0.4024 -0.7462
vn 0.3538 -0.3116 -0.8819
vn 0.5304 -0.4024 -0.7462
vn 0.5908 -0.2631 -0.7627
vn 0.3642 0.9313 -0.0000
vn 0.3642 -0.9313 -0.0000
vn -0.0000 0.1573 0.9876
vn -0.0000 0.2262 0.9741
vn -0.0000 -0.1645 -0.9864
vn -0.0000 -0.1726 0.9850
vn -0.0000 0.1600 -0.9871
vn -0.0000 -0.1324 -0.9912
vn -0.0000 -0.1302 0.9915
vn -0.0000 0.2412 -0.9705
vn 0.6920 -0.0000 0.7219
vn 0.6393 -0.0000 0.7690
vn -0.0000 0.7071 -0.7071
vn 0.1761 0.6961 -0.6961
vn -0.0000 0.7071 0.7071
vn 0.1761 0.6961 0.6961
vn 0.2781 -0.6792 0.6792
vn 0.2781 -0.6792 -0.6792
vn -0.2729 -0.6803 -0.6803
vn -0.2729 -0.6803 0.6803
vn 0.2781 0.6792 -0.6792
vn 0.2781 0.6792 0.6792
vn -0.2729 0.6803 -0.6803
vn -0.2729 0.6803 0.6803
vn -0.3869 0.6520 0.6520
vn -0.3869 0.6520 -0.6520
vn -0.3870 -0.6520 -0.6520
vn -0.1183 0.7021 -0.7021
vn -0.1183 -0.7021 -0.7021
vn -0.3870 -0.6520 0.6520
vn -0.1183 0.7021 0.7021
vn 0.2075 0.6917 0.6917
vn 0.2075 0.6917 -0.6917
vn -0.1183 -0.7021 0.7021
vn 0.2076 -0.6917 0.6917
vn 0.2076 -0.6917 -0.6917
vn 0.6413 -0.5425 -0.5425
vn 0.6413 -0.5425 0.5425
vn 0.6413 0.5425 -0.5425
vn 0.6413 0.5425 0.5425
vn 0.7776 0.4446 0.4446
vn 0.7776 0.4446 -0.4446
vn 0.7776 -0.4446 0.4446
vn 0.3033 -0.6963 0.6505
vn 0.2373 0.6952 0.6785
vn 0.7776 -0.4446 -0.4446
vn 0.3033 -0.6963 -0.6505
vn -0.1734 -0.4692 -0.8659
vn -0.1734 -0.4692 0.8659
vn 0.2373 0.6952 -0.6785
vn 0.3430 0.6936 -0.6335
vn 0.3430 0.6936 0.6335
vn 0.6234 0.4006 0.6715
vn 0.6234 0.4006 -0.6715
vn -0.6067 -0.2847 0.7422
vn -0.6067 -0.2847 -0.7422
vn -0.6719 -0.1345 -0.7283
vn -0.6719 -0.1345 0.7283
vn -0.6844 0.1743 -0.7080
vn -0.6844 0.1743 0.7080
vn 0.7045 0.2024 -0.6802
vn 0.7045 0.2024 0.6802
vn 0.6963 0.2636 -0.6676
vn 0.6963 0.2636 0.6676
vn 0.6742 0.3015 0.6742
vn 0.6742 0.3015 -0.6742
vn -0.6741 0.3017 0.6742
vn -0.6741 0.3017 -0.6742
vn -0.6942 0.1898 -0.6943
vn -0.6942 0.1898 0.6943
vn 0.6943 0.1896 -0.6943
vn 0.6989 0.1523 -0.6988
vn -0.6988 0.1525 -0.6988
vn 0.6943 0.1896 0.6943
vn 0.6989 0.1523 0.6988
vn 0.7020 0.1196 0.7020
vn 0.7020 0.1196 -0.7020
vn -0.6988 0.1525 0.6988
vn -0.7020 0.1197 0.7020
vn -0.7020 0.1197 -0.7020
vn -0.7050 0.0768 -0.7050
vn -0.7050 0.0768 0.7050
vn 0.7050 0.0766 -0.7050
vn 0.7050 0.0766 0.7050
vn 0.7071 -0.0000 0.7071
vn 0.7071 -0.0000 -0.7071
vn -0.7071 -0.0000 0.7071
vn -0.7071 -0.0000 -0.7071
vn -0.3869 -0.6520 -0.6520
vn -0.3869 -0.6520 0.6520
vn 0.2075 -0.6917 -0.6917
vn 0.2075 -0.6917 0.6917
vn 0.2076 0.6917 0.6917
vn 0.2076 0.6917 -0.6917
vn 0.2373 -0.6952 0.6785
vn 0.3034 0.6963 0.6505
vn -0.1733 0.4692 0.8659
vn -0.1733 0.4692 -0.8659
vn 0.3034 0.6963 -0.6505
vn 0.2373 -0.6952 -0.6785
vn 0.3430 -0.6936 -0.6335
vn 0.6234 -0.4006 -0.6715
vn 0.6234 -0.4006 0.6715
vn 0.3430 -0.6936 0.6335
vn -0.6067 0.2847 0.7422
vn -0.6719 0.1345 0.7283
vn -0.6719 0.1345 -0.7283
vn -0.6067 0.2847 -0.7422
vn -0.6844 -0.1743 0.7080
vn -0.6844 -0.1743 -0.7080
vn 0.7045 -0.2024 -0.6802
vn 0.7045 -0.2024 0.6802
vn 0.6963 -0.2636 -0.6676
vn 0.6742 -0.3015 -0.6742
vn 0.6742 -0.3015 0.6742
vn 0.6963 -0.2636 0.6676
vn -0.6741 -0.3017 0.6742
vn -0.6942 -0.1898 0.6943
vn -0.6942 -0.1898 -0.6943
vn -0.6741 -0.3017 -0.6742
vn -0.6988 -0.1525 -0.6988
vn 0.6989 -0.1523 -0.6989
vn 0.6943 -0.1896 -0.6943
vn 0.6943 -0.1896 0.6943
vn 0.7020 -0.1196 -0.7020
vn 0.7020 -0.1196 0.7020
vn 0.6989 -0.1523 0.6988
vn -0.6988 -0.1525 0.6988
vn -0.7020 -0.1197 0.7020
vn -0.7050 -0.0768 0.7050
vn -0.7050 -0.0768 -0.7050
vn -0.7020 -0.1197 -0.7020
vn 0.7050 -0.0766 -0.7050
vn 0.7050 -0.0766 0.7050
vn -0.0000 -1.0000 -0.0000
vn -0.0000 0.9964 0.0850
vn -0.0000 0.9988 0.0493
vn -0.0000 0.9941 0.1087
vn -0.0000 0.9818 0.1899
vn -0.0000 0.9839 0.1785
vn -0.0000 0.9993 0.0373
vn -1.0000 -0.0000 -0.0000
vt 0.031052 0.945272
vt 0.081515 0.916654
vt 0.086412 0.941386
vt 0.029542 0.972874
vt 0.358398 0.764871
vt 0.363637 0.790764
vt 0.102617 0.804859
vt 0.052151 0.775252
vt 0.032127 0.909726
vt 0.083881 0.894510
vt 0.050175 0.802481
vt 0.094360 0.827382
vt 0.090928 0.850317
vt 0.042248 0.836950
vt 0.367351 0.972874
vt 0.372065 0.947238
vt 0.746900 0.834389
vt 0.711314 0.849615
vt 0.704848 0.831811
vt 0.750305 0.812358
vt 0.087962 0.872566
vt 0.036564 0.873385
vt 0.747640 0.951018
vt 0.705002 0.929390
vt 0.712249 0.912622
vt 0.746029 0.928626
vt 0.715744 0.896265
vt 0.745592 0.904362
vt 0.717486 0.882106
vt 0.745214 0.881828
vt 0.715359 0.866224
vt 0.745778 0.858556
vt 0.086775 0.916480
vt 0.091710 0.936832
vt 0.197140 0.940081
vt 0.371319 0.943426
vt 0.702130 0.926251
vt 0.707839 0.911569
vt 0.100656 0.828537
vt 0.096715 0.850910
vt 0.711951 0.895724
vt 0.093635 0.872938
vt 0.713222 0.883723
vt 0.093635 0.872943
vt 0.089418 0.895062
vt 0.713218 0.883720
vt 0.711316 0.866749
vt 0.707340 0.850424
vt 0.701296 0.835039
vt 0.106759 0.808778
vt 0.363034 0.794665
vt 0.197769 0.803189
vt 0.460279 0.945220
vt 0.460758 0.941541
vt 0.537378 0.937098
vt 0.383245 0.944470
vt 0.384680 0.938379
vt 0.466582 0.969211
vt 0.417641 0.806870
vt 0.397521 0.805809
vt 0.397208 0.800858
vt 0.418606 0.802058
vt 0.379405 0.972815
vt 0.529211 0.809691
vt 0.452678 0.799073
vt 0.452621 0.795308
vt 0.396706 0.764731
vt 0.424168 0.766332
vt 0.375018 0.793297
vt 0.376656 0.799356
vt 0.461413 0.770945
vt 0.533676 0.683119
vt 0.501460 0.683557
vt 0.507285 0.674634
vt 0.527388 0.675215
vt 0.370718 0.764680
vt 0.455091 0.970048
vt 0.449329 0.943036
vt 0.918839 0.879801
vt 0.918897 0.879844
vt 0.918858 0.879868
vt 0.918691 0.879783
vt 0.443137 0.970863
vt 0.430601 0.971494
vt 0.433203 0.963748
vt 0.438217 0.963536
vt 0.447548 0.937190
vt 0.438010 0.938641
vt 0.437050 0.933363
vt 0.427279 0.936080
vt 0.426699 0.931112
vt 0.394544 0.939457
vt 0.405357 0.936440
vt 0.401314 0.960662
vt 0.396226 0.960727
vt 0.391733 0.972716
vt 0.395201 0.934004
vt 0.405730 0.931276
vt 0.386428 0.798047
vt 0.383405 0.764605
vt 0.387254 0.803425
vt 0.441304 0.796679
vt 0.449565 0.769345
vt 0.429524 0.800252
vt 0.437241 0.767792
vt 0.438882 0.802417
vt 0.428000 0.805434
vt 0.461365 0.704310
vt 0.449049 0.620381
vt 0.468023 0.620096
vt 0.474112 0.696764
vt 0.482203 0.619899
vt 0.487687 0.688918
vt 0.496074 0.619713
vt 0.499604 0.555667
vt 0.505692 0.564474
vt 0.503479 0.619619
vt 0.527888 0.619283
vt 0.525772 0.563445
vt 0.535321 0.619188
vt 0.548928 0.619005
vt 0.547849 0.687832
vt 0.562696 0.618813
vt 0.562047 0.694989
vt 0.580799 0.618541
vt 0.575662 0.701851
vt 0.979611 0.544614
vt 0.986360 0.577451
vt 0.989849 0.610452
vt 0.736877 0.575533
vt 0.028686 0.703960
vt 0.036679 0.667591
vt 0.044813 0.630481
vt 0.242259 0.677842
vt 0.471774 0.542992
vt 0.485644 0.550587
vt 0.531823 0.555416
vt 0.545817 0.550420
vt 0.559728 0.543004
vt 0.573021 0.535903
vt 0.678251 0.525304
vt 0.050674 0.543272
vt 0.052356 0.505381
vt 0.224459 0.505381
vt 0.246066 0.565992
vt 0.458700 0.535672
vt 0.980105 0.688476
vt 0.971697 0.720278
vt 0.684244 0.710725
vt 0.743087 0.659321
vt 0.212641 0.740052
vt 0.045181 0.614808
vt 0.049367 0.578778
vt 0.737869 0.583838
vt 0.601562 0.617720
vt 0.246469 0.571808
vt 0.047231 0.622001
vt 0.989731 0.624382
vt 0.986497 0.656490
vt 0.970786 0.512008
vt 0.025580 0.743662
vt 0.426972 0.621138
vt 0.241691 0.668335
vt 0.988651 0.617805
vt 0.743095 0.654104
vt 0.404517 0.972534
vt 0.766804 0.873376
vt 0.872606 0.771935
vt 0.876642 0.832133
vt 0.829386 0.868928
vt 0.401410 0.964850
vt 0.396294 0.964922
vt 0.437940 0.959433
vt 0.432967 0.959643
vt 0.919028 0.879835
vt 0.919249 0.879861
vt 0.874420 0.980992
vt 0.868704 0.916800
vt 0.918940 0.879791
vt 0.918908 0.879759
vt 0.972707 0.872541
vt 0.912876 0.876854
vt 0.918555 0.879764
vt 0.918790 0.879860
vt 0.918729 0.879827
vt 0.918400 0.879746
vt 0.919502 0.879892
vt 0.918865 0.879756
vt 0.919759 0.879922
vt 0.918810 0.879773
vt 0.918714 0.879763
vt 0.920175 0.879985
vt 0.918616 0.879797
vt 0.920964 0.880082
vt 0.918387 0.879808
vt 0.918186 0.879716
vt 0.918467 0.879698
vt 0.918080 0.879646
vt 0.922076 0.880234
vt 0.917857 0.879673
vt 0.917459 0.879620
vt 0.918030 0.879760
vt 0.917434 0.879673
vt 0.916974 0.879554
vt 0.918872 0.879794
vt 0.917500 0.879575
vt 0.915757 0.879480
vt 0.916132 0.879479
vt 0.915321 0.879241
vt 0.913469 0.879074
vt 0.913884 0.879274
vt 0.915580 0.879338
vt 0.913418 0.878988
vt 0.911827 0.878691
vt 0.911864 0.878963
vt 0.914212 0.879046
vt 0.912869 0.878767
vt 0.912448 0.879064
vt 0.910803 0.878747
vt 0.911234 0.878643
vt 0.910187 0.878709
vt 0.910089 0.878505
vt 0.908165 0.878356
vt 0.908309 0.878349
vt 0.906519 0.878034
vt 0.906677 0.878210
vt 0.909234 0.878393
vt 0.908763 0.878406
vt 0.906185 0.877884
vt 0.906341 0.878280
vt 0.904842 0.877956
vt 0.904991 0.877799
vt 0.904991 0.877930
vt 0.904774 0.877848
vt 0.903342 0.877645
vt 0.903553 0.877722
vt 0.903495 0.877661
vt 0.902213 0.877501
vt 0.901558 0.877421
vt 0.903294 0.877710
vt 0.901962 0.877501
vt 0.900489 0.877290
vt 0.900907 0.877353
vt 0.901733 0.877457
vt 0.900209 0.877230
vt 0.899996 0.877213
vt 0.898078 0.877085
vt 0.898230 0.876937
vt 0.899078 0.877116
vt 0.898424 0.876884
vt 0.895959 0.876726
vt 0.895437 0.876569
vt 0.896261 0.876796
vt 0.896765 0.876738
vt 0.869808 0.901840
vt 0.870533 0.894796
vt 0.891961 0.875418
vt 0.898463 0.875905
vt 0.875379 0.846666
vt 0.843979 0.870289
vt 0.874953 0.853564
vt 0.874380 0.860154
vt 0.856672 0.871447
vt 0.850549 0.870775
vt 0.886988 0.874945
vt 0.882296 0.874461
vt 0.874220 0.865369
vt 0.871383 0.886587
vt 0.874714 0.867972
vt 0.865645 0.872551
vt 0.860526 0.871827
vt 0.872394 0.881440
vt 0.873589 0.879034
vt 0.874800 0.877611
vt 0.879592 0.874099
vt 0.880420 0.874209
vt 0.875487 0.869645
vt 0.876506 0.871494
vt 0.873078 0.873531
vt 0.869331 0.873072
vt 0.875965 0.874019
vt 0.877761 0.875217
vt 0.876184 0.876091
vt 0.878891 0.874062
vt 0.879031 0.875168
vt 0.879745 0.874000
vt 0.878972 0.874011
vt 0.877680 0.872730
vt 0.879379 0.873893
vt 0.881014 0.874231
vt 0.881027 0.874858
vt 0.879336 0.874504
vt 0.881110 0.874973
vt 0.883284 0.875064
vt 0.883630 0.874843
vt 0.881507 0.874488
vt 0.885279 0.875274
vt 0.885576 0.875180
vt 0.882823 0.874661
vt 0.882927 0.875096
vt 0.884881 0.875091
vt 0.886916 0.875432
vt 0.887138 0.875468
vt 0.884951 0.875237
vt 0.886760 0.875411
vt 0.888521 0.875663
vt 0.888647 0.875660
vt 0.886874 0.875421
vt 0.890014 0.875848
vt 0.890138 0.875889
vt 0.888424 0.875617
vt 0.888554 0.875674
vt 0.891729 0.876075
vt 0.891638 0.876049
vt 0.890375 0.875895
vt 0.889969 0.875846
vt 0.891690 0.876078
vt 0.893896 0.876427
vt 0.894170 0.876524
vt 0.891737 0.876152
vt 0.893409 0.876290
vt 0.893669 0.876331
vt 0.044214 0.956712
vt 0.318329 0.980740
vt 0.317813 0.994971
vt 0.035600 0.966156
vt 0.402743 0.778839
vt 0.387597 0.779039
vt 0.387473 0.762203
vt 0.402824 0.762331
vt 0.438517 0.978498
vt 0.712110 0.946690
vt 0.723983 0.957466
vt 0.440174 0.995235
vt 0.332523 0.980361
vt 0.331898 0.995914
vt 0.723285 0.926124
vt 0.739379 0.930408
vt 0.728469 0.900678
vt 0.745431 0.902554
vt 0.731107 0.873504
vt 0.748707 0.874375
vt 0.041088 0.940753
vt 0.026523 0.942732
vt 0.731636 0.845317
vt 0.750305 0.844852
vt 0.039706 0.841411
vt 0.038206 0.868493
vt 0.021847 0.868562
vt 0.021934 0.840190
vt 0.727970 0.816543
vt 0.747757 0.812091
vt 0.423402 0.979074
vt 0.424460 0.996107
vt 0.038876 0.894039
vt 0.023534 0.894476
vt 0.408110 0.979503
vt 0.408757 0.996603
vt 0.039751 0.918440
vt 0.024988 0.918890
vt 0.362293 0.980134
vt 0.392771 0.979815
vt 0.393117 0.996865
vt 0.362079 0.996865
vt 0.347245 0.980222
vt 0.346794 0.996535
vt 0.356958 0.779522
vt 0.356498 0.762463
vt 0.719970 0.793297
vt 0.431997 0.778289
vt 0.432413 0.763532
vt 0.730721 0.781379
vt 0.341594 0.779902
vt 0.340841 0.762744
vt 0.326254 0.780435
vt 0.311033 0.781212
vt 0.309005 0.764079
vt 0.325025 0.763232
vt 0.041952 0.819056
vt 0.026314 0.809010
vt 0.417615 0.778622
vt 0.417897 0.762732
vt 0.021383 0.927952
vt 0.154966 0.889049
vt 0.034052 0.872373
vt 0.027514 0.900162
vt 0.333623 0.955741
vt 0.018499 0.955741
vt 0.039414 0.816794
vt 0.157997 0.850008
vt 0.333623 0.789004
vt 0.040674 0.789004
vt 0.338800 0.869944
vt 0.037748 0.844583
vt 0.346383 0.789004
vt 0.371903 0.789004
vt 0.359143 0.789004
vt 0.346383 0.955741
vt 0.410183 0.789004
vt 0.397423 0.789004
vt 0.371903 0.955741
vt 0.359143 0.955741
vt 0.435703 0.789004
vt 0.422943 0.789004
vt 0.410183 0.955741
vt 0.397423 0.955741
vt 0.435703 0.955741
vt 0.603945 0.869861
vt 0.422943 0.955741
vt 0.750305 0.927951
vt 0.750305 0.955741
vt 0.750305 0.816794
vt 0.750305 0.872373
vt 0.750305 0.844583
vt 0.750305 0.900162
vt 0.750305 0.789004
s 0
usemtl Material.005
f 9/1/1 17/2/1 13/3/1 4/4/1
f 48/5/1 50/6/1 12/7/1 3/8/1
f 8/9/1 16/10/1 17/2/1 9/1/1
f 5/11/1 14/12/1 15/13/1 6/14/1
f 42/15/1 4/4/1 13/3/1 44/16/1
f 22/17/1 26/18/1 10/19/1 1/20/1
f 6/14/1 15/13/1 110/21/1 7/22/1
f 3/8/1 12/7/1 14/12/1 5/11/1
f 7/22/1 110/21/1 16/10/1 8/9/1
f 2/23/1 11/24/1 23/25/1 18/26/1
f 18/26/1 23/25/1 24/27/1 19/28/1
f 19/28/1 24/27/1 112/29/1 20/30/1
f 20/30/1 112/29/1 25/31/1 21/32/1
f 21/32/1 25/31/1 26/18/1 22/17/1
f 17/2/2 35/33/2 30/34/2 13/3/2
f 44/16/3 13/3/3 30/34/3 104/35/3 46/36/3
f 11/24/4 28/37/4 36/38/4 23/25/4
f 14/12/5 31/39/5 32/40/5 15/13/5
f 23/25/6 36/38/6 37/41/6 24/27/6
f 15/13/7 32/40/7 33/42/7 110/21/7
f 24/27/8 37/41/8 38/43/8 112/29/8
f 110/21/9 33/44/9 34/45/9 16/10/9
f 112/29/10 38/46/10 39/47/10 25/31/10
f 16/10/11 34/45/11 35/33/11 17/2/11
f 25/31/12 39/47/12 40/48/12 26/18/12
f 26/18/13 40/48/13 27/49/13 10/19/13
f 12/7/14 29/50/14 31/39/14 14/12/14
f 50/6/15 52/51/15 103/52/15 29/50/15 12/7/15
f 11/24/3 43/53/3 45/54/3 102/55/3 28/37/3
f 67/56/16 44/16/16 46/36/16 70/57/16
f 2/23/1 41/58/1 43/53/1 11/24/1
f 88/59/17 77/60/17 74/61/17 85/62/17
f 64/63/1 42/15/1 44/16/1 67/56/1
f 10/19/15 27/49/15 101/64/15 51/65/15 49/66/15
f 85/62/1 74/61/1 71/67/1 82/68/1
f 76/69/18 79/70/18 52/51/18 50/6/18
f 1/20/1 10/19/1 49/66/1 47/71/1
f 61/72/19 68/73/19 115/74/19 113/75/19
f 73/76/1 76/69/1 50/6/1 48/5/1
f 41/58/1 53/77/1 56/78/1 43/53/1
s 1
f 121/79/20 119/80/21 127/81/22 129/82/23
s 0
f 54/83/1 55/84/1 125/85/1 126/86/1
f 43/53/24 56/78/24 59/87/24 45/54/24
f 56/78/25 57/88/25 60/89/25 59/87/25
f 57/88/26 58/90/26 61/91/26 60/89/26
f 66/92/1 65/93/1 121/94/1 122/95/1
f 63/96/1 64/63/1 67/56/1 66/92/1
f 65/93/27 66/92/27 69/97/27 68/98/27
f 66/92/28 67/56/28 70/57/28 69/97/28
f 71/67/1 74/61/1 75/99/1 72/100/1
f 72/100/1 75/99/1 76/69/1 73/76/1
f 74/61/29 77/60/29 78/101/29 75/99/29
f 75/99/30 78/101/30 79/70/30 76/69/30
f 47/71/1 49/66/1 83/102/1 80/103/1
f 80/103/1 83/102/1 84/104/1 81/105/1
f 81/105/1 84/104/1 85/62/1 82/68/1
f 49/66/31 51/65/31 86/106/31 83/102/31
f 83/102/32 86/106/32 87/107/32 84/104/32
f 84/104/33 87/107/33 88/59/33 85/62/33
f 46/108/1 94/109/1 92/110/1 70/111/1
f 70/111/1 92/110/1 96/112/1 69/113/1
f 69/113/1 96/112/1 89/114/1 68/73/1
f 89/114/34 77/115/34 116/116/34 117/117/34
f 118/118/1 117/117/1 116/116/1 114/119/1
f 61/72/1 90/120/1 91/121/1 60/122/1
f 60/122/1 91/121/1 93/123/1 59/124/1
f 59/124/1 93/123/1 95/125/1 45/126/1
f 40/127/1 39/128/1 38/129/1 99/130/1
f 35/131/1 34/132/1 33/133/1 98/134/1
f 96/112/1 92/110/1 79/135/1 78/136/1
f 89/114/1 96/112/1 78/136/1 77/115/1
f 88/137/35 90/120/35 118/118/35 114/119/35
f 91/121/1 90/120/1 88/137/1 87/138/1
f 93/123/1 91/121/1 87/138/1 86/139/1
f 95/125/1 93/123/1 86/139/1 51/140/1
f 95/125/1 51/140/1 101/141/1 99/130/1
f 31/142/1 29/143/1 103/144/1 97/145/1
f 92/110/1 94/109/1 52/146/1 79/135/1
f 36/147/1 28/148/1 102/149/1 100/150/1
f 94/109/1 46/108/1 104/151/1 98/134/1
f 33/152/1 32/153/1 31/142/1 97/145/1
f 95/125/36 99/130/36 105/154/36 106/155/36
f 33/152/37 97/145/37 109/156/37 110/157/37
f 100/150/1 38/158/1 37/159/1 36/147/1
f 101/141/1 27/160/1 40/127/1 99/130/1
f 102/149/1 45/126/1 95/125/1 100/150/1
f 103/144/1 52/146/1 94/109/1 97/145/1
f 104/151/1 30/161/1 35/131/1 98/134/1
f 110/157/1 109/156/1 108/162/1 111/163/1
f 112/164/1 107/165/1 106/155/1 105/154/1
f 94/109/38 98/134/38 111/163/38 108/162/38
f 97/145/39 94/109/39 108/162/39 109/156/39
f 100/150/40 95/125/40 106/155/40 107/165/40
f 38/158/41 100/150/41 107/165/41 112/164/41
f 99/130/42 38/129/42 112/164/42 105/154/42
f 98/134/43 33/133/43 110/157/43 111/163/43
f 77/115/44 88/137/44 114/119/44 116/116/44
f 117/117/1 118/118/1 113/75/1 115/74/1
f 90/120/35 61/72/35 113/75/35 118/118/35
f 68/73/34 89/114/34 117/117/34 115/74/34
f 58/90/45 65/93/45 68/98/45 61/91/45
f 58/90/1 55/84/1 62/166/1 65/93/1
s 1
f 124/167/20 126/168/21 204/169/22 206/170/23
s 0
f 65/93/1 62/166/1 119/171/1 121/94/1
f 62/166/1 63/96/1 120/172/1 119/171/1
f 63/96/1 66/92/1 122/95/1 120/172/1
f 58/90/1 57/88/1 124/173/1 123/174/1
f 55/84/1 58/90/1 123/174/1 125/85/1
f 53/77/1 54/83/1 57/88/1 56/78/1
f 57/88/1 54/83/1 126/86/1 124/173/1
s 1
f 119/80/21 120/175/46 128/176/47 127/81/22
f 123/177/48 124/167/20 206/170/23 205/178/49
f 120/175/46 122/179/48 130/180/49 128/176/47
f 125/181/46 123/177/48 205/178/49 203/182/47
f 122/179/48 121/79/20 129/82/23 130/180/49
f 126/168/21 125/181/46 203/182/47 204/169/22
s 0
f 4/323/15 42/324/15 290/325/15 278/326/15
f 81/327/3 82/328/3 304/329/3 303/330/3
f 41/331/15 2/332/15 276/333/15 289/334/15
f 42/324/15 64/335/15 298/336/15 290/325/15
f 2/332/168 18/337/168 284/338/168 276/333/168
f 18/337/168 19/339/168 285/340/168 284/338/168
f 19/339/168 20/341/168 286/342/168 285/340/168
f 9/343/169 4/323/169 278/326/169 283/344/169
f 20/341/168 21/345/168 287/346/168 286/342/168
f 5/347/170 6/348/170 280/349/170 279/350/170
f 21/345/168 22/351/168 288/352/168 287/346/168
f 53/353/15 41/331/15 289/334/15 293/354/15
f 6/348/171 7/355/171 281/356/171 280/349/171
f 54/357/15 53/353/15 293/354/15 294/358/15
f 7/355/172 8/359/172 282/360/172 281/356/172
f 62/361/15 55/362/15 295/363/15 296/364/15
f 55/362/15 54/357/15 294/358/15 295/363/15
f 8/359/173 9/343/173 283/344/173 282/360/173
f 63/365/15 62/361/15 296/364/15 297/366/15
f 82/328/3 71/367/3 299/368/3 304/329/3
f 1/369/3 47/370/3 291/371/3 275/372/3
f 22/351/168 1/369/168 275/372/168 288/352/168
f 64/335/15 63/365/15 297/366/15 298/336/15
f 71/367/3 72/373/3 300/374/3 299/368/3
f 73/375/3 48/376/3 292/377/3 301/378/3
f 3/379/174 5/347/174 279/350/174 277/380/174
f 47/370/3 80/381/3 302/382/3 291/371/3
f 72/373/3 73/375/3 301/378/3 300/374/3
f 48/376/3 3/379/3 277/380/3 292/377/3
f 80/381/3 81/327/3 303/330/3 302/382/3
f 283/383/175 305/384/175 281/385/175 282/386/175
f 290/387/175 305/384/175 283/383/175 278/388/175
f 279/389/175 306/390/175 292/391/175 277/392/175
f 281/385/175 305/384/175 307/393/175 306/390/175
f 306/390/175 279/389/175 280/394/175 281/385/175
f 306/390/175 307/393/175 301/395/175 292/391/175
f 301/395/175 307/393/175 299/396/175 300/397/175
f 298/398/175 307/393/175 305/384/175 290/387/175
f 299/396/175 307/393/175 303/399/175 304/400/175
f 296/401/175 307/393/175 298/398/175 297/402/175
f 303/399/175 307/393/175 291/403/175 302/404/175
f 294/405/175 307/393/175 296/401/175 295/406/175
f 291/403/175 307/393/175 289/407/175 308/408/175
f 289/407/175 307/393/175 294/405/175 293/409/175
f 284/410/175 308/408/175 289/407/175 276/411/175
f 288/412/175 308/408/175 286/413/175 287/414/175
f 286/413/175 308/408/175 284/410/175 285/415/175
f 308/408/175 288/412/175 275/416/175 291/403/175
s 1
usemtl Material.005
f 133/183/50 131/184/51 135/185/52 137/186/53
f 129/82/23 127/81/22 131/184/51 133/183/50
f 127/81/22 128/176/47 132/187/54 131/184/51
f 128/176/47 130/180/49 134/188/55 132/187/54
f 130/180/49 129/82/23 133/183/50 134/188/55
f 136/189/56 138/190/57 142/191/58 140/192/59
f 131/184/51 132/187/54 136/189/56 135/185/52
f 132/187/54 134/188/55 138/190/57 136/189/56
f 134/188/55 133/183/50 137/186/53 138/190/57
f 139/193/60 140/192/59 144/194/61 143/195/62
f 138/190/57 137/186/53 141/196/63 142/191/58
f 137/186/53 135/185/52 139/193/60 141/196/63
f 135/185/52 136/189/56 140/192/59 139/193/60
f 144/194/61 146/197/64 150/198/65 148/199/66
f 140/192/59 142/191/58 146/197/64 144/194/61
f 142/191/58 141/196/63 145/200/67 146/197/64
f 141/196/63 139/193/60 143/195/62 145/200/67
f 149/201/68 147/202/69 151/203/70 153/204/71
f 146/197/64 145/200/67 149/201/68 150/198/65
f 145/200/67 143/195/62 147/202/69 149/201/68
f 143/195/62 144/194/61 148/199/66 147/202/69
f 152/205/72 154/206/73 158/207/74 156/208/75
f 147/202/69 148/199/66 152/205/72 151/203/70
f 148/199/66 150/198/65 154/206/73 152/205/72
f 150/198/65 149/201/68 153/204/71 154/206/73
f 158/207/74 157/209/76 161/210/77 162/211/78
f 154/206/73 153/204/71 157/209/76 158/207/74
f 153/204/71 151/203/70 155/212/79 157/209/76
f 151/203/70 152/205/72 156/208/75 155/212/79
f 161/210/77 159/213/80 163/214/81 165/215/82
f 157/209/76 155/212/79 159/213/80 161/210/77
f 155/212/79 156/208/75 160/216/83 159/213/80
f 156/208/75 158/207/74 162/211/78 160/216/83
f 164/217/84 166/218/85 170/219/86 168/220/87
f 159/213/80 160/216/83 164/217/84 163/214/81
f 160/216/83 162/211/78 166/218/85 164/217/84
f 162/211/78 161/210/77 165/215/82 166/218/85
f 169/221/88 167/222/89 171/223/90 173/224/91
f 166/218/85 165/215/82 169/221/88 170/219/86
f 165/215/82 163/214/81 167/222/89 169/221/88
f 163/214/81 164/217/84 168/220/87 167/222/89
f 173/224/91 171/223/90 175/225/92 177/226/93
f 167/222/89 168/220/87 172/227/94 171/223/90
f 168/220/87 170/219/86 174/228/95 172/227/94
f 170/219/86 169/221/88 173/224/91 174/228/95
f 176/229/96 178/230/97 182/231/98 180/232/99
f 171/223/90 172/227/94 176/229/96 175/225/92
f 172/227/94 174/228/95 178/230/97 176/229/96
f 174/228/95 173/224/91 177/226/93 178/230/97
f 181/233/100 179/234/101 183/235/102 185/236/103
f 178/230/97 177/226/93 181/233/100 182/231/98
f 177/226/93 175/225/92 179/234/101 181/233/100
f 175/225/92 176/229/96 180/232/99 179/234/101
f 183/235/102 184/237/104 188/238/105 187/239/106
f 179/234/101 180/232/99 184/237/104 183/235/102
f 180/232/99 182/231/98 186/240/107 184/237/104
f 182/231/98 181/233/100 185/236/103 186/240/107
f 188/238/105 190/241/108 194/242/109 192/243/110
f 184/237/104 186/240/107 190/241/108 188/238/105
f 186/240/107 185/236/103 189/244/111 190/241/108
f 185/236/103 183/235/102 187/239/106 189/244/111
f 193/245/112 191/246/113 195/247/114 197/248/115
f 190/241/108 189/244/111 193/245/112 194/242/109
f 189/244/111 187/239/106 191/246/113 193/245/112
f 187/239/106 188/238/105 192/243/110 191/246/113
f 196/249/116 198/250/117 202/251/118 200/252/119
f 191/246/113 192/243/110 196/249/116 195/247/114
f 192/243/110 194/242/109 198/250/117 196/249/116
f 194/242/109 193/245/112 197/248/115 198/250/117
f 198/250/117 197/248/115 201/253/120 202/251/118
f 197/248/115 195/247/114 199/254/121 201/253/120
f 195/247/114 196/249/116 200/252/119 199/254/121
f 209/255/55 213/256/57 211/257/56 207/258/54
f 205/178/49 209/255/55 207/258/54 203/182/47
f 203/182/47 207/258/54 208/259/51 204/169/22
f 204/169/22 208/259/51 210/260/50 206/170/23
f 206/170/23 210/260/50 209/255/55 205/178/49
f 212/261/52 216/262/122 218/263/123 214/264/53
f 207/258/54 211/257/56 212/261/52 208/259/51
f 208/259/51 212/261/52 214/264/53 210/260/50
f 210/260/50 214/264/53 213/256/57 209/255/55
f 215/265/59 219/266/61 220/267/62 216/262/122
f 214/264/53 218/263/123 217/268/58 213/256/57
f 213/256/57 217/268/58 215/265/59 211/257/56
f 211/257/56 215/265/59 216/262/122 212/261/52
f 220/267/62 224/269/124 226/270/125 222/271/67
f 216/262/122 220/267/62 222/271/67 218/263/123
f 218/263/123 222/271/67 221/272/64 217/268/58
f 217/268/58 221/272/64 219/266/61 215/265/59
f 225/273/126 229/274/73 227/275/72 223/276/127
f 222/271/67 226/270/125 225/273/126 221/272/64
f 221/272/64 225/273/126 223/276/127 219/266/61
f 219/266/61 223/276/127 224/269/124 220/267/62
f 228/277/70 232/278/79 234/279/76 230/280/71
f 223/276/127 227/275/72 228/277/70 224/269/124
f 224/269/124 228/277/70 230/280/71 226/270/125
f 226/270/125 230/280/71 229/274/73 225/273/126
f 234/279/76 238/281/128 237/282/129 233/283/74
f 230/280/71 234/279/76 233/283/74 229/274/73
f 229/274/73 233/283/74 231/284/75 227/275/72
f 227/275/72 231/284/75 232/278/79 228/277/70
f 237/282/129 241/285/130 239/286/131 235/287/132
f 233/283/74 237/282/129 235/287/132 231/284/75
f 231/284/75 235/287/132 236/288/133 232/278/79
f 232/278/79 236/288/133 238/281/128 234/279/76
f 240/289/134 244/290/135 246/291/136 242/292/137
f 235/287/132 239/286/131 240/289/134 236/288/133
f 236/288/133 240/289/134 242/292/137 238/281/128
f 238/281/128 242/292/137 241/285/130 237/282/129
f 245/293/138 249/294/139 247/295/140 243/296/141
f 242/292/137 246/291/136 245/293/138 241/285/130
f 241/285/130 245/293/138 243/296/141 239/286/131
f 239/286/131 243/296/141 244/290/135 240/289/134
f 249/294/139 253/297/142 251/298/143 247/295/140
f 243/296/141 247/295/140 248/299/144 244/290/135
f 244/290/135 248/299/144 250/300/145 246/291/136
f 246/291/136 250/300/145 249/294/139 245/293/138
f 252/301/146 256/302/147 258/303/148 254/304/149
f 247/295/140 251/298/143 252/301/146 248/299/144
f 248/299/144 252/301/146 254/304/149 250/300/145
f 250/300/145 254/304/149 253/297/142 249/294/139
f 257/305/150 261/306/151 259/307/152 255/308/153
f 254/304/149 258/303/148 257/305/150 253/297/142
f 253/297/142 257/305/150 255/308/153 251/298/143
f 251/298/143 255/308/153 256/302/147 252/301/146
f 259/307/152 263/309/154 264/310/155 260/311/156
f 255/308/153 259/307/152 260/311/156 256/302/147
f 256/302/147 260/311/156 262/312/157 258/303/148
f 258/303/148 262/312/157 261/306/151 257/305/150
f 264/310/155 268/313/158 270/314/159 266/315/160
f 260/311/156 264/310/155 266/315/160 262/312/157
f 262/312/157 266/315/160 265/316/161 261/306/151
f 261/306/151 265/316/161 263/309/154 259/307/152
f 269/317/162 273/318/163 271/319/164 267/320/165
f 266/315/160 270/314/159 269/317/162 265/316/161
f 265/316/161 269/317/162 267/320/165 263/309/154
f 263/309/154 267/320/165 268/313/158 264/310/155
f 272/321/166 200/252/119 202/251/118 274/322/167
f 267/320/165 271/319/164 272/321/166 268/313/158
f 268/313/158 272/321/166 274/322/167 270/314/159
f 270/314/159 274/322/167 273/318/163 269/317/162
f 274/322/167 202/251/118 201/253/120 273/318/163
f 273/318/163 201/253/120 199/254/121 271/319/164
f 271/319/164 199/254/121 200/252/119 272/321/166
