# Blender 4.4.0
# www.blender.org
mtllib Flecha.mtl
o Flecha_1
v 0.205667 30.510250 -20.277008
v -0.988398 30.023067 32.289749
v 0.052224 30.659702 -20.248386
v -1.141263 30.181948 32.272236
v 0.003025 30.874735 -20.253122
v -1.190461 30.396980 32.267502
v 0.060608 31.081154 -20.258280
v -1.133456 30.593971 32.308475
v 0.213571 31.239561 -20.272055
v -0.980494 30.752378 32.294704
v 0.424019 31.287100 -20.259699
v -0.767196 30.809767 32.309109
v 0.629030 31.240328 -20.266687
v -0.565035 30.753147 32.300072
v 0.781895 31.081446 -20.249174
v -0.412170 30.594261 32.317581
v 0.831093 30.866415 -20.244438
v -0.342755 30.373571 32.321415
v 0.773510 30.659996 -20.239283
v -0.399760 30.176580 32.280437
v 0.621126 30.511013 -20.271641
v -0.572939 30.023830 32.295116
v 0.407250 30.444199 -20.239910
v -0.763170 29.970633 32.281857
v 0.205667 30.510250 -20.277008
v -0.988398 30.023067 32.289749
v -0.682806 30.161749 27.995905
v -0.745726 30.178314 27.950436
v -0.635377 28.620834 25.518566
v -0.693175 28.647671 25.523325
v -0.613355 28.475334 24.479702
v -0.671153 28.502171 24.484461
v -0.585897 28.424145 23.460176
v -0.661060 28.466492 23.467890
v -0.628167 28.509609 22.467712
v -0.630867 30.207600 23.006973
v -0.595624 30.204369 21.372480
v -0.704783 30.194782 26.320042
v -0.668961 30.200977 24.639418
v -0.373207 30.178226 14.784765
v -0.324802 30.187023 14.835238
v -0.543439 28.580799 21.473919
v -0.468540 28.613060 21.481451
v -0.573219 28.472923 22.460903
v -0.495469 28.515034 22.470484
v -0.585897 28.424145 23.460176
v -0.528363 28.471918 23.470661
v -0.538456 28.507597 24.487234
v -0.498169 30.213024 23.009747
v -0.536842 30.196978 24.688322
v -0.462926 30.209795 21.375254
v -0.424832 30.216413 19.742811
v -0.389589 30.213184 18.108318
v -0.351495 30.219803 16.475876
v -0.342755 30.373571 32.321415
v -0.412170 30.594261 32.317581
v -0.399760 30.176580 32.280437
v -0.565035 30.753147 32.300072
v -0.767196 30.809767 32.309109
v -0.980494 30.752378 32.294704
v -1.133456 30.593971 32.308475
v -1.190461 30.396980 32.267502
v -1.141263 30.181948 32.272236
v -0.988398 30.023067 32.289749
v -0.763170 29.970633 32.281857
v -0.107061 30.618790 16.512417
v -0.036771 30.668571 14.841131
v -0.148005 30.602320 18.142811
v 1.129749 31.348135 21.531742
v -0.191799 30.576002 19.771156
v -0.232742 30.559532 21.401550
v 1.129485 31.422741 21.546988
v 1.206535 31.464903 22.517906
v 1.186006 31.386526 22.549696
v 1.210959 31.475220 23.529476
v 1.210646 31.391182 23.560364
v 1.137319 31.359388 24.562351
v -0.293902 30.548727 23.032850
v -0.337696 30.522408 24.661196
v -0.440643 30.560310 27.984266
v 0.983128 31.350245 25.567951
v -0.471947 30.610613 27.946087
v 0.928180 31.386930 25.574760
v -0.454070 30.622894 26.314547
v -0.410276 30.649212 24.686203
v 1.137632 31.443426 24.531464
v 1.062468 31.485773 24.539175
v -0.369331 30.665684 23.055807
v 1.210959 31.475220 23.529476
v 1.135795 31.517567 23.537188
v 1.131371 31.507248 22.525618
v -0.304743 30.695766 21.380424
v 1.074536 31.459427 21.553795
v -0.263799 30.712236 19.750029
v -0.222855 30.728704 18.119637
v 1.206535 31.464903 22.517906
v 1.129485 31.422741 21.546988
v -0.091984 30.779867 14.863184
v -0.042158 30.732910 14.806146
v -0.179061 30.755024 16.491289
v 1.137632 31.443426 24.531464
v 0.986242 31.285484 25.554754
v -0.378641 30.505939 26.291590
v 0.983128 31.350245 25.567951
v -0.414462 30.499741 27.972214
v 0.213571 31.239561 -20.272055
v 0.424019 31.287100 -20.259699
v 0.060608 31.081154 -20.258280
v 0.629030 31.240328 -20.266687
v 0.781895 31.081446 -20.249174
v 0.831093 30.866415 -20.244438
v 0.773510 30.659996 -20.239283
v 0.621126 30.511013 -20.271641
v 0.407250 30.444199 -20.239910
v 0.205667 30.510250 -20.277008
v 0.052224 30.659702 -20.248386
v -0.573219 28.472923 22.460903
v -0.598387 28.617485 21.480728
v -0.543439 28.580799 21.473919
v -0.434434 30.185783 14.833610
v -0.373207 30.178226 14.784765
v -0.557531 30.210987 19.740036
v -0.522287 30.207758 18.105545
v -0.484192 30.214376 16.473103
v -0.899385 30.561024 27.978657
v -0.864339 30.614037 27.941866
v -2.198717 31.388525 25.487810
v -2.144034 31.426447 25.496244
v -2.307337 31.471275 24.493956
v -2.231859 31.512962 24.455355
v -2.322847 31.505594 23.443302
v -2.265313 31.553370 23.453787
v -2.206238 31.535915 22.441555
v -0.761145 30.678534 23.005455
v -0.720202 30.695002 21.375059
v -0.803179 30.624844 26.310568
v -0.782451 30.646975 24.681076
v -2.281716 31.494225 22.480158
v -2.110160 31.487858 21.471603
v -2.164843 31.449934 21.463165
v -0.659779 30.788765 14.809816
v -0.697096 30.735331 14.798429
v -0.699474 30.717133 19.745567
v -0.678746 30.739264 18.116076
v -0.658018 30.761395 16.486586
v 0.617051 31.191502 -20.228748
v 0.678722 31.230101 -23.488634
v 0.414889 31.248123 -20.219711
v 0.493927 31.271210 -23.482550
v 0.227508 31.204773 -20.230923
v 0.306546 31.227861 -23.493761
v 0.098190 31.059980 -20.262136
v 0.159862 31.098577 -23.522022
v 0.512778 30.910471 -24.709648
v -0.899385 30.561024 27.978657
v -2.198717 31.388525 25.487810
v -0.919336 30.492077 27.964317
v -2.198453 31.313913 25.472565
v -0.880664 30.508121 26.285740
v -0.859936 30.530252 24.656250
v -2.307337 31.471275 24.493956
v -2.309923 31.386816 24.476662
v -0.818993 30.546721 23.025856
v -2.322847 31.505594 23.443302
v -2.323160 31.421558 23.474190
v -2.281452 31.419615 22.464912
v -0.798265 30.568853 21.396364
v -2.161728 31.385174 21.449970
v -0.777537 30.590984 19.766874
v -0.759660 30.603266 18.135334
v -2.281716 31.494225 22.480158
v -2.164843 31.449934 21.463165
v -0.711926 30.676655 14.834316
v -0.697096 30.735331 14.798429
v -0.718137 30.629162 16.458807
v -0.682806 30.161749 27.995905
v -0.635377 28.620834 25.518566
v -0.615879 30.173889 27.951160
v -0.563328 28.643246 25.524052
v -0.572085 30.200207 26.322815
v -0.613355 28.475334 24.479702
v 0.098190 31.059980 -20.262136
v 0.159862 31.098577 -23.522022
v 0.046308 30.873259 -20.252882
v 0.105129 30.902010 -23.514816
v 0.080990 30.683588 -20.243145
v 0.162878 30.716526 -23.503933
v 0.217068 30.549648 -20.268812
v 0.298955 30.582584 -23.529602
v 0.512778 30.910471 -24.709648
v 0.217068 30.549648 -20.268812
v 0.298955 30.582584 -23.529602
v 0.418651 30.483597 -20.231716
v 0.500538 30.516537 -23.492506
v 0.608882 30.536797 -20.218460
v 0.688498 30.569313 -23.527431
v 0.756144 30.675507 -20.236330
v 0.814965 30.704256 -23.498264
v 0.512778 30.910471 -24.709648
v 0.756144 30.675507 -20.236330
v 0.814965 30.704256 -23.498264
v 0.808027 30.862228 -20.245584
v 0.869698 30.900827 -23.505470
v 0.753128 31.057558 -20.254419
v 0.814800 31.096159 -23.514305
v 0.617051 31.191502 -20.228748
v 0.678722 31.230101 -23.488634
v 0.512778 30.910471 -24.709648
v 0.179721 30.971586 -23.259327
v 0.191694 30.899061 -23.514332
v -0.541999 30.896732 -22.322338
v 0.182523 30.822790 -23.241634
v -0.487093 30.822754 -22.096434
v -0.190353 30.820597 -22.285419
v -0.597652 30.812113 -21.571259
v -0.190617 30.895206 -22.270174
v -0.597338 30.896149 -21.602148
v -1.180354 30.809103 -20.906242
v -0.844295 30.814058 -21.237488
v -0.762973 30.810314 -20.372028
v -0.690038 30.804838 -20.660635
v -0.543710 30.812790 -20.368773
v -0.398190 30.801863 -20.465317
v -0.398454 30.876471 -20.450071
v -0.097170 30.875156 -20.542694
v -0.398141 30.960508 -20.480957
v -0.077218 30.944103 -20.528353
v -0.179685 30.944105 -20.866104
v 0.121828 30.952242 -20.524193
v -0.193732 30.959967 -22.256981
v -0.489894 30.971552 -22.114126
v -1.180305 30.967749 -20.921886
v -1.293637 30.900490 -21.081257
v -0.176571 30.879343 -20.879301
v -0.692839 30.953634 -20.678324
v -0.547090 30.952158 -20.340332
v -0.546825 30.877548 -20.355577
v -0.766087 30.875072 -20.358833
v -0.689724 30.888876 -20.691521
v -0.844560 30.888666 -21.222242
v -0.844247 30.972704 -21.253130
v -0.597338 30.896149 -21.602148
v -0.597603 30.970758 -21.586903
v -0.190617 30.895206 -22.270174
v -0.765774 30.959108 -20.389721
v -1.293637 30.900490 -21.081257
v -0.766087 30.875072 -20.358833
v -0.176571 30.879343 -20.879301
v -0.196522 30.810398 -20.893642
v 0.121779 30.793594 -20.508551
v -0.094055 30.810398 -20.555891
v 0.122092 30.877632 -20.539438
v -0.689724 30.888876 -20.691521
v -0.844560 30.888666 -21.222242
v 0.432190 29.599358 -21.229403
v 0.498539 29.602070 -21.228016
v 0.441989 29.843700 -21.563875
v 0.505488 29.836565 -21.564537
v 0.453301 30.228231 -22.254213
v 0.539866 30.225283 -22.253733
v 0.435466 30.253242 -20.855385
v 0.501815 30.255957 -20.854000
v 0.499932 29.751732 -20.668674
v 0.485473 30.057093 -20.462246
v 0.492817 29.909138 -20.348192
v 0.419124 30.054382 -20.463633
v 0.406252 29.912086 -20.348675
v 0.339903 29.909376 -20.350061
v 0.409317 29.688683 -20.346228
v 0.342969 29.685968 -20.347614
v 0.494171 30.562580 -20.503029
v 0.500665 30.358452 -20.544666
v 0.414100 30.361403 -20.545149
v 0.352775 30.051666 -20.465019
v 0.347018 29.751968 -20.670544
v 0.365841 29.596643 -21.230789
v 0.350606 29.257992 -20.915655
v 0.379153 29.934851 -22.074770
v 0.462597 29.875307 -22.278160
v 0.402001 30.592010 -23.237980
v 0.500852 30.600573 -23.523394
v 0.554915 30.591776 -23.236113
v 0.529217 29.924767 -22.074949
v 0.483304 29.263416 -20.912884
v 0.475666 29.691395 -20.344843
v 0.424342 29.150043 -21.032927
v 0.413367 29.754681 -20.669157
v 0.424342 29.150043 -21.032927
v 0.409317 29.688683 -20.346228
v 0.427822 30.559868 -20.504416
v 0.347751 30.358688 -20.546537
v 0.341835 30.572245 -20.551029
v 0.348901 30.256191 -20.855869
v 0.435466 30.253242 -20.855385
v 0.386953 30.225519 -22.255602
v 0.453301 30.228231 -22.254213
v 0.375640 29.840988 -21.565262
v 0.441989 29.843700 -21.563875
v 0.432190 29.599358 -21.229403
v 0.413367 29.754681 -20.669157
v 0.733434 30.792650 -20.501074
v 0.930209 30.800367 -20.545095
v 0.733748 30.876688 -20.531961
v 0.929944 30.874975 -20.529850
v 0.947045 30.934072 -20.517557
v 1.237200 30.940104 -20.416555
v 1.063841 30.936550 -20.852055
v 1.554158 30.932285 -20.606443
v 1.046740 30.877455 -20.864346
v 1.554422 30.857676 -20.621689
v 1.046426 30.793415 -20.833462
v 1.237730 30.790888 -20.447044
v 1.237465 30.865496 -20.431799
v 1.391808 30.930861 -20.320370
v 1.611071 30.933338 -20.317114
v 1.725943 30.935371 -21.180464
v 2.047673 30.937845 -20.839453
v 1.407992 30.952148 -22.046223
v 1.465519 30.878569 -22.252808
v 0.791377 30.970642 -23.251848
v 0.803349 30.898115 -23.506855
v 1.537321 30.798580 -20.633982
v 1.374393 30.787727 -20.301775
v 1.374706 30.871763 -20.332663
v 1.591119 30.864391 -20.331455
v 1.046740 30.877455 -20.864346
v 1.118945 30.806328 -22.223852
v 1.119259 30.890368 -22.254740
v 1.497009 30.800428 -21.547380
v 1.493894 30.865187 -21.534184
v 1.728744 30.786575 -21.162771
v 1.729059 30.870611 -21.193659
v 1.554422 30.857676 -20.621689
v 0.794178 30.821844 -23.234158
v 1.410793 30.803352 -22.028532
v 2.047624 30.779200 -20.823811
v 2.170970 30.857550 -20.998520
v 1.611021 30.774693 -20.301472
v 2.170970 30.857550 -20.998520
v 1.591119 30.864391 -20.331455
v 1.729059 30.870611 -21.193659
v 1.493894 30.865187 -21.534184
v 1.494208 30.949224 -21.565073
v 1.119259 30.890368 -22.254740
v 1.136360 30.949465 -22.242447
v 0.730633 30.941446 -20.518764
v 0.431115 31.997532 -20.643148
v 0.452308 32.159920 -21.186501
v 0.514830 31.984734 -20.644714
v 0.518657 32.162636 -21.185112
v 0.505129 32.057682 -20.341530
v 0.517292 32.498390 -20.876177
v 0.452414 32.598568 -21.000715
v 0.457417 31.927485 -21.570408
v 0.523765 31.930199 -21.569021
v 0.541745 31.840054 -22.067886
v 0.541110 31.550625 -22.223183
v 0.571899 31.201420 -23.255501
v 0.511155 31.172224 -20.522419
v 0.520690 31.491179 -20.841650
v 0.434125 31.494127 -20.842133
v 0.474761 31.547911 -22.224569
v 0.435930 32.045120 -20.344963
v 0.352215 32.057919 -20.343397
v 0.384594 32.492958 -20.878950
v 0.385960 32.157211 -21.187887
v 0.364766 31.994820 -20.644537
v 0.452308 32.159920 -21.186501
v 0.431115 31.997532 -20.643148
v 0.457417 31.927485 -21.570408
v 0.391068 31.924772 -21.571795
v 0.474761 31.547911 -22.224569
v 0.388196 31.550861 -22.225052
v 0.434125 31.494127 -20.842133
v 0.367776 31.491415 -20.843517
v 0.353539 31.684874 -20.419622
v 0.355281 31.834513 -20.340952
v 0.440104 31.681925 -20.419140
v 0.421630 31.837227 -20.339565
v 0.508195 31.834276 -20.339081
v 0.435930 32.045120 -20.344963
v 0.358241 31.172461 -20.524288
v 0.352325 31.386017 -20.528784
v 0.438890 31.383068 -20.528301
v 0.506452 31.684637 -20.417753
v 0.424590 31.175175 -20.522902
v 0.505239 31.385782 -20.526915
v 0.483411 31.894754 -22.249710
v 0.452414 32.598568 -21.000715
v 0.388831 31.840290 -22.069756
v 0.418985 31.201654 -23.257372
v 0.497042 31.206451 -23.495747
v -0.440643 30.560310 27.984266
v -0.042158 30.732910 14.806146
v -0.572939 30.023830 32.295116
v 0.003025 30.874735 -20.253122
vn -0.9852 0.0121 -0.1710
vn -0.8568 -0.4849 -0.1753
vn -0.8695 -0.4934 -0.0233
vn -0.9997 0.0076 -0.0225
vn 0.2711 0.9537 -0.1301
vn 0.0116 0.9899 -0.1414
vn 0.0071 0.9999 0.0075
vn 0.2648 0.9642 0.0142
vn -0.8616 0.5074 -0.0148
vn -0.8617 0.5073 -0.0148
vn -0.9997 0.0077 -0.0225
vn -0.0225 -0.3092 0.9507
vn -0.0249 0.0454 0.9987
vn -0.7279 0.3166 0.6082
vn -0.7373 -0.2109 0.6418
vn -0.2584 -0.9526 -0.1608
vn -0.0038 -0.9866 -0.1632
vn -0.0111 -0.9999 -0.0095
vn -0.2648 -0.9642 -0.0142
vn 0.4971 -0.8625 0.0943
vn 0.9128 -0.4040 0.0596
vn 0.9094 -0.3829 0.1627
vn 0.4742 -0.8220 0.3153
vn -0.8315 0.0123 -0.5553
vn 0.4490 0.0027 -0.8935
vn 0.1527 0.9497 -0.2735
vn -0.3935 0.8812 -0.2619
vn -0.8716 -0.4897 -0.0225
vn -0.9210 -0.3855 -0.0556
vn -0.8064 -0.5893 -0.0498
vn -0.7618 -0.6434 -0.0756
vn -0.5128 -0.8582 -0.0205
vn -0.5128 -0.8583 -0.0205
vn -0.6171 -0.7062 0.3471
vn -0.5224 -0.8510 0.0542
vn -0.9919 0.0058 0.1271
vn -0.8676 0.0019 0.4973
vn -0.8613 -0.4356 0.2616
vn -0.9998 0.0026 -0.0197
vn -0.9230 -0.3657 0.1198
vn 0.7932 -0.6065 0.0547
vn 0.4968 -0.8678 0.0046
vn 0.4930 -0.8700 0.0045
vn 0.8586 -0.5122 0.0215
vn 0.4023 -0.8781 -0.2591
vn 0.0255 -0.9865 0.1615
vn 0.2127 -0.0097 0.9771
vn 0.8556 -0.0035 -0.5176
vn -0.1351 -0.9455 -0.2962
vn -0.4072 0.0125 -0.9133
vn 0.4576 -0.8676 -0.1947
vn 0.8947 -0.4431 -0.0562
vn 0.4798 -0.8661 -0.1401
vn 0.9393 -0.3413 -0.0349
vn -0.3263 -0.0072 0.9452
vn 0.0279 -0.0107 0.9996
vn 0.3088 0.7090 0.6340
vn -0.2166 0.7158 0.6639
vn 0.8787 -0.0048 -0.4773
vn 0.1244 -0.9891 -0.0789
vn 0.8787 -0.0047 -0.4773
vn 0.3807 0.9130 0.1468
vn 0.7615 -0.0113 0.6481
vn 0.2947 -0.7273 0.6198
vn 0.3639 -0.9216 0.1350
vn 0.9147 -0.4040 -0.0095
vn 0.9996 -0.0126 0.0253
vn 0.8638 -0.5036 0.0155
vn -0.9882 -0.0358 0.1491
vn -0.8736 -0.3937 -0.2859
vn -0.9020 -0.0201 0.4312
vn 0.9798 -0.0508 0.1932
vn 0.9889 -0.1385 -0.0545
vn 0.8821 -0.0356 0.4697
vn -0.8558 0.0113 -0.5172
vn -0.3851 -0.9153 0.1183
vn -0.7923 0.0028 0.6102
vn -0.3329 -0.7218 0.6067
vn -0.0371 0.9841 0.1739
vn -0.1217 0.9903 -0.0665
vn 0.6023 0.6996 0.3845
vn 0.9998 -0.0112 0.0180
vn 0.9996 -0.0170 0.0245
vn 0.9933 -0.1137 0.0200
vn -0.0550 -0.9854 0.1614
vn -0.1364 -0.9866 -0.0892
vn -0.0437 -0.8973 0.4394
vn 0.6909 -0.0941 0.7168
vn -0.0253 -0.1226 0.9921
vn 0.8817 0.0126 0.4716
vn 0.9509 -0.3091 0.0181
vn 0.0246 0.0094 -0.9997
vn 0.0244 0.0094 -0.9997
vn 0.0246 0.0093 -0.9997
vn -0.0228 -0.0099 0.9997
vn -0.0229 -0.0097 0.9997
vn -0.9583 -0.0099 0.2856
vn -0.7915 -0.5993 0.1198
vn -0.8174 -0.5132 0.2615
vn -0.8886 -0.0205 0.4583
vn 0.4968 -0.8678 0.0045
vn 0.7539 -0.6552 -0.0476
vn 0.7953 -0.6060 -0.0138
vn 0.9993 -0.0184 0.0318
vn 0.9939 -0.0194 0.1084
vn 0.8851 0.4008 -0.2366
vn 0.9533 -0.1390 -0.2682
vn 0.6915 -0.3354 0.6398
vn 0.0230 0.8711 -0.4906
vn 0.0229 0.8711 -0.4906
vn -0.9850 0.1417 -0.0989
vn 0.9911 0.1209 -0.0552
vn 0.9912 0.1207 -0.0551
vn -0.5148 -0.8536 -0.0791
vn -0.5171 -0.8558 -0.0125
vn -0.9996 0.0041 -0.0271
vn -0.9433 -0.3226 -0.0778
vn -0.9850 0.1416 -0.0988
vn -0.8612 -0.5054 0.0540
vn -0.9167 0.3823 0.1168
vn -0.7205 -0.6028 0.3429
vn -0.9883 0.0509 0.1440
vn -0.9038 0.0271 0.4271
vn -0.1066 0.9940 -0.0248
vn -0.1731 0.9837 -0.0478
vn -0.4883 0.8726 -0.0069
vn -0.4901 0.8716 0.0003
vn -0.7235 -0.3223 0.6105
vn -0.9427 -0.1225 -0.3103
vn -0.8672 0.4165 -0.2730
vn -0.7199 -0.0808 0.6894
vn 0.9176 0.3657 0.1556
vn 0.8500 -0.5193 0.0884
vn -0.8058 -0.5919 0.0179
vn -0.5149 -0.8571 -0.0165
vn -0.8676 0.0020 0.4973
vn -0.6065 0.7081 0.3614
vn 0.0458 0.9829 0.1785
vn 0.2127 -0.0100 0.9771
vn 0.4224 0.8736 -0.2417
vn 0.8556 -0.0036 -0.5176
vn 0.9917 -0.0100 -0.1278
vn 0.8635 0.4869 -0.1316
vn 0.8699 0.4925 0.0271
vn 0.9998 -0.0074 0.0188
vn 0.7057 -0.2215 0.6730
vn 0.7048 0.3043 0.6408
vn -0.0254 -0.4632 0.8859
vn -0.0219 0.2921 0.9561
vn -0.7354 0.2107 0.6440
vn -0.7350 -0.3128 0.6016
vn -0.0249 -0.0593 0.9979
vn 0.0183 0.8481 -0.5295
vn 0.9805 0.0285 0.1944
vn -0.0187 0.2246 0.9743
vn -0.0128 -0.9905 0.1369
vn -0.0220 -0.8595 0.5107
vn 0.6940 -0.6141 0.3758
vn -0.0251 -0.0594 0.9979
vn -0.0243 0.1042 0.9943
vn 0.6915 0.0677 0.7192
vn -0.0067 0.7688 0.6395
vn -0.7092 0.6070 0.3587
vn -0.0079 0.8509 0.5252
vn -0.0266 -0.2427 0.9697
vn 0.1397 0.9783 0.1532
vn 0.1247 0.9906 0.0558
vn -0.4828 0.8714 0.0876
vn -0.4576 0.8347 0.3063
vn -0.1051 -0.7107 0.6956
vn -0.3391 -0.7114 0.6155
vn -0.4791 -0.0046 0.8777
vn -0.1390 -0.0065 0.9903
vn 0.9930 0.0011 -0.1180
vn 0.8227 -0.5653 -0.0590
vn 0.9845 0.0242 -0.1740
vn -0.0732 -0.0085 0.9973
vn 0.2822 -0.0128 0.9593
vn 0.2043 0.7134 0.6703
vn -0.3234 0.7143 0.6206
vn 0.5008 0.8654 0.0164
vn 0.1921 0.9805 -0.0407
vn 0.1247 0.9921 -0.0139
vn 0.5053 0.8628 0.0161
vn 0.1326 -0.9473 -0.2914
vn 0.4490 0.0025 -0.8935
vn -0.8315 0.0123 -0.5554
vn -0.4085 -0.8693 -0.2782
vn 0.0182 -0.4163 -0.9090
vn 0.0279 -0.0108 0.9996
vn -0.0880 0.6994 0.7093
vn 0.0201 0.8905 0.4545
vn -0.7218 0.3229 0.6121
vn -0.0171 0.4495 0.8931
vn -0.7193 0.0808 0.6900
vn -0.0229 -0.0099 0.9997
vn -0.0229 -0.0100 0.9997
vn -0.0227 -0.0099 0.9997
vn -0.0228 -0.0100 0.9997
vn 0.7305 -0.6827 0.0154
vn 0.5810 -0.8139 0.0019
vn 0.0151 0.9998 0.0114
vn -0.4834 0.8754 0.0050
vn 0.4381 -0.0140 0.8988
vn 0.3159 0.6988 0.6418
vn -0.0395 0.9564 0.2895
vn -0.1305 0.9802 0.1489
vn -0.4863 0.8738 0.0010
vn 0.1402 0.9880 -0.0648
vn 0.1400 0.9880 -0.0647
vn -0.5043 0.8604 0.0736
vn 0.0029 0.9999 0.0138
vn -0.2554 -0.0094 0.9668
vn 0.8422 -0.0120 0.5390
vn -0.3953 0.9185 -0.0031
vn -0.0597 0.9962 -0.0633
vn -0.2096 0.9777 0.0096
vn 0.1242 -0.9891 -0.0788
vn -0.2326 -0.7238 0.6496
vn 0.7710 -0.6171 0.1573
vn 0.7965 -0.5250 0.2998
vn 0.4969 -0.8678 0.0046
vn 0.0051 -0.8970 0.4421
vn -0.9919 0.0057 0.1271
vn 0.0571 -0.7117 0.7002
vn 0.2996 -0.7185 0.6277
vn 0.0247 0.0092 -0.9997
vn 0.0247 0.0094 -0.9997
vn 0.0248 0.0094 -0.9996
vn -0.1168 0.9530 -0.2797
vn 0.1861 -0.7284 0.6593
vn -0.3322 0.7060 0.6255
vn 0.0803 0.9948 -0.0621
vn -0.5073 0.8376 -0.2025
vn -0.4918 0.8580 -0.1482
vn -0.2553 -0.0091 0.9668
vn -0.5055 -0.8119 0.2921
vn -0.4752 -0.7496 0.4607
vn 0.0925 -0.0106 0.9957
vn 0.0688 0.6983 0.7125
vn 0.9433 -0.0287 0.3307
vn -0.4803 0.8750 -0.0618
vn -0.4830 0.8612 -0.1582
vn -0.4931 0.8700 -0.0037
vn 0.5047 0.8630 0.0224
vn 0.6987 -0.3276 0.6360
vn 0.7088 0.1954 0.6778
vn 0.9991 -0.0177 -0.0373
vn -0.9948 -0.0995 -0.0212
vn 0.0442 0.9551 0.2929
vn -0.4231 0.7693 0.4787
vn -0.8979 -0.4297 -0.0952
vn -0.9564 -0.2910 -0.0252
vn 0.8425 -0.4509 0.2947
vn 0.4415 -0.7574 0.4811
vn 0.4930 -0.8700 0.0042
vn -0.0112 -0.9999 -0.0095
vn 0.4929 -0.8700 0.0042
vn -0.9879 -0.1198 -0.0986
vn -0.9879 -0.1197 -0.0985
vn -0.8520 0.5195 0.0647
vn 0.0053 -0.8377 -0.5461
vn 0.8778 -0.4133 -0.2422
vn 0.9559 0.1267 -0.2649
vn 0.0265 0.4345 -0.9003
vn -0.0265 -0.2427 0.9697
vn -0.9404 0.1447 -0.3078
vn -0.1085 0.9929 0.0481
vn -0.4901 0.8717 0.0006
vn -0.0202 -0.7832 0.6214
vn 0.9112 -0.3848 0.1472
vn -0.9231 -0.3678 0.1119
vn -0.9501 0.2650 -0.1643
vn -0.9636 0.2666 -0.0192
vn -0.0078 0.8509 0.5252
vn 0.7027 0.5952 0.3898
vn 0.0067 -0.8624 -0.5062
vn 0.9889 -0.1384 -0.0544
vn 0.8583 0.5037 0.0983
vn 0.5006 0.8654 0.0233
vn -0.4897 -0.8560 -0.1656
vn 0.6977 0.3088 0.6464
vn 0.5046 0.8630 0.0224
vn 0.4130 0.9106 0.0151
vn 0.2290 0.9733 0.0162
vn -0.6876 0.7085 -0.1589
vn -0.2314 0.9225 -0.3089
vn 0.0044 0.9871 0.1597
vn 0.0125 0.9999 0.0077
vn 0.5090 0.8605 0.0220
vn -0.5976 -0.8015 -0.0209
vn -0.9999 0.0011 -0.0123
vn -0.9977 -0.0028 0.0678
vn 0.4988 -0.8666 0.0124
vn -0.8301 -0.5487 -0.0994
vn -0.7408 -0.6714 -0.0202
vn -0.9853 0.0206 -0.1693
vn -0.9742 0.0417 -0.2216
vn -0.9225 -0.3857 0.0174
vn -0.5176 -0.8531 0.0657
vn 0.0181 -0.4164 -0.9090
vn -0.5085 -0.8608 -0.0209
vn -0.5086 -0.8608 -0.0209
vn 0.9996 -0.0169 0.0245
vn 0.4999 0.8656 0.0298
vn 0.4970 0.8668 -0.0410
vn 0.9567 -0.2622 -0.1263
vn 0.9636 -0.2666 0.0192
vn -0.5082 -0.8610 -0.0209
vn -0.5083 -0.8610 -0.0209
vn -0.7018 -0.6928 -0.1658
vn -0.9107 -0.2350 -0.3396
vn -0.9966 -0.0030 -0.0824
vn -0.0255 0.8895 0.4563
vn 0.4878 -0.8605 -0.1466
vn 0.6948 -0.7063 -0.1356
vn 0.7004 -0.7137 0.0087
vn 0.2427 -0.9154 -0.3211
vn 0.5013 -0.8635 -0.0550
vn 0.9996 -0.0084 0.0262
vn 0.8616 -0.5073 0.0148
vn 0.8616 -0.5074 0.0148
vn -0.4931 0.8700 -0.0036
vn 0.7088 0.6947 -0.1223
vn 0.9257 0.2401 -0.2923
vn -0.4072 0.0126 -0.9133
vn 0.8422 -0.0119 0.5390
vn 0.9852 -0.0121 0.1708
vn 0.5023 -0.8610 0.0802
vn 0.5918 -0.7162 0.3698
vn -0.7128 -0.7010 -0.0225
vn 0.8676 -0.0366 0.4960
vn 0.7129 0.7009 0.0228
vn 0.0043 0.9872 0.1597
vn 0.4953 0.8621 0.1070
vn 0.4615 0.8253 0.3255
vn 0.4129 0.7628 0.4977
vn 0.5124 0.8494 -0.1262
vn 0.5317 0.8284 -0.1763
vn -0.1218 0.9903 -0.0666
vn -0.1362 -0.9867 -0.0891
vn -0.3718 0.9187 0.1331
vn -0.6998 0.7143 -0.0122
vn 0.5167 0.8506 0.0973
vn -0.4638 -0.8592 -0.2160
vn 0.9852 -0.0120 0.1708
vt 0.285275 0.547328
vt 0.142121 0.546842
vt 0.147964 0.338472
vt 0.292091 0.338958
vt 0.409438 0.548300
vt 0.416742 0.339930
vt 0.531168 0.005275
vt 0.577912 0.004789
vt 0.577912 0.998554
vt 0.531168 0.998554
vt 0.241452 0.689156
vt 0.175718 0.689156
vt 0.176205 0.687213
vt 0.236583 0.687699
vt 0.025261 0.088331
vt 0.041329 0.088331
vt 0.071031 0.069874
vt 0.057397 0.069389
vt 0.312542 0.673613
vt 0.203959 0.678470
vt 0.197143 0.679442
vt 0.330558 0.674099
vt 0.032565 0.106788
vt 0.393370 0.115531
vt 0.041816 0.125245
vt 0.063727 0.143217
vt 0.393857 0.145645
vt 0.205907 0.655156
vt 0.144556 0.665356
vt 0.164032 0.665356
vt 0.224410 0.656127
vt 0.383632 0.026160
vt 0.390936 0.056274
vt 0.392883 0.085903
vt 0.307186 0.638156
vt 0.296474 0.641556
vt 0.373893 0.265616
vt 0.386066 0.265130
vt 0.049120 0.143702
vt 0.198116 0.637185
vt 0.407978 0.611442
vt 0.400187 0.604156
vt 0.051554 0.673613
vt 0.012114 0.670213
vt 0.001889 0.671184
vt 0.428915 0.682842
vt 0.221975 0.642528
vt 0.393370 0.175274
vt 0.392883 0.205388
vt 0.366590 0.682842
vt 0.370485 0.684299
vt 0.428428 0.684784
vt 0.392883 0.235016
vt 0.114367 0.295730
vt 0.320333 0.295730
vt 0.217106 0.298158
vt 0.298908 0.331187
vt 0.395318 0.317587
vt 0.369511 0.325358
vt 0.373893 0.025189
vt 0.016010 0.106788
vt 0.279432 0.684784
vt 0.025261 0.125245
vt 0.288683 0.686727
vt 0.160137 0.688184
vt 0.202499 0.333615
vt 0.106089 0.331187
vt 0.035486 0.325358
vt 0.009680 0.317587
vt 0.035486 0.309815
vt 0.106089 0.303987
vt 0.202499 0.302044
vt 0.298908 0.303987
vt 0.369511 0.309815
vt 0.038895 0.289416
vt 0.011140 0.280673
vt 0.038895 0.271930
vt 0.114367 0.265130
vt 0.217106 0.263187
vt 0.320333 0.265130
vt 0.395805 0.271930
vt 0.423559 0.280673
vt 0.395805 0.289416
vt 0.905120 0.004303
vt 0.951864 0.004303
vt 0.951864 0.997582
vt 0.905120 0.997582
vt 0.017470 0.547814
vt 0.211263 0.627470
vt 0.671400 0.004789
vt 0.718144 0.004789
vt 0.718144 0.998068
vt 0.671400 0.998068
vt 0.437680 0.005275
vt 0.484424 0.005275
vt 0.484424 0.998554
vt 0.437680 0.998554
vt 0.998608 0.004303
vt 0.998608 0.997582
vt 0.022826 0.339444
vt 0.811632 0.004789
vt 0.858376 0.004303
vt 0.858376 0.998068
vt 0.811632 0.998068
vt 0.624656 0.004789
vt 0.624656 0.998068
vt 0.764888 0.004789
vt 0.764888 0.998068
s 1
f 185/1/1 187/2/2 186/3/3 184/4/4
f 147/5/5 149/1/6 148/4/7 146/6/8
f 6/7/4 8/8/9 7/9/10 5/10/11
f 379/11/12 381/12/13 364/13/14 377/14/15
f 192/5/16 194/1/17 193/4/18 191/6/19
f 181/15/20 48/16/21 179/17/22 177/18/23
f 234/19/24 239/20/25 235/21/26 228/22/27
f 34/23/28 36/24/11 35/25/29
f 166/25/30 168/26/31 167/27/32 163/24/33
f 329/28/34 331/29/35 332/30/36 330/31/37
f 28/32/38 38/33/39 30/17/40
f 77/16/41 79/34/42 78/24/43 76/23/44
f 311/22/45 327/35/46 328/36/47 326/19/48
f 331/29/35 322/21/49 333/20/50 332/30/36
f 40/37/51 41/38/52 42/39/53
f 41/38/52 43/26/54 42/39/53
f 324/11/55 325/12/56 315/13/57 314/14/58
f 319/40/59 334/41/60 321/42/61
f 319/40/59 317/43/62 337/44/59
f 339/45/63 338/13/64 336/43/65
f 45/25/66 49/24/67 47/23/68
f 295/35/69 293/22/70 292/46/71
f 260/35/72 282/41/73 271/46/74
f 211/40/75 218/43/76 233/44/75
f 246/45/77 218/43/76 220/13/78
f 230/35/79 231/47/80 243/28/81
f 51/27/82 43/26/54 52/48/83
f 43/26/54 53/49/84 52/48/83
f 214/35/85 212/41/86 250/46/87
f 387/50/88 384/51/89 386/52/13 359/46/90
f 43/26/54 41/38/52 53/49/84
f 41/38/52 54/53/91 53/49/84
f 108/54/92 116/55/93 396/56/94
f 57/57/95 65/58/95 395/59/96
f 156/18/97 158/17/98 157/32/99 155/60/100
f 71/27/101 69/26/102 74/25/103 78/24/43
f 75/61/104 101/15/105 77/16/41 76/23/44
f 387/50/88 360/22/106 349/21/107 385/62/108
f 388/40/109 392/42/110 391/41/111
f 358/41/112 392/42/110 388/40/109
f 356/47/113 358/41/112 388/40/109
f 35/25/29 117/63/114 33/61/115 34/23/28
f 37/27/116 118/26/117 35/25/29 36/24/11
f 390/47/118 366/29/119 365/43/120
f 371/28/121 366/29/119 390/47/118
f 373/35/122 371/28/121 390/47/118
f 391/41/111 382/46/123 373/35/122
f 91/25/124 93/26/125 92/27/126 88/24/127
f 390/47/118 391/41/111 373/35/122
f 388/40/109 391/41/111 390/47/118
f 376/62/128 367/21/129 375/22/130 383/50/131
f 352/43/132 388/40/109 389/44/110
f 356/47/113 388/40/109 352/43/132
f 350/29/133 356/47/113 352/43/132
f 377/14/15 364/13/14 367/21/129
f 360/22/106 387/50/88 359/46/90
f 158/17/98 162/16/134 160/34/33 159/33/135
f 342/31/136 343/28/137 345/35/138 344/36/139
f 344/36/139 345/35/138 307/22/140 309/19/141
f 203/1/142 205/2/143 204/3/144 202/4/145
f 380/14/146 349/21/107 351/13/147
f 385/62/108 349/21/107 380/14/146
f 376/62/128 378/64/148 379/11/12 377/14/15
f 267/11/149 268/14/150 270/13/151 269/12/152
f 383/50/131 384/51/89 378/64/148 376/62/128
f 382/46/123 383/50/131 375/22/130
f 373/35/122 382/46/123 375/22/130
f 367/21/129 376/62/128 377/14/15
f 361/19/153 360/22/106 357/35/154 362/36/155
f 348/30/156 354/31/157 355/28/158 350/29/133
f 364/13/14 366/29/119 367/21/129
f 271/46/74 290/52/159 273/51/160 272/50/161
f 365/43/120 366/29/119 364/13/14
f 353/45/162 365/43/120 364/13/14
f 353/45/162 364/13/14 363/65/162
f 351/13/147 353/45/162 363/65/162
f 295/35/69 297/28/163 298/31/164 296/36/165
f 385/62/108 378/64/148 384/51/89 387/50/88
f 128/17/166 130/16/167 129/15/168 127/18/169
f 359/46/90 357/35/154 360/22/106
f 357/35/154 359/46/90 358/41/112
f 356/47/113 357/35/154 358/41/112
f 355/28/158 357/35/154 356/47/113
f 350/29/133 355/28/158 356/47/113
f 302/50/170 312/62/171 313/64/172 304/51/173
f 72/39/174 69/26/102 67/38/175 394/37/176
f 351/13/147 352/43/132 353/45/162
f 350/29/133 352/43/132 351/13/147
f 349/21/107 350/29/133 351/13/147
f 238/12/177 237/11/178 236/14/179 245/13/180
f 135/27/181 139/26/182 133/25/183 134/24/184
f 221/21/185 253/20/186 248/19/187 249/22/188
f 374/19/153 375/22/130 367/21/129 369/20/189
f 303/52/190 304/51/173 305/50/191 346/46/192
f 274/62/193 266/64/194 273/51/160 291/50/195
f 357/35/154 355/28/158 354/31/157 362/36/155
f 55/66/196 56/67/197 57/57/95
f 56/67/197 58/68/95 57/57/95
f 57/57/95 58/68/95 59/69/95
f 59/69/95 60/70/95 57/57/95
f 60/70/95 61/71/198 57/57/95
f 57/57/95 61/71/198 62/72/199
f 62/72/199 63/73/95 57/57/95
f 63/73/95 64/74/95 57/57/95
f 57/57/95 64/74/95 65/58/95
f 291/50/195 273/51/160 290/52/159 292/46/71
f 66/53/200 67/38/175 68/49/201
f 67/38/175 69/26/102 68/49/201
f 68/49/201 69/26/102 70/48/101
f 69/26/102 71/27/101 70/48/101
f 130/16/167 132/23/202 131/61/203 129/15/168
f 76/23/44 78/24/43 74/25/103
f 346/46/192 305/50/191 307/22/140
f 236/14/179 237/11/178 224/64/204 226/62/205
f 82/32/206 83/17/207 84/33/208
f 345/35/138 346/46/192 307/22/140
f 320/41/209 346/46/192 345/35/138
f 318/47/210 320/41/209 345/35/138
f 318/47/210 345/35/138 343/28/137
f 316/29/211 318/47/210 343/28/137
f 90/23/212 91/25/124 88/24/127
f 244/36/213 230/35/79 243/28/81 242/31/214
f 92/27/126 93/26/125 94/48/126
f 93/26/125 95/49/215 94/48/126
f 339/45/63 340/65/63 338/13/64
f 315/13/57 340/65/63 339/45/63
f 317/43/62 315/13/57 339/45/63
f 93/26/125 98/38/216 95/49/215
f 98/38/216 100/53/217 95/49/215
f 335/47/218 331/29/35 329/28/34
f 327/35/46 335/47/218 329/28/34
f 338/13/64 323/14/219 322/21/49
f 331/29/35 338/13/64 322/21/49
f 336/43/65 338/13/64 331/29/35
f 335/47/218 336/43/65 331/29/35
f 102/17/220 105/32/221 103/33/222
f 319/40/59 337/44/59 336/43/65
f 335/47/218 319/40/59 336/43/65
f 334/41/60 319/40/59 335/47/218
f 327/35/46 334/41/60 335/47/218
f 301/46/223 334/41/60 327/35/46
f 311/22/45 301/46/223 327/35/46
f 341/30/224 316/29/211 343/28/137 342/31/136
f 249/22/188 251/50/225 223/62/226 221/21/185
f 106/75/227 107/76/92 108/54/92
f 107/76/92 109/77/94 108/54/92
f 108/54/92 109/77/94 110/78/94
f 110/78/94 111/79/94 108/54/92
f 111/79/94 112/80/228 108/54/92
f 108/54/92 112/80/228 113/81/92
f 322/21/49 323/14/219 312/62/171
f 113/81/92 114/82/94 108/54/92
f 114/82/94 115/83/229 108/54/92
f 108/54/92 115/83/229 116/55/93
f 311/22/45 322/21/49 312/62/171
f 319/40/59 321/42/61 320/41/209
f 318/47/210 319/40/59 320/41/209
f 317/43/62 319/40/59 318/47/210
f 316/29/211 317/43/62 318/47/210
f 315/13/57 317/43/62 316/29/211
f 308/21/230 315/13/57 316/29/211
f 162/16/134 165/23/3 163/24/33 160/34/33
f 224/64/204 237/11/178 222/14/231 223/62/226
f 314/14/58 315/13/57 308/21/230
f 306/62/232 314/14/58 308/21/230
f 141/38/233 142/37/234 140/39/235 139/26/182
f 366/29/119 368/30/156 369/20/189 367/21/129
f 311/22/45 312/62/171 302/50/170
f 301/46/223 311/22/45 302/50/170
f 214/35/85 249/22/188 248/19/187 216/36/236
f 28/32/38 30/17/40 29/18/237 27/60/238
f 225/51/239 227/50/240 226/62/205 224/64/204
f 101/15/105 104/18/241 102/17/220 77/16/41
f 102/17/220 103/33/222 79/34/42 77/16/41
f 133/25/183 138/63/242 131/61/203 132/23/202
f 149/1/6 151/2/243 150/3/244 148/4/7
f 134/24/184 132/23/202 130/16/167 137/34/245
f 322/21/49 311/22/45 326/19/48 333/20/50
f 252/52/177 225/51/239 251/50/225 250/46/87
f 267/11/149 269/12/152 285/13/246 265/14/247
f 75/61/104 76/23/44 74/25/103 73/63/248
f 37/27/116 122/48/39 118/26/117
f 118/26/117 122/48/39 123/49/249
f 126/32/250 128/17/166 127/18/169 125/60/251
f 118/26/117 123/49/249 120/38/252
f 123/49/249 124/53/253 120/38/252
f 177/18/23 179/17/22 178/32/254 176/60/255
f 22/84/256 24/85/257 23/86/257 21/87/258
f 295/35/69 292/46/71 280/41/259
f 278/47/260 295/35/69 280/41/259
f 297/28/163 295/35/69 278/47/260
f 276/29/261 297/28/163 278/47/260
f 261/19/262 262/22/263 263/21/264 287/20/265
f 259/36/266 260/35/72 262/22/263 261/19/262
f 293/22/70 275/21/267 274/62/193
f 291/50/195 293/22/70 274/62/193
f 292/46/71 293/22/70 291/50/195
f 245/13/180 236/14/179 226/62/205 235/21/26
f 87/16/268 90/23/212 88/24/127 85/34/269
f 275/21/267 293/22/70 294/19/262 300/20/265
f 288/45/270 284/43/271 285/13/246
f 289/65/270 288/45/270 285/13/246
f 288/45/270 289/65/270 270/13/151
f 277/43/272 288/45/270 270/13/151
f 183/5/273 185/1/1 184/4/4 182/6/274
f 257/31/275 258/28/276 260/35/72 259/36/266
f 279/40/277 284/43/271 286/44/277
f 277/43/272 279/40/277 286/44/277
f 283/47/278 258/28/276 256/29/279
f 260/35/72 258/28/276 283/47/278
f 327/35/46 329/28/34 330/31/37 328/36/47
f 132/23/202 134/24/184 133/25/183
f 282/41/73 260/35/72 283/47/278
f 285/13/246 263/21/264 265/14/247
f 256/29/279 263/21/264 285/13/246
f 284/43/271 256/29/279 285/13/246
f 283/47/278 256/29/279 284/43/271
f 126/32/250 136/33/280 128/17/166
f 83/17/207 87/16/268 85/34/269 84/33/208
f 49/24/67 50/34/67 48/16/21 47/23/68
f 279/40/277 283/47/278 284/43/271
f 282/41/73 283/47/278 279/40/277
f 281/42/277 282/41/73 279/40/277
f 279/40/277 280/41/259 281/42/277
f 278/47/260 280/41/259 279/40/277
f 118/26/117 119/39/281 117/63/114 35/25/29
f 277/43/272 278/47/260 279/40/277
f 276/29/261 278/47/260 277/43/272
f 270/13/151 276/29/261 277/43/272
f 275/21/267 276/29/261 270/13/151
f 268/14/150 275/21/267 270/13/151
f 274/62/193 275/21/267 268/14/150
f 262/22/263 272/50/161 264/62/282
f 271/46/74 272/50/161 262/22/263
f 260/35/72 271/46/74 262/22/263
f 368/30/156 366/29/119 371/28/121 370/31/157
f 135/27/181 143/48/283 139/26/182
f 139/26/182 143/48/283 144/49/284
f 268/14/150 267/11/149 266/64/194 274/62/193
f 263/21/264 264/62/282 265/14/247
f 262/22/263 264/62/282 263/21/264
f 139/26/182 144/49/284 141/38/233
f 144/49/284 145/53/285 141/38/233
f 372/36/155 373/35/122 375/22/130 374/19/153
f 238/12/177 220/13/78 222/14/231 237/11/178
f 153/88/286 151/2/243 154/89/287
f 151/2/243 149/1/6 154/89/287
f 154/89/287 149/1/6 147/5/5
f 256/29/279 255/30/288 287/20/265 263/21/264
f 12/90/289 14/91/290 13/92/290 11/93/289
f 251/50/225 225/51/239 224/64/204 223/62/226
f 293/22/70 295/35/69 296/36/165 294/19/262
f 272/50/161 273/51/160 266/64/194 264/62/282
f 244/36/213 234/19/24 228/22/27 230/35/79
f 157/32/99 158/17/98 159/33/135
f 165/23/3 166/25/30 163/24/33
f 167/27/32 168/26/31 169/48/33
f 168/26/31 170/49/291 169/48/33
f 164/61/292 165/23/3 162/16/134 161/15/293
f 48/16/21 181/15/20 46/61/294 47/23/68
f 168/26/31 173/38/295 170/49/291
f 173/38/295 175/53/296 170/49/291
f 172/39/297 174/37/298 173/38/295 168/26/31
f 30/17/40 32/16/299 31/15/300 29/18/237
f 347/20/301 348/30/156 350/29/133 349/21/107
f 137/34/245 130/16/167 128/17/166 136/33/280
f 2/94/302 4/95/3 3/96/3 1/97/303
f 178/32/254 179/17/22 180/33/304
f 73/63/248 74/25/103 69/26/102 72/39/174
f 379/11/12 380/14/146 351/13/147 381/12/13
f 39/34/4 32/16/299 30/17/40 38/33/39
f 89/61/305 96/63/306 91/25/124 90/23/212
f 201/5/307 203/1/142 202/4/145 200/6/308
f 24/85/257 26/98/309 25/99/310 23/86/257
f 189/88/311 187/2/2 190/89/312
f 187/2/2 185/1/1 190/89/312
f 190/89/312 185/1/1 183/5/273
f 164/61/292 171/63/313 166/25/30 165/23/3
f 36/24/11 34/23/28 32/16/299 39/34/4
f 225/51/239 252/52/177 229/46/314 227/50/240
f 370/31/157 371/28/121 373/35/122 372/36/155
f 196/2/315 198/88/316 197/100/317 195/3/256
f 198/88/316 196/2/315 199/89/318
f 196/2/315 194/1/17 199/89/318
f 199/89/318 194/1/17 192/5/16
f 255/30/288 256/29/279 258/28/276 257/31/275
f 301/46/223 302/50/170 304/51/173 303/52/190
f 179/17/22 48/16/21 50/34/67 180/33/304
f 194/1/17 196/2/315 195/3/256 193/4/18
f 264/62/282 266/64/194 267/11/149 265/14/247
f 161/15/293 162/16/134 158/17/98 156/18/97
f 4/95/3 6/7/4 5/10/11 3/96/3
f 386/52/13 384/51/89 383/50/131 382/46/123
f 43/26/54 45/25/66 44/63/319 42/39/53
f 18/101/320 20/102/321 19/103/322 17/104/320
f 10/105/323 12/90/289 11/93/289 9/106/323
f 207/88/324 205/2/143 208/89/325
f 205/2/143 203/1/142 208/89/325
f 208/89/325 203/1/142 201/5/307
f 307/22/140 308/21/230 310/20/326 309/19/141
f 139/26/182 140/39/235 138/63/242 133/25/183
f 217/31/327 254/30/328 219/29/329 215/28/330
f 360/22/106 361/19/153 347/20/301 349/21/107
f 305/50/191 306/62/232 308/21/230 307/22/140
f 8/8/9 10/105/323 9/106/323 7/9/10
f 187/2/2 189/88/311 188/100/331 186/3/3
f 254/30/328 253/20/186 221/21/185 219/29/329
f 310/20/326 308/21/230 316/29/211 341/30/224
f 105/32/221 102/17/220 104/18/241 393/60/332
f 306/62/232 305/50/191 304/51/173 313/64/172
f 205/2/143 207/88/324 206/100/333 204/3/144
f 32/16/299 34/23/28 33/61/115 31/15/300
f 16/107/144 18/101/320 17/104/320 15/108/144
f 314/14/58 306/62/232 313/64/172 324/11/55
f 297/28/163 276/29/261 299/30/334 298/31/164
f 171/63/313 172/39/297 168/26/31 166/25/30
f 338/13/64 325/12/56 324/11/55 323/14/219
f 365/43/120 389/44/110 388/40/109 390/47/118
f 14/91/290 16/107/144 15/108/144 13/92/290
f 86/15/335 87/16/268 83/17/207 81/18/336
f 81/18/336 83/17/207 82/32/206 80/60/337
f 89/61/305 90/23/212 87/16/268 86/15/335
f 51/27/82 49/24/67 45/25/66 43/26/54
f 97/39/338 99/37/339 98/38/216 93/26/125
f 216/36/236 217/31/327 215/28/330 214/35/85
f 209/41/340 210/42/75 211/40/75
f 210/42/75 212/41/86 211/40/75
f 211/40/75 212/41/86 213/47/341
f 212/41/86 214/35/85 213/47/341
f 213/47/341 214/35/85 215/28/330
f 211/40/75 213/47/341 218/43/76
f 213/47/341 219/29/329 218/43/76
f 218/43/76 219/29/329 220/13/78
f 219/29/329 221/21/185 220/13/78
f 220/13/78 221/21/185 222/14/231
f 221/21/185 223/62/226 222/14/231
f 45/25/66 47/23/68 46/61/294 44/63/319
f 380/14/146 379/11/12 378/64/148 385/62/108
f 226/62/205 227/50/240 228/22/27
f 227/50/240 229/46/314 228/22/27
f 228/22/27 229/46/314 230/35/79
f 229/46/314 209/41/340 230/35/79
f 230/35/79 209/41/340 231/47/80
f 209/41/340 211/40/75 231/47/80
f 231/47/80 211/40/75 232/43/342
f 211/40/75 233/44/75 232/43/342
f 151/2/243 153/88/286 152/100/343 150/3/244
f 20/102/321 22/84/256 21/87/258 19/103/322
f 228/22/27 235/21/26 226/62/205
f 312/62/171 323/14/219 324/11/55 313/64/172
f 96/63/306 97/39/338 93/26/125 91/25/124
f 243/28/81 231/47/80 241/29/344
f 231/47/80 232/43/342 241/29/344
f 241/29/344 232/43/342 245/13/180
f 232/43/342 246/45/77 245/13/180
f 245/13/180 246/45/77 247/65/77
f 246/45/77 220/13/78 247/65/77
f 241/29/344 245/13/180 235/21/26
f 120/38/252 121/37/345 119/39/281 118/26/117
f 240/30/346 241/29/344 235/21/26 239/20/25
f 219/29/329 213/47/341 215/28/330
f 242/31/214 243/28/81 241/29/344 240/30/346
f 214/35/85 250/46/87 249/22/188
f 250/46/87 251/50/225 249/22/188
f 276/29/261 275/21/267 300/20/265 299/30/334
