# Blender 4.4.0
# www.blender.org
mtllib Corner 2.mtl
o Esquina_2
v -0.000000 0.149334 0.070000
v 0.500000 0.149334 0.070000
v -0.000000 0.138139 0.124048
v 0.500000 0.138139 0.124048
v 0.500000 0.149334 0.133197
v -0.000000 0.149334 0.133197
v 0.500000 0.125640 0.117029
v 0.500000 0.112250 0.114021
v 0.500000 0.097520 0.119035
v 0.500000 0.084022 0.127698
v 0.500000 0.074380 0.134917
v 0.500000 0.018460 0.134917
v -0.000000 -0.000180 0.144302
v 0.500000 -0.000180 0.144302
v -0.000000 0.125640 0.116979
v -0.000000 0.112250 0.113971
v -0.000000 0.097520 0.118985
v -0.000000 0.084022 0.127648
v -0.000000 0.074380 0.134867
v -0.000000 0.018460 0.134867
v -0.000000 3.500000 0.070000
v 0.500000 3.500000 0.070000
v 0.930000 0.149334 0.070000
v 0.866800 0.149334 0.133197
v 0.883020 0.125640 0.116979
v 0.886030 0.112250 0.113971
v 0.872350 0.084022 0.127648
v 0.865130 0.074380 0.134867
v 0.930000 3.500000 0.070000
v 0.930000 0.149334 0.500000
v 0.875950 0.138139 0.124048
v 0.875952 0.138139 0.500000
v 0.866803 0.149334 0.500000
v 0.882971 0.125640 0.500000
v 0.885979 0.112250 0.500000
v 0.880965 0.097520 0.500000
v 0.872302 0.084022 0.500000
v 0.865083 0.074380 0.500000
v 0.865083 0.018460 0.500000
v 0.855700 -0.000180 0.144302
v 0.855698 -0.000180 0.500000
v 0.881020 0.097520 0.118985
v 0.865130 0.018460 0.134867
v 0.930000 3.500000 0.500000
v 0.930000 0.149334 1.000000
v 0.875952 0.138139 1.000000
v 0.866803 0.149334 1.000000
v 0.855698 -0.000180 1.000000
v 0.883021 0.125640 1.000000
v 0.886029 0.112250 1.000000
v 0.881015 0.097520 1.000000
v 0.872352 0.084022 1.000000
v 0.865133 0.074380 1.000000
v 0.865133 0.018460 1.000000
v 0.930000 3.500000 1.000000
vn -0.0000 -0.6328 0.7743
vn -0.0000 1.0000 -0.0000
vn -0.0000 -0.4910 0.8712
vn -0.0001 -0.2192 0.9757
vn -0.0001 0.3222 0.9467
vn -0.0001 0.5401 0.8416
vn -0.0001 0.5994 0.8005
vn -0.0001 -0.0000 1.0000
vn -0.0000 0.4507 0.8927
vn -0.0000 -0.0000 1.0000
vn 0.0001 -0.4910 0.8712
vn 0.0001 -0.2192 0.9757
vn 0.0001 0.3222 0.9467
vn 0.0001 0.5401 0.8416
vn 0.0001 0.5993 0.8005
vn 0.0001 -0.0000 1.0000
vn 0.0001 0.4506 0.8927
vn -0.7743 -0.6328 -0.0000
vn -0.8712 -0.4910 -0.0001
vn -0.9757 -0.2192 -0.0001
vn -0.9467 0.3221 -0.0001
vn -0.8415 0.5403 -0.0001
vn -0.8005 0.5994 -0.0001
vn -1.0000 -0.0000 -0.0001
vn -0.8928 0.4505 -0.0001
vn -1.0000 -0.0000 -0.0000
vn -0.8712 -0.4910 -0.0000
vn -0.9757 -0.2192 0.0001
vn -0.9467 0.3222 0.0001
vn -0.8416 0.5401 0.0001
vn -0.8005 0.5994 0.0001
vn -1.0000 -0.0000 0.0001
vn -0.8927 0.4507 -0.0000
vt 0.250000 0.500000
vt 0.125000 0.500000
vt 0.000000 0.000000
vt 0.875000 0.500000
vt 0.750000 0.500000
s 0
f 5/1/1 6/2/1 3/2/1 4/1/1
f 2/1/2 1/2/2 6/2/2 5/1/2
f 4/3/3 3/3/3 15/3/3 7/3/3
f 8/3/4 7/3/4 15/3/4 16/3/4
f 9/3/5 8/3/5 16/3/5 17/3/5
f 10/3/6 9/3/6 17/3/6 18/3/6
f 11/3/7 10/3/7 18/3/7 19/3/7
f 12/3/8 11/3/8 19/3/8 20/3/8
f 13/3/9 14/3/9 12/3/9 20/3/9
f 1/4/10 2/5/10 22/5/10 21/4/10
f 5/1/1 4/1/1 31/2/1 24/2/1
f 2/1/2 5/1/2 24/2/2 23/2/2
f 4/3/11 7/3/11 25/3/11 31/3/11
f 8/3/12 26/3/12 25/3/12 7/3/12
f 9/3/13 42/3/13 26/3/13 8/3/13
f 10/3/14 27/3/14 42/3/14 9/3/14
f 11/3/15 28/3/15 27/3/15 10/3/15
f 12/3/16 43/3/16 28/3/16 11/3/16
f 40/3/17 43/3/17 12/3/17 14/3/17
f 23/4/10 29/4/10 22/5/10 2/5/10
f 33/1/18 24/2/18 31/2/18 32/1/18
f 30/1/2 23/2/2 24/2/2 33/1/2
f 32/3/19 31/3/19 25/3/19 34/3/19
f 35/3/20 34/3/20 25/3/20 26/3/20
f 36/3/21 35/3/21 26/3/21 42/3/21
f 37/3/22 36/3/22 42/3/22 27/3/22
f 38/3/23 37/3/23 27/3/23 28/3/23
f 39/3/24 38/3/24 28/3/24 43/3/24
f 40/3/25 41/3/25 39/3/25 43/3/25
f 23/4/26 30/5/26 44/5/26 29/4/26
f 33/1/18 32/1/18 46/2/18 47/2/18
f 30/1/2 33/1/2 47/2/2 45/2/2
f 32/3/27 34/3/27 49/3/27 46/3/27
f 35/3/28 50/3/28 49/3/28 34/3/28
f 36/3/29 51/3/29 50/3/29 35/3/29
f 37/3/30 52/3/30 51/3/30 36/3/30
f 38/3/31 53/3/31 52/3/31 37/3/31
f 39/3/32 54/3/32 53/3/32 38/3/32
f 48/3/33 54/3/33 39/3/33 41/3/33
f 45/4/26 55/4/26 44/5/26 30/5/26
