# Blender 4.4.0
# www.blender.org
mtllib Half Roof 1.mtl
o Medio_Techo_1
v -0.000000 -0.000000 -0.000000
v -0.000000 -0.000000 -2.000000
v 0.450000 0.000677 0.000000
v 0.450000 0.000677 -2.000000
v 0.550000 0.000677 0.000000
v 0.550000 0.000677 -2.000000
v 0.450000 0.000677 -0.165516
v 0.450000 0.000677 -0.332183
v 0.450000 0.000677 -0.498850
v 0.450000 0.000677 -0.665516
v 0.450000 0.000677 -0.832183
v 0.450000 0.000677 -1.000000
v 0.450000 0.000677 -1.165516
v 0.450000 0.000677 -1.332183
v 0.450000 0.000677 -1.498850
v 0.450000 0.000677 -1.665516
v 0.450000 0.000677 -1.832183
v 0.550000 0.000677 -1.832183
v 0.550000 0.000677 -1.665516
v 0.550000 0.000677 -1.498850
v 0.550000 0.000677 -1.332183
v 0.550000 0.000677 -1.165516
v 0.550000 0.000677 -1.000000
v 0.550000 0.000677 -0.832183
v 0.550000 0.000677 -0.665516
v 0.550000 0.000677 -0.498850
v 0.550000 0.000677 -0.332183
v 0.550000 0.000677 -0.165516
v 0.450000 -0.085410 -0.000000
v 0.453588 -0.087973 -0.000000
v 0.450481 -0.086692 -0.000000
v 0.451794 -0.087630 -0.000000
v 0.453588 -0.087973 -2.000000
v 0.450000 -0.085410 -2.000000
v 0.451794 -0.087630 -2.000000
v 0.450481 -0.086692 -2.000000
v 0.546412 -0.087973 -0.000000
v 0.550000 -0.085410 -0.000000
v 0.548206 -0.087630 -0.000000
v 0.549519 -0.086692 -0.000000
v 0.550000 -0.085410 -2.000000
v 0.546412 -0.087973 -2.000000
v 0.549519 -0.086692 -2.000000
v 0.548206 -0.087630 -2.000000
v 0.453588 -0.084397 -1.851075
v 0.450000 -0.081788 -1.849717
v 0.451794 -0.084047 -1.850893
v 0.450481 -0.083092 -1.850396
v 0.453588 -0.078226 -1.690302
v 0.450000 -0.075556 -1.688105
v 0.451794 -0.077868 -1.690008
v 0.450481 -0.076891 -1.689203
v 0.453588 -0.084550 -1.498850
v 0.450000 -0.081804 -1.498850
v 0.451794 -0.084182 -1.498850
v 0.450481 -0.083177 -1.498850
v 0.453588 -0.077699 -1.332183
v 0.450000 -0.074968 -1.332183
v 0.451794 -0.077333 -1.332183
v 0.450481 -0.076333 -1.332183
v 0.453588 -0.073225 -1.165516
v 0.450000 -0.070501 -1.165516
v 0.451794 -0.072860 -1.165516
v 0.450481 -0.071863 -1.165516
v 0.453588 -0.087973 -1.000101
v 0.450000 -0.085410 -0.999853
v 0.451794 -0.087630 -1.000068
v 0.450481 -0.086692 -0.999977
v 0.453588 -0.077049 -0.832183
v 0.450000 -0.074371 -0.832183
v 0.451794 -0.076690 -0.832183
v 0.450481 -0.075710 -0.832183
v 0.453588 -0.084777 -0.665516
v 0.450000 -0.082099 -0.665516
v 0.451794 -0.084419 -0.665516
v 0.450481 -0.083438 -0.665516
v 0.453588 -0.081280 -0.498850
v 0.450000 -0.078783 -0.498850
v 0.451794 -0.080945 -0.498850
v 0.450481 -0.080031 -0.498850
v 0.453588 -0.084295 -0.332183
v 0.450000 -0.082167 -0.332183
v 0.451794 -0.084010 -0.332183
v 0.450481 -0.083231 -0.332183
v 0.450000 -0.081469 -0.165516
v 0.453588 -0.083583 -0.165516
v 0.450481 -0.082526 -0.165516
v 0.451794 -0.083299 -0.165516
v 0.546412 -0.083583 -0.165517
v 0.550000 -0.081469 -0.165517
v 0.548206 -0.083299 -0.165517
v 0.549519 -0.082526 -0.165517
v 0.546412 -0.084295 -0.332183
v 0.550000 -0.082167 -0.332183
v 0.548206 -0.084010 -0.332183
v 0.549519 -0.083231 -0.332183
v 0.546412 -0.081280 -0.498850
v 0.550000 -0.078783 -0.498850
v 0.548206 -0.080945 -0.498850
v 0.549519 -0.080031 -0.498850
v 0.546412 -0.084777 -0.665517
v 0.550000 -0.082099 -0.665517
v 0.548206 -0.084419 -0.665517
v 0.549519 -0.083438 -0.665517
v 0.546412 -0.077049 -0.832183
v 0.550000 -0.074371 -0.832183
v 0.548206 -0.076690 -0.832183
v 0.549519 -0.075710 -0.832183
v 0.546412 -0.087973 -1.000101
v 0.550000 -0.085410 -0.999854
v 0.548206 -0.087630 -1.000068
v 0.549519 -0.086692 -0.999977
v 0.546412 -0.073225 -1.165516
v 0.550000 -0.070501 -1.165516
v 0.548206 -0.072860 -1.165516
v 0.549519 -0.071863 -1.165516
v 0.546412 -0.077699 -1.332183
v 0.550000 -0.074968 -1.332183
v 0.548206 -0.077333 -1.332183
v 0.549519 -0.076333 -1.332183
v 0.546412 -0.084550 -1.498850
v 0.550000 -0.081804 -1.498850
v 0.548206 -0.084182 -1.498850
v 0.549519 -0.083177 -1.498850
v 0.546412 -0.078226 -1.690302
v 0.550000 -0.075556 -1.688105
v 0.548206 -0.077868 -1.690008
v 0.549519 -0.076891 -1.689203
v 0.550000 -0.081788 -1.849717
v 0.546412 -0.084397 -1.851075
v 0.549519 -0.083092 -1.850396
v 0.548206 -0.084047 -1.850893
v 1.000000 -0.000000 -2.000000
v 1.000000 -0.000000 -0.000000
v -0.000000 -0.000000 -1.000000
v 1.000000 -0.000000 -1.000000
vn -0.0000 -1.0000 -0.0000
vn 1.0000 -0.0000 -0.0000
vn -0.0000 -0.9993 0.0384
vn -0.0000 -0.9992 0.0411
vn -0.0000 -0.9996 0.0268
vn -0.0000 -0.9960 -0.0888
vn -0.0000 -0.9979 0.0649
vn -0.0000 -0.9989 -0.0463
vn -0.0000 -0.9998 0.0210
vn -0.0000 -0.9998 -0.0181
vn -0.0000 -1.0000 0.0043
vn -0.0000 -0.9995 -0.0330
vn -0.0000 -0.9997 0.0240
vn -1.0000 -0.0000 -0.0000
vn -0.9249 -0.3802 -0.0093
vn -0.5459 -0.8376 -0.0215
vn -0.1719 -0.9848 -0.0259
vn 0.9366 -0.3503 0.0084
vn 0.5822 -0.8128 0.0195
vn 0.1884 -0.9818 0.0236
vn -0.9366 -0.3503 0.0084
vn -0.5822 -0.8128 0.0195
vn -0.1884 -0.9818 0.0236
vn -0.9366 -0.3502 0.0135
vn -0.5822 -0.8125 0.0312
vn -0.1884 -0.9814 0.0377
vn -0.9437 -0.3306 -0.0109
vn -0.6073 -0.7940 -0.0262
vn -0.2006 -0.9791 -0.0323
vn -0.9435 -0.3312 0.0136
vn -0.6064 -0.7945 0.0326
vn -0.2002 -0.9789 0.0402
vn -0.9431 -0.3324 0.0089
vn -0.6050 -0.7959 0.0214
vn -0.1995 -0.9795 0.0263
vn -0.9398 -0.3403 -0.0306
vn -0.5933 -0.8018 -0.0717
vn -0.1937 -0.9772 -0.0872
vn -0.9382 -0.3452 0.0227
vn -0.5879 -0.8072 0.0527
vn -0.1911 -0.9795 0.0638
vn -0.9411 -0.3378 -0.0157
vn -0.5977 -0.8008 -0.0371
vn -0.1959 -0.9796 -0.0454
vn -0.9374 -0.3482 0.0070
vn -0.5849 -0.8110 0.0167
vn -0.1897 -0.9816 0.0205
vn -0.9233 -0.3839 -0.0076
vn -0.5416 -0.8405 -0.0158
vn -0.1701 -0.9853 -0.0180
vn -0.9108 -0.4129 0.0017
vn -0.5088 -0.8609 0.0037
vn -0.1564 -0.9877 0.0042
vn 0.9249 -0.3802 -0.0093
vn 0.5459 -0.8376 -0.0215
vn 0.1719 -0.9848 -0.0259
vn 0.9108 -0.4129 0.0017
vn 0.5087 -0.8609 0.0037
vn 0.1564 -0.9877 0.0042
vn 0.9233 -0.3839 -0.0076
vn 0.5416 -0.8405 -0.0158
vn 0.1701 -0.9853 -0.0180
vn 0.9374 -0.3482 0.0070
vn 0.5848 -0.8110 0.0167
vn 0.1897 -0.9816 0.0205
vn 0.9411 -0.3378 -0.0157
vn 0.5977 -0.8008 -0.0371
vn 0.1959 -0.9796 -0.0454
vn 0.9382 -0.3452 0.0227
vn 0.5878 -0.8073 0.0527
vn 0.1911 -0.9795 0.0638
vn 0.9398 -0.3403 -0.0306
vn 0.5933 -0.8018 -0.0717
vn 0.1937 -0.9772 -0.0872
vn 0.9431 -0.3324 0.0089
vn 0.6050 -0.7959 0.0214
vn 0.1995 -0.9795 0.0263
vn 0.9435 -0.3312 0.0136
vn 0.6064 -0.7945 0.0326
vn 0.2002 -0.9789 0.0402
vn 0.9437 -0.3306 -0.0109
vn 0.6073 -0.7940 -0.0262
vn 0.2007 -0.9791 -0.0323
vn 0.9366 -0.3502 0.0135
vn 0.5821 -0.8125 0.0312
vn 0.1884 -0.9814 0.0377
vn -0.0000 -0.9996 -0.0265
vt 0.750000 0.625000
vt 0.750000 0.750000
vt 0.875000 0.750000
vt 0.875000 0.625000
vt 0.418974 0.500000
vt 0.625000 0.500000
vt 0.625000 0.520833
vt 0.423905 0.520833
vt 0.416039 0.220293
vt 0.408325 0.239632
vt 0.408325 0.510368
vt 0.416039 0.529707
vt 0.416800 0.729167
vt 0.625000 0.729167
vt 0.625000 0.750000
vt 0.411926 0.750000
vt 0.417720 0.181616
vt 0.409910 0.200955
vt 0.409910 0.549045
vt 0.417720 0.568384
vt 0.425171 0.162278
vt 0.425171 0.587722
vt 0.412822 0.142940
vt 0.412822 0.607060
vt 0.417897 0.123601
vt 0.417897 0.626399
vt 0.408840 0.104263
vt 0.408840 0.645737
vt 0.421662 0.084925
vt 0.421662 0.665075
vt 0.403198 0.065586
vt 0.403198 0.684414
vt 0.403609 0.046248
vt 0.403609 0.703752
vt 0.416238 0.708333
vt 0.625000 0.708333
vt 0.441990 0.687500
vt 0.625000 0.687500
vt 0.423905 0.520833
vt 0.625000 0.541667
vt 0.434561 0.541667
vt 0.434561 0.541667
vt 0.625000 0.562500
vt 0.426123 0.562500
vt 0.625000 0.583333
vt 0.436852 0.583333
vt 0.436852 0.583333
vt 0.625000 0.604167
vt 0.446848 0.604167
vt 0.446848 0.604167
vt 0.625000 0.625000
vt 0.430133 0.625000
vt 0.430133 0.625000
vt 0.625000 0.645833
vt 0.437065 0.645833
vt 0.437065 0.645833
vt 0.625000 0.666667
vt 0.424628 0.666667
vt 0.424628 0.666667
vt 0.404814 0.491030
vt 0.404814 0.258970
vt 0.411926 0.000000
vt 0.625000 0.000000
vt 0.625000 0.020833
vt 0.416800 0.020833
vt 0.416800 0.020833
vt 0.625000 0.041667
vt 0.416238 0.041667
vt 0.625000 0.062500
vt 0.441990 0.062500
vt 0.441990 0.062500
vt 0.625000 0.083333
vt 0.424628 0.083333
vt 0.424628 0.083333
vt 0.625000 0.104167
vt 0.437065 0.104167
vt 0.437065 0.104167
vt 0.625000 0.125000
vt 0.430133 0.125000
vt 0.430133 0.125000
vt 0.625000 0.145833
vt 0.446848 0.145833
vt 0.625000 0.166667
vt 0.436852 0.166667
vt 0.436852 0.166667
vt 0.625000 0.187500
vt 0.426122 0.187500
vt 0.426122 0.187500
vt 0.625000 0.208333
vt 0.434561 0.208333
vt 0.434561 0.208333
vt 0.625000 0.229167
vt 0.423905 0.229167
vt 0.625000 0.250000
vt 0.418974 0.250000
vt 0.410205 0.020833
vt 0.406019 0.000000
vt 0.403681 0.033705
vt 0.400250 0.014165
vt 0.400112 0.026910
vt 0.416115 0.520833
vt 0.411894 0.500000
vt 0.408602 0.516522
vt 0.405016 0.496587
vt 0.411894 0.250000
vt 0.416115 0.229167
vt 0.405016 0.253413
vt 0.408602 0.233478
vt 0.425300 0.208333
vt 0.416343 0.214269
vt 0.418016 0.187500
vt 0.410211 0.194221
vt 0.427286 0.166667
vt 0.418086 0.173312
vt 0.436009 0.145833
vt 0.425613 0.153913
vt 0.421477 0.125000
vt 0.413198 0.133825
vt 0.427481 0.104167
vt 0.418208 0.113735
vt 0.416734 0.083333
vt 0.409200 0.093908
vt 0.431826 0.062500
vt 0.422086 0.073722
vt 0.409718 0.041667
vt 0.403417 0.053650
vt 0.406019 0.750000
vt 0.410205 0.729167
vt 0.400250 0.735835
vt 0.403681 0.716295
vt 0.400112 0.723090
vt 0.409718 0.708333
vt 0.403417 0.696350
vt 0.431826 0.687500
vt 0.422086 0.676278
vt 0.416734 0.666667
vt 0.409200 0.656092
vt 0.427481 0.645833
vt 0.418208 0.636265
vt 0.421477 0.625000
vt 0.413198 0.616175
vt 0.436009 0.604167
vt 0.425613 0.596087
vt 0.427286 0.583333
vt 0.418086 0.576688
vt 0.418016 0.562500
vt 0.410211 0.555779
vt 0.425300 0.541667
vt 0.416343 0.535731
vt 0.750000 0.500000
vt 0.875000 0.500000
s 0
f 136/1/1 134/2/1 1/3/1 135/4/1
f 41/5/2 6/6/2 18/7/2 129/8/2
f 49/9/3 45/10/3 130/11/3 125/12/3
f 90/13/2 28/14/2 5/15/2 38/16/2
f 57/17/4 53/18/4 121/19/4 117/20/4
f 61/21/5 57/17/5 117/20/5 113/22/5
f 65/23/6 61/21/6 113/22/6 109/24/6
f 69/25/7 65/23/7 109/24/7 105/26/7
f 73/27/8 69/25/8 105/26/8 101/28/8
f 77/29/9 73/27/9 101/28/9 97/30/9
f 81/31/10 77/29/10 97/30/10 93/32/10
f 86/33/11 81/31/11 93/32/11 89/34/11
f 94/35/2 27/36/2 28/14/2 90/13/2
f 98/37/2 26/38/2 27/36/2 94/35/2
f 53/18/12 49/9/12 125/12/12 121/19/12
f 129/39/2 18/7/2 19/40/2 126/41/2
f 126/42/2 19/40/2 20/43/2 122/44/2
f 122/44/2 20/43/2 21/45/2 118/46/2
f 118/47/2 21/45/2 22/48/2 114/49/2
f 114/50/2 22/48/2 23/51/2 110/52/2
f 110/53/2 23/51/2 24/54/2 106/55/2
f 106/56/2 24/54/2 25/57/2 102/58/2
f 102/59/2 25/57/2 26/38/2 98/37/2
f 42/60/13 130/11/13 45/10/13 33/61/13
f 29/62/14 3/63/14 7/64/14 85/65/14
f 85/66/14 7/64/14 8/67/14 82/68/14
f 82/68/14 8/67/14 9/69/14 78/70/14
f 78/71/14 9/69/14 10/72/14 74/73/14
f 74/74/14 10/72/14 11/75/14 70/76/14
f 70/77/14 11/75/14 12/78/14 66/79/14
f 66/80/14 12/78/14 13/81/14 62/82/14
f 62/82/14 13/81/14 14/83/14 58/84/14
f 58/85/14 14/83/14 15/86/14 54/87/14
f 54/88/14 15/86/14 16/89/14 50/90/14
f 50/91/14 16/89/14 17/92/14 46/93/14
f 46/93/14 17/92/14 4/94/14 34/95/14
f 29/62/15 85/65/15 87/96/15 31/97/15
f 31/97/16 87/96/16 88/98/16 32/99/16
f 32/99/17 88/98/17 86/33/17 30/100/17
f 41/5/18 129/8/18 131/101/18 43/102/18
f 43/102/19 131/101/19 132/103/19 44/104/19
f 44/104/20 132/103/20 130/11/20 42/60/20
f 46/93/21 34/95/21 36/105/21 48/106/21
f 48/106/22 36/105/22 35/107/22 47/108/22
f 47/108/23 35/107/23 33/61/23 45/10/23
f 50/91/24 46/93/24 48/106/24 52/109/24
f 52/109/25 48/106/25 47/108/25 51/110/25
f 51/110/26 47/108/26 45/10/26 49/9/26
f 54/88/27 50/90/27 52/109/27 56/111/27
f 56/111/28 52/109/28 51/110/28 55/112/28
f 55/112/29 51/110/29 49/9/29 53/18/29
f 58/85/30 54/87/30 56/111/30 60/113/30
f 60/113/31 56/111/31 55/112/31 59/114/31
f 59/114/32 55/112/32 53/18/32 57/17/32
f 62/82/33 58/84/33 60/113/33 64/115/33
f 64/115/34 60/113/34 59/114/34 63/116/34
f 63/116/35 59/114/35 57/17/35 61/21/35
f 66/80/36 62/82/36 64/115/36 68/117/36
f 68/117/37 64/115/37 63/116/37 67/118/37
f 67/118/38 63/116/38 61/21/38 65/23/38
f 70/77/39 66/79/39 68/117/39 72/119/39
f 72/119/40 68/117/40 67/118/40 71/120/40
f 71/120/41 67/118/41 65/23/41 69/25/41
f 74/74/42 70/76/42 72/119/42 76/121/42
f 76/121/43 72/119/43 71/120/43 75/122/43
f 75/122/44 71/120/44 69/25/44 73/27/44
f 78/71/45 74/73/45 76/121/45 80/123/45
f 80/123/46 76/121/46 75/122/46 79/124/46
f 79/124/47 75/122/47 73/27/47 77/29/47
f 82/68/48 78/70/48 80/123/48 84/125/48
f 84/125/49 80/123/49 79/124/49 83/126/49
f 83/126/50 79/124/50 77/29/50 81/31/50
f 85/66/51 82/68/51 84/125/51 87/96/51
f 87/96/52 84/125/52 83/126/52 88/98/52
f 88/98/53 83/126/53 81/31/53 86/33/53
f 90/13/54 38/16/54 40/127/54 92/128/54
f 92/128/55 40/127/55 39/129/55 91/130/55
f 91/130/56 39/129/56 37/131/56 89/34/56
f 94/35/57 90/13/57 92/128/57 96/132/57
f 96/132/58 92/128/58 91/130/58 95/133/58
f 95/133/59 91/130/59 89/34/59 93/32/59
f 98/37/60 94/35/60 96/132/60 100/134/60
f 100/134/61 96/132/61 95/133/61 99/135/61
f 99/135/62 95/133/62 93/32/62 97/30/62
f 102/59/63 98/37/63 100/134/63 104/136/63
f 104/136/64 100/134/64 99/135/64 103/137/64
f 103/137/65 99/135/65 97/30/65 101/28/65
f 106/56/66 102/58/66 104/136/66 108/138/66
f 108/138/67 104/136/67 103/137/67 107/139/67
f 107/139/68 103/137/68 101/28/68 105/26/68
f 110/53/69 106/55/69 108/138/69 112/140/69
f 112/140/70 108/138/70 107/139/70 111/141/70
f 111/141/71 107/139/71 105/26/71 109/24/71
f 114/50/72 110/52/72 112/140/72 116/142/72
f 116/142/73 112/140/73 111/141/73 115/143/73
f 115/143/74 111/141/74 109/24/74 113/22/74
f 118/47/75 114/49/75 116/142/75 120/144/75
f 120/144/76 116/142/76 115/143/76 119/145/76
f 119/145/77 115/143/77 113/22/77 117/20/77
f 122/44/78 118/46/78 120/144/78 124/146/78
f 124/146/79 120/144/79 119/145/79 123/147/79
f 123/147/80 119/145/80 117/20/80 121/19/80
f 126/42/81 122/44/81 124/146/81 128/148/81
f 128/148/82 124/146/82 123/147/82 127/149/82
f 127/149/83 123/147/83 121/19/83 125/12/83
f 129/39/84 126/41/84 128/148/84 131/101/84
f 131/101/85 128/148/85 127/149/85 132/103/85
f 132/103/86 127/149/86 125/12/86 130/11/86
f 30/100/87 86/33/87 89/34/87 37/131/87
f 133/150/1 136/1/1 135/4/1 2/151/1
