# Blender 4.4.0
# www.blender.org
mtllib Iron_arrow.mtl
o Flecha_Hierro
v -0.001897 -0.005195 -1.488611
v -0.005899 -0.009905 0.000040
v -0.006224 -0.000959 -1.487740
v -0.010235 -0.005409 -0.000397
v -0.007619 0.005128 -1.487883
v -0.011631 0.000678 -0.000540
v -0.005992 0.010971 -1.488097
v -0.009994 0.006261 0.000553
v -0.001670 0.015453 -1.488601
v -0.005672 0.010743 0.000049
v 0.004294 0.016800 -1.488379
v 0.000374 0.012369 0.000326
v 0.010093 0.015474 -1.488685
v 0.006091 0.010764 -0.000034
v 0.014429 0.010978 -1.488248
v 0.010427 0.006269 0.000402
v 0.015825 0.004891 -1.488105
v 0.012394 0.000021 0.000510
v 0.014198 -0.000951 -1.487890
v 0.010758 -0.005563 -0.000584
v 0.009866 -0.005174 -1.488694
v 0.005864 -0.009884 -0.000044
v 0.003830 -0.007059 -1.487664
v 0.000472 -0.011392 -0.000302
v -0.001897 -0.005195 -1.488611
v -0.005899 -0.009905 0.000040
v 0.000317 -0.006721 -0.121694
v -0.001489 -0.006260 -0.122948
v 0.000256 -0.050773 -0.191575
v -0.001378 -0.050013 -0.191412
v 0.000290 -0.055072 -0.220967
v -0.001343 -0.054311 -0.220804
v 0.000489 -0.056697 -0.249831
v -0.001634 -0.055497 -0.249578
v -0.001270 -0.054449 -0.277914
v -0.001040 -0.006285 -0.262942
v -0.000969 -0.006659 -0.309225
v -0.001255 -0.006076 -0.169122
v -0.001193 -0.006191 -0.216713
v 0.001592 -0.008538 -0.495810
v 0.002991 -0.008280 -0.494411
v 0.000565 -0.052606 -0.306103
v 0.002690 -0.051691 -0.305938
v 0.000282 -0.055489 -0.278131
v 0.002488 -0.054296 -0.277911
v 0.000489 -0.056697 -0.249831
v 0.002124 -0.055343 -0.249575
v 0.002414 -0.054158 -0.220802
v 0.002717 -0.006132 -0.262939
v 0.002574 -0.006296 -0.215403
v 0.002788 -0.006505 -0.309223
v 0.002941 -0.006600 -0.355451
v 0.003012 -0.006974 -0.401735
v 0.003165 -0.007069 -0.447963
v 0.012394 0.000021 0.000510
v 0.010427 0.006269 0.000402
v 0.010758 -0.005563 -0.000584
v 0.006091 0.010764 -0.000034
v 0.000374 0.012369 0.000326
v -0.005672 0.010743 0.000049
v -0.009994 0.006261 0.000553
v -0.011631 0.000678 -0.000540
v -0.010235 -0.005409 -0.000397
v -0.005899 -0.009905 0.000040
v 0.000472 -0.011392 -0.000302
v 0.010105 0.004232 -0.447136
v 0.011147 0.005353 -0.494490
v 0.009870 0.004048 -0.400962
v 0.047958 0.025743 -0.305893
v 0.009553 0.003584 -0.354843
v 0.009319 0.003400 -0.308669
v 0.047959 0.027858 -0.305474
v 0.050691 0.029219 -0.278043
v 0.050128 0.027006 -0.277118
v 0.051389 0.029686 -0.249415
v 0.051398 0.027312 -0.248526
v 0.049890 0.026585 -0.220118
v 0.008512 0.003376 -0.262459
v 0.008196 0.002912 -0.216340
v 0.007165 0.004559 -0.122229
v 0.046096 0.026500 -0.191566
v 0.006258 0.005977 -0.123301
v 0.044544 0.027540 -0.191348
v 0.005839 0.006043 -0.169493
v 0.006155 0.006506 -0.215613
v 0.049882 0.028959 -0.221007
v 0.047758 0.030159 -0.220754
v 0.006390 0.006691 -0.261787
v 0.051389 0.029686 -0.249415
v 0.049266 0.030886 -0.249162
v 0.048567 0.030419 -0.277790
v 0.007269 0.007253 -0.309250
v 0.046408 0.028898 -0.305256
v 0.007503 0.007438 -0.355424
v 0.007738 0.007622 -0.401598
v 0.050691 0.029219 -0.278043
v 0.047959 0.027858 -0.305474
v 0.009597 0.008508 -0.493854
v 0.010975 0.007168 -0.495488
v 0.008055 0.008086 -0.447717
v 0.049882 0.028959 -0.221007
v 0.046177 0.024665 -0.191930
v 0.007961 0.002727 -0.170166
v 0.046096 0.026500 -0.191566
v 0.007899 0.002842 -0.122575
v -0.001670 0.015453 -1.488601
v 0.004294 0.016800 -1.488379
v -0.005992 0.010971 -1.488097
v 0.010093 0.015474 -1.488685
v 0.014429 0.010978 -1.488248
v 0.015825 0.004891 -1.488105
v 0.014198 -0.000951 -1.487890
v 0.009866 -0.005174 -1.488694
v 0.003830 -0.007059 -1.487664
v -0.001897 -0.005195 -1.488611
v -0.006224 -0.000959 -1.487740
v 0.000282 -0.055489 -0.278131
v -0.000986 -0.051566 -0.305885
v 0.000565 -0.052606 -0.306103
v -0.000113 -0.008315 -0.494394
v 0.001592 -0.008538 -0.495810
v -0.000816 -0.006754 -0.355454
v -0.000745 -0.007128 -0.401737
v -0.000592 -0.007222 -0.447966
v -0.005823 0.004580 -0.122128
v -0.004852 0.006074 -0.123198
v -0.044013 0.027581 -0.192037
v -0.042460 0.028656 -0.191836
v -0.047650 0.029753 -0.220121
v -0.045536 0.030926 -0.221263
v -0.048685 0.030543 -0.249857
v -0.047051 0.031897 -0.249601
v -0.045952 0.031228 -0.278282
v -0.004729 0.007047 -0.262992
v -0.004494 0.007232 -0.309166
v -0.004045 0.006098 -0.169409
v -0.004382 0.006443 -0.215546
v -0.048067 0.030054 -0.277140
v -0.043782 0.029699 -0.305783
v -0.045335 0.028625 -0.305984
v -0.006505 0.008752 -0.495044
v -0.007568 0.007238 -0.495336
v -0.004831 0.007577 -0.355304
v -0.005168 0.007922 -0.401442
v -0.005505 0.008267 -0.447580
v -0.005823 0.004580 -0.122128
v -0.044013 0.027581 -0.192037
v -0.006396 0.002626 -0.122511
v -0.044014 0.025466 -0.192456
v -0.006252 0.002790 -0.170047
v -0.006589 0.003135 -0.216185
v -0.047650 0.029753 -0.220121
v -0.047733 0.027359 -0.220594
v -0.006355 0.003319 -0.262359
v -0.048685 0.030543 -0.249857
v -0.048676 0.028169 -0.248968
v -0.048068 0.027940 -0.277558
v -0.006692 0.003665 -0.308497
v -0.045254 0.026789 -0.306348
v -0.007028 0.004010 -0.354635
v -0.007447 0.004075 -0.400828
v -0.048067 0.030054 -0.277140
v -0.045335 0.028625 -0.305984
v -0.007967 0.005583 -0.494302
v -0.007568 0.007238 -0.495336
v -0.007222 0.004519 -0.448309
v 0.000317 -0.006721 -0.121694
v 0.000256 -0.050773 -0.191575
v 0.002186 -0.006386 -0.123000
v 0.002298 -0.050138 -0.191464
v 0.002503 -0.005922 -0.169120
v 0.000290 -0.055072 -0.220967
v 0.007165 0.004559 -0.122229
v 0.010975 0.007168 -0.495488
v 0.005864 -0.009884 -0.000044
v -0.007619 0.005128 -1.487883
v -0.034296 0.005654 -1.513898
v 0.004282 0.005654 -1.612492
v 0.042859 0.005654 -1.513898
v 0.015633 -0.003793 -1.487605
v -0.007441 -0.003755 -1.487740
v 0.004109 -0.004741 -1.493968
v -0.007441 0.015064 -1.487740
v 0.015633 0.015102 -1.487605
v 0.004109 0.016050 -1.493968
vn -1.0000 0.0076 -0.0026
vn -0.8618 0.5072 -0.0006
vn -0.8618 0.5073 -0.0006
vn 0.4989 -0.8620 0.0896
vn 0.9137 -0.4040 0.0438
vn 0.9123 -0.3822 0.1469
vn 0.4802 -0.8203 0.3108
vn -0.8719 -0.4897 -0.0020
vn -1.0000 0.0073 -0.0028
vn -0.9220 -0.3857 -0.0348
vn -0.8074 -0.5893 -0.0300
vn -0.7634 -0.6435 -0.0565
vn -0.5124 -0.8588 -0.0051
vn -0.5131 -0.8583 -0.0050
vn -0.8557 -0.4342 0.2816
vn -1.0000 0.0026 0.0003
vn -0.9203 -0.3651 0.1406
vn 0.7943 -0.6060 0.0426
vn 0.4968 -0.8679 -0.0001
vn 0.4932 -0.8699 -0.0006
vn 0.8589 -0.5121 0.0074
vn 0.4536 -0.8688 -0.1985
vn 0.8935 -0.4433 -0.0713
vn 0.4769 -0.8670 -0.1444
vn 0.9383 -0.3418 -0.0517
vn 0.9142 -0.4044 -0.0253
vn 0.9999 -0.0126 0.0054
vn 0.8639 -0.5036 0.0013
vn 0.9999 -0.0112 -0.0020
vn 0.9998 -0.0169 0.0046
vn 0.9935 -0.1134 0.0008
vn 0.9510 -0.3091 0.0009
vn 0.0046 0.0033 -1.0000
vn 0.0041 0.0033 -1.0000
vn 0.0044 0.0033 -1.0000
vn -0.0028 -0.0038 1.0000
vn -0.0027 -0.0038 1.0000
vn -0.0029 -0.0033 1.0000
vn -0.9524 -0.0081 0.3048
vn -0.7891 -0.5982 0.1393
vn -0.8121 -0.5113 0.2811
vn -0.8792 -0.0176 0.4761
vn 0.7530 -0.6554 -0.0587
vn 0.7949 -0.6062 -0.0260
vn 0.9998 -0.0184 0.0119
vn 0.9959 -0.0188 0.0886
vn -0.5163 -0.8540 -0.0636
vn -0.5173 -0.8558 0.0031
vn -1.0000 0.0041 -0.0071
vn -0.9446 -0.3232 -0.0569
vn -0.1068 0.9939 -0.0288
vn -0.1738 0.9835 -0.0504
vn -0.4883 0.8726 -0.0024
vn -0.4900 0.8717 0.0048
vn -0.8055 -0.5914 0.0377
vn -0.5152 -0.8571 -0.0010
vn 0.1425 0.9792 0.1445
vn 0.1255 0.9910 0.0473
vn -0.4810 0.8719 0.0919
vn -0.4514 0.8366 0.3103
vn 0.9905 0.0003 -0.1378
vn 0.8214 -0.5658 -0.0720
vn 0.9808 0.0230 -0.1938
vn 0.5010 0.8655 0.0011
vn 0.1910 0.9803 -0.0505
vn 0.1242 0.9920 -0.0225
vn 0.5055 0.8628 0.0008
vn -0.0031 -0.0039 1.0000
vn -0.0028 -0.0041 1.0000
vn 0.7306 -0.6827 0.0050
vn 0.5808 -0.8141 -0.0047
vn 0.0154 0.9999 0.0050
vn -0.4832 0.8755 0.0093
vn -0.0337 0.9581 0.2844
vn -0.1273 0.9811 0.1456
vn -0.4862 0.8738 0.0055
vn 0.0032 1.0000 0.0076
vn -0.4884 0.8726 -0.0024
vn -0.3954 0.9185 -0.0008
vn -0.0610 0.9958 -0.0682
vn -0.2092 0.9778 0.0079
vn 0.7742 -0.6160 0.1457
vn 0.8025 -0.5231 0.2871
vn 0.4969 -0.8678 -0.0000
vn 0.0048 0.0030 -1.0000
vn 0.0046 0.0032 -1.0000
vn 0.0050 0.0035 -1.0000
vn -0.8698 -0.4934 -0.0029
vn 0.0793 0.9944 -0.0697
vn -0.5115 0.8363 -0.1974
vn -0.4949 0.8570 -0.1436
vn -0.4995 -0.8101 0.3071
vn -0.4659 -0.7467 0.4747
vn 0.9497 -0.0268 0.3119
vn -0.4814 0.8746 -0.0575
vn 0.5050 0.8631 0.0070
vn 0.9982 -0.0183 -0.0572
vn -1.0000 0.0025 -0.0000
vn -0.9950 -0.0994 -0.0007
vn 0.0501 0.9569 0.2861
vn -0.4136 0.7721 0.4824
vn -0.8997 -0.4302 -0.0746
vn -0.9567 -0.2910 -0.0043
vn 0.8481 -0.4494 0.2807
vn 0.4507 -0.7546 0.4769
vn 0.4929 -0.8701 -0.0004
vn -0.0114 -0.9999 -0.0032
vn -0.0113 -0.9999 -0.0032
vn -0.1073 0.9932 0.0442
vn -0.4900 0.8717 0.0051
vn 0.5010 0.8654 0.0080
vn -0.4929 -0.8570 -0.1506
vn 0.4132 0.9106 0.0013
vn 0.2291 0.9734 0.0056
vn 0.0127 0.9999 0.0013
vn 0.5093 0.8605 0.0065
vn 0.5094 0.8605 0.0065
vn 0.0126 0.9999 0.0013
vn -0.5979 -0.8015 -0.0041
vn -1.0000 0.0012 0.0077
vn -0.9961 -0.0022 0.0878
vn 0.4989 -0.8666 0.0077
vn -0.8319 -0.5492 -0.0795
vn -0.7409 -0.6716 -0.0013
vn -0.9885 0.0197 -0.1497
vn -0.9785 0.0405 -0.2023
vn -0.9218 -0.3857 0.0382
vn -0.5161 -0.8526 0.0812
vn -0.5091 -0.8607 -0.0054
vn -0.8698 -0.4935 -0.0029
vn -1.0000 0.0076 -0.0025
vn 0.5004 0.8657 0.0145
vn 0.4961 0.8665 -0.0562
vn -0.5083 -0.8611 -0.0054
vn -0.5083 -0.8611 -0.0055
vn -0.9980 -0.0034 -0.0625
vn 0.5001 -0.8639 -0.0598
vn 0.9999 -0.0083 0.0062
vn 0.8617 -0.5074 0.0006
vn -0.4931 0.8700 0.0009
vn -0.4933 0.8699 0.0010
vn 0.8773 -0.0335 0.4788
vn 0.8703 0.4925 0.0067
vn 0.4973 0.8627 0.0918
vn 0.4679 0.8272 0.3112
vn 0.4230 0.7656 0.4847
vn 0.5097 0.8486 -0.1416
vn 0.5280 0.8272 -0.1920
vn -0.4680 -0.8605 -0.2014
vn -0.6977 -0.0000 0.7164
vn -0.2146 0.9722 -0.0935
vn -0.0004 0.9954 -0.0954
vn -0.0000 0.9954 -0.0954
vn 0.6947 -0.0000 0.7193
vn 0.2131 0.9726 -0.0929
vn 0.2131 -0.9726 -0.0929
vn -0.0025 -0.9884 0.1519
vn -0.0025 0.9884 0.1519
vn -0.0059 -0.0000 1.0000
vn -0.2146 -0.9722 -0.0935
vt 0.531168 0.005275
vt 0.577912 0.004789
vt 0.577912 0.998554
vt 0.531168 0.998554
vt 0.025261 0.088331
vt 0.041329 0.088331
vt 0.071031 0.069874
vt 0.057397 0.069389
vt 0.032565 0.106788
vt 0.393370 0.115531
vt 0.041816 0.125245
vt 0.063727 0.143217
vt 0.393857 0.145645
vt 0.383632 0.026160
vt 0.390936 0.056274
vt 0.392883 0.085903
vt 0.373893 0.265616
vt 0.386066 0.265130
vt 0.049120 0.143702
vt 0.393370 0.175274
vt 0.392883 0.205388
vt 0.392883 0.235016
vt 0.114367 0.295730
vt 0.320333 0.295730
vt 0.217106 0.298158
vt 0.298908 0.331187
vt 0.395318 0.317587
vt 0.369511 0.325358
vt 0.373893 0.025189
vt 0.016010 0.106788
vt 0.025261 0.125245
vt 0.202499 0.333615
vt 0.106089 0.331187
vt 0.035486 0.325358
vt 0.009680 0.317587
vt 0.035486 0.309815
vt 0.106089 0.303987
vt 0.202499 0.302044
vt 0.298908 0.303987
vt 0.369511 0.309815
vt 0.038895 0.289416
vt 0.011140 0.280673
vt 0.038895 0.271930
vt 0.114367 0.265130
vt 0.217106 0.263187
vt 0.320333 0.265130
vt 0.395805 0.271930
vt 0.423559 0.280673
vt 0.395805 0.289416
vt 0.905120 0.004303
vt 0.951864 0.004303
vt 0.951864 0.997582
vt 0.905120 0.997582
vt 0.671400 0.004789
vt 0.718144 0.004789
vt 0.718144 0.998068
vt 0.671400 0.998068
vt 0.437680 0.005275
vt 0.484424 0.005275
vt 0.484424 0.998554
vt 0.437680 0.998554
vt 0.998608 0.004303
vt 0.998608 0.997582
vt 0.811632 0.004789
vt 0.858376 0.004303
vt 0.858376 0.998068
vt 0.811632 0.998068
vt 0.624656 0.004789
vt 0.624656 0.998068
vt 0.764888 0.004789
vt 0.764888 0.998068
vt 0.033989 0.907613
vt 0.013198 0.907563
vt 0.027515 0.858869
vt 0.064683 0.857437
vt 0.053474 0.860780
vt 0.053474 0.987287
vt 0.096964 0.885834
vt 0.019588 0.991128
vt 0.013075 0.941342
vt 0.033950 0.941391
vt 0.097573 0.886188
vt 0.053265 0.987287
vt 0.053265 0.860780
vt 0.064475 0.857345
vt 0.053874 0.987287
vt 0.098181 0.886188
vt 0.065084 0.857345
vt 0.053874 0.860780
vt 0.033990 0.924534
vt 0.035032 0.915469
vt 0.053474 0.854771
vt 0.053683 0.860780
vt 0.064892 0.857437
vt 0.097173 0.885834
vt 0.053683 0.987287
s 1
usemtl Material
f 6/1/1 8/2/2 7/3/3 5/4/1
f 172/5/4 48/6/5 170/7/6 168/8/7
f 34/9/8 36/10/9 35/11/10
f 157/11/11 159/12/12 158/13/13 154/10/14
f 28/14/15 38/15/16 30/7/17
f 77/6/18 79/16/19 78/10/20 76/9/21
f 40/17/22 41/18/23 42/19/24
f 41/18/23 43/12/25 42/19/24
f 45/11/26 49/10/27 47/9/28
f 51/13/29 43/12/25 52/20/30
f 43/12/25 53/21/31 52/20/30
f 43/12/25 41/18/23 53/21/31
f 41/18/23 54/22/32 53/21/31
f 108/23/33 116/24/34 176/25/35
f 57/26/36 65/27/37 175/28/38
f 147/8/39 149/7/40 148/14/41 146/29/42
f 71/13/19 69/12/43 74/11/44 78/10/20
f 75/30/45 101/5/46 77/6/18 76/9/21
f 35/11/10 117/31/47 33/30/48 34/9/8
f 37/13/49 118/12/50 35/11/10 36/10/9
f 91/11/51 93/12/52 92/13/53 88/10/54
f 149/7/40 153/6/55 151/16/14 150/15/56
f 128/7/57 130/6/58 129/5/59 127/8/60
f 72/19/61 69/12/43 67/18/62 174/17/63
f 135/13/64 139/12/65 133/11/66 134/10/67
f 55/32/68 56/33/68 57/26/36
f 56/33/68 58/34/37 57/26/36
f 57/26/36 58/34/37 59/35/37
f 59/35/37 60/36/37 57/26/36
f 60/36/37 61/37/37 57/26/36
f 57/26/36 61/37/37 62/38/69
f 62/38/69 63/39/37 57/26/36
f 63/39/37 64/40/37 57/26/36
f 57/26/36 64/40/37 65/27/37
f 66/22/70 67/18/62 68/21/71
f 67/18/62 69/12/43 68/21/71
f 68/21/71 69/12/43 70/20/19
f 69/12/43 71/13/19 70/20/19
f 130/6/58 132/9/72 131/30/73 129/5/59
f 76/9/21 78/10/20 74/11/44
f 82/14/74 83/7/75 84/15/76
f 90/9/77 91/11/51 88/10/54
f 92/13/53 93/12/52 94/20/78
f 93/12/52 95/21/79 94/20/78
f 93/12/52 98/18/80 95/21/79
f 98/18/80 100/22/81 95/21/79
f 102/7/82 105/14/83 103/15/84
f 106/41/85 107/42/86 108/23/33
f 107/42/86 109/43/33 108/23/33
f 108/23/33 109/43/33 110/44/86
f 110/44/86 111/45/86 108/23/33
f 111/45/86 112/46/86 108/23/33
f 108/23/33 112/46/86 113/47/33
f 113/47/33 114/48/86 108/23/33
f 114/48/86 115/49/87 108/23/33
f 108/23/33 115/49/87 116/24/34
f 153/6/55 156/9/88 154/10/14 151/16/14
f 141/18/89 142/17/90 140/19/91 139/12/65
f 28/14/15 30/7/17 29/8/92 27/29/93
f 101/5/46 104/8/94 102/7/82 77/6/18
f 102/7/82 103/15/84 79/16/19 77/6/18
f 133/11/66 138/31/95 131/30/73 132/9/72
f 134/10/67 132/9/72 130/6/58 137/16/96
f 75/30/45 76/9/21 74/11/44 73/31/97
f 37/13/49 122/20/98 118/12/50
f 118/12/50 122/20/98 123/21/99
f 126/14/100 128/7/57 127/8/60 125/29/101
f 118/12/50 123/21/99 120/18/102
f 123/21/99 124/22/103 120/18/102
f 168/8/7 170/7/6 169/14/104 167/29/105
f 22/50/106 24/51/107 23/52/108 21/53/106
f 87/6/109 90/9/77 88/10/54 85/16/110
f 132/9/72 134/10/67 133/11/66
f 126/14/100 136/15/111 128/7/57
f 83/7/75 87/6/109 85/16/110 84/15/76
f 49/10/27 50/16/27 48/6/5 47/9/28
f 118/12/50 119/19/112 117/31/47 35/11/10
f 135/13/64 143/20/96 139/12/65
f 139/12/65 143/20/96 144/21/113
f 139/12/65 144/21/113 141/18/89
f 144/21/113 145/22/114 141/18/89
f 12/54/115 14/55/116 13/56/117 11/57/118
f 148/14/41 149/7/40 150/15/56
f 156/9/88 157/11/11 154/10/14
f 158/13/13 159/12/12 160/20/14
f 159/12/12 161/21/119 160/20/14
f 155/30/120 156/9/88 153/6/55 152/5/121
f 48/6/5 172/5/4 46/30/122 47/9/28
f 159/12/12 164/18/123 161/21/119
f 164/18/123 166/22/124 161/21/119
f 163/19/125 165/17/126 164/18/123 159/12/12
f 30/7/17 32/6/127 31/5/128 29/8/92
f 137/16/96 130/6/58 128/7/57 136/15/111
f 2/58/129 4/59/88 3/60/130 1/61/129
f 169/14/104 170/7/6 171/15/30
f 73/31/97 74/11/44 69/12/43 72/19/61
f 39/16/131 32/6/127 30/7/17 38/15/16
f 89/30/132 96/31/133 91/11/51 90/9/77
f 24/51/107 26/62/134 25/63/135 23/52/108
f 155/30/120 162/31/136 157/11/11 156/9/88
f 36/10/9 34/9/8 32/6/127 39/16/131
f 170/7/6 48/6/5 50/16/27 171/15/30
f 152/5/121 153/6/55 149/7/40 147/8/39
f 4/59/88 6/1/1 5/4/1 3/60/130
f 43/12/25 45/11/26 44/31/137 42/19/24
f 18/64/138 20/65/139 19/66/139 17/67/138
f 10/68/140 12/54/115 11/57/118 9/69/141
f 139/12/65 140/19/91 138/31/95 133/11/66
f 8/2/2 10/68/140 9/69/141 7/3/3
f 105/14/83 102/7/82 104/8/94 173/29/142
f 32/6/127 34/9/8 33/30/48 31/5/128
f 16/70/143 18/64/138 17/67/138 15/71/143
f 162/31/136 163/19/125 159/12/12 157/11/11
f 14/55/116 16/70/143 15/71/143 13/56/117
f 86/5/144 87/6/109 83/7/75 81/8/145
f 81/8/145 83/7/75 82/14/74 80/29/146
f 89/30/132 90/9/77 87/6/109 86/5/144
f 51/13/29 49/10/27 45/11/26 43/12/25
f 97/19/147 99/17/148 98/18/80 93/12/52
f 45/11/26 47/9/28 46/30/122 44/31/137
f 20/65/139 22/50/106 21/53/106 19/66/139
f 96/31/133 97/19/147 93/12/52 91/11/51
f 120/18/102 121/17/149 119/19/112 118/12/50
s 0
f 181/72/150 183/73/150 177/74/150
s 1
f 183/75/151 185/76/152 178/77/153 177/78/151
s 0
f 179/79/154 184/80/154 180/81/154
s 1
f 179/82/155 178/83/153 185/84/152 184/85/155
s 0
f 178/86/156 179/87/156 180/88/156 182/89/156
f 180/90/157 181/72/157 182/91/157
f 183/75/158 184/92/158 185/76/158
f 183/73/159 181/72/159 180/81/159 184/80/159
f 182/93/160 181/94/160 177/95/160 178/96/160
