# Blender 4.4.0
# www.blender.org
mtllib Silver_arrow.mtl
o Flecha_Plata
v -0.001897 -0.005195 -1.488611
v -0.005899 -0.009905 0.000040
v -0.006224 -0.000959 -1.487740
v -0.010235 -0.005409 -0.000397
v -0.007619 0.005128 -1.487883
v -0.011631 0.000678 -0.000540
v -0.005992 0.010971 -1.488097
v -0.009994 0.006261 0.000553
v -0.001670 0.015453 -1.488601
v -0.005672 0.010743 0.000049
v 0.004294 0.016800 -1.488379
v 0.000374 0.012369 0.000326
v 0.010093 0.015474 -1.488685
v 0.006091 0.010764 -0.000034
v 0.014429 0.010978 -1.488248
v 0.010427 0.006269 0.000402
v 0.015825 0.004891 -1.488105
v 0.012394 0.000021 0.000510
v 0.014198 -0.000951 -1.487890
v 0.010758 -0.005563 -0.000584
v 0.009866 -0.005174 -1.488694
v 0.005864 -0.009884 -0.000044
v 0.003830 -0.007059 -1.487664
v 0.000472 -0.011392 -0.000302
v -0.001897 -0.005195 -1.488611
v -0.005899 -0.009905 0.000040
v 0.000317 -0.006721 -0.121694
v -0.001489 -0.006260 -0.122948
v 0.000256 -0.050773 -0.191575
v -0.001378 -0.050013 -0.191412
v 0.000290 -0.055072 -0.220967
v -0.001343 -0.054311 -0.220804
v 0.000489 -0.056697 -0.249831
v -0.001634 -0.055497 -0.249578
v -0.001270 -0.054449 -0.277914
v -0.001040 -0.006285 -0.262942
v -0.000969 -0.006659 -0.309225
v -0.001255 -0.006076 -0.169122
v -0.001193 -0.006191 -0.216713
v 0.001592 -0.008538 -0.495810
v 0.002991 -0.008280 -0.494411
v 0.000565 -0.052606 -0.306103
v 0.002690 -0.051691 -0.305938
v 0.000282 -0.055489 -0.278131
v 0.002488 -0.054296 -0.277911
v 0.000489 -0.056697 -0.249831
v 0.002124 -0.055343 -0.249575
v 0.002414 -0.054158 -0.220802
v 0.002717 -0.006132 -0.262939
v 0.002574 -0.006296 -0.215403
v 0.002788 -0.006505 -0.309223
v 0.002941 -0.006600 -0.355451
v 0.003012 -0.006974 -0.401735
v 0.003165 -0.007069 -0.447963
v 0.012394 0.000021 0.000510
v 0.010427 0.006269 0.000402
v 0.010758 -0.005563 -0.000584
v 0.006091 0.010764 -0.000034
v 0.000374 0.012369 0.000326
v -0.005672 0.010743 0.000049
v -0.009994 0.006261 0.000553
v -0.011631 0.000678 -0.000540
v -0.010235 -0.005409 -0.000397
v -0.005899 -0.009905 0.000040
v 0.000472 -0.011392 -0.000302
v 0.010105 0.004232 -0.447136
v 0.011147 0.005353 -0.494490
v 0.009870 0.004048 -0.400962
v 0.047958 0.025743 -0.305893
v 0.009553 0.003584 -0.354843
v 0.009319 0.003400 -0.308669
v 0.047959 0.027858 -0.305474
v 0.050691 0.029219 -0.278043
v 0.050128 0.027006 -0.277118
v 0.051389 0.029686 -0.249415
v 0.051398 0.027312 -0.248526
v 0.049890 0.026585 -0.220118
v 0.008512 0.003376 -0.262459
v 0.008196 0.002912 -0.216340
v 0.007165 0.004559 -0.122229
v 0.046096 0.026500 -0.191566
v 0.006258 0.005977 -0.123301
v 0.044544 0.027540 -0.191348
v 0.005839 0.006043 -0.169493
v 0.006155 0.006506 -0.215613
v 0.049882 0.028959 -0.221007
v 0.047758 0.030159 -0.220754
v 0.006390 0.006691 -0.261787
v 0.051389 0.029686 -0.249415
v 0.049266 0.030886 -0.249162
v 0.048567 0.030419 -0.277790
v 0.007269 0.007253 -0.309250
v 0.046408 0.028898 -0.305256
v 0.007503 0.007438 -0.355424
v 0.007738 0.007622 -0.401598
v 0.050691 0.029219 -0.278043
v 0.047959 0.027858 -0.305474
v 0.009597 0.008508 -0.493854
v 0.010975 0.007168 -0.495488
v 0.008055 0.008086 -0.447717
v 0.049882 0.028959 -0.221007
v 0.046177 0.024665 -0.191930
v 0.007961 0.002727 -0.170166
v 0.046096 0.026500 -0.191566
v 0.007899 0.002842 -0.122575
v 0.000282 -0.055489 -0.278131
v -0.000986 -0.051566 -0.305885
v 0.000565 -0.052606 -0.306103
v -0.000113 -0.008315 -0.494394
v 0.001592 -0.008538 -0.495810
v -0.000816 -0.006754 -0.355454
v -0.000745 -0.007128 -0.401737
v -0.000592 -0.007222 -0.447966
v -0.005823 0.004580 -0.122128
v -0.004852 0.006074 -0.123198
v -0.044013 0.027581 -0.192037
v -0.042460 0.028656 -0.191836
v -0.047650 0.029753 -0.220121
v -0.045536 0.030926 -0.221263
v -0.048685 0.030543 -0.249857
v -0.047051 0.031897 -0.249601
v -0.045952 0.031228 -0.278282
v -0.004729 0.007047 -0.262992
v -0.004494 0.007232 -0.309166
v -0.004045 0.006098 -0.169409
v -0.004382 0.006443 -0.215546
v -0.048067 0.030054 -0.277140
v -0.043782 0.029699 -0.305783
v -0.045335 0.028625 -0.305984
v -0.006505 0.008752 -0.495044
v -0.007568 0.007238 -0.495336
v -0.004831 0.007577 -0.355304
v -0.005168 0.007922 -0.401442
v -0.005505 0.008267 -0.447580
v -0.005823 0.004580 -0.122128
v -0.044013 0.027581 -0.192037
v -0.006396 0.002626 -0.122511
v -0.044014 0.025466 -0.192456
v -0.006252 0.002790 -0.170047
v -0.006589 0.003135 -0.216185
v -0.047650 0.029753 -0.220121
v -0.047733 0.027359 -0.220594
v -0.006355 0.003319 -0.262359
v -0.048685 0.030543 -0.249857
v -0.048676 0.028169 -0.248968
v -0.048068 0.027940 -0.277558
v -0.006692 0.003665 -0.308497
v -0.045254 0.026789 -0.306348
v -0.007028 0.004010 -0.354635
v -0.007447 0.004075 -0.400828
v -0.048067 0.030054 -0.277140
v -0.045335 0.028625 -0.305984
v -0.007967 0.005583 -0.494302
v -0.007568 0.007238 -0.495336
v -0.007222 0.004519 -0.448309
v 0.000317 -0.006721 -0.121694
v 0.000256 -0.050773 -0.191575
v 0.002186 -0.006386 -0.123000
v 0.002298 -0.050138 -0.191464
v 0.002503 -0.005922 -0.169120
v 0.000290 -0.055072 -0.220967
v 0.003828 -0.028467 -1.490544
v 0.004582 0.038245 -1.490930
v 0.007165 0.004559 -0.122229
v 0.010975 0.007168 -0.495488
v 0.005864 -0.009884 -0.000044
v -0.046366 0.005030 -1.594798
v -0.024402 0.005030 -1.594798
v -0.038809 0.007050 -1.553834
v -0.016581 0.007050 -1.562672
v -0.033115 0.009419 -1.528276
v -0.008871 0.008955 -1.536912
v -0.025795 0.010163 -1.513822
v 0.004094 0.010163 -1.528610
v -0.016366 0.012682 -1.496321
v 0.004094 0.012682 -1.505962
v -0.001313 0.014823 -1.483327
v 0.004094 0.014823 -1.483327
v 0.054555 0.005030 -1.594798
v 0.032591 0.005030 -1.594798
v 0.046998 0.007050 -1.553834
v 0.024770 0.007050 -1.562672
v 0.041303 0.009419 -1.528276
v 0.017059 0.008955 -1.536912
v 0.033983 0.010163 -1.513822
v 0.024554 0.012682 -1.496321
v 0.009501 0.014823 -1.483327
v -0.038809 0.003009 -1.553834
v -0.016581 0.003009 -1.562672
v -0.033115 0.000641 -1.528276
v -0.008871 0.001105 -1.536912
v -0.025795 -0.000104 -1.513822
v 0.004094 -0.000104 -1.528610
v -0.016366 -0.002622 -1.496321
v 0.004094 -0.002622 -1.505962
v -0.001313 -0.004763 -1.483327
v 0.004094 -0.004763 -1.483327
v 0.046998 0.003009 -1.553834
v 0.024770 0.003009 -1.562672
v 0.041303 0.000641 -1.528276
v 0.017059 0.001105 -1.536912
v 0.033983 -0.000104 -1.513822
v 0.024554 -0.002622 -1.496321
v 0.009501 -0.004763 -1.483327
vn -1.0000 0.0076 -0.0026
vn -0.8619 0.5071 -0.0007
vn -0.8618 0.5073 -0.0006
vn 0.4989 -0.8620 0.0896
vn 0.9138 -0.4038 0.0438
vn 0.9124 -0.3821 0.1468
vn 0.4803 -0.8202 0.3108
vn -0.8719 -0.4897 -0.0020
vn -1.0000 0.0075 -0.0026
vn -0.9220 -0.3857 -0.0348
vn -0.8073 -0.5894 -0.0300
vn -0.7633 -0.6436 -0.0565
vn -0.5129 -0.8584 -0.0050
vn -0.5131 -0.8583 -0.0050
vn -0.8558 -0.4340 0.2815
vn -1.0000 0.0026 0.0003
vn -0.9203 -0.3650 0.1406
vn 0.7942 -0.6061 0.0425
vn 0.4968 -0.8679 -0.0001
vn 0.4930 -0.8700 -0.0002
vn 0.8589 -0.5121 0.0074
vn 0.4536 -0.8688 -0.1985
vn 0.8935 -0.4434 -0.0714
vn 0.4769 -0.8670 -0.1444
vn 0.9384 -0.3417 -0.0516
vn 0.9143 -0.4042 -0.0253
vn 0.9999 -0.0126 0.0054
vn 0.8639 -0.5036 0.0013
vn 0.9999 -0.0112 -0.0020
vn 0.9998 -0.0169 0.0046
vn 0.9935 -0.1136 0.0008
vn 0.9510 -0.3091 0.0009
vn -0.0028 -0.0038 1.0000
vn -0.0027 -0.0038 1.0000
vn -0.0029 -0.0035 1.0000
vn -0.9524 -0.0081 0.3048
vn -0.7890 -0.5983 0.1393
vn -0.8121 -0.5115 0.2810
vn -0.8792 -0.0176 0.4761
vn 0.7529 -0.6555 -0.0587
vn 0.7949 -0.6062 -0.0260
vn 0.9998 -0.0184 0.0119
vn 0.9959 -0.0188 0.0886
vn -0.5163 -0.8540 -0.0636
vn -0.5173 -0.8558 0.0031
vn -1.0000 0.0041 -0.0071
vn -0.9447 -0.3230 -0.0569
vn -0.1070 0.9938 -0.0287
vn -0.1740 0.9835 -0.0504
vn -0.4883 0.8726 -0.0024
vn -0.4900 0.8717 0.0048
vn -0.8054 -0.5916 0.0376
vn -0.5152 -0.8571 -0.0010
vn 0.1426 0.9792 0.1444
vn 0.1257 0.9909 0.0473
vn -0.4810 0.8719 0.0919
vn -0.4514 0.8366 0.3103
vn 0.9905 0.0003 -0.1378
vn 0.8214 -0.5658 -0.0720
vn 0.9808 0.0230 -0.1938
vn 0.5010 0.8655 0.0011
vn 0.1912 0.9803 -0.0505
vn 0.1243 0.9920 -0.0225
vn 0.5055 0.8628 0.0008
vn -0.0030 -0.0038 1.0000
vn -0.0030 -0.0039 1.0000
vn -0.0028 -0.0039 1.0000
vn 0.7306 -0.6827 0.0050
vn 0.5809 -0.8140 -0.0047
vn 0.0154 0.9999 0.0050
vn -0.4832 0.8755 0.0093
vn -0.0337 0.9581 0.2844
vn -0.1274 0.9811 0.1455
vn -0.4862 0.8738 0.0055
vn 0.0032 1.0000 0.0076
vn -0.4884 0.8726 -0.0024
vn -0.3954 0.9185 -0.0008
vn -0.0610 0.9958 -0.0682
vn -0.2093 0.9778 0.0079
vn 0.7741 -0.6161 0.1457
vn 0.8024 -0.5232 0.2870
vn 0.4969 -0.8678 -0.0000
vn -0.8698 -0.4934 -0.0029
vn 0.0792 0.9944 -0.0697
vn -0.5113 0.8364 -0.1974
vn -0.4948 0.8571 -0.1436
vn -0.4995 -0.8101 0.3071
vn -0.4659 -0.7467 0.4747
vn 0.9497 -0.0268 0.3119
vn -0.4814 0.8746 -0.0575
vn 0.5050 0.8631 0.0070
vn 0.9982 -0.0181 -0.0572
vn -1.0000 0.0026 0.0002
vn -0.9950 -0.0994 -0.0007
vn 0.0501 0.9569 0.2861
vn -0.4135 0.7722 0.4824
vn -0.8997 -0.4302 -0.0746
vn -0.9567 -0.2910 -0.0043
vn 0.8482 -0.4493 0.2806
vn 0.4509 -0.7545 0.4769
vn 0.4929 -0.8701 -0.0004
vn -0.0114 -0.9999 -0.0032
vn -0.0113 -0.9999 -0.0032
vn -0.1074 0.9932 0.0442
vn -0.4900 0.8717 0.0052
vn 0.5010 0.8654 0.0080
vn -0.4929 -0.8570 -0.1506
vn 0.4132 0.9106 0.0013
vn 0.2291 0.9734 0.0056
vn 0.0127 0.9999 0.0013
vn 0.5093 0.8605 0.0065
vn 0.5094 0.8605 0.0065
vn 0.0126 0.9999 0.0013
vn -0.5979 -0.8015 -0.0041
vn -1.0000 0.0012 0.0077
vn -0.9961 -0.0022 0.0878
vn 0.4989 -0.8666 0.0077
vn -0.8319 -0.5492 -0.0795
vn -0.7410 -0.6715 -0.0013
vn -0.9885 0.0197 -0.1497
vn -0.9785 0.0405 -0.2023
vn -0.9219 -0.3856 0.0382
vn -0.5161 -0.8526 0.0812
vn -0.5089 -0.8608 -0.0054
vn -0.8698 -0.4935 -0.0029
vn -0.5090 -0.8608 -0.0054
vn -1.0000 0.0076 -0.0025
vn 0.5004 0.8657 0.0145
vn 0.4961 0.8665 -0.0562
vn -0.5085 -0.8611 -0.0054
vn -0.5085 -0.8611 -0.0055
vn -0.9980 -0.0034 -0.0625
vn 0.5001 -0.8639 -0.0598
vn 0.9999 -0.0083 0.0062
vn 0.8617 -0.5074 0.0006
vn -0.4931 0.8700 0.0009
vn -0.4931 0.8700 0.0010
vn 0.8773 -0.0336 0.4787
vn 0.8703 0.4925 0.0067
vn 0.4973 0.8627 0.0918
vn 0.4679 0.8272 0.3112
vn 0.4229 0.7657 0.4847
vn 0.5097 0.8486 -0.1416
vn 0.5280 0.8272 -0.1920
vn -0.4680 -0.8605 -0.2014
vn -0.0106 0.9985 -0.0530
vn -0.0193 0.9968 -0.0779
vn -0.0206 0.9975 -0.0673
vn -0.0542 0.9923 -0.1117
vn -0.0385 0.9939 -0.1032
vn -0.8860 -0.0000 0.4637
vn -0.7711 -0.0000 0.6367
vn -0.9395 -0.0000 0.3424
vn -0.9797 -0.0000 0.2003
vn -0.9834 -0.0000 0.1814
vn 0.9649 -0.0000 -0.2628
vn 0.9716 -0.0000 -0.2365
vn 0.6534 -0.0000 0.7570
vn 0.7711 -0.0000 0.6367
vn -0.0000 -0.0000 -1.0000
vn 0.7878 -0.0000 -0.6160
vn 0.0106 0.9985 -0.0530
vn 0.0193 0.9968 -0.0779
vn 0.0206 0.9975 -0.0673
vn 0.0542 0.9923 -0.1117
vn 0.0385 0.9939 -0.1032
vn 0.8860 -0.0000 0.4637
vn 0.9395 -0.0000 0.3424
vn 0.9797 -0.0000 0.2003
vn 0.9834 -0.0000 0.1814
vn -0.9716 -0.0000 -0.2365
vn -0.9649 -0.0000 -0.2628
vn -0.7878 -0.0000 -0.6160
vn -0.0106 -0.9985 -0.0530
vn -0.0193 -0.9968 -0.0779
vn -0.0206 -0.9975 -0.0673
vn -0.0542 -0.9923 -0.1117
vn -0.0385 -0.9939 -0.1032
vn 0.0106 -0.9985 -0.0530
vn 0.0193 -0.9968 -0.0779
vn 0.0206 -0.9975 -0.0673
vn 0.0542 -0.9923 -0.1117
vn 0.0385 -0.9939 -0.1032
vn -0.6534 -0.0000 0.7570
vt 0.531168 0.005275
vt 0.577912 0.004789
vt 0.577912 0.998554
vt 0.531168 0.998554
vt 0.025261 0.088331
vt 0.041329 0.088331
vt 0.071031 0.069874
vt 0.057397 0.069389
vt 0.032565 0.106788
vt 0.393370 0.115531
vt 0.041816 0.125245
vt 0.063727 0.143217
vt 0.393857 0.145645
vt 0.383632 0.026160
vt 0.390936 0.056274
vt 0.392883 0.085903
vt 0.373893 0.265616
vt 0.386066 0.265130
vt 0.049120 0.143702
vt 0.393370 0.175274
vt 0.392883 0.205388
vt 0.392883 0.235016
vt 0.298908 0.331187
vt 0.395318 0.317587
vt 0.369511 0.325358
vt 0.373893 0.025189
vt 0.016010 0.106788
vt 0.025261 0.125245
vt 0.202499 0.333615
vt 0.106089 0.331187
vt 0.035486 0.325358
vt 0.009680 0.317587
vt 0.035486 0.309815
vt 0.106089 0.303987
vt 0.202499 0.302044
vt 0.298908 0.303987
vt 0.369511 0.309815
vt 0.905120 0.004303
vt 0.951864 0.004303
vt 0.951864 0.997582
vt 0.905120 0.997582
vt 0.671400 0.004789
vt 0.718144 0.004789
vt 0.718144 0.998068
vt 0.671400 0.998068
vt 0.437680 0.005275
vt 0.484424 0.005275
vt 0.484424 0.998554
vt 0.437680 0.998554
vt 0.998608 0.004303
vt 0.998608 0.997582
vt 0.811632 0.004789
vt 0.858376 0.004303
vt 0.858376 0.998068
vt 0.811632 0.998068
vt 0.624656 0.004789
vt 0.624656 0.998068
vt 0.764888 0.004789
vt 0.764888 0.998068
vt 0.269784 0.909061
vt 0.319737 0.994391
vt 0.349738 0.949165
vt 0.289032 0.866225
vt 0.366308 0.917109
vt 0.301208 0.826276
vt 0.366308 0.883074
vt 0.281336 0.772670
vt 0.365163 0.839603
vt 0.307548 0.763843
vt 0.346010 0.776041
vt 0.333700 0.755039
vt 0.377389 0.863618
vt 0.390312 0.863618
vt 0.393482 0.820206
vt 0.374219 0.820206
vt 0.378326 0.897646
vt 0.389375 0.897646
vt 0.381307 0.932001
vt 0.386394 0.932001
vt 0.383851 0.982583
vt 0.386555 0.935539
vt 0.381468 0.935539
vt 0.384012 0.980749
vt 0.372026 0.755039
vt 0.396678 0.755039
vt 0.393984 0.820206
vt 0.374720 0.820206
vt 0.390473 0.838909
vt 0.377550 0.838909
vt 0.379071 0.894578
vt 0.388952 0.894578
vt 0.269678 0.909061
vt 0.288925 0.866226
vt 0.349631 0.949165
vt 0.319630 0.994391
vt 0.301101 0.826276
vt 0.366202 0.917109
vt 0.281229 0.772670
vt 0.366202 0.883074
vt 0.307441 0.763843
vt 0.365056 0.839603
vt 0.333594 0.755039
vt 0.345903 0.776041
vt 0.390814 0.863618
vt 0.377890 0.863618
vt 0.389876 0.897646
vt 0.378828 0.897646
vt 0.386895 0.932001
vt 0.381809 0.932001
vt 0.384352 0.982583
vt 0.384012 0.981622
vt 0.381468 0.936412
vt 0.386555 0.936412
vt 0.388952 0.895451
vt 0.379071 0.895451
vt 0.377550 0.839782
vt 0.390473 0.839782
vt 0.269464 0.909061
vt 0.288712 0.866225
vt 0.349417 0.949165
vt 0.319416 0.994391
vt 0.300888 0.826276
vt 0.365988 0.917109
vt 0.281016 0.772670
vt 0.365988 0.883074
vt 0.307227 0.763843
vt 0.364842 0.839603
vt 0.333380 0.755039
vt 0.345689 0.776041
vt 0.269571 0.909061
vt 0.319523 0.994391
vt 0.349524 0.949165
vt 0.288819 0.866225
vt 0.366095 0.917109
vt 0.300994 0.826276
vt 0.366095 0.883074
vt 0.281122 0.772670
vt 0.364949 0.839603
vt 0.307334 0.763843
vt 0.345796 0.776041
vt 0.333487 0.755039
vt 0.396177 0.755039
vt 0.371524 0.755039
s 1
usemtl Material
f 6/1/1 8/2/2 7/3/3 5/4/1
f 161/5/4 48/6/5 159/7/6 157/8/7
f 34/9/8 36/10/9 35/11/10
f 146/11/11 148/12/12 147/13/13 143/10/14
f 28/14/15 38/15/16 30/7/17
f 77/6/18 79/16/19 78/10/20 76/9/21
f 40/17/22 41/18/23 42/19/24
f 41/18/23 43/12/25 42/19/24
f 45/11/26 49/10/27 47/9/28
f 51/13/29 43/12/25 52/20/30
f 43/12/25 53/21/31 52/20/30
f 43/12/25 41/18/23 53/21/31
f 41/18/23 54/22/32 53/21/31
f 57/23/33 65/24/34 166/25/35
f 136/8/36 138/7/37 137/14/38 135/26/39
f 71/13/19 69/12/40 74/11/41 78/10/20
f 75/27/42 101/5/43 77/6/18 76/9/21
f 35/11/10 106/28/44 33/27/45 34/9/8
f 37/13/46 107/12/47 35/11/10 36/10/9
f 91/11/48 93/12/49 92/13/50 88/10/51
f 138/7/37 142/6/52 140/16/14 139/15/53
f 117/7/54 119/6/55 118/5/56 116/8/57
f 72/19/58 69/12/40 67/18/59 165/17/60
f 124/13/61 128/12/62 122/11/63 123/10/64
f 55/29/65 56/30/66 57/23/33
f 56/30/66 58/31/34 57/23/33
f 57/23/33 58/31/34 59/32/34
f 59/32/34 60/33/34 57/23/33
f 60/33/34 61/34/34 57/23/33
f 57/23/33 61/34/34 62/35/67
f 62/35/67 63/36/34 57/23/33
f 63/36/34 64/37/34 57/23/33
f 57/23/33 64/37/34 65/24/34
f 66/22/68 67/18/59 68/21/69
f 67/18/59 69/12/40 68/21/69
f 68/21/69 69/12/40 70/20/19
f 69/12/40 71/13/19 70/20/19
f 119/6/55 121/9/70 120/27/71 118/5/56
f 76/9/21 78/10/20 74/11/41
f 82/14/72 83/7/73 84/15/74
f 90/9/75 91/11/48 88/10/51
f 92/13/50 93/12/49 94/20/76
f 93/12/49 95/21/77 94/20/76
f 93/12/49 98/18/78 95/21/77
f 98/18/78 100/22/79 95/21/77
f 102/7/80 105/14/81 103/15/82
f 142/6/52 145/9/83 143/10/14 140/16/14
f 130/18/84 131/17/85 129/19/86 128/12/62
f 28/14/15 30/7/17 29/8/87 27/26/88
f 101/5/43 104/8/89 102/7/80 77/6/18
f 102/7/80 103/15/82 79/16/19 77/6/18
f 122/11/63 127/28/90 120/27/71 121/9/70
f 123/10/64 121/9/70 119/6/55 126/16/91
f 75/27/42 76/9/21 74/11/41 73/28/92
f 37/13/46 111/20/93 107/12/47
f 107/12/47 111/20/93 112/21/94
f 115/14/95 117/7/54 116/8/57 114/26/96
f 107/12/47 112/21/94 109/18/97
f 112/21/94 113/22/98 109/18/97
f 157/8/7 159/7/6 158/14/99 156/26/100
f 22/38/101 24/39/102 23/40/103 21/41/101
f 87/6/104 90/9/75 88/10/51 85/16/105
f 121/9/70 123/10/64 122/11/63
f 115/14/95 125/15/106 117/7/54
f 83/7/73 87/6/104 85/16/105 84/15/74
f 49/10/27 50/16/27 48/6/5 47/9/28
f 107/12/47 108/19/107 106/28/44 35/11/10
f 124/13/61 132/20/91 128/12/62
f 128/12/62 132/20/91 133/21/108
f 128/12/62 133/21/108 130/18/84
f 133/21/108 134/22/109 130/18/84
f 12/42/110 14/43/111 13/44/112 11/45/113
f 137/14/38 138/7/37 139/15/53
f 145/9/83 146/11/11 143/10/14
f 147/13/13 148/12/12 149/20/14
f 148/12/12 150/21/114 149/20/14
f 144/27/115 145/9/83 142/6/52 141/5/116
f 48/6/5 161/5/4 46/27/117 47/9/28
f 148/12/12 153/18/118 150/21/114
f 153/18/118 155/22/119 150/21/114
f 152/19/120 154/17/121 153/18/118 148/12/12
f 30/7/17 32/6/122 31/5/123 29/8/87
f 126/16/91 119/6/55 117/7/54 125/15/106
f 2/46/124 4/47/83 3/48/125 1/49/126
f 158/14/99 159/7/6 160/15/30
f 73/28/92 74/11/41 69/12/40 72/19/58
f 39/16/127 32/6/122 30/7/17 38/15/16
f 89/27/128 96/28/129 91/11/48 90/9/75
f 24/39/102 26/50/130 25/51/131 23/40/103
f 144/27/115 151/28/132 146/11/11 145/9/83
f 36/10/9 34/9/8 32/6/122 39/16/127
f 159/7/6 48/6/5 50/16/27 160/15/30
f 141/5/116 142/6/52 138/7/37 136/8/36
f 4/47/83 6/1/1 5/4/1 3/48/125
f 43/12/25 45/11/26 44/28/133 42/19/24
f 18/52/134 20/53/135 19/54/135 17/55/134
f 10/56/136 12/42/110 11/45/113 9/57/137
f 128/12/62 129/19/86 127/28/90 122/11/63
f 8/2/2 10/56/136 9/57/137 7/3/3
f 105/14/81 102/7/80 104/8/89 164/26/138
f 32/6/122 34/9/8 33/27/45 31/5/123
f 16/58/139 18/52/134 17/55/134 15/59/139
f 151/28/132 152/19/120 148/12/12 146/11/11
f 14/43/111 16/58/139 15/59/139 13/44/112
f 86/5/140 87/6/104 83/7/73 81/8/141
f 81/8/141 83/7/73 82/14/72 80/26/142
f 89/27/128 90/9/75 87/6/104 86/5/140
f 51/13/29 49/10/27 45/11/26 43/12/25
f 97/19/143 99/17/144 98/18/78 93/12/49
f 45/11/26 47/9/28 46/27/117 44/28/133
f 20/53/135 22/38/101 21/41/101 19/54/135
f 96/28/129 97/19/143 93/12/49 91/11/48
f 109/18/97 110/17/145 108/19/107 107/12/47
s 0
f 168/60/146 167/61/146 169/62/146 170/63/146
f 170/63/147 169/62/147 171/64/147 172/65/147
f 172/65/148 171/64/148 173/66/148 174/67/148
f 174/67/149 173/66/149 175/68/149 176/69/149
f 176/69/150 175/68/150 177/70/150 178/71/150
s 1
f 173/72/151 192/73/151 194/74/152 175/75/152
f 171/76/153 190/77/153 192/73/151 173/72/151
f 169/78/154 188/79/154 190/77/153 171/76/153
f 167/80/155 188/79/154 169/78/154
f 170/81/156 189/82/156 168/83/157
f 187/84/158 204/85/158 203/86/159 186/87/159
f 174/88/160 193/89/160 191/90/161 172/91/161
f 172/91/161 191/90/161 189/82/156 170/81/156
s 0
f 180/92/162 182/93/162 181/94/162 179/95/162
f 182/93/163 184/96/163 183/97/163 181/94/163
f 184/96/164 174/98/164 185/99/164 183/97/164
f 174/98/165 176/100/165 186/101/165 185/99/165
f 176/100/166 178/102/166 187/103/166 186/101/166
s 1
f 186/87/159 203/86/159 202/104/167 185/105/167
f 185/105/167 202/104/167 200/106/168 183/107/168
f 183/107/168 200/106/168 198/108/169 181/109/169
f 181/109/169 198/108/169 179/110/170
f 180/111/171 199/112/172 182/113/172
f 184/114/173 201/115/173 193/116/160 174/117/160
f 182/113/172 199/112/172 201/115/173 184/114/173
s 0
f 168/118/174 189/119/174 188/120/174 167/121/174
f 189/119/175 191/122/175 190/123/175 188/120/175
f 191/122/176 193/124/176 192/125/176 190/123/176
f 193/124/177 195/126/177 194/127/177 192/125/177
f 195/126/178 197/128/178 196/129/178 194/127/178
f 180/130/179 179/131/179 198/132/179 199/133/179
f 199/133/180 198/132/180 200/134/180 201/135/180
f 201/135/181 200/134/181 202/136/181 193/137/181
f 193/137/182 202/136/182 203/138/182 195/139/182
f 195/139/183 203/138/183 204/140/183 197/141/183
s 1
f 175/75/152 194/74/152 196/142/184 177/143/184
