# Blender 4.4.0
# www.blender.org
mtllib Compass_cover.mtl
o CompassTapa
v 0.000046 0.628903 -3.329109
v 0.276548 0.767814 -3.476602
v 0.200390 0.819626 -3.531552
v 0.522720 0.949036 -3.553730
v 0.378825 1.046956 -3.657586
v 0.104619 0.852795 -3.566747
v 0.197807 1.109589 -3.724124
v -0.001389 0.863969 -3.578689
v -0.002537 1.130702 -3.746630
v -0.107206 0.852148 -3.566144
v -0.202690 1.108472 -3.722957
v -0.202595 0.818509 -3.530385
v -0.382943 1.044838 -3.655463
v -0.278083 0.766285 -3.474977
v -0.525691 0.946213 -3.550623
v -0.326399 0.700652 -3.405293
v -0.617061 0.822064 -3.418991
v -0.342759 0.628021 -3.328086
v -0.647964 0.684682 -3.273123
v -0.325633 0.555390 -3.251154
v -0.276552 0.489992 -3.181615
v -0.200394 0.438180 -3.126666
v -0.522725 0.423798 -2.996226
v -0.378829 0.325995 -2.892304
v -0.104623 0.405069 -3.091576
v -0.197811 0.263244 -2.825833
v 0.001385 0.393895 -3.079634
v 0.107202 0.405657 -3.092073
v 0.002533 0.242131 -2.803326
v 0.003490 0.256774 -2.456429
v -0.271768 0.286002 -2.487352
v -0.520524 0.371984 -2.578729
v -0.718285 0.506543 -2.721490
v -0.615434 0.547418 -3.127465
v -0.845725 0.676388 -2.901846
v -0.890405 0.864994 -3.101889
v -0.847925 1.053776 -3.302248
v -0.722399 1.224327 -3.483311
v -0.526169 1.359886 -3.627305
v -0.278465 1.447278 -3.720098
v -0.003494 1.477978 -3.752540
v 0.271764 1.448749 -3.721618
v 0.520520 1.362767 -3.630241
v 0.579360 1.522169 -3.592277
v 0.302571 1.617913 -3.693905
v -0.003877 1.650376 -3.728392
v -0.309943 1.616324 -3.692174
v -0.585679 1.519052 -3.588921
v -0.804010 1.368085 -3.428739
v -0.943696 1.178302 -3.227148
v -0.991056 0.968172 -3.004139
v -0.941305 0.758335 -2.781378
v -0.799418 0.569259 -2.580771
v -0.579364 0.419468 -2.421860
v -0.302576 0.323665 -2.320128
v 0.003873 0.291261 -2.285745
v 0.278461 0.287473 -2.488872
v 0.309938 0.325429 -2.321897
v 0.526165 0.374865 -2.581665
v 0.585675 0.422644 -2.425045
v 0.722395 0.510424 -2.725659
v 0.804006 0.573552 -2.585398
v 0.847921 0.680916 -2.906617
v 0.943692 0.763393 -2.786818
v 0.890401 0.869757 -3.107080
v 0.991052 0.973523 -3.009828
v 0.845721 1.058363 -3.307124
v 0.941300 1.183360 -3.232588
v 0.718281 1.228209 -3.487480
v 0.799414 1.372495 -3.433300
v 0.615430 0.825416 -3.422491
v 0.325629 0.702475 -3.407168
v 0.647960 0.688152 -3.276833
v 0.617056 0.550770 -3.130965
v 0.342755 0.629785 -3.330131
v 0.326395 0.557154 -3.252924
v 0.525686 0.426679 -2.999162
v 0.382939 0.327995 -2.894494
v 0.278078 0.491521 -3.183241
v 0.202591 0.439297 -3.127832
v 0.202686 0.264362 -2.827000
v -0.000050 0.452636 -3.495176
v 0.236651 0.399354 -3.438706
v 0.201060 0.351894 -3.388213
v 0.444267 0.388381 -3.355604
v 0.377485 0.299107 -3.260832
v 0.145855 0.314196 -3.348247
v 0.273773 0.228298 -3.185775
v 0.076299 0.290084 -3.322594
v 0.143176 0.183132 -3.137720
v -0.000720 0.281850 -3.313969
v -0.001294 0.167606 -3.121322
v -0.077643 0.290437 -3.322948
v -0.145764 0.183602 -3.138284
v -0.147007 0.314784 -3.348744
v -0.275882 0.229416 -3.186942
v -0.201925 0.352658 -3.389026
v -0.379020 0.300577 -3.262353
v -0.237134 0.400354 -3.439663
v -0.445036 0.390028 -3.357440
v -0.249093 0.453107 -3.495740
v -0.236655 0.505919 -3.551646
v -0.201064 0.553379 -3.602139
v -0.444271 0.588220 -3.567695
v -0.377489 0.677377 -3.662533
v -0.145859 0.591077 -3.642106
v -0.273777 0.748126 -3.737485
v -0.076303 0.615189 -3.667758
v 0.000715 0.623482 -3.676488
v -0.143180 0.793469 -3.785579
v -0.415090 0.951431 -3.814917
v -0.572380 0.844219 -3.701099
v -0.673700 0.708837 -3.557420
v -0.709005 0.558634 -3.398051
v -0.467520 0.489124 -3.462567
v -0.674848 0.408314 -3.238472
v -0.574772 0.272697 -3.094373
v -0.418343 0.164838 -2.979952
v -0.220964 0.095383 -2.906205
v -0.001963 0.071153 -2.880618
v 0.217229 0.094559 -2.905288
v 0.415086 0.163250 -2.978222
v 0.572376 0.270462 -3.092040
v 0.673696 0.405844 -3.235719
v 0.709000 0.555929 -3.395154
v 0.467516 0.487301 -3.460693
v 0.249089 0.452166 -3.494613
v 0.237129 0.504919 -3.550689
v 0.445032 0.586456 -3.565925
v 0.674844 0.706249 -3.554733
v 0.574768 0.841984 -3.698766
v 0.379016 0.675966 -3.660841
v 0.201921 0.552615 -3.601326
v 0.147003 0.590606 -3.641542
v 0.077638 0.614896 -3.667510
v 0.001290 0.808819 -3.801938
v -0.217233 1.020122 -3.887851
v -0.543104 1.177521 -3.845492
v -0.748901 1.037140 -3.696478
v -0.881412 0.860119 -3.508559
v -0.927623 0.663633 -3.299969
v -0.883038 0.466911 -3.091234
v -0.751963 0.289420 -2.902751
v -0.547313 0.148275 -2.752925
v -0.289181 0.057471 -2.656528
v -0.002633 0.025772 -2.622852
v 0.284202 0.056353 -2.655361
v 0.543099 0.146275 -2.750736
v 0.748897 0.286480 -2.899710
v 0.881408 0.463676 -3.087668
v 0.927619 0.660104 -3.296154
v 0.883034 0.856708 -3.504955
v 0.751959 1.034317 -3.693371
v 0.547309 1.175462 -3.843198
v 0.418339 0.949843 -3.813187
v 0.275878 0.747068 -3.736423
v 0.145759 0.792822 -3.784976
v 0.001959 1.043411 -3.912586
v -0.284206 1.267383 -3.940763
v -0.628063 1.411247 -3.786802
v -0.866008 1.248870 -3.614535
v -1.019184 1.044209 -3.397149
v -1.072667 0.817023 -3.156116
v -1.021098 0.589602 -2.914662
v -0.869548 0.384353 -2.696778
v -0.632943 0.221094 -2.523488
v -0.334340 0.116117 -2.412003
v -0.003016 0.079478 -2.373098
v 0.328595 0.114765 -2.410692
v 0.628059 0.218742 -2.520945
v 0.866004 0.380942 -2.693173
v 1.019180 0.585721 -2.910494
v 1.072663 0.812848 -3.151698
v 1.021094 1.040210 -3.393046
v 0.869544 1.245636 -3.610969
v 0.632939 1.408718 -3.784220
v 0.669295 1.553515 -3.716373
v 0.919582 1.380965 -3.533120
v 1.079838 1.163718 -3.302652
v 1.134373 0.923300 -3.047383
v 1.077829 0.683058 -2.792429
v 0.915851 0.466458 -2.562564
v 0.664224 0.294966 -2.380373
v 0.347539 0.185108 -2.263763
v -0.003207 0.147587 -2.224111
v -0.353571 0.186343 -2.265139
v -0.669299 0.297436 -2.383126
v -0.919586 0.470105 -2.566313
v -1.079842 0.687175 -2.796742
v -1.134377 0.927652 -3.052116
v -1.077833 1.167894 -3.307070
v -0.915855 1.384493 -3.536935
v -0.664229 1.556103 -3.719060
v -0.328599 1.515106 -3.897121
v -0.347543 1.665961 -3.835670
v 0.003012 1.550452 -3.934545
v 0.003203 1.703365 -3.875388
v 0.334336 1.513871 -3.895744
v 0.353566 1.664550 -3.834255
v 0.002629 1.297965 -3.973270
v 0.220960 1.019299 -3.886934
v 0.289177 1.266266 -3.939596
v 1.081943 0.241311 -1.630607
v 1.081943 0.296595 -1.646085
v 1.081943 0.297920 -1.535390
v 1.081943 0.352076 -1.631929
v 1.081943 0.393194 -1.591894
v 1.081943 0.408685 -1.536713
v 1.081943 0.394518 -1.481200
v 1.081943 0.354470 -1.440069
v 1.081943 0.299302 -1.424526
v 1.081943 0.243704 -1.438747
v 1.081943 0.202704 -1.478716
v 1.081943 0.187095 -1.533964
v 1.081943 0.201321 -1.589581
v 0.648342 0.241311 -1.630607
v 0.648342 0.296595 -1.646085
v 0.648342 0.297920 -1.535390
v 0.648342 0.352076 -1.631929
v 0.648342 0.393194 -1.591894
v 0.648342 0.408685 -1.536713
v 0.648342 0.394518 -1.481200
v 0.648342 0.354470 -1.440069
v 0.648342 0.299302 -1.424526
v 0.648342 0.243704 -1.438747
v 0.648342 0.202704 -1.478716
v 0.648342 0.187095 -1.533964
v 0.648342 0.201321 -1.589581
v 0.645281 0.230630 -1.636599
v 0.645281 0.285797 -1.652142
v 0.645281 0.287239 -1.541382
v 0.645281 0.341395 -1.637921
v 0.645281 0.382395 -1.597952
v 0.645281 0.397887 -1.542770
v 0.645281 0.383837 -1.487192
v 0.645281 0.343671 -1.446127
v 0.645281 0.288504 -1.430583
v 0.645281 0.233023 -1.444739
v 0.645281 0.191906 -1.484774
v 0.645281 0.176414 -1.539955
v 0.645281 0.190523 -1.595639
v 0.218951 0.230630 -1.636599
v 0.218951 0.285797 -1.652142
v 0.218951 0.287239 -1.541382
v 0.218951 0.341395 -1.637921
v 0.218951 0.382395 -1.597952
v 0.218951 0.397887 -1.542770
v 0.218951 0.383837 -1.487192
v 0.218951 0.343671 -1.446127
v 0.218951 0.288504 -1.430583
v 0.218951 0.233023 -1.444739
v 0.218951 0.191906 -1.484774
v 0.218951 0.176414 -1.539955
v 0.218951 0.190523 -1.595639
v 0.216751 0.241311 -1.630607
v 0.216751 0.296595 -1.646085
v 0.216751 0.297920 -1.535390
v 0.216751 0.352076 -1.631929
v 0.216751 0.393194 -1.591894
v 0.216751 0.408685 -1.536713
v 0.216751 0.394518 -1.481200
v 0.216751 0.354470 -1.440069
v 0.216751 0.299302 -1.424526
v 0.216751 0.243704 -1.438747
v 0.216751 0.202704 -1.478716
v 0.216751 0.187095 -1.533964
v 0.216751 0.201321 -1.589581
v -0.216755 0.241311 -1.630607
v -0.216755 0.296595 -1.646085
v -0.216755 0.297920 -1.535390
v -0.216755 0.352076 -1.631929
v -0.216755 0.393194 -1.591894
v -0.216755 0.408685 -1.536713
v -0.216755 0.394518 -1.481200
v -0.216755 0.354470 -1.440069
v -0.216755 0.299302 -1.424526
v -0.216755 0.243704 -1.438747
v -0.216755 0.202704 -1.478716
v -0.216755 0.187095 -1.533964
v -0.216755 0.201321 -1.589581
v -0.219529 0.230630 -1.636599
v -0.219529 0.285797 -1.652142
v -0.219529 0.287239 -1.541382
v -0.219529 0.341395 -1.637921
v -0.219529 0.382395 -1.597952
v -0.219529 0.397887 -1.542770
v -0.219529 0.383837 -1.487192
v -0.219529 0.343671 -1.446127
v -0.219529 0.288504 -1.430583
v -0.219529 0.233023 -1.444739
v -0.219529 0.191906 -1.484774
v -0.219529 0.176414 -1.539955
v -0.219529 0.190523 -1.595639
v -0.645955 0.230630 -1.636599
v -0.645955 0.285797 -1.652142
v -0.645955 0.287239 -1.541382
v -0.645955 0.341395 -1.637921
v -0.645955 0.382395 -1.597952
v -0.645955 0.397887 -1.542770
v -0.645955 0.383837 -1.487192
v -0.645955 0.343671 -1.446127
v -0.645955 0.288504 -1.430583
v -0.645955 0.233023 -1.444739
v -0.645955 0.191906 -1.484774
v -0.645955 0.176414 -1.539955
v -0.645955 0.190523 -1.595639
v -0.648346 0.241311 -1.630607
v -0.648346 0.296595 -1.646085
v -0.648346 0.297920 -1.535390
v -0.648346 0.352076 -1.631929
v -0.648346 0.393194 -1.591894
v -0.648346 0.408685 -1.536713
v -0.648346 0.394518 -1.481200
v -0.648346 0.354470 -1.440069
v -0.648346 0.299302 -1.424526
v -0.648346 0.243704 -1.438747
v -0.648346 0.202704 -1.478716
v -0.648346 0.187095 -1.533964
v -0.648346 0.201321 -1.589581
v -1.081947 0.241311 -1.630607
v -1.081947 0.296595 -1.646085
v -1.081947 0.297920 -1.535390
v -1.081947 0.352076 -1.631929
v -1.081947 0.393194 -1.591894
v -1.081947 0.408685 -1.536713
v -1.081947 0.394518 -1.481200
v -1.081947 0.354470 -1.440069
v -1.081947 0.299302 -1.424526
v -1.081947 0.243704 -1.438747
v -1.081947 0.202704 -1.478716
v -1.081947 0.187095 -1.533964
v -1.081947 0.201321 -1.589581
v -0.283440 2.197581 -4.016148
v -0.287267 2.228729 -3.987224
v -0.132943 2.228729 -3.987224
v -0.132943 2.263806 -3.954577
v 0.132939 2.228729 -3.987224
v 0.283436 2.197581 -4.016148
v 0.287263 2.228729 -3.987224
v 0.132939 2.263806 -3.954577
v 0.287263 2.263806 -3.954577
v 0.283436 2.296890 -3.923878
v 0.329265 2.277708 -3.941674
v 0.329265 2.216645 -3.998417
v 0.287263 2.166790 -4.003622
v -0.287267 2.166790 -4.003622
v -0.330895 2.184916 -3.986694
v -0.329269 2.216645 -3.998417
v -0.396337 2.169723 -4.000873
v -0.395763 2.201100 -4.012794
v -0.457187 2.187555 -3.984248
v -0.442836 2.214944 -4.000061
v -0.457187 2.266392 -3.911050
v -0.442836 2.279409 -3.940030
v -0.396337 2.284166 -3.894596
v -0.395763 2.293194 -3.927193
v -0.329269 2.277708 -3.941674
v -0.283440 2.296890 -3.923878
v -0.287267 2.263806 -3.954577
v -0.287267 2.287216 -3.891781
v 0.287263 2.287216 -3.891781
v 0.330891 2.268915 -3.908669
v 0.396333 2.284166 -3.894596
v 0.395759 2.293194 -3.927193
v 0.457183 2.266392 -3.911050
v 0.442832 2.279409 -3.940030
v 0.457183 2.187555 -3.984248
v 0.442832 2.214944 -4.000061
v 0.396333 2.169723 -4.000873
v 0.395759 2.201100 -4.012794
v 0.330891 2.184916 -3.986694
v -0.330895 2.268915 -3.908669
v -0.422170 2.204647 -3.985282
v -0.412220 2.235784 -3.993474
v -0.428293 2.256080 -3.974639
v -0.396242 2.263138 -3.982268
v -0.412220 2.276493 -3.955738
v -0.380168 2.276493 -3.955738
v -0.422170 2.270462 -3.924080
v -0.370314 2.270462 -3.924080
v -0.364190 2.256080 -3.974639
v -0.344386 2.237496 -3.954714
v -0.380168 2.235784 -3.993474
v -0.370314 2.204647 -3.985282
v -0.448098 2.237496 -3.954714
v 0.370405 2.204647 -3.985282
v 0.364282 2.256080 -3.974639
v 0.380260 2.235784 -3.993474
v 0.396333 2.263138 -3.982268
v 0.412311 2.235784 -3.993474
v 0.428385 2.256080 -3.974639
v 0.412311 2.276493 -3.955738
v 0.380260 2.276493 -3.955738
v 0.370405 2.270462 -3.924080
v 0.344477 2.237496 -3.954714
v 0.422261 2.270462 -3.924080
v 0.448189 2.237496 -3.954714
v 0.422261 2.204647 -3.985282
v 0.111508 2.228559 -3.992699
v 0.111508 2.228389 -3.997071
v 0.111508 2.236726 -3.995153
v 0.111508 2.230450 -4.001019
v 0.111508 2.234211 -4.003324
v 0.111508 2.238616 -4.003474
v 0.111508 2.242548 -4.001406
v 0.111508 2.244951 -3.997713
v 0.111508 2.245063 -3.993235
v 0.111508 2.262865 -3.998286
v 0.111508 2.263035 -3.993914
v 0.111508 2.272506 -4.006121
v 0.111508 2.272736 -4.001578
v 0.111508 2.243002 -3.989287
v 0.111508 2.239241 -3.986982
v 0.111508 2.234836 -3.986833
v 0.111508 2.230904 -3.988901
v -0.111512 2.228559 -3.992699
v -0.111512 2.228389 -3.997071
v -0.111512 2.236726 -3.995153
v -0.111512 2.230450 -4.001019
v -0.111512 2.234211 -4.003324
v -0.111512 2.238616 -4.003474
v -0.111512 2.242548 -4.001406
v -0.111512 2.244951 -3.997713
v -0.111512 2.245063 -3.993235
v -0.111512 2.263035 -3.993914
v -0.111512 2.262865 -3.998286
v -0.111512 2.230904 -3.988901
v -0.111512 2.234836 -3.986833
v -0.111512 2.239241 -3.986982
v -0.111512 2.243002 -3.989287
v 0.111508 2.285154 -4.067452
v 0.071898 2.285154 -4.067452
v 0.111508 2.280211 -4.014629
v 0.000046 2.285154 -4.067452
v -0.071902 2.285154 -4.067452
v -0.111512 2.280211 -4.014629
v -0.111607 2.285154 -4.067452
v -0.111512 2.289558 -4.067051
v -0.072189 2.289558 -4.067051
v -0.111512 2.284615 -4.014227
v -0.000050 2.289558 -4.067051
v 0.111508 2.284615 -4.014227
v 0.072089 2.289558 -4.067051
v 0.111412 2.289558 -4.067051
v 0.066157 2.291466 -4.134268
v 0.144133 2.291290 -4.134230
v 0.046831 2.287358 -4.090910
v 0.071898 2.285154 -4.067452
v -0.066162 2.291408 -4.134164
v -0.144137 2.291290 -4.134230
v -0.046835 2.295575 -4.177351
v -0.132656 2.297426 -4.201007
v -0.072094 2.297426 -4.201007
v -0.111703 2.303800 -4.269583
v -0.092281 2.304990 -4.281883
v 0.092277 2.304990 -4.281883
v 0.000046 2.297426 -4.201007
v 0.072089 2.297426 -4.201007
v -0.000050 2.297301 -4.195283
v 0.046735 2.295634 -4.177456
v -0.144137 2.296413 -4.189297
v -0.139162 2.298439 -4.211614
v -0.000050 2.297301 -4.195283
v -0.046835 2.295575 -4.177351
v 0.066157 2.291466 -4.134268
v 0.144133 2.291290 -4.134230
v 0.046735 2.295634 -4.177456
v 0.132652 2.297426 -4.201007
v 0.111699 2.303800 -4.269583
v 0.139158 2.298439 -4.211614
v 0.144133 2.296413 -4.189297
v -0.066162 2.291408 -4.134164
v -0.144137 2.291290 -4.134230
v -0.046740 2.287358 -4.090910
v -0.071902 2.285154 -4.067452
v 0.072089 2.289558 -4.067051
v 0.046735 2.291468 -4.090536
v 0.144133 2.295695 -4.133828
v 0.066157 2.295518 -4.133789
v 0.046831 2.299685 -4.176977
v 0.072089 2.301948 -4.200540
v 0.000046 2.301412 -4.194908
v 0.132652 2.301948 -4.200540
v 0.144133 2.300758 -4.188791
v 0.139158 2.302843 -4.211212
v 0.111699 2.308204 -4.269181
v 0.092277 2.309394 -4.281481
v 0.000046 2.301948 -4.200540
v -0.072094 2.301948 -4.200540
v -0.092281 2.309394 -4.281481
v -0.111703 2.308204 -4.269181
v -0.132656 2.301948 -4.200540
v -0.139162 2.302843 -4.211212
v -0.144137 2.300758 -4.188791
v -0.046740 2.299627 -4.177148
v -0.144137 2.295695 -4.133828
v -0.066162 2.295577 -4.133894
v -0.046835 2.291351 -4.090601
v -0.072189 2.289558 -4.067051
v -0.072189 2.289558 -4.067051
v -0.144137 2.295695 -4.133828
v -0.111512 2.289558 -4.067051
v -0.127872 2.289558 -4.067051
v -0.144137 2.291048 -4.083184
v -0.071902 2.285154 -4.067452
v -0.111607 2.285154 -4.067452
v -0.144137 2.291290 -4.134230
v -0.127872 2.285154 -4.067452
v -0.144137 2.286526 -4.083651
v 0.071898 2.285154 -4.067452
v 0.111508 2.285154 -4.067452
v 0.144133 2.291290 -4.134230
v 0.127868 2.285154 -4.067452
v 0.144133 2.286526 -4.083651
v 0.072089 2.289558 -4.067051
v 0.111412 2.289558 -4.067051
v 0.144133 2.295695 -4.133828
v 0.127868 2.289558 -4.067051
v 0.144133 2.291048 -4.083184
v -0.568840 2.401016 -3.787382
v -0.948097 2.401016 -3.787382
v -0.948097 1.987479 -4.176915
v -1.567500 1.976226 -3.336592
v -1.567500 1.562690 -3.726125
v -1.567500 1.307804 -3.455520
v -1.567500 1.721341 -3.065986
v -1.567500 0.925535 -3.049716
v -1.567500 1.339071 -2.660183
v -1.567500 0.543089 -2.643874
v -1.567500 0.956625 -2.254340
v -1.567500 0.288262 -2.373374
v -1.567500 0.701798 -1.983840
v -0.948097 0.277067 -1.532879
v -0.948097 -0.136410 -1.922518
v -0.568840 -0.136410 -1.922518
v -0.568840 0.277067 -1.532879
v -0.000050 -0.136410 -1.922518
v 0.000046 0.277067 -1.532879
v -0.568840 1.987479 -4.176915
v 0.000046 2.401016 -3.787382
v -0.000050 1.987479 -4.176915
v 0.568836 2.401016 -3.787382
v 0.568836 1.987479 -4.176915
v 0.948093 2.401016 -3.787382
v 0.948093 1.987479 -4.176915
v 1.567496 1.562690 -3.726125
v 1.567496 1.976226 -3.336592
v 1.567496 1.721341 -3.065986
v 1.567496 1.307804 -3.455520
v 1.567496 1.339071 -2.660183
v 1.567496 0.925535 -3.049716
v 1.567496 0.956625 -2.254340
v 1.567496 0.543089 -2.643874
v 1.567496 0.701798 -1.983840
v 1.567496 0.288262 -2.373374
v 0.948093 -0.136410 -1.922518
v 0.948093 0.277067 -1.532879
v 0.568836 0.277067 -1.532879
v 0.568836 -0.136410 -1.922518
v 0.000046 0.277067 -1.532879
v -0.000050 -0.136410 -1.922518
v 1.424652 1.798929 -3.387216
v 0.594286 1.785461 -3.372836
v 0.861698 2.184963 -3.796978
v 0.310321 1.883616 -3.477112
v 0.516980 2.184963 -3.796978
v -0.003973 1.917021 -3.512452
v 0.000046 2.184963 -3.796978
v -0.317979 1.881969 -3.475277
v -0.516984 2.184963 -3.796978
v -0.600796 1.782168 -3.369442
v -0.861703 2.184963 -3.796978
v -0.824868 1.627437 -3.205025
v -1.424657 1.798929 -3.387216
v -0.968094 1.432656 -2.998375
v -1.424657 1.567274 -3.141241
v -1.016601 1.217115 -2.769572
v -1.424657 1.219820 -2.772469
v -0.965606 1.001867 -2.541017
v -1.424657 0.872308 -2.403591
v -0.820084 0.807851 -2.335179
v -1.424657 0.640711 -2.157721
v -0.594290 0.654179 -2.172101
v -0.861703 0.254678 -1.747959
v -0.310325 0.555965 -2.067720
v -0.516984 0.254678 -1.747959
v 0.003968 0.522737 -2.032419
v 0.000046 0.254678 -1.747959
v 0.317975 0.557611 -2.069555
v 0.516980 0.254678 -1.747959
v 0.600792 0.657472 -2.175495
v 0.861698 0.254678 -1.747959
v 0.824863 0.812321 -2.339846
v 1.424652 0.640711 -2.157721
v 0.968089 1.006984 -2.546562
v 1.424652 0.872308 -2.403591
v 1.016597 1.222525 -2.775365
v 1.424652 1.219820 -2.772469
v 0.965602 1.437890 -3.003854
v 1.424652 1.567274 -3.141241
v 0.820080 1.631789 -3.209758
v 1.567496 0.543089 -2.643874
v 0.915851 0.466458 -2.562564
v 1.567496 0.288262 -2.373374
v 0.664224 0.294966 -2.380373
v 0.948093 -0.136410 -1.922518
v 0.347539 0.185108 -2.263763
v 0.568836 -0.136410 -1.922518
v -0.003207 0.147587 -2.224111
v -0.000050 -0.136410 -1.922518
v -0.353571 0.186343 -2.265139
v -0.568840 -0.136410 -1.922518
v -0.669299 0.297436 -2.383126
v -0.948097 -0.136410 -1.922518
v -0.919586 0.470105 -2.566313
v -1.567500 0.288262 -2.373374
v -1.079842 0.687175 -2.796742
v -1.567500 0.543089 -2.643874
v -1.134377 0.927652 -3.052116
v -1.567500 0.925535 -3.049716
v -1.077833 1.167894 -3.307070
v -1.567500 1.307804 -3.455520
v -0.915855 1.384493 -3.536935
v -1.567500 1.562690 -3.726125
v -0.664229 1.556103 -3.719060
v -0.948097 1.987479 -4.176915
v -0.347543 1.665961 -3.835670
v -0.568840 1.987479 -4.176915
v 0.003203 1.703365 -3.875388
v -0.000050 1.987479 -4.176915
v 0.353566 1.664550 -3.834255
v 0.568836 1.987479 -4.176915
v 0.669295 1.553515 -3.716373
v 0.948093 1.987479 -4.176915
v 0.919582 1.380965 -3.533120
v 1.567496 1.562690 -3.726125
v 1.079838 1.163718 -3.302652
v 1.567496 1.307804 -3.455520
v 1.134373 0.923300 -3.047383
v 1.567496 0.925535 -3.049716
v 1.077829 0.683058 -2.792429
v -0.820084 0.807851 -2.335179
v -0.579364 0.419468 -2.421860
v -0.594290 0.654179 -2.172101
v -0.310325 0.555965 -2.067720
v -0.302576 0.323665 -2.320128
v 0.003968 0.522737 -2.032419
v 0.003873 0.291261 -2.285745
v 0.317975 0.557611 -2.069555
v 0.309938 0.325429 -2.321897
v 0.600792 0.657472 -2.175495
v 0.585675 0.422644 -2.425045
v 0.824863 0.812321 -2.339846
v 0.804006 0.573552 -2.585398
v 0.968089 1.006984 -2.546562
v 0.943692 0.763393 -2.786818
v 1.016597 1.222525 -2.775365
v 0.991052 0.973523 -3.009828
v 0.965602 1.437890 -3.003854
v 0.941300 1.183360 -3.232588
v 0.820080 1.631789 -3.209758
v 0.799414 1.372495 -3.433300
v 0.594286 1.785461 -3.372836
v 0.579360 1.522169 -3.592277
v 0.302571 1.617913 -3.693905
v 0.310321 1.883616 -3.477112
v -0.003877 1.650376 -3.728392
v -0.003973 1.917021 -3.512452
v -0.799418 0.569259 -2.580771
v -0.965606 1.001867 -2.541017
v -0.941305 0.758335 -2.781378
v -1.016601 1.217115 -2.769572
v -0.991056 0.968172 -3.004139
v -0.968094 1.432656 -2.998375
v -0.943696 1.178302 -3.227148
v -0.824868 1.627437 -3.205025
v -0.804010 1.368085 -3.428739
v -0.585679 1.519052 -3.588921
v -0.600796 1.782168 -3.369442
v -0.317979 1.881969 -3.475277
v -0.309943 1.616324 -3.692174
v -0.003973 1.917021 -3.512452
v -0.003877 1.650376 -3.728392
v 0.948093 2.401016 -3.787382
v 0.861698 2.304214 -3.684692
v 1.567496 1.976226 -3.336592
v 1.424652 1.918180 -3.274930
v -0.948097 0.277067 -1.532879
v -0.861703 0.373811 -1.635739
v -1.567500 0.701798 -1.983840
v -1.424657 0.759845 -2.045501
v -0.568840 0.277067 -1.532879
v -0.516984 0.373811 -1.635739
v -0.948097 0.277067 -1.532879
v -0.861703 0.373811 -1.635739
v 0.000046 0.277067 -1.532879
v 0.000046 0.373811 -1.635739
v -0.568840 0.277067 -1.532879
v -0.516984 0.373811 -1.635739
v 0.568836 0.277067 -1.532879
v 0.516980 0.373811 -1.635739
v 0.000046 0.277067 -1.532879
v 0.000046 0.373811 -1.635739
v 0.948093 0.277067 -1.532879
v 0.861698 0.373811 -1.635739
v 0.568836 0.277067 -1.532879
v 0.516980 0.373811 -1.635739
v 1.567496 0.701798 -1.983840
v 1.424652 0.759845 -2.045501
v 0.948093 0.277067 -1.532879
v 0.861698 0.373811 -1.635739
v 1.567496 0.956625 -2.254340
v 1.424652 0.991559 -2.291305
v 1.567496 0.701798 -1.983840
v 1.424652 0.759845 -2.045501
v 1.567496 1.339071 -2.660183
v 1.424652 1.339071 -2.660183
v 1.567496 0.956625 -2.254340
v 1.424652 0.991559 -2.291305
v 1.567496 1.721341 -3.065986
v 1.424652 1.686525 -3.028955
v 1.567496 1.339071 -2.660183
v 1.424652 1.339071 -2.660183
v 1.567496 1.976226 -3.336592
v 1.424652 1.918180 -3.274930
v 1.567496 1.721341 -3.065986
v 1.424652 1.686525 -3.028955
v 0.568836 2.401016 -3.787382
v 0.516980 2.304214 -3.684692
v 0.948093 2.401016 -3.787382
v 0.861698 2.304214 -3.684692
v 0.000046 2.401016 -3.787382
v 0.000046 2.304214 -3.684692
v 0.568836 2.401016 -3.787382
v 0.516980 2.304214 -3.684692
v -0.568840 2.401016 -3.787382
v -0.516984 2.304214 -3.684692
v 0.000046 2.401016 -3.787382
v 0.000046 2.304214 -3.684692
v -0.948097 2.401016 -3.787382
v -0.861703 2.304214 -3.684692
v -0.568840 2.401016 -3.787382
v -0.516984 2.304214 -3.684692
v -1.567500 1.976226 -3.336592
v -1.424657 1.918180 -3.274930
v -0.948097 2.401016 -3.787382
v -0.861703 2.304214 -3.684692
v -1.567500 1.721341 -3.065986
v -1.424657 1.686525 -3.028955
v -1.567500 1.976226 -3.336592
v -1.424657 1.918180 -3.274930
v -1.567500 1.339071 -2.660183
v -1.424657 1.339071 -2.660183
v -1.567500 1.721341 -3.065986
v -1.424657 1.686525 -3.028955
v -1.567500 0.956625 -2.254340
v -1.424657 0.991559 -2.291305
v -1.567500 1.339071 -2.660183
v -1.424657 1.339071 -2.660183
v -1.567500 0.701798 -1.983840
v -1.424657 0.759845 -2.045501
v -1.567500 0.956625 -2.254340
v -1.424657 0.991559 -2.291305
v 0.861698 2.304214 -3.684692
v 0.861698 2.184963 -3.796978
v 1.424652 1.918180 -3.274930
v 1.424652 1.798929 -3.387216
v -0.861703 0.373811 -1.635739
v -0.861703 0.254678 -1.747959
v -1.424657 0.759845 -2.045501
v -1.424657 0.640711 -2.157721
v -0.861703 0.254678 -1.747959
v -0.861703 0.373811 -1.635739
v -0.516984 0.254678 -1.747959
v -0.516984 0.373811 -1.635739
v 0.000046 0.254678 -1.747959
v 0.000046 0.373811 -1.635739
v 0.000046 0.254678 -1.747959
v 0.000046 0.373811 -1.635739
v 0.516980 0.254678 -1.747959
v 0.516980 0.373811 -1.635739
v 0.861698 0.254678 -1.747959
v 0.861698 0.373811 -1.635739
v 1.424652 0.759845 -2.045501
v 1.424652 0.640711 -2.157721
v 0.861698 0.373811 -1.635739
v 0.861698 0.254678 -1.747959
v 1.424652 0.640711 -2.157721
v 1.424652 0.759845 -2.045501
v 1.424652 0.872308 -2.403591
v 1.424652 0.991559 -2.291305
v 1.424652 1.219820 -2.772469
v 1.424652 1.339071 -2.660183
v 1.424652 1.567274 -3.141241
v 1.424652 1.686525 -3.028955
v 1.424652 1.798929 -3.387216
v 1.424652 1.918180 -3.274930
v 0.861698 2.184963 -3.796978
v 0.861698 2.304214 -3.684692
v 0.516980 2.184963 -3.796978
v 0.516980 2.304214 -3.684692
v 0.000046 2.184963 -3.796978
v 0.000046 2.304214 -3.684692
v -0.516984 2.184963 -3.796978
v -0.516984 2.304214 -3.684692
v -0.861703 2.184963 -3.796978
v -0.861703 2.304214 -3.684692
v -1.424657 1.918180 -3.274930
v -1.424657 1.798929 -3.387216
v -0.861703 2.304214 -3.684692
v -0.861703 2.184963 -3.796978
v -1.424657 1.798929 -3.387216
v -1.424657 1.918180 -3.274930
v -1.424657 1.567274 -3.141241
v -1.424657 1.686525 -3.028955
v -1.424657 1.219820 -2.772469
v -1.424657 1.339071 -2.660183
v -1.424657 0.872308 -2.403591
v -1.424657 0.991559 -2.291305
v -1.424657 0.640711 -2.157721
v -1.424657 0.759845 -2.045501
v -0.000050 0.284077 -1.548674
v 1.081943 0.241311 -1.630607
v 1.081943 0.296595 -1.646085
v 0.648342 0.241311 -1.630607
v 0.648342 0.296595 -1.646085
v 1.081943 0.352076 -1.631929
v 0.648342 0.352076 -1.631929
v 1.081943 0.393194 -1.591894
v 0.648342 0.393194 -1.591894
v 1.081943 0.408685 -1.536713
v 0.648342 0.408685 -1.536713
v 1.081943 0.394518 -1.481200
v 0.648342 0.394518 -1.481200
v 1.081943 0.354470 -1.440069
v 0.648342 0.354470 -1.440069
v 1.081943 0.299302 -1.424526
v 0.648342 0.299302 -1.424526
v 1.081943 0.243704 -1.438747
v 0.648342 0.243704 -1.438747
v 0.648342 0.241311 -1.630607
v 1.081943 0.241311 -1.630607
v 0.648342 0.201321 -1.589581
v 1.081943 0.201321 -1.589581
v 0.648342 0.187095 -1.533964
v 1.081943 0.187095 -1.533964
v 0.648342 0.202704 -1.478716
v 1.081943 0.202704 -1.478716
v 0.648342 0.243704 -1.438747
v 1.081943 0.243704 -1.438747
v 0.645281 0.230630 -1.636599
v 0.218951 0.230630 -1.636599
v 0.645281 0.285797 -1.652142
v 0.218951 0.285797 -1.652142
v 0.645281 0.341395 -1.637921
v 0.218951 0.341395 -1.637921
v 0.645281 0.382395 -1.597952
v 0.218951 0.382395 -1.597952
v 0.645281 0.397887 -1.542770
v 0.218951 0.397887 -1.542770
v 0.645281 0.383837 -1.487192
v 0.218951 0.383837 -1.487192
v 0.645281 0.343671 -1.446127
v 0.218951 0.343671 -1.446127
v 0.645281 0.288504 -1.430583
v 0.218951 0.288504 -1.430583
v 0.645281 0.233023 -1.444739
v 0.218951 0.233023 -1.444739
v 0.218951 0.230630 -1.636599
v 0.645281 0.230630 -1.636599
v 0.218951 0.190523 -1.595639
v 0.645281 0.190523 -1.595639
v 0.218951 0.176414 -1.539955
v 0.645281 0.176414 -1.539955
v 0.218951 0.191906 -1.484774
v 0.645281 0.191906 -1.484774
v 0.218951 0.233023 -1.444739
v 0.645281 0.233023 -1.444739
v 0.216751 0.241311 -1.630607
v -0.216755 0.241311 -1.630607
v 0.216751 0.296595 -1.646085
v -0.216755 0.296595 -1.646085
v 0.216751 0.352076 -1.631929
v -0.216755 0.352076 -1.631929
v 0.216751 0.393194 -1.591894
v -0.216755 0.393194 -1.591894
v 0.216751 0.408685 -1.536713
v -0.216755 0.408685 -1.536713
v 0.216751 0.394518 -1.481200
v -0.216755 0.394518 -1.481200
v 0.216751 0.354470 -1.440069
v -0.216755 0.354470 -1.440069
v 0.216751 0.299302 -1.424526
v -0.216755 0.299302 -1.424526
v 0.216751 0.243704 -1.438747
v -0.216755 0.243704 -1.438747
v -0.216755 0.241311 -1.630607
v 0.216751 0.241311 -1.630607
v -0.216755 0.201321 -1.589581
v 0.216751 0.201321 -1.589581
v -0.216755 0.187095 -1.533964
v 0.216751 0.187095 -1.533964
v -0.216755 0.202704 -1.478716
v 0.216751 0.202704 -1.478716
v -0.216755 0.243704 -1.438747
v 0.216751 0.243704 -1.438747
v -0.219529 0.230630 -1.636599
v -0.645955 0.230630 -1.636599
v -0.219529 0.285797 -1.652142
v -0.645955 0.285797 -1.652142
v -0.219529 0.341395 -1.637921
v -0.645955 0.341395 -1.637921
v -0.219529 0.382395 -1.597952
v -0.645955 0.382395 -1.597952
v -0.219529 0.397887 -1.542770
v -0.645955 0.397887 -1.542770
v -0.219529 0.383837 -1.487192
v -0.645955 0.383837 -1.487192
v -0.219529 0.343671 -1.446127
v -0.645955 0.343671 -1.446127
v -0.219529 0.288504 -1.430583
v -0.645955 0.288504 -1.430583
v -0.219529 0.233023 -1.444739
v -0.645955 0.233023 -1.444739
v -0.645955 0.230630 -1.636599
v -0.219529 0.230630 -1.636599
v -0.645955 0.190523 -1.595639
v -0.219529 0.190523 -1.595639
v -0.645955 0.176414 -1.539955
v -0.219529 0.176414 -1.539955
v -0.645955 0.191906 -1.484774
v -0.219529 0.191906 -1.484774
v -0.645955 0.233023 -1.444739
v -0.219529 0.233023 -1.444739
v -0.648346 0.241311 -1.630607
v -1.081947 0.241311 -1.630607
v -0.648346 0.296595 -1.646085
v -1.081947 0.296595 -1.646085
v -0.648346 0.352076 -1.631929
v -1.081947 0.352076 -1.631929
v -0.648346 0.393194 -1.591894
v -1.081947 0.393194 -1.591894
v -0.648346 0.408685 -1.536713
v -1.081947 0.408685 -1.536713
v -0.648346 0.394518 -1.481200
v -1.081947 0.394518 -1.481200
v -0.648346 0.354470 -1.440069
v -1.081947 0.354470 -1.440069
v -0.648346 0.299302 -1.424526
v -1.081947 0.299302 -1.424526
v -0.648346 0.243704 -1.438747
v -1.081947 0.243704 -1.438747
v -1.081947 0.241311 -1.630607
v -0.648346 0.241311 -1.630607
v -1.081947 0.201321 -1.589581
v -0.648346 0.201321 -1.589581
v -1.081947 0.187095 -1.533964
v -0.648346 0.187095 -1.533964
v -1.081947 0.202704 -1.478716
v -0.648346 0.202704 -1.478716
v -1.081947 0.243704 -1.438747
v -0.648346 0.243704 -1.438747
v 0.132939 2.228729 -3.987224
v 0.122319 2.245822 -3.989912
v 0.132939 2.263806 -3.954577
v 0.122319 2.265297 -3.971814
v -0.132943 2.228729 -3.987224
v -0.122323 2.245822 -3.989912
v 0.132939 2.228729 -3.987224
v 0.122319 2.245822 -3.989912
v -0.132943 2.263806 -3.954577
v -0.122323 2.265297 -3.971814
v -0.132943 2.228729 -3.987224
v -0.122323 2.245822 -3.989912
v 0.132939 2.263806 -3.954577
v 0.122319 2.265297 -3.971814
v -0.132943 2.263806 -3.954577
v -0.122323 2.265297 -3.971814
v 0.122319 2.265297 -3.971814
v 0.122319 2.245822 -3.989912
v -0.122323 2.265297 -3.971814
v -0.122323 2.245822 -3.989912
v 0.111508 2.228389 -3.997071
v -0.111512 2.228559 -3.992699
v 0.111508 2.228559 -3.992699
v -0.111512 2.230904 -3.988901
v 0.111508 2.230904 -3.988901
v -0.111512 2.234836 -3.986833
v 0.111508 2.234836 -3.986833
v -0.111512 2.239241 -3.986982
v 0.111508 2.239241 -3.986982
v -0.111512 2.243002 -3.989287
v 0.111508 2.243002 -3.989287
v -0.111512 2.245063 -3.993235
v 0.111508 2.245063 -3.993235
v -0.111512 2.228389 -3.997071
v 0.111508 2.230450 -4.001019
v -0.111512 2.230450 -4.001019
v 0.111508 2.234211 -4.003324
v -0.111512 2.234211 -4.003324
v 0.111508 2.238616 -4.003474
v -0.111512 2.238616 -4.003474
v 0.111508 2.242548 -4.001406
v -0.111512 2.242548 -4.001406
v 0.111508 2.244951 -3.997713
v -0.111512 2.244951 -3.997713
v -0.111512 2.244951 -3.997713
v -0.111512 2.262865 -3.998286
v 0.111508 2.244951 -3.997713
v 0.111508 2.262865 -3.998286
v -0.111512 2.272506 -4.006121
v 0.111508 2.272506 -4.006121
v -0.111512 2.280211 -4.014629
v 0.111508 2.280211 -4.014629
v 0.111508 2.245063 -3.993235
v -0.111512 2.245063 -3.993235
v 0.111508 2.263035 -3.993914
v -0.111512 2.263035 -3.993914
v 0.111508 2.272736 -4.001578
v -0.111512 2.272736 -4.001578
v 0.111508 2.284615 -4.014227
v -0.111512 2.284615 -4.014227
v -0.111512 2.263035 -3.993914
v -0.111512 2.262865 -3.998286
v -0.111512 2.272736 -4.001578
v -0.111512 2.272506 -4.006121
v 0.111508 2.272506 -4.006121
v 0.111508 2.272736 -4.001578
v 0.111508 2.280211 -4.014629
v 0.111508 2.284615 -4.014227
v 0.111508 2.285154 -4.067452
v 0.111412 2.289558 -4.067051
v -0.111512 2.272736 -4.001578
v -0.111512 2.272506 -4.006121
v -0.111512 2.284615 -4.014227
v -0.111512 2.280211 -4.014629
v -0.111512 2.289558 -4.067051
v -0.111607 2.285154 -4.067452
v 0.092277 2.304990 -4.281883
v 0.092277 2.309394 -4.281481
v -0.092281 2.304990 -4.281883
v -0.092281 2.309394 -4.281481
v -0.144137 2.291048 -4.083184
v -0.144137 2.286526 -4.083651
v -0.144137 2.295695 -4.133828
v -0.144137 2.291290 -4.134230
v -0.144137 2.300758 -4.188791
v -0.144137 2.296413 -4.189297
v -0.139162 2.298439 -4.211614
v -0.139162 2.302843 -4.211212
v -0.111703 2.308204 -4.269181
v -0.111703 2.303800 -4.269583
v 0.144133 2.286526 -4.083651
v 0.144133 2.291048 -4.083184
v 0.144133 2.291290 -4.134230
v 0.144133 2.295695 -4.133828
v 0.144133 2.296413 -4.189297
v 0.144133 2.300758 -4.188791
v 0.139158 2.302843 -4.211212
v 0.139158 2.298439 -4.211614
v 0.111699 2.303800 -4.269583
v 0.111699 2.308204 -4.269181
v 0.000046 2.285631 -4.072978
v 0.046831 2.287358 -4.090910
v -0.000050 2.289742 -4.072604
v 0.046735 2.291468 -4.090536
v -0.046740 2.287358 -4.090910
v 0.000046 2.285631 -4.072978
v -0.046835 2.291351 -4.090601
v -0.000050 2.289742 -4.072604
v -0.066162 2.291408 -4.134164
v -0.046740 2.287358 -4.090910
v -0.066162 2.295577 -4.133894
v -0.046835 2.291351 -4.090601
v -0.046835 2.295575 -4.177351
v -0.066162 2.291408 -4.134164
v -0.046740 2.299627 -4.177148
v -0.066162 2.295577 -4.133894
v -0.000050 2.297301 -4.195283
v -0.046835 2.295575 -4.177351
v 0.000046 2.301412 -4.194908
v -0.046740 2.299627 -4.177148
v 0.046735 2.295634 -4.177456
v -0.000050 2.297301 -4.195283
v 0.046831 2.299685 -4.176977
v 0.000046 2.301412 -4.194908
v 0.066157 2.291466 -4.134268
v 0.046735 2.295634 -4.177456
v 0.066157 2.295518 -4.133789
v 0.046831 2.299685 -4.176977
v 0.046831 2.287358 -4.090910
v 0.066157 2.291466 -4.134268
v 0.046735 2.291468 -4.090536
v 0.066157 2.295518 -4.133789
v -0.127872 2.289558 -4.067051
v -0.111512 2.289558 -4.067051
v -0.127872 2.285154 -4.067452
v -0.111607 2.285154 -4.067452
v 0.127868 2.289558 -4.067051
v 0.127868 2.285154 -4.067452
v 0.111412 2.289558 -4.067051
v 0.111508 2.285154 -4.067452
v 0.046735 2.291468 -4.090536
v 0.072089 2.289558 -4.067051
v -0.000050 2.289742 -4.072604
v -0.000050 2.289558 -4.067051
v -0.046835 2.291351 -4.090601
v -0.072189 2.289558 -4.067051
v -0.046740 2.287358 -4.090910
v -0.071902 2.285154 -4.067452
v 0.000046 2.285631 -4.072978
v 0.000046 2.285154 -4.067452
v 0.046831 2.287358 -4.090910
v 0.071898 2.285154 -4.067452
v -0.127872 2.285154 -4.067452
v -0.144137 2.286526 -4.083651
v -0.127872 2.289558 -4.067051
v -0.144137 2.291048 -4.083184
v 0.144133 2.286526 -4.083651
v 0.127868 2.285154 -4.067452
v 0.144133 2.291048 -4.083184
v 0.127868 2.289558 -4.067051
v -0.111703 2.303800 -4.269583
v -0.092281 2.304990 -4.281883
v -0.111703 2.308204 -4.269181
v -0.092281 2.309394 -4.281481
v 0.092277 2.304990 -4.281883
v 0.111699 2.303800 -4.269583
v 0.092277 2.309394 -4.281481
v 0.111699 2.308204 -4.269181
vn -0.0018 0.7276 0.6860
vn -0.1515 0.6370 0.7558
vn -0.1095 0.6082 0.7862
vn -0.1586 0.7911 0.5908
vn -0.1144 0.8206 0.5599
vn -0.3442 0.9139 0.2153
vn -0.4705 0.8261 0.3100
vn -0.3426 0.2687 0.9002
vn -0.1777 0.2122 0.9609
vn -0.0563 0.5886 0.8065
vn -0.1865 0.7543 0.6295
vn -0.5520 0.7140 0.4308
vn -0.1819 0.6738 0.7162
vn -0.5506 0.4662 0.6925
vn -0.4661 0.3554 0.8102
vn -0.5807 0.5931 0.5577
vn -0.1899 0.7136 0.6744
vn 0.1928 0.7147 0.6724
vn 0.1818 0.6738 0.7162
vn 0.1550 0.6378 0.7545
vn 0.1131 0.6087 0.7853
vn 0.0637 0.5891 0.8055
vn 0.0019 0.5832 0.8124
vn 0.1836 0.7568 0.6274
vn 0.1556 0.7934 0.5885
vn 0.1122 0.8191 0.5625
vn 0.5521 0.7158 0.4275
vn 0.4705 0.8261 0.3100
vn 0.4718 0.3579 0.8058
vn 0.5549 0.4695 0.6868
vn 0.0038 0.1933 0.9811
vn 0.0573 0.8398 0.5399
vn 0.0018 0.8453 0.5343
vn -0.0573 0.8398 0.5399
vn 0.5819 0.5949 0.5546
vn 0.3390 0.9156 0.2162
vn 0.4445 0.8958 -0.0041
vn 0.2309 0.9696 -0.0812
vn 0.1740 0.9726 0.1542
vn 0.6157 0.1703 0.7694
vn 0.7216 0.3145 0.6167
vn -0.2378 0.9681 -0.0785
vn -0.1806 0.9709 0.1572
vn -0.0019 0.9908 0.1351
vn -0.0038 0.9945 -0.1046
vn 0.7591 0.4740 0.4462
vn -0.7226 0.3097 0.6180
vn -0.6107 0.1630 0.7749
vn -0.4497 0.8932 0.0007
vn -0.6146 0.7793 0.1224
vn -0.7233 0.6309 0.2805
vn -0.7591 0.4740 0.4462
vn -0.0000 -0.0459 0.9989
vn 0.2403 -0.0210 0.9705
vn 0.1821 0.2128 0.9600
vn -0.4442 0.0526 0.8944
vn -0.2294 -0.0225 0.9731
vn 0.4849 -0.0302 0.8740
vn 0.6607 0.0921 0.7450
vn 0.4474 0.0536 0.8927
vn -0.7761 0.2462 0.5805
vn -0.6556 0.0894 0.7498
vn -0.6629 0.7472 0.0478
vn -0.7769 0.5916 0.2154
vn -0.2554 0.9521 -0.1682
vn -0.4835 0.8713 -0.0841
vn -0.0056 0.9799 -0.1996
vn 0.7794 0.2496 0.5747
vn 0.8162 0.4234 0.3931
vn 0.7762 0.5937 0.2122
vn 0.7223 0.6364 0.2707
vn 0.4739 0.8763 -0.0870
vn 0.2516 0.9529 -0.1692
vn -0.8143 0.4183 0.4024
vn 0.2549 -0.1111 0.9606
vn 0.0056 -0.1373 0.9905
vn 0.6583 0.7513 0.0462
vn 0.6131 0.7809 0.1195
vn -0.4753 -0.0331 0.8792
vn -0.2513 -0.1116 0.9614
vn 0.3459 0.2695 0.8987
vn -1.0000 0.0019 0.0011
vn 0.5342 0.0772 -0.8418
vn 0.5343 0.0772 -0.8418
vn 0.5343 0.0773 -0.8417
vn 0.5343 0.0773 -0.8418
vn -0.8024 -0.3526 0.4814
vn -0.8025 -0.3526 0.4814
vn -0.9477 -0.1581 0.2772
vn -0.9477 -0.1580 0.2772
vn 0.7074 -0.0663 0.7037
vn 0.7074 -0.0662 0.7037
vn 0.7074 -0.0664 0.7036
vn 0.7075 -0.0663 0.7036
vn -0.0019 -0.9954 -0.0960
vn -0.0018 -0.9954 -0.0958
vn -0.0019 -0.9954 -0.0961
vn 0.0019 0.9972 0.0743
vn 0.0011 0.9973 0.0738
vn 0.0018 0.9972 0.0743
vn -0.0057 0.9972 0.0743
vn 0.0018 -0.0936 0.9956
vn 0.0019 -0.0938 0.9956
vn -0.7074 -0.0662 0.7037
vn -0.7074 -0.0663 0.7037
vn -0.7074 -0.0665 0.7037
vn 0.0016 -0.7277 -0.6859
vn 0.1612 -0.7540 -0.6368
vn 0.1341 -0.7858 -0.6038
vn 0.1364 -0.6517 -0.7461
vn 0.1010 -0.6247 -0.7743
vn 0.1864 -0.5120 -0.8385
vn 0.2629 -0.5588 -0.7865
vn -0.3564 -0.0849 0.9305
vn -0.3564 -0.0851 0.9304
vn -0.3565 -0.0851 0.9304
vn -0.2597 -0.5578 -0.7883
vn -0.1918 -0.5091 -0.8391
vn -0.1010 -0.6247 -0.7743
vn -0.1364 -0.6517 -0.7461
vn -0.1013 -0.8989 -0.4263
vn -0.1892 -0.8690 -0.4573
vn -0.0985 -0.8085 -0.5803
vn -0.0522 -0.8259 -0.5614
vn 0.1562 -0.6810 -0.7155
vn 0.3071 -0.6215 -0.7207
vn 0.1634 -0.7183 -0.6763
vn 0.3233 -0.6899 -0.6477
vn 0.3069 -0.7573 -0.5765
vn 0.2595 -0.8193 -0.5113
vn 0.1897 -0.8671 -0.4606
vn 0.0954 -0.8105 -0.5779
vn -0.3070 -0.7573 -0.5765
vn -0.3233 -0.6899 -0.6477
vn -0.1656 -0.7158 -0.6784
vn -0.1582 -0.7529 -0.6389
vn 0.9144 0.0343 -0.4034
vn 0.9144 0.0343 -0.4033
vn 0.9144 0.0344 -0.4033
vn -0.1340 -0.7858 -0.6038
vn 0.2866 0.3279 -0.9002
vn 0.5448 0.2392 -0.8037
vn 0.5162 0.1275 -0.8469
vn 0.2702 0.2170 -0.9380
vn 0.0019 -0.8310 -0.5562
vn 0.0490 -0.8249 -0.5631
vn 0.3564 -0.0849 0.9305
vn 0.3564 -0.0850 0.9305
vn 0.9117 -0.0375 0.4091
vn -0.0977 -0.4803 -0.8717
vn -0.0529 -0.6095 -0.7910
vn -0.1562 -0.6810 -0.7154
vn 0.0992 -0.9004 -0.4236
vn 0.0038 -0.4681 -0.8837
vn -0.0000 -0.6043 -0.7968
vn -0.2588 -0.8174 -0.5146
vn -0.5372 0.0763 -0.8400
vn -0.5373 0.0763 -0.8399
vn -0.3043 -0.6202 -0.7230
vn -0.4819 -0.6371 -0.6015
vn -0.4604 -0.5359 -0.7077
vn 0.0019 0.8828 -0.4698
vn 0.4246 0.7421 -0.5186
vn -0.0000 0.4010 -0.9161
vn 0.0076 0.4947 -0.8690
vn 0.0018 0.8828 -0.4698
vn -0.0095 0.8311 -0.5560
vn -0.4242 0.4598 -0.7801
vn -0.3906 -0.8306 -0.3968
vn -0.4607 -0.7365 -0.4953
vn -0.3886 -0.4436 -0.8076
vn -0.2816 -0.3673 -0.8864
vn 0.0019 -0.9097 -0.4153
vn -0.0000 -0.9680 -0.2508
vn -0.1488 -0.9520 -0.2675
vn 0.1456 -0.9530 -0.2658
vn 0.4819 -0.6371 -0.6015
vn 0.4573 -0.7401 -0.4930
vn 0.4581 -0.5344 -0.7103
vn 0.3886 -0.4436 -0.8076
vn 0.2884 -0.3690 -0.8836
vn 0.0977 -0.4802 -0.8717
vn 0.1498 -0.3239 -0.9341
vn -0.2853 -0.9045 -0.3169
vn -0.9978 0.0048 -0.0666
vn -0.9978 0.0048 -0.0665
vn -0.9270 0.0371 -0.3732
vn 0.3894 -0.8343 -0.3903
vn 1.0000 0.0019 0.0011
vn 0.9283 0.0352 -0.3701
vn 0.9050 0.0405 -0.4235
vn 0.9283 0.0354 -0.3701
vn 1.0000 0.0020 0.0011
vn 0.2853 -0.9045 -0.3169
vn 0.0528 -0.6095 -0.7910
vn 0.6839 -0.6605 -0.3099
vn 0.5813 -0.7961 -0.1682
vn 0.9999 0.0132 -0.0012
vn 0.9999 0.0171 0.0009
vn 0.9999 0.0170 0.0009
vn 0.5842 -0.2130 -0.7832
vn 0.6864 -0.3516 -0.6366
vn -0.5865 -0.7920 -0.1698
vn -0.6874 -0.6560 -0.3118
vn 0.0019 -0.0109 -0.9999
vn 0.2259 -0.0344 -0.9735
vn 0.0019 -0.3074 -0.9516
vn -0.4189 -0.1045 -0.9020
vn -0.2223 -0.0339 -0.9744
vn -0.1498 -0.3239 -0.9342
vn 0.7224 -0.5050 -0.4724
vn 0.4236 -0.9044 -0.0508
vn 0.2221 -0.9747 0.0242
vn 0.4254 -0.1063 -0.8987
vn -0.4262 -0.9031 -0.0532
vn -0.7207 -0.5014 -0.4788
vn -0.6863 -0.3516 -0.6366
vn -0.5842 -0.2130 -0.7832
vn -0.0057 -0.9988 0.0480
vn -0.2256 -0.9740 0.0229
vn -1.0000 0.0094 -0.0034
vn -1.0000 0.0057 0.0032
vn -0.8738 -0.3545 -0.3328
vn -0.8297 -0.1656 -0.5332
vn 0.0057 0.2444 -0.9697
vn 0.2693 -0.9247 0.2692
vn -0.0038 -0.9536 0.3011
vn 0.5094 -0.8413 0.1810
vn -0.2693 -0.9247 0.2692
vn 0.7065 -0.0028 -0.7077
vn 0.8323 -0.1740 -0.5263
vn 0.8743 -0.3564 -0.3295
vn 0.8296 -0.5407 -0.1395
vn -0.7065 -0.0027 -0.7077
vn -0.5116 0.1333 -0.8488
vn -0.2665 0.2175 -0.9390
vn -0.5135 -0.8384 0.1827
vn -0.7059 -0.7072 0.0398
vn 0.7041 -0.7088 0.0427
vn -0.8320 -0.5375 -0.1377
vn 1.0000 -0.0019 -0.0011
vn -0.7381 0.4594 -0.4942
vn -0.3723 0.9266 -0.0535
vn 0.3723 0.9266 -0.0535
vn 0.0018 0.6811 -0.7322
vn -0.2916 -0.8778 0.3801
vn -0.5475 -0.7869 0.2846
vn -0.5448 0.2392 -0.8037
vn -0.2846 0.3322 -0.8993
vn -0.8817 -0.4694 -0.0484
vn -0.9262 -0.2722 -0.2607
vn -0.0019 -0.9097 0.4152
vn 0.7487 0.0974 -0.6557
vn 0.8819 -0.0772 -0.4651
vn -0.8804 -0.0755 -0.4681
vn 0.7471 -0.6500 0.1392
vn 0.5418 -0.7894 0.2888
vn 0.0004 0.3609 -0.9326
vn -0.7472 0.1025 -0.6566
vn 0.9266 -0.2742 -0.2573
vn 0.2846 -0.8791 0.3825
vn -0.7515 -0.6452 0.1379
vn 0.8797 -0.4728 -0.0502
vn -0.0000 0.2229 0.9749
vn 0.0019 0.2907 0.9568
vn 0.0019 0.2228 0.9749
vn -0.0000 -0.2907 -0.9568
vn 0.0038 -0.6843 -0.7291
vn 0.0019 0.0938 -0.9956
vn 0.0038 0.5100 0.8601
vn 0.0037 0.5101 0.8601
vn 0.0038 0.0109 0.9999
vn 0.0037 0.0109 0.9999
vn -0.0000 -0.9999 0.0128
vn 0.0020 -0.8590 0.5119
vn 0.0019 -0.8590 0.5119
vn 1.0000 -0.0020 -0.0011
vn 0.8465 0.3651 -0.3876
vn 0.8465 0.3648 -0.3878
vn -0.0000 -0.5103 -0.8600
vn -0.0001 -0.5103 -0.8600
vn -0.0000 -0.8722 -0.4892
vn 0.0019 -0.2948 -0.9556
vn 0.0038 0.2232 -0.9748
vn 0.0038 0.2231 -0.9748
vn -0.0018 -0.2232 0.9748
vn -0.0014 -0.2231 0.9748
vn 0.0038 0.2949 0.9555
vn 0.0038 0.2948 0.9555
vn 0.7887 0.4195 -0.4494
vn 0.7887 0.4194 -0.4495
vn 0.0037 -0.9958 -0.0917
vn 0.0038 -0.9958 -0.0917
vn -0.0019 0.9962 0.0873
vn -0.0018 0.9962 0.0873
vn -0.7887 0.4190 -0.4499
vn -0.7887 0.4191 -0.4498
vn -0.7887 0.4194 -0.4495
vn -0.7887 0.4187 -0.4502
vn -0.0337 0.9658 0.2569
vn -0.0357 0.9586 0.2826
vn -0.0322 0.9987 0.0400
vn -0.0358 -0.3450 -0.9379
vn -0.0076 0.4947 -0.8690
vn -0.0341 -0.1459 -0.9887
vn -0.0362 -0.3735 -0.9269
vn -0.0000 0.4909 -0.8712
vn 0.0038 0.8590 -0.5119
vn -0.0000 0.7336 0.6796
vn -0.0000 0.2228 0.9749
vn -0.0000 -0.5098 -0.8603
vn 0.0017 -0.8591 0.5118
vn -0.0000 -0.4876 0.8731
vn 0.0001 -0.4876 0.8731
vn 0.0037 0.9999 -0.0131
vn -0.0000 0.8721 0.4893
vn 0.0018 -0.8590 0.5119
vn 0.0018 -0.8591 0.5118
vn -0.0000 -0.4871 0.8733
vn -0.0001 -0.4871 0.8733
vn 0.0017 -0.0110 -0.9999
vn 0.0018 -0.0109 -0.9999
vn 0.0037 0.5100 0.8601
vn 0.0018 -0.0110 -0.9999
vn -0.0000 -0.6844 0.7291
vn -0.0000 -0.6843 0.7292
vn -0.0000 -0.9999 0.0125
vn -0.0000 -0.9999 0.0129
vn 0.0017 -0.8591 0.5119
vn 1.0000 0.0017 0.0010
vn 0.0020 -0.8590 0.5120
vn -0.0000 0.8720 0.4895
vn -1.0000 0.0017 0.0010
vn -0.0000 -0.8723 -0.4890
vn 0.0037 0.8590 -0.5119
vn -0.5256 -0.5834 0.6191
vn -0.5256 -0.5836 0.6190
vn -0.0000 -0.4871 0.8734
vn -0.0001 -0.4871 0.8734
vn 0.0019 0.6811 -0.7321
vn -0.0000 0.4912 -0.8711
vn 0.0019 -0.9743 -0.2253
vn 0.0038 -0.7336 -0.6796
vn -0.0000 0.6844 -0.7291
vn -0.5298 0.5815 -0.6174
vn -0.5298 0.5823 -0.6166
vn 0.0016 0.6811 -0.7322
vn 0.0017 0.6811 -0.7321
vn 0.0019 0.6812 -0.7321
vn 0.0341 -0.1459 -0.9887
vn 0.0018 0.6811 -0.7321
vn 0.0017 -0.6813 0.7320
vn 0.0018 0.6812 -0.7321
vn 0.0284 0.9988 0.0398
vn 0.0017 0.6811 -0.7322
vn 0.0057 0.8312 -0.5560
vn 0.0015 0.6811 -0.7322
vn 0.0397 -0.3451 -0.9377
vn 0.0399 -0.3736 -0.9267
vn -0.0018 0.7276 0.6859
vn -0.0017 0.7277 0.6859
vn -0.0016 0.7277 0.6859
vn 0.0018 -0.7277 -0.6859
vn 0.0015 -0.7277 -0.6859
vn 0.0017 -0.7277 -0.6859
vn 0.7952 0.0718 -0.6020
vn 0.4242 0.4598 -0.7801
vn 0.7879 0.6041 -0.1195
vn 0.0019 -0.7276 -0.6860
vn 0.0018 -0.7276 -0.6859
vn -0.4246 0.7421 -0.5186
vn -0.0018 0.7277 0.6859
vn 0.0394 0.9583 0.2832
vn 0.0337 0.9658 0.2569
vn -0.0019 0.9635 0.2676
vn -0.7879 0.6041 -0.1195
vn -0.4028 0.9143 0.0436
vn 0.4054 0.9130 0.0459
vn -0.3714 0.9269 -0.0531
vn -0.7930 0.0733 -0.6048
vn -0.0019 -0.3527 -0.9357
vn -0.0019 0.7276 0.6860
vn 0.8084 0.4002 -0.4317
vn 0.4022 -0.1135 -0.9085
vn 0.3678 -0.0105 -0.9298
vn 0.7381 0.4588 -0.4947
vn -0.3713 -0.0112 -0.9285
vn -0.4027 0.9143 0.0435
vn 0.4053 0.9130 0.0462
vn -0.8100 0.3986 -0.4301
vn -0.4022 -0.1135 -0.9085
vn -0.8101 0.3985 -0.4300
vn -0.4021 -0.1135 -0.9085
vn -0.3702 -0.0117 -0.9289
vn 0.8080 0.4000 -0.4326
vn 0.4022 -0.1134 -0.9085
vn 0.7380 0.4586 -0.4949
vn 0.5266 0.5829 -0.6188
vn 0.5266 0.5832 -0.6185
vn -0.0000 0.6847 -0.7289
vn 0.0038 0.1499 -0.9887
vn 1.0000 0.0018 0.0010
vn -1.0000 0.0018 0.0010
vn -0.0000 -0.9319 -0.3626
vn -0.0004 -0.9537 -0.3009
vn -0.0000 0.9958 0.0916
vn 0.0037 0.9287 0.3708
vn -0.0000 0.9958 0.0917
vn 0.0018 0.8967 0.4426
vn -0.0022 -0.9954 -0.0953
vn -0.0038 -0.9958 -0.0917
vn 0.0005 0.9958 0.0917
vn 0.0017 0.9954 0.0956
vn 0.0038 -0.9958 -0.0916
vn -0.0000 0.9958 0.0919
vn -0.0038 -0.9958 -0.0916
vn -0.0037 -0.9958 -0.0915
vn -0.0004 -0.9972 -0.0743
vn -0.0000 -0.9972 -0.0742
vn -0.0021 -0.9954 -0.0954
vn -0.0036 -0.9958 -0.0916
vn -0.0037 -0.9958 -0.0917
vn 0.0038 -0.9958 -0.0918
vn 0.0057 -0.9954 -0.0960
vn -0.0018 -0.9954 -0.0960
vn -0.0020 0.9962 0.0873
vn -0.0057 0.9954 0.0960
vn 0.0018 0.9954 0.0960
vn 0.0019 -0.9536 -0.3011
vn -0.0000 -0.9317 -0.3632
vn 0.0001 0.9958 0.0916
vn -0.0000 0.9958 0.0918
vn 0.0055 0.9961 0.0876
vn 0.0057 0.9962 0.0873
vn 0.0018 -0.9562 0.2927
vn 0.0019 -0.9562 0.2928
vn -0.0000 0.9958 0.0921
vn 0.0002 0.9958 0.0915
vn -0.0000 0.9958 0.0915
vn 0.0001 0.9958 0.0915
vn -0.0001 0.9958 0.0917
vn -0.0002 0.9958 0.0915
vn -0.0001 0.9958 0.0915
vn -0.0005 0.9958 0.0914
vn -0.0000 0.6844 0.7291
vn 0.0018 0.8964 0.4432
vn 0.0037 0.9285 0.3714
vn -0.0000 0.6843 0.7292
vn -0.7046 -0.4866 0.5165
vn -1.0000 0.0020 0.0011
vn 0.8465 -0.3651 0.3875
vn 0.8465 -0.3649 0.3878
vn 0.5256 -0.5836 0.6190
vn 0.5256 -0.5834 0.6192
vn -0.0000 0.6846 -0.7289
vn -0.8484 0.3633 -0.3850
vn -0.8484 0.3630 -0.3853
vn 0.7046 0.4867 -0.5165
vn 0.7046 0.4866 -0.5165
vn -0.0015 0.7277 0.6859
vn 0.0020 -0.7276 -0.6860
vn 0.0057 0.9635 0.2677
vn -0.0014 0.7277 0.6859
vn 0.0057 -0.3527 -0.9357
vn -0.9972 0.0517 0.0549
vn -0.9972 0.0517 0.0547
vn -0.9502 0.2620 -0.1689
vn 0.9481 0.2655 -0.1752
vn 0.9973 0.0555 0.0484
vn 0.9480 0.2655 -0.1752
vn 0.9501 -0.1545 0.2710
vn 0.8071 -0.3459 0.4784
vn 0.8072 -0.3459 0.4783
vn 0.3151 -0.5963 0.7383
vn 0.0078 -0.6284 0.7779
vn 0.9978 0.0048 -0.0666
vn -0.5905 0.6044 -0.5348
vn -0.5906 0.6043 -0.5348
vn -0.3095 0.7054 -0.6377
vn 0.3059 0.7060 -0.6388
vn 0.5800 0.6113 -0.5385
vn -0.0038 0.7394 -0.6732
vn -0.0038 0.7395 -0.6731
vn 0.8045 0.4584 -0.3777
vn -0.8109 0.4535 -0.3698
vn -0.8109 0.4535 -0.3699
vn -0.5829 -0.5005 0.6401
vn -0.3008 -0.5986 0.7424
vn -0.5826 -0.5012 0.6398
vn 0.5887 -0.4991 0.6358
vn 0.0073 -0.6284 0.7779
vn -0.0016 0.7276 0.6860
vn -0.0019 0.7277 0.6859
vn -0.0017 0.7276 0.6860
vn -0.9144 0.0344 -0.4033
vn -0.9144 0.0343 -0.4033
vn -0.0015 0.7276 0.6860
vn -0.0019 0.7276 0.6859
vn -0.3586 0.0845 -0.9297
vn -0.3585 0.0844 -0.9297
vn -0.3586 0.0844 -0.9297
vn -0.9999 0.0132 -0.0012
vn 0.3621 0.0837 -0.9284
vn 0.3620 0.0836 -0.9284
vn 0.3620 0.0835 -0.9284
vn -0.0020 0.7276 0.6860
vn 0.7046 -0.4866 0.5165
vn 0.7046 -0.4866 0.5164
vn -0.9132 -0.0357 0.4060
vn -0.9132 -0.0358 0.4060
vn -0.7046 0.4866 -0.5165
vn -0.7046 0.4867 -0.5165
vn -0.8484 -0.3630 0.3853
vn -0.8484 -0.3632 0.3850
vn -0.9050 0.0406 -0.4235
vn -1.0000 -0.0019 -0.0011
vn -0.0000 -0.6845 0.7290
vn -0.0000 0.1499 -0.9887
vn -0.0000 -0.1587 -0.9873
vn -0.0000 -0.1588 -0.9873
vt 0.691488 0.416634
vt 0.714881 0.432714
vt 0.708794 0.439194
vt 0.714046 0.399355
vt 0.707601 0.393235
vt 0.722401 0.371755
vt 0.734813 0.383395
vt 0.724668 0.459834
vt 0.709749 0.467993
vt 0.700917 0.443394
vt 0.718343 0.407154
vt 0.742929 0.398395
vt 0.718701 0.424794
vt 0.743765 0.432114
vt 0.736484 0.447474
vt 0.746032 0.415194
vt 0.719894 0.415914
vt 0.663083 0.417354
vt 0.664753 0.426114
vt 0.668931 0.433914
vt 0.675376 0.440034
vt 0.683372 0.443874
vt 0.692204 0.445074
vt 0.664276 0.408594
vt 0.668095 0.400555
vt 0.674302 0.394075
vt 0.639212 0.401155
vt 0.646612 0.385795
vt 0.648283 0.449874
vt 0.640167 0.434874
vt 0.692921 0.471113
vt 0.682060 0.389875
vt 0.690772 0.388195
vt 0.699604 0.389395
vt 0.637064 0.418074
vt 0.658309 0.373435
vt 0.641002 0.350155
vt 0.664037 0.337796
vt 0.673347 0.365275
vt 0.625129 0.467153
vt 0.612716 0.444114
vt 0.715597 0.336716
vt 0.707004 0.364315
vt 0.690056 0.362155
vt 0.689698 0.333236
vt 0.608061 0.418434
vt 0.771454 0.440754
vt 0.760116 0.464273
vt 0.739110 0.348115
vt 0.757967 0.366115
vt 0.770380 0.389155
vt 0.774915 0.414834
vt 0.693279 0.500033
vt 0.667499 0.496553
vt 0.676092 0.468953
vt 0.742094 0.483113
vt 0.719059 0.495473
vt 0.635512 0.497513
vt 0.613193 0.476273
vt 0.643986 0.485153
vt 0.785776 0.444954
vt 0.772409 0.472673
vt 0.769903 0.356995
vt 0.784464 0.384115
vt 0.719775 0.322316
vt 0.747584 0.335756
vt 0.689340 0.318236
vt 0.598633 0.449154
vt 0.593142 0.418794
vt 0.597200 0.388315
vt 0.611642 0.392515
vt 0.631932 0.338276
vt 0.659025 0.323756
vt 0.789954 0.414474
vt 0.663202 0.510953
vt 0.693756 0.515033
vt 0.610568 0.360595
vt 0.622980 0.368995
vt 0.751164 0.494993
vt 0.724071 0.509513
vt 0.660696 0.461514
vt 0.792579 0.661790
vt 0.787686 0.661790
vt 0.787686 0.661430
vt 0.792579 0.661430
vt 0.775512 0.683510
vt 0.775512 0.683990
vt 0.773245 0.683990
vt 0.773245 0.683510
vt 0.488232 0.851507
vt 0.488232 0.881027
vt 0.461258 0.881027
vt 0.461258 0.851387
vt 0.777660 0.661430
vt 0.777660 0.661790
vt 0.775393 0.661790
vt 0.775393 0.661430
vt 0.789238 0.778068
vt 0.784702 0.780348
vt 0.782315 0.778068
vt 0.789238 0.778548
vt 0.796160 0.778068
vt 0.793773 0.780348
vt 0.819553 0.778428
vt 0.815018 0.780708
vt 0.812631 0.778428
vt 0.819553 0.779028
vt 0.826595 0.778428
vt 0.824088 0.780708
vt 0.794847 0.661790
vt 0.794847 0.661430
vt 0.796399 0.661430
vt 0.796399 0.661790
vt 0.720491 0.146159
vt 0.701156 0.139799
vt 0.704140 0.134159
vt 0.704020 0.158159
vt 0.708556 0.162599
vt 0.697695 0.177358
vt 0.689221 0.168838
vt 0.862639 0.688670
vt 0.862639 0.688190
vt 0.867533 0.688190
vt 0.867533 0.688670
vt 0.751761 0.169078
vt 0.743168 0.177598
vt 0.732426 0.162719
vt 0.736961 0.158279
vt 0.732545 0.109439
vt 0.743406 0.114959
vt 0.732545 0.129839
vt 0.726936 0.126839
vt 0.701156 0.152399
vt 0.683730 0.158039
vt 0.700201 0.146159
vt 0.681821 0.146039
vt 0.683850 0.134159
vt 0.689340 0.123359
vt 0.697933 0.114839
vt 0.708675 0.129719
vt 0.757371 0.134399
vt 0.759161 0.146279
vt 0.740900 0.146279
vt 0.739945 0.140039
vt 0.858104 0.688670
vt 0.857984 0.688190
vt 0.737081 0.134279
vt 0.684566 0.257757
vt 0.651864 0.241197
vt 0.660099 0.229677
vt 0.688863 0.244317
vt 0.720610 0.125879
vt 0.714285 0.126839
vt 0.848556 0.688670
vt 0.848556 0.688190
vt 0.853449 0.688190
vt 0.853449 0.688670
vt 0.732307 0.182998
vt 0.726697 0.165598
vt 0.739826 0.152639
vt 0.708675 0.109439
vt 0.720372 0.184918
vt 0.720491 0.166558
vt 0.751880 0.123599
vt 0.795563 0.683510
vt 0.795563 0.683870
vt 0.793415 0.683870
vt 0.793415 0.683510
vt 0.757251 0.158279
vt 0.780525 0.146279
vt 0.777541 0.164878
vt 0.839843 0.613911
vt 0.844259 0.615831
vt 0.839604 0.625671
vt 0.833279 0.624231
vt 0.762264 0.613911
vt 0.768590 0.615591
vt 0.761906 0.625791
vt 0.757609 0.623751
vt 0.769067 0.111119
vt 0.777541 0.127799
vt 0.768948 0.181558
vt 0.755700 0.194758
vt 0.720610 0.107519
vt 0.720610 0.086280
vt 0.739110 0.089280
vt 0.702111 0.089160
vt 0.660576 0.146159
vt 0.663560 0.127559
vt 0.663441 0.164638
vt 0.671915 0.181318
vt 0.685163 0.194638
vt 0.708436 0.182998
vt 0.701872 0.203158
vt 0.755819 0.097800
vt 0.782315 0.661430
vt 0.782315 0.661790
vt 0.780048 0.661790
vt 0.780048 0.661430
vt 0.672034 0.110879
vt 0.839485 0.711109
vt 0.839485 0.710749
vt 0.841275 0.710629
vt 0.841275 0.711109
vt 0.790192 0.661430
vt 0.790192 0.661790
vt 0.782554 0.661430
vt 0.782554 0.661790
vt 0.685401 0.097680
vt 0.714165 0.165598
vt 0.642912 0.120959
vt 0.654489 0.098160
vt 0.837814 0.712669
vt 0.837217 0.717829
vt 0.836740 0.717709
vt 0.837336 0.712669
vt 0.654489 0.194158
vt 0.642912 0.171358
vt 0.786612 0.098280
vt 0.798189 0.120959
vt 0.720491 0.227877
vt 0.695308 0.223798
vt 0.720372 0.206158
vt 0.768470 0.212278
vt 0.745674 0.223798
vt 0.738990 0.203278
vt 0.638854 0.146159
vt 0.672631 0.080160
vt 0.695308 0.068520
vt 0.672511 0.212278
vt 0.768470 0.080160
vt 0.802128 0.146279
vt 0.798189 0.171478
vt 0.786493 0.194158
vt 0.720610 0.064560
vt 0.745794 0.068640
vt 0.838530 0.711829
vt 0.838530 0.711469
vt 0.823611 0.146039
vt 0.818598 0.177958
vt 0.720730 0.249237
vt 0.688505 0.048240
vt 0.720372 0.043081
vt 0.659860 0.062880
vt 0.752239 0.048120
vt 0.637183 0.206878
vt 0.622503 0.178198
vt 0.617490 0.146399
vt 0.622384 0.114479
vt 0.804037 0.206638
vt 0.781241 0.229557
vt 0.752597 0.244197
vt 0.781002 0.062760
vt 0.803799 0.085440
vt 0.637064 0.085800
vt 0.818479 0.114239
vt 0.893313 0.577192
vt 0.890806 0.575512
vt 0.890926 0.572512
vt 0.893432 0.574192
vt 0.756535 0.034681
vt 0.789238 0.051240
vt 0.789596 0.240837
vt 0.757013 0.257517
vt 0.831846 0.109799
vt 0.837695 0.145919
vt 0.720252 0.029041
vt 0.625845 0.215278
vt 0.609135 0.182638
vt 0.832085 0.182158
vt 0.625606 0.077520
vt 0.651386 0.051600
vt 0.720849 0.263397
vt 0.815495 0.214918
vt 0.603407 0.146519
vt 0.684089 0.034801
vt 0.815137 0.077160
vt 0.609016 0.110279
vt 0.803082 0.711469
vt 0.803082 0.713149
vt 0.781480 0.713149
vt 0.781480 0.711469
vt 0.803082 0.713389
vt 0.803082 0.714589
vt 0.781480 0.714589
vt 0.781480 0.713389
vt 0.848556 0.474233
vt 0.848556 0.432234
vt 0.854165 0.432234
vt 0.854165 0.474233
vt 0.899280 0.430434
vt 0.899280 0.388435
vt 0.904890 0.388435
vt 0.904890 0.430434
vt 0.686237 0.943066
vt 0.686237 0.992145
vt 0.654012 0.992145
vt 0.654012 0.943066
vt 0.852972 0.420354
vt 0.852972 0.378355
vt 0.858581 0.378355
vt 0.858581 0.420354
vt 0.893790 0.430434
vt 0.893671 0.388435
vt 0.829459 0.668990
vt 0.851062 0.668990
vt 0.851062 0.669470
vt 0.829459 0.669470
vt 0.851062 0.666950
vt 0.829459 0.666950
vt 0.829459 0.666470
vt 0.851062 0.666470
vt 0.813585 0.622551
vt 0.812153 0.621111
vt 0.812273 0.618831
vt 0.813585 0.617271
vt 0.802128 0.791028
vt 0.802724 0.792108
vt 0.800099 0.797748
vt 0.796160 0.791028
vt 0.789715 0.618831
vt 0.788283 0.617511
vt 0.789596 0.621231
vt 0.788283 0.622671
vt 0.768232 0.611991
vt 0.772767 0.609951
vt 0.773245 0.613191
vt 0.768112 0.628071
vt 0.768709 0.624471
vt 0.773364 0.626751
vt 0.772886 0.629991
vt 0.816331 0.534112
vt 0.816331 0.492833
vt 0.821821 0.492833
vt 0.821821 0.534112
vt 0.851062 0.665990
vt 0.829459 0.665990
vt 0.829459 0.665630
vt 0.851062 0.665630
vt 0.870516 0.494273
vt 0.870516 0.452274
vt 0.876126 0.452274
vt 0.876126 0.494273
vt 0.834472 0.411594
vt 0.834472 0.370315
vt 0.840082 0.370315
vt 0.840082 0.411594
vt 0.888180 0.430434
vt 0.888180 0.388435
vt 0.892716 0.547912
vt 0.892716 0.505913
vt 0.898325 0.505913
vt 0.898325 0.547912
vt 0.862400 0.361435
vt 0.862400 0.320036
vt 0.868010 0.320036
vt 0.868010 0.361315
vt 0.844140 0.534112
vt 0.844140 0.492833
vt 0.849630 0.492833
vt 0.849630 0.534112
vt 0.837456 0.474233
vt 0.837456 0.432234
vt 0.843065 0.432234
vt 0.843065 0.474233
vt 0.814063 0.586071
vt 0.814063 0.544792
vt 0.819672 0.544792
vt 0.819672 0.586071
vt 0.838530 0.534112
vt 0.838530 0.492833
vt 0.810721 0.534112
vt 0.810721 0.492833
vt 0.450159 0.826427
vt 0.494796 0.826307
vt 0.494796 0.840467
vt 0.450159 0.840587
vt 0.899280 0.373435
vt 0.899280 0.331436
vt 0.904890 0.331436
vt 0.904890 0.373435
vt 0.906561 0.265317
vt 0.901070 0.265317
vt 0.903816 0.254877
vt 0.896177 0.262557
vt 0.825163 0.586071
vt 0.825163 0.544792
vt 0.830772 0.544792
vt 0.830772 0.586071
vt 0.893432 0.257757
vt 0.893432 0.252117
vt 0.869681 0.420354
vt 0.869681 0.378355
vt 0.875171 0.378355
vt 0.875290 0.420354
vt 0.896177 0.247317
vt 0.900951 0.244557
vt 0.836382 0.586071
vt 0.836382 0.544792
vt 0.841872 0.544792
vt 0.841872 0.586071
vt 0.906561 0.244557
vt 0.911335 0.247317
vt 0.914199 0.252117
vt 0.914199 0.257757
vt 0.898325 0.494273
vt 0.898325 0.452274
vt 0.903816 0.452274
vt 0.903816 0.494273
vt 0.911335 0.262557
vt 0.815256 0.474233
vt 0.815256 0.432234
vt 0.820747 0.432234
vt 0.820747 0.474233
vt 0.872545 0.231117
vt 0.875290 0.241557
vt 0.867771 0.233997
vt 0.864907 0.238797
vt 0.864907 0.244317
vt 0.847481 0.586071
vt 0.847481 0.544792
vt 0.852972 0.544792
vt 0.852972 0.586071
vt 0.867771 0.249117
vt 0.872545 0.251877
vt 0.878155 0.251877
vt 0.882929 0.249117
vt 0.885674 0.244317
vt 0.885674 0.238797
vt 0.882929 0.233997
vt 0.878155 0.231117
vt 0.817882 0.411594
vt 0.817882 0.370315
vt 0.823372 0.370315
vt 0.823372 0.411594
vt 0.921241 0.230037
vt 0.915631 0.230037
vt 0.918377 0.219598
vt 0.910857 0.227157
vt 0.908112 0.222358
vt 0.908112 0.216838
vt 0.828982 0.411594
vt 0.828982 0.370315
vt 0.910857 0.212038
vt 0.915631 0.209278
vt 0.921241 0.209278
vt 0.926015 0.212038
vt 0.887226 0.494273
vt 0.887226 0.452274
vt 0.892716 0.452274
vt 0.892716 0.494273
vt 0.928760 0.216838
vt 0.928760 0.222358
vt 0.069784 0.992145
vt 0.069784 0.943066
vt 0.102606 0.943066
vt 0.102606 0.992145
vt 0.926015 0.227157
vt 0.909425 0.494273
vt 0.909425 0.452274
vt 0.914915 0.452274
vt 0.914915 0.494273
vt 0.856552 0.272277
vt 0.866936 0.275037
vt 0.856552 0.277797
vt 0.859297 0.282597
vt 0.864191 0.285356
vt 0.851062 0.669950
vt 0.829459 0.669950
vt 0.869681 0.285356
vt 0.874574 0.282597
vt 0.881616 0.452274
vt 0.881616 0.494273
vt 0.877319 0.277797
vt 0.877319 0.272277
vt 0.832920 0.534112
vt 0.832920 0.492833
vt 0.874574 0.267477
vt 0.869681 0.264717
vt 0.864191 0.264717
vt 0.859417 0.267477
vt 0.827430 0.492833
vt 0.827430 0.534112
vt 0.910380 0.388435
vt 0.910380 0.430434
vt 0.841275 0.307196
vt 0.835666 0.307196
vt 0.838530 0.296756
vt 0.830891 0.304436
vt 0.888180 0.373435
vt 0.888180 0.331436
vt 0.893671 0.331436
vt 0.893790 0.373435
vt 0.828146 0.299636
vt 0.828146 0.293996
vt 0.829459 0.668150
vt 0.851062 0.668150
vt 0.851062 0.668630
vt 0.829459 0.668630
vt 0.830891 0.289196
vt 0.835666 0.286436
vt 0.447294 0.943066
vt 0.447294 0.992145
vt 0.414472 0.992145
vt 0.414472 0.943066
vt 0.841275 0.286436
vt 0.846049 0.289196
vt 0.848794 0.293996
vt 0.848794 0.299516
vt 0.846049 0.304436
vt 0.881497 0.192118
vt 0.884242 0.202558
vt 0.876723 0.194998
vt 0.873858 0.199798
vt 0.873858 0.205318
vt 0.876723 0.210118
vt 0.881497 0.212878
vt 0.886987 0.212878
vt 0.891880 0.210118
vt 0.894625 0.205318
vt 0.894625 0.199798
vt 0.891880 0.194998
vt 0.887106 0.192118
vt 0.970772 0.226557
vt 0.965163 0.226557
vt 0.967908 0.216238
vt 0.960388 0.223798
vt 0.957643 0.218998
vt 0.957643 0.213478
vt 0.960388 0.208678
vt 0.965163 0.205798
vt 0.970772 0.205798
vt 0.975546 0.208558
vt 0.978291 0.213478
vt 0.978291 0.218998
vt 0.975546 0.223798
vt 0.925896 0.164878
vt 0.928641 0.175198
vt 0.921122 0.167638
vt 0.918257 0.172438
vt 0.918257 0.177958
vt 0.921122 0.182758
vt 0.925896 0.185638
vt 0.931505 0.185638
vt 0.936279 0.182758
vt 0.939024 0.177958
vt 0.939024 0.172438
vt 0.936279 0.167638
vt 0.931505 0.164878
vt 0.856910 0.361435
vt 0.856910 0.320036
vt 0.826356 0.432234
vt 0.826356 0.474233
vt 0.903219 0.307196
vt 0.897609 0.307196
vt 0.900474 0.296756
vt 0.892835 0.304436
vt 0.890090 0.299636
vt 0.890090 0.293996
vt 0.892835 0.289196
vt 0.897609 0.286436
vt 0.903219 0.286436
vt 0.907993 0.289196
vt 0.910857 0.293996
vt 0.910857 0.299516
vt 0.907993 0.304436
vt 0.817285 0.314876
vt 0.820030 0.325316
vt 0.812511 0.317636
vt 0.809647 0.322436
vt 0.809647 0.328076
vt 0.812511 0.332876
vt 0.817285 0.335636
vt 0.822776 0.335636
vt 0.827669 0.332876
vt 0.831966 0.474233
vt 0.831966 0.432234
vt 0.830414 0.328076
vt 0.830414 0.322436
vt 0.827669 0.317636
vt 0.822776 0.314876
vt 0.772886 0.622551
vt 0.828624 0.626511
vt 0.829101 0.622311
vt 0.851062 0.667310
vt 0.829459 0.667310
vt 0.828504 0.612951
vt 0.829101 0.617391
vt 0.833159 0.615231
vt 0.772767 0.617751
vt 0.851301 0.361435
vt 0.851301 0.320036
vt 0.833756 0.627711
vt 0.829101 0.629751
vt 0.597439 0.146159
vt 0.597439 0.189958
vt 0.585026 0.194278
vt 0.585026 0.146159
vt 0.384157 0.014161
vt 0.433330 0.014161
vt 0.433569 0.049920
vt 0.403253 0.054600
vt 0.847004 0.625431
vt 0.844020 0.623871
vt 0.847123 0.614271
vt 0.433330 0.281757
vt 0.384276 0.281757
vt 0.402776 0.241077
vt 0.433091 0.245997
vt 0.757967 0.615711
vt 0.597439 0.219118
vt 0.585026 0.226437
vt 0.829101 0.609711
vt 0.833637 0.611631
vt 0.761548 0.610671
vt 0.755103 0.614031
vt 0.888061 0.577312
vt 0.887942 0.571072
vt 0.754506 0.625191
vt 0.761071 0.628911
vt 0.720491 0.024481
vt 0.675853 0.024481
vt 0.671318 0.012361
vt 0.720491 0.012361
vt 0.893432 0.567832
vt 0.898922 0.570952
vt 0.896177 0.572752
vt 0.893551 0.571192
vt 0.896058 0.575752
vt 0.893551 0.580432
vt 0.898922 0.577312
vt 0.893432 0.580432
vt 0.893551 0.571072
vt 0.578343 0.943066
vt 0.578343 0.992145
vt 0.545640 0.992145
vt 0.545640 0.943066
vt 0.803082 0.711709
vt 0.781480 0.711709
vt 0.903816 0.505913
vt 0.903816 0.547912
vt 0.017150 0.342116
vt 0.065845 0.293516
vt 0.088880 0.343796
vt 0.069426 0.363235
vt 0.646015 0.024481
vt 0.638615 0.012361
vt 0.263373 0.415074
vt 0.263373 0.458874
vt 0.223748 0.442554
vt 0.228164 0.415434
vt 0.842827 0.710629
vt 0.842827 0.711109
vt 0.841991 0.710869
vt 0.842588 0.711469
vt 0.842230 0.711709
vt 0.841872 0.711709
vt 0.841394 0.711469
vt 0.841156 0.710629
vt 0.841394 0.710269
vt 0.841753 0.710029
vt 0.842230 0.710029
vt 0.842588 0.710269
vt 0.773841 0.661790
vt 0.773841 0.661430
vt 0.778377 0.778068
vt 0.778377 0.772908
vt 0.799979 0.772908
vt 0.799979 0.778068
vt 0.808811 0.778428
vt 0.808811 0.773268
vt 0.830414 0.773268
vt 0.830414 0.778428
vt 0.782793 0.784548
vt 0.775273 0.784548
vt 0.805589 0.784908
vt 0.813227 0.784908
vt 0.815018 0.789108
vt 0.805589 0.790308
vt 0.793773 0.788748
vt 0.808811 0.798108
vt 0.806066 0.792468
vt 0.806782 0.791388
vt 0.812631 0.791388
vt 0.798189 0.798948
vt 0.780286 0.798948
vt 0.789238 0.791028
vt 0.782196 0.791028
vt 0.789238 0.790548
vt 0.784702 0.788748
vt 0.803202 0.784548
vt 0.803202 0.789948
vt 0.776348 0.791028
vt 0.778377 0.797748
vt 0.775751 0.792108
vt 0.775273 0.789948
vt 0.795683 0.784548
vt 0.833517 0.784908
vt 0.825998 0.784908
vt 0.824088 0.789108
vt 0.826595 0.791388
vt 0.819553 0.790908
vt 0.803082 0.715789
vt 0.781480 0.715789
vt 0.832443 0.791388
vt 0.833517 0.790308
vt 0.881616 0.547912
vt 0.881616 0.505913
vt 0.887226 0.505913
vt 0.887226 0.547912
vt 0.833040 0.792468
vt 0.830414 0.798108
vt 0.828504 0.799308
vt 0.819553 0.791388
vt 0.810602 0.799308
vt 0.140321 0.536752
vt 0.095683 0.536752
vt 0.112870 0.498593
vt 0.139963 0.502913
vt 0.851062 0.667790
vt 0.829459 0.667790
vt 0.807140 0.778428
vt 0.805589 0.779988
vt 0.801650 0.778068
vt 0.803202 0.779628
vt 0.873500 0.320036
vt 0.873500 0.361315
vt 0.776825 0.778068
vt 0.775273 0.779628
vt 0.831966 0.778428
vt 0.833517 0.779988
vt 0.876126 0.547912
vt 0.876126 0.505913
vt 0.803082 0.714349
vt 0.803082 0.716029
vt 0.781480 0.716029
vt 0.781480 0.714349
vt 0.375683 0.840587
vt 0.306936 0.840707
vt 0.306936 0.826547
vt 0.375683 0.826427
vt 0.258479 0.992145
vt 0.258479 0.943066
vt 0.306698 0.943066
vt 0.306698 0.992145
vt 0.734336 0.943066
vt 0.734336 0.992145
vt 0.190091 0.826667
vt 0.233893 0.826547
vt 0.233893 0.840707
vt 0.190091 0.840707
vt 0.814660 0.943066
vt 0.814660 0.992145
vt 0.782554 0.992145
vt 0.782554 0.943066
vt 0.890329 0.943066
vt 0.890329 0.992145
vt 0.909425 0.505913
vt 0.909425 0.547912
vt 0.496467 0.943066
vt 0.496467 0.992145
vt 0.338803 0.992145
vt 0.338803 0.943066
vt 0.808095 0.840227
vt 0.739349 0.840227
vt 0.739349 0.826187
vt 0.808095 0.826067
vt 0.210380 0.992145
vt 0.210380 0.943066
vt 0.972324 0.943066
vt 0.972324 0.992145
vt 0.923151 0.992145
vt 0.923151 0.943066
vt 0.020611 0.992145
vt 0.020611 0.943066
vt 0.214677 0.293396
vt 0.263373 0.342116
vt 0.211574 0.363715
vt 0.192120 0.344155
vt 0.263373 0.371275
vt 0.223987 0.388195
vt 0.482503 0.281757
vt 0.463407 0.241197
vt 0.140201 0.293516
vt 0.184958 0.293396
vt 0.167772 0.331676
vt 0.140560 0.327236
vt 0.017150 0.371395
vt 0.056894 0.387595
vt 0.568794 0.228237
vt 0.515325 0.281757
vt 0.490738 0.227397
vt 0.512460 0.205798
vt 0.568794 0.147959
vt 0.568794 0.196078
vt 0.526544 0.178438
vt 0.531318 0.148199
vt 0.211216 0.467033
vt 0.263373 0.488033
vt 0.214796 0.536632
vt 0.191642 0.486353
vt 0.351454 0.014161
vt 0.375922 0.068520
vt 0.184958 0.536752
vt 0.167175 0.498713
vt 0.840678 0.610671
vt 0.794967 0.267717
vt 0.843662 0.219118
vt 0.855955 0.226437
vt 0.802486 0.279957
vt 0.065845 0.536752
vt 0.017269 0.488153
vt 0.069068 0.466433
vt 0.088403 0.485993
vt 0.297865 0.196198
vt 0.297865 0.147959
vt 0.335342 0.147719
vt 0.340116 0.177958
vt 0.017150 0.415194
vt 0.052478 0.414834
vt 0.351454 0.281757
vt 0.375564 0.227037
vt 0.297985 0.228237
vt 0.353961 0.205318
vt 0.095564 0.293516
vt 0.113467 0.331436
vt 0.297865 0.067680
vt 0.354200 0.090120
vt 0.297865 0.099840
vt 0.340235 0.117359
vt 0.482503 0.014161
vt 0.515205 0.014161
vt 0.491216 0.068760
vt 0.463884 0.054840
vt 0.568794 0.067560
vt 0.512818 0.090480
vt 0.840440 0.628911
vt 0.568794 0.099720
vt 0.526663 0.117839
vt 0.017150 0.458874
vt 0.056655 0.441954
vt 0.434046 0.851387
vt 0.434046 0.881027
vt 0.406834 0.881147
vt 0.406834 0.851387
vt 0.188062 0.881147
vt 0.160849 0.881027
vt 0.160849 0.851387
vt 0.188062 0.851387
vt 0.133756 0.881027
vt 0.106664 0.881027
vt 0.106664 0.851507
vt 0.133756 0.851387
vt 0.052836 0.880787
vt 0.026101 0.880907
vt 0.026101 0.851507
vt 0.052836 0.851627
vt 0.787925 0.661430
vt 0.787925 0.661790
vt 0.352171 0.851267
vt 0.352171 0.881147
vt 0.324839 0.881147
vt 0.324839 0.851267
vt 0.270056 0.851267
vt 0.270056 0.881147
vt 0.242725 0.881147
vt 0.242725 0.851267
vt 0.297507 0.851267
vt 0.297507 0.881147
vt 0.215393 0.881147
vt 0.215393 0.851267
vt 0.379502 0.881147
vt 0.379502 0.851267
vt 0.515205 0.851507
vt 0.542060 0.851627
vt 0.542060 0.880787
vt 0.515205 0.880907
vt 0.079690 0.880907
vt 0.079690 0.851507
vt 0.568794 0.851507
vt 0.568794 0.880907
vt 0.646135 0.267717
vt 0.638615 0.279957
vt 0.843543 0.073080
vt 0.794967 0.024481
vt 0.802366 0.012241
vt 0.855955 0.065760
vt 0.765129 0.024481
vt 0.769664 0.012361
vt 0.675853 0.267717
vt 0.720491 0.267717
vt 0.720491 0.279957
vt 0.671437 0.279957
vt 0.597439 0.102360
vt 0.585026 0.098040
vt 0.843662 0.146159
vt 0.843662 0.102360
vt 0.855955 0.097920
vt 0.855955 0.146159
vt 0.597439 0.073200
vt 0.585026 0.065880
vt 0.765248 0.267717
vt 0.769664 0.279957
vt 0.843662 0.189838
vt 0.855955 0.194278
vt 0.593381 0.840467
vt 0.524634 0.840467
vt 0.524634 0.826307
vt 0.593381 0.826307
vt 0.160969 0.840827
vt 0.092222 0.840827
vt 0.092103 0.826667
vt 0.160969 0.826667
vt 0.914915 0.505913
vt 0.914915 0.547912
vt 0.405521 0.826427
vt 0.405521 0.840587
vt 0.178275 0.992145
vt 0.178275 0.943066
vt 0.710107 0.826187
vt 0.710227 0.840347
vt 0.666424 0.826187
vt 0.666424 0.840347
vt 0.622622 0.826187
vt 0.622622 0.840347
vt 0.864071 0.420354
vt 0.864071 0.378355
vt 0.870516 0.547912
vt 0.870516 0.505913
vt 0.277695 0.826547
vt 0.277695 0.840707
vt 0.805231 0.534112
vt 0.805231 0.492833
vt 0.851062 0.670310
vt 0.829459 0.670310
vt 0.017746 0.826787
vt 0.062384 0.826667
vt 0.062384 0.840827
vt 0.017746 0.840947
vt 0.837933 0.826067
vt 0.837933 0.840227
vt 0.808573 0.586071
vt 0.808573 0.544792
vt 0.882571 0.826067
vt 0.882571 0.840107
vt 0.859655 0.432234
vt 0.859655 0.474233
vt 0.910380 0.331436
vt 0.910380 0.373435
s 1
usemtl Material
f 1/1/1 2/2/2 3/3/3
f 79/4/4 80/5/5 78/6/6 77/7/7
f 5/8/8 7/9/9 6/10/10 3/3/3
f 76/11/11 79/4/4 77/7/7 74/12/12
f 2/2/2 72/13/13 71/14/14 4/15/15
f 74/12/12 73/16/16 75/17/17 76/11/11
f 18/18/18 1/1/1 16/19/19
f 16/19/19 1/1/1 14/20/20
f 14/20/20 1/1/1 12/21/21
f 12/21/21 1/1/1 10/22/22
f 10/22/22 1/1/1 8/23/23
f 8/23/23 1/1/1 6/10/10
f 1/1/1 3/3/3 6/10/10
f 18/18/18 20/24/24 1/1/1
f 20/24/24 21/25/25 1/1/1
f 1/1/1 21/25/25 22/26/26
f 34/27/27 23/28/28 21/25/25 20/24/24
f 15/29/29 17/30/30 16/19/19 14/20/20
f 7/9/9 9/31/31 8/23/23 6/10/10
f 25/32/32 27/33/33 1/1/1
f 1/1/1 27/33/33 28/34/34
f 19/35/35 34/27/27 20/24/24 18/18/18
f 24/36/36 32/37/37 31/38/38 26/39/39
f 15/29/29 38/40/40 37/41/41 17/30/30
f 57/42/42 81/43/43 29/44/44 30/45/45
f 17/30/30 37/41/41 36/46/46 19/35/35
f 71/14/14 67/47/47 69/48/48 4/15/15
f 26/39/39 31/38/38 30/45/45 29/44/44
f 78/6/6 59/49/49 61/50/50 77/7/7
f 74/12/12 63/51/51 65/52/52 73/16/16
f 59/49/49 78/6/6 81/43/43 57/42/42
f 73/16/16 65/52/52 67/47/47 71/14/14
f 9/31/31 41/53/53 40/54/54 11/55/55
f 5/8/8 43/56/56 42/57/57 7/9/9
f 17/30/30 19/35/35 18/18/18 16/19/19
f 1/1/1 22/26/26 25/32/32
f 48/58/58 49/59/59 38/40/40 39/60/60
f 68/61/61 70/62/62 69/48/48 67/47/47
f 62/63/63 64/64/64 63/51/51 61/50/50
f 58/65/65 60/66/66 59/49/49 57/42/42
f 56/67/67 58/65/65 57/42/42 30/45/45
f 50/68/68 51/69/69 36/46/46 37/41/41
f 51/69/69 52/70/70 35/71/71 36/46/46
f 54/72/72 55/73/73 31/38/38 32/37/37
f 64/64/64 66/74/74 65/52/52 63/51/51
f 47/75/75 48/58/58 39/60/60 40/54/54
f 46/76/76 47/75/75 40/54/54 41/53/53
f 53/77/77 54/72/72 32/37/37 33/78/78
f 70/62/62 44/79/79 43/56/56 69/48/48
f 66/74/74 68/61/61 67/47/47 65/52/52
f 45/80/80 46/76/76 41/53/53 42/57/57
f 44/79/79 45/80/80 42/57/57 43/56/56
f 49/59/59 50/68/68 37/41/41 38/40/40
f 55/73/73 56/67/67 30/45/45 31/38/38
f 60/66/66 62/63/63 61/50/50 59/49/49
f 13/81/81 39/60/60 38/40/40 15/29/29
f 4/15/15 69/48/48 43/56/56 5/8/8
f 81/43/43 78/6/6 80/5/5 28/34/34
f 2/2/2 1/1/1 72/13/13
f 19/35/35 36/46/46 35/71/71 34/27/27
f 34/27/27 35/71/71 33/78/78 23/28/28
f 1043/82/82 1045/83/82 1046/84/82 1044/85/82
f 1127/86/83 1129/87/84 1130/88/85 1128/89/86
f 23/28/28 24/36/36 22/26/26 21/25/25
f 72/13/13 1/1/1 75/17/17
f 661/90/87 662/91/88 660/92/89 659/93/90
f 1/1/1 76/11/11 75/17/17
f 13/81/81 15/29/29 14/20/20 12/21/21
f 11/55/55 13/81/81 12/21/21 10/22/22
f 7/9/9 42/57/57 41/53/53 9/31/31
f 23/28/28 33/78/78 32/37/37 24/36/36
f 1119/94/91 1121/95/92 1122/96/93 1120/97/94
f 1112/98/95 1113/99/95 1114/100/95
f 1111/101/95 1113/99/95 1112/98/95
f 1110/102/96 1111/101/95 1112/98/95
f 1109/103/97 1111/101/95 1110/102/96
f 1106/104/98 1107/105/99 1108/106/100
f 1105/107/98 1107/105/99 1106/104/98
f 26/39/39 29/44/44 27/33/33 25/32/32
f 1104/108/101 1105/107/98 1106/104/98
f 76/11/11 1/1/1 79/4/4
f 79/4/4 1/1/1 80/5/5
f 1/1/1 28/34/34 80/5/5
f 72/13/13 75/17/17 73/16/16 71/14/14
f 1103/109/101 1105/107/98 1104/108/101
f 1095/110/102 1097/111/102 1098/112/103 1096/113/103
f 11/55/55 40/54/54 39/60/60 13/81/81
f 1115/111/104 1117/110/105 1118/82/106 1116/85/105
f 82/114/107 83/115/108 84/116/109
f 133/117/110 134/118/111 156/119/112 132/120/113
f 1083/121/114 1085/122/114 1086/123/115 1084/124/116
f 105/125/117 107/126/118 106/127/119 103/128/120
f 94/129/121 96/130/122 95/131/123 93/132/124
f 128/133/125 133/117/110 132/120/113 129/134/126
f 83/115/108 127/135/127 126/136/128 85/137/129
f 86/138/130 88/139/131 87/140/132 84/116/109
f 129/134/126 126/136/128 127/135/127 128/133/125
f 100/141/133 115/142/134 101/143/135 99/144/136
f 1071/145/137 1073/146/138 1074/122/138 1072/121/139
f 99/144/136 82/114/107 97/147/140
f 97/147/140 82/114/107 95/131/123
f 95/131/123 82/114/107 93/132/124
f 199/148/141 177/149/142 176/150/143 198/151/144
f 93/132/124 82/114/107 91/152/145
f 91/152/145 82/114/107 89/153/146
f 1079/154/147 1081/155/148 1082/156/147 1080/157/147
f 89/153/146 82/114/107 87/140/132
f 82/114/107 84/116/109 87/140/132
f 1075/157/149 1077/156/149 1078/146/149 1076/145/149
f 107/126/118 110/158/150 108/159/151 106/127/119
f 99/144/136 101/143/135 82/114/107
f 101/143/135 102/160/152 82/114/107
f 82/114/107 102/160/152 103/128/120
f 88/139/131 90/161/153 89/153/146 87/140/132
f 110/158/150 136/162/154 109/163/155 108/159/151
f 96/130/122 98/164/156 97/147/140 95/131/123
f 106/127/119 108/159/151 82/114/107
f 82/114/107 108/159/151 109/163/155
f 1123/165/157 1125/166/157 1126/167/158 1124/168/158
f 98/164/156 100/141/133 99/144/136 97/147/140
f 104/169/159 115/142/134 114/170/160 113/171/161
f 364/172/162 366/173/163 370/174/164 344/175/165
f 356/176/166 357/177/167 350/178/164 352/179/168
f 100/141/133 98/164/156 117/180/169 116/181/170
f 107/126/118 105/125/117 112/182/171 111/183/172
f 94/129/121 92/184/173 120/185/174 119/186/175
f 92/184/173 90/161/153 121/187/176 120/185/174
f 85/137/129 126/136/128 125/188/177 124/189/178
f 130/190/179 125/188/177 126/136/128 129/134/126
f 129/134/126 132/120/113 131/191/180 130/190/179
f 132/120/113 156/119/112 155/192/181 131/191/180
f 156/119/112 157/193/182 201/194/183 155/192/181
f 96/130/122 94/129/121 119/186/175 118/195/184
f 98/164/156 96/130/122 118/195/184 117/180/169
f 1048/196/185 1047/197/186 1050/198/187 1049/199/187
f 85/137/129 86/138/130 84/116/109 83/115/108
f 83/115/108 82/114/107 127/135/127
f 82/114/107 128/133/125 127/135/127
f 1045/83/82 1047/197/186 1048/196/185 1046/84/82
f 92/184/173 94/129/121 93/132/124 91/152/145
f 86/138/130 85/137/129 124/189/178 123/200/188
f 408/201/189 409/202/189 407/203/189 406/204/189
f 1060/205/190 1061/112/191 1062/113/191 1059/206/192
f 82/114/107 103/128/120 106/127/119
f 1053/94/189 1055/207/189 1056/208/193 1054/95/189
f 88/139/131 86/138/130 123/200/188 122/209/194
f 104/169/159 105/125/117 103/128/120 102/160/152
f 128/133/125 82/114/107 133/117/110
f 133/117/110 82/114/107 134/118/111
f 134/118/111 82/114/107 135/210/195
f 82/114/107 109/163/155 135/210/195
f 134/118/111 135/210/195 157/193/182 156/119/112
f 90/161/153 88/139/131 122/209/194 121/187/176
f 123/200/188 124/189/178 150/211/196 149/212/197
f 1029/213/198 1031/214/199 1032/215/199 1030/216/200
f 130/190/179 131/191/180 153/217/201 152/218/202
f 116/181/170 117/180/169 143/219/203 142/220/204
f 200/221/205 202/222/206 201/194/183 158/223/207
f 138/224/208 159/225/209 137/226/210 111/183/172
f 124/189/178 125/188/177 151/227/211 150/211/196
f 121/187/176 122/209/194 148/228/212 147/229/213
f 202/222/206 154/230/214 155/192/181 201/194/183
f 117/180/169 118/195/184 144/231/215 143/219/203
f 131/191/180 155/192/181 154/230/214 153/217/201
f 125/188/177 130/190/179 152/218/202 151/227/211
f 113/171/161 114/170/160 141/232/216 140/233/217
f 111/183/172 112/182/171 139/234/218 138/224/208
f 119/186/175 120/185/174 146/235/219 145/236/220
f 122/209/194 123/200/188 149/212/197 148/228/212
f 120/185/174 121/187/176 147/229/213 146/235/219
f 159/225/209 200/221/205 158/223/207 137/226/210
f 115/142/134 100/141/133 116/181/170 114/170/160
f 136/162/154 157/193/182 135/210/195 109/163/155
f 1034/237/82 1035/216/221 1036/213/222
f 115/142/134 104/169/159 102/160/152 101/143/135
f 1033/238/82 1035/216/221 1034/237/82
f 111/183/172 137/226/210 110/158/150 107/126/118
f 52/70/70 53/77/77 33/78/78 35/71/71
f 140/233/217 141/232/216 163/239/223 162/240/224
f 202/222/206 200/221/205 196/241/225 198/151/144
f 146/235/219 147/229/213 169/242/226 168/243/227
f 147/229/213 148/228/212 170/244/228 169/242/226
f 145/236/220 146/235/219 168/243/227 167/245/229
f 152/218/202 153/217/201 175/246/230 174/247/231
f 150/211/196 151/227/211 173/248/232 172/249/233
f 138/224/208 139/234/218 161/250/234 160/251/235
f 151/227/211 152/218/202 174/247/231 173/248/232
f 196/241/225 200/221/205 159/225/209 194/252/236
f 143/219/203 144/231/215 166/253/237 165/254/238
f 153/217/201 154/230/214 176/150/143 175/246/230
f 198/151/144 176/150/143 154/230/214 202/222/206
f 148/228/212 149/212/197 171/255/239 170/244/228
f 141/232/216 142/220/204 164/256/240 163/239/223
f 142/220/204 143/219/203 165/254/238 164/256/240
f 1028/238/241 1029/213/198 1030/216/200
f 1027/237/241 1029/213/198 1028/238/241
f 387/257/242 393/258/243 392/259/244 389/260/245
f 186/261/246 187/262/247 166/253/237 167/245/229
f 193/263/248 195/264/249 194/252/236 160/251/235
f 189/265/250 190/266/251 163/239/223 164/256/240
f 185/267/252 186/261/246 167/245/229 168/243/227
f 177/149/142 178/268/253 175/246/230 176/150/143
f 178/268/253 179/269/254 174/247/231 175/246/230
f 190/266/251 191/270/255 162/240/224 163/239/223
f 182/271/256 183/272/257 170/244/228 171/255/239
f 197/273/258 199/148/141 198/151/144 196/241/225
f 191/270/255 192/274/259 161/250/234 162/240/224
f 179/269/254 180/275/260 173/248/232 174/247/231
f 183/272/257 184/276/261 169/242/226 170/244/228
f 187/262/247 188/277/262 165/254/238 166/253/237
f 181/278/263 182/271/256 171/255/239 172/249/233
f 180/275/260 181/278/263 172/249/233 173/248/232
f 188/277/262 189/265/250 164/256/240 165/254/238
f 184/276/261 185/267/252 168/243/227 169/242/226
f 195/264/249 197/273/258 196/241/225 194/252/236
f 192/274/259 193/263/248 160/251/235 161/250/234
f 139/234/218 140/233/217 162/240/224 161/250/234
f 114/170/160 116/181/170 142/220/204 141/232/216
f 112/182/171 113/171/161 140/233/217 139/234/218
f 160/251/235 194/252/236 159/225/209 138/224/208
f 144/231/215 145/236/220 167/245/229 166/253/237
f 1015/279/264 1017/280/265 1018/281/265 1016/282/266
f 137/226/210 158/223/207 136/162/154 110/158/150
f 1008/283/267 1011/284/268 1012/285/268 1010/286/267
f 1039/86/269 1041/168/269 1042/167/269 1040/87/269
f 835/287/270 836/288/271 838/289/272 837/290/273
f 845/291/274 846/292/274 848/293/275 847/294/276
f 548/295/277 549/296/241 546/297/278 547/298/279
f 953/299/280 954/300/281 956/301/282 955/302/282
f 843/303/282 844/304/282 846/292/274 845/291/274
f 999/305/283 1000/306/283 1002/307/284 1001/308/285
f 988/309/286 989/310/287 991/311/288 990/312/289
f 963/313/290 964/314/291 966/315/291 965/316/291
f 452/317/292 462/318/292 454/319/292 453/320/293
f 975/316/294 976/315/294 978/321/294 977/322/295
f 971/322/296 972/321/297 974/323/298 973/324/299
f 357/177/167 372/325/300 360/326/301 358/327/302
f 90/161/153 92/184/173 91/152/145 89/153/146
f 9/31/31 11/55/55 10/22/22 8/23/23
f 29/44/44 81/43/43 28/34/34 27/33/33
f 201/194/183 157/193/182 136/162/154 158/223/207
f 347/328/303 348/329/304 333/330/305 346/331/306
f 911/332/307 912/333/307 914/334/308 913/335/308
f 992/336/309 993/337/309 995/338/266 994/339/310
f 879/340/311 880/341/311 882/342/205 881/343/205
f 875/344/312 876/345/312 878/346/313 877/347/314
f 841/348/280 842/349/281 844/304/282 843/303/282
f 943/350/315 944/351/315 946/352/316 945/353/316
f 24/36/36 26/39/39 25/32/32 22/26/26
f 929/354/274 930/355/274 932/356/317 931/357/318
f 118/195/184 119/186/175 145/236/220 144/231/215
f 921/358/272 922/359/272 924/360/319 923/361/320
f 149/212/197 150/211/196 172/249/233 171/255/239
f 831/362/315 832/363/315 834/364/316 833/365/316
f 853/366/321 854/367/322 856/368/307 855/369/307
f 919/370/271 920/371/323 922/359/272 921/358/272
f 909/372/324 910/373/324 912/333/307 911/332/307
f 803/374/325 805/375/325 804/376/325 802/377/326
f 901/378/327 902/379/328 904/380/329 903/381/317
f 203/382/189 204/383/189 205/384/330
f 204/383/189 206/385/189 205/384/330
f 857/386/308 858/387/308 860/388/315 859/389/315
f 206/385/189 207/390/189 205/384/330
f 207/390/189 208/391/189 205/384/330
f 959/392/331 960/393/275 962/394/313 961/395/313
f 208/391/189 209/396/189 205/384/330
f 209/396/189 210/397/189 205/384/330
f 861/398/332 862/399/332 864/400/271 863/401/270
f 210/397/189 211/402/189 205/384/330
f 211/402/189 212/403/189 205/384/330
f 212/403/189 213/404/189 205/384/330
f 213/404/189 214/405/189 205/384/330
f 889/406/316 890/407/316 892/408/271 891/409/271
f 214/405/189 215/410/189 205/384/330
f 205/384/330 215/410/189 203/382/189
f 823/411/311 825/412/311 826/413/322 824/414/205
f 216/415/82 218/416/333 217/417/82
f 217/417/82 218/416/333 219/418/82
f 219/418/82 218/416/333 220/419/82
f 865/420/272 866/421/272 868/422/319 867/423/320
f 220/419/82 218/416/333 221/424/82
f 221/424/82 218/416/333 222/425/82
f 222/425/82 218/416/333 223/426/82
f 223/426/82 218/416/333 224/427/82
f 224/427/82 218/416/333 225/428/82
f 225/428/82 218/416/333 226/429/82
f 226/429/82 218/416/333 227/430/82
f 227/430/82 218/416/333 228/431/82
f 218/416/333 216/415/82 228/431/82
f 869/432/280 870/433/280 872/434/334 871/435/334
f 229/436/189 230/437/189 231/438/330
f 230/437/189 232/439/189 231/438/330
f 232/439/189 233/440/189 231/438/330
f 233/440/189 234/441/189 231/438/330
f 873/442/274 874/443/274 876/345/312 875/344/312
f 234/441/189 235/444/189 231/438/330
f 235/444/189 236/445/189 231/438/330
f 863/401/270 864/400/271 866/421/272 865/420/272
f 236/445/189 237/446/189 231/438/330
f 237/446/189 238/447/189 231/438/330
f 885/448/335 886/449/335 888/450/315 887/451/315
f 238/447/189 239/452/189 231/438/330
f 239/452/189 240/453/189 231/438/330
f 535/454/325 536/455/325 533/456/336 534/457/337
f 240/453/189 241/458/189 231/438/330
f 231/438/330 241/458/189 229/436/189
f 871/435/334 872/434/334 874/443/274 873/442/274
f 893/459/273 894/460/273 896/461/338 895/462/339
f 242/463/82 244/464/333 243/465/82
f 243/465/82 244/464/333 245/466/82
f 245/466/82 244/464/333 246/467/82
f 1001/308/285 1002/307/284 1004/468/340 1003/469/340
f 246/467/82 244/464/333 247/470/82
f 247/470/82 244/464/333 248/471/82
f 881/343/205 882/342/205 884/472/341 883/473/341
f 248/471/82 244/464/333 249/474/82
f 249/474/82 244/464/333 250/475/82
f 917/476/332 918/477/332 920/371/323 919/370/271
f 250/475/82 244/464/333 251/478/82
f 251/478/82 244/464/333 252/479/82
f 252/479/82 244/464/333 253/480/82
f 253/480/82 244/464/333 254/481/82
f 244/464/333 242/463/82 254/481/82
f 913/335/308 914/334/308 916/482/315 915/483/315
f 847/294/276 848/293/275 850/484/313 849/485/313
f 255/486/189 256/487/189 257/488/330
f 256/487/189 258/489/189 257/488/330
f 897/490/280 898/491/281 900/492/282 899/493/282
f 258/489/189 259/494/189 257/488/330
f 259/494/189 260/495/189 257/488/330
f 983/496/342 996/497/342 998/498/343 997/499/343
f 260/495/189 261/500/189 257/488/330
f 261/500/189 262/501/189 257/488/330
f 520/502/344 539/503/344 522/504/345 521/505/346
f 262/501/189 263/506/189 257/488/330
f 263/506/189 264/507/189 257/488/330
f 264/507/189 265/508/189 257/488/330
f 265/508/189 266/509/189 257/488/330
f 266/509/189 267/510/189 257/488/330
f 257/488/330 267/510/189 255/486/189
f 268/511/82 270/512/333 269/513/82
f 269/513/82 270/512/333 271/514/82
f 271/514/82 270/512/333 272/515/82
f 272/515/82 270/512/333 273/516/82
f 273/516/82 270/512/333 274/517/82
f 274/517/82 270/512/333 275/518/82
f 275/518/82 270/512/333 276/519/82
f 276/519/82 270/512/333 277/520/82
f 277/520/82 270/512/333 278/521/82
f 278/521/82 270/512/333 279/522/82
f 279/522/82 270/512/333 280/523/82
f 270/512/333 268/511/82 280/523/82
f 281/524/189 282/525/189 283/526/330
f 282/525/189 284/527/189 283/526/330
f 284/527/189 285/528/189 283/526/330
f 285/528/189 286/529/189 283/526/330
f 286/529/189 287/530/189 283/526/330
f 287/530/189 288/531/189 283/526/330
f 288/531/189 289/532/189 283/526/330
f 289/532/189 290/533/189 283/526/330
f 290/533/189 291/534/189 283/526/330
f 291/534/189 292/535/189 283/526/330
f 292/535/189 293/536/189 283/526/330
f 283/526/330 293/536/189 281/524/189
f 294/537/82 296/538/333 295/539/82
f 295/539/82 296/538/333 297/540/82
f 297/540/82 296/538/333 298/541/82
f 298/541/82 296/538/333 299/542/82
f 299/542/82 296/538/333 300/543/82
f 300/543/82 296/538/333 301/544/82
f 301/544/82 296/538/333 302/545/82
f 302/545/82 296/538/333 303/546/82
f 303/546/82 296/538/333 304/547/82
f 304/547/82 296/538/333 305/548/82
f 305/548/82 296/538/333 306/549/82
f 296/538/333 294/537/82 306/549/82
f 927/550/334 928/551/334 930/355/274 929/354/274
f 824/414/205 826/413/322 828/552/307 827/553/307
f 307/554/189 308/555/189 309/556/330
f 308/555/189 310/557/189 309/556/330
f 887/451/315 888/450/315 890/407/316 889/406/316
f 310/557/189 311/558/189 309/556/330
f 311/558/189 312/559/189 309/556/330
f 312/559/189 313/560/189 309/556/330
f 313/560/189 314/561/189 309/556/330
f 314/561/189 315/562/189 309/556/330
f 315/562/189 316/563/189 309/556/330
f 316/563/189 317/564/189 309/556/330
f 317/564/189 318/565/189 309/556/330
f 318/565/189 319/566/189 309/556/330
f 309/556/330 319/566/189 307/554/189
f 320/567/82 322/568/333 321/569/82
f 321/569/82 322/568/333 323/570/82
f 323/570/82 322/568/333 324/571/82
f 324/571/82 322/568/333 325/572/82
f 325/572/82 322/568/333 326/573/82
f 326/573/82 322/568/333 327/574/82
f 327/574/82 322/568/333 328/575/82
f 829/576/335 830/577/308 832/363/315 831/362/315
f 328/575/82 322/568/333 329/578/82
f 329/578/82 322/568/333 330/579/82
f 330/579/82 322/568/333 331/580/82
f 331/580/82 322/568/333 332/581/82
f 322/568/333 320/567/82 332/581/82
f 833/365/316 834/364/316 836/288/271 835/287/270
f 333/330/305 334/582/347 335/324/348
f 335/324/348 337/313/349 333/330/305
f 333/330/305 337/313/349 338/583/350
f 338/583/350 337/313/349 339/584/351
f 986/585/352 987/586/352 989/310/287 988/309/286
f 340/316/353 342/587/354 341/588/355
f 342/587/354 343/589/356 341/588/355
f 357/177/167 359/590/357 334/582/347 348/329/304
f 925/591/280 926/592/280 928/551/334 927/550/334
f 339/584/351 344/175/165 338/583/350
f 371/593/358 345/594/359 338/583/350 344/175/165
f 753/595/360 755/596/361 754/597/360 752/598/362
f 608/599/107 610/600/363 609/601/364 607/602/365
f 367/603/366 368/604/367 366/173/163 365/605/368
f 630/606/369 632/607/369 631/608/364 629/609/370
f 354/610/371 356/176/166 352/179/168
f 4/15/15 5/8/8 3/3/3 2/2/2
f 350/178/164 357/177/167 348/329/304
f 749/596/360 751/611/361 750/612/360 748/597/372
f 348/329/304 334/582/347 333/330/305
f 361/613/373 342/587/354 358/327/302 360/326/301
f 340/316/353 336/322/349 342/587/354
f 342/587/354 336/322/349 358/327/302
f 336/322/349 359/590/357 358/327/302
f 358/327/302 359/590/357 357/177/167
f 362/614/374 343/589/356 342/587/354 361/613/373
f 346/331/306 333/330/305 338/583/350 345/594/359
f 356/176/166 355/615/375 372/325/300 357/177/167
f 355/615/375 356/176/166 354/610/371 353/616/376
f 379/617/377 380/618/378 378/259/244 377/258/379
f 351/619/380 352/179/168 350/178/164 349/620/381
f 349/620/381 350/178/164 348/329/304 347/328/303
f 343/589/356 364/172/162 344/175/165
f 105/125/117 104/169/159 113/171/161 112/182/171
f 370/174/164 366/173/163 368/604/367
f 697/621/382 699/622/382 698/623/382 696/624/382
f 397/625/383 398/626/384 390/627/385 391/628/386
f 389/260/245 392/259/244 391/628/386 390/627/385
f 375/257/242 377/258/379 376/260/349 374/629/387
f 394/617/388 396/618/389 392/259/244 393/258/243
f 393/258/243 387/257/242 395/630/390 394/617/388
f 373/631/391 385/632/392 375/257/242 374/629/387
f 398/626/384 386/631/393 388/629/394 390/627/385
f 396/618/389 397/625/383 391/628/386 392/259/244
f 382/625/395 384/626/396 383/627/385 381/633/397
f 376/260/349 381/633/397 383/627/385 374/629/387
f 389/260/245 390/627/385 388/629/394 387/257/242
f 378/259/244 381/633/397 376/260/349 377/258/379
f 384/626/396 373/631/391 374/629/387 383/627/385
f 990/312/289 991/311/288 993/337/309 992/336/309
f 544/634/398 545/635/399 543/636/400 542/637/400
f 1007/638/401 1008/283/267 1010/286/267 1009/639/401
f 380/618/378 382/625/395 381/633/397 378/259/244
f 385/632/392 379/617/377 377/258/379 375/257/242
f 945/353/316 946/352/316 948/640/271 947/641/270
f 359/590/357 336/322/349 335/324/348 334/582/347
f 582/642/361 584/643/382 583/644/1 581/645/360
f 693/622/372 695/646/372 694/647/361 692/623/361
f 598/648/361 600/649/361 599/650/360 597/651/360
f 399/652/189 400/653/189 401/654/402
f 400/653/189 402/655/189 401/654/402
f 402/655/189 403/656/189 401/654/402
f 403/656/189 404/657/189 401/654/402
f 404/657/189 405/658/189 401/654/402
f 405/658/189 406/204/189 401/654/402
f 401/654/402 406/204/189 407/203/189
f 425/202/82 426/201/82 423/204/82 424/659/82
f 1023/202/82 1025/238/82 1026/237/82 1024/201/82
f 407/203/189 412/660/189 401/654/402
f 412/660/189 413/661/189 401/654/402
f 413/661/189 414/662/189 401/654/402
f 414/662/189 415/663/189 401/654/402
f 401/654/402 415/663/189 399/652/189
f 416/652/82 418/654/403 417/653/82
f 417/653/82 418/654/403 419/655/82
f 419/655/82 418/654/403 420/656/82
f 420/656/82 418/654/403 421/657/82
f 421/657/82 418/654/403 422/658/82
f 422/658/82 418/654/403 423/204/82
f 418/654/403 424/659/82 423/204/82
f 1099/96/103 1101/664/103 1102/665/103 1100/97/103
f 416/652/82 427/663/82 418/654/403
f 427/663/82 428/662/82 418/654/403
f 428/662/82 429/661/82 418/654/403
f 429/661/82 430/660/82 418/654/403
f 418/654/403 430/660/82 424/659/82
f 431/666/293 433/667/404 432/100/293
f 432/100/293 433/667/404 434/98/293
f 434/98/293 433/667/404 435/102/292
f 433/667/404 436/668/405 435/102/292
f 435/102/292 436/668/405 437/669/293
f 438/670/406 440/671/407 439/106/408
f 439/106/408 440/671/407 441/104/408
f 440/671/407 442/672/409 441/104/408
f 441/104/408 442/672/409 443/108/406
f 442/672/409 444/673/408 443/108/406
f 445/674/410 446/675/95 447/99/95
f 446/675/95 448/100/411 447/99/95
f 496/676/412 497/677/413 495/678/406 494/679/408
f 451/680/414 452/317/292 453/320/293
f 491/681/406 493/682/408 492/683/408 489/684/415
f 454/319/292 455/685/293 453/320/293
f 455/685/293 456/686/293 453/320/293
f 453/320/293 456/686/293 457/687/416
f 456/686/293 458/688/417 457/687/416
f 457/687/416 458/688/417 459/689/418
f 458/688/417 460/690/419 459/689/418
f 450/691/292 461/692/293 452/317/292
f 461/692/293 462/318/292 452/317/292
f 457/687/416 463/689/419 453/320/293
f 453/320/293 463/689/419 464/680/419
f 465/674/420 467/690/411 466/675/421
f 467/690/411 458/688/417 466/675/421
f 466/675/421 458/688/417 468/693/422
f 458/688/417 456/686/293 468/693/422
f 456/686/293 469/694/293 468/693/422
f 469/694/293 470/695/423 468/693/422
f 470/695/423 471/696/411 468/693/422
f 468/693/422 471/696/411 466/675/421
f 827/553/307 828/552/307 830/577/308 829/576/335
f 472/697/424 474/103/95 473/691/425
f 473/691/425 474/103/95 475/102/293
f 340/316/353 341/588/355 339/584/351 337/313/349
f 476/108/426 478/698/408 477/109/294
f 477/109/294 478/698/408 479/699/427
f 479/699/427 478/698/408 480/700/408
f 478/698/408 481/701/408 480/700/408
f 480/700/408 481/701/408 482/702/428
f 1011/284/268 1013/703/429 1014/704/430 1012/285/268
f 481/701/408 478/698/408 483/705/406
f 478/698/408 484/706/406 483/705/406
f 939/707/307 940/708/307 942/709/308 941/710/308
f 484/706/406 485/711/408 483/705/406
f 485/711/408 486/712/408 483/705/406
f 486/712/408 487/713/431 483/705/406
f 483/705/406 487/713/431 481/701/408
f 487/713/431 488/714/432 481/701/408
f 481/701/408 488/714/432 482/702/428
f 482/702/428 488/714/432 489/684/415
f 488/714/432 487/713/431 489/684/415
f 487/713/431 490/715/406 489/684/415
f 490/715/406 491/681/406 489/684/415
f 493/682/408 494/679/408 492/683/408
f 492/683/408 494/679/408 495/678/406
f 568/716/372 570/717/360 569/718/361 567/719/362
f 497/677/413 496/676/412 498/105/433
f 496/676/412 499/106/434 498/105/433
f 984/720/435 985/721/436 987/586/352 986/585/352
f 492/683/408 495/678/406 489/684/415
f 495/678/406 482/702/428 489/684/415
f 500/106/437 501/676/438 502/670/439
f 502/670/439 501/676/438 503/722/440
f 501/676/438 504/723/441 503/722/440
f 505/102/293 506/669/411 507/691/411
f 506/669/411 508/724/411 507/691/411
f 507/691/411 508/724/411 509/725/411
f 931/357/318 932/356/317 934/726/313 933/727/314
f 510/100/293 512/675/293 511/666/292
f 511/666/292 512/675/293 513/728/293
f 512/675/293 514/729/293 513/728/293
f 515/108/439 516/673/439 517/698/442
f 516/673/439 518/730/443 517/698/442
f 517/698/442 518/730/443 519/731/444
f 937/732/205 938/733/322 940/708/307 939/707/307
f 1019/734/445 1021/735/446 1022/736/447 1020/737/448
f 765/738/449 767/739/449 766/740/449 764/741/449
f 527/742/82 528/743/450 526/744/450 525/745/82
f 550/746/277 551/747/241 549/296/241 548/295/277
f 791/748/82 793/749/82 792/750/450 790/751/450
f 554/752/451 555/753/452 553/754/241 552/755/241
f 554/752/451 557/756/453 556/757/454 555/753/452
f 947/641/270 948/640/271 950/758/272 949/759/272
f 855/369/307 856/368/307 858/387/308 857/386/308
f 540/760/344 541/761/455 539/503/344 520/502/344
f 522/504/345 524/762/456 523/763/457 521/505/346
f 525/745/82 526/744/450 523/763/457 524/762/456
f 769/764/458 771/765/459 770/766/458 768/767/458
f 529/768/82 530/769/82 528/743/450 527/742/82
f 560/770/326 561/771/326 559/772/325 558/773/325
f 552/755/241 553/754/241 551/747/241 550/746/277
f 537/774/325 538/775/325 536/455/325 535/454/325
f 592/776/382 594/777/460 593/778/372 591/779/362
f 594/777/460 596/780/382 595/781/382 593/778/372
f 628/782/370 630/606/369 629/609/370 627/783/370
f 588/784/361 590/785/372 589/786/372 587/787/360
f 580/788/372 582/642/361 581/645/360 579/789/360
f 624/790/365 626/791/363 625/792/365 623/793/107
f 596/780/382 598/648/361 597/651/360 595/781/382
f 620/794/461 622/795/369 621/796/369 619/797/370
f 590/785/372 592/776/382 591/779/362 589/786/372
f 601/798/372 562/799/362 564/800/362 563/801/361
f 606/802/370 608/599/107 607/602/365 605/803/107
f 566/804/361 568/716/372 567/719/362 565/805/362
f 365/605/368 366/173/163 364/172/162 363/806/462
f 685/807/1 687/808/361 686/809/1 684/810/382
f 572/811/362 574/812/372 573/813/362 571/814/372
f 638/815/364 640/816/365 639/817/363 637/818/369
f 578/819/1 580/788/372 579/789/360 577/820/1
f 570/717/360 572/811/362 571/814/372 569/718/361
f 632/607/369 634/821/369 633/822/369 631/608/364
f 634/821/369 636/823/364 635/824/363 633/822/369
f 626/791/363 628/782/370 627/783/370 625/792/365
f 564/800/362 566/804/361 565/805/362 563/801/361
f 586/825/382 588/784/361 587/787/360 585/826/463
f 600/649/361 562/799/362 601/798/372 599/650/360
f 604/827/369 606/802/370 605/803/107 603/828/365
f 636/823/364 638/815/364 637/818/369 635/824/363
f 450/691/292 452/317/292 451/680/414 449/697/424
f 640/816/365 602/829/365 641/830/364 639/817/363
f 612/831/369 614/832/364 613/833/370 611/834/365
f 614/832/364 616/835/369 615/836/365 613/833/370
f 369/837/464 370/174/164 368/604/367 367/603/366
f 610/600/363 612/831/369 611/834/365 609/601/364
f 622/795/369 624/790/365 623/793/107 621/796/369
f 344/175/165 339/584/351 341/588/355 343/589/356
f 618/838/365 620/794/461 619/797/370 617/839/365
f 576/840/372 578/819/1 577/820/1 575/841/372
f 657/842/465 658/843/466 656/844/467 655/845/467
f 671/846/468 673/847/469 672/848/469 670/849/470
f 675/850/471 677/851/472 676/852/473 674/853/471
f 681/854/474 683/855/475 682/856/475 680/857/474
f 1055/207/189 1057/858/476 1058/859/476 1056/208/193
f 651/860/477 652/861/478 650/862/479 649/863/479
f 645/864/480 646/865/480 643/866/481 644/867/481
f 659/93/90 660/92/89 658/843/466 657/842/465
f 673/847/469 675/850/471 674/853/471 672/848/469
f 647/868/482 648/869/483 646/865/480 645/864/480
f 669/870/484 671/846/468 670/849/470 642/871/484
f 655/845/467 656/844/467 654/872/485 653/873/486
f 663/874/487 666/875/488 665/876/488 664/877/489
f 678/878/490 679/879/490 676/852/473 677/851/472
f 643/866/481 669/870/484 642/871/484 644/867/481
f 663/874/487 664/877/489 662/91/88 661/90/87
f 678/878/490 681/854/474 680/857/474 679/879/490
f 649/863/479 650/862/479 648/869/483 647/868/482
f 666/875/488 668/880/491 667/881/491 665/876/488
f 653/873/486 654/872/485 652/861/478 651/860/477
f 745/611/382 747/882/361 746/883/372 744/612/372
f 709/884/372 711/885/382 710/886/372 708/887/361
f 705/885/382 707/888/382 706/889/361 704/886/382
f 701/888/382 703/621/372 702/624/382 700/889/382
f 737/890/1 739/891/492 738/892/493 736/893/494
f 741/882/1 743/890/492 742/893/493 740/883/494
f 757/894/361 759/595/361 758/598/361 756/895/460
f 717/896/360 719/897/361 718/898/361 716/899/362
f 761/900/382 763/894/382 762/895/382 760/901/382
f 1091/157/495 1093/156/496 1094/146/495 1092/145/496
f 733/891/492 735/902/1 734/903/372 732/892/497
f 729/902/1 731/807/494 730/810/372 728/903/492
f 1058/859/476 1057/858/476 1060/205/190 1059/206/192
f 689/646/382 691/900/372 690/901/372 688/647/498
f 1063/154/499 1065/155/499 1066/156/500 1064/157/501
f 725/808/360 727/904/382 726/905/372 724/809/361
f 1035/216/221 1037/215/502 1038/214/502 1036/213/222
f 721/904/382 723/896/361 722/899/372 720/905/362
f 1067/121/503 1069/122/504 1070/123/505 1068/124/505
f 363/806/462 364/172/162 343/589/356 362/614/374
f 713/897/506 715/884/382 714/887/382 712/898/382
f 809/906/507 811/907/508 810/908/508 808/909/507
f 1087/145/509 1089/146/510 1090/122/509 1088/121/510
f 785/910/511 787/911/511 786/912/511 784/913/512
f 949/759/272 950/758/272 952/914/338 951/915/338
f 915/483/315 916/482/315 918/477/332 917/476/332
f 883/473/341 884/472/341 886/449/335 885/448/335
f 801/916/325 803/374/325 802/377/326 800/917/325
f 531/918/513 532/919/514 530/769/82 529/768/82
f 819/920/241 821/766/189 820/765/189 818/921/277
f 817/922/241 819/920/241 818/921/277 816/923/277
f 1050/198/187 1051/664/515 1052/665/515 1049/199/187
f 813/909/241 815/924/241 814/925/241 812/906/241
f 410/237/189 411/238/189 409/202/189 408/201/189
f 957/926/274 958/927/274 960/393/275 959/392/331
f 891/409/271 892/408/271 894/460/273 893/459/273
f 935/928/311 936/929/311 938/733/322 937/732/205
f 955/302/282 956/301/282 958/927/274 957/926/274
f 531/918/513 534/457/337 533/456/336 532/919/514
f 544/634/398 547/298/279 546/297/278 545/635/399
f 793/749/82 795/930/82 794/931/82 792/750/450
f 789/913/516 791/748/82 790/751/450 788/910/516
f 815/924/241 817/922/241 816/923/277 814/925/241
f 799/741/517 801/916/325 800/917/325 798/738/517
f 907/932/311 908/933/311 910/373/324 909/372/324
f 899/493/282 900/492/282 902/379/328 901/378/327
f 542/637/400 543/636/400 541/761/455 540/760/344
f 805/375/325 807/908/517 806/907/517 804/376/325
f 1003/469/340 1004/468/340 1006/934/401 1005/935/518
f 795/930/82 797/740/82 796/739/82 794/931/82
f 353/616/376 354/610/371 352/179/168 351/619/380
f 584/643/382 586/825/382 585/826/463 583/644/1
f 616/835/369 618/838/365 617/839/365 615/836/365
f 574/812/372 576/840/372 575/841/372 573/813/362
f 641/830/364 602/829/365 604/827/369 603/828/365
f 859/389/315 860/388/315 862/399/332 861/398/332
f 779/936/344 781/937/344 780/938/344 778/939/344
f 773/767/344 775/940/344 774/941/344 772/764/344
f 851/942/311 852/943/311 854/367/322 853/366/321
f 781/937/344 783/912/344 782/911/344 780/938/344
f 775/940/344 777/944/344 776/945/344 774/941/344
f 941/710/308 942/709/308 944/351/315 943/350/315
f 837/290/273 838/289/272 840/946/338 839/947/338
f 997/499/343 998/498/343 1000/306/283 999/305/283
f 558/773/325 559/772/325 556/757/454 557/756/453
f 983/496/342 985/721/436 984/720/435 996/497/342
f 903/381/317 904/380/329 906/948/313 905/949/313
f 979/315/355 980/314/355 982/323/355 981/321/351
f 1017/280/265 1019/734/445 1020/737/448 1018/281/265
f 395/630/390 387/257/242 388/629/394 386/631/393
f 371/593/358 344/175/165 370/174/164 369/837/464
f 967/324/519 968/323/520 970/314/519 969/313/519
f 77/7/7 61/50/50 63/51/51 74/12/12
