# Blender 4.4.0
# www.blender.org
mtllib Compass_needle.mtl
o CompassAguja
v 1.073524 0.114550 -0.780621
v 0.000046 0.114550 -0.000051
v 0.779705 0.114550 -1.074142
v 0.409632 0.114550 -1.262555
v -0.000624 0.114550 -1.327289
v -0.410689 0.114550 -1.262151
v -0.780666 0.114550 -1.073469
v -1.074198 0.114550 -0.779679
v -1.262583 0.114550 -0.409581
v -1.327355 0.114550 0.000622
v -1.262200 0.114550 0.410690
v -1.073528 0.114550 0.780653
v -0.779709 0.114550 1.074175
v -0.409636 0.114550 1.262588
v 0.000620 0.114550 1.327322
v 0.410685 0.114550 1.262184
v 0.780661 0.114550 1.073502
v 1.074193 0.114550 0.779711
v 1.262578 0.114550 0.409614
v 1.327351 0.114550 -0.000589
v 1.262196 0.114550 -0.410658
v 0.779705 0.114550 -1.074142
v 1.073524 0.114550 -0.780621
v -0.779709 0.114550 1.074175
v -1.073528 0.114550 0.780653
v -0.409636 0.114550 1.262588
v -0.779709 0.114550 1.074175
v 0.000620 0.114550 1.327322
v -0.409636 0.114550 1.262588
v 0.410685 0.114550 1.262184
v 0.000620 0.114550 1.327322
v 0.780661 0.114550 1.073502
v 0.410685 0.114550 1.262184
v 1.074193 0.114550 0.779711
v 0.780661 0.114550 1.073502
v 1.262578 0.114550 0.409614
v 1.074193 0.114550 0.779711
v 1.327351 0.114550 -0.000589
v 1.262578 0.114550 0.409614
v 1.262196 0.114550 -0.410658
v 1.327351 0.114550 -0.000589
v 1.073524 0.114550 -0.780621
v 1.262196 0.114550 -0.410658
v 0.409632 0.114550 -1.262555
v 0.779705 0.114550 -1.074142
v -0.000624 0.114550 -1.327289
v 0.409632 0.114550 -1.262555
v -0.410689 0.114550 -1.262151
v -0.000624 0.114550 -1.327289
v -0.780666 0.114550 -1.073469
v -0.410689 0.114550 -1.262151
v -1.074198 0.114550 -0.779679
v -0.780666 0.114550 -1.073469
v -1.262583 0.114550 -0.409581
v -1.074198 0.114550 -0.779679
v -1.327355 0.114550 0.000622
v -1.262583 0.114550 -0.409581
v -1.262200 0.114550 0.410690
v -1.327355 0.114550 0.000622
v -1.073528 0.114550 0.780653
v -1.262200 0.114550 0.410690
vn -0.0000 1.0000 0.0022
vn -0.0000 1.0000 -0.0020
vn -0.0000 1.0000 -0.0022
vt 0.242128 0.211678
vt 0.216825 0.236997
vt 0.149392 0.144239
vt 0.184839 0.253317
vt 0.149392 0.258957
vt 0.113944 0.253317
vt 0.081958 0.236997
vt 0.056536 0.211678
vt 0.040304 0.179638
vt 0.034694 0.144239
vt 0.040304 0.108719
vt 0.056655 0.076800
vt 0.081958 0.051360
vt 0.113944 0.035161
vt 0.149392 0.029521
vt 0.184839 0.035161
vt 0.216825 0.051480
vt 0.242128 0.076800
vt 0.258479 0.108839
vt 0.264089 0.144239
vt 0.258479 0.179638
s 1
usemtl Material
f 1/1/1 3/2/1 2/3/2
f 3/2/1 4/4/1 2/3/2
f 4/4/1 5/5/1 2/3/2
f 5/5/1 6/6/1 2/3/2
f 6/6/1 7/7/1 2/3/2
f 7/7/1 8/8/1 2/3/2
f 8/8/1 9/9/3 2/3/2
f 9/9/3 10/10/3 2/3/2
f 10/10/3 11/11/3 2/3/2
f 11/11/3 12/12/3 2/3/2
f 12/12/3 13/13/1 2/3/2
f 13/13/1 14/14/1 2/3/2
f 14/14/1 15/15/1 2/3/2
f 15/15/1 16/16/3 2/3/2
f 16/16/3 17/17/1 2/3/2
f 17/17/1 18/18/1 2/3/2
f 18/18/1 19/19/3 2/3/2
f 19/19/3 20/20/3 2/3/2
f 20/20/3 21/21/1 2/3/2
f 2/3/2 21/21/1 1/1/1
l 22 23
l 26 27
l 30 31
l 34 35
l 38 39
l 42 43
l 46 47
l 50 51
l 54 55
l 58 59
l 24 25
l 28 29
l 32 33
l 36 37
l 40 41
l 44 45
l 48 49
l 52 53
l 56 57
l 60 61
