# Blender 4.4.0
# www.blender.org
mtllib Spirit Tuner_wheel_01.mtl
o Spirit_Tuner_wheel_01
v -0.271097 1.178035 0.461432
v -0.271097 1.178035 0.518133
v -0.240092 1.174982 0.461432
v -0.240092 1.174982 0.518133
v -0.210279 1.165938 0.461432
v -0.210279 1.165938 0.518133
v -0.182804 1.151252 0.461432
v -0.182804 1.151252 0.518133
v -0.158721 1.131488 0.461432
v -0.158721 1.131488 0.518133
v -0.138957 1.107405 0.461432
v -0.138957 1.107405 0.518133
v -0.124271 1.079930 0.461432
v -0.124271 1.079930 0.518133
v -0.115227 1.050117 0.461432
v -0.115227 1.050117 0.518133
v -0.112174 1.019112 0.461432
v -0.112174 1.019112 0.518133
v -0.115227 0.988108 0.461432
v -0.115227 0.988108 0.518133
v -0.124271 0.958295 0.461432
v -0.124271 0.958295 0.518133
v -0.138957 0.930820 0.461432
v -0.138957 0.930819 0.518133
v -0.158721 0.906737 0.461432
v -0.158721 0.906737 0.518133
v -0.182804 0.886973 0.461432
v -0.182804 0.886973 0.518133
v -0.210279 0.872287 0.461432
v -0.210279 0.872287 0.518133
v -0.240092 0.863243 0.461432
v -0.240092 0.863243 0.518133
v -0.271097 0.860189 0.461432
v -0.271097 0.860189 0.518133
v -0.302101 0.863243 0.461432
v -0.302101 0.863243 0.518133
v -0.331914 0.872287 0.461432
v -0.331914 0.872287 0.518133
v -0.359390 0.886973 0.461432
v -0.359390 0.886973 0.518133
v -0.383472 0.906737 0.461432
v -0.383472 0.906737 0.518133
v -0.403236 0.930820 0.461432
v -0.403236 0.930819 0.518133
v -0.417922 0.958295 0.461432
v -0.417922 0.958295 0.518133
v -0.426966 0.988108 0.461432
v -0.426966 0.988108 0.518133
v -0.430020 1.019112 0.461432
v -0.430020 1.019112 0.518133
v -0.426966 1.050117 0.461432
v -0.426966 1.050117 0.518133
v -0.417922 1.079930 0.461432
v -0.417922 1.079930 0.518133
v -0.403236 1.107405 0.461432
v -0.403236 1.107405 0.518133
v -0.383472 1.131488 0.461432
v -0.383472 1.131488 0.518133
v -0.359390 1.151252 0.461432
v -0.359390 1.151252 0.518133
v -0.331914 1.165938 0.461432
v -0.331914 1.165938 0.518133
v -0.302101 1.174982 0.461432
v -0.302101 1.174982 0.518133
v -0.271097 1.019112 0.518133
vn 0.0980 0.9952 -0.0000
vn 0.2903 0.9569 -0.0000
vn 0.4714 0.8819 -0.0000
vn 0.6344 0.7730 -0.0000
vn 0.7730 0.6344 -0.0000
vn 0.8819 0.4714 -0.0000
vn 0.9569 0.2903 -0.0000
vn 0.9952 0.0980 -0.0000
vn 0.9952 -0.0980 -0.0000
vn 0.9569 -0.2903 -0.0000
vn 0.8819 -0.4714 -0.0000
vn 0.7730 -0.6344 -0.0000
vn 0.6344 -0.7730 -0.0000
vn 0.4714 -0.8819 -0.0000
vn 0.2903 -0.9569 -0.0000
vn 0.0980 -0.9952 -0.0000
vn -0.0980 -0.9952 -0.0000
vn -0.2903 -0.9569 -0.0000
vn -0.4714 -0.8819 -0.0000
vn -0.6344 -0.7730 -0.0000
vn -0.7730 -0.6344 -0.0000
vn -0.8819 -0.4714 -0.0000
vn -0.9569 -0.2903 -0.0000
vn -0.9952 -0.0980 -0.0000
vn -0.9952 0.0980 -0.0000
vn -0.9569 0.2903 -0.0000
vn -0.8819 0.4714 -0.0000
vn -0.7730 0.6344 -0.0000
vn -0.6344 0.7730 -0.0000
vn -0.4714 0.8819 -0.0000
vn -0.0000 -0.0000 1.0000
vn -0.2903 0.9569 -0.0000
vn -0.0980 0.9952 -0.0000
vt 0.959017 0.490131
vt 0.959017 0.530747
vt 0.930329 0.530747
vt 0.930329 0.490131
vt 0.901640 0.530747
vt 0.901640 0.490131
vt 0.872952 0.530747
vt 0.872952 0.490131
vt 0.844263 0.530747
vt 0.844263 0.490131
vt 0.815574 0.530747
vt 0.815574 0.490131
vt 0.786886 0.530747
vt 0.786886 0.490131
vt 0.758197 0.530747
vt 0.758197 0.490131
vt 0.729509 0.530747
vt 0.729509 0.490131
vt 0.700820 0.530747
vt 0.700820 0.490131
vt 0.672132 0.530747
vt 0.672132 0.490131
vt 0.643443 0.530747
vt 0.643443 0.490131
vt 0.614754 0.530747
vt 0.614754 0.490131
vt 0.586066 0.530747
vt 0.586066 0.490131
vt 0.557377 0.530747
vt 0.557377 0.490131
vt 0.528689 0.530747
vt 0.528689 0.490131
vt 0.500000 0.530747
vt 0.500000 0.490131
vt 0.471311 0.530747
vt 0.471311 0.490131
vt 0.442623 0.530747
vt 0.442623 0.490131
vt 0.413934 0.530747
vt 0.413934 0.490131
vt 0.385246 0.530747
vt 0.385246 0.490131
vt 0.356557 0.530747
vt 0.356557 0.490131
vt 0.327868 0.530747
vt 0.327868 0.490131
vt 0.299180 0.530747
vt 0.299180 0.490131
vt 0.270491 0.530747
vt 0.270491 0.490131
vt 0.241803 0.530747
vt 0.241803 0.490131
vt 0.213114 0.530747
vt 0.213114 0.490131
vt 0.184426 0.530747
vt 0.184426 0.490131
vt 0.155737 0.530747
vt 0.155737 0.490131
vt 0.127048 0.530747
vt 0.127048 0.490131
vt 0.098360 0.530747
vt 0.098360 0.490131
vt 0.313475 0.476717
vt 0.270491 0.260622
vt 0.354807 0.464179
vt 0.069671 0.530747
vt 0.069671 0.490131
vt 0.040983 0.530747
vt 0.040983 0.490131
vt 0.270491 0.040294
vt 0.227507 0.044527
vt 0.050163 0.260622
vt 0.054397 0.303606
vt 0.490820 0.260622
vt 0.486586 0.217638
vt 0.186175 0.057065
vt 0.270491 0.480951
vt 0.148083 0.077426
vt 0.392899 0.443819
vt 0.426287 0.416418
vt 0.114696 0.104827
vt 0.087295 0.138214
vt 0.453688 0.383030
vt 0.066935 0.176306
vt 0.474048 0.344938
vt 0.054397 0.217638
vt 0.486586 0.303606
vt 0.474048 0.176306
vt 0.066935 0.344938
vt 0.087295 0.383030
vt 0.453688 0.138214
vt 0.426287 0.104827
vt 0.114696 0.416418
vt 0.148083 0.443819
vt 0.392899 0.077426
vt 0.354807 0.057065
vt 0.186175 0.464179
vt 0.313475 0.044527
vt 0.227507 0.476717
s 0
usemtl Material.011
f 1/1/1 2/2/1 4/3/1 3/4/1
f 3/4/2 4/3/2 6/5/2 5/6/2
f 5/6/3 6/5/3 8/7/3 7/8/3
f 7/8/4 8/7/4 10/9/4 9/10/4
f 9/10/5 10/9/5 12/11/5 11/12/5
f 11/12/6 12/11/6 14/13/6 13/14/6
f 13/14/7 14/13/7 16/15/7 15/16/7
f 15/16/8 16/15/8 18/17/8 17/18/8
f 17/18/9 18/17/9 20/19/9 19/20/9
f 19/20/10 20/19/10 22/21/10 21/22/10
f 21/22/11 22/21/11 24/23/11 23/24/11
f 23/24/12 24/23/12 26/25/12 25/26/12
f 25/26/13 26/25/13 28/27/13 27/28/13
f 27/28/14 28/27/14 30/29/14 29/30/14
f 29/30/15 30/29/15 32/31/15 31/32/15
f 31/32/16 32/31/16 34/33/16 33/34/16
f 33/34/17 34/33/17 36/35/17 35/36/17
f 35/36/18 36/35/18 38/37/18 37/38/18
f 37/38/19 38/37/19 40/39/19 39/40/19
f 39/40/20 40/39/20 42/41/20 41/42/20
f 41/42/21 42/41/21 44/43/21 43/44/21
f 43/44/22 44/43/22 46/45/22 45/46/22
f 45/46/23 46/45/23 48/47/23 47/48/23
f 47/48/24 48/47/24 50/49/24 49/50/24
f 49/50/25 50/49/25 52/51/25 51/52/25
f 51/52/26 52/51/26 54/53/26 53/54/26
f 53/54/27 54/53/27 56/55/27 55/56/27
f 55/56/28 56/55/28 58/57/28 57/58/28
f 57/58/29 58/57/29 60/59/29 59/60/29
f 59/60/30 60/59/30 62/61/30 61/62/30
f 4/63/31 65/64/31 6/65/31
f 61/62/32 62/61/32 64/66/32 63/67/32
f 63/67/33 64/66/33 2/68/33 1/69/33
f 34/70/31 65/64/31 36/71/31
f 50/72/31 65/64/31 52/73/31
f 18/74/31 65/64/31 20/75/31
f 36/71/31 65/64/31 38/76/31
f 65/64/31 4/63/31 2/77/31
f 38/76/31 65/64/31 40/78/31
f 6/65/31 65/64/31 8/79/31
f 8/79/31 65/64/31 10/80/31
f 40/78/31 65/64/31 42/81/31
f 42/81/31 65/64/31 44/82/31
f 10/80/31 65/64/31 12/83/31
f 44/82/31 65/64/31 46/84/31
f 12/83/31 65/64/31 14/85/31
f 46/84/31 65/64/31 48/86/31
f 14/85/31 65/64/31 16/87/31
f 48/86/31 65/64/31 50/72/31
f 16/87/31 65/64/31 18/74/31
f 20/75/31 65/64/31 22/88/31
f 52/73/31 65/64/31 54/89/31
f 54/89/31 65/64/31 56/90/31
f 22/88/31 65/64/31 24/91/31
f 24/91/31 65/64/31 26/92/31
f 56/90/31 65/64/31 58/93/31
f 58/93/31 65/64/31 60/94/31
f 26/92/31 65/64/31 28/95/31
f 28/95/31 65/64/31 30/96/31
f 60/94/31 65/64/31 62/97/31
f 30/96/31 65/64/31 32/98/31
f 62/97/31 65/64/31 64/99/31
f 32/98/31 65/64/31 34/70/31
f 64/99/31 65/64/31 2/77/31
