# Blender 4.4.0
# www.blender.org
mtllib Thermometer_screen.mtl
o Screen
v -0.084549 0.795224 0.094087
v -0.077771 0.825553 0.065935
v -0.099074 0.731676 0.094087
v -0.099074 0.731676 0.000741
v -0.077771 0.825553 0.000741
v -0.077771 0.825553 -0.065935
v -0.099074 0.731676 -0.094087
v -0.084549 0.795224 -0.094087
v -0.111985 0.673906 -0.094087
v -0.118763 0.642133 -0.065935
v -0.118763 0.642133 0.000741
v -0.118763 0.642133 0.065935
v -0.111985 0.673906 0.094087
vn -0.9758 0.2189 -0.0000
vn -0.9757 0.2189 -0.0000
vn -0.9758 0.2185 -0.0006
vn -0.9767 0.2146 -0.0037
vn -0.9767 0.2146 -0.0038
vn -0.9758 0.2185 0.0006
vn -0.9758 0.2186 -0.0000
vn -0.9767 0.2147 0.0037
vn -0.9767 0.2146 0.0038
vt 0.463170 0.405511
vt 0.420007 0.453068
vt 0.463170 0.306683
vt 0.420007 0.166952
vt 0.463170 0.214930
vt 0.219131 0.453068
vt 0.175968 0.306683
vt 0.319586 0.306088
vt 0.319586 0.452893
vt 0.219131 0.166952
vt 0.319551 0.166216
vt 0.175968 0.405511
vt 0.175968 0.214930
s 1
usemtl Material.008
f 1/1/1 2/2/2 3/3/3
f 12/4/4 13/5/5 3/3/3
f 6/6/1 7/7/6 4/8/7 5/9/2
f 7/7/6 10/10/8 11/11/5 4/8/7
f 11/11/5 12/4/4 3/3/3 4/8/7
f 6/6/1 8/12/1 7/7/6
f 9/13/9 10/10/8 7/7/6
f 2/2/2 5/9/2 4/8/7 3/3/3
