# Blender 4.4.0
# www.blender.org
mtllib Soporte.mtl
o Soporte
v -0.620781 -0.101544 0.000000
v -0.629143 -0.000000 0.000000
v -0.379219 -0.101544 0.000000
v -0.370857 -0.000000 0.000000
v -0.389961 -0.127412 0.000000
v -0.610039 -0.127412 0.000000
v -0.389961 -0.150692 0.000000
v -0.610039 -0.150692 0.000000
v -0.397329 -0.202428 0.000000
v -0.602671 -0.202428 0.000000
v -0.401350 -0.228295 0.000000
v -0.598650 -0.228295 0.000000
v -0.406694 -0.254163 0.000000
v -0.593306 -0.254163 0.000000
v -0.414212 -0.281109 0.000000
v -0.585788 -0.281109 0.000000
v -0.426512 -0.311647 0.000000
v -0.573488 -0.311647 0.000000
v -0.620781 -0.101544 -1.218180
v -0.629143 -0.000000 -1.218180
v -0.379219 -0.101544 -1.218180
v -0.370857 -0.000000 -1.218180
v -0.610039 -0.127412 -1.218180
v -0.389961 -0.127412 -1.218180
v -0.610039 -0.150692 -1.218180
v -0.389961 -0.150692 -1.218180
v -0.602671 -0.202428 -1.218180
v -0.397329 -0.202428 -1.218180
v -0.598650 -0.228295 -1.218180
v -0.401350 -0.228295 -1.218180
v -0.593306 -0.254163 -1.218180
v -0.406694 -0.254163 -1.218180
v -0.585788 -0.281109 -1.218180
v -0.414212 -0.281109 -1.218180
v -0.573488 -0.311647 -1.218180
v -0.426512 -0.311647 -1.218180
v -0.435623 -0.340101 0.000000
v -0.564377 -0.340101 0.000000
v -0.564377 -0.340101 -1.171619
v -0.435623 -0.340101 -1.171619
v -0.446788 -0.368556 0.000000
v -0.553212 -0.368556 0.000000
v -0.553212 -0.368556 -1.109536
v -0.446788 -0.368556 -1.109536
v -0.456884 -0.404770 0.000000
v -0.543116 -0.404770 0.000000
v -0.543116 -0.404770 -0.995718
v -0.456884 -0.404770 -0.995718
v -0.481301 -0.635424 0.000000
v -0.518699 -0.635424 0.000000
v -0.518699 -0.635424 -0.386391
v -0.481301 -0.635424 -0.386391
v -0.462137 -0.430398 0.000000
v -0.466106 -0.456027 0.000000
v -0.469954 -0.481655 0.000000
v -0.476269 -0.507283 0.000000
v -0.479371 -0.532911 0.000000
v -0.481301 -0.558539 0.000000
v -0.481301 -0.584168 0.000000
v -0.481301 -0.609796 0.000000
v -0.481301 -0.609796 -0.360883
v -0.481301 -0.584168 -0.351542
v -0.481301 -0.558539 -0.345794
v -0.479371 -0.532911 -0.350823
v -0.476269 -0.507283 -0.382799
v -0.469954 -0.481655 -0.452498
v -0.466106 -0.456027 -0.606626
v -0.462137 -0.430398 -0.829016
v -0.537863 -0.430398 -0.829016
v -0.533894 -0.456027 -0.606626
v -0.530046 -0.481655 -0.452498
v -0.523731 -0.507283 -0.382799
v -0.520629 -0.532911 -0.350823
v -0.518699 -0.558539 -0.345794
v -0.518699 -0.584168 -0.351542
v -0.518699 -0.609796 -0.360883
v -0.518699 -0.609796 0.000000
v -0.518699 -0.584168 0.000000
v -0.518699 -0.558539 0.000000
v -0.520629 -0.532911 0.000000
v -0.523731 -0.507283 0.000000
v -0.530046 -0.481655 0.000000
v -0.533894 -0.456027 0.000000
v -0.537863 -0.430398 0.000000
v -0.559620 -0.101544 -2.077253
v -0.620781 -0.101544 -2.007167
v -0.590200 -0.101544 -2.067864
v -0.612587 -0.101544 -2.042211
v -0.567998 -0.000000 -2.099603
v -0.629143 -0.000000 -2.029828
v -0.598570 -0.000000 -2.090255
v -0.620951 -0.000000 -2.064716
v -0.379219 -0.101544 -2.007167
v -0.440380 -0.101544 -2.077253
v -0.387413 -0.101544 -2.042211
v -0.409800 -0.101544 -2.067864
v -0.370857 -0.000000 -2.029828
v -0.432002 -0.000000 -2.099603
v -0.379049 -0.000000 -2.064716
v -0.401430 -0.000000 -2.090255
v -0.389961 -0.127412 -1.936660
v -0.451153 -0.127412 -2.007411
v -0.398159 -0.127412 -1.972036
v -0.420557 -0.127412 -1.997932
v -0.548847 -0.127412 -2.007411
v -0.610039 -0.127412 -1.936660
v -0.579443 -0.127412 -1.997932
v -0.601841 -0.127412 -1.972036
v -0.389961 -0.150692 -1.919462
v -0.451210 -0.150692 -1.989303
v -0.398167 -0.150692 -1.954383
v -0.420585 -0.150692 -1.979946
v -0.548790 -0.150692 -1.989303
v -0.610039 -0.150692 -1.919462
v -0.579415 -0.150692 -1.979946
v -0.601833 -0.150692 -1.954383
v -0.397329 -0.202428 -1.919828
v -0.458667 -0.202428 -1.989303
v -0.405547 -0.202428 -1.954566
v -0.427998 -0.202428 -1.979995
v -0.541333 -0.202428 -1.989303
v -0.602671 -0.202428 -1.919828
v -0.572002 -0.202428 -1.979995
v -0.594453 -0.202428 -1.954566
v -0.401350 -0.228295 -1.912095
v -0.462787 -0.228295 -1.981819
v -0.409581 -0.228295 -1.946957
v -0.432069 -0.228295 -1.972477
v -0.537213 -0.228295 -1.981819
v -0.598650 -0.228295 -1.912095
v -0.567931 -0.228295 -1.972477
v -0.590419 -0.228295 -1.946957
v -0.406694 -0.254163 -1.902348
v -0.468229 -0.254163 -1.972837
v -0.414938 -0.254163 -1.937592
v -0.437462 -0.254163 -1.963393
v -0.531771 -0.254163 -1.972837
v -0.593306 -0.254163 -1.902348
v -0.562538 -0.254163 -1.963393
v -0.585062 -0.254163 -1.937592
v -0.414212 -0.281109 -1.881654
v -0.475819 -0.281109 -1.953376
v -0.422465 -0.281109 -1.917515
v -0.445015 -0.281109 -1.943767
v -0.524181 -0.281109 -1.953376
v -0.585788 -0.281109 -1.881654
v -0.554985 -0.281109 -1.943767
v -0.577534 -0.281109 -1.917515
v -0.492984 -0.311647 -1.880690
v -0.480060 -0.291617 -1.939159
v -0.489481 -0.308963 -1.900006
v -0.484751 -0.301632 -1.921407
v -0.426512 -0.311647 -1.697744
v -0.418263 -0.291167 -1.867723
v -0.425407 -0.308903 -1.772352
v -0.422388 -0.301407 -1.834568
v -0.475407 -0.311647 -1.875135
v -0.449216 -0.291526 -1.929628
v -0.465281 -0.308951 -1.892386
v -0.455694 -0.301586 -1.912332
v -0.463660 -0.311647 -1.861278
v -0.426589 -0.291343 -1.903504
v -0.448118 -0.308927 -1.872217
v -0.434550 -0.301495 -1.887673
v -0.581737 -0.291167 -1.867724
v -0.573488 -0.311647 -1.697745
v -0.577612 -0.301407 -1.834569
v -0.574593 -0.308903 -1.772352
v -0.507016 -0.311647 -1.880690
v -0.519940 -0.291617 -1.939159
v -0.510519 -0.308963 -1.900006
v -0.515249 -0.301632 -1.921407
v -0.536340 -0.311647 -1.861278
v -0.573411 -0.291343 -1.903504
v -0.551881 -0.308927 -1.872217
v -0.565450 -0.301495 -1.887673
v -0.524593 -0.311647 -1.875135
v -0.550784 -0.291526 -1.929628
v -0.534719 -0.308951 -1.892386
v -0.544306 -0.301586 -1.912332
v -0.500000 -0.101544 0.000000
v -0.500000 -0.000000 0.000000
v -0.500000 -0.127412 0.000000
v -0.500000 -0.150692 0.000000
v -0.500000 -0.202428 0.000000
v -0.500000 -0.228295 0.000000
v -0.500000 -0.254163 0.000000
v -0.500000 -0.281109 0.000000
v -0.500000 -0.311647 0.000000
v -0.500000 -0.635424 -0.386391
v -0.500000 -0.340101 0.000000
v -0.500000 -0.368556 0.000000
v -0.500000 -0.404770 0.000000
v -0.500000 -0.311647 -1.218180
v -0.500000 -0.635424 0.000000
v -0.500000 -0.430398 0.000000
v -0.500000 -0.456027 0.000000
v -0.500000 -0.481655 0.000000
v -0.500000 -0.507283 0.000000
v -0.500000 -0.532911 0.000000
v -0.500000 -0.558539 0.000000
v -0.500000 -0.584168 0.000000
v -0.500000 -0.609796 0.000000
v -0.500000 -0.609796 -0.360883
v -0.500000 -0.584168 -0.351542
v -0.500000 -0.558539 -0.345794
v -0.500000 -0.532911 -0.350823
v -0.500000 -0.507283 -0.382799
v -0.500000 -0.481655 -0.452498
v -0.500000 -0.456027 -0.606626
v -0.500000 -0.430398 -0.829016
v -0.500000 -0.404770 -0.995718
v -0.500000 -0.368556 -1.109536
v -0.500000 -0.340101 -1.171619
v -0.500000 -0.101544 -2.077253
v -0.500000 -0.000000 -2.099603
v -0.500000 -0.127412 -2.007411
v -0.500000 -0.150692 -1.989303
v -0.500000 -0.202428 -1.989303
v -0.500000 -0.228295 -1.981819
v -0.500000 -0.254163 -1.972837
v -0.500000 -0.281109 -1.953376
v -0.500000 -0.311647 -1.880690
v -0.500000 -0.308963 -1.900006
v -0.500000 -0.301632 -1.921407
v -0.500000 -0.291617 -1.939159
v -0.500000 -0.311647 -1.875135
v -0.500000 -0.311647 -1.861278
v -0.500000 -0.311647 -1.697745
vn 0.9966 -0.0821 -0.0000
vn -0.0000 -0.9377 -0.3473
vn 0.0513 -0.9391 -0.3398
vn 0.0511 -0.9391 -0.3398
vn -0.0000 -0.0000 1.0000
vn -0.0000 0.7055 -0.7088
vn -0.9235 -0.3835 -0.0000
vn 0.9235 -0.3835 -0.0000
vn -0.9966 -0.0821 -0.0000
vn 1.0000 -0.0000 -0.0000
vn -0.0000 -0.0000 -1.0000
vn 0.1603 -0.0228 -0.9868
vn 0.1431 -0.1575 -0.9771
vn -0.0000 -0.1404 -0.9901
vn 0.9900 -0.1410 -0.0000
vn 0.1401 -0.3232 -0.9359
vn -0.0000 -0.3031 -0.9530
vn 0.1280 -0.4766 -0.8697
vn -0.0000 -0.4616 -0.8871
vn 0.9881 -0.1536 -0.0000
vn 0.1024 -0.7094 -0.6974
vn -0.0000 -0.7032 -0.7110
vn 0.9793 -0.2023 -0.0000
vn 0.9632 -0.2687 -0.0000
vn -0.0000 -1.0000 -0.0000
vn 0.7175 -0.6002 -0.3536
vn 0.6185 -0.7354 -0.2768
vn 0.3144 -0.8337 -0.4539
vn 0.3930 -0.7014 -0.5946
vn 0.8291 -0.5255 -0.1910
vn 0.6884 -0.7082 -0.1568
vn 0.9276 -0.3736 -0.0000
vn -0.3144 -0.8337 -0.4539
vn -0.3930 -0.7014 -0.5946
vn -0.1024 -0.7094 -0.6974
vn -0.0791 -0.8440 -0.5304
vn -0.9276 -0.3736 -0.0000
vn -0.9632 -0.2687 -0.0000
vn -0.9793 -0.2023 -0.0000
vn -0.9881 -0.1536 -0.0000
vn -0.9900 -0.1410 -0.0000
vn -1.0000 -0.0000 -0.0000
vn -0.0000 -0.6139 -0.7894
vn 0.1118 -0.6096 -0.7848
vn 0.1253 -0.6086 -0.7835
vn 0.9524 -0.3049 -0.0000
vn -0.9524 -0.3049 -0.0000
vn 0.9309 -0.3653 -0.0000
vn -0.9309 -0.3653 -0.0000
vn 0.9633 -0.2685 -0.0000
vn -0.9633 -0.2685 -0.0000
vn -0.9796 -0.2008 -0.0000
vn -0.9882 -0.1530 -0.0000
vn -0.9889 -0.1485 -0.0000
vn -0.9710 -0.2392 -0.0000
vn -0.9928 -0.1202 -0.0000
vn -0.9972 -0.0751 -0.0000
vn 0.9796 -0.2008 -0.0000
vn 0.9882 -0.1530 -0.0000
vn 0.9889 -0.1485 -0.0000
vn 0.9710 -0.2392 -0.0000
vn 0.9928 -0.1202 -0.0000
vn 0.9972 -0.0751 -0.0000
vn -0.0000 0.3424 -0.9395
vn -0.0000 0.2189 -0.9758
vn -0.0000 -0.1926 -0.9813
vn -0.0000 -0.7803 -0.6254
vn -0.0000 -0.9386 -0.3451
vn -0.0000 -0.9865 -0.1640
vn -0.0000 -0.9934 -0.1145
vn -0.0000 -0.9884 -0.1519
vn -0.0000 -0.9529 -0.3032
vn -0.0000 -0.9091 -0.4167
vn -0.0000 -0.8533 -0.5214
vn -0.1485 -0.2243 -0.9631
vn -0.1399 -0.2239 -0.9645
vn -0.5373 -0.2237 -0.8132
vn -0.5231 -0.2245 -0.8222
vn -0.8879 -0.1680 -0.4282
vn -0.8652 -0.1753 -0.4698
vn -0.9654 -0.1298 -0.2262
vn 0.9654 -0.1298 -0.2262
vn 0.8879 -0.1680 -0.4282
vn 0.8652 -0.1753 -0.4698
vn 0.5373 -0.2237 -0.8132
vn 0.5231 -0.2245 -0.8222
vn 0.1399 -0.2239 -0.9645
vn 0.1485 -0.2243 -0.9631
vn 0.6815 -0.7144 -0.1586
vn 0.6000 -0.7761 -0.1941
vn 0.3978 -0.8789 -0.2634
vn 0.2398 -0.9220 -0.3040
vn 0.1817 -0.9311 -0.3164
vn -0.6815 -0.7144 -0.1586
vn -0.3978 -0.8789 -0.2634
vn -0.6000 -0.7761 -0.1941
vn -0.1817 -0.9311 -0.3164
vn -0.2398 -0.9220 -0.3040
vn -0.0513 -0.9391 -0.3398
vn -0.0511 -0.9391 -0.3398
vn 0.4163 -0.5559 -0.7195
vn 0.5120 -0.5244 -0.6804
vn 0.7893 -0.3727 -0.4880
vn 0.8942 -0.2707 -0.3567
vn 0.9600 -0.1678 -0.2240
vn -0.9600 -0.1678 -0.2240
vn -0.7893 -0.3727 -0.4880
vn -0.8942 -0.2707 -0.3567
vn -0.4163 -0.5559 -0.7195
vn -0.5120 -0.5244 -0.6804
vn -0.1118 -0.6096 -0.7848
vn -0.1253 -0.6086 -0.7835
vn 0.5570 -0.0787 -0.8268
vn 0.5205 -0.1910 -0.8322
vn 0.8862 -0.1251 -0.4461
vn 0.8631 -0.1943 -0.4662
vn 0.9642 -0.1362 -0.2273
vn 0.9577 -0.1779 -0.2261
vn -0.9577 -0.1779 -0.2261
vn -0.9642 -0.1362 -0.2273
vn -0.8862 -0.1251 -0.4461
vn -0.8631 -0.1943 -0.4662
vn -0.5570 -0.0787 -0.8268
vn -0.5205 -0.1910 -0.8322
vn -0.1603 -0.0228 -0.9868
vn -0.1431 -0.1575 -0.9771
vn -0.1401 -0.3232 -0.9359
vn -0.5097 -0.3440 -0.7886
vn -0.8496 -0.2954 -0.4370
vn -0.9425 -0.2500 -0.2220
vn 0.5097 -0.3440 -0.7886
vn 0.8496 -0.2954 -0.4370
vn 0.9425 -0.2500 -0.2220
vn -0.1280 -0.4766 -0.8697
vn -0.4702 -0.4882 -0.7352
vn -0.8048 -0.4201 -0.4193
vn -0.9097 -0.3571 -0.2121
vn 0.4702 -0.4882 -0.7352
vn 0.8048 -0.4201 -0.4193
vn 0.9097 -0.3571 -0.2121
vn -0.8291 -0.5255 -0.1910
vn -0.7175 -0.6002 -0.3536
vn -0.6884 -0.7082 -0.1568
vn -0.6185 -0.7354 -0.2768
vn 0.0791 -0.8440 -0.5304
vn -0.0000 -0.8392 -0.5439
vn -0.0000 -0.2150 -0.9766
vn 0.1498 -0.9881 -0.0340
vn 0.1309 -0.9896 -0.0604
vn 0.2540 -0.9608 -0.1110
vn 0.1734 -0.9841 -0.0393
vn 0.4653 -0.8619 -0.2015
vn 0.4363 -0.8943 -0.0988
vn 0.0760 -0.9910 -0.1104
vn 0.1399 -0.9698 -0.1999
vn 0.2414 -0.9072 -0.3445
vn 0.0204 -0.9908 -0.1340
vn 0.0351 -0.9717 -0.2337
vn 0.0602 -0.9129 -0.4038
vn -0.1309 -0.9896 -0.0604
vn -0.1498 -0.9881 -0.0340
vn -0.1734 -0.9841 -0.0393
vn -0.2540 -0.9608 -0.1110
vn -0.4363 -0.8943 -0.0988
vn -0.4653 -0.8619 -0.2015
vn -0.0760 -0.9910 -0.1104
vn -0.1399 -0.9698 -0.1999
vn -0.2414 -0.9072 -0.3445
vn -0.0204 -0.9908 -0.1340
vn -0.0351 -0.9717 -0.2337
vn -0.0602 -0.9129 -0.4038
vn -0.0000 -0.9905 -0.1376
vn -0.0000 -0.9727 -0.2319
vn -0.0000 -0.9123 -0.4094
vt 0.431507 0.935409
vt 0.423356 0.960597
vt 0.637659 0.956427
vt 0.637566 0.929032
vt 0.399105 0.919568
vt 0.409662 0.929468
vt 0.422888 0.915754
vt 0.413211 0.906404
vt 0.949694 0.960597
vt 0.948846 0.934453
vt 0.979300 0.928424
vt 0.983854 0.955436
vt 0.949680 0.960636
vt 0.948732 0.934496
vt 0.853702 0.783980
vt 0.857314 0.788185
vt 0.858479 0.795794
vt 0.852421 0.795759
vt 0.638529 0.929792
vt 0.431345 0.935334
vt 0.451770 0.926570
vt 0.638496 0.922478
vt 0.949543 0.927377
vt 0.978095 0.922117
vt 0.949700 0.927307
vt 0.637525 0.922121
vt 0.638572 0.956589
vt 0.423092 0.960636
vt 0.949180 0.921291
vt 0.637495 0.916319
vt 0.451816 0.926603
vt 0.457242 0.920302
vt 0.418386 0.900612
vt 0.428879 0.909697
vt 0.435531 0.896715
vt 0.427116 0.889533
vt 0.949025 0.921345
vt 0.977093 0.916422
vt 0.948905 0.908038
vt 0.637430 0.902726
vt 0.459193 0.906638
vt 0.439215 0.890789
vt 0.432029 0.883983
vt 0.948758 0.908157
vt 0.974632 0.902970
vt 0.443045 0.884905
vt 0.437483 0.878638
vt 0.948635 0.901551
vt 0.973263 0.896300
vt 0.948784 0.901416
vt 0.637400 0.896014
vt 0.461831 0.900101
vt 0.448365 0.878311
vt 0.444822 0.872983
vt 0.948654 0.894930
vt 0.971775 0.889630
vt 0.948813 0.894783
vt 0.637367 0.889204
vt 0.464541 0.893729
vt 0.949076 0.887788
vt 0.637326 0.881946
vt 0.469289 0.887098
vt 0.466759 0.863805
vt 0.468251 0.869980
vt 0.465785 0.865966
vt 0.465316 0.864163
vt 0.948893 0.887939
vt 0.970065 0.882667
vt 0.461040 0.886541
vt 0.464057 0.883911
vt 0.456888 0.880879
vt 0.453815 0.883677
vt 0.472306 0.884507
vt 0.949640 0.879683
vt 0.968012 0.874950
vt 0.949790 0.879776
vt 0.637268 0.873278
vt 0.457043 0.880682
vt 0.453950 0.883472
vt 0.448513 0.878064
vt 0.451807 0.874842
vt 0.638249 0.882135
vt 0.638201 0.873581
vt 0.638291 0.889419
vt 0.464668 0.893588
vt 0.469440 0.886946
vt 0.638326 0.896241
vt 0.461931 0.899978
vt 0.638359 0.902975
vt 0.459259 0.906537
vt 0.638465 0.916430
vt 0.457245 0.920254
vt 0.951684 0.788269
vt 0.946958 0.794692
vt 0.950132 0.872089
vt 0.650696 0.866075
vt 0.651690 0.866338
vt 0.950016 0.872003
vt 0.966024 0.867738
vt 0.950755 0.864185
vt 0.666628 0.858593
vt 0.667670 0.858838
vt 0.950658 0.864109
vt 0.964103 0.860713
vt 0.951079 0.854234
vt 0.694845 0.849754
vt 0.695856 0.849995
vt 0.950992 0.854178
vt 0.961935 0.851802
vt 0.858234 0.795979
vt 0.950058 0.800727
vt 0.948447 0.795310
vt 0.857971 0.787767
vt 0.949913 0.800604
vt 0.955488 0.798775
vt 0.951033 0.847312
vt 0.960631 0.845472
vt 0.950973 0.840560
vt 0.959480 0.839100
vt 0.951006 0.833908
vt 0.958395 0.832716
vt 0.951482 0.827185
vt 0.957431 0.826474
vt 0.951584 0.820688
vt 0.956814 0.820257
vt 0.951543 0.814071
vt 0.956520 0.813803
vt 0.951059 0.807385
vt 0.956360 0.806810
vt 0.736864 0.844050
vt 0.792099 0.838287
vt 0.830225 0.832180
vt 0.847610 0.825413
vt 0.856184 0.818341
vt 0.858741 0.810975
vt 0.858924 0.803434
vt 0.951126 0.847348
vt 0.736022 0.843829
vt 0.951072 0.840576
vt 0.791543 0.838102
vt 0.951115 0.833905
vt 0.829903 0.832011
vt 0.951599 0.827168
vt 0.847451 0.825229
vt 0.951705 0.820666
vt 0.856195 0.818118
vt 0.951662 0.814061
vt 0.858966 0.810657
vt 0.951175 0.807417
vt 0.858904 0.803171
vt 0.853686 0.803711
vt 0.853754 0.810050
vt 0.851760 0.815243
vt 0.845053 0.820529
vt 0.828771 0.825293
vt 0.791220 0.830084
vt 0.735947 0.834738
vt 0.694128 0.839430
vt 0.664473 0.845743
vt 0.647498 0.850275
vt 0.634006 0.853876
vt 0.397120 0.952030
vt 0.409409 0.929295
vt 0.415472 0.933223
vt 0.404735 0.956020
vt 0.422709 0.935112
vt 0.413475 0.958908
vt 0.422911 0.935214
vt 0.413791 0.958905
vt 0.415705 0.933357
vt 0.405093 0.956059
vt 0.397508 0.952114
vt 0.440528 0.925298
vt 0.430402 0.921507
vt 0.440439 0.925214
vt 0.430280 0.921366
vt 0.422751 0.915556
vt 0.436978 0.915208
vt 0.446934 0.918785
vt 0.446897 0.918695
vt 0.436911 0.915062
vt 0.428796 0.909492
vt 0.442278 0.901322
vt 0.450151 0.904645
vt 0.450185 0.904501
vt 0.442293 0.901132
vt 0.435537 0.896475
vt 0.439264 0.890540
vt 0.445680 0.895297
vt 0.453279 0.898434
vt 0.445626 0.895498
vt 0.453208 0.898592
vt 0.443140 0.884652
vt 0.449039 0.889616
vt 0.456333 0.892514
vt 0.448947 0.889824
vt 0.456229 0.892682
vt 0.461181 0.886372
vt 0.493815 0.879162
vt 0.512210 0.877475
vt 0.472461 0.884362
vt 0.464211 0.883747
vt 0.451632 0.875079
vt 0.449056 0.870432
vt 0.382539 0.941542
vt 0.472047 0.872221
vt 0.470198 0.876423
vt 0.467290 0.880594
vt 0.479658 0.881669
vt 0.468037 0.870122
vt 0.464527 0.873657
vt 0.460486 0.877530
vt 0.465539 0.866120
vt 0.460869 0.868448
vt 0.455792 0.871696
vt 0.472240 0.872098
vt 0.512264 0.877405
vt 0.493937 0.879058
vt 0.470377 0.876283
vt 0.479808 0.881538
vt 0.467456 0.880439
vt 0.464725 0.873492
vt 0.460663 0.877345
vt 0.461099 0.868261
vt 0.455996 0.871479
vt 0.460231 0.865585
vt 0.454387 0.867721
vt 0.449254 0.870168
vt 0.470380 0.863025
vt 0.511126 0.859221
vt 0.633178 0.853808
vt 0.511027 0.858916
vt 0.470119 0.863140
vt 0.466498 0.863950
vt 0.454161 0.867955
vt 0.459982 0.865780
vt 0.465057 0.864319
vt 0.382097 0.941353
vt 0.398827 0.919304
vt 0.444992 0.872698
vt 0.646495 0.850152
vt 0.663402 0.845531
vt 0.693110 0.839159
vt 0.735109 0.834473
vt 0.790668 0.829853
vt 0.828445 0.825070
vt 0.844868 0.820277
vt 0.851687 0.814924
vt 0.853787 0.809583
vt 0.853900 0.803412
vt 0.852660 0.796031
vt 0.956406 0.806811
vt 0.955427 0.798908
vt 0.956618 0.813775
vt 0.956934 0.820228
vt 0.957559 0.826456
vt 0.958525 0.832717
vt 0.959606 0.839124
vt 0.960749 0.845519
vt 0.962041 0.851867
vt 0.951506 0.791341
vt 0.964187 0.860785
vt 0.966091 0.867792
vt 0.968066 0.874963
vt 0.852106 0.781552
vt 0.413060 0.906119
vt 0.418288 0.900316
vt 0.970114 0.882605
vt 0.971832 0.889510
vt 0.973339 0.896141
vt 0.437591 0.878330
vt 0.974737 0.902782
vt 0.432082 0.883667
vt 0.977298 0.916197
vt 0.427116 0.889218
vt 0.978368 0.922309
vt 0.979515 0.928630
vt 0.983854 0.955638
s 0
usemtl Material.006
f 93/1/1 97/2/1 22/3/1 21/4/1
s 1
f 215/5/2 94/6/3 102/7/4 217/8/2
s 0
f 21/4/1 22/3/1 4/9/1 3/10/1
f 181/11/5 182/12/5 2/13/5 1/14/5
f 190/15/6 51/16/6 76/17/6 204/18/6
f 19/19/7 86/20/7 106/21/7 23/22/7
f 181/11/5 1/14/5 6/23/5 183/24/5
f 21/4/8 3/10/8 5/25/8 24/26/8
f 19/19/9 20/27/9 90/28/9 86/20/9
f 24/26/10 5/25/10 7/29/10 26/30/10
f 101/31/10 24/26/10 26/30/10 109/32/10
s 1
f 218/33/11 110/34/12 118/35/13 219/36/14
s 0
f 183/24/5 6/23/5 8/37/5 184/38/5
f 26/30/15 7/29/15 9/39/15 28/40/15
f 109/32/15 26/30/15 28/40/15 117/41/15
s 1
f 219/36/14 118/35/13 126/42/16 220/43/17
s 0
f 184/38/5 8/37/5 10/44/5 185/45/5
s 1
f 220/43/17 126/42/16 134/46/18 221/47/19
s 0
f 185/45/5 10/44/5 12/48/5 186/49/5
f 28/40/20 9/39/20 11/50/20 30/51/20
f 117/41/20 28/40/20 30/51/20 125/52/20
s 1
f 221/47/19 134/46/18 142/53/21 222/54/22
s 0
f 186/49/5 12/48/5 14/55/5 187/56/5
f 30/51/23 11/50/23 13/57/23 32/58/23
f 125/52/23 30/51/23 32/58/23 133/59/23
f 32/58/24 13/57/24 15/60/24 34/61/24
f 133/59/24 32/58/24 34/61/24 141/62/24
f 227/63/25 177/64/25 169/65/25 223/66/25
f 187/56/5 14/55/5 16/67/5 188/68/5
s 1
f 143/69/26 162/70/27 158/71/28 144/72/29
f 141/62/30 154/73/31 162/70/27 143/69/26
s 0
f 188/68/5 16/67/5 18/74/5 189/75/5
f 34/61/32 15/60/32 17/76/32 36/77/32
s 1
f 178/78/33 147/79/34 145/80/35 170/81/36
s 0
f 16/67/37 33/82/37 35/83/37 18/74/37
f 14/55/38 31/84/38 33/82/38 16/67/38
f 31/84/38 138/85/38 146/86/38 33/82/38
f 29/87/39 130/88/39 138/85/39 31/84/39
f 12/48/39 29/87/39 31/84/39 14/55/39
f 27/89/40 122/90/40 130/88/40 29/87/40
f 10/44/40 27/89/40 29/87/40 12/48/40
f 8/37/41 25/91/41 27/89/41 10/44/41
f 25/91/41 114/92/41 122/90/41 27/89/41
f 6/23/42 23/22/42 25/91/42 8/37/42
f 23/22/42 106/21/42 114/92/42 25/91/42
f 1/14/7 19/19/7 23/22/7 6/23/7
s 1
f 217/8/43 102/7/44 110/34/45 218/33/43
s 0
f 190/15/25 195/93/25 50/94/25 51/16/25
f 93/1/8 21/4/8 24/26/8 101/31/8
f 1/14/9 2/13/9 20/27/9 19/19/9
f 36/77/46 17/76/46 37/95/46 40/96/46
f 18/74/47 35/83/47 39/97/47 38/98/47
f 189/75/5 18/74/5 38/98/5 191/99/5
f 40/96/48 37/95/48 41/100/48 44/101/48
f 38/98/49 39/97/49 43/102/49 42/103/49
f 191/99/5 38/98/5 42/103/5 192/104/5
f 44/101/50 41/100/50 45/105/50 48/106/50
f 42/103/51 43/102/51 47/107/51 46/108/51
f 192/104/5 42/103/5 46/108/5 193/109/5
f 61/110/10 60/111/10 49/112/10 52/113/10
f 77/114/42 76/17/42 51/16/42 50/94/42
f 203/115/5 77/114/5 50/94/5 195/93/5
f 193/109/5 46/108/5 84/116/5 196/117/5
f 196/117/5 84/116/5 83/118/5 197/119/5
f 197/119/5 83/118/5 82/120/5 198/121/5
f 198/121/5 82/120/5 81/122/5 199/123/5
f 199/123/5 81/122/5 80/124/5 200/125/5
f 200/125/5 80/124/5 79/126/5 201/127/5
f 201/127/5 79/126/5 78/128/5 202/129/5
f 202/129/5 78/128/5 77/114/5 203/115/5
f 46/108/52 47/107/52 69/130/52 84/116/52
f 84/116/53 69/130/53 70/131/53 83/118/53
f 83/118/54 70/131/54 71/132/54 82/120/54
f 82/120/55 71/132/55 72/133/55 81/122/55
f 81/122/56 72/133/56 73/134/56 80/124/56
f 80/124/57 73/134/57 74/135/57 79/126/57
f 79/126/42 74/135/42 75/136/42 78/128/42
f 78/128/42 75/136/42 76/17/42 77/114/42
f 48/106/58 45/105/58 53/137/58 68/138/58
f 68/138/59 53/137/59 54/139/59 67/140/59
f 67/140/60 54/139/60 55/141/60 66/142/60
f 66/142/61 55/141/61 56/143/61 65/144/61
f 65/144/62 56/143/62 57/145/62 64/146/62
f 64/146/63 57/145/63 58/147/63 63/148/63
f 63/148/10 58/147/10 59/149/10 62/150/10
f 62/150/10 59/149/10 60/111/10 61/110/10
f 204/18/64 76/17/64 75/136/64 205/151/64
f 205/151/65 75/136/65 74/135/65 206/152/65
f 206/152/66 74/135/66 73/134/66 207/153/66
f 207/153/67 73/134/67 72/133/67 208/154/67
f 208/154/68 72/133/68 71/132/68 209/155/68
f 209/155/69 71/132/69 70/131/69 210/156/69
f 210/156/70 70/131/70 69/130/70 211/157/70
f 211/157/71 69/130/71 47/107/71 212/158/71
f 212/158/72 47/107/72 43/102/72 213/159/72
f 213/159/73 43/102/73 39/97/73 214/160/73
f 214/160/74 39/97/74 35/83/74 194/161/74
s 1
f 89/162/75 85/163/76 87/164/77 91/165/78
f 91/165/78 87/164/77 88/166/79 92/167/80
f 92/167/80 88/166/79 86/20/81 90/28/81
f 97/2/82 93/1/82 95/168/83 99/169/84
f 99/169/84 95/168/83 96/170/85 100/171/86
f 100/171/86 96/170/85 94/6/87 98/172/88
f 93/1/89 101/31/89 103/173/90 95/168/91
f 95/168/91 103/173/90 104/174/92 96/170/93
f 96/170/93 104/174/92 102/7/4 94/6/3
f 106/21/94 86/20/94 88/166/95 108/175/96
f 108/175/96 88/166/95 87/164/97 107/176/98
f 107/176/98 87/164/97 85/163/99 105/177/100
f 110/34/45 102/7/44 104/174/101 112/178/102
f 112/178/102 104/174/101 103/173/103 111/179/104
f 111/179/104 103/173/103 101/31/105 109/32/105
f 114/92/106 106/21/106 108/175/107 116/180/108
f 116/180/108 108/175/107 107/176/109 115/181/110
f 115/181/110 107/176/109 105/177/111 113/182/112
f 118/35/13 110/34/12 112/178/113 120/183/114
f 120/183/114 112/178/113 111/179/115 119/184/116
f 119/184/116 111/179/115 109/32/117 117/41/118
f 122/90/119 114/92/120 116/180/121 124/185/122
f 124/185/122 116/180/121 115/181/123 123/186/124
f 123/186/124 115/181/123 113/182/125 121/187/126
f 121/187/126 129/188/127 131/189/128 123/186/124
f 123/186/124 131/189/128 132/190/129 124/185/122
f 124/185/122 132/190/129 130/88/130 122/90/119
f 126/42/16 118/35/13 120/183/114 128/191/131
f 128/191/131 120/183/114 119/184/116 127/192/132
f 127/192/132 119/184/116 117/41/118 125/52/133
f 129/188/127 137/193/134 139/194/135 131/189/128
f 131/189/128 139/194/135 140/195/136 132/190/129
f 132/190/129 140/195/136 138/85/137 130/88/130
f 134/46/18 126/42/16 128/191/131 136/196/138
f 136/196/138 128/191/131 127/192/132 135/197/139
f 135/197/139 127/192/132 125/52/133 133/59/140
f 142/53/21 134/46/18 136/196/138 144/72/29
f 144/72/29 136/196/138 135/197/139 143/69/26
f 143/69/26 135/197/139 133/59/140 141/62/30
f 146/86/141 138/85/137 140/195/136 148/198/142
f 148/198/142 140/195/136 139/194/135 147/79/34
f 147/79/34 139/194/135 137/193/134 145/80/35
s 0
f 155/199/32 154/73/32 141/62/32 153/200/32
s 1
f 165/201/143 146/86/141 148/198/142 174/202/144
f 222/54/22 142/53/21 150/203/145 226/204/146
s 0
f 34/61/32 36/77/32 153/200/32 141/62/32
s 1
f 174/202/144 148/198/142 147/79/34 178/78/33
f 215/5/147 216/205/147 98/172/88 94/6/87
f 153/200/148 161/206/149 163/207/150 155/199/151
f 155/199/151 163/207/150 164/208/152 156/209/153
f 156/209/153 164/208/152 162/70/27 154/73/31
f 161/206/149 157/210/154 159/211/155 163/207/150
f 163/207/150 159/211/155 160/212/156 164/208/152
f 164/208/152 160/212/156 158/71/28 162/70/27
f 157/210/154 149/213/157 151/214/158 159/211/155
f 159/211/155 151/214/158 152/215/159 160/212/156
f 160/212/156 152/215/159 150/203/145 158/71/28
f 173/216/160 166/217/161 168/218/162 175/219/163
f 175/219/163 168/218/162 167/220/164 176/221/165
f 176/221/165 167/220/164 165/201/143 174/202/144
f 177/64/166 173/216/160 175/219/163 179/222/167
f 179/222/167 175/219/163 176/221/165 180/223/168
f 180/223/168 176/221/165 174/202/144 178/78/33
f 169/65/169 177/64/166 179/222/167 171/224/170
f 171/224/170 179/222/167 180/223/168 172/225/171
f 172/225/171 180/223/168 178/78/33 170/81/36
f 223/66/172 169/65/169 171/224/170 224/226/173
f 224/226/173 171/224/170 172/225/171 225/227/174
f 225/227/174 172/225/171 170/81/36 226/228/146
f 144/72/29 158/71/28 150/203/145 142/53/21
s 0
f 228/229/25 173/216/25 177/64/25 227/63/25
f 229/230/25 166/217/25 173/216/25 228/229/25
f 156/209/32 154/73/32 155/199/32
f 33/82/37 146/86/37 166/217/37 35/83/37
f 166/217/37 146/86/37 165/201/37 168/218/37
f 167/220/37 168/218/37 165/201/37
f 194/231/25 229/232/25 153/200/25 36/77/25
f 35/83/25 166/217/25 229/230/25 194/161/25
f 153/200/25 229/232/25 228/233/25 161/206/25
f 161/206/25 228/233/25 227/234/25 157/210/25
s 1
f 152/215/159 225/235/174 226/204/146 150/203/145
f 151/214/158 224/236/173 225/235/174 152/215/159
f 149/213/157 223/237/172 224/236/173 151/214/158
f 85/163/76 89/162/75 216/238/147 215/239/147
f 145/80/35 222/240/22 226/228/146 170/81/36
s 0
f 40/96/74 214/241/74 194/231/74 36/77/74
f 44/101/73 213/242/73 214/241/73 40/96/73
f 48/106/72 212/243/72 213/242/72 44/101/72
f 68/138/71 211/244/71 212/243/71 48/106/71
f 67/140/70 210/245/70 211/244/70 68/138/70
f 66/142/69 209/246/69 210/245/69 67/140/69
f 65/144/68 208/247/68 209/246/68 66/142/68
f 64/146/67 207/248/67 208/247/67 65/144/67
f 63/148/66 206/249/66 207/248/66 64/146/66
f 62/150/65 205/250/65 206/249/65 63/148/65
f 61/110/64 204/251/64 205/250/64 62/150/64
f 59/149/5 202/252/5 203/253/5 60/111/5
f 58/147/5 201/254/5 202/252/5 59/149/5
f 57/145/5 200/255/5 201/254/5 58/147/5
f 56/143/5 199/256/5 200/255/5 57/145/5
f 55/141/5 198/257/5 199/256/5 56/143/5
f 54/139/5 197/258/5 198/257/5 55/141/5
f 53/137/5 196/259/5 197/258/5 54/139/5
f 45/105/5 193/260/5 196/259/5 53/137/5
f 60/111/5 203/253/5 195/261/5 49/112/5
f 41/100/5 192/262/5 193/260/5 45/105/5
f 37/95/5 191/263/5 192/262/5 41/100/5
f 17/76/5 189/264/5 191/263/5 37/95/5
f 52/113/25 49/112/25 195/261/25 190/265/25
s 1
f 105/177/111 217/266/43 218/267/43 113/182/112
s 0
f 15/60/5 188/268/5 189/264/5 17/76/5
f 13/57/5 187/269/5 188/268/5 15/60/5
f 157/210/25 227/234/25 223/237/25 149/213/25
f 11/50/5 186/270/5 187/269/5 13/57/5
s 1
f 137/193/134 221/271/19 222/240/22 145/80/35
s 0
f 9/39/5 185/272/5 186/270/5 11/50/5
s 1
f 129/188/127 220/273/17 221/271/19 137/193/134
s 0
f 7/29/5 184/274/5 185/272/5 9/39/5
s 1
f 121/187/126 219/275/14 220/273/17 129/188/127
s 0
f 5/25/5 183/276/5 184/274/5 7/29/5
s 1
f 113/182/125 218/267/11 219/275/14 121/187/126
s 0
f 3/10/5 181/277/5 183/276/5 5/25/5
f 52/113/6 190/265/6 204/251/6 61/110/6
f 3/10/5 4/9/5 182/278/5 181/277/5
s 1
f 85/163/99 215/239/2 217/266/2 105/177/100
