# This file uses centimeters as units for non-parametric coordinates.

mtllib CornerWall_2.mtl
g default
v 0.930000 0.000000 0.070282
v 0.930000 3.500000 0.070282
v 0.930000 0.000000 1.000000
v 0.930000 3.500000 1.000000
v 0.000000 0.000000 0.070000
v 0.000000 3.500000 0.070000
vt 0.999704 0.000373
vt 0.999701 0.246641
vt 0.000672 0.246644
vt 0.000667 0.000373
vt 0.999701 0.002645
vt 0.999704 0.247039
vt 0.000667 0.247039
vt 0.000672 0.002641
vn -1.000000 0.000000 0.000000
vn -1.000000 0.000000 0.000000
vn -1.000000 0.000000 0.000000
vn -1.000000 0.000000 0.000000
vn 0.000000 0.000000 1.000000
vn 0.000000 0.000000 1.000000
vn 0.000000 0.000000 1.000000
vn 0.000000 0.000000 1.000000
s off
g CornerWall_2
usemtl initialShadingGroup
f 4/1/1 2/2/2 1/3/3 3/4/4
f 2/5/5 6/6/6 5/7/7 1/8/8
