# This file uses centimeters as units for non-parametric coordinates.

mtllib CornerBase2.mtl
g default
v 0.000000 0.149334 0.070000
v 0.500000 0.149334 0.070000
v 0.000000 0.138139 0.124048
v 0.500000 0.138139 0.124048
v 0.500000 0.149334 0.133197
v 0.000000 0.149334 0.133197
v 0.500000 0.125640 0.117029
v 0.500000 0.112250 0.114021
v 0.500000 0.097520 0.119035
v 0.500000 0.084022 0.127698
v 0.500000 0.074380 0.134917
v 0.500000 0.018460 0.134917
v 0.000000 -0.000180 0.144302
v 0.500000 -0.000180 0.144302
v 0.000000 0.125640 0.116979
v 0.000000 0.112250 0.113971
v 0.000000 0.097520 0.118985
v 0.000000 0.084022 0.127648
v 0.000000 0.074380 0.134867
v 0.000000 0.018460 0.134867
v 0.930000 0.149334 0.070000
v 0.866800 0.149334 0.133197
v 0.883020 0.125640 0.116979
v 0.886030 0.112250 0.113971
v 0.872350 0.084022 0.127648
v 0.865130 0.074380 0.134867
v 0.930000 0.149334 0.500000
v 0.875950 0.138139 0.124048
v 0.875952 0.138139 0.500000
v 0.866803 0.149334 0.500000
v 0.882971 0.125640 0.500000
v 0.885979 0.112250 0.500000
v 0.880965 0.097520 0.500000
v 0.872302 0.084022 0.500000
v 0.865083 0.074380 0.500000
v 0.865083 0.018460 0.500000
v 0.855700 -0.000180 0.144302
v 0.855698 -0.000180 0.500000
v 0.881020 0.097520 0.118985
v 0.865130 0.018460 0.134867
v 0.930000 0.149334 1.000000
v 0.875952 0.138139 1.000000
v 0.866803 0.149334 1.000000
v 0.855698 -0.000180 1.000000
v 0.883021 0.125640 1.000000
v 0.886029 0.112250 1.000000
v 0.881015 0.097520 1.000000
v 0.872352 0.084022 1.000000
v 0.865133 0.074380 1.000000
v 0.865133 0.018460 1.000000
vt 0.172746 0.957329
vt 0.463830 0.961613
vt 0.466017 0.959840
vt 0.176310 0.955903
vt 0.184505 0.978221
vt 0.470911 0.986926
vt 0.468069 0.956614
vt 0.179647 0.953261
vt 0.182352 0.948958
vt 0.469734 0.951354
vt 0.183781 0.941478
vt 0.470635 0.942243
vt 0.184343 0.933279
vt 0.471012 0.932266
vt 0.184556 0.927080
vt 0.471168 0.924724
vt 0.193292 0.905724
vt 0.476546 0.898865
vt 0.477312 0.886491
vt 0.194499 0.895521
vt 0.021933 0.966664
vt 0.021222 0.967956
vt 0.012251 0.986914
vt 0.023173 0.964276
vt 0.025151 0.960346
vt 0.028535 0.953471
vt 0.032245 0.945880
vt 0.035062 0.940107
vt 0.044888 0.920354
vt 0.046930 0.900232
vt 0.176881 0.965703
vt 0.180553 0.964211
vt 0.189451 0.986925
vt 0.183965 0.961480
vt 0.186691 0.957055
vt 0.188037 0.949391
vt 0.188471 0.940995
vt 0.188580 0.934644
vt 0.197257 0.912703
vt 0.198327 0.902230
vt 0.462839 0.959845
vt 0.460597 0.961593
vt 0.468059 0.986942
vt 0.464932 0.956641
vt 0.466613 0.951400
vt 0.467480 0.942295
vt 0.467803 0.932308
vt 0.467914 0.924753
vt 0.473293 0.898892
vt 0.474005 0.886475
vt 0.049608 0.910730
vt 0.042132 0.909411
vt 0.032362 0.928358
vt 0.029477 0.933853
vt 0.025685 0.941082
vt 0.022264 0.947649
vt 0.020333 0.951436
vt 0.019182 0.953767
vt 0.018582 0.955060
vt 0.008944 0.972886
vn 0.000000 -0.632807 0.774309
vn 0.000000 -0.632807 0.774309
vn 0.000000 -0.632807 0.774309
vn 0.000000 -0.632807 0.774309
vn 0.000000 1.000000 0.000000
vn 0.000000 1.000000 0.000000
vn 0.000000 1.000000 0.000000
vn 0.000000 1.000000 0.000000
vn 0.000000 -0.490983 0.871169
vn 0.000000 -0.490983 0.871169
vn -0.000100 -0.219196 0.975681
vn -0.000100 -0.219196 0.975681
vn -0.000100 0.322191 0.946675
vn -0.000100 0.322191 0.946675
vn -0.000100 0.540100 0.841601
vn -0.000100 0.540100 0.841601
vn -0.000100 0.599376 0.800468
vn -0.000100 0.599376 0.800468
vn -0.000100 0.000000 1.000000
vn -0.000100 0.000000 1.000000
vn 0.000000 0.450690 0.892681
vn 0.000000 0.450690 0.892681
vn 0.000000 -0.632807 0.774309
vn 0.000000 -0.632807 0.774309
vn 0.000000 -0.632807 0.774309
vn 0.000000 -0.632807 0.774309
vn 0.000000 1.000000 0.000000
vn 0.000000 1.000000 0.000000
vn 0.000000 1.000000 0.000000
vn 0.000000 1.000000 0.000000
vn 0.000100 -0.490983 0.871169
vn 0.000100 -0.490983 0.871169
vn 0.000100 -0.219196 0.975681
vn 0.000100 -0.219196 0.975681
vn 0.000100 0.322191 0.946675
vn 0.000100 0.322191 0.946675
vn 0.000100 0.540100 0.841601
vn 0.000100 0.540100 0.841601
vn 0.000100 0.599312 0.800516
vn 0.000100 0.599312 0.800516
vn 0.000100 0.000000 1.000000
vn 0.000100 0.000000 1.000000
vn 0.000100 0.450610 0.892721
vn 0.000100 0.450610 0.892721
vn -0.774309 -0.632807 0.000000
vn -0.774309 -0.632807 0.000000
vn -0.774309 -0.632807 0.000000
vn -0.774309 -0.632807 0.000000
vn 0.000000 1.000000 0.000000
vn 0.000000 1.000000 0.000000
vn 0.000000 1.000000 0.000000
vn 0.000000 1.000000 0.000000
vn -0.871169 -0.490983 -0.000100
vn -0.871169 -0.490983 -0.000100
vn -0.975681 -0.219196 -0.000100
vn -0.975681 -0.219196 -0.000100
vn -0.946705 0.322102 -0.000100
vn -0.946705 0.322102 -0.000100
vn -0.841480 0.540287 -0.000100
vn -0.841480 0.540287 -0.000100
vn -0.800468 0.599376 -0.000100
vn -0.800468 0.599376 -0.000100
vn -1.000000 0.000000 -0.000100
vn -1.000000 0.000000 -0.000100
vn -0.892781 0.450491 -0.000100
vn -0.892781 0.450491 -0.000100
vn -0.774309 -0.632807 0.000000
vn -0.774309 -0.632807 0.000000
vn -0.774309 -0.632807 0.000000
vn -0.774309 -0.632807 0.000000
vn 0.000000 1.000000 0.000000
vn 0.000000 1.000000 0.000000
vn 0.000000 1.000000 0.000000
vn 0.000000 1.000000 0.000000
vn -0.871169 -0.490983 0.000000
vn -0.871169 -0.490983 0.000000
vn -0.975681 -0.219196 0.000100
vn -0.975681 -0.219196 0.000100
vn -0.946675 0.322191 0.000100
vn -0.946675 0.322191 0.000100
vn -0.841601 0.540100 0.000100
vn -0.841601 0.540100 0.000100
vn -0.800468 0.599376 0.000100
vn -0.800468 0.599376 0.000100
vn -1.000000 0.000000 0.000100
vn -1.000000 0.000000 0.000100
vn -0.892681 0.450690 0.000000
vn -0.892681 0.450690 0.000000
s 1
g CornerBase_2
usemtl set7
f 5/1/1 6/2/2 3/3/3 4/4/4
s off
f 2/5/5 1/6/6 6/2/7 5/1/8
s 1
f 4/4/4 3/3/3 15/7/9 7/8/10
f 8/9/11 7/8/10 15/7/9 16/10/12
f 9/11/13 8/9/11 16/10/12 17/12/14
f 10/13/15 9/11/13 17/12/14 18/14/16
f 11/15/17 10/13/15 18/14/16 19/16/18
f 12/17/19 11/15/17 19/16/18 20/18/20
f 13/19/21 14/20/22 12/17/19 20/18/20
s 2
f 5/1/23 4/4/24 28/58/25 22/59/26
s off
f 2/5/27 5/1/28 22/59/29 21/60/30
s 2
f 4/4/24 7/8/31 23/57/32 28/58/25
f 8/9/33 24/56/34 23/57/32 7/8/31
f 9/11/35 39/55/36 24/56/34 8/9/33
f 10/13/37 25/54/38 39/55/36 9/11/35
f 11/15/39 26/53/40 25/54/38 10/13/37
f 12/17/41 40/52/42 26/53/40 11/15/39
f 37/30/43 40/52/42 12/17/41 14/20/44
s 3
f 30/31/45 22/22/46 28/21/47 29/32/48
s off
f 27/33/49 21/23/50 22/22/51 30/31/52
s 3
f 29/32/48 28/21/47 23/24/53 31/34/54
f 32/35/55 31/34/54 23/24/53 24/25/56
f 33/36/57 32/35/55 24/25/56 39/26/58
f 34/37/59 33/36/57 39/26/58 25/27/60
f 35/38/61 34/37/59 25/27/60 26/28/62
f 36/39/63 35/38/61 26/28/62 40/29/64
f 37/51/65 38/40/66 36/39/63 40/29/64
s 4
f 30/31/67 29/32/68 42/41/69 43/42/70
s off
f 27/33/71 30/31/72 43/42/73 41/43/74
s 4
f 29/32/68 31/34/75 45/44/76 42/41/69
f 32/35/77 46/45/78 45/44/76 31/34/75
f 33/36/79 47/46/80 46/45/78 32/35/77
f 34/37/81 48/47/82 47/46/80 33/36/79
f 35/38/83 49/48/84 48/47/82 34/37/81
f 36/39/85 50/49/86 49/48/84 35/38/83
f 44/50/87 50/49/86 36/39/85 38/40/88
