# This file uses centimeters as units for non-parametric coordinates.

mtllib CornerWall_1.mtl
g default
v 0.930000 0.000000 0.070282
v 0.930000 3.500000 0.070282
v 0.930000 0.000000 1.000000
v 0.930000 3.500000 1.000000
v 0.000000 0.000000 0.070000
v 0.000000 3.500000 0.070000
vt 0.999704 0.250266
vt 0.999701 0.503058
vt 0.000672 0.503061
vt 0.000667 0.250266
vt 0.999701 0.250450
vt 0.999704 0.499817
vt 0.000667 0.499817
vt 0.000672 0.250446
vn -1.000000 0.000000 0.000000
vn -1.000000 0.000000 0.000000
vn -1.000000 0.000000 0.000000
vn -1.000000 0.000000 0.000000
vn 0.000000 0.000000 1.000000
vn 0.000000 0.000000 1.000000
vn 0.000000 0.000000 1.000000
vn 0.000000 0.000000 1.000000
s off
g CornerWall_1
usemtl set7
f 4/1/1 2/2/2 1/3/3 3/4/4
f 2/5/5 6/6/6 5/7/7 1/8/8
