# This file uses centimeters as units for non-parametric coordinates.

mtllib CornerBase1.mtl
g default
v 0.203712 0.254990 0.162969
v 0.203712 0.842628 0.162969
v 0.190003 0.239573 0.144429
v 0.190003 0.858045 0.144429
v 0.110604 0.947329 0.201015
v 0.110604 0.150289 0.201015
v 0.465000 0.239573 0.144429
v 0.465000 0.858045 0.144429
v 0.465000 0.254990 0.162969
v 0.465000 0.842628 0.162969
v 0.465000 0.150289 0.201015
v 0.465000 0.947329 0.201015
v 0.000000 0.947329 0.151836
v 0.000000 0.150289 0.151836
v 0.110604 0.139093 0.229590
v 0.465000 0.139093 0.229590
v 0.000000 0.139093 0.229590
v 0.000000 0.150289 0.238739
v 0.465000 0.150289 0.238739
v 0.110604 0.150289 0.238739
v 0.465000 0.126595 0.222572
v 0.000000 0.126595 0.222572
v 0.465000 0.993712 0.244128
v 0.465000 0.113204 0.219564
v 0.000000 0.113204 0.219564
v 0.465000 0.098474 0.224577
v 0.000000 0.098474 0.224577
v 0.000000 0.947329 0.244128
v 0.465000 0.084976 0.233240
v 0.000000 0.084976 0.233240
v 0.465000 0.947329 0.244128
v 0.465000 0.075335 0.240459
v 0.000000 0.075335 0.240459
v 0.110604 0.947329 0.244128
v 0.465000 0.019414 0.240459
v 0.000000 0.019414 0.240459
v 0.110604 0.000774 0.249844
v 0.465000 0.000774 0.249844
v 0.000000 0.000774 0.249844
v 0.110604 0.993712 0.244128
v 0.000000 0.993712 0.244128
v 0.110604 0.993712 0.150190
v 0.465000 0.993712 0.150190
v 0.000000 0.993712 0.150190
v 0.110604 0.126595 0.222522
v 0.110604 0.113204 0.219514
v 0.110604 0.098474 0.224527
v 0.110604 0.084976 0.233190
v 0.110604 0.075335 0.240409
v 0.110604 0.019414 0.240409
v 0.110604 0.993712 0.070000
v 0.465000 0.993712 0.070000
v 0.000000 0.993712 0.070000
v 0.726287 0.254990 0.162969
v 0.726287 0.842628 0.162969
v 0.739997 0.239573 0.144429
v 0.739997 0.858045 0.144429
v 0.755870 0.947329 0.244128
v 0.750160 0.000774 0.249844
v 0.775470 0.098474 0.224527
v 0.759590 0.019414 0.240409
v 0.837031 0.254990 0.273712
v 0.837031 0.842628 0.273712
v 0.855571 0.239573 0.260003
v 0.855571 0.858045 0.260003
v 0.798980 0.947329 0.201015
v 0.798980 0.150288 0.201015
v 0.855571 0.239573 0.535000
v 0.855571 0.858045 0.535000
v 0.837031 0.254990 0.535000
v 0.837031 0.842628 0.535000
v 0.798985 0.150289 0.535000
v 0.798985 0.947329 0.535000
v 0.770410 0.139093 0.229590
v 0.770410 0.139093 0.535000
v 0.761261 0.150289 0.535000
v 0.761260 0.150288 0.238739
v 0.777428 0.126595 0.535000
v 0.755872 0.993712 0.535000
v 0.780436 0.113204 0.535000
v 0.775423 0.098474 0.535000
v 0.766760 0.084976 0.535000
v 0.755872 0.947329 0.535000
v 0.759541 0.075335 0.535000
v 0.759541 0.019414 0.535000
v 0.750156 0.000774 0.535000
v 0.755870 0.993712 0.244128
v 0.849810 0.993712 0.150190
v 0.849810 0.993712 0.535000
v 0.777480 0.126595 0.222522
v 0.780490 0.113204 0.219514
v 0.766810 0.084976 0.233190
v 0.759590 0.075335 0.240409
v 0.930000 0.993712 0.070000
v 0.930000 0.993712 0.535000
v 0.837031 0.254990 0.796287
v 0.837031 0.842628 0.796287
v 0.855571 0.239573 0.809997
v 0.855571 0.858045 0.809997
v 0.798985 0.947329 0.889396
v 0.798985 0.150289 0.889396
v 0.848164 0.947329 1.000000
v 0.848164 0.150289 1.000000
v 0.770410 0.139093 0.889396
v 0.770410 0.139093 1.000000
v 0.761262 0.150289 1.000000
v 0.761261 0.150289 0.889396
v 0.777429 0.126595 1.000000
v 0.780437 0.113204 1.000000
v 0.775424 0.098474 1.000000
v 0.755873 0.947329 1.000000
v 0.766761 0.084976 1.000000
v 0.759541 0.075335 1.000000
v 0.755872 0.947329 0.889396
v 0.759541 0.019414 1.000000
v 0.750156 0.000774 0.889396
v 0.750156 0.000774 1.000000
v 0.755872 0.993712 0.889396
v 0.755872 0.993712 1.000000
v 0.849810 0.993712 0.889396
v 0.849810 0.993712 1.000000
v 0.777478 0.126595 0.889396
v 0.780486 0.113204 0.889396
v 0.775473 0.098474 0.889396
v 0.766810 0.084976 0.889396
v 0.759591 0.075335 0.889396
v 0.759591 0.019414 0.889396
v 0.930000 0.993712 0.889396
v 0.930000 0.993712 1.000000
vt 0.035713 0.901263
vt 0.035713 0.971144
vt 0.033148 0.973783
vt 0.033148 0.898306
vt 0.066413 0.901263
vt 0.066413 0.971144
vt 0.066413 0.973783
vt 0.066413 0.985698
vt 0.237942 0.908567
vt 0.066413 0.898306
vt 0.243288 0.958031
vt 0.304805 0.958031
vt 0.219220 0.896090
vt 0.007917 0.887673
vt 0.223252 0.949247
vt 0.243288 0.949247
vt 0.304805 0.949247
vt 0.243288 0.946849
vt 0.304805 0.946849
vt 0.223252 0.946850
vt 0.237942 0.926914
vt 0.219220 0.926914
vt 0.299788 0.926914
vt 0.237942 0.935830
vt 0.219220 0.935830
vt 0.299788 0.935830
vt 0.237942 0.955376
vt 0.219220 0.955376
vt 0.299788 0.955376
vt 0.223252 0.920787
vt 0.243288 0.920787
vt 0.243288 0.924524
vt 0.223252 0.924524
vt 0.243288 0.934266
vt 0.223252 0.934266
vt 0.243288 0.936442
vt 0.223252 0.936442
vt 0.243288 0.939323
vt 0.223252 0.939323
vt 0.243288 0.942091
vt 0.223252 0.942091
vt 0.243288 0.944448
vt 0.223252 0.944448
vt 0.304805 0.944448
vt 0.304805 0.942091
vt 0.304805 0.939323
vt 0.304805 0.936442
vt 0.304805 0.934266
vt 0.304805 0.924524
vt 0.304805 0.920787
vt 0.237942 0.970843
vt 0.219220 0.970843
vt 0.299788 0.970843
vt 0.097040 0.901263
vt 0.099609 0.899891
vt 0.099609 0.973783
vt 0.097040 0.971144
vt 0.109148 0.982844
vt 0.353475 0.958031
vt 0.353475 0.946850
vt 0.353475 0.949247
vt 0.352206 0.926914
vt 0.352206 0.936442
vt 0.352206 0.955376
vt 0.353475 0.944448
vt 0.353475 0.942091
vt 0.353475 0.939323
vt 0.353475 0.936442
vt 0.353475 0.934266
vt 0.353475 0.924524
vt 0.353475 0.920787
vt 0.352206 0.970843
vt 0.121258 0.901270
vt 0.121258 0.971158
vt 0.118689 0.973797
vt 0.118689 0.898631
vt 0.151787 0.901270
vt 0.151787 0.971158
vt 0.151787 0.973797
vt 0.151787 0.985698
vt 0.151787 0.898631
vt 0.402143 0.958031
vt 0.402143 0.949247
vt 0.402143 0.946850
vt 0.404621 0.926914
vt 0.404621 0.935830
vt 0.404621 0.955376
vt 0.402143 0.944448
vt 0.402143 0.942091
vt 0.402143 0.939323
vt 0.402143 0.936442
vt 0.402143 0.934266
vt 0.402143 0.924524
vt 0.402143 0.920787
vt 0.404621 0.970843
vt 0.182585 0.901270
vt 0.185150 0.898631
vt 0.185150 0.973797
vt 0.182585 0.971158
vt 0.466458 0.915393
vt 0.463648 0.958031
vt 0.483681 0.958031
vt 0.211715 0.984617
vt 0.463648 0.949247
vt 0.483681 0.949247
vt 0.463648 0.946850
vt 0.483681 0.946850
vt 0.485179 0.926914
vt 0.466458 0.926914
vt 0.485179 0.935830
vt 0.466458 0.935830
vt 0.485179 0.955376
vt 0.466458 0.955376
vt 0.483681 0.920787
vt 0.483681 0.924524
vt 0.463648 0.924524
vt 0.463648 0.920787
vt 0.483681 0.934266
vt 0.463648 0.934266
vt 0.483681 0.936442
vt 0.463648 0.936442
vt 0.483681 0.939323
vt 0.463648 0.939323
vt 0.483681 0.942091
vt 0.463648 0.942091
vt 0.483681 0.944448
vt 0.463648 0.944448
vt 0.485179 0.970843
vt 0.466458 0.970843
vt 0.485179 0.896092
vt 0.196629 0.984617
vt 0.210391 0.886195
vt 0.404621 0.915393
vt 0.109148 0.888642
vt 0.352206 0.920889
vt 0.066915 0.886180
vt 0.299788 0.922187
vt 0.223252 0.950852
vt 0.021669 0.886180
vt 0.021669 0.985698
vt 0.006572 0.985698
vt 0.151787 0.886195
vt 0.196629 0.886195
vn -0.804097 0.000000 0.594498
vn -0.804097 0.000000 0.594498
vn -0.804097 0.000000 0.594498
vn -0.804097 0.000000 0.594498
vn 0.000000 0.000000 1.000000
vn 0.000000 0.000000 1.000000
vn 0.000000 0.000000 1.000000
vn 0.000000 0.000000 1.000000
vn 0.000000 0.768885 0.639387
vn 0.000000 0.768885 0.639387
vn 0.000000 0.768885 0.639387
vn 0.000000 0.768885 0.639387
vn 0.000000 -0.535328 0.844644
vn 0.000000 -0.535328 0.844644
vn 0.000000 -0.535328 0.844644
vn 0.000000 -0.535328 0.844644
vn 0.000000 0.535328 0.844644
vn 0.000000 0.535328 0.844644
vn 0.000000 0.535328 0.844644
vn 0.000000 0.535328 0.844644
vn 0.580415 -0.000000 0.814321
vn 0.580415 -0.000000 0.814321
vn 0.580415 -0.000000 0.814321
vn 0.580415 -0.000000 0.814321
vn 0.000000 -0.768885 0.639387
vn 0.000000 -0.768885 0.639387
vn 0.000000 -0.768885 0.639387
vn 0.000000 -0.768885 0.639387
vn -0.406315 0.000000 0.913733
vn -0.406315 0.000000 0.913733
vn -0.406315 0.000000 0.913733
vn -0.406315 0.000000 0.913733
vn -0.000000 1.000000 -0.000000
vn -0.000000 1.000000 -0.000000
vn -0.000000 1.000000 -0.000000
vn -0.000000 1.000000 -0.000000
vn 0.000000 -0.632699 0.774398
vn 0.000000 -0.632699 0.774398
vn 0.000000 -0.632699 0.774398
vn 0.000000 -0.632699 0.774398
vn -0.000000 1.000000 -0.000000
vn -0.000000 1.000000 -0.000000
vn -0.000000 1.000000 -0.000000
vn -0.000000 1.000000 -0.000000
vn 0.000000 -0.632699 0.774398
vn 0.000000 -0.632699 0.774398
vn 0.000000 -0.632699 0.774398
vn 0.000000 -0.632699 0.774398
vn 0.000000 -1.000000 0.000000
vn 0.000000 -1.000000 0.000000
vn 0.000000 -1.000000 0.000000
vn 0.000000 -1.000000 0.000000
vn 0.000000 -1.000000 0.000000
vn 0.000000 -1.000000 0.000000
vn 0.000000 -1.000000 0.000000
vn 0.000000 -1.000000 0.000000
vn 0.000000 0.000000 1.000000
vn 0.000000 0.000000 1.000000
vn 0.000000 0.000000 1.000000
vn 0.000000 0.000000 1.000000
vn 0.000000 0.000000 1.000000
vn 0.000000 0.000000 1.000000
vn 0.000000 0.000000 1.000000
vn 0.000000 0.000000 1.000000
vn -0.000000 1.000000 -0.000000
vn -0.000000 1.000000 -0.000000
vn -0.000000 1.000000 -0.000000
vn -0.000000 1.000000 -0.000000
vn -0.000000 1.000000 -0.000000
vn -0.000000 1.000000 -0.000000
vn -0.000000 1.000000 -0.000000
vn -0.000000 1.000000 -0.000000
vn 0.000200 0.450690 0.892680
vn 0.000200 0.450690 0.892680
vn 0.000200 0.450690 0.892680
vn 0.000200 0.450690 0.892680
vn 0.000500 -0.000000 1.000000
vn 0.000500 -0.000000 1.000000
vn 0.000500 -0.000000 1.000000
vn 0.000500 -0.000000 1.000000
vn 0.000400 0.599376 0.800468
vn 0.000400 0.599376 0.800468
vn 0.000400 0.599376 0.800468
vn 0.000400 0.599376 0.800468
vn 0.000400 0.540100 0.841601
vn 0.000400 0.540100 0.841601
vn 0.000400 0.540100 0.841601
vn 0.000400 0.540100 0.841601
vn 0.000400 0.322191 0.946675
vn 0.000400 0.322191 0.946675
vn 0.000400 0.322191 0.946675
vn 0.000400 0.322191 0.946675
vn 0.000400 -0.219196 0.975681
vn 0.000400 -0.219196 0.975681
vn 0.000400 -0.219196 0.975681
vn 0.000400 -0.219196 0.975681
vn 0.000200 -0.490983 0.871169
vn 0.000200 -0.490983 0.871169
vn 0.000200 -0.490983 0.871169
vn 0.000200 -0.490983 0.871169
vn -0.000100 -0.490983 0.871169
vn -0.000100 -0.490983 0.871169
vn -0.000100 -0.490983 0.871169
vn -0.000100 -0.490983 0.871169
vn -0.000100 -0.219196 0.975681
vn -0.000100 -0.219196 0.975681
vn -0.000100 -0.219196 0.975681
vn -0.000100 -0.219196 0.975681
vn -0.000100 0.322191 0.946675
vn -0.000100 0.322191 0.946675
vn -0.000100 0.322191 0.946675
vn -0.000100 0.322191 0.946675
vn -0.000100 0.540100 0.841601
vn -0.000100 0.540100 0.841601
vn -0.000100 0.540100 0.841601
vn -0.000100 0.540100 0.841601
vn -0.000100 0.599376 0.800468
vn -0.000100 0.599376 0.800468
vn -0.000100 0.599376 0.800468
vn -0.000100 0.599376 0.800468
vn -0.000100 0.000000 1.000000
vn -0.000100 0.000000 1.000000
vn -0.000100 0.000000 1.000000
vn -0.000100 0.000000 1.000000
vn -0.000100 0.450690 0.892681
vn -0.000100 0.450690 0.892681
vn -0.000100 0.450690 0.892681
vn -0.000100 0.450690 0.892681
vn -0.000000 1.000000 -0.000000
vn -0.000000 1.000000 -0.000000
vn -0.000000 1.000000 -0.000000
vn -0.000000 1.000000 -0.000000
vn -0.000000 1.000000 -0.000000
vn -0.000000 1.000000 -0.000000
vn -0.000000 1.000000 -0.000000
vn -0.000000 1.000000 -0.000000
vn 0.804049 -0.000000 0.594563
vn 0.804049 -0.000000 0.594563
vn 0.804049 -0.000000 0.594563
vn 0.804049 -0.000000 0.594563
vn 0.000000 0.000000 1.000000
vn 0.000000 0.000000 1.000000
vn 0.000000 0.000000 1.000000
vn 0.000000 0.000000 1.000000
vn 0.000000 0.768885 0.639387
vn 0.000000 0.768885 0.639387
vn 0.000000 0.768885 0.639387
vn 0.000000 0.768885 0.639387
vn 0.000000 -0.535328 0.844644
vn 0.000000 -0.535328 0.844644
vn 0.000000 -0.535328 0.844644
vn 0.000000 -0.535328 0.844644
vn 0.000000 0.535328 0.844644
vn 0.000000 0.535328 0.844644
vn 0.000000 0.535328 0.844644
vn 0.000000 0.535328 0.844644
vn -0.692305 0.000000 0.721605
vn -0.692305 0.000000 0.721605
vn -0.692305 0.000000 0.721605
vn -0.692305 0.000000 0.721605
vn 0.000000 -0.768885 0.639387
vn 0.000000 -0.768885 0.639387
vn 0.000000 -0.768885 0.639387
vn 0.000000 -0.768885 0.639387
vn 0.000000 -0.632807 0.774309
vn 0.000000 -0.632807 0.774309
vn 0.000000 -0.632807 0.774309
vn 0.000000 -0.632807 0.774309
vn -0.000000 1.000000 -0.000000
vn -0.000000 1.000000 -0.000000
vn -0.000000 1.000000 -0.000000
vn -0.000000 1.000000 -0.000000
vn 0.000000 -1.000000 0.000000
vn 0.000000 -1.000000 0.000000
vn 0.000000 -1.000000 0.000000
vn 0.000000 -1.000000 0.000000
vn 0.000000 0.000000 1.000000
vn 0.000000 0.000000 1.000000
vn 0.000000 0.000000 1.000000
vn 0.000000 0.000000 1.000000
vn -0.000000 1.000000 -0.000000
vn -0.000000 1.000000 -0.000000
vn -0.000000 1.000000 -0.000000
vn -0.000000 1.000000 -0.000000
vn 0.000100 -0.490907 0.871212
vn 0.000100 -0.490907 0.871212
vn 0.000100 -0.490907 0.871212
vn 0.000100 -0.490907 0.871212
vn 0.000200 -0.219196 0.975681
vn 0.000200 -0.219196 0.975681
vn 0.000200 -0.219196 0.975681
vn 0.000200 -0.219196 0.975681
vn 0.000200 0.322191 0.946675
vn 0.000200 0.322191 0.946675
vn 0.000200 0.322191 0.946675
vn 0.000200 0.322191 0.946675
vn 0.000100 0.540100 0.841601
vn 0.000100 0.540100 0.841601
vn 0.000100 0.540100 0.841601
vn 0.000100 0.540100 0.841601
vn 0.000100 0.599312 0.800516
vn 0.000100 0.599312 0.800516
vn 0.000100 0.599312 0.800516
vn 0.000100 0.599312 0.800516
vn 0.000200 -0.000000 1.000000
vn 0.000200 -0.000000 1.000000
vn 0.000200 -0.000000 1.000000
vn 0.000200 -0.000000 1.000000
vn 0.000100 0.450610 0.892721
vn 0.000100 0.450610 0.892721
vn 0.000100 0.450610 0.892721
vn 0.000100 0.450610 0.892721
vn -0.000000 1.000000 -0.000000
vn -0.000000 1.000000 -0.000000
vn -0.000000 1.000000 -0.000000
vn -0.000000 1.000000 -0.000000
vn -0.594498 0.000000 -0.804097
vn -0.594498 0.000000 -0.804097
vn -0.594498 0.000000 -0.804097
vn -0.594498 0.000000 -0.804097
vn -1.000000 0.000000 0.000000
vn -1.000000 0.000000 0.000000
vn -1.000000 0.000000 0.000000
vn -1.000000 0.000000 0.000000
vn -0.639387 0.768885 -0.000000
vn -0.639387 0.768885 -0.000000
vn -0.639387 0.768885 -0.000000
vn -0.639387 0.768885 -0.000000
vn -0.844644 -0.535328 0.000000
vn -0.844644 -0.535328 0.000000
vn -0.844644 -0.535328 0.000000
vn -0.844644 -0.535328 0.000000
vn -0.844644 0.535328 -0.000000
vn -0.844644 0.535328 -0.000000
vn -0.844644 0.535328 -0.000000
vn -0.844644 0.535328 -0.000000
vn -0.721605 0.000000 0.692305
vn -0.721605 0.000000 0.692305
vn -0.721605 0.000000 0.692305
vn -0.721605 0.000000 0.692305
vn -0.639387 -0.768885 0.000000
vn -0.639387 -0.768885 0.000000
vn -0.639387 -0.768885 0.000000
vn -0.639387 -0.768885 0.000000
vn -0.774309 -0.632807 0.000000
vn -0.774309 -0.632807 0.000000
vn -0.774309 -0.632807 0.000000
vn -0.774309 -0.632807 0.000000
vn -0.000000 1.000000 -0.000000
vn -0.000000 1.000000 -0.000000
vn -0.000000 1.000000 -0.000000
vn -0.000000 1.000000 -0.000000
vn 0.000000 -1.000000 0.000000
vn 0.000000 -1.000000 0.000000
vn 0.000000 -1.000000 0.000000
vn 0.000000 -1.000000 0.000000
vn -1.000000 0.000000 0.000000
vn -1.000000 0.000000 0.000000
vn -1.000000 0.000000 0.000000
vn -1.000000 0.000000 0.000000
vn -0.000000 1.000000 -0.000000
vn -0.000000 1.000000 -0.000000
vn -0.000000 1.000000 -0.000000
vn -0.000000 1.000000 -0.000000
vn -0.871169 -0.490983 -0.000100
vn -0.871169 -0.490983 -0.000100
vn -0.871169 -0.490983 -0.000100
vn -0.871169 -0.490983 -0.000100
vn -0.975681 -0.219196 -0.000200
vn -0.975681 -0.219196 -0.000200
vn -0.975681 -0.219196 -0.000200
vn -0.975681 -0.219196 -0.000200
vn -0.946603 0.322401 -0.000200
vn -0.946603 0.322401 -0.000200
vn -0.946603 0.322401 -0.000200
vn -0.946603 0.322401 -0.000200
vn -0.841646 0.540030 -0.000100
vn -0.841646 0.540030 -0.000100
vn -0.841646 0.540030 -0.000100
vn -0.841646 0.540030 -0.000100
vn -0.800468 0.599376 -0.000100
vn -0.800468 0.599376 -0.000100
vn -0.800468 0.599376 -0.000100
vn -0.800468 0.599376 -0.000100
vn -1.000000 0.000000 -0.000200
vn -1.000000 0.000000 -0.000200
vn -1.000000 0.000000 -0.000200
vn -1.000000 0.000000 -0.000200
vn -0.892781 0.450491 -0.000100
vn -0.892781 0.450491 -0.000100
vn -0.892781 0.450491 -0.000100
vn -0.892781 0.450491 -0.000100
vn -0.000000 1.000000 -0.000000
vn -0.000000 1.000000 -0.000000
vn -0.000000 1.000000 -0.000000
vn -0.000000 1.000000 -0.000000
vn -0.594498 0.000000 0.804097
vn -0.594498 0.000000 0.804097
vn -0.594498 0.000000 0.804097
vn -0.594498 0.000000 0.804097
vn -1.000000 0.000000 0.000000
vn -1.000000 0.000000 0.000000
vn -1.000000 0.000000 0.000000
vn -1.000000 0.000000 0.000000
vn -0.639387 0.768885 -0.000000
vn -0.639387 0.768885 -0.000000
vn -0.639387 0.768885 -0.000000
vn -0.639387 0.768885 -0.000000
vn -0.844644 -0.535328 0.000000
vn -0.844644 -0.535328 0.000000
vn -0.844644 -0.535328 0.000000
vn -0.844644 -0.535328 0.000000
vn -0.844644 0.535328 -0.000000
vn -0.844644 0.535328 -0.000000
vn -0.844644 0.535328 -0.000000
vn -0.844644 0.535328 -0.000000
vn -0.814321 0.000000 -0.580415
vn -0.814321 0.000000 -0.580415
vn -0.814321 0.000000 -0.580415
vn -0.814321 0.000000 -0.580415
vn -0.639387 -0.768885 0.000000
vn -0.639387 -0.768885 0.000000
vn -0.639387 -0.768885 0.000000
vn -0.639387 -0.768885 0.000000
vn -0.913733 0.000000 0.406315
vn -0.913733 0.000000 0.406315
vn -0.913733 0.000000 0.406315
vn -0.913733 0.000000 0.406315
vn -0.000000 1.000000 -0.000000
vn -0.000000 1.000000 -0.000000
vn -0.000000 1.000000 -0.000000
vn -0.000000 1.000000 -0.000000
vn -0.774398 -0.632699 0.000000
vn -0.774398 -0.632699 0.000000
vn -0.774398 -0.632699 0.000000
vn -0.774398 -0.632699 0.000000
vn -0.000000 1.000000 -0.000000
vn -0.000000 1.000000 -0.000000
vn -0.000000 1.000000 -0.000000
vn -0.000000 1.000000 -0.000000
vn -0.774398 -0.632699 0.000000
vn -0.774398 -0.632699 0.000000
vn -0.774398 -0.632699 0.000000
vn -0.774398 -0.632699 0.000000
vn 0.000000 -1.000000 0.000000
vn 0.000000 -1.000000 0.000000
vn 0.000000 -1.000000 0.000000
vn 0.000000 -1.000000 0.000000
vn 0.000000 -1.000000 0.000000
vn 0.000000 -1.000000 0.000000
vn 0.000000 -1.000000 0.000000
vn 0.000000 -1.000000 0.000000
vn -1.000000 0.000000 0.000000
vn -1.000000 0.000000 0.000000
vn -1.000000 0.000000 0.000000
vn -1.000000 0.000000 0.000000
vn -1.000000 0.000000 0.000000
vn -1.000000 0.000000 0.000000
vn -1.000000 0.000000 0.000000
vn -1.000000 0.000000 0.000000
vn -0.000000 1.000000 -0.000000
vn -0.000000 1.000000 -0.000000
vn -0.000000 1.000000 -0.000000
vn -0.000000 1.000000 -0.000000
vn -0.000000 1.000000 -0.000000
vn -0.000000 1.000000 -0.000000
vn -0.000000 1.000000 -0.000000
vn -0.000000 1.000000 -0.000000
vn -0.892680 0.450690 -0.000200
vn -0.892680 0.450690 -0.000200
vn -0.892680 0.450690 -0.000200
vn -0.892680 0.450690 -0.000200
vn -1.000000 0.000000 -0.000500
vn -1.000000 0.000000 -0.000500
vn -1.000000 0.000000 -0.000500
vn -1.000000 0.000000 -0.000500
vn -0.800468 0.599376 -0.000400
vn -0.800468 0.599376 -0.000400
vn -0.800468 0.599376 -0.000400
vn -0.800468 0.599376 -0.000400
vn -0.841601 0.540100 -0.000400
vn -0.841601 0.540100 -0.000400
vn -0.841601 0.540100 -0.000400
vn -0.841601 0.540100 -0.000400
vn -0.946675 0.322191 -0.000400
vn -0.946675 0.322191 -0.000400
vn -0.946675 0.322191 -0.000400
vn -0.946675 0.322191 -0.000400
vn -0.975681 -0.219196 -0.000400
vn -0.975681 -0.219196 -0.000400
vn -0.975681 -0.219196 -0.000400
vn -0.975681 -0.219196 -0.000400
vn -0.871169 -0.490983 -0.000200
vn -0.871169 -0.490983 -0.000200
vn -0.871169 -0.490983 -0.000200
vn -0.871169 -0.490983 -0.000200
vn -0.871169 -0.490983 0.000100
vn -0.871169 -0.490983 0.000100
vn -0.871169 -0.490983 0.000100
vn -0.871169 -0.490983 0.000100
vn -0.975681 -0.219196 0.000100
vn -0.975681 -0.219196 0.000100
vn -0.975681 -0.219196 0.000100
vn -0.975681 -0.219196 0.000100
vn -0.946675 0.322191 0.000100
vn -0.946675 0.322191 0.000100
vn -0.946675 0.322191 0.000100
vn -0.946675 0.322191 0.000100
vn -0.841601 0.540100 0.000100
vn -0.841601 0.540100 0.000100
vn -0.841601 0.540100 0.000100
vn -0.841601 0.540100 0.000100
vn -0.800468 0.599376 0.000100
vn -0.800468 0.599376 0.000100
vn -0.800468 0.599376 0.000100
vn -0.800468 0.599376 0.000100
vn -1.000000 0.000000 0.000100
vn -1.000000 0.000000 0.000100
vn -1.000000 0.000000 0.000100
vn -1.000000 0.000000 0.000100
vn -0.892681 0.450690 0.000100
vn -0.892681 0.450690 0.000100
vn -0.892681 0.450690 0.000100
vn -0.892681 0.450690 0.000100
vn -0.000000 1.000000 -0.000000
vn -0.000000 1.000000 -0.000000
vn -0.000000 1.000000 -0.000000
vn -0.000000 1.000000 -0.000000
vn -0.000000 1.000000 -0.000000
vn -0.000000 1.000000 -0.000000
vn -0.000000 1.000000 -0.000000
vn -0.000000 1.000000 -0.000000
s off
g CornerBase_1
usemtl set7
f 1/1/1 2/2/2 4/3/3 3/4/4
f 9/5/5 10/6/6 2/2/7 1/1/8
f 8/7/9 4/3/10 2/2/11 10/6/12
f 4/3/13 8/7/14 12/8/15 5/140/16
f 7/10/17 3/4/18 6/139/19 11/136/20
f 3/4/21 4/3/22 5/140/23 6/139/24
f 3/4/25 7/10/26 9/5/27 1/1/28
f 6/139/29 5/140/30 13/141/31 14/14/32
f 6/11/33 14/138/34 18/15/35 20/16/36
f 19/17/37 20/16/38 15/18/39 16/19/40
f 11/12/41 6/11/42 20/16/43 19/17/44
f 20/16/45 18/15/46 17/20/47 15/18/48
f 13/13/49 5/9/50 34/21/51 28/22/52
f 5/9/53 12/137/54 31/23/55 34/21/56
f 28/22/57 34/21/58 40/24/59 41/25/60
f 34/21/61 31/23/62 23/26/63 40/24/64
f 41/25/65 40/24/66 42/27/67 44/28/68
f 40/24/69 23/26/70 43/29/71 42/27/72
f 39/30/73 37/31/74 50/32/75 36/33/76
f 36/33/77 50/32/78 49/34/79 33/35/80
f 33/35/81 49/34/82 48/36/83 30/37/84
f 30/37/85 48/36/86 47/38/87 27/39/88
f 27/39/89 47/38/90 46/40/91 25/41/92
f 25/41/93 46/40/94 45/42/95 22/43/96
f 22/43/97 45/42/98 15/18/99 17/20/100
f 16/19/101 15/18/102 45/42/103 21/44/104
f 24/45/105 21/44/106 45/42/107 46/40/108
f 26/46/109 24/45/110 46/40/111 47/38/112
f 29/47/113 26/46/114 47/38/115 48/36/116
f 32/48/117 29/47/118 48/36/119 49/34/120
f 35/49/121 32/48/122 49/34/123 50/32/124
f 37/31/125 38/50/126 35/49/127 50/32/128
f 44/28/129 42/27/130 51/51/131 53/52/132
f 42/27/133 43/29/134 52/53/135 51/51/136
f 54/54/137 56/55/138 57/56/139 55/57/140
f 9/5/141 54/54/142 55/57/143 10/6/144
f 8/7/145 10/6/146 55/57/147 57/56/148
f 57/56/149 66/58/150 12/8/151 8/7/152
f 7/10/153 11/136/154 67/134/155 56/55/156
f 56/55/157 67/134/158 66/58/159 57/56/160
f 56/55/161 54/54/162 9/5/163 7/10/164
f 19/17/165 16/19/166 74/60/167 77/61/168
f 11/12/169 19/17/170 77/61/171 67/59/172
f 66/135/173 58/62/174 31/23/175 12/137/176
f 58/62/177 87/63/178 23/26/179 31/23/180
f 87/63/181 88/64/182 43/29/183 23/26/184
f 16/19/185 21/44/186 90/65/187 74/60/188
f 24/45/189 91/66/190 90/65/191 21/44/192
f 26/46/193 60/67/194 91/66/195 24/45/196
f 29/47/197 92/68/198 60/67/199 26/46/200
f 32/48/201 93/69/202 92/68/203 29/47/204
f 35/49/205 61/70/206 93/69/207 32/48/208
f 59/71/209 61/70/210 35/49/211 38/50/212
f 88/64/213 94/72/214 52/53/215 43/29/216
f 62/73/217 63/74/218 65/75/219 64/76/220
f 70/77/221 71/78/222 63/74/223 62/73/224
f 69/79/225 65/75/226 63/74/227 71/78/228
f 65/75/229 69/79/230 73/80/231 66/58/232
f 68/81/233 64/76/234 67/134/235 72/142/236
f 64/76/237 65/75/238 66/58/239 67/134/240
f 64/76/241 68/81/242 70/77/243 62/73/244
f 76/83/245 77/61/246 74/60/247 75/84/248
f 72/82/249 67/59/250 77/61/251 76/83/252
f 66/135/253 73/133/254 83/85/255 58/62/256
f 58/62/257 83/85/258 79/86/259 87/63/260
f 87/63/261 79/86/262 89/87/263 88/64/264
f 75/84/265 74/60/266 90/65/267 78/88/268
f 80/89/269 78/88/270 90/65/271 91/66/272
f 81/90/273 80/89/274 91/66/275 60/67/276
f 82/91/277 81/90/278 60/67/279 92/68/280
f 84/92/281 82/91/282 92/68/283 93/69/284
f 85/93/285 84/92/286 93/69/287 61/70/288
f 59/71/289 86/94/290 85/93/291 61/70/292
f 88/64/293 89/87/294 95/95/295 94/72/296
f 96/96/297 98/97/298 99/98/299 97/99/300
f 70/77/301 96/96/302 97/99/303 71/78/304
f 69/79/305 71/78/306 97/99/307 99/98/308
f 99/98/309 100/131/310 73/80/311 69/79/312
f 68/81/313 72/142/314 101/143/315 98/97/316
f 98/97/317 101/143/318 100/131/319 99/98/320
f 98/97/321 96/96/322 70/77/323 68/81/324
f 101/143/325 103/132/326 102/103/327 100/131/328
f 101/101/329 107/104/330 106/105/331 103/102/332
f 76/83/333 75/84/334 104/106/335 107/104/336
f 72/82/337 76/83/338 107/104/339 101/101/340
f 107/104/341 104/106/342 105/107/343 106/105/344
f 102/130/345 111/108/346 114/109/347 100/100/348
f 100/100/349 114/109/350 83/85/351 73/133/352
f 111/108/353 119/110/354 118/111/355 114/109/356
f 114/109/357 118/111/358 79/86/359 83/85/360
f 119/110/361 121/112/362 120/113/363 118/111/364
f 118/111/365 120/113/366 89/87/367 79/86/368
f 117/114/369 115/115/370 127/116/371 116/117/372
f 115/115/373 113/118/374 126/119/375 127/116/376
f 113/118/377 112/120/378 125/121/379 126/119/380
f 112/120/381 110/122/382 124/123/383 125/121/384
f 110/122/385 109/124/386 123/125/387 124/123/388
f 109/124/389 108/126/390 122/127/391 123/125/392
f 108/126/393 105/107/394 104/106/395 122/127/396
f 75/84/397 78/88/398 122/127/399 104/106/400
f 80/89/401 123/125/402 122/127/403 78/88/404
f 81/90/405 124/123/406 123/125/407 80/89/408
f 82/91/409 125/121/410 124/123/411 81/90/412
f 84/92/413 126/119/414 125/121/415 82/91/416
f 85/93/417 127/116/418 126/119/419 84/92/420
f 116/117/421 127/116/422 85/93/423 86/94/424
f 121/112/425 129/128/426 128/129/427 120/113/428
f 120/113/429 128/129/430 95/95/431 89/87/432
