# This file uses centimeters as units for non-parametric coordinates.

mtllib DoorSpace1.mtl
g default
v 2.500000 0.000000 0.070000
v 2.500000 3.500000 0.070000
v 3.500000 0.000000 0.070000
v 3.500000 3.500000 0.070000
v 3.500000 2.533271 0.070000
v 2.500000 2.533271 0.070000
v 0.000000 0.000000 0.070000
v 0.000000 3.500000 0.070000
v 1.000000 0.000000 0.070000
v 1.000000 3.500000 0.070000
v 1.000000 2.533271 0.070000
v 0.000000 2.533271 0.070000
v 1.750000 3.500000 0.070000
v 1.750000 2.533271 0.070000
vt 0.717316 0.253384
vt 0.716046 0.499619
vt 0.003606 0.499470
vt 0.003604 0.253389
vt 0.999982 0.253382
vt 0.999984 0.499619
vt 0.715710 0.253073
vt 0.715734 0.499808
vt 0.007181 0.499511
vt 0.007157 0.254459
vt 0.999772 0.500873
vt 0.999980 0.499808
vt 0.999741 0.253626
vt 0.716645 0.254018
vt 0.716662 0.500897
vt 0.999956 0.253053
vt 0.999723 0.499619
vt 0.717318 0.499619
vt 0.999754 0.253995
vt 0.716063 0.253603
vn 0.000000 0.000000 1.000000
vn 0.000000 0.000000 1.000000
vn 0.000000 0.000000 1.000000
vn 0.000000 0.000000 1.000000
vn 0.000000 0.000000 1.000000
vn 0.000000 0.000000 1.000000
vn 0.000000 0.000000 1.000000
vn 0.000000 0.000000 1.000000
vn 0.000000 0.000000 1.000000
vn 0.000000 0.000000 1.000000
vn 0.000000 0.000000 1.000000
vn 0.000000 0.000000 1.000000
vn 0.000000 0.000000 1.000000
vn 0.000000 0.000000 1.000000
vn 0.000000 0.000000 1.000000
vn 0.000000 0.000000 1.000000
vn 0.000000 0.000000 1.000000
vn 0.000000 0.000000 1.000000
s 1
g DoorSpace1
usemtl set7
f 5/1/1 6/18/2 1/3/3 3/4/4
f 4/5/5 2/6/6 6/18/2 5/1/1
s 2
f 11/7/7 12/8/8 7/9/9 9/10/10
f 10/16/11 8/12/12 12/8/8 11/7/7
s 3
f 6/2/13 2/17/14 13/13/15 14/20/16
f 14/14/16 13/19/15 10/11/17 11/15/18
