# This file uses centimeters as units for non-parametric coordinates.

mtllib Floor2.mtl
g default
v 0.000000 0.000000 0.000000
v 0.000000 0.000000 -2.000000
v 2.000000 0.000000 0.000000
v 2.000000 0.000000 -2.000000
v 0.000000 0.000000 -1.000000
v 2.000000 0.000000 -1.000000
vt 0.500026 0.501570
vt 0.999998 0.501570
vt 1.000009 0.748837
vt 0.499975 0.748837
vt 0.999998 0.747011
vt 0.499975 0.502222
vt 1.000009 0.502222
vt 0.500026 0.747011
vn -0.000000 1.000000 -0.000000
vn -0.000000 1.000000 -0.000000
vn 0.000000 1.000000 0.000000
vn 0.000000 1.000000 0.000000
vn -0.000000 1.000000 -0.000000
vn -0.000000 1.000000 -0.000000
s 1
g Floor2
usemtl initialShadingGroup
f 4/1/1 2/2/2 5/5/3 6/8/4
f 6/6/4 5/7/3 1/3/5 3/4/6
