# Blender 4.4.0
# www.blender.org
mtllib Entrepiso.mtl
o Baranda
v -2.000000 0.148045 -0.000000
v 0.000000 0.148045 -0.000000
v -2.000000 0.000000 -0.000000
v 0.000000 0.000000 -0.000000
v -2.000000 0.148045 -1.999630
v 0.000000 0.148045 -1.999630
v -2.000000 0.000000 -1.999630
v 0.000000 0.000000 -1.999630
v -1.000000 0.000000 -0.000000
v -1.000000 0.000000 -1.999630
v -1.000000 0.148045 -0.000000
v -1.000000 0.148045 -1.999630
vn -0.0000 1.0000 -0.0000
vn -0.0000 -1.0000 -0.0000
vt 0.009623 0.249391
vt 0.009623 0.001401
vt 0.991143 0.001402
vt 0.991143 0.249391
vt 0.991143 0.249012
vt 0.009623 0.249012
vt 0.009623 0.001287
vt 0.991143 0.001287
vt 0.991143 0.249747
vt 0.009623 0.249748
vt 0.009623 0.002219
vt 0.991143 0.002219
vt 0.009623 0.248275
vt 0.009623 0.000354
vt 0.991143 0.000355
vt 0.991143 0.248275
s 0
usemtl Material.003
f 12/1/1 5/2/1 1/3/1 11/4/1
f 10/5/2 9/6/2 3/7/2 7/8/2
f 8/9/2 4/10/2 9/11/2 10/12/2
f 6/13/1 12/14/1 11/15/1 2/16/1
