# This file uses centimeters as units for non-parametric coordinates.

mtllib MainColumn.mtl
g default
v 0.186726 0.000000 0.211824
v 0.222078 0.000000 0.176472
v 0.186726 3.500000 0.211824
v 0.222078 3.500000 0.176472
v 0.021726 0.000000 0.211824
v -0.013626 0.000000 0.176472
v 0.021726 3.500000 0.211824
v -0.013626 3.500000 0.176472
v 0.186726 3.500000 -0.211824
v 0.222078 3.500000 -0.176472
v 0.186726 0.000000 -0.211824
v 0.222078 0.000000 -0.176472
v 0.021726 3.500000 -0.211824
v -0.013626 3.500000 -0.176472
v 0.021726 0.000000 -0.211824
v -0.013626 0.000000 -0.176472
v 0.186726 1.750000 0.211824
v 0.021726 1.750000 0.211824
v -0.013626 1.750000 0.176472
v -0.013626 1.750000 -0.176472
v 0.021726 1.750000 -0.211824
v 0.186726 1.750000 -0.211824
v 0.222078 1.750000 -0.176472
v 0.222078 1.750000 0.176472
vt 0.905530 0.832649
vt 0.899256 0.826375
vt 0.899254 0.797091
vt 0.905528 0.790816
vt 0.968169 0.790814
vt 0.974443 0.797088
vt 0.974444 0.826372
vt 0.968171 0.832646
vt 0.905720 0.832931
vt 0.899390 0.826714
vt 0.899124 0.797431
vt 0.905341 0.791100
vt 0.967978 0.790532
vt 0.974309 0.796749
vt 0.974575 0.826032
vt 0.968358 0.832363
vt 0.128283 0.765070
vt 0.128287 0.794133
vt 0.128283 0.758790
vt 0.128290 0.758785
vt 0.128287 0.821078
vt 0.128288 0.806699
vt 0.128279 0.868955
vt 0.128294 0.869034
vt 0.128288 0.833654
vt 0.128280 0.862707
vt 0.128290 0.764992
vt 0.128286 0.794212
vt 0.128286 0.806620
vt 0.128286 0.821166
vt 0.128285 0.833566
vt 0.128294 0.869038
vt 0.128293 0.862795
vt 0.128279 0.868951
vt 0.757740 0.765038
vt 0.757744 0.794165
vt 0.757743 0.806653
vt 0.757737 0.868988
vt 0.757751 0.868988
vt 0.757750 0.862744
vt 0.757746 0.833603
vt 0.757743 0.821115
vt 0.757741 0.758780
vt 0.757747 0.758794
vt 0.757747 0.765024
vt 0.757744 0.821129
vt 0.757742 0.833617
vt 0.757737 0.862758
vt 0.757751 0.869002
vt 0.757736 0.869001
vt 0.757745 0.806667
vt 0.757744 0.794179
vn 0.173766 0.000000 0.984787
vn 0.173766 0.000000 0.984787
vn -0.173765 0.000000 0.984787
vn -0.173765 0.000000 0.984787
vn -0.173765 0.000000 -0.984787
vn 0.173766 0.000000 -0.984787
vn 0.173766 0.000000 -0.984787
vn -0.173765 0.000000 -0.984787
vn 0.995881 0.000000 -0.090669
vn 0.995881 0.000000 0.090669
vn 0.995881 0.000000 0.090669
vn 0.995881 0.000000 -0.090669
vn -0.995881 0.000000 0.090670
vn -0.995881 0.000000 0.090670
vn -0.995881 0.000000 -0.090670
vn -0.995881 0.000000 -0.090670
vn 0.000000 1.000000 0.000000
vn 0.000000 1.000000 0.000000
vn 0.000000 1.000000 0.000000
vn 0.000000 1.000000 0.000000
vn 0.000000 -1.000000 0.000000
vn 0.000000 -1.000000 0.000000
vn 0.000000 -1.000000 0.000000
vn 0.000000 -1.000000 0.000000
vn 0.000000 1.000000 0.000000
vn 0.000000 1.000000 0.000000
vn 0.000000 1.000000 0.000000
vn 0.000000 1.000000 0.000000
vn 0.000000 -1.000000 0.000000
vn 0.000000 -1.000000 0.000000
vn 0.000000 -1.000000 0.000000
vn 0.000000 -1.000000 0.000000
vn 0.173766 0.000000 0.984787
vn -0.173765 0.000000 0.984787
vn -0.995881 0.000000 0.090670
vn -0.995881 0.000000 -0.090670
vn -0.173765 0.000000 -0.984787
vn 0.173766 0.000000 -0.984787
vn 0.995881 0.000000 -0.090669
vn 0.995881 0.000000 0.090669
s 1
g Main_Column
usemtl initialShadingGroup
f 1/17/1 17/35/2 18/52/3 5/28/4
f 21/48/5 22/47/6 11/31/7 15/26/8
f 23/46/9 24/44/10 2/20/11 12/21/12
f 6/22/13 19/51/14 20/49/15 16/24/16
s 4
f 14/8/17 10/5/18 9/6/19 13/7/20
s 5
f 16/9/21 15/10/22 11/11/23 12/12/24
s 1
f 1/17/1 2/20/11 24/44/10 17/35/2
f 6/22/13 5/28/4 18/52/3 19/51/14
f 22/47/6 23/46/9 12/21/12 11/31/7
f 20/50/15 21/48/5 15/26/8 16/34/16
s 4
f 8/1/25 7/2/26 3/3/27 4/4/28
f 8/1/25 4/4/28 10/5/18 14/8/17
s 5
f 6/16/29 2/13/30 1/14/31 5/15/32
f 16/9/21 12/12/24 2/13/30 6/16/29
s 1
f 18/36/3 17/45/2 3/27/33 7/18/34
f 19/37/14 18/36/3 7/18/34 8/29/35
f 20/38/15 19/37/14 8/29/35 14/23/36
f 14/32/36 13/33/37 21/40/5 20/39/15
f 9/25/38 22/41/6 21/40/5 13/33/37
f 9/25/38 10/30/39 23/42/9 22/41/6
f 4/19/40 24/43/10 23/42/9 10/30/39
f 17/45/2 24/43/10 4/19/40 3/27/33
