# This file uses centimeters as units for non-parametric coordinates.

mtllib MainColumn.mtl
g default
v 0.186726 0.000000 0.211824
v 0.222078 0.000000 0.176472
v 0.186726 3.500000 0.211824
v 0.222078 3.500000 0.176472
v 0.021726 0.000000 0.211824
v -0.013626 0.000000 0.176472
v 0.021726 3.500000 0.211824
v -0.013626 3.500000 0.176472
v 0.186726 3.500000 -0.211824
v 0.222078 3.500000 -0.176472
v 0.186726 0.000000 -0.211824
v 0.222078 0.000000 -0.176472
v 0.021726 3.500000 -0.211824
v -0.013626 3.500000 -0.176472
v 0.021726 0.000000 -0.211824
v -0.013626 0.000000 -0.176472
vt 0.905530 0.832649
vt 0.899256 0.826375
vt 0.899254 0.797091
vt 0.905528 0.790816
vt 0.968169 0.790814
vt 0.974443 0.797088
vt 0.974444 0.826372
vt 0.968171 0.832646
vt 0.905720 0.832931
vt 0.899390 0.826714
vt 0.899124 0.797431
vt 0.905341 0.791100
vt 0.967978 0.790532
vt 0.974309 0.796749
vt 0.974575 0.826032
vt 0.968358 0.832363
vt 0.706230 0.765061
vt 0.088077 0.794138
vt 0.088066 0.758836
vt 0.706216 0.758734
vt 0.706226 0.821069
vt 0.706226 0.806690
vt 0.088069 0.868960
vt 0.706219 0.869025
vt 0.088078 0.833658
vt 0.706233 0.862698
vt 0.706231 0.758817
vt 0.088081 0.758753
vt 0.088080 0.764996
vt 0.706227 0.794202
vt 0.088076 0.806625
vt 0.088076 0.821171
vt 0.706228 0.833556
vt 0.088084 0.869043
vt 0.088083 0.862800
vt 0.706234 0.868941
vn 0.173766 0.000000 0.984787
vn 0.173766 0.000000 0.984787
vn -0.173765 0.000000 0.984787
vn -0.173765 0.000000 0.984787
vn 0.173766 0.000000 -0.984787
vn 0.173766 0.000000 -0.984787
vn -0.173765 0.000000 -0.984787
vn -0.173765 0.000000 -0.984787
vn 0.995881 0.000000 0.090669
vn 0.995881 0.000000 0.090669
vn 0.995881 0.000000 -0.090669
vn 0.995881 0.000000 -0.090669
vn -0.995881 0.000000 0.090670
vn -0.995881 0.000000 0.090670
vn -0.995881 0.000000 -0.090670
vn -0.995881 0.000000 -0.090670
vn 0.000000 1.000000 0.000000
vn 0.000000 1.000000 0.000000
vn 0.000000 1.000000 0.000000
vn 0.000000 1.000000 0.000000
vn 0.000000 -1.000000 0.000000
vn 0.000000 -1.000000 0.000000
vn 0.000000 -1.000000 0.000000
vn 0.000000 -1.000000 0.000000
vn 0.000000 1.000000 0.000000
vn 0.000000 1.000000 0.000000
vn 0.000000 1.000000 0.000000
vn 0.000000 1.000000 0.000000
vn 0.000000 -1.000000 0.000000
vn 0.000000 -1.000000 0.000000
vn 0.000000 -1.000000 0.000000
vn 0.000000 -1.000000 0.000000
s 1
g Main_Column
usemtl set7
f 1/17/1 3/29/2 7/18/3 5/30/4
f 9/25/5 11/33/6 15/26/7 13/35/8
f 4/19/9 2/20/10 12/21/11 10/32/12
f 6/22/13 8/31/14 14/23/15 16/24/16
s 3
f 14/8/17 10/5/18 9/6/19 13/7/20
s 4
f 16/9/21 15/10/22 11/11/23 12/12/24
s 1
f 1/17/1 2/27/10 4/28/9 3/29/2
f 6/22/13 5/30/4 7/18/3 8/31/14
f 9/25/5 10/32/12 12/21/11 11/33/6
f 14/34/15 13/35/8 15/26/7 16/36/16
s 3
f 8/1/25 7/2/26 3/3/27 4/4/28
f 8/1/25 4/4/28 10/5/18 14/8/17
s 4
f 6/16/29 2/13/30 1/14/31 5/15/32
f 16/9/21 12/12/24 2/13/30 6/16/29
