# Blender 4.4.0
# www.blender.org
mtllib Baranda.mtl
o Entrepiso
v 0.000000 0.125583 -2.208178
v -1.000000 0.074022 -2.186069
v -1.000000 0.125583 -2.208178
v 0.000000 0.074022 -2.186069
v 0.000000 0.104959 -2.192098
v 0.000000 0.084335 -2.186069
v -1.000000 0.146995 -2.211035
v 0.000000 0.146995 -2.211035
v 0.000000 0.126633 -2.211035
v -1.000000 0.126633 -2.211035
v -1.000000 0.148045 -2.208178
v 0.000000 0.148045 -2.208178
v -1.000000 0.104959 -2.192098
v -1.000000 0.084335 -2.186069
v -1.000000 0.145348 -2.214625
v 0.000000 0.145348 -2.214625
v -1.000000 0.128280 -2.214625
v 0.000000 0.128280 -2.214625
v 0.000000 0.143319 -2.217961
v 0.000000 0.130309 -2.217961
v -1.000000 0.130309 -2.217961
v -1.000000 0.143319 -2.217961
v 0.000000 0.140427 -2.220937
v 0.000000 0.133201 -2.220937
v -1.000000 0.133201 -2.220937
v -1.000000 0.140427 -2.220937
v 0.000000 0.022462 -2.208178
v -1.000000 0.022462 -2.208178
v 0.000000 0.043086 -2.192098
v 0.000000 0.063710 -2.186069
v -1.000000 0.001050 -2.211035
v 0.000000 0.001050 -2.211035
v 0.000000 0.021412 -2.211035
v -1.000000 0.021412 -2.211035
v -1.000000 0.000000 -2.208178
v 0.000000 0.000000 -2.208178
v -1.000000 0.043086 -2.192098
v -1.000000 0.063710 -2.186069
v -1.000000 0.002697 -2.214625
v 0.000000 0.002697 -2.214625
v -1.000000 0.019765 -2.214625
v 0.000000 0.019765 -2.214625
v 0.000000 0.004726 -2.217961
v 0.000000 0.017736 -2.217961
v -1.000000 0.017736 -2.217961
v -1.000000 0.004726 -2.217961
v 0.000000 0.007618 -2.220937
v 0.000000 0.014844 -2.220937
v -1.000000 0.014844 -2.220937
v -1.000000 0.007618 -2.220937
v -0.750000 0.148045 -2.181894
v -0.750000 1.148045 -2.181894
v -0.735368 0.148045 -2.180453
v -0.735368 1.148045 -2.180453
v -0.721299 0.148045 -2.176185
v -0.721299 1.148045 -2.176185
v -0.708332 0.148045 -2.169254
v -0.708332 1.148045 -2.169254
v -0.696967 0.148045 -2.159927
v -0.696967 1.148045 -2.159927
v -0.687640 0.148045 -2.148561
v -0.687640 1.148045 -2.148561
v -0.680709 0.148045 -2.135595
v -0.680709 1.148045 -2.135595
v -0.676441 0.148045 -2.121526
v -0.676441 1.148045 -2.121526
v -0.675000 0.148045 -2.106894
v -0.675000 1.148045 -2.106894
v -0.676441 0.148045 -2.092262
v -0.676441 1.148045 -2.092262
v -0.680709 0.148045 -2.078193
v -0.680709 1.148045 -2.078193
v -0.687640 0.148045 -2.065226
v -0.687640 1.148045 -2.065226
v -0.696967 0.148045 -2.053861
v -0.696967 1.148045 -2.053861
v -0.708332 0.148045 -2.044534
v -0.708332 1.148045 -2.044534
v -0.721299 0.148045 -2.037603
v -0.721299 1.148045 -2.037603
v -0.735368 0.148045 -2.033335
v -0.735368 1.148045 -2.033335
v -0.750000 0.148045 -2.031894
v -0.750000 1.148045 -2.031894
v -0.764632 0.148045 -2.033335
v -0.764632 1.148045 -2.033335
v -0.778701 0.148045 -2.037603
v -0.778701 1.148045 -2.037603
v -0.791668 0.148045 -2.044534
v -0.791668 1.148045 -2.044534
v -0.803033 0.148045 -2.053861
v -0.803033 1.148045 -2.053861
v -0.812360 0.148045 -2.065226
v -0.812360 1.148045 -2.065226
v -0.819291 0.148045 -2.078193
v -0.819291 1.148045 -2.078193
v -0.823559 0.148045 -2.092262
v -0.823559 1.148045 -2.092262
v -0.825000 0.148045 -2.106894
v -0.825000 1.148045 -2.106894
v -0.823559 0.148045 -2.121526
v -0.823559 1.148045 -2.121526
v -0.819291 0.148045 -2.135595
v -0.819291 1.148045 -2.135595
v -0.812360 0.148045 -2.148561
v -0.812360 1.148045 -2.148561
v -0.803033 0.148045 -2.159927
v -0.803033 1.148045 -2.159927
v -0.791668 0.148045 -2.169254
v -0.791668 1.148045 -2.169254
v -0.778701 0.148045 -2.176185
v -0.778701 1.148045 -2.176185
v -0.764632 0.148045 -2.180453
v -0.764632 1.148045 -2.180453
v -0.750000 0.206869 -2.158365
v -0.750000 0.265692 -2.181894
v -0.750000 0.443328 -2.164897
v -0.750000 0.455514 -2.180157
v -0.750000 0.468847 -2.174285
v -0.750000 0.827243 -2.174285
v -0.750000 0.840576 -2.180157
v -0.750000 0.852762 -2.164897
v -0.750000 1.030398 -2.181894
v -0.750000 1.089221 -2.158365
v -0.739483 1.089221 -2.157376
v -0.735368 1.030398 -2.180453
v -0.738684 0.852762 -2.163783
v -0.735607 0.840576 -2.178750
v -0.736729 0.827243 -2.172991
v -0.736729 0.468847 -2.172991
v -0.735607 0.455514 -2.178750
v -0.738684 0.443328 -2.163783
v -0.735368 0.265692 -2.180453
v -0.739483 0.206869 -2.157376
v -0.729370 1.089221 -2.154448
v -0.721299 1.030398 -2.176185
v -0.727803 0.852762 -2.160482
v -0.721767 0.840576 -2.174580
v -0.723968 0.827243 -2.169156
v -0.723968 0.468847 -2.169156
v -0.721767 0.455514 -2.174580
v -0.727803 0.443328 -2.160482
v -0.721299 0.265692 -2.176185
v -0.729370 0.206869 -2.154448
v -0.720050 1.089221 -2.149691
v -0.708332 1.030398 -2.169254
v -0.717775 0.852762 -2.155122
v -0.709012 0.840576 -2.167810
v -0.712208 0.827243 -2.162928
v -0.712208 0.468847 -2.162928
v -0.709012 0.455514 -2.167810
v -0.717775 0.443328 -2.155122
v -0.708332 0.265692 -2.169254
v -0.720050 0.206869 -2.149691
v -0.711880 1.089221 -2.143290
v -0.696967 1.030398 -2.159927
v -0.708985 0.852762 -2.147908
v -0.697832 0.840576 -2.158699
v -0.701900 0.827243 -2.154547
v -0.701900 0.468847 -2.154547
v -0.697832 0.455514 -2.158699
v -0.708985 0.443328 -2.147908
v -0.696967 0.265692 -2.159927
v -0.711880 0.206869 -2.143290
v -0.705176 1.089221 -2.135490
v -0.687640 1.030398 -2.148561
v -0.701772 0.852762 -2.139119
v -0.688657 0.840576 -2.147597
v -0.693440 0.827243 -2.144335
v -0.693440 0.468847 -2.144335
v -0.688657 0.455514 -2.147597
v -0.701772 0.443328 -2.139119
v -0.687640 0.265692 -2.148561
v -0.705176 0.206869 -2.135490
v -0.700194 1.089221 -2.126591
v -0.680709 1.030398 -2.135595
v -0.696412 0.852762 -2.129091
v -0.681839 0.840576 -2.134931
v -0.687154 0.827243 -2.132684
v -0.687154 0.468847 -2.132684
v -0.681839 0.455514 -2.134931
v -0.696412 0.443328 -2.129091
v -0.680709 0.265692 -2.135595
v -0.700194 0.206869 -2.126591
v -0.697126 1.089221 -2.116936
v -0.676441 1.030398 -2.121526
v -0.693111 0.852762 -2.118210
v -0.677641 0.840576 -2.121187
v -0.683283 0.827243 -2.120041
v -0.683283 0.468847 -2.120041
v -0.677641 0.455514 -2.121187
v -0.693111 0.443328 -2.118210
v -0.676441 0.265692 -2.121526
v -0.697126 0.206869 -2.116936
v -0.696091 1.089221 -2.106894
v -0.675000 1.030398 -2.106894
v -0.691997 0.852762 -2.106894
v -0.676223 0.840576 -2.106894
v -0.681976 0.827243 -2.106894
v -0.681976 0.468847 -2.106894
v -0.676223 0.455514 -2.106894
v -0.691997 0.443328 -2.106894
v -0.675000 0.265692 -2.106894
v -0.696091 0.206869 -2.106894
v -0.697126 1.089221 -2.096852
v -0.676441 1.030398 -2.092262
v -0.693111 0.852762 -2.095578
v -0.677641 0.840576 -2.092601
v -0.683283 0.827243 -2.093746
v -0.683283 0.468847 -2.093746
v -0.677641 0.455514 -2.092601
v -0.693111 0.443328 -2.095578
v -0.676441 0.265692 -2.092262
v -0.697126 0.206869 -2.096852
v -0.700194 1.089221 -2.087196
v -0.680709 1.030398 -2.078193
v -0.696412 0.852762 -2.084697
v -0.681839 0.840576 -2.078857
v -0.687154 0.827243 -2.081104
v -0.687154 0.468847 -2.081104
v -0.681839 0.455514 -2.078857
v -0.696412 0.443328 -2.084697
v -0.680709 0.265692 -2.078193
v -0.700194 0.206869 -2.087196
v -0.705176 1.089221 -2.078298
v -0.687640 1.030398 -2.065226
v -0.701772 0.852762 -2.074669
v -0.688657 0.840576 -2.066191
v -0.693440 0.827243 -2.069453
v -0.693440 0.468847 -2.069453
v -0.688657 0.455514 -2.066191
v -0.701772 0.443328 -2.074669
v -0.687640 0.265692 -2.065226
v -0.705176 0.206869 -2.078298
v -0.711880 1.089221 -2.070498
v -0.696967 1.030398 -2.053861
v -0.708985 0.852762 -2.065879
v -0.697832 0.840576 -2.055089
v -0.701900 0.827243 -2.059241
v -0.701900 0.468847 -2.059241
v -0.697832 0.455514 -2.055089
v -0.708985 0.443328 -2.065879
v -0.696967 0.265692 -2.053861
v -0.711880 0.206869 -2.070498
v -0.720050 1.089221 -2.064097
v -0.708332 1.030398 -2.044534
v -0.717775 0.852762 -2.058666
v -0.709012 0.840576 -2.045978
v -0.712208 0.827243 -2.050860
v -0.712208 0.468847 -2.050860
v -0.709012 0.455514 -2.045978
v -0.717775 0.443328 -2.058666
v -0.708332 0.265692 -2.044534
v -0.720050 0.206869 -2.064097
v -0.729370 1.089221 -2.059340
v -0.721299 1.030398 -2.037603
v -0.727803 0.852762 -2.053306
v -0.721767 0.840576 -2.039207
v -0.723968 0.827243 -2.044632
v -0.723968 0.468847 -2.044632
v -0.721767 0.455514 -2.039207
v -0.727803 0.443328 -2.053306
v -0.721299 0.265692 -2.037603
v -0.729370 0.206869 -2.059340
v -0.739483 1.089221 -2.056411
v -0.735368 1.030398 -2.033335
v -0.738684 0.852762 -2.050005
v -0.735607 0.840576 -2.035038
v -0.736729 0.827243 -2.040797
v -0.736729 0.468847 -2.040797
v -0.735607 0.455514 -2.035038
v -0.738684 0.443328 -2.050005
v -0.735368 0.265692 -2.033335
v -0.739483 0.206869 -2.056411
v -0.750000 1.089221 -2.055422
v -0.750000 1.030398 -2.031894
v -0.750000 0.852762 -2.048891
v -0.750000 0.840576 -2.033630
v -0.750000 0.827243 -2.039502
v -0.750000 0.468847 -2.039502
v -0.750000 0.455514 -2.033630
v -0.750000 0.443328 -2.048891
v -0.750000 0.265692 -2.031894
v -0.750000 0.206869 -2.055422
v -0.760517 1.089221 -2.056411
v -0.764632 1.030398 -2.033335
v -0.761316 0.852762 -2.050005
v -0.764393 0.840576 -2.035038
v -0.763271 0.827243 -2.040797
v -0.763271 0.468847 -2.040797
v -0.764393 0.455514 -2.035038
v -0.761316 0.443328 -2.050005
v -0.764632 0.265692 -2.033335
v -0.760517 0.206869 -2.056411
v -0.770630 1.089221 -2.059340
v -0.778701 1.030398 -2.037603
v -0.772197 0.852762 -2.053306
v -0.778233 0.840576 -2.039207
v -0.776031 0.827243 -2.044632
v -0.776031 0.468847 -2.044632
v -0.778233 0.455514 -2.039207
v -0.772197 0.443328 -2.053306
v -0.778701 0.265692 -2.037603
v -0.770630 0.206869 -2.059340
v -0.779950 1.089221 -2.064097
v -0.791668 1.030398 -2.044534
v -0.782225 0.852762 -2.058666
v -0.790988 0.840576 -2.045978
v -0.787792 0.827243 -2.050860
v -0.787792 0.468847 -2.050860
v -0.790988 0.455514 -2.045978
v -0.782225 0.443328 -2.058666
v -0.791668 0.265692 -2.044534
v -0.779950 0.206869 -2.064097
v -0.788120 1.089221 -2.070498
v -0.803033 1.030398 -2.053861
v -0.791014 0.852762 -2.065879
v -0.802168 0.840576 -2.055089
v -0.798100 0.827243 -2.059241
v -0.798100 0.468847 -2.059241
v -0.802168 0.455514 -2.055089
v -0.791014 0.443328 -2.065879
v -0.803033 0.265692 -2.053861
v -0.788120 0.206869 -2.070498
v -0.794824 1.089221 -2.078298
v -0.812360 1.030398 -2.065226
v -0.798228 0.852762 -2.074669
v -0.811343 0.840576 -2.066191
v -0.806560 0.827243 -2.069453
v -0.806560 0.468847 -2.069453
v -0.811343 0.455514 -2.066191
v -0.798228 0.443328 -2.074669
v -0.812360 0.265692 -2.065226
v -0.794824 0.206869 -2.078298
v -0.799806 1.089221 -2.087196
v -0.819291 1.030398 -2.078193
v -0.803588 0.852762 -2.084697
v -0.818161 0.840576 -2.078857
v -0.812846 0.827243 -2.081104
v -0.812846 0.468847 -2.081104
v -0.818161 0.455514 -2.078857
v -0.803588 0.443328 -2.084697
v -0.819291 0.265692 -2.078193
v -0.799806 0.206869 -2.087196
v -0.802873 1.089221 -2.096852
v -0.823559 1.030398 -2.092262
v -0.806889 0.852762 -2.095578
v -0.822359 0.840576 -2.092601
v -0.816717 0.827243 -2.093746
v -0.816717 0.468847 -2.093746
v -0.822359 0.455514 -2.092601
v -0.806889 0.443328 -2.095578
v -0.823559 0.265692 -2.092262
v -0.802873 0.206869 -2.096852
v -0.803909 1.089221 -2.106894
v -0.825000 1.030398 -2.106894
v -0.808003 0.852762 -2.106894
v -0.823777 0.840576 -2.106894
v -0.818024 0.827243 -2.106894
v -0.818024 0.468847 -2.106894
v -0.823777 0.455514 -2.106894
v -0.808003 0.443328 -2.106894
v -0.825000 0.265692 -2.106894
v -0.803909 0.206869 -2.106894
v -0.802873 1.089221 -2.116936
v -0.823559 1.030398 -2.121526
v -0.806889 0.852762 -2.118210
v -0.822359 0.840576 -2.121187
v -0.816717 0.827243 -2.120041
v -0.816717 0.468847 -2.120041
v -0.822359 0.455514 -2.121187
v -0.806889 0.443328 -2.118210
v -0.823559 0.265692 -2.121526
v -0.802873 0.206869 -2.116936
v -0.799806 1.089221 -2.126591
v -0.819291 1.030398 -2.135595
v -0.803588 0.852762 -2.129091
v -0.818161 0.840576 -2.134931
v -0.812846 0.827243 -2.132684
v -0.812846 0.468847 -2.132684
v -0.818161 0.455514 -2.134931
v -0.803588 0.443328 -2.129091
v -0.819291 0.265692 -2.135595
v -0.799806 0.206869 -2.126591
v -0.794824 1.089221 -2.135490
v -0.812360 1.030398 -2.148561
v -0.798228 0.852762 -2.139119
v -0.811343 0.840576 -2.147597
v -0.806560 0.827243 -2.144335
v -0.806560 0.468847 -2.144335
v -0.811343 0.455514 -2.147597
v -0.798228 0.443328 -2.139119
v -0.812360 0.265692 -2.148561
v -0.794824 0.206869 -2.135490
v -0.788120 1.089221 -2.143290
v -0.803033 1.030398 -2.159927
v -0.791014 0.852762 -2.147908
v -0.802168 0.840576 -2.158699
v -0.798100 0.827243 -2.154547
v -0.798100 0.468847 -2.154547
v -0.802168 0.455514 -2.158699
v -0.791014 0.443328 -2.147908
v -0.803033 0.265692 -2.159927
v -0.788120 0.206869 -2.143290
v -0.779950 1.089221 -2.149691
v -0.791668 1.030398 -2.169254
v -0.782225 0.852762 -2.155122
v -0.790988 0.840576 -2.167810
v -0.787792 0.827243 -2.162928
v -0.787792 0.468847 -2.162928
v -0.790988 0.455514 -2.167810
v -0.782225 0.443328 -2.155122
v -0.791668 0.265692 -2.169254
v -0.779950 0.206869 -2.149691
v -0.770630 1.089221 -2.154448
v -0.778701 1.030398 -2.176185
v -0.772197 0.852762 -2.160482
v -0.778233 0.840576 -2.174580
v -0.776031 0.827243 -2.169156
v -0.776031 0.468847 -2.169156
v -0.778233 0.455514 -2.174580
v -0.772197 0.443328 -2.160482
v -0.778701 0.265692 -2.176185
v -0.770630 0.206869 -2.154448
v -0.760517 1.089221 -2.157376
v -0.764632 1.030398 -2.180453
v -0.761316 0.852762 -2.163783
v -0.764393 0.840576 -2.178750
v -0.763271 0.827243 -2.172991
v -0.763271 0.468847 -2.172991
v -0.764393 0.455514 -2.178750
v -0.761316 0.443328 -2.163783
v -0.764632 0.265692 -2.180453
v -0.760517 0.206869 -2.157376
v -0.250000 0.148045 -2.181894
v -0.250000 1.148045 -2.181894
v -0.235368 0.148045 -2.180453
v -0.235368 1.148045 -2.180453
v -0.221299 0.148045 -2.176185
v -0.221299 1.148045 -2.176185
v -0.208332 0.148045 -2.169254
v -0.208332 1.148045 -2.169254
v -0.196967 0.148045 -2.159927
v -0.196967 1.148045 -2.159927
v -0.187640 0.148045 -2.148561
v -0.187640 1.148045 -2.148561
v -0.180709 0.148045 -2.135595
v -0.180709 1.148045 -2.135595
v -0.176441 0.148045 -2.121526
v -0.176441 1.148045 -2.121526
v -0.175000 0.148045 -2.106894
v -0.175000 1.148045 -2.106894
v -0.176441 0.148045 -2.092262
v -0.176441 1.148045 -2.092262
v -0.180709 0.148045 -2.078193
v -0.180709 1.148045 -2.078193
v -0.187640 0.148045 -2.065226
v -0.187640 1.148045 -2.065226
v -0.196967 0.148045 -2.053861
v -0.196967 1.148045 -2.053861
v -0.208332 0.148045 -2.044534
v -0.208332 1.148045 -2.044534
v -0.221299 0.148045 -2.037603
v -0.221299 1.148045 -2.037603
v -0.235368 0.148045 -2.033335
v -0.235368 1.148045 -2.033335
v -0.250000 0.148045 -2.031894
v -0.250000 1.148045 -2.031894
v -0.264632 0.148045 -2.033335
v -0.264632 1.148045 -2.033335
v -0.278701 0.148045 -2.037603
v -0.278701 1.148045 -2.037603
v -0.291668 0.148045 -2.044534
v -0.291668 1.148045 -2.044534
v -0.303033 0.148045 -2.053861
v -0.303033 1.148045 -2.053861
v -0.312360 0.148045 -2.065226
v -0.312360 1.148045 -2.065226
v -0.319291 0.148045 -2.078193
v -0.319291 1.148045 -2.078193
v -0.323559 0.148045 -2.092262
v -0.323559 1.148045 -2.092262
v -0.325000 0.148045 -2.106894
v -0.325000 1.148045 -2.106894
v -0.323559 0.148045 -2.121526
v -0.323559 1.148045 -2.121526
v -0.319291 0.148045 -2.135595
v -0.319291 1.148045 -2.135595
v -0.312360 0.148045 -2.148561
v -0.312360 1.148045 -2.148561
v -0.303033 0.148045 -2.159927
v -0.303033 1.148045 -2.159927
v -0.291668 0.148045 -2.169254
v -0.291668 1.148045 -2.169254
v -0.278701 0.148045 -2.176185
v -0.278701 1.148045 -2.176185
v -0.264632 0.148045 -2.180453
v -0.264632 1.148045 -2.180453
v -0.250000 0.206869 -2.158365
v -0.250000 0.265692 -2.181894
v -0.250000 0.443328 -2.164897
v -0.250000 0.455514 -2.180157
v -0.250000 0.468847 -2.174285
v -0.250000 0.827243 -2.174285
v -0.250000 0.840576 -2.180157
v -0.250000 0.852762 -2.164897
v -0.250000 1.030398 -2.181894
v -0.250000 1.089221 -2.158365
v -0.239483 1.089221 -2.157376
v -0.235368 1.030398 -2.180453
v -0.238684 0.852762 -2.163783
v -0.235607 0.840576 -2.178750
v -0.236729 0.827243 -2.172991
v -0.236729 0.468847 -2.172991
v -0.235607 0.455514 -2.178750
v -0.238684 0.443328 -2.163783
v -0.235368 0.265692 -2.180453
v -0.239483 0.206869 -2.157376
v -0.229370 1.089221 -2.154448
v -0.221299 1.030398 -2.176185
v -0.227803 0.852762 -2.160482
v -0.221767 0.840576 -2.174580
v -0.223968 0.827243 -2.169156
v -0.223968 0.468847 -2.169156
v -0.221767 0.455514 -2.174580
v -0.227803 0.443328 -2.160482
v -0.221299 0.265692 -2.176185
v -0.229370 0.206869 -2.154448
v -0.220050 1.089221 -2.149691
v -0.208332 1.030398 -2.169254
v -0.217775 0.852762 -2.155122
v -0.209012 0.840576 -2.167810
v -0.212208 0.827243 -2.162928
v -0.212208 0.468847 -2.162928
v -0.209012 0.455514 -2.167810
v -0.217775 0.443328 -2.155122
v -0.208332 0.265692 -2.169254
v -0.220050 0.206869 -2.149691
v -0.211880 1.089221 -2.143290
v -0.196967 1.030398 -2.159927
v -0.208985 0.852762 -2.147908
v -0.197832 0.840576 -2.158699
v -0.201900 0.827243 -2.154547
v -0.201900 0.468847 -2.154547
v -0.197832 0.455514 -2.158699
v -0.208985 0.443328 -2.147908
v -0.196967 0.265692 -2.159927
v -0.211880 0.206869 -2.143290
v -0.205176 1.089221 -2.135490
v -0.187640 1.030398 -2.148561
v -0.201772 0.852762 -2.139119
v -0.188657 0.840576 -2.147597
v -0.193440 0.827243 -2.144335
v -0.193440 0.468847 -2.144335
v -0.188657 0.455514 -2.147597
v -0.201772 0.443328 -2.139119
v -0.187640 0.265692 -2.148561
v -0.205176 0.206869 -2.135490
v -0.200194 1.089221 -2.126591
v -0.180709 1.030398 -2.135595
v -0.196412 0.852762 -2.129091
v -0.181839 0.840576 -2.134931
v -0.187154 0.827243 -2.132684
v -0.187154 0.468847 -2.132684
v -0.181839 0.455514 -2.134931
v -0.196412 0.443328 -2.129091
v -0.180709 0.265692 -2.135595
v -0.200194 0.206869 -2.126591
v -0.197126 1.089221 -2.116936
v -0.176441 1.030398 -2.121526
v -0.193111 0.852762 -2.118210
v -0.177641 0.840576 -2.121187
v -0.183283 0.827243 -2.120041
v -0.183283 0.468847 -2.120041
v -0.177641 0.455514 -2.121187
v -0.193111 0.443328 -2.118210
v -0.176441 0.265692 -2.121526
v -0.197126 0.206869 -2.116936
v -0.196091 1.089221 -2.106894
v -0.175000 1.030398 -2.106894
v -0.191997 0.852762 -2.106894
v -0.176223 0.840576 -2.106894
v -0.181976 0.827243 -2.106894
v -0.181976 0.468847 -2.106894
v -0.176223 0.455514 -2.106894
v -0.191997 0.443328 -2.106894
v -0.175000 0.265692 -2.106894
v -0.196091 0.206869 -2.106894
v -0.197126 1.089221 -2.096852
v -0.176441 1.030398 -2.092262
v -0.193111 0.852762 -2.095578
v -0.177641 0.840576 -2.092601
v -0.183283 0.827243 -2.093746
v -0.183283 0.468847 -2.093746
v -0.177641 0.455514 -2.092601
v -0.193111 0.443328 -2.095578
v -0.176441 0.265692 -2.092262
v -0.197126 0.206869 -2.096852
v -0.200194 1.089221 -2.087196
v -0.180709 1.030398 -2.078193
v -0.196412 0.852762 -2.084697
v -0.181839 0.840576 -2.078857
v -0.187154 0.827243 -2.081104
v -0.187154 0.468847 -2.081104
v -0.181839 0.455514 -2.078857
v -0.196412 0.443328 -2.084697
v -0.180709 0.265692 -2.078193
v -0.200194 0.206869 -2.087196
v -0.205176 1.089221 -2.078298
v -0.187640 1.030398 -2.065226
v -0.201772 0.852762 -2.074669
v -0.188657 0.840576 -2.066191
v -0.193440 0.827243 -2.069453
v -0.193440 0.468847 -2.069453
v -0.188657 0.455514 -2.066191
v -0.201772 0.443328 -2.074669
v -0.187640 0.265692 -2.065226
v -0.205176 0.206869 -2.078298
v -0.211880 1.089221 -2.070498
v -0.196967 1.030398 -2.053861
v -0.208985 0.852762 -2.065879
v -0.197832 0.840576 -2.055089
v -0.201900 0.827243 -2.059241
v -0.201900 0.468847 -2.059241
v -0.197832 0.455514 -2.055089
v -0.208985 0.443328 -2.065879
v -0.196967 0.265692 -2.053861
v -0.211880 0.206869 -2.070498
v -0.220050 1.089221 -2.064097
v -0.208332 1.030398 -2.044534
v -0.217775 0.852762 -2.058666
v -0.209012 0.840576 -2.045978
v -0.212208 0.827243 -2.050860
v -0.212208 0.468847 -2.050860
v -0.209012 0.455514 -2.045978
v -0.217775 0.443328 -2.058666
v -0.208332 0.265692 -2.044534
v -0.220050 0.206869 -2.064097
v -0.229370 1.089221 -2.059340
v -0.221299 1.030398 -2.037603
v -0.227803 0.852762 -2.053306
v -0.221767 0.840576 -2.039207
v -0.223968 0.827243 -2.044632
v -0.223968 0.468847 -2.044632
v -0.221767 0.455514 -2.039207
v -0.227803 0.443328 -2.053306
v -0.221299 0.265692 -2.037603
v -0.229370 0.206869 -2.059340
v -0.239483 1.089221 -2.056411
v -0.235368 1.030398 -2.033335
v -0.238684 0.852762 -2.050005
v -0.235607 0.840576 -2.035038
v -0.236729 0.827243 -2.040797
v -0.236729 0.468847 -2.040797
v -0.235607 0.455514 -2.035038
v -0.238684 0.443328 -2.050005
v -0.235368 0.265692 -2.033335
v -0.239483 0.206869 -2.056411
v -0.250000 1.089221 -2.055422
v -0.250000 1.030398 -2.031894
v -0.250000 0.852762 -2.048891
v -0.250000 0.840576 -2.033630
v -0.250000 0.827243 -2.039502
v -0.250000 0.468847 -2.039502
v -0.250000 0.455514 -2.033630
v -0.250000 0.443328 -2.048891
v -0.250000 0.265692 -2.031894
v -0.250000 0.206869 -2.055422
v -0.260517 1.089221 -2.056411
v -0.264632 1.030398 -2.033335
v -0.261316 0.852762 -2.050005
v -0.264393 0.840576 -2.035038
v -0.263271 0.827243 -2.040797
v -0.263271 0.468847 -2.040797
v -0.264393 0.455514 -2.035038
v -0.261316 0.443328 -2.050005
v -0.264632 0.265692 -2.033335
v -0.260517 0.206869 -2.056411
v -0.270630 1.089221 -2.059340
v -0.278701 1.030398 -2.037603
v -0.272197 0.852762 -2.053306
v -0.278233 0.840576 -2.039207
v -0.276032 0.827243 -2.044632
v -0.276032 0.468847 -2.044632
v -0.278233 0.455514 -2.039207
v -0.272197 0.443328 -2.053306
v -0.278701 0.265692 -2.037603
v -0.270630 0.206869 -2.059340
v -0.279950 1.089221 -2.064097
v -0.291668 1.030398 -2.044534
v -0.282225 0.852762 -2.058666
v -0.290988 0.840576 -2.045978
v -0.287792 0.827243 -2.050860
v -0.287792 0.468847 -2.050860
v -0.290988 0.455514 -2.045978
v -0.282225 0.443328 -2.058666
v -0.291668 0.265692 -2.044534
v -0.279950 0.206869 -2.064097
v -0.288120 1.089221 -2.070498
v -0.303033 1.030398 -2.053861
v -0.291014 0.852762 -2.065879
v -0.302168 0.840576 -2.055089
v -0.298100 0.827243 -2.059241
v -0.298100 0.468847 -2.059241
v -0.302168 0.455514 -2.055089
v -0.291014 0.443328 -2.065879
v -0.303033 0.265692 -2.053861
v -0.288120 0.206869 -2.070498
v -0.294824 1.089221 -2.078298
v -0.312360 1.030398 -2.065226
v -0.298228 0.852762 -2.074669
v -0.311343 0.840576 -2.066191
v -0.306560 0.827243 -2.069453
v -0.306560 0.468847 -2.069453
v -0.311343 0.455514 -2.066191
v -0.298228 0.443328 -2.074669
v -0.312360 0.265692 -2.065226
v -0.294824 0.206869 -2.078298
v -0.299806 1.089221 -2.087196
v -0.319291 1.030398 -2.078193
v -0.303588 0.852762 -2.084697
v -0.318161 0.840576 -2.078857
v -0.312846 0.827243 -2.081104
v -0.312846 0.468847 -2.081104
v -0.318161 0.455514 -2.078857
v -0.303588 0.443328 -2.084697
v -0.319291 0.265692 -2.078193
v -0.299806 0.206869 -2.087196
v -0.302874 1.089221 -2.096852
v -0.323559 1.030398 -2.092262
v -0.306889 0.852762 -2.095578
v -0.322359 0.840576 -2.092601
v -0.316717 0.827243 -2.093746
v -0.316717 0.468847 -2.093746
v -0.322359 0.455514 -2.092601
v -0.306889 0.443328 -2.095578
v -0.323559 0.265692 -2.092262
v -0.302874 0.206869 -2.096852
v -0.303909 1.089221 -2.106894
v -0.325000 1.030398 -2.106894
v -0.308003 0.852762 -2.106894
v -0.323777 0.840576 -2.106894
v -0.318024 0.827243 -2.106894
v -0.318024 0.468847 -2.106894
v -0.323777 0.455514 -2.106894
v -0.308003 0.443328 -2.106894
v -0.325000 0.265692 -2.106894
v -0.303909 0.206869 -2.106894
v -0.302874 1.089221 -2.116936
v -0.323559 1.030398 -2.121526
v -0.306889 0.852762 -2.118210
v -0.322359 0.840576 -2.121187
v -0.316717 0.827243 -2.120041
v -0.316717 0.468847 -2.120041
v -0.322359 0.455514 -2.121187
v -0.306889 0.443328 -2.118210
v -0.323559 0.265692 -2.121526
v -0.302874 0.206869 -2.116936
v -0.299806 1.089221 -2.126591
v -0.319291 1.030398 -2.135595
v -0.303588 0.852762 -2.129091
v -0.318161 0.840576 -2.134931
v -0.312846 0.827243 -2.132684
v -0.312846 0.468847 -2.132684
v -0.318161 0.455514 -2.134931
v -0.303588 0.443328 -2.129091
v -0.319291 0.265692 -2.135595
v -0.299806 0.206869 -2.126591
v -0.294824 1.089221 -2.135490
v -0.312360 1.030398 -2.148561
v -0.298228 0.852762 -2.139119
v -0.311343 0.840576 -2.147597
v -0.306560 0.827243 -2.144335
v -0.306560 0.468847 -2.144335
v -0.311343 0.455514 -2.147597
v -0.298228 0.443328 -2.139119
v -0.312360 0.265692 -2.148561
v -0.294824 0.206869 -2.135490
v -0.288120 1.089221 -2.143290
v -0.303033 1.030398 -2.159927
v -0.291014 0.852762 -2.147908
v -0.302168 0.840576 -2.158699
v -0.298100 0.827243 -2.154547
v -0.298100 0.468847 -2.154547
v -0.302168 0.455514 -2.158699
v -0.291014 0.443328 -2.147908
v -0.303033 0.265692 -2.159927
v -0.288120 0.206869 -2.143290
v -0.279950 1.089221 -2.149691
v -0.291668 1.030398 -2.169254
v -0.282225 0.852762 -2.155122
v -0.290988 0.840576 -2.167810
v -0.287792 0.827243 -2.162928
v -0.287792 0.468847 -2.162928
v -0.290988 0.455514 -2.167810
v -0.282225 0.443328 -2.155122
v -0.291668 0.265692 -2.169254
v -0.279950 0.206869 -2.149691
v -0.270630 1.089221 -2.154448
v -0.278701 1.030398 -2.176185
v -0.272197 0.852762 -2.160482
v -0.278233 0.840576 -2.174580
v -0.276032 0.827243 -2.169156
v -0.276032 0.468847 -2.169156
v -0.278233 0.455514 -2.174580
v -0.272197 0.443328 -2.160482
v -0.278701 0.265692 -2.176185
v -0.270630 0.206869 -2.154448
v -0.260517 1.089221 -2.157376
v -0.264632 1.030398 -2.180453
v -0.261316 0.852762 -2.163783
v -0.264393 0.840576 -2.178750
v -0.263271 0.827243 -2.172991
v -0.263271 0.468847 -2.172991
v -0.264393 0.455514 -2.178750
v -0.261316 0.443328 -2.163783
v -0.264632 0.265692 -2.180453
v -0.260517 0.206869 -2.157376
v 0.000000 1.273215 -2.208178
v -1.000000 1.221654 -2.186068
v -1.000000 1.273215 -2.208178
v 0.000000 1.221654 -2.186068
v 0.000000 1.252591 -2.192098
v 0.000000 1.231966 -2.186068
v -1.000000 1.294627 -2.211035
v 0.000000 1.294627 -2.211035
v 0.000000 1.274265 -2.211035
v -1.000000 1.274265 -2.211035
v -1.000000 1.295677 -2.208178
v 0.000000 1.295677 -2.208178
v -1.000000 1.252591 -2.192098
v -1.000000 1.231966 -2.186068
v -1.000000 1.292980 -2.214625
v 0.000000 1.292980 -2.214625
v -1.000000 1.275912 -2.214625
v 0.000000 1.275912 -2.214625
v 0.000000 1.290951 -2.217961
v 0.000000 1.277941 -2.217961
v -1.000000 1.277941 -2.217961
v -1.000000 1.290951 -2.217961
v 0.000000 1.288059 -2.220937
v 0.000000 1.280833 -2.220937
v -1.000000 1.280833 -2.220937
v -1.000000 1.288059 -2.220937
v 0.000000 1.170093 -2.208178
v -1.000000 1.170093 -2.208178
v 0.000000 1.190718 -2.192098
v 0.000000 1.211342 -2.186068
v -1.000000 1.148682 -2.211035
v 0.000000 1.148682 -2.211035
v 0.000000 1.169044 -2.211035
v -1.000000 1.169044 -2.211035
v -1.000000 1.147632 -2.208178
v 0.000000 1.147632 -2.208178
v -1.000000 1.190718 -2.192098
v -1.000000 1.211342 -2.186068
v -1.000000 1.150329 -2.214625
v 0.000000 1.150329 -2.214625
v -1.000000 1.167396 -2.214625
v 0.000000 1.167396 -2.214625
v 0.000000 1.152358 -2.217961
v 0.000000 1.165367 -2.217961
v -1.000000 1.165367 -2.217961
v -1.000000 1.152358 -2.217961
v 0.000000 1.155249 -2.220937
v 0.000000 1.162476 -2.220937
v -1.000000 1.162476 -2.220937
v -1.000000 1.155249 -2.220937
v -1.000000 1.295677 -2.000000
v 0.000000 1.295677 -2.000000
v -1.000000 1.147632 -2.000000
v 0.000000 1.147632 -2.000000
v -1.000000 0.148045 -1.999630
v 0.000000 0.148045 -1.999630
v -1.000000 0.000000 -1.999630
v 0.000000 0.000000 -1.999630
v -1.000000 1.221654 -2.000000
v 0.000000 1.221654 -2.000000
vn -0.0000 -0.8381 -0.5455
vn -0.0000 -0.9249 -0.3802
vn -0.0000 -0.4675 -0.8840
vn -0.0000 -0.0000 -1.0000
vn -0.0000 -0.1439 -0.9896
vn -0.0000 0.7961 -0.6052
vn -0.0000 0.4363 -0.8998
vn -0.0000 0.9249 -0.3802
vn -0.0000 0.8843 -0.4668
vn -0.0000 0.9386 -0.3449
vn -0.0000 -0.8843 -0.4668
vn -0.0000 -0.7961 -0.6052
vn -0.0000 -0.4363 -0.8998
vn -0.0000 0.8381 -0.5455
vn -0.0000 0.4675 -0.8840
vn -0.0000 0.1439 -0.9896
vn -0.0000 -0.9386 -0.3449
vn 0.0894 -0.3695 -0.9249
vn 0.2653 -0.3671 -0.8915
vn 0.4328 -0.3626 -0.8254
vn 0.5859 -0.3565 -0.7277
vn 0.7185 -0.3500 -0.6010
vn 0.8246 -0.3438 -0.4493
vn 0.8988 -0.3390 -0.2779
vn 0.9370 -0.3364 -0.0941
vn 0.9370 -0.3364 0.0941
vn 0.8988 -0.3390 0.2779
vn 0.8246 -0.3438 0.4493
vn 0.7185 -0.3500 0.6010
vn 0.5859 -0.3566 0.7277
vn 0.4328 -0.3625 0.8254
vn 0.2653 -0.3671 0.8915
vn 0.0894 -0.3695 0.9249
vn -0.0894 -0.3695 0.9249
vn -0.2653 -0.3671 0.8915
vn -0.4328 -0.3625 0.8254
vn -0.5859 -0.3566 0.7277
vn -0.7185 -0.3500 0.6010
vn -0.8246 -0.3438 0.4493
vn -0.8988 -0.3390 0.2779
vn -0.9370 -0.3364 0.0941
vn -0.9370 -0.3364 -0.0941
vn -0.8988 -0.3390 -0.2779
vn -0.8246 -0.3438 -0.4493
vn -0.7185 -0.3500 -0.6010
vn -0.5859 -0.3566 -0.7277
vn -0.4328 -0.3626 -0.8254
vn -0.2653 -0.3671 -0.8915
vn -0.0894 -0.3695 -0.9249
vn -0.0894 0.3695 -0.9249
vn -0.0976 -0.0948 -0.9907
vn -0.0611 -0.7800 -0.6227
vn -0.0891 0.4014 -0.9116
vn -0.0971 -0.0000 -0.9953
vn -0.0891 -0.4014 -0.9116
vn -0.0611 0.7800 -0.6227
vn -0.2890 0.0948 -0.9526
vn -0.2653 0.3671 -0.8915
vn -0.2890 -0.0948 -0.9526
vn -0.1807 -0.7808 -0.5981
vn -0.2640 0.4008 -0.8773
vn -0.2878 -0.0000 -0.9577
vn -0.2640 -0.4008 -0.8773
vn -0.1807 0.7808 -0.5981
vn -0.4693 0.0948 -0.8780
vn -0.4328 0.3626 -0.8254
vn -0.4693 -0.0948 -0.8779
vn -0.2928 -0.7822 -0.5499
vn -0.4293 0.3999 -0.8098
vn -0.4680 -0.0000 -0.8837
vn -0.4293 -0.3999 -0.8098
vn -0.2928 0.7822 -0.5499
vn -0.6315 0.0948 -0.7695
vn -0.5859 0.3566 -0.7277
vn -0.6315 -0.0948 -0.7695
vn -0.3929 -0.7840 -0.4806
vn -0.5790 0.3987 -0.7112
vn -0.6308 -0.0000 -0.7759
vn -0.5790 -0.3987 -0.7112
vn -0.3929 0.7840 -0.4806
vn -0.7695 0.0948 -0.6315
vn -0.5859 0.3565 -0.7277
vn -0.7185 0.3500 -0.6010
vn -0.7695 -0.0948 -0.6315
vn -0.4772 -0.7860 -0.3931
vn -0.7071 0.3973 -0.5850
vn -0.7701 -0.0000 -0.6379
vn -0.7071 -0.3973 -0.5850
vn -0.4772 0.7860 -0.3931
vn -0.8780 0.0948 -0.4693
vn -0.8246 0.3438 -0.4493
vn -0.8780 -0.0948 -0.4693
vn -0.5428 -0.7877 -0.2913
vn -0.8083 0.3961 -0.4356
vn -0.8801 -0.0000 -0.4748
vn -0.8083 -0.3961 -0.4356
vn -0.5428 0.7877 -0.2913
vn -0.9526 0.0948 -0.2890
vn -0.8988 0.3390 -0.2779
vn -0.9526 -0.0948 -0.2890
vn -0.5876 -0.7891 -0.1790
vn -0.8785 0.3951 -0.2687
vn -0.9562 -0.0000 -0.2928
vn -0.8785 -0.3951 -0.2687
vn -0.5876 0.7891 -0.1790
vn -0.9907 0.0948 -0.0976
vn -0.9370 0.3364 -0.0941
vn -0.9907 -0.0948 -0.0976
vn -0.6104 -0.7898 -0.0604
vn -0.9143 0.3946 -0.0908
vn -0.9951 -0.0000 -0.0989
vn -0.9143 -0.3946 -0.0908
vn -0.6104 0.7898 -0.0604
vn -0.9907 0.0948 0.0976
vn -0.9370 0.3364 0.0941
vn -0.9907 -0.0948 0.0976
vn -0.6104 -0.7898 0.0604
vn -0.9143 0.3946 0.0908
vn -0.9951 -0.0000 0.0989
vn -0.9143 -0.3946 0.0908
vn -0.6104 0.7898 0.0604
vn -0.9526 0.0948 0.2890
vn -0.8988 0.3390 0.2779
vn -0.9526 -0.0948 0.2890
vn -0.5876 -0.7891 0.1790
vn -0.8785 0.3951 0.2687
vn -0.9562 -0.0000 0.2928
vn -0.8785 -0.3951 0.2687
vn -0.5876 0.7891 0.1790
vn -0.8780 0.0948 0.4693
vn -0.8246 0.3438 0.4493
vn -0.8780 -0.0948 0.4693
vn -0.5428 -0.7877 0.2913
vn -0.8083 0.3961 0.4356
vn -0.8801 -0.0000 0.4748
vn -0.8083 -0.3961 0.4356
vn -0.5428 0.7877 0.2913
vn -0.7695 0.0948 0.6315
vn -0.7185 0.3500 0.6010
vn -0.7695 -0.0948 0.6315
vn -0.4772 -0.7860 0.3931
vn -0.7071 0.3973 0.5850
vn -0.7701 -0.0000 0.6379
vn -0.7071 -0.3973 0.5850
vn -0.4772 0.7860 0.3931
vn -0.6315 0.0948 0.7695
vn -0.5859 0.3566 0.7277
vn -0.5859 -0.3565 0.7277
vn -0.6315 -0.0948 0.7695
vn -0.3929 -0.7840 0.4806
vn -0.5790 0.3987 0.7112
vn -0.6308 -0.0000 0.7759
vn -0.5790 -0.3987 0.7112
vn -0.3929 0.7840 0.4806
vn -0.4693 0.0948 0.8779
vn -0.5859 0.3565 0.7277
vn -0.4328 0.3625 0.8254
vn -0.4693 -0.0948 0.8779
vn -0.2928 -0.7822 0.5499
vn -0.4293 0.3999 0.8098
vn -0.4680 -0.0000 0.8837
vn -0.4294 -0.3999 0.8098
vn -0.2928 0.7822 0.5499
vn -0.2890 0.0948 0.9526
vn -0.2653 0.3671 0.8915
vn -0.2890 -0.0948 0.9526
vn -0.1807 -0.7808 0.5981
vn -0.2640 0.4008 0.8773
vn -0.2878 -0.0000 0.9577
vn -0.2640 -0.4008 0.8773
vn -0.1807 0.7808 0.5981
vn -0.0976 0.0948 0.9907
vn -0.0894 0.3695 0.9249
vn -0.0976 -0.0948 0.9907
vn -0.0611 -0.7800 0.6227
vn -0.0891 0.4014 0.9116
vn -0.0971 -0.0000 0.9953
vn -0.0891 -0.4013 0.9116
vn -0.0611 0.7800 0.6227
vn 0.0976 0.0948 0.9907
vn 0.0894 0.3695 0.9249
vn 0.0976 -0.0948 0.9907
vn 0.0611 -0.7800 0.6227
vn 0.0891 0.4013 0.9116
vn 0.0971 -0.0000 0.9953
vn 0.0891 -0.4013 0.9116
vn 0.0611 0.7800 0.6227
vn 0.2890 0.0948 0.9526
vn 0.2653 0.3671 0.8915
vn 0.2890 -0.0948 0.9526
vn 0.1807 -0.7808 0.5981
vn 0.2640 0.4008 0.8773
vn 0.2878 -0.0000 0.9577
vn 0.2640 -0.4008 0.8773
vn 0.1807 0.7808 0.5981
vn 0.4693 0.0948 0.8779
vn 0.4328 0.3625 0.8254
vn 0.4693 -0.0948 0.8779
vn 0.2928 -0.7822 0.5499
vn 0.4293 0.3999 0.8098
vn 0.4680 -0.0000 0.8837
vn 0.4294 -0.3999 0.8098
vn 0.2928 0.7822 0.5499
vn 0.6315 0.0948 0.7695
vn 0.5859 0.3566 0.7277
vn 0.6315 -0.0948 0.7695
vn 0.3929 -0.7840 0.4806
vn 0.5790 0.3987 0.7112
vn 0.6308 -0.0000 0.7759
vn 0.5790 -0.3987 0.7112
vn 0.3929 0.7840 0.4806
vn 0.7695 0.0948 0.6315
vn 0.5859 0.3565 0.7277
vn 0.7185 0.3500 0.6010
vn 0.7695 -0.0948 0.6315
vn 0.4772 -0.7860 0.3931
vn 0.7071 0.3973 0.5850
vn 0.7701 -0.0000 0.6379
vn 0.7071 -0.3973 0.5850
vn 0.4772 0.7860 0.3931
vn 0.8780 0.0948 0.4693
vn 0.8246 0.3438 0.4493
vn 0.8780 -0.0948 0.4693
vn 0.5428 -0.7877 0.2913
vn 0.8083 0.3961 0.4356
vn 0.8801 -0.0000 0.4748
vn 0.8083 -0.3961 0.4356
vn 0.5428 0.7877 0.2913
vn 0.9526 0.0948 0.2890
vn 0.8988 0.3390 0.2779
vn 0.9526 -0.0948 0.2890
vn 0.5876 -0.7891 0.1790
vn 0.8785 0.3951 0.2687
vn 0.9562 -0.0000 0.2928
vn 0.8785 -0.3951 0.2687
vn 0.5876 0.7891 0.1790
vn 0.9907 0.0948 0.0976
vn 0.9370 0.3364 0.0941
vn 0.9907 -0.0948 0.0976
vn 0.6104 -0.7898 0.0604
vn 0.9143 0.3946 0.0908
vn 0.9951 -0.0000 0.0989
vn 0.9143 -0.3946 0.0908
vn 0.6104 0.7898 0.0603
vn 0.9907 0.0948 -0.0976
vn 0.9370 0.3364 -0.0941
vn 0.9907 -0.0948 -0.0976
vn 0.6104 -0.7898 -0.0604
vn 0.9143 0.3946 -0.0908
vn 0.9951 -0.0000 -0.0989
vn 0.9143 -0.3946 -0.0908
vn 0.6104 0.7898 -0.0603
vn 0.9526 0.0948 -0.2890
vn 0.8988 0.3390 -0.2779
vn 0.9526 -0.0948 -0.2890
vn 0.5876 -0.7891 -0.1790
vn 0.8785 0.3951 -0.2687
vn 0.9562 -0.0000 -0.2928
vn 0.8785 -0.3951 -0.2687
vn 0.5876 0.7891 -0.1790
vn 0.8780 0.0948 -0.4693
vn 0.8246 0.3438 -0.4493
vn 0.8780 -0.0948 -0.4693
vn 0.5428 -0.7877 -0.2913
vn 0.8083 0.3961 -0.4356
vn 0.8801 -0.0000 -0.4748
vn 0.8083 -0.3961 -0.4356
vn 0.5428 0.7877 -0.2913
vn 0.7695 0.0948 -0.6315
vn 0.7185 0.3500 -0.6010
vn 0.7695 -0.0948 -0.6315
vn 0.4772 -0.7860 -0.3931
vn 0.7071 0.3973 -0.5850
vn 0.7701 -0.0000 -0.6379
vn 0.7071 -0.3973 -0.5850
vn 0.4772 0.7860 -0.3931
vn 0.6315 0.0948 -0.7695
vn 0.5859 0.3565 -0.7277
vn 0.6315 -0.0948 -0.7695
vn 0.3929 -0.7840 -0.4806
vn 0.5790 0.3987 -0.7112
vn 0.6308 -0.0000 -0.7759
vn 0.5790 -0.3987 -0.7112
vn 0.3929 0.7840 -0.4806
vn 0.4693 0.0948 -0.8780
vn 0.4328 0.3626 -0.8254
vn 0.4693 -0.0948 -0.8779
vn 0.2928 -0.7822 -0.5499
vn 0.4293 0.3999 -0.8098
vn 0.4680 -0.0000 -0.8837
vn 0.4293 -0.3999 -0.8098
vn 0.2928 0.7822 -0.5499
vn 0.2890 0.0948 -0.9526
vn 0.2653 0.3671 -0.8915
vn 0.2890 -0.0948 -0.9526
vn 0.1807 -0.7808 -0.5981
vn 0.2640 0.4008 -0.8773
vn 0.2878 -0.0000 -0.9577
vn 0.2640 -0.4008 -0.8773
vn 0.1807 0.7808 -0.5981
vn 0.0976 0.0948 -0.9907
vn 0.0894 0.3695 -0.9249
vn 0.0976 -0.0948 -0.9907
vn 0.0611 -0.7800 -0.6227
vn 0.0891 0.4014 -0.9116
vn 0.0971 -0.0000 -0.9953
vn 0.0891 -0.4014 -0.9116
vn 0.0611 0.7800 -0.6227
vn -0.0976 0.0948 -0.9907
vn -0.0891 0.4013 -0.9116
vn -0.0891 -0.4013 -0.9116
vn -0.4693 0.0948 -0.8779
vn -0.4328 -0.3625 -0.8254
vn -0.4328 0.3625 -0.8254
vn -0.8779 0.0948 -0.4693
vn -0.8779 -0.0948 -0.4693
vn -0.6104 -0.7898 -0.0603
vn -0.6104 -0.7898 0.0603
vn -0.6104 0.7898 0.0603
vn -0.8779 0.0948 0.4693
vn -0.8779 -0.0948 0.4693
vn -0.7070 -0.3973 0.5850
vn 0.5859 -0.3565 0.7277
vn 0.8779 -0.0948 0.4693
vn 0.8785 0.3951 0.2686
vn 0.8785 -0.3951 0.2686
vn 0.6104 0.7898 0.0604
vn 0.6104 0.7898 -0.0604
vn 0.8785 0.3951 -0.2686
vn 0.8785 -0.3951 -0.2686
vn 0.8779 -0.0948 -0.4693
vn 0.4693 0.0948 -0.8779
vn 0.4328 0.3625 -0.8254
vn -0.0000 1.0000 -0.0000
vn -0.0000 -1.0000 -0.0000
vn -0.0000 -0.0000 1.0000
vt 0.137867 0.408409
vt 0.137867 0.340603
vt 0.139026 0.340603
vt 0.139026 0.408409
vt 0.123330 0.340603
vt 0.123330 0.408409
vt 0.102847 0.340603
vt 0.109627 0.340603
vt 0.109627 0.408409
vt 0.102847 0.408409
vt 0.151360 0.340603
vt 0.151360 0.408409
vt 0.149226 0.408409
vt 0.149226 0.340603
vt 0.154675 0.340603
vt 0.154675 0.408409
vt 0.153081 0.408409
vt 0.153081 0.340603
vt 0.155833 0.340603
vt 0.155834 0.408409
vt 0.140620 0.340603
vt 0.140620 0.408409
vt 0.142341 0.340603
vt 0.142341 0.408409
vt 0.144475 0.408409
vt 0.144475 0.340603
vt 0.067826 0.408409
vt 0.066667 0.408409
vt 0.066667 0.340603
vt 0.067826 0.340603
vt 0.082363 0.340603
vt 0.082363 0.408409
vt 0.096066 0.408409
vt 0.096066 0.340603
vt 0.054333 0.340603
vt 0.056467 0.340603
vt 0.056467 0.408409
vt 0.054333 0.408409
vt 0.051018 0.340603
vt 0.052612 0.340603
vt 0.052612 0.408409
vt 0.051018 0.408409
vt 0.049860 0.340603
vt 0.049860 0.408409
vt 0.065073 0.408409
vt 0.065073 0.340603
vt 0.063353 0.408409
vt 0.063353 0.340603
vt 0.061219 0.408409
vt 0.061219 0.340603
vt 0.889818 0.630295
vt 0.954150 0.630300
vt 0.954016 0.631926
vt 0.889817 0.631587
vt 0.953622 0.634411
vt 0.889810 0.633533
vt 0.953004 0.637949
vt 0.889791 0.636337
vt 0.952221 0.642458
vt 0.889752 0.639985
vt 0.951338 0.647801
vt 0.889686 0.644362
vt 0.950422 0.653813
vt 0.889594 0.649295
vt 0.949526 0.660305
vt 0.889476 0.654581
vt 0.948689 0.667060
vt 0.889341 0.660003
vt 0.947951 0.673860
vt 0.889204 0.665295
vt 0.947292 0.680448
vt 0.889063 0.670332
vt 0.946714 0.686580
vt 0.888927 0.674938
vt 0.946214 0.692032
vt 0.888803 0.678964
vt 0.945789 0.696602
vt 0.888698 0.682294
vt 0.945437 0.700136
vt 0.888617 0.684857
vt 0.945144 0.702559
vt 0.888560 0.686650
vt 0.944822 0.704158
vt 0.888524 0.687853
vt 0.888534 0.572736
vt 0.944835 0.556441
vt 0.945157 0.558041
vt 0.888570 0.573939
vt 0.945450 0.560463
vt 0.888627 0.575733
vt 0.945801 0.563998
vt 0.888707 0.578295
vt 0.946224 0.568568
vt 0.888811 0.581625
vt 0.946724 0.574019
vt 0.888934 0.585651
vt 0.947301 0.580152
vt 0.889070 0.590258
vt 0.947959 0.586740
vt 0.889211 0.595295
vt 0.948696 0.593540
vt 0.889346 0.600587
vt 0.949532 0.600295
vt 0.889481 0.606009
vt 0.950426 0.606787
vt 0.889597 0.611294
vt 0.951342 0.612800
vt 0.889689 0.616228
vt 0.952223 0.618143
vt 0.889753 0.620605
vt 0.953005 0.622652
vt 0.889792 0.624253
vt 0.953623 0.626190
vt 0.889810 0.627057
vt 0.954016 0.628674
vt 0.889817 0.629003
vt 0.031205 0.628612
vt 0.095350 0.628951
vt 0.095348 0.630242
vt 0.031071 0.630236
vt 0.155851 0.628805
vt 0.155894 0.630248
vt 0.829266 0.628845
vt 0.829222 0.630290
vt 0.664779 0.630275
vt 0.664893 0.629037
vt 0.320094 0.629025
vt 0.331660 0.629308
vt 0.331719 0.630263
vt 0.320208 0.630262
vt 0.340950 0.629052
vt 0.340913 0.630260
vt 0.644004 0.629061
vt 0.644042 0.630278
vt 0.653317 0.629318
vt 0.653257 0.630275
vt 0.319761 0.627145
vt 0.155719 0.626566
vt 0.031598 0.626129
vt 0.095357 0.627007
vt 0.829398 0.626604
vt 0.665228 0.627155
vt 0.331450 0.627857
vt 0.341038 0.627182
vt 0.643918 0.627181
vt 0.653527 0.627865
vt 0.319313 0.624382
vt 0.155511 0.623333
vt 0.032216 0.622594
vt 0.095376 0.624205
vt 0.829608 0.623369
vt 0.665676 0.624389
vt 0.331085 0.625636
vt 0.341103 0.624448
vt 0.643856 0.624440
vt 0.653893 0.625641
vt 0.318879 0.620763
vt 0.155250 0.619168
vt 0.032999 0.618089
vt 0.095415 0.620560
vt 0.829869 0.619201
vt 0.666111 0.620767
vt 0.330603 0.622444
vt 0.341095 0.620881
vt 0.643868 0.620870
vt 0.654376 0.622445
vt 0.318532 0.616447
vt 0.154964 0.614185
vt 0.033880 0.612751
vt 0.095480 0.616187
vt 0.830156 0.614214
vt 0.666459 0.616447
vt 0.330089 0.618200
vt 0.341016 0.616588
vt 0.643953 0.616575
vt 0.654891 0.618197
vt 0.318290 0.611633
vt 0.154681 0.608528
vt 0.034795 0.606743
vt 0.095573 0.611258
vt 0.830440 0.608552
vt 0.666701 0.611629
vt 0.329645 0.613025
vt 0.340903 0.611703
vt 0.644070 0.611688
vt 0.655337 0.613018
vt 0.318145 0.606515
vt 0.154424 0.602373
vt 0.035691 0.600257
vt 0.095690 0.605976
vt 0.830699 0.602392
vt 0.666847 0.606507
vt 0.329335 0.607194
vt 0.340800 0.606387
vt 0.644176 0.606370
vt 0.655648 0.607183
vt 0.318087 0.601274
vt 0.154207 0.595927
vt 0.036527 0.593508
vt 0.095825 0.600559
vt 0.830917 0.595941
vt 0.666905 0.601262
vt 0.329166 0.601028
vt 0.340735 0.600830
vt 0.644243 0.600812
vt 0.655819 0.601015
vt 0.318064 0.596092
vt 0.154051 0.589427
vt 0.037265 0.586713
vt 0.095962 0.595272
vt 0.831074 0.589435
vt 0.666928 0.596076
vt 0.329140 0.594833
vt 0.340701 0.595241
vt 0.644278 0.595222
vt 0.655846 0.594816
vt 0.318111 0.591112
vt 0.153939 0.583102
vt 0.037923 0.580131
vt 0.096103 0.590239
vt 0.831187 0.583105
vt 0.666882 0.591093
vt 0.329208 0.588890
vt 0.340708 0.589850
vt 0.644272 0.589829
vt 0.655777 0.588870
vt 0.318210 0.586508
vt 0.153865 0.577191
vt 0.038501 0.574004
vt 0.096239 0.585636
vt 0.831262 0.577189
vt 0.666782 0.586487
vt 0.329352 0.583457
vt 0.340737 0.584863
vt 0.644243 0.584840
vt 0.655634 0.583434
vt 0.318348 0.582443
vt 0.153819 0.571919
vt 0.039000 0.568557
vt 0.096363 0.581614
vt 0.831309 0.571913
vt 0.666644 0.582420
vt 0.329535 0.578757
vt 0.340768 0.580463
vt 0.644211 0.580439
vt 0.655449 0.578732
vt 0.318504 0.579062
vt 0.153788 0.567487
vt 0.039424 0.563991
vt 0.096467 0.578286
vt 0.831340 0.567477
vt 0.666488 0.579036
vt 0.329713 0.574943
vt 0.340788 0.576802
vt 0.644191 0.576777
vt 0.655271 0.574916
vt 0.318644 0.576461
vt 0.153762 0.564052
vt 0.039776 0.560460
vt 0.096549 0.575726
vt 0.831367 0.564039
vt 0.666348 0.576433
vt 0.329838 0.572072
vt 0.340797 0.573982
vt 0.644181 0.573959
vt 0.655145 0.572044
vt 0.318714 0.574653
vt 0.153726 0.561693
vt 0.040069 0.558039
vt 0.096605 0.573934
vt 0.831403 0.561678
vt 0.666278 0.574624
vt 0.329875 0.570107
vt 0.340814 0.572026
vt 0.644162 0.572011
vt 0.655108 0.570077
vt 0.318645 0.573449
vt 0.153657 0.560095
vt 0.040391 0.556441
vt 0.096642 0.572732
vt 0.831472 0.560079
vt 0.666347 0.573419
vt 0.329801 0.568733
vt 0.340875 0.570740
vt 0.644099 0.570717
vt 0.655181 0.568702
vt 0.318704 0.685873
vt 0.318634 0.687076
vt 0.153645 0.700400
vt 0.153713 0.698802
vt 0.040056 0.702435
vt 0.096595 0.686550
vt 0.096631 0.687753
vt 0.040377 0.704033
vt 0.831392 0.698901
vt 0.831460 0.700500
vt 0.666337 0.687132
vt 0.666269 0.685927
vt 0.329865 0.690421
vt 0.329791 0.691795
vt 0.340808 0.688492
vt 0.340870 0.689786
vt 0.644157 0.688547
vt 0.644094 0.689833
vt 0.655098 0.690471
vt 0.655172 0.691846
vt 0.318634 0.684064
vt 0.153750 0.696444
vt 0.039763 0.700014
vt 0.096539 0.684759
vt 0.831355 0.696541
vt 0.666339 0.684117
vt 0.329829 0.688455
vt 0.340790 0.686544
vt 0.644174 0.686591
vt 0.655136 0.688505
vt 0.318495 0.681463
vt 0.153777 0.693008
vt 0.039412 0.696483
vt 0.096458 0.682198
vt 0.831329 0.693102
vt 0.666479 0.681515
vt 0.329704 0.685584
vt 0.340780 0.683727
vt 0.644184 0.683771
vt 0.655263 0.685633
vt 0.318339 0.678082
vt 0.153808 0.688576
vt 0.038989 0.691917
vt 0.096354 0.678871
vt 0.831299 0.688666
vt 0.666636 0.678131
vt 0.329527 0.681770
vt 0.340760 0.680066
vt 0.644204 0.680108
vt 0.655441 0.681817
vt 0.318202 0.674017
vt 0.153855 0.683305
vt 0.038491 0.686470
vt 0.096231 0.674848
vt 0.831253 0.683391
vt 0.666775 0.674064
vt 0.329344 0.677070
vt 0.340729 0.675666
vt 0.644236 0.675707
vt 0.655626 0.677115
vt 0.318104 0.669413
vt 0.153930 0.677394
vt 0.037914 0.680343
vt 0.096096 0.670246
vt 0.831179 0.677474
vt 0.666875 0.669457
vt 0.329201 0.671637
vt 0.340701 0.670679
vt 0.644265 0.670718
vt 0.655770 0.671679
vt 0.318058 0.664433
vt 0.154043 0.671068
vt 0.037257 0.673761
vt 0.095956 0.665213
vt 0.831067 0.671144
vt 0.666922 0.664474
vt 0.329133 0.665694
vt 0.340695 0.665287
vt 0.644271 0.665325
vt 0.655839 0.665733
vt 0.318081 0.659251
vt 0.154200 0.664568
vt 0.036520 0.666966
vt 0.095820 0.659926
vt 0.830911 0.664639
vt 0.666900 0.659289
vt 0.329160 0.659499
vt 0.340728 0.659700
vt 0.644237 0.659734
vt 0.655813 0.659534
vt 0.318140 0.654010
vt 0.154418 0.658122
vt 0.035685 0.660217
vt 0.095685 0.654508
vt 0.830694 0.658187
vt 0.666843 0.654044
vt 0.329330 0.653334
vt 0.340794 0.654144
vt 0.644170 0.654175
vt 0.655644 0.653365
vt 0.318286 0.648892
vt 0.154677 0.651967
vt 0.034791 0.653730
vt 0.095569 0.649227
vt 0.830436 0.652027
vt 0.666698 0.648921
vt 0.329641 0.647503
vt 0.340898 0.648829
vt 0.644065 0.648857
vt 0.655333 0.647530
vt 0.318529 0.644078
vt 0.154962 0.646310
vt 0.033877 0.647722
vt 0.095478 0.644298
vt 0.830153 0.646365
vt 0.666456 0.644104
vt 0.330086 0.642328
vt 0.341013 0.643944
vt 0.643950 0.643969
vt 0.654889 0.642351
vt 0.318877 0.639762
vt 0.155248 0.641327
vt 0.032996 0.642384
vt 0.095413 0.639924
vt 0.829867 0.641378
vt 0.666109 0.639784
vt 0.330601 0.638083
vt 0.341094 0.639652
vt 0.643868 0.639673
vt 0.654374 0.638103
vt 0.319312 0.636143
vt 0.155509 0.637163
vt 0.032214 0.637879
vt 0.095375 0.636279
vt 0.829606 0.637210
vt 0.665675 0.636162
vt 0.331084 0.634891
vt 0.341104 0.636084
vt 0.643857 0.636104
vt 0.653892 0.634908
vt 0.319760 0.633380
vt 0.155718 0.633930
vt 0.031597 0.634344
vt 0.095356 0.633478
vt 0.829398 0.633975
vt 0.665227 0.633396
vt 0.331449 0.632669
vt 0.341039 0.633346
vt 0.643919 0.633366
vt 0.653527 0.632684
vt 0.320094 0.631500
vt 0.155850 0.631691
vt 0.031205 0.631861
vt 0.095350 0.631534
vt 0.829266 0.631734
vt 0.664893 0.631514
vt 0.331660 0.631218
vt 0.340951 0.631468
vt 0.644005 0.631495
vt 0.653317 0.631232
vt 0.889818 0.630129
vt 0.954149 0.630134
vt 0.954015 0.631760
vt 0.889817 0.631421
vt 0.953622 0.634245
vt 0.889810 0.633367
vt 0.953004 0.637783
vt 0.889790 0.636171
vt 0.952220 0.642291
vt 0.889751 0.639819
vt 0.951338 0.647634
vt 0.889686 0.644196
vt 0.950422 0.653647
vt 0.889594 0.649129
vt 0.949526 0.660139
vt 0.889476 0.654415
vt 0.948689 0.666894
vt 0.889341 0.659837
vt 0.947951 0.673694
vt 0.889204 0.665128
vt 0.947292 0.680281
vt 0.889063 0.670166
vt 0.946714 0.686414
vt 0.888926 0.674772
vt 0.946213 0.691865
vt 0.888803 0.678798
vt 0.945789 0.696435
vt 0.888698 0.682128
vt 0.945437 0.699970
vt 0.888617 0.684690
vt 0.945144 0.702392
vt 0.888560 0.686484
vt 0.944822 0.703992
vt 0.888524 0.687687
vt 0.888534 0.572570
vt 0.944835 0.556275
vt 0.945157 0.557875
vt 0.888570 0.573773
vt 0.945449 0.560297
vt 0.888627 0.575567
vt 0.945801 0.563831
vt 0.888707 0.578129
vt 0.946224 0.568402
vt 0.888811 0.581459
vt 0.946723 0.573853
vt 0.888934 0.585485
vt 0.947301 0.579986
vt 0.889070 0.590091
vt 0.947958 0.586573
vt 0.889210 0.595128
vt 0.948696 0.593374
vt 0.889346 0.600420
vt 0.949531 0.600129
vt 0.889481 0.605842
vt 0.950426 0.606621
vt 0.889597 0.611128
vt 0.951341 0.612634
vt 0.889689 0.616062
vt 0.952223 0.617977
vt 0.889753 0.620439
vt 0.953005 0.622485
vt 0.889792 0.624086
vt 0.953623 0.626023
vt 0.889810 0.626891
vt 0.954016 0.628508
vt 0.889817 0.628836
vt 0.031205 0.628446
vt 0.095350 0.628785
vt 0.095348 0.630076
vt 0.031071 0.630070
vt 0.155851 0.628639
vt 0.155894 0.630082
vt 0.829266 0.628679
vt 0.829222 0.630123
vt 0.664779 0.630109
vt 0.664893 0.628871
vt 0.320094 0.628859
vt 0.331660 0.629142
vt 0.331719 0.630097
vt 0.320208 0.630096
vt 0.340950 0.628886
vt 0.340913 0.630094
vt 0.644004 0.628895
vt 0.644042 0.630112
vt 0.653317 0.629152
vt 0.653257 0.630109
vt 0.319761 0.626979
vt 0.155719 0.626399
vt 0.031598 0.625963
vt 0.095357 0.626841
vt 0.829398 0.626438
vt 0.665227 0.626989
vt 0.331450 0.627691
vt 0.341038 0.627017
vt 0.643918 0.627015
vt 0.653527 0.627699
vt 0.319313 0.624216
vt 0.155511 0.623167
vt 0.032216 0.622428
vt 0.095376 0.624039
vt 0.829607 0.623203
vt 0.665676 0.624223
vt 0.331085 0.625470
vt 0.341103 0.624282
vt 0.643856 0.624274
vt 0.653893 0.625475
vt 0.318879 0.620597
vt 0.155250 0.619002
vt 0.032999 0.617923
vt 0.095415 0.620394
vt 0.829869 0.619035
vt 0.666111 0.620601
vt 0.330603 0.622278
vt 0.341095 0.620715
vt 0.643868 0.620704
vt 0.654376 0.622279
vt 0.318532 0.616281
vt 0.154964 0.614019
vt 0.033880 0.612585
vt 0.095480 0.616021
vt 0.830155 0.614048
vt 0.666458 0.616281
vt 0.330089 0.618033
vt 0.341016 0.616422
vt 0.643953 0.616408
vt 0.654891 0.618031
vt 0.318290 0.611467
vt 0.154681 0.608362
vt 0.034795 0.606577
vt 0.095573 0.611091
vt 0.830440 0.608386
vt 0.666701 0.611463
vt 0.329645 0.612859
vt 0.340903 0.611537
vt 0.644070 0.611522
vt 0.655337 0.612852
vt 0.318145 0.606349
vt 0.154424 0.602207
vt 0.035691 0.600091
vt 0.095690 0.605810
vt 0.830699 0.602226
vt 0.666847 0.606340
vt 0.329335 0.607028
vt 0.340800 0.606221
vt 0.644176 0.606204
vt 0.655648 0.607017
vt 0.318087 0.601108
vt 0.154207 0.595761
vt 0.036527 0.593342
vt 0.095825 0.600393
vt 0.830917 0.595774
vt 0.666905 0.601096
vt 0.329166 0.600862
vt 0.340735 0.600664
vt 0.644243 0.600646
vt 0.655818 0.600848
vt 0.318064 0.595926
vt 0.154051 0.589261
vt 0.037265 0.586547
vt 0.095962 0.595106
vt 0.831074 0.589269
vt 0.666928 0.595910
vt 0.329140 0.594667
vt 0.340702 0.595075
vt 0.644278 0.595056
vt 0.655845 0.594650
vt 0.318111 0.590946
vt 0.153939 0.582936
vt 0.037923 0.579965
vt 0.096103 0.590073
vt 0.831187 0.582939
vt 0.666882 0.590927
vt 0.329208 0.588724
vt 0.340708 0.589684
vt 0.644272 0.589663
vt 0.655777 0.588703
vt 0.318210 0.586342
vt 0.153865 0.577024
vt 0.038501 0.573838
vt 0.096239 0.585470
vt 0.831262 0.577022
vt 0.666782 0.586320
vt 0.329352 0.583291
vt 0.340737 0.584697
vt 0.644243 0.584674
vt 0.655633 0.583268
vt 0.318348 0.582278
vt 0.153819 0.571753
vt 0.039000 0.568391
vt 0.096363 0.581448
vt 0.831309 0.571747
vt 0.666644 0.582254
vt 0.329535 0.578591
vt 0.340768 0.580297
vt 0.644211 0.580273
vt 0.655449 0.578566
vt 0.318504 0.578896
vt 0.153788 0.567321
vt 0.039424 0.563825
vt 0.096467 0.578120
vt 0.831340 0.567311
vt 0.666488 0.578870
vt 0.329713 0.574777
vt 0.340788 0.576635
vt 0.644191 0.576611
vt 0.655271 0.574749
vt 0.318644 0.576295
vt 0.153762 0.563886
vt 0.039776 0.560294
vt 0.096549 0.575560
vt 0.831367 0.563872
vt 0.666348 0.576267
vt 0.329838 0.571906
vt 0.340797 0.573816
vt 0.644181 0.573793
vt 0.655145 0.571878
vt 0.318714 0.574486
vt 0.153726 0.561527
vt 0.040069 0.557873
vt 0.096605 0.573768
vt 0.831403 0.561512
vt 0.666278 0.574457
vt 0.329875 0.569941
vt 0.340813 0.571859
vt 0.644162 0.571845
vt 0.655108 0.569911
vt 0.318645 0.573283
vt 0.153658 0.559929
vt 0.040391 0.556275
vt 0.096642 0.572566
vt 0.831472 0.559913
vt 0.666347 0.573253
vt 0.329801 0.568567
vt 0.340875 0.570574
vt 0.644099 0.570551
vt 0.655181 0.568536
vt 0.318704 0.685707
vt 0.318634 0.686910
vt 0.153645 0.700234
vt 0.153713 0.698636
vt 0.040056 0.702269
vt 0.096595 0.686384
vt 0.096631 0.687587
vt 0.040377 0.703867
vt 0.831391 0.698735
vt 0.831460 0.700334
vt 0.666337 0.686965
vt 0.666268 0.685761
vt 0.329865 0.690254
vt 0.329791 0.691629
vt 0.340808 0.688326
vt 0.340870 0.689620
vt 0.644157 0.688381
vt 0.644094 0.689667
vt 0.655098 0.690305
vt 0.655172 0.691680
vt 0.318634 0.683898
vt 0.153750 0.696277
vt 0.039763 0.699848
vt 0.096539 0.684592
vt 0.831355 0.696374
vt 0.666339 0.683951
vt 0.329829 0.688288
vt 0.340790 0.686378
vt 0.644174 0.686424
vt 0.655136 0.688339
vt 0.318495 0.681297
vt 0.153777 0.692842
vt 0.039412 0.696317
vt 0.096458 0.682032
vt 0.831329 0.692936
vt 0.666479 0.681349
vt 0.329704 0.685418
vt 0.340780 0.683561
vt 0.644184 0.683604
vt 0.655262 0.685467
vt 0.318339 0.677915
vt 0.153808 0.688410
vt 0.038989 0.691751
vt 0.096354 0.678705
vt 0.831299 0.688500
vt 0.666636 0.677965
vt 0.329527 0.681604
vt 0.340760 0.679900
vt 0.644204 0.679942
vt 0.655441 0.681651
vt 0.318202 0.673851
vt 0.153855 0.683139
vt 0.038491 0.686304
vt 0.096231 0.674682
vt 0.831253 0.683224
vt 0.666775 0.673898
vt 0.329344 0.676904
vt 0.340729 0.675500
vt 0.644236 0.675541
vt 0.655626 0.676948
vt 0.318104 0.669247
vt 0.153930 0.677227
vt 0.037914 0.680176
vt 0.096096 0.670080
vt 0.831179 0.677308
vt 0.666875 0.669291
vt 0.329201 0.671471
vt 0.340701 0.670513
vt 0.644265 0.670552
vt 0.655770 0.671513
vt 0.318058 0.664267
vt 0.154043 0.670902
vt 0.037257 0.673595
vt 0.095956 0.665047
vt 0.831067 0.670978
vt 0.666922 0.664308
vt 0.329133 0.665528
vt 0.340695 0.665121
vt 0.644271 0.665159
vt 0.655839 0.665567
vt 0.318081 0.659085
vt 0.154200 0.664402
vt 0.036520 0.666800
vt 0.095820 0.659760
vt 0.830911 0.664473
vt 0.666900 0.659122
vt 0.329160 0.659333
vt 0.340728 0.659533
vt 0.644237 0.659568
vt 0.655813 0.659368
vt 0.318140 0.653844
vt 0.154418 0.657956
vt 0.035685 0.660050
vt 0.095685 0.654342
vt 0.830694 0.658021
vt 0.666842 0.653878
vt 0.329330 0.653167
vt 0.340794 0.653978
vt 0.644170 0.654009
vt 0.655643 0.653199
vt 0.318286 0.648726
vt 0.154677 0.651801
vt 0.034791 0.653564
vt 0.095569 0.649061
vt 0.830436 0.651861
vt 0.666698 0.648755
vt 0.329641 0.647337
vt 0.340898 0.648662
vt 0.644065 0.648690
vt 0.655333 0.647364
vt 0.318529 0.643911
vt 0.154962 0.646144
vt 0.033877 0.647556
vt 0.095478 0.644131
vt 0.830153 0.646199
vt 0.666456 0.643937
vt 0.330086 0.642162
vt 0.341013 0.643778
vt 0.643950 0.643803
vt 0.654889 0.642185
vt 0.318877 0.639596
vt 0.155248 0.641161
vt 0.032996 0.642218
vt 0.095413 0.639758
vt 0.829867 0.641212
vt 0.666109 0.639618
vt 0.330601 0.637917
vt 0.341094 0.639486
vt 0.643868 0.639507
vt 0.654374 0.637937
vt 0.319312 0.635977
vt 0.155509 0.636997
vt 0.032214 0.637713
vt 0.095375 0.636113
vt 0.829606 0.637044
vt 0.665675 0.635995
vt 0.331084 0.634724
vt 0.341104 0.635918
vt 0.643857 0.635938
vt 0.653892 0.634742
vt 0.319760 0.633214
vt 0.155718 0.633764
vt 0.031597 0.634178
vt 0.095356 0.633311
vt 0.829398 0.633809
vt 0.665227 0.633230
vt 0.331449 0.632503
vt 0.341039 0.633180
vt 0.643919 0.633200
vt 0.653527 0.632518
vt 0.320094 0.631333
vt 0.155850 0.631525
vt 0.031205 0.631695
vt 0.095350 0.631367
vt 0.829266 0.631568
vt 0.664893 0.631348
vt 0.331660 0.631052
vt 0.340951 0.631302
vt 0.644005 0.631328
vt 0.653317 0.631066
vt 0.795578 0.353312
vt 0.795578 0.268145
vt 0.797034 0.268145
vt 0.797034 0.353312
vt 0.777319 0.268145
vt 0.777319 0.353311
vt 0.751591 0.268146
vt 0.760108 0.268145
vt 0.760108 0.353312
vt 0.751591 0.353311
vt 0.812526 0.268145
vt 0.812526 0.353312
vt 0.809846 0.353311
vt 0.809845 0.268146
vt 0.816689 0.268145
vt 0.816689 0.353312
vt 0.814687 0.353312
vt 0.814687 0.268145
vt 0.818144 0.268145
vt 0.818144 0.353312
vt 0.799035 0.268145
vt 0.799035 0.353311
vt 0.801197 0.268145
vt 0.801197 0.353311
vt 0.803877 0.353311
vt 0.803877 0.268145
vt 0.707605 0.353312
vt 0.706149 0.353311
vt 0.706149 0.268145
vt 0.707604 0.268145
vt 0.725864 0.268145
vt 0.725864 0.353312
vt 0.743075 0.353311
vt 0.743075 0.268146
vt 0.690657 0.268145
vt 0.693337 0.268145
vt 0.693337 0.353312
vt 0.690657 0.353312
vt 0.686494 0.268146
vt 0.688496 0.268145
vt 0.688496 0.353312
vt 0.686494 0.353311
vt 0.685038 0.268145
vt 0.685038 0.353312
vt 0.704147 0.353311
vt 0.704147 0.268146
vt 0.701986 0.353312
vt 0.701986 0.268145
vt 0.699306 0.353312
vt 0.699306 0.268145
vt 0.986550 0.328818
vt 0.925655 0.328818
vt 0.925655 0.267923
vt 0.986550 0.267923
vt 0.986550 0.423991
vt 0.986550 0.484886
vt 0.925655 0.484886
vt 0.925655 0.423991
vt 0.141271 0.427493
vt 0.209077 0.427493
vt 0.209077 0.495419
vt 0.141271 0.495419
vt 0.141271 0.321519
vt 0.141271 0.253592
vt 0.209077 0.253592
vt 0.209077 0.321519
vt 0.733140 0.391185
vt 0.794274 0.391185
vt 0.794274 0.476350
vt 0.733140 0.476351
vt 0.671997 0.391185
vt 0.733131 0.391185
vt 0.733131 0.476351
vt 0.671997 0.476351
s 1
usemtl Material.001
f 1/1/1 3/2/1 10/3/2 9/4/2
f 13/5/3 3/2/1 1/1/1 5/6/3
f 2/7/4 14/8/5 6/9/5 4/10/4
f 14/8/5 13/5/3 5/6/3 6/9/5
f 22/11/6 19/12/6 23/13/7 26/14/7
f 7/15/8 8/16/8 16/17/9 15/18/9
f 15/18/9 16/17/9 19/12/6 22/11/6
f 11/19/10 12/20/10 8/16/8 7/15/8
f 9/4/2 10/3/2 17/21/11 18/22/11
f 18/22/11 17/21/11 21/23/12 20/24/12
f 24/25/13 25/26/13 26/14/7 23/13/7
f 20/24/12 21/23/12 25/26/13 24/25/13
f 27/27/14 33/28/8 34/29/8 28/30/14
f 37/31/15 29/32/15 27/27/14 28/30/14
f 2/7/4 4/10/4 30/33/16 38/34/16
f 38/34/16 30/33/16 29/32/15 37/31/15
f 46/35/12 50/36/13 47/37/13 43/38/12
f 31/39/2 39/40/11 40/41/11 32/42/2
f 39/40/11 46/35/12 43/38/12 40/41/11
f 35/43/17 31/39/2 32/42/2 36/44/17
f 33/28/8 42/45/9 41/46/9 34/29/8
f 42/45/9 44/47/6 45/48/6 41/46/9
f 48/49/7 47/37/13 50/36/13 49/50/7
f 44/47/6 48/49/7 49/50/7 45/48/6
s 0
f 12/901/334 11/902/334 873/903/334 874/904/334
f 36/905/335 876/906/335 875/907/335 35/908/335
usemtl Material.001
f 124/51/18 52/52/18 54/53/18 125/54/18
f 125/54/19 54/53/19 56/55/19 135/56/19
f 135/56/20 56/55/20 58/57/20 145/58/20
f 145/58/21 58/57/21 60/59/21 155/60/21
f 155/60/22 60/59/22 62/61/22 165/62/22
f 165/62/23 62/61/23 64/63/23 175/64/23
f 175/64/24 64/63/24 66/65/24 185/66/24
f 185/66/25 66/65/25 68/67/25 195/68/25
f 195/68/26 68/67/26 70/69/26 205/70/26
f 205/70/27 70/69/27 72/71/27 215/72/27
f 215/72/28 72/71/28 74/73/28 225/74/28
f 225/74/29 74/73/29 76/75/29 235/76/29
f 235/76/30 76/75/30 78/77/30 245/78/30
f 245/78/31 78/77/31 80/79/31 255/80/31
f 255/80/32 80/79/32 82/81/32 265/82/32
f 265/82/33 82/81/33 84/83/33 275/84/33
f 275/85/34 84/86/34 86/87/34 285/88/34
f 285/88/35 86/87/35 88/89/35 295/90/35
f 295/90/36 88/89/36 90/91/36 305/92/36
f 305/92/37 90/91/37 92/93/37 315/94/37
f 315/94/38 92/93/38 94/95/38 325/96/38
f 325/96/39 94/95/39 96/97/39 335/98/39
f 335/98/40 96/97/40 98/99/40 345/100/40
f 345/100/41 98/99/41 100/101/41 355/102/41
f 355/102/42 100/101/42 102/103/42 365/104/42
f 365/104/43 102/103/43 104/105/43 375/106/43
f 375/106/44 104/105/44 106/107/44 385/108/44
f 385/108/45 106/107/45 108/109/45 395/110/45
f 395/110/46 108/109/46 110/111/46 405/112/46
f 405/112/47 110/111/47 112/113/47 415/114/47
f 415/114/48 112/113/48 114/115/48 425/116/48
f 425/116/49 114/115/49 52/52/49 124/51/49
f 113/117/50 434/118/50 115/119/50 51/120/50
f 434/118/49 433/121/49 116/122/49 115/119/49
f 426/123/51 123/124/51 122/125/51 427/126/51
f 432/127/52 431/128/52 118/129/52 117/130/52
f 431/128/53 430/131/53 119/132/53 118/129/53
f 429/133/54 120/134/54 119/132/54 430/131/54
f 429/133/55 428/135/55 121/136/55 120/134/55
f 428/135/56 427/126/56 122/125/56 121/136/56
f 422/137/57 432/127/57 433/121/57 423/138/57
f 426/123/50 425/116/50 124/51/50 123/124/50
f 111/139/58 424/140/58 434/118/58 113/117/58
f 424/140/48 423/138/48 433/121/48 434/118/48
f 416/141/59 426/123/59 427/126/59 417/142/59
f 422/137/60 421/143/60 431/128/60 432/127/60
f 421/143/61 420/144/61 430/131/61 431/128/61
f 419/145/62 429/133/62 430/131/62 420/144/62
f 419/145/63 418/146/63 428/135/63 429/133/63
f 418/146/64 417/142/64 427/126/64 428/135/64
f 412/147/65 422/137/65 423/138/65 413/148/65
f 416/141/58 415/114/58 425/116/58 426/123/58
f 109/149/66 414/150/66 424/140/66 111/139/66
f 414/150/47 413/148/47 423/138/47 424/140/47
f 406/151/67 416/141/67 417/142/67 407/152/67
f 412/147/68 411/153/68 421/143/68 422/137/68
f 411/153/69 410/154/69 420/144/69 421/143/69
f 409/155/70 419/145/70 420/144/70 410/154/70
f 409/155/71 408/156/71 418/146/71 419/145/71
f 408/156/72 407/152/72 417/142/72 418/146/72
f 402/157/73 412/147/73 413/148/73 403/158/73
f 406/151/66 405/112/66 415/114/66 416/141/66
f 107/159/74 404/160/74 414/150/74 109/149/74
f 404/160/46 403/158/46 413/148/46 414/150/46
f 396/161/75 406/151/75 407/152/75 397/162/75
f 402/157/76 401/163/76 411/153/76 412/147/76
f 401/163/77 400/164/77 410/154/77 411/153/77
f 399/165/78 409/155/78 410/154/78 400/164/78
f 399/165/79 398/166/79 408/156/79 409/155/79
f 398/166/80 397/162/80 407/152/80 408/156/80
f 392/167/81 402/157/81 403/158/81 393/168/81
f 396/161/82 395/110/82 405/112/82 406/151/82
f 105/169/83 394/170/83 404/160/83 107/159/83
f 394/170/45 393/168/45 403/158/45 404/160/45
f 386/171/84 396/161/84 397/162/84 387/172/84
f 392/167/85 391/173/85 401/163/85 402/157/85
f 391/173/86 390/174/86 400/164/86 401/163/86
f 389/175/87 399/165/87 400/164/87 390/174/87
f 389/175/88 388/176/88 398/166/88 399/165/88
f 388/176/89 387/172/89 397/162/89 398/166/89
f 382/177/90 392/167/90 393/168/90 383/178/90
f 386/171/83 385/108/83 395/110/83 396/161/83
f 103/179/91 384/180/91 394/170/91 105/169/91
f 384/180/44 383/178/44 393/168/44 394/170/44
f 376/181/92 386/171/92 387/172/92 377/182/92
f 382/177/93 381/183/93 391/173/93 392/167/93
f 381/183/94 380/184/94 390/174/94 391/173/94
f 379/185/95 389/175/95 390/174/95 380/184/95
f 379/185/96 378/186/96 388/176/96 389/175/96
f 378/186/97 377/182/97 387/172/97 388/176/97
f 372/187/98 382/177/98 383/178/98 373/188/98
f 376/181/91 375/106/91 385/108/91 386/171/91
f 101/189/99 374/190/99 384/180/99 103/179/99
f 374/190/43 373/188/43 383/178/43 384/180/43
f 366/191/100 376/181/100 377/182/100 367/192/100
f 372/187/101 371/193/101 381/183/101 382/177/101
f 371/193/102 370/194/102 380/184/102 381/183/102
f 369/195/103 379/185/103 380/184/103 370/194/103
f 369/195/104 368/196/104 378/186/104 379/185/104
f 368/196/105 367/192/105 377/182/105 378/186/105
f 362/197/106 372/187/106 373/188/106 363/198/106
f 366/191/99 365/104/99 375/106/99 376/181/99
f 99/199/107 364/200/107 374/190/107 101/189/107
f 364/200/42 363/198/42 373/188/42 374/190/42
f 356/201/108 366/191/108 367/192/108 357/202/108
f 362/197/109 361/203/109 371/193/109 372/187/109
f 361/203/110 360/204/110 370/194/110 371/193/110
f 359/205/111 369/195/111 370/194/111 360/204/111
f 359/205/112 358/206/112 368/196/112 369/195/112
f 358/206/113 357/202/113 367/192/113 368/196/113
f 352/207/114 362/197/114 363/198/114 353/208/114
f 356/201/107 355/102/107 365/104/107 366/191/107
f 97/209/115 354/210/115 364/200/115 99/199/115
f 354/210/41 353/208/41 363/198/41 364/200/41
f 346/211/116 356/201/116 357/202/116 347/212/116
f 352/207/117 351/213/117 361/203/117 362/197/117
f 351/213/118 350/214/118 360/204/118 361/203/118
f 349/215/119 359/205/119 360/204/119 350/214/119
f 349/215/120 348/216/120 358/206/120 359/205/120
f 348/216/121 347/212/121 357/202/121 358/206/121
f 342/217/122 352/207/122 353/208/122 343/218/122
f 346/211/115 345/100/115 355/102/115 356/201/115
f 95/219/123 344/220/123 354/210/123 97/209/123
f 344/220/40 343/218/40 353/208/40 354/210/40
f 336/221/124 346/211/124 347/212/124 337/222/124
f 342/217/125 341/223/125 351/213/125 352/207/125
f 341/223/126 340/224/126 350/214/126 351/213/126
f 339/225/127 349/215/127 350/214/127 340/224/127
f 339/225/128 338/226/128 348/216/128 349/215/128
f 338/226/129 337/222/129 347/212/129 348/216/129
f 332/227/130 342/217/130 343/218/130 333/228/130
f 336/221/123 335/98/123 345/100/123 346/211/123
f 93/229/131 334/230/131 344/220/131 95/219/131
f 334/230/39 333/228/39 343/218/39 344/220/39
f 326/231/132 336/221/132 337/222/132 327/232/132
f 332/227/133 331/233/133 341/223/133 342/217/133
f 331/233/134 330/234/134 340/224/134 341/223/134
f 329/235/135 339/225/135 340/224/135 330/234/135
f 329/235/136 328/236/136 338/226/136 339/225/136
f 328/236/137 327/232/137 337/222/137 338/226/137
f 322/237/138 332/227/138 333/228/138 323/238/138
f 326/231/131 325/96/131 335/98/131 336/221/131
f 91/239/139 324/240/139 334/230/139 93/229/139
f 324/240/38 323/238/38 333/228/38 334/230/38
f 316/241/140 326/231/140 327/232/140 317/242/140
f 322/237/141 321/243/141 331/233/141 332/227/141
f 321/243/142 320/244/142 330/234/142 331/233/142
f 319/245/143 329/235/143 330/234/143 320/244/143
f 319/245/144 318/246/144 328/236/144 329/235/144
f 318/246/145 317/242/145 327/232/145 328/236/145
f 312/247/146 322/237/146 323/238/146 313/248/146
f 316/241/139 315/94/139 325/96/139 326/231/139
f 89/249/147 314/250/147 324/240/147 91/239/147
f 314/250/148 313/248/148 323/238/148 324/240/148
f 306/251/149 316/241/149 317/242/149 307/252/149
f 312/247/150 311/253/150 321/243/150 322/237/150
f 311/253/151 310/254/151 320/244/151 321/243/151
f 309/255/152 319/245/152 320/244/152 310/254/152
f 309/255/153 308/256/153 318/246/153 319/245/153
f 308/256/154 307/252/154 317/242/154 318/246/154
f 302/257/155 312/247/155 313/248/155 303/258/155
f 306/251/156 305/92/156 315/94/156 316/241/156
f 87/259/157 304/260/157 314/250/157 89/249/157
f 304/260/36 303/258/36 313/248/36 314/250/36
f 296/261/158 306/251/158 307/252/158 297/262/158
f 302/257/159 301/263/159 311/253/159 312/247/159
f 301/263/160 300/264/160 310/254/160 311/253/160
f 299/265/161 309/255/161 310/254/161 300/264/161
f 299/265/162 298/266/162 308/256/162 309/255/162
f 298/266/163 297/262/163 307/252/163 308/256/163
f 292/267/164 302/257/164 303/258/164 293/268/164
f 296/261/157 295/90/157 305/92/157 306/251/157
f 85/269/165 294/270/165 304/260/165 87/259/165
f 294/270/35 293/268/35 303/258/35 304/260/35
f 286/271/166 296/261/166 297/262/166 287/272/166
f 292/267/167 291/273/167 301/263/167 302/257/167
f 291/273/168 290/274/168 300/264/168 301/263/168
f 289/275/169 299/265/169 300/264/169 290/274/169
f 289/275/170 288/276/170 298/266/170 299/265/170
f 288/276/171 287/272/171 297/262/171 298/266/171
f 282/277/172 292/267/172 293/268/172 283/278/172
f 286/271/165 285/88/165 295/90/165 296/261/165
f 83/279/173 284/280/173 294/270/173 85/269/173
f 284/280/34 283/278/34 293/268/34 294/270/34
f 276/281/174 286/271/174 287/272/174 277/282/174
f 282/277/175 281/283/175 291/273/175 292/267/175
f 281/283/176 280/284/176 290/274/176 291/273/176
f 279/285/177 289/275/177 290/274/177 280/284/177
f 279/285/178 278/286/178 288/276/178 289/275/178
f 278/286/179 277/282/179 287/272/179 288/276/179
f 272/287/180 282/288/180 283/289/180 273/290/180
f 276/281/173 275/85/173 285/88/173 286/271/173
f 81/291/181 274/292/181 284/293/181 83/294/181
f 274/292/33 273/290/33 283/289/33 284/293/33
f 266/295/182 276/296/182 277/297/182 267/298/182
f 272/287/183 271/299/183 281/300/183 282/288/183
f 271/299/184 270/301/184 280/302/184 281/300/184
f 269/303/185 279/304/185 280/302/185 270/301/185
f 269/303/186 268/305/186 278/306/186 279/304/186
f 268/305/187 267/298/187 277/297/187 278/306/187
f 262/307/188 272/287/188 273/290/188 263/308/188
f 266/295/181 265/82/181 275/84/181 276/296/181
f 79/309/189 264/310/189 274/292/189 81/291/189
f 264/310/32 263/308/32 273/290/32 274/292/32
f 256/311/190 266/295/190 267/298/190 257/312/190
f 262/307/191 261/313/191 271/299/191 272/287/191
f 261/313/192 260/314/192 270/301/192 271/299/192
f 259/315/193 269/303/193 270/301/193 260/314/193
f 259/315/194 258/316/194 268/305/194 269/303/194
f 258/316/195 257/312/195 267/298/195 268/305/195
f 252/317/196 262/307/196 263/308/196 253/318/196
f 256/311/189 255/80/189 265/82/189 266/295/189
f 77/319/197 254/320/197 264/310/197 79/309/197
f 254/320/31 253/318/31 263/308/31 264/310/31
f 246/321/198 256/311/198 257/312/198 247/322/198
f 252/317/199 251/323/199 261/313/199 262/307/199
f 251/323/200 250/324/200 260/314/200 261/313/200
f 249/325/201 259/315/201 260/314/201 250/324/201
f 249/325/202 248/326/202 258/316/202 259/315/202
f 248/326/203 247/322/203 257/312/203 258/316/203
f 242/327/204 252/317/204 253/318/204 243/328/204
f 246/321/197 245/78/197 255/80/197 256/311/197
f 75/329/205 244/330/205 254/320/205 77/319/205
f 244/330/30 243/328/30 253/318/30 254/320/30
f 236/331/206 246/321/206 247/322/206 237/332/206
f 242/327/207 241/333/207 251/323/207 252/317/207
f 241/333/208 240/334/208 250/324/208 251/323/208
f 239/335/209 249/325/209 250/324/209 240/334/209
f 239/335/210 238/336/210 248/326/210 249/325/210
f 238/336/211 237/332/211 247/322/211 248/326/211
f 232/337/212 242/327/212 243/328/212 233/338/212
f 236/331/213 235/76/213 245/78/213 246/321/213
f 73/339/214 234/340/214 244/330/214 75/329/214
f 234/340/29 233/338/29 243/328/29 244/330/29
f 226/341/215 236/331/215 237/332/215 227/342/215
f 232/337/216 231/343/216 241/333/216 242/327/216
f 231/343/217 230/344/217 240/334/217 241/333/217
f 229/345/218 239/335/218 240/334/218 230/344/218
f 229/345/219 228/346/219 238/336/219 239/335/219
f 228/346/220 227/342/220 237/332/220 238/336/220
f 222/347/221 232/337/221 233/338/221 223/348/221
f 226/341/214 225/74/214 235/76/214 236/331/214
f 71/349/222 224/350/222 234/340/222 73/339/222
f 224/350/28 223/348/28 233/338/28 234/340/28
f 216/351/223 226/341/223 227/342/223 217/352/223
f 222/347/224 221/353/224 231/343/224 232/337/224
f 221/353/225 220/354/225 230/344/225 231/343/225
f 219/355/226 229/345/226 230/344/226 220/354/226
f 219/355/227 218/356/227 228/346/227 229/345/227
f 218/356/228 217/352/228 227/342/228 228/346/228
f 212/357/229 222/347/229 223/348/229 213/358/229
f 216/351/222 215/72/222 225/74/222 226/341/222
f 69/359/230 214/360/230 224/350/230 71/349/230
f 214/360/27 213/358/27 223/348/27 224/350/27
f 206/361/231 216/351/231 217/352/231 207/362/231
f 212/357/232 211/363/232 221/353/232 222/347/232
f 211/363/233 210/364/233 220/354/233 221/353/233
f 209/365/234 219/355/234 220/354/234 210/364/234
f 209/365/235 208/366/235 218/356/235 219/355/235
f 208/366/236 207/362/236 217/352/236 218/356/236
f 202/367/237 212/357/237 213/358/237 203/368/237
f 206/361/230 205/70/230 215/72/230 216/351/230
f 67/369/238 204/370/238 214/360/238 69/359/238
f 204/370/26 203/368/26 213/358/26 214/360/26
f 196/371/239 206/361/239 207/362/239 197/372/239
f 202/367/240 201/373/240 211/363/240 212/357/240
f 201/373/241 200/374/241 210/364/241 211/363/241
f 199/375/242 209/365/242 210/364/242 200/374/242
f 199/375/243 198/376/243 208/366/243 209/365/243
f 198/376/244 197/372/244 207/362/244 208/366/244
f 192/377/245 202/367/245 203/368/245 193/378/245
f 196/371/238 195/68/238 205/70/238 206/361/238
f 65/379/246 194/380/246 204/370/246 67/369/246
f 194/380/25 193/378/25 203/368/25 204/370/25
f 186/381/247 196/371/247 197/372/247 187/382/247
f 192/377/248 191/383/248 201/373/248 202/367/248
f 191/383/249 190/384/249 200/374/249 201/373/249
f 189/385/250 199/375/250 200/374/250 190/384/250
f 189/385/251 188/386/251 198/376/251 199/375/251
f 188/386/252 187/382/252 197/372/252 198/376/252
f 182/387/253 192/377/253 193/378/253 183/388/253
f 186/381/246 185/66/246 195/68/246 196/371/246
f 63/389/254 184/390/254 194/380/254 65/379/254
f 184/390/24 183/388/24 193/378/24 194/380/24
f 176/391/255 186/381/255 187/382/255 177/392/255
f 182/387/256 181/393/256 191/383/256 192/377/256
f 181/393/257 180/394/257 190/384/257 191/383/257
f 179/395/258 189/385/258 190/384/258 180/394/258
f 179/395/259 178/396/259 188/386/259 189/385/259
f 178/396/260 177/392/260 187/382/260 188/386/260
f 172/397/261 182/387/261 183/388/261 173/398/261
f 176/391/254 175/64/254 185/66/254 186/381/254
f 61/399/262 174/400/262 184/390/262 63/389/262
f 174/400/23 173/398/23 183/388/23 184/390/23
f 166/401/263 176/391/263 177/392/263 167/402/263
f 172/397/264 171/403/264 181/393/264 182/387/264
f 171/403/265 170/404/265 180/394/265 181/393/265
f 169/405/266 179/395/266 180/394/266 170/404/266
f 169/405/267 168/406/267 178/396/267 179/395/267
f 168/406/268 167/402/268 177/392/268 178/396/268
f 162/407/269 172/397/269 173/398/269 163/408/269
f 166/401/262 165/62/262 175/64/262 176/391/262
f 59/409/270 164/410/270 174/400/270 61/399/270
f 164/410/22 163/408/22 173/398/22 174/400/22
f 156/411/271 166/401/271 167/402/271 157/412/271
f 162/407/272 161/413/272 171/403/272 172/397/272
f 161/413/273 160/414/273 170/404/273 171/403/273
f 159/415/274 169/405/274 170/404/274 160/414/274
f 159/415/275 158/416/275 168/406/275 169/405/275
f 158/416/276 157/412/276 167/402/276 168/406/276
f 152/417/277 162/407/277 163/408/277 153/418/277
f 156/411/270 155/60/270 165/62/270 166/401/270
f 57/419/278 154/420/278 164/410/278 59/409/278
f 154/420/21 153/418/21 163/408/21 164/410/21
f 146/421/279 156/411/279 157/412/279 147/422/279
f 152/417/280 151/423/280 161/413/280 162/407/280
f 151/423/281 150/424/281 160/414/281 161/413/281
f 149/425/282 159/415/282 160/414/282 150/424/282
f 149/425/283 148/426/283 158/416/283 159/415/283
f 148/426/284 147/422/284 157/412/284 158/416/284
f 142/427/285 152/417/285 153/418/285 143/428/285
f 146/421/278 145/58/278 155/60/278 156/411/278
f 55/429/286 144/430/286 154/420/286 57/419/286
f 144/430/20 143/428/20 153/418/20 154/420/20
f 136/431/287 146/421/287 147/422/287 137/432/287
f 142/427/288 141/433/288 151/423/288 152/417/288
f 141/433/289 140/434/289 150/424/289 151/423/289
f 139/435/290 149/425/290 150/424/290 140/434/290
f 139/435/291 138/436/291 148/426/291 149/425/291
f 138/436/292 137/432/292 147/422/292 148/426/292
f 132/437/293 142/427/293 143/428/293 133/438/293
f 136/431/286 135/56/286 145/58/286 146/421/286
f 53/439/294 134/440/294 144/430/294 55/429/294
f 134/440/19 133/438/19 143/428/19 144/430/19
f 126/441/295 136/431/295 137/432/295 127/442/295
f 132/437/296 131/443/296 141/433/296 142/427/296
f 131/443/297 130/444/297 140/434/297 141/433/297
f 129/445/298 139/435/298 140/434/298 130/444/298
f 129/445/299 128/446/299 138/436/299 139/435/299
f 128/446/300 127/442/300 137/432/300 138/436/300
f 116/122/301 117/130/301 132/437/301 133/438/301
f 126/441/294 125/54/294 135/56/294 136/431/294
f 51/120/302 115/119/302 134/440/302 53/439/302
f 115/119/18 116/122/18 133/438/18 134/440/18
f 122/125/303 123/124/303 126/441/303 127/442/303
f 117/130/304 118/129/304 131/443/304 132/437/304
f 118/129/305 119/132/305 130/444/305 131/443/305
f 119/132/306 120/134/306 129/445/306 130/444/306
f 120/134/307 121/136/307 128/446/307 129/445/307
f 121/136/308 122/125/308 127/442/308 128/446/308
f 123/124/302 124/51/302 125/54/302 126/441/302
f 432/127/309 117/130/309 116/122/309 433/121/309
f 508/447/18 436/448/18 438/449/18 509/450/18
f 509/450/19 438/449/19 440/451/19 519/452/19
f 519/452/20 440/451/20 442/453/20 529/454/20
f 529/454/21 442/453/21 444/455/21 539/456/21
f 539/456/22 444/455/22 446/457/22 549/458/22
f 549/458/23 446/457/23 448/459/23 559/460/23
f 559/460/24 448/459/24 450/461/24 569/462/24
f 569/462/25 450/461/25 452/463/25 579/464/25
f 579/464/26 452/463/26 454/465/26 589/466/26
f 589/466/27 454/465/27 456/467/27 599/468/27
f 599/468/28 456/467/28 458/469/28 609/470/28
f 609/470/29 458/469/29 460/471/29 619/472/29
f 619/472/30 460/471/30 462/473/30 629/474/30
f 629/474/31 462/473/31 464/475/31 639/476/31
f 639/476/32 464/475/32 466/477/32 649/478/32
f 649/478/33 466/477/33 468/479/33 659/480/33
f 659/481/34 468/482/34 470/483/34 669/484/34
f 669/484/35 470/483/35 472/485/35 679/486/35
f 679/486/36 472/485/36 474/487/36 689/488/36
f 689/488/37 474/487/37 476/489/37 699/490/37
f 699/490/38 476/489/38 478/491/38 709/492/38
f 709/492/39 478/491/39 480/493/39 719/494/39
f 719/494/40 480/493/40 482/495/40 729/496/40
f 729/496/41 482/495/41 484/497/41 739/498/41
f 739/498/42 484/497/42 486/499/42 749/500/42
f 749/500/43 486/499/43 488/501/43 759/502/43
f 759/502/44 488/501/44 490/503/44 769/504/44
f 769/504/45 490/503/45 492/505/45 779/506/45
f 779/506/46 492/505/46 494/507/46 789/508/46
f 789/508/47 494/507/47 496/509/47 799/510/47
f 799/510/48 496/509/48 498/511/48 809/512/48
f 809/512/49 498/511/49 436/448/49 508/447/49
f 497/513/50 818/514/50 499/515/50 435/516/50
f 818/514/49 817/517/49 500/518/49 499/515/49
f 810/519/51 507/520/51 506/521/51 811/522/51
f 816/523/52 815/524/52 502/525/52 501/526/52
f 815/524/310 814/527/310 503/528/310 502/525/310
f 813/529/54 504/530/54 503/528/54 814/527/54
f 813/529/311 812/531/311 505/532/311 504/530/311
f 812/531/56 811/522/56 506/521/56 505/532/56
f 806/533/57 816/523/57 817/517/57 807/534/57
f 810/519/50 809/512/50 508/447/50 507/520/50
f 495/535/58 808/536/58 818/514/58 497/513/58
f 808/536/48 807/534/48 817/517/48 818/514/48
f 800/537/59 810/519/59 811/522/59 801/538/59
f 806/533/60 805/539/60 815/524/60 816/523/60
f 805/539/61 804/540/61 814/527/61 815/524/61
f 803/541/62 813/529/62 814/527/62 804/540/62
f 803/541/63 802/542/63 812/531/63 813/529/63
f 802/542/64 801/538/64 811/522/64 812/531/64
f 796/543/312 806/533/312 807/534/312 797/544/312
f 800/537/58 799/510/58 809/512/58 810/519/58
f 493/545/66 798/546/66 808/536/66 495/535/66
f 798/546/313 797/544/313 807/534/313 808/536/313
f 790/547/67 800/537/67 801/538/67 791/548/67
f 796/543/68 795/549/68 805/539/68 806/533/68
f 795/549/69 794/550/69 804/540/69 805/539/69
f 793/551/70 803/541/70 804/540/70 794/550/70
f 793/551/71 792/552/71 802/542/71 803/541/71
f 792/552/72 791/548/72 801/538/72 802/542/72
f 786/553/73 796/543/73 797/544/73 787/554/73
f 790/547/314 789/508/314 799/510/314 800/537/314
f 491/555/74 788/556/74 798/546/74 493/545/74
f 788/556/46 787/554/46 797/544/46 798/546/46
f 780/557/75 790/547/75 791/548/75 781/558/75
f 786/553/76 785/559/76 795/549/76 796/543/76
f 785/559/77 784/560/77 794/550/77 795/549/77
f 783/561/78 793/551/78 794/550/78 784/560/78
f 783/561/79 782/562/79 792/552/79 793/551/79
f 782/562/80 781/558/80 791/548/80 792/552/80
f 776/563/81 786/553/81 787/554/81 777/564/81
f 780/557/82 779/506/82 789/508/82 790/547/82
f 489/565/83 778/566/83 788/556/83 491/555/83
f 778/566/45 777/564/45 787/554/45 788/556/45
f 770/567/84 780/557/84 781/558/84 771/568/84
f 776/563/85 775/569/85 785/559/85 786/553/85
f 775/569/86 774/570/86 784/560/86 785/559/86
f 773/571/87 783/561/87 784/560/87 774/570/87
f 773/571/88 772/572/88 782/562/88 783/561/88
f 772/572/89 771/568/89 781/558/89 782/562/89
f 766/573/315 776/563/315 777/564/315 767/574/315
f 770/567/83 769/504/83 779/506/83 780/557/83
f 487/575/91 768/576/91 778/566/91 489/565/91
f 768/576/44 767/574/44 777/564/44 778/566/44
f 760/577/316 770/567/316 771/568/316 761/578/316
f 766/573/93 765/579/93 775/569/93 776/563/93
f 765/579/94 764/580/94 774/570/94 775/569/94
f 763/581/95 773/571/95 774/570/95 764/580/95
f 763/581/96 762/582/96 772/572/96 773/571/96
f 762/582/97 761/578/97 771/568/97 772/572/97
f 756/583/98 766/573/98 767/574/98 757/584/98
f 760/577/91 759/502/91 769/504/91 770/567/91
f 485/585/99 758/586/99 768/576/99 487/575/99
f 758/586/43 757/584/43 767/574/43 768/576/43
f 750/587/100 760/577/100 761/578/100 751/588/100
f 756/583/101 755/589/101 765/579/101 766/573/101
f 755/589/102 754/590/102 764/580/102 765/579/102
f 753/591/103 763/581/103 764/580/103 754/590/103
f 753/591/104 752/592/104 762/582/104 763/581/104
f 752/592/105 751/588/105 761/578/105 762/582/105
f 746/593/106 756/583/106 757/584/106 747/594/106
f 750/587/99 749/500/99 759/502/99 760/577/99
f 483/595/107 748/596/107 758/586/107 485/585/107
f 748/596/42 747/594/42 757/584/42 758/586/42
f 740/597/108 750/587/108 751/588/108 741/598/108
f 746/593/317 745/599/317 755/589/317 756/583/317
f 745/599/110 744/600/110 754/590/110 755/589/110
f 743/601/111 753/591/111 754/590/111 744/600/111
f 743/601/112 742/602/112 752/592/112 753/591/112
f 742/602/113 741/598/113 751/588/113 752/592/113
f 736/603/114 746/593/114 747/594/114 737/604/114
f 740/597/107 739/498/107 749/500/107 750/587/107
f 481/605/115 738/606/115 748/596/115 483/595/115
f 738/606/41 737/604/41 747/594/41 748/596/41
f 730/607/116 740/597/116 741/598/116 731/608/116
f 736/603/318 735/609/318 745/599/318 746/593/318
f 735/609/118 734/610/118 744/600/118 745/599/118
f 733/611/119 743/601/119 744/600/119 734/610/119
f 733/611/120 732/612/120 742/602/120 743/601/120
f 732/612/319 731/608/319 741/598/319 742/602/319
f 726/613/122 736/603/122 737/604/122 727/614/122
f 730/607/115 729/496/115 739/498/115 740/597/115
f 479/615/123 728/616/123 738/606/123 481/605/123
f 728/616/40 727/614/40 737/604/40 738/606/40
f 720/617/124 730/607/124 731/608/124 721/618/124
f 726/613/125 725/619/125 735/609/125 736/603/125
f 725/619/126 724/620/126 734/610/126 735/609/126
f 723/621/127 733/611/127 734/610/127 724/620/127
f 723/621/128 722/622/128 732/612/128 733/611/128
f 722/622/129 721/618/129 731/608/129 732/612/129
f 716/623/320 726/613/320 727/614/320 717/624/320
f 720/617/123 719/494/123 729/496/123 730/607/123
f 477/625/131 718/626/131 728/616/131 479/615/131
f 718/626/39 717/624/39 727/614/39 728/616/39
f 710/627/321 720/617/321 721/618/321 711/628/321
f 716/623/133 715/629/133 725/619/133 726/613/133
f 715/629/134 714/630/134 724/620/134 725/619/134
f 713/631/135 723/621/135 724/620/135 714/630/135
f 713/631/136 712/632/136 722/622/136 723/621/136
f 712/632/137 711/628/137 721/618/137 722/622/137
f 706/633/138 716/623/138 717/624/138 707/634/138
f 710/627/131 709/492/131 719/494/131 720/617/131
f 475/635/139 708/636/139 718/626/139 477/625/139
f 708/636/38 707/634/38 717/624/38 718/626/38
f 700/637/140 710/627/140 711/628/140 701/638/140
f 706/633/141 705/639/141 715/629/141 716/623/141
f 705/639/142 704/640/142 714/630/142 715/629/142
f 703/641/143 713/631/143 714/630/143 704/640/143
f 703/641/322 702/642/322 712/632/322 713/631/322
f 702/642/145 701/638/145 711/628/145 712/632/145
f 696/643/146 706/633/146 707/634/146 697/644/146
f 700/637/139 699/490/139 709/492/139 710/627/139
f 473/645/147 698/646/147 708/636/147 475/635/147
f 698/646/148 697/644/148 707/634/148 708/636/148
f 690/647/149 700/637/149 701/638/149 691/648/149
f 696/643/150 695/649/150 705/639/150 706/633/150
f 695/649/151 694/650/151 704/640/151 705/639/151
f 693/651/152 703/641/152 704/640/152 694/650/152
f 693/651/153 692/652/153 702/642/153 703/641/153
f 692/652/154 691/648/154 701/638/154 702/642/154
f 686/653/155 696/643/155 697/644/155 687/654/155
f 690/647/156 689/488/156 699/490/156 700/637/156
f 471/655/157 688/656/157 698/646/157 473/645/157
f 688/656/36 687/654/36 697/644/36 698/646/36
f 680/657/158 690/647/158 691/648/158 681/658/158
f 686/653/159 685/659/159 695/649/159 696/643/159
f 685/659/160 684/660/160 694/650/160 695/649/160
f 683/661/161 693/651/161 694/650/161 684/660/161
f 683/661/162 682/662/162 692/652/162 693/651/162
f 682/662/163 681/658/163 691/648/163 692/652/163
f 676/663/164 686/653/164 687/654/164 677/664/164
f 680/657/157 679/486/157 689/488/157 690/647/157
f 469/665/165 678/666/165 688/656/165 471/655/165
f 678/666/35 677/664/35 687/654/35 688/656/35
f 670/667/166 680/657/166 681/658/166 671/668/166
f 676/663/167 675/669/167 685/659/167 686/653/167
f 675/669/168 674/670/168 684/660/168 685/659/168
f 673/671/169 683/661/169 684/660/169 674/670/169
f 673/671/170 672/672/170 682/662/170 683/661/170
f 672/672/171 671/668/171 681/658/171 682/662/171
f 666/673/172 676/663/172 677/664/172 667/674/172
f 670/667/165 669/484/165 679/486/165 680/657/165
f 467/675/173 668/676/173 678/666/173 469/665/173
f 668/676/34 667/674/34 677/664/34 678/666/34
f 660/677/174 670/667/174 671/668/174 661/678/174
f 666/673/175 665/679/175 675/669/175 676/663/175
f 665/679/176 664/680/176 674/670/176 675/669/176
f 663/681/177 673/671/177 674/670/177 664/680/177
f 663/681/178 662/682/178 672/672/178 673/671/178
f 662/682/179 661/678/179 671/668/179 672/672/179
f 656/683/180 666/684/180 667/685/180 657/686/180
f 660/677/173 659/481/173 669/484/173 670/667/173
f 465/687/181 658/688/181 668/689/181 467/690/181
f 658/688/33 657/686/33 667/685/33 668/689/33
f 650/691/182 660/692/182 661/693/182 651/694/182
f 656/683/183 655/695/183 665/696/183 666/684/183
f 655/695/184 654/697/184 664/698/184 665/696/184
f 653/699/185 663/700/185 664/698/185 654/697/185
f 653/699/186 652/701/186 662/702/186 663/700/186
f 652/701/187 651/694/187 661/693/187 662/702/187
f 646/703/188 656/683/188 657/686/188 647/704/188
f 650/691/181 649/478/181 659/480/181 660/692/181
f 463/705/189 648/706/189 658/688/189 465/687/189
f 648/706/32 647/704/32 657/686/32 658/688/32
f 640/707/190 650/691/190 651/694/190 641/708/190
f 646/703/191 645/709/191 655/695/191 656/683/191
f 645/709/192 644/710/192 654/697/192 655/695/192
f 643/711/193 653/699/193 654/697/193 644/710/193
f 643/711/194 642/712/194 652/701/194 653/699/194
f 642/712/195 641/708/195 651/694/195 652/701/195
f 636/713/196 646/703/196 647/704/196 637/714/196
f 640/707/189 639/476/189 649/478/189 650/691/189
f 461/715/197 638/716/197 648/706/197 463/705/197
f 638/716/31 637/714/31 647/704/31 648/706/31
f 630/717/198 640/707/198 641/708/198 631/718/198
f 636/713/199 635/719/199 645/709/199 646/703/199
f 635/719/200 634/720/200 644/710/200 645/709/200
f 633/721/201 643/711/201 644/710/201 634/720/201
f 633/721/202 632/722/202 642/712/202 643/711/202
f 632/722/203 631/718/203 641/708/203 642/712/203
f 626/723/204 636/713/204 637/714/204 627/724/204
f 630/717/197 629/474/197 639/476/197 640/707/197
f 459/725/205 628/726/205 638/716/205 461/715/205
f 628/726/323 627/724/323 637/714/323 638/716/323
f 620/727/206 630/717/206 631/718/206 621/728/206
f 626/723/207 625/729/207 635/719/207 636/713/207
f 625/729/208 624/730/208 634/720/208 635/719/208
f 623/731/209 633/721/209 634/720/209 624/730/209
f 623/731/210 622/732/210 632/722/210 633/721/210
f 622/732/211 621/728/211 631/718/211 632/722/211
f 616/733/212 626/723/212 627/724/212 617/734/212
f 620/727/213 619/472/213 629/474/213 630/717/213
f 457/735/214 618/736/214 628/726/214 459/725/214
f 618/736/29 617/734/29 627/724/29 628/726/29
f 610/737/215 620/727/215 621/728/215 611/738/215
f 616/733/216 615/739/216 625/729/216 626/723/216
f 615/739/217 614/740/217 624/730/217 625/729/217
f 613/741/218 623/731/218 624/730/218 614/740/218
f 613/741/219 612/742/219 622/732/219 623/731/219
f 612/742/220 611/738/220 621/728/220 622/732/220
f 606/743/221 616/733/221 617/734/221 607/744/221
f 610/737/214 609/470/214 619/472/214 620/727/214
f 455/745/222 608/746/222 618/736/222 457/735/222
f 608/746/28 607/744/28 617/734/28 618/736/28
f 600/747/324 610/737/324 611/738/324 601/748/324
f 606/743/224 605/749/224 615/739/224 616/733/224
f 605/749/225 604/750/225 614/740/225 615/739/225
f 603/751/226 613/741/226 614/740/226 604/750/226
f 603/751/227 602/752/227 612/742/227 613/741/227
f 602/752/228 601/748/228 611/738/228 612/742/228
f 596/753/229 606/743/229 607/744/229 597/754/229
f 600/747/222 599/468/222 609/470/222 610/737/222
f 453/755/230 598/756/230 608/746/230 455/745/230
f 598/756/27 597/754/27 607/744/27 608/746/27
f 590/757/231 600/747/231 601/748/231 591/758/231
f 596/753/232 595/759/232 605/749/232 606/743/232
f 595/759/325 594/760/325 604/750/325 605/749/325
f 593/761/234 603/751/234 604/750/234 594/760/234
f 593/761/326 592/762/326 602/752/326 603/751/326
f 592/762/236 591/758/236 601/748/236 602/752/236
f 586/763/237 596/753/237 597/754/237 587/764/237
f 590/757/230 589/466/230 599/468/230 600/747/230
f 451/765/238 588/766/238 598/756/238 453/755/238
f 588/766/26 587/764/26 597/754/26 598/756/26
f 580/767/239 590/757/239 591/758/239 581/768/239
f 586/763/240 585/769/240 595/759/240 596/753/240
f 585/769/241 584/770/241 594/760/241 595/759/241
f 583/771/242 593/761/242 594/760/242 584/770/242
f 583/771/243 582/772/243 592/762/243 593/761/243
f 582/772/327 581/768/327 591/758/327 592/762/327
f 576/773/245 586/763/245 587/764/245 577/774/245
f 580/767/238 579/464/238 589/466/238 590/757/238
f 449/775/246 578/776/246 588/766/246 451/765/246
f 578/776/25 577/774/25 587/764/25 588/766/25
f 570/777/247 580/767/247 581/768/247 571/778/247
f 576/773/248 575/779/248 585/769/248 586/763/248
f 575/779/249 574/780/249 584/770/249 585/769/249
f 573/781/250 583/771/250 584/770/250 574/780/250
f 573/781/251 572/782/251 582/772/251 583/771/251
f 572/782/328 571/778/328 581/768/328 582/772/328
f 566/783/253 576/773/253 577/774/253 567/784/253
f 570/777/246 569/462/246 579/464/246 580/767/246
f 447/785/254 568/786/254 578/776/254 449/775/254
f 568/786/24 567/784/24 577/774/24 578/776/24
f 560/787/255 570/777/255 571/778/255 561/788/255
f 566/783/256 565/789/256 575/779/256 576/773/256
f 565/789/329 564/790/329 574/780/329 575/779/329
f 563/791/258 573/781/258 574/780/258 564/790/258
f 563/791/330 562/792/330 572/782/330 573/781/330
f 562/792/260 561/788/260 571/778/260 572/782/260
f 556/793/261 566/783/261 567/784/261 557/794/261
f 560/787/254 559/460/254 569/462/254 570/777/254
f 445/795/262 558/796/262 568/786/262 447/785/262
f 558/796/23 557/794/23 567/784/23 568/786/23
f 550/797/331 560/787/331 561/788/331 551/798/331
f 556/793/264 555/799/264 565/789/264 566/783/264
f 555/799/265 554/800/265 564/790/265 565/789/265
f 553/801/266 563/791/266 564/790/266 554/800/266
f 553/801/267 552/802/267 562/792/267 563/791/267
f 552/802/268 551/798/268 561/788/268 562/792/268
f 546/803/269 556/793/269 557/794/269 547/804/269
f 550/797/262 549/458/262 559/460/262 560/787/262
f 443/805/270 548/806/270 558/796/270 445/795/270
f 548/806/22 547/804/22 557/794/22 558/796/22
f 540/807/271 550/797/271 551/798/271 541/808/271
f 546/803/272 545/809/272 555/799/272 556/793/272
f 545/809/273 544/810/273 554/800/273 555/799/273
f 543/811/274 553/801/274 554/800/274 544/810/274
f 543/811/275 542/812/275 552/802/275 553/801/275
f 542/812/276 541/808/276 551/798/276 552/802/276
f 536/813/277 546/803/277 547/804/277 537/814/277
f 540/807/270 539/456/270 549/458/270 550/797/270
f 441/815/278 538/816/278 548/806/278 443/805/278
f 538/816/21 537/814/21 547/804/21 548/806/21
f 530/817/279 540/807/279 541/808/279 531/818/279
f 536/813/280 535/819/280 545/809/280 546/803/280
f 535/819/281 534/820/281 544/810/281 545/809/281
f 533/821/282 543/811/282 544/810/282 534/820/282
f 533/821/283 532/822/283 542/812/283 543/811/283
f 532/822/284 531/818/284 541/808/284 542/812/284
f 526/823/332 536/813/332 537/814/332 527/824/332
f 530/817/278 529/454/278 539/456/278 540/807/278
f 439/825/286 528/826/286 538/816/286 441/815/286
f 528/826/20 527/824/20 537/814/20 538/816/20
f 520/827/287 530/817/287 531/818/287 521/828/287
f 526/823/288 525/829/288 535/819/288 536/813/288
f 525/829/289 524/830/289 534/820/289 535/819/289
f 523/831/290 533/821/290 534/820/290 524/830/290
f 523/831/291 522/832/291 532/822/291 533/821/291
f 522/832/292 521/828/292 531/818/292 532/822/292
f 516/833/293 526/823/293 527/824/293 517/834/293
f 520/827/333 519/452/333 529/454/333 530/817/333
f 437/835/294 518/836/294 528/826/294 439/825/294
f 518/836/19 517/834/19 527/824/19 528/826/19
f 510/837/295 520/827/295 521/828/295 511/838/295
f 516/833/296 515/839/296 525/829/296 526/823/296
f 515/839/297 514/840/297 524/830/297 525/829/297
f 513/841/298 523/831/298 524/830/298 514/840/298
f 513/841/299 512/842/299 522/832/299 523/831/299
f 512/842/300 511/838/300 521/828/300 522/832/300
f 500/518/301 501/526/301 516/833/301 517/834/301
f 510/837/294 509/450/294 519/452/294 520/827/294
f 435/516/302 499/515/302 518/836/302 437/835/302
f 499/515/18 500/518/18 517/834/18 518/836/18
f 506/521/303 507/520/303 510/837/303 511/838/303
f 501/526/304 502/525/304 515/839/304 516/833/304
f 502/525/305 503/528/305 514/840/305 515/839/305
f 503/528/306 504/530/306 513/841/306 514/840/306
f 504/530/307 505/532/307 512/842/307 513/841/307
f 505/532/308 506/521/308 511/838/308 512/842/308
f 507/520/302 508/447/302 509/450/302 510/837/302
f 816/523/309 501/526/309 500/518/309 817/517/309
s 1
usemtl Material.001
f 819/843/1 821/844/1 828/845/2 827/846/2
f 831/847/3 821/844/1 819/843/1 823/848/3
f 820/849/4 832/850/5 824/851/5 822/852/4
f 832/850/5 831/847/3 823/848/3 824/851/5
f 840/853/6 837/854/6 841/855/7 844/856/7
f 825/857/8 826/858/8 834/859/9 833/860/9
f 833/860/9 834/859/9 837/854/6 840/853/6
f 829/861/10 830/862/10 826/858/8 825/857/8
f 827/846/2 828/845/2 835/863/11 836/864/11
f 836/864/11 835/863/11 839/865/12 838/866/12
f 842/867/13 843/868/13 844/856/7 841/855/7
f 838/866/12 839/865/12 843/868/13 842/867/13
f 845/869/14 851/870/8 852/871/8 846/872/14
f 855/873/15 847/874/15 845/869/14 846/872/14
f 820/849/4 822/852/4 848/875/16 856/876/16
f 856/876/16 848/875/16 847/874/15 855/873/15
f 864/877/12 868/878/13 865/879/13 861/880/12
f 849/881/2 857/882/11 858/883/11 850/884/2
f 857/882/11 864/877/12 861/880/12 858/883/11
f 853/885/17 849/881/2 850/884/2 854/886/17
f 851/870/8 860/887/9 859/888/9 852/871/8
f 860/887/9 862/889/6 863/890/6 859/888/9
f 866/891/7 865/879/13 868/878/13 867/892/7
f 862/889/6 866/891/7 867/892/7 863/890/6
s 0
f 830/893/334 829/894/334 869/895/334 870/896/334
f 854/897/335 872/898/335 871/899/335 853/900/335
f 877/909/336 871/910/336 872/911/336 878/912/336
f 869/913/336 877/914/336 878/915/336 870/916/336
