# This file uses centimeters as units for non-parametric coordinates.

mtllib Tip3.mtl
g default
v 0.070000 0.947329 0.151836
v 0.070000 0.150289 0.151836
v 0.070000 0.139093 0.229590
v 0.070000 0.150289 0.238738
v 0.070000 0.126595 0.222571
v 0.070000 0.113204 0.219563
v 0.070000 0.098474 0.224576
v 0.070000 0.947329 0.244128
v 0.070000 0.084976 0.233239
v 0.070000 0.075335 0.240459
v 0.070000 0.019414 0.240459
v 0.070000 0.000774 0.249844
v 0.070000 0.993712 0.244128
v 0.070000 0.993712 0.150190
v 0.070000 0.993712 0.070000
v 0.151837 0.947329 0.070000
v 0.151837 0.150289 0.070000
v 0.229591 0.139093 0.070000
v 0.238739 0.150289 0.070000
v 0.222572 0.126595 0.070000
v 0.219564 0.113204 0.070000
v 0.224577 0.098474 0.070000
v 0.244128 0.947329 0.070000
v 0.233240 0.084976 0.070000
v 0.240459 0.075335 0.070000
v 0.240459 0.019414 0.070000
v 0.249844 0.000774 0.070000
v 0.244128 0.993712 0.070000
v 0.150191 0.993712 0.070000
v 0.151837 0.947329 0.150190
v 0.244128 0.947329 0.150190
v 0.244128 0.993712 0.150190
v 0.150191 0.993712 0.150190
v 0.151837 0.947329 0.244128
v 0.244128 0.947329 0.244128
v 0.244128 0.993712 0.244128
v 0.150191 0.993712 0.244128
v 0.151837 0.150289 0.151836
v 0.238739 0.150289 0.151836
v 0.151837 0.150289 0.238738
v 0.151841 0.139093 0.229590
v 0.151841 0.126595 0.222571
v 0.151841 0.113204 0.219563
v 0.151841 0.098474 0.224576
v 0.151841 0.084976 0.233239
v 0.151841 0.075335 0.240459
v 0.151841 0.019414 0.240459
v 0.151841 0.000774 0.249844
v 0.229591 0.139093 0.151836
v 0.222572 0.126595 0.151836
v 0.219564 0.113204 0.151836
v 0.224577 0.098474 0.151836
v 0.233240 0.084976 0.151836
v 0.240459 0.075335 0.151836
v 0.240459 0.019414 0.151836
v 0.249844 0.000774 0.151836
v 0.238737 0.150289 0.238738
v 0.222571 0.126595 0.222571
v 0.224581 0.098474 0.224576
v 0.249851 0.000774 0.249844
v 0.229591 0.139093 0.229590
v 0.219571 0.113204 0.219563
v 0.233241 0.084976 0.233239
v 0.238741 0.075335 0.238738
v 0.238741 0.019414 0.238738
v 0.000000 0.947329 0.151836
v 0.000000 0.150289 0.151836
v 0.000000 0.139093 0.229590
v 0.000000 0.150289 0.238738
v 0.000000 0.126595 0.222571
v 0.000000 0.113204 0.219563
v 0.000000 0.098474 0.224576
v 0.000000 0.947329 0.244128
v 0.000000 0.084976 0.233239
v 0.000000 0.075335 0.240459
v 0.000000 0.019414 0.240459
v 0.000000 0.000774 0.249844
v 0.000000 0.993712 0.244128
v 0.000000 0.993712 0.150190
v 0.070000 0.993712 0.000000
v 0.151837 0.947329 0.000000
v 0.151837 0.150289 0.000000
v 0.229591 0.139093 0.000000
v 0.238739 0.150289 0.000000
v 0.222572 0.126595 0.000000
v 0.219564 0.113204 0.000000
v 0.224577 0.098474 0.000000
v 0.244128 0.947329 0.000000
v 0.233240 0.084976 0.000000
v 0.240459 0.075335 0.000000
v 0.240459 0.019414 0.000000
v 0.249844 0.000774 0.000000
v 0.244128 0.993712 0.000000
v 0.150191 0.993712 0.000000
v 0.000000 0.993712 0.000000
v 0.000000 0.993712 0.070000
v 0.151837 0.548809 0.000000
v 0.151837 0.548809 0.070000
v 0.151837 0.548809 0.151013
v 0.070000 0.548809 0.151836
v 0.000000 0.548809 0.151836
vt 0.687301 0.966864
vt 0.663050 0.966861
vt 0.663053 0.946159
vt 0.687304 0.946162
vt 0.798578 0.985962
vt 0.699275 0.966866
vt 0.699278 0.946164
vt 0.777875 0.985942
vt 0.663056 0.921907
vt 0.687307 0.921911
vt 0.699282 0.921912
vt 0.663483 0.909933
vt 0.642350 0.946156
vt 0.642347 0.966858
vt 0.642354 0.921904
vt 0.642356 0.909929
vt 0.642359 0.886103
vt 0.564555 0.954007
vt 0.564567 0.976443
vt 0.777652 0.985986
vt 0.585680 0.953998
vt 0.585673 0.954000
vt 0.608111 0.953970
vt 0.564546 0.953998
vt 0.756524 0.985962
vt 0.564572 0.917310
vt 0.564578 0.911923
vt 0.585729 0.911950
vt 0.585728 0.917338
vt 0.564549 0.934862
vt 0.564551 0.931752
vt 0.585659 0.931768
vt 0.585661 0.934875
vt 0.564546 0.950265
vt 0.585672 0.950268
vt 0.564546 0.943021
vt 0.564547 0.939003
vt 0.585665 0.939012
vt 0.585667 0.943027
vt 0.564546 0.946565
vt 0.585670 0.946569
vt 0.564551 0.939012
vt 0.564551 0.943029
vt 0.585671 0.943026
vt 0.585667 0.939012
vt 0.564552 0.946573
vt 0.585674 0.946568
vt 0.564553 0.950274
vt 0.585677 0.950267
vt 0.564570 0.911937
vt 0.564567 0.917324
vt 0.585718 0.917338
vt 0.585716 0.911950
vt 0.564552 0.931759
vt 0.585660 0.931769
vt 0.564551 0.934870
vt 0.585663 0.934875
vt 0.608181 0.917505
vt 0.608078 0.931955
vt 0.606663 0.934825
vt 0.604437 0.938974
vt 0.603150 0.942996
vt 0.603932 0.946540
vt 0.605749 0.950239
vt 0.611047 0.911917
vt 0.546475 0.950261
vt 0.546476 0.946559
vt 0.624279 0.946153
vt 0.624282 0.921901
vt 0.546477 0.943015
vt 0.624284 0.909927
vt 0.546478 0.938997
vt 0.624275 0.966855
vt 0.546480 0.934854
vt 0.546482 0.931744
vt 0.624287 0.886100
vt 0.738453 0.985942
vt 0.546495 0.917300
vt 0.546474 0.953995
vt 0.546499 0.911912
vt 0.546482 0.943030
vt 0.546482 0.946575
vt 0.699273 0.984938
vt 0.687298 0.984936
vt 0.546482 0.939012
vt 0.663047 0.984932
vt 0.642344 0.984929
vt 0.546483 0.934870
vt 0.546483 0.931759
vt 0.546493 0.976449
vt 0.816649 0.985979
vt 0.546491 0.917321
vt 0.546483 0.950276
vt 0.546484 0.954010
vt 0.546492 0.911934
vt 0.624273 0.984927
vt 0.723099 0.984941
vt 0.723102 0.966870
vt 0.756744 0.985965
vt 0.738672 0.985985
vt 0.663487 0.885681
vt 0.798779 0.985966
vt 0.816851 0.985949
vt 0.546474 0.976431
vt 0.564545 0.976433
vt 0.585700 0.976431
vt 0.687309 0.909936
vt 0.687313 0.885685
vt 0.723105 0.946168
vt 0.603929 0.946541
vt 0.605745 0.950240
vt 0.604437 0.938976
vt 0.603150 0.942998
vt 0.608080 0.931957
vt 0.606664 0.934827
vt 0.611038 0.911897
vt 0.608185 0.917522
vt 0.608115 0.953970
vt 0.608137 0.976405
vt 0.585673 0.976434
vt 0.816754 0.883065
vt 0.798674 0.883078
vt 0.777759 0.883058
vt 0.756630 0.883081
vt 0.738558 0.883101
vt 0.756639 0.883078
vt 0.738567 0.883058
vt 0.777768 0.883101
vt 0.798683 0.883082
vt 0.816746 0.883095
vn -0.000000 1.000000 -0.000000
vn -0.000000 1.000000 -0.000000
vn -0.000000 1.000000 -0.000000
vn -0.000000 1.000000 -0.000000
vn 0.000000 -1.000000 0.000000
vn 0.000000 -1.000000 0.000000
vn 0.000000 -1.000000 0.000000
vn 0.000000 -1.000000 0.000000
vn -0.000000 1.000000 -0.000000
vn -0.000000 1.000000 -0.000000
vn -0.000000 1.000000 -0.000000
vn -0.000000 1.000000 -0.000000
vn 0.000000 -1.000000 0.000000
vn 0.000000 -1.000000 0.000000
vn 0.000000 -1.000000 0.000000
vn 0.000000 -1.000000 0.000000
vn -0.000000 1.000000 -0.000000
vn -0.000000 1.000000 -0.000000
vn -0.000000 1.000000 -0.000000
vn -0.000000 1.000000 -0.000000
vn -0.000000 1.000000 -0.000000
vn -0.000000 1.000000 -0.000000
vn -0.000000 1.000000 -0.000000
vn -0.000000 1.000000 -0.000000
vn 0.000000 0.000000 1.000000
vn 0.000000 0.000000 1.000000
vn 0.000000 0.000000 1.000000
vn 0.000000 0.000000 1.000000
vn 0.000000 0.000000 1.000000
vn 0.000000 0.000000 1.000000
vn 0.000000 0.000000 1.000000
vn 0.000000 0.000000 1.000000
vn 1.000000 0.000000 0.000000
vn 1.000000 0.000000 0.000000
vn 1.000000 0.000000 0.000000
vn 1.000000 0.000000 0.000000
vn 1.000000 0.000000 0.000000
vn 1.000000 0.000000 0.000000
vn 1.000000 0.000000 0.000000
vn 1.000000 0.000000 0.000000
vn 0.000000 -1.000000 0.000000
vn 0.000000 -1.000000 0.000000
vn 0.000000 -1.000000 0.000000
vn 0.000000 -1.000000 0.000000
vn -0.000000 1.000000 -0.000000
vn -0.000000 1.000000 -0.000000
vn -0.000000 1.000000 -0.000000
vn -0.000000 1.000000 -0.000000
vn -0.000000 1.000000 -0.000000
vn -0.000000 1.000000 -0.000000
vn -0.000000 1.000000 -0.000000
vn -0.000000 1.000000 -0.000000
vn -0.000000 1.000000 -0.000000
vn -0.000000 1.000000 -0.000000
vn -0.000000 1.000000 -0.000000
vn -0.000000 1.000000 -0.000000
vn 0.010100 0.001000 0.999949
vn 0.010100 0.001000 0.999949
vn 0.010056 0.001033 0.999949
vn 0.010056 0.001033 0.999949
vn 1.000000 0.000000 0.000000
vn 1.000000 -0.000000 0.000000
vn 1.000000 -0.000000 0.000000
vn 1.000000 0.000000 0.000000
vn 0.000000 0.449692 0.893184
vn 0.000000 0.449692 0.893184
vn 0.000000 0.449692 0.893184
vn 0.000000 0.449692 0.893184
vn 0.000000 0.599376 0.800468
vn 0.000000 0.599376 0.800468
vn 0.000000 0.599376 0.800468
vn 0.000000 0.599376 0.800468
vn 0.000000 -0.632699 0.774398
vn 0.000000 -0.632699 0.774398
vn 0.000000 -0.632699 0.774398
vn 0.000000 -0.632699 0.774398
vn 0.000000 0.322191 0.946675
vn 0.000000 0.322191 0.946675
vn 0.000000 0.322191 0.946675
vn 0.000000 0.322191 0.946675
vn 0.000000 -0.489620 0.871936
vn 0.000000 -0.489620 0.871936
vn 0.000000 -0.489620 0.871936
vn 0.000000 -0.489620 0.871936
vn 0.000000 0.000000 1.000000
vn 0.000000 0.000000 1.000000
vn 0.000000 0.000000 1.000000
vn 0.000000 0.000000 1.000000
vn 0.000000 0.540100 0.841601
vn 0.000000 0.540100 0.841601
vn 0.000000 0.540100 0.841601
vn 0.000000 0.540100 0.841601
vn 0.000000 -0.219196 0.975681
vn 0.000000 -0.219196 0.975681
vn 0.000000 -0.219196 0.975681
vn 0.000000 -0.219196 0.975681
vn 0.946675 0.322191 0.000000
vn 0.946675 0.322191 0.000000
vn 0.946675 0.322191 0.000000
vn 0.946675 0.322191 0.000000
vn 0.975681 -0.219196 0.000000
vn 0.975681 -0.219196 0.000000
vn 0.975681 -0.219196 0.000000
vn 0.975681 -0.219196 0.000000
vn 0.871893 -0.489696 0.000000
vn 0.871893 -0.489696 0.000000
vn 0.871893 -0.489696 0.000000
vn 0.871893 -0.489696 0.000000
vn 0.893184 0.449692 0.000000
vn 0.893184 0.449692 0.000000
vn 0.893184 0.449692 0.000000
vn 0.893184 0.449692 0.000000
vn 1.000000 0.000000 0.000000
vn 1.000000 0.000000 0.000000
vn 1.000000 0.000000 0.000000
vn 1.000000 0.000000 0.000000
vn 0.774309 -0.632807 0.000000
vn 0.774309 -0.632807 0.000000
vn 0.774309 -0.632807 0.000000
vn 0.774309 -0.632807 0.000000
vn 0.800468 0.599376 0.000000
vn 0.800468 0.599376 0.000000
vn 0.800468 0.599376 0.000000
vn 0.800468 0.599376 0.000000
vn 0.841601 0.540100 0.000000
vn 0.841601 0.540100 0.000000
vn 0.841601 0.540100 0.000000
vn 0.841601 0.540100 0.000000
vn 0.019800 -0.000000 0.999804
vn 0.019800 -0.000000 0.999804
vn 0.019800 -0.000000 0.999804
vn 0.019800 -0.000000 0.999804
vn 0.000000 0.540100 0.841601
vn 0.000000 0.540100 0.841601
vn 0.000000 0.540100 0.841601
vn 0.000000 0.540100 0.841601
vn 0.000000 -0.219196 0.975681
vn 0.000000 -0.219196 0.975681
vn 0.000000 -0.219196 0.975681
vn 0.000000 -0.219196 0.975681
vn 0.000000 -0.632699 0.774398
vn 0.000000 -0.632699 0.774398
vn 0.000000 -0.632699 0.774398
vn 0.000000 -0.632699 0.774398
vn 0.008100 0.483503 0.875305
vn 0.008100 0.483503 0.875305
vn 0.008100 0.483503 0.875305
vn 0.008100 0.483503 0.875305
vn 0.008500 0.552301 0.833601
vn 0.008500 0.552301 0.833601
vn 0.008500 0.552301 0.833601
vn 0.008500 0.552301 0.833601
vn 0.000000 0.322191 0.946675
vn 0.000000 0.322191 0.946675
vn 0.000000 0.322191 0.946675
vn 0.000000 0.322191 0.946675
vn 0.000000 -0.489696 0.871893
vn 0.000000 -0.489696 0.871893
vn 0.000000 -0.489696 0.871893
vn 0.000000 -0.489696 0.871893
vn 0.875263 0.483580 0.008100
vn 0.875263 0.483580 0.008100
vn 0.875263 0.483580 0.008100
vn 0.875263 0.483580 0.008100
vn 0.833601 0.552301 0.008500
vn 0.833601 0.552301 0.008500
vn 0.833601 0.552301 0.008500
vn 0.833601 0.552301 0.008500
vn 0.946705 0.322102 -0.000100
vn 0.946705 0.322102 -0.000100
vn 0.946705 0.322102 -0.000100
vn 0.946705 0.322102 -0.000100
vn 0.871893 -0.489696 0.000000
vn 0.871893 -0.489696 0.000000
vn 0.871893 -0.489696 0.000000
vn 0.871893 -0.489696 0.000000
vn 0.774398 -0.632699 0.000000
vn 0.774398 -0.632699 0.000000
vn 0.774398 -0.632699 0.000000
vn 0.774398 -0.632699 0.000000
vn 0.999804 -0.000000 0.019800
vn 0.999804 -0.000000 0.019800
vn 0.999804 -0.000000 0.019800
vn 0.999804 -0.000000 0.019800
vn 0.841601 0.540100 0.000000
vn 0.841601 0.540100 0.000000
vn 0.841601 0.540100 0.000000
vn 0.841601 0.540100 0.000000
vn 0.975750 -0.218889 0.000000
vn 0.975750 -0.218889 0.000000
vn 0.975750 -0.218889 0.000000
vn 0.975750 -0.218889 0.000000
vn 0.000000 -0.489620 0.871936
vn 0.000000 -0.489620 0.871936
vn 0.000000 -0.489620 0.871936
vn 0.000000 -0.489620 0.871936
vn -0.000000 1.000000 -0.000000
vn -0.000000 1.000000 -0.000000
vn -0.000000 1.000000 -0.000000
vn -0.000000 1.000000 -0.000000
vn 0.000000 -0.219196 0.975681
vn 0.000000 -0.219196 0.975681
vn 0.000000 -0.219196 0.975681
vn 0.000000 -0.219196 0.975681
vn 0.000000 0.000000 1.000000
vn 0.000000 0.000000 1.000000
vn 0.000000 0.000000 1.000000
vn 0.000000 0.000000 1.000000
vn 0.000000 0.322191 0.946675
vn 0.000000 0.322191 0.946675
vn 0.000000 0.322191 0.946675
vn 0.000000 0.322191 0.946675
vn -0.000000 1.000000 -0.000000
vn -0.000000 1.000000 -0.000000
vn -0.000000 1.000000 -0.000000
vn -0.000000 1.000000 -0.000000
vn 0.000000 0.540100 0.841601
vn 0.000000 0.540100 0.841601
vn 0.000000 0.540100 0.841601
vn 0.000000 0.540100 0.841601
vn 0.000000 0.599376 0.800468
vn 0.000000 0.599376 0.800468
vn 0.000000 0.599376 0.800468
vn 0.000000 0.599376 0.800468
vn 0.000000 0.000000 1.000000
vn 0.000000 0.000000 1.000000
vn 0.000000 0.000000 1.000000
vn 0.000000 0.000000 1.000000
vn 0.000000 0.000000 1.000000
vn 0.000000 0.000000 1.000000
vn 0.000000 0.000000 1.000000
vn 0.000000 0.000000 1.000000
vn 0.000000 -0.632699 0.774398
vn 0.000000 -0.632699 0.774398
vn 0.000000 -0.632699 0.774398
vn 0.000000 -0.632699 0.774398
vn 0.000000 0.449692 0.893184
vn 0.000000 0.449692 0.893184
vn 0.000000 0.449692 0.893184
vn 0.000000 0.449692 0.893184
vn -0.000000 1.000000 -0.000000
vn -0.000000 1.000000 -0.000000
vn -0.000000 1.000000 -0.000000
vn -0.000000 1.000000 -0.000000
vn 0.000000 -1.000000 0.000000
vn 0.000000 -1.000000 0.000000
vn 0.000000 -1.000000 0.000000
vn 0.000000 -1.000000 0.000000
vn 0.975681 -0.219196 0.000000
vn 0.975681 -0.219196 0.000000
vn 0.975681 -0.219196 0.000000
vn 0.975681 -0.219196 0.000000
vn 1.000000 0.000000 0.000000
vn 1.000000 0.000000 0.000000
vn 1.000000 0.000000 0.000000
vn 1.000000 0.000000 0.000000
vn 0.946675 0.322191 0.000000
vn 0.946675 0.322191 0.000000
vn 0.946675 0.322191 0.000000
vn 0.946675 0.322191 0.000000
vn -0.000000 1.000000 -0.000000
vn -0.000000 1.000000 -0.000000
vn -0.000000 1.000000 -0.000000
vn -0.000000 1.000000 -0.000000
vn 0.841601 0.540100 0.000000
vn 0.841601 0.540100 0.000000
vn 0.841601 0.540100 0.000000
vn 0.841601 0.540100 0.000000
vn 0.800468 0.599376 0.000000
vn 0.800468 0.599376 0.000000
vn 0.800468 0.599376 0.000000
vn 0.800468 0.599376 0.000000
vn 1.000000 0.000000 0.000000
vn 1.000000 0.000000 0.000000
vn 1.000000 0.000000 0.000000
vn 1.000000 0.000000 0.000000
vn 1.000000 0.000000 0.000000
vn 1.000000 0.000000 0.000000
vn 1.000000 0.000000 0.000000
vn 1.000000 0.000000 0.000000
vn 0.774309 -0.632807 0.000000
vn 0.774309 -0.632807 0.000000
vn 0.774309 -0.632807 0.000000
vn 0.774309 -0.632807 0.000000
vn 0.893184 0.449692 0.000000
vn 0.893184 0.449692 0.000000
vn 0.893184 0.449692 0.000000
vn 0.893184 0.449692 0.000000
vn -0.000000 1.000000 -0.000000
vn -0.000000 1.000000 -0.000000
vn -0.000000 1.000000 -0.000000
vn -0.000000 1.000000 -0.000000
vn 0.000000 -1.000000 0.000000
vn 0.000000 -1.000000 0.000000
vn 0.000000 -1.000000 0.000000
vn 0.000000 -1.000000 0.000000
vn 0.871893 -0.489696 0.000000
vn 0.871893 -0.489696 0.000000
vn 0.871893 -0.489696 0.000000
vn 0.871893 -0.489696 0.000000
vn -0.000000 1.000000 -0.000000
vn -0.000000 1.000000 -0.000000
vn -0.000000 1.000000 -0.000000
vn -0.000000 1.000000 -0.000000
vn -0.000000 1.000000 -0.000000
vn -0.000000 1.000000 -0.000000
vn -0.000000 1.000000 -0.000000
vn -0.000000 1.000000 -0.000000
vn 1.000000 0.000000 0.000000
vn 1.000000 0.000000 0.000000
vn 1.000000 0.000000 0.000000
vn 1.000000 0.000000 0.000000
vn 0.010100 0.001000 0.999949
vn 0.010100 0.001000 0.999949
vn 0.000000 0.000000 1.000000
vn 0.000000 0.000000 1.000000
s off
g Tip3
usemtl set7
f 28/1/1 29/2/2 33/3/3 32/4/4
f 16/98/5 23/6/6 31/7/7 30/109/8
f 32/4/9 33/3/10 37/9/11 36/10/12
f 30/101/13 31/108/14 35/107/15 34/12/16
f 14/13/17 33/3/18 29/2/19 15/14/20
f 13/15/21 37/9/22 33/3/23 14/13/24
f 13/15/25 8/16/26 34/12/27 37/9/28
f 35/107/29 36/10/30 37/9/31 34/12/32
f 36/10/33 35/11/34 31/7/35 32/4/36
f 23/6/37 28/1/38 32/4/39 31/7/40
f 1/17/41 30/101/42 34/12/43 8/16/44
f 19/18/45 17/19/46 38/106/47 39/21/48
f 39/21/49 38/106/50 40/119/51 57/118/52
f 4/24/53 40/22/54 38/120/55 2/105/56
s 1
f 2/25/57 38/20/58 99/128/59 100/126/60
s 2
f 17/102/61 98/129/62 99/128/63 38/20/64
s off
f 11/26/65 12/27/66 48/28/67 47/29/68
f 9/30/69 10/31/70 46/32/71 45/33/72
f 4/24/73 3/34/74 41/35/75 40/22/76
f 6/36/77 7/37/78 44/38/79 43/39/80
f 3/34/81 5/40/82 42/41/83 41/35/84
f 10/31/85 11/26/86 47/29/87 46/32/88
f 7/37/89 9/30/90 45/33/91 44/38/92
f 5/40/93 6/36/94 43/39/95 42/41/96
f 22/42/97 21/43/98 51/44/99 52/45/100
f 21/43/101 20/46/102 50/47/103 51/44/104
f 20/46/105 18/48/106 49/49/107 50/47/108
f 27/50/109 26/51/110 55/52/111 56/53/112
f 26/51/113 25/54/114 54/55/115 55/52/116
f 18/48/117 19/18/118 39/21/119 49/49/120
f 25/54/121 24/56/122 53/57/123 54/55/124
f 24/56/125 22/42/126 52/45/127 53/57/128
f 46/32/129 47/29/130 65/117/131 64/114/132
f 44/38/133 45/33/134 63/115/135 59/112/136
f 42/41/137 43/39/138 62/113/139 58/110/140
f 40/22/141 41/35/142 61/111/143 57/23/144
f 47/29/145 48/28/146 60/65/147 65/117/148
f 45/33/149 46/32/150 64/114/151 63/115/152
f 43/39/153 44/38/154 59/112/155 62/113/156
f 41/35/157 42/41/158 58/110/159 61/111/160
f 56/53/161 55/52/162 65/58/163 60/116/164
f 54/55/165 53/57/166 63/60/167 64/59/168
f 52/45/169 51/44/170 62/62/171 59/61/172
f 50/47/173 49/49/174 61/64/175 58/63/176
f 49/49/177 39/21/178 57/118/179 61/64/180
f 55/52/181 54/55/182 64/59/183 65/58/184
f 53/57/185 52/45/186 59/61/187 63/60/188
f 51/44/189 50/47/190 58/63/191 62/62/192
f 5/40/193 3/34/194 68/66/195 70/67/196
f 13/15/197 14/13/198 79/68/199 78/69/200
f 6/36/201 5/40/202 70/67/203 71/70/204
f 8/16/205 13/15/206 78/69/207 73/71/208
f 7/37/209 6/36/210 71/70/211 72/72/212
f 14/13/213 15/14/214 96/73/215 79/68/216
f 9/30/217 7/37/218 72/72/219 74/74/220
f 10/31/221 9/30/222 74/74/223 75/75/224
s 3
f 2/25/225 100/126/226 101/127/227 67/77/228
s off
f 11/26/229 10/31/230 75/75/231 76/78/232
f 3/34/233 4/24/234 69/79/235 68/66/236
f 12/27/237 11/26/238 76/78/239 77/80/240
f 4/24/241 2/105/242 67/104/243 69/79/244
f 1/17/245 8/16/246 73/71/247 66/76/248
f 20/46/249 21/43/250 86/81/251 85/82/252
f 28/1/253 23/6/254 88/83/255 93/84/256
f 21/43/257 22/42/258 87/85/259 86/81/260
f 15/14/261 29/2/262 94/86/263 80/87/264
f 22/42/265 24/56/266 89/88/267 87/85/268
f 24/56/269 25/54/270 90/89/271 89/88/272
s 4
f 97/121/273 98/129/274 17/102/275 82/103/276
s off
f 25/54/277 26/51/278 91/92/279 90/89/280
f 19/18/281 18/48/282 83/93/283 84/94/284
f 26/51/285 27/50/286 92/95/287 91/92/288
f 17/19/289 19/18/290 84/94/291 82/90/292
f 23/6/293 16/98/294 81/97/295 88/83/296
f 18/48/297 20/46/298 85/82/299 83/93/300
f 29/2/301 28/1/302 93/84/303 94/86/304
f 15/14/305 80/87/306 95/96/307 96/73/308
s 4
f 16/5/309 98/122/274 97/130/273 81/91/310
s 2
f 99/123/63 98/122/62 16/5/311 30/8/312
s 1
f 100/124/60 99/123/59 30/8/313 1/99/314
s 3
f 101/125/227 100/124/226 1/99/315 66/100/316
