# This file uses centimeters as units for non-parametric coordinates.

mtllib Tip3_2.mtl
g default
v 0.070000 0.947329 0.151836
v 0.070000 0.150289 0.151836
v 0.070000 0.139093 0.229590
v 0.070000 0.150289 0.238738
v 0.070000 0.126595 0.222571
v 0.070000 0.113204 0.219563
v 0.070000 0.098474 0.224576
v 0.070000 0.947329 0.244128
v 0.070000 0.084976 0.233239
v 0.070000 0.075335 0.240459
v 0.070000 0.019414 0.240459
v 0.070000 0.000774 0.249844
v 0.070000 0.993712 0.244128
v 0.070000 0.993712 0.150190
v 0.070000 0.993712 0.070000
v 0.151837 0.947329 0.070000
v 0.151837 0.150289 0.070000
v 0.229591 0.139093 0.070000
v 0.238739 0.150289 0.070000
v 0.222572 0.126595 0.070000
v 0.219564 0.113204 0.070000
v 0.224577 0.098474 0.070000
v 0.244128 0.947329 0.070000
v 0.233240 0.084976 0.070000
v 0.240459 0.075335 0.070000
v 0.240459 0.019414 0.070000
v 0.249844 0.000774 0.070000
v 0.244128 0.993712 0.070000
v 0.150191 0.993712 0.070000
v 0.151837 0.947329 0.150190
v 0.244128 0.947329 0.150190
v 0.244128 0.993712 0.150190
v 0.150191 0.993712 0.150190
v 0.151837 0.947329 0.244128
v 0.244128 0.947329 0.244128
v 0.244128 0.993712 0.244128
v 0.150191 0.993712 0.244128
v 0.151837 0.150289 0.151836
v 0.238739 0.150289 0.151836
v 0.151837 0.150289 0.238738
v 0.151841 0.139093 0.229590
v 0.151841 0.126595 0.222571
v 0.151841 0.113204 0.219563
v 0.151841 0.098474 0.224576
v 0.151841 0.084976 0.233239
v 0.151841 0.075335 0.240459
v 0.151841 0.019414 0.240459
v 0.151841 0.000774 0.249844
v 0.229591 0.139093 0.151836
v 0.222572 0.126595 0.151836
v 0.219564 0.113204 0.151836
v 0.224577 0.098474 0.151836
v 0.233240 0.084976 0.151836
v 0.240459 0.075335 0.151836
v 0.240459 0.019414 0.151836
v 0.249844 0.000774 0.151836
v 0.238737 0.150289 0.238738
v 0.222571 0.126595 0.222571
v 0.224581 0.098474 0.224576
v 0.249851 0.000774 0.249844
v 0.229591 0.139093 0.229590
v 0.219571 0.113204 0.219563
v 0.233241 0.084976 0.233239
v 0.238741 0.075335 0.238738
v 0.238741 0.019414 0.238738
v 0.000000 0.947329 0.151836
v 0.000000 0.150289 0.151836
v 0.000000 0.139093 0.229590
v 0.000000 0.150289 0.238738
v 0.000000 0.126595 0.222571
v 0.000000 0.113204 0.219563
v 0.000000 0.098474 0.224576
v 0.000000 0.947329 0.244128
v 0.000000 0.084976 0.233239
v 0.000000 0.075335 0.240459
v 0.000000 0.019414 0.240459
v 0.000000 0.000774 0.249844
v 0.000000 0.993712 0.244128
v 0.000000 0.993712 0.150190
v 0.000000 0.993712 0.070000
v 0.070000 0.993712 0.000000
v 0.151837 0.947329 0.000000
v 0.151837 0.150289 0.000000
v 0.229591 0.139093 0.000000
v 0.238739 0.150289 0.000000
v 0.222572 0.126595 0.000000
v 0.219564 0.113204 0.000000
v 0.224577 0.098474 0.000000
v 0.244128 0.947329 0.000000
v 0.233240 0.084976 0.000000
v 0.240459 0.075335 0.000000
v 0.240459 0.019414 0.000000
v 0.249844 0.000774 0.000000
v 0.244128 0.993712 0.000000
v 0.150191 0.993712 0.000000
v 0.070000 3.500000 0.070000
v 0.000000 3.500000 0.070000
v 0.070000 3.500000 0.000000
v 0.151837 0.548809 0.000000
v 0.151837 0.548809 0.070000
v 0.151837 0.548809 0.151013
v 0.070000 0.548809 0.151836
v 0.000000 0.548809 0.151836
vt 0.686662 0.967068
vt 0.662458 0.967063
vt 0.662462 0.946401
vt 0.686666 0.946406
vt 0.798092 0.882808
vt 0.698613 0.967070
vt 0.698617 0.946408
vt 0.777555 0.882827
vt 0.662467 0.922197
vt 0.686671 0.922202
vt 0.698622 0.922204
vt 0.662893 0.910246
vt 0.641800 0.946397
vt 0.002615 0.019865
vt 0.641805 0.922193
vt 0.641807 0.910242
vt 0.641812 0.886462
vt 0.564030 0.953945
vt 0.564035 0.976295
vt 0.777329 0.883373
vt 0.585074 0.953943
vt 0.585195 0.954247
vt 0.607690 0.954213
vt 0.564013 0.954247
vt 0.756613 0.883391
vt 0.777435 0.984893
vt 0.756474 0.984869
vt 0.798183 0.984874
vt 0.564035 0.917465
vt 0.564041 0.912064
vt 0.585245 0.912088
vt 0.585245 0.917490
vt 0.564014 0.935062
vt 0.564016 0.931943
vt 0.585178 0.931958
vt 0.585181 0.935072
vt 0.564013 0.950505
vt 0.585193 0.950505
vt 0.564012 0.943242
vt 0.564013 0.939214
vt 0.585184 0.939220
vt 0.585187 0.943245
vt 0.564012 0.946794
vt 0.585190 0.946796
vt 0.564030 0.939008
vt 0.564030 0.943010
vt 0.585068 0.943014
vt 0.585066 0.939015
vt 0.564029 0.946540
vt 0.585070 0.946542
vt 0.564029 0.950227
vt 0.585072 0.950226
vt 0.564058 0.912037
vt 0.564054 0.917404
vt 0.585123 0.917424
vt 0.585123 0.912056
vt 0.564034 0.931783
vt 0.585061 0.931799
vt 0.564032 0.934882
vt 0.585063 0.934894
vt 0.607500 0.917598
vt 0.607392 0.931992
vt 0.605983 0.934851
vt 0.603764 0.938983
vt 0.602481 0.942989
vt 0.603258 0.946519
vt 0.605067 0.950205
vt 0.610628 0.912053
vt 0.545896 0.950502
vt 0.545896 0.946791
vt 0.623764 0.946394
vt 0.623769 0.922190
vt 0.545897 0.943238
vt 0.623771 0.910239
vt 0.545898 0.939209
vt 0.002612 0.246520
vt 0.545899 0.935056
vt 0.545901 0.931937
vt 0.738547 0.984848
vt 0.738892 0.883406
vt 0.545912 0.917457
vt 0.545895 0.954245
vt 0.545916 0.912055
vt 0.623776 0.886459
vt 0.546030 0.943005
vt 0.546029 0.946536
vt 0.698609 0.985106
vt 0.686659 0.985104
vt 0.546031 0.939002
vt 0.662455 0.985099
vt 0.641793 0.985095
vt 0.546033 0.934876
vt 0.546035 0.931777
vt 0.815645 0.984302
vt 0.546031 0.976295
vt 0.546047 0.917395
vt 0.546029 0.950223
vt 0.546028 0.953943
vt 0.546050 0.912028
vt 0.816020 0.882792
vt 0.999092 0.003339
vt 0.999088 0.019984
vt 0.999085 0.246639
vt 0.756699 0.984274
vt 0.738979 0.984289
vt 0.777417 0.984256
vt 0.797925 0.984281
vt 0.816111 0.984858
vt 0.798045 0.883398
vt 0.815765 0.883420
vt 0.545897 0.976740
vt 0.564015 0.976740
vt 0.603496 0.946767
vt 0.605318 0.950475
vt 0.604005 0.939182
vt 0.602715 0.943214
vt 0.607656 0.932145
vt 0.606237 0.935022
vt 0.610348 0.912012
vt 0.607759 0.917673
vt 0.607422 0.953922
vt 0.585086 0.976289
vt 0.585197 0.976738
vt 0.607437 0.976271
vt 0.722389 0.985111
vt 0.722393 0.967075
vt 0.756591 0.882803
vt 0.738663 0.882783
vt 0.662898 0.886042
vt 0.722397 0.946413
vt 0.686673 0.910251
vt 0.686678 0.886047
vt 0.002619 0.003220
vt 0.641796 0.967059
vt 0.623760 0.967055
vt 0.999088 0.229263
vt 0.002615 0.229145
vn 0.000000 1.000000 0.000000
vn 0.000000 1.000000 0.000000
vn 0.000000 1.000000 0.000000
vn 0.000000 1.000000 0.000000
vn 0.000000 -1.000000 0.000000
vn 0.000000 -1.000000 0.000000
vn 0.000000 -1.000000 0.000000
vn 0.000000 -1.000000 0.000000
vn 0.000000 1.000000 0.000000
vn 0.000000 1.000000 0.000000
vn 0.000000 1.000000 0.000000
vn 0.000000 1.000000 0.000000
vn 0.000000 -1.000000 0.000000
vn 0.000000 -1.000000 0.000000
vn 0.000000 -1.000000 0.000000
vn 0.000000 -1.000000 0.000000
vn 0.000000 1.000000 0.000000
vn 0.000000 1.000000 0.000000
vn 0.000000 1.000000 0.000000
vn 0.000000 1.000000 0.000000
vn 0.000000 1.000000 0.000000
vn 0.000000 1.000000 0.000000
vn 0.000000 1.000000 0.000000
vn 0.000000 1.000000 0.000000
vn 0.000000 0.000000 1.000000
vn 0.000000 0.000000 1.000000
vn 0.000000 0.000000 1.000000
vn 0.000000 0.000000 1.000000
vn 0.000000 0.000000 1.000000
vn 0.000000 0.000000 1.000000
vn 0.000000 0.000000 1.000000
vn 0.000000 0.000000 1.000000
vn 1.000000 0.000000 -0.000000
vn 1.000000 0.000000 -0.000000
vn 1.000000 0.000000 -0.000000
vn 1.000000 0.000000 -0.000000
vn 1.000000 0.000000 -0.000000
vn 1.000000 0.000000 -0.000000
vn 1.000000 0.000000 -0.000000
vn 1.000000 0.000000 -0.000000
vn 0.000000 -1.000000 0.000000
vn 0.000000 -1.000000 0.000000
vn 0.000000 -1.000000 0.000000
vn 0.000000 -1.000000 0.000000
vn 0.000000 1.000000 0.000000
vn 0.000000 1.000000 0.000000
vn 0.000000 1.000000 0.000000
vn 0.000000 1.000000 0.000000
vn 0.000000 1.000000 0.000000
vn 0.000000 1.000000 0.000000
vn 0.000000 1.000000 0.000000
vn 0.000000 1.000000 0.000000
vn 0.000000 1.000000 0.000000
vn 0.000000 1.000000 0.000000
vn 0.000000 1.000000 0.000000
vn 0.000000 1.000000 0.000000
vn 0.010100 0.001000 0.999949
vn 0.010100 0.001000 0.999949
vn 0.010056 0.001032 0.999949
vn 0.010056 0.001032 0.999949
vn 1.000000 0.000000 -0.000000
vn 1.000000 0.000000 0.000000
vn 1.000000 0.000000 0.000000
vn 1.000000 0.000000 -0.000000
vn 0.000000 0.449692 0.893184
vn 0.000000 0.449692 0.893184
vn 0.000000 0.449692 0.893184
vn 0.000000 0.449692 0.893184
vn 0.000000 0.599376 0.800468
vn 0.000000 0.599376 0.800468
vn 0.000000 0.599376 0.800468
vn 0.000000 0.599376 0.800468
vn 0.000000 -0.632699 0.774398
vn 0.000000 -0.632699 0.774398
vn 0.000000 -0.632699 0.774398
vn 0.000000 -0.632699 0.774398
vn 0.000000 0.322191 0.946675
vn 0.000000 0.322191 0.946675
vn 0.000000 0.322191 0.946675
vn 0.000000 0.322191 0.946675
vn 0.000000 -0.489620 0.871936
vn 0.000000 -0.489620 0.871936
vn 0.000000 -0.489620 0.871936
vn 0.000000 -0.489620 0.871936
vn 0.000000 0.000000 1.000000
vn 0.000000 0.000000 1.000000
vn 0.000000 0.000000 1.000000
vn 0.000000 0.000000 1.000000
vn 0.000000 0.540100 0.841601
vn 0.000000 0.540100 0.841601
vn 0.000000 0.540100 0.841601
vn 0.000000 0.540100 0.841601
vn 0.000000 -0.219196 0.975681
vn 0.000000 -0.219196 0.975681
vn 0.000000 -0.219196 0.975681
vn 0.000000 -0.219196 0.975681
vn 0.946675 0.322191 -0.000000
vn 0.946675 0.322191 -0.000000
vn 0.946675 0.322191 -0.000000
vn 0.946675 0.322191 -0.000000
vn 0.975681 -0.219196 -0.000000
vn 0.975681 -0.219196 -0.000000
vn 0.975681 -0.219196 -0.000000
vn 0.975681 -0.219196 -0.000000
vn 0.871893 -0.489696 -0.000000
vn 0.871893 -0.489696 -0.000000
vn 0.871893 -0.489696 -0.000000
vn 0.871893 -0.489696 -0.000000
vn 0.893184 0.449692 -0.000000
vn 0.893184 0.449692 -0.000000
vn 0.893184 0.449692 -0.000000
vn 0.893184 0.449692 -0.000000
vn 1.000000 0.000000 -0.000000
vn 1.000000 0.000000 -0.000000
vn 1.000000 0.000000 -0.000000
vn 1.000000 0.000000 -0.000000
vn 0.774309 -0.632807 -0.000000
vn 0.774309 -0.632807 -0.000000
vn 0.774309 -0.632807 -0.000000
vn 0.774309 -0.632807 -0.000000
vn 0.800468 0.599376 -0.000000
vn 0.800468 0.599376 -0.000000
vn 0.800468 0.599376 -0.000000
vn 0.800468 0.599376 -0.000000
vn 0.841601 0.540100 -0.000000
vn 0.841601 0.540100 -0.000000
vn 0.841601 0.540100 -0.000000
vn 0.841601 0.540100 -0.000000
vn 0.019800 0.000000 0.999804
vn 0.019800 0.000000 0.999804
vn 0.019800 0.000000 0.999804
vn 0.019800 0.000000 0.999804
vn 0.000000 0.540100 0.841601
vn 0.000000 0.540100 0.841601
vn 0.000000 0.540100 0.841601
vn 0.000000 0.540100 0.841601
vn 0.000000 -0.219196 0.975681
vn 0.000000 -0.219196 0.975681
vn 0.000000 -0.219196 0.975681
vn 0.000000 -0.219196 0.975681
vn 0.000000 -0.632699 0.774398
vn 0.000000 -0.632699 0.774398
vn 0.000000 -0.632699 0.774398
vn 0.000000 -0.632699 0.774398
vn 0.008100 0.483503 0.875305
vn 0.008100 0.483503 0.875305
vn 0.008100 0.483503 0.875305
vn 0.008100 0.483503 0.875305
vn 0.008500 0.552301 0.833601
vn 0.008500 0.552301 0.833601
vn 0.008500 0.552301 0.833601
vn 0.008500 0.552301 0.833601
vn 0.000000 0.322191 0.946675
vn 0.000000 0.322191 0.946675
vn 0.000000 0.322191 0.946675
vn 0.000000 0.322191 0.946675
vn 0.000000 -0.489696 0.871893
vn 0.000000 -0.489696 0.871893
vn 0.000000 -0.489696 0.871893
vn 0.000000 -0.489696 0.871893
vn 0.875263 0.483580 0.008100
vn 0.875263 0.483580 0.008100
vn 0.875263 0.483580 0.008100
vn 0.875263 0.483580 0.008100
vn 0.833601 0.552301 0.008500
vn 0.833601 0.552301 0.008500
vn 0.833601 0.552301 0.008500
vn 0.833601 0.552301 0.008500
vn 0.946705 0.322102 -0.000100
vn 0.946705 0.322102 -0.000100
vn 0.946705 0.322102 -0.000100
vn 0.946705 0.322102 -0.000100
vn 0.871893 -0.489696 -0.000000
vn 0.871893 -0.489696 -0.000000
vn 0.871893 -0.489696 -0.000000
vn 0.871893 -0.489696 -0.000000
vn 0.774398 -0.632699 -0.000000
vn 0.774398 -0.632699 -0.000000
vn 0.774398 -0.632699 -0.000000
vn 0.774398 -0.632699 -0.000000
vn 0.999804 0.000000 0.019800
vn 0.999804 0.000000 0.019800
vn 0.999804 0.000000 0.019800
vn 0.999804 0.000000 0.019800
vn 0.841601 0.540100 -0.000000
vn 0.841601 0.540100 -0.000000
vn 0.841601 0.540100 -0.000000
vn 0.841601 0.540100 -0.000000
vn 0.975750 -0.218889 -0.000000
vn 0.975750 -0.218889 -0.000000
vn 0.975750 -0.218889 -0.000000
vn 0.975750 -0.218889 -0.000000
vn 0.000000 -0.489620 0.871936
vn 0.000000 -0.489620 0.871936
vn 0.000000 -0.489620 0.871936
vn 0.000000 -0.489620 0.871936
vn 0.000000 1.000000 0.000000
vn 0.000000 1.000000 0.000000
vn 0.000000 1.000000 0.000000
vn 0.000000 1.000000 0.000000
vn 0.000000 -0.219196 0.975681
vn 0.000000 -0.219196 0.975681
vn 0.000000 -0.219196 0.975681
vn 0.000000 -0.219196 0.975681
vn 0.000000 0.000000 1.000000
vn 0.000000 0.000000 1.000000
vn 0.000000 0.000000 1.000000
vn 0.000000 0.000000 1.000000
vn 0.000000 0.322191 0.946675
vn 0.000000 0.322191 0.946675
vn 0.000000 0.322191 0.946675
vn 0.000000 0.322191 0.946675
vn 0.000000 1.000000 0.000000
vn 0.000000 1.000000 0.000000
vn 0.000000 1.000000 0.000000
vn 0.000000 1.000000 0.000000
vn 0.000000 0.540100 0.841601
vn 0.000000 0.540100 0.841601
vn 0.000000 0.540100 0.841601
vn 0.000000 0.540100 0.841601
vn 0.000000 0.599376 0.800468
vn 0.000000 0.599376 0.800468
vn 0.000000 0.599376 0.800468
vn 0.000000 0.599376 0.800468
vn 0.000000 0.000000 1.000000
vn 0.000000 0.000000 1.000000
vn 0.000000 0.000000 1.000000
vn 0.000000 0.000000 1.000000
vn 0.000000 0.000000 1.000000
vn 0.000000 0.000000 1.000000
vn 0.000000 0.000000 1.000000
vn 0.000000 0.000000 1.000000
vn 0.000000 -0.632699 0.774398
vn 0.000000 -0.632699 0.774398
vn 0.000000 -0.632699 0.774398
vn 0.000000 -0.632699 0.774398
vn 0.000000 0.449692 0.893184
vn 0.000000 0.449692 0.893184
vn 0.000000 0.449692 0.893184
vn 0.000000 0.449692 0.893184
vn 0.000000 1.000000 0.000000
vn 0.000000 1.000000 0.000000
vn 0.000000 1.000000 0.000000
vn 0.000000 1.000000 0.000000
vn 0.000000 -1.000000 0.000000
vn 0.000000 -1.000000 0.000000
vn 0.000000 -1.000000 0.000000
vn 0.000000 -1.000000 0.000000
vn 0.975681 -0.219196 -0.000000
vn 0.975681 -0.219196 -0.000000
vn 0.975681 -0.219196 -0.000000
vn 0.975681 -0.219196 -0.000000
vn 1.000000 0.000000 -0.000000
vn 1.000000 0.000000 -0.000000
vn 1.000000 0.000000 -0.000000
vn 1.000000 0.000000 -0.000000
vn 0.946675 0.322191 -0.000000
vn 0.946675 0.322191 -0.000000
vn 0.946675 0.322191 -0.000000
vn 0.946675 0.322191 -0.000000
vn 0.000000 1.000000 0.000000
vn 0.000000 1.000000 0.000000
vn 0.000000 1.000000 0.000000
vn 0.000000 1.000000 0.000000
vn 0.841601 0.540100 -0.000000
vn 0.841601 0.540100 -0.000000
vn 0.841601 0.540100 -0.000000
vn 0.841601 0.540100 -0.000000
vn 0.800468 0.599376 -0.000000
vn 0.800468 0.599376 -0.000000
vn 0.800468 0.599376 -0.000000
vn 0.800468 0.599376 -0.000000
vn 1.000000 0.000000 0.000000
vn 1.000000 0.000000 0.000000
vn 1.000000 0.000000 -0.000000
vn 1.000000 0.000000 -0.000000
vn 1.000000 0.000000 -0.000000
vn 1.000000 0.000000 -0.000000
vn 1.000000 0.000000 -0.000000
vn 1.000000 0.000000 -0.000000
vn 0.774309 -0.632807 -0.000000
vn 0.774309 -0.632807 -0.000000
vn 0.774309 -0.632807 -0.000000
vn 0.774309 -0.632807 -0.000000
vn 0.893184 0.449692 -0.000000
vn 0.893184 0.449692 -0.000000
vn 0.893184 0.449692 -0.000000
vn 0.893184 0.449692 -0.000000
vn 0.000000 1.000000 0.000000
vn 0.000000 1.000000 0.000000
vn 0.000000 1.000000 0.000000
vn 0.000000 1.000000 0.000000
vn 0.000000 -1.000000 0.000000
vn 0.000000 -1.000000 0.000000
vn 0.000000 -1.000000 0.000000
vn 0.000000 -1.000000 0.000000
vn 0.871893 -0.489696 -0.000000
vn 0.871893 -0.489696 -0.000000
vn 0.871893 -0.489696 -0.000000
vn 0.871893 -0.489696 -0.000000
vn 0.000000 1.000000 0.000000
vn 0.000000 1.000000 0.000000
vn 0.000000 1.000000 0.000000
vn 0.000000 1.000000 0.000000
vn 1.000000 0.000000 -0.000000
vn 1.000000 0.000000 -0.000000
vn 1.000000 0.000000 -0.000000
vn 1.000000 0.000000 -0.000000
vn 0.000000 0.000000 1.000000
vn 0.000000 0.000000 1.000000
vn 0.000000 0.000000 1.000000
vn 0.000000 0.000000 1.000000
vn 1.000000 0.000000 -0.000000
vn 1.000000 0.000000 -0.000000
vn 1.000000 0.000000 -0.000000
vn 1.000000 0.000000 -0.000000
vn 0.010100 0.001000 0.999949
vn 0.010100 0.001000 0.999949
vn 0.000000 0.000000 1.000000
vn 0.000000 0.000000 1.000000
s off
g Tip3_2
usemtl initialShadingGroup
f 28/1/1 29/2/2 33/3/3 32/4/4
f 16/126/5 23/6/6 31/7/7 30/130/8
f 32/4/9 33/3/10 37/9/11 36/10/12
f 30/129/13 31/132/14 35/131/15 34/12/16
f 14/13/17 33/3/18 29/2/19 15/134/20
f 13/15/21 37/9/22 33/3/23 14/13/24
f 13/15/25 8/16/26 34/12/27 37/9/28
f 35/131/29 36/10/30 37/9/31 34/12/32
f 36/10/33 35/11/34 31/7/35 32/4/36
f 23/6/37 28/1/38 32/4/39 31/7/40
f 1/17/41 30/129/42 34/12/43 8/16/44
f 19/18/45 17/19/46 38/122/47 39/21/48
f 39/21/49 38/122/50 40/124/51 57/121/52
f 4/24/53 40/22/54 38/123/55 2/112/56
s 1
f 2/25/57 38/20/58 101/106/59 102/104/60
s 2
f 17/109/61 100/107/62 101/106/63 38/20/64
s off
f 11/29/65 12/30/66 48/31/67 47/32/68
f 9/33/69 10/34/70 46/35/71 45/36/72
f 4/24/73 3/37/74 41/38/75 40/22/76
f 6/39/77 7/40/78 44/41/79 43/42/80
f 3/37/81 5/43/82 42/44/83 41/38/84
f 10/34/85 11/29/86 47/32/87 46/35/88
f 7/40/89 9/33/90 45/36/91 44/41/92
f 5/43/93 6/39/94 43/42/95 42/44/96
f 22/45/97 21/46/98 51/47/99 52/48/100
f 21/46/101 20/49/102 50/50/103 51/47/104
f 20/49/105 18/51/106 49/52/107 50/50/108
f 27/53/109 26/54/110 55/55/111 56/56/112
f 26/54/113 25/57/114 54/58/115 55/55/116
f 18/51/117 19/18/118 39/21/119 49/52/120
f 25/57/121 24/59/122 53/60/123 54/58/124
f 24/59/125 22/45/126 52/48/127 53/60/128
f 46/35/129 47/32/130 65/120/131 64/117/132
f 44/41/133 45/36/134 63/118/135 59/115/136
f 42/44/137 43/42/138 62/116/139 58/113/140
f 40/22/141 41/38/142 61/114/143 57/23/144
f 47/32/145 48/31/146 60/68/147 65/120/148
f 45/36/149 46/35/150 64/117/151 63/118/152
f 43/42/153 44/41/154 59/115/155 62/116/156
f 41/38/157 42/44/158 58/113/159 61/114/160
f 56/56/161 55/55/162 65/61/163 60/119/164
f 54/58/165 53/60/166 63/63/167 64/62/168
f 52/48/169 51/47/170 62/65/171 59/64/172
f 50/50/173 49/52/174 61/67/175 58/66/176
f 49/52/177 39/21/178 57/121/179 61/67/180
f 55/55/181 54/58/182 64/62/183 65/61/184
f 53/60/185 52/48/186 59/64/187 63/63/188
f 51/47/189 50/50/190 58/66/191 62/65/192
f 5/43/193 3/37/194 68/69/195 70/70/196
f 13/15/197 14/13/198 79/71/199 78/72/200
f 6/39/201 5/43/202 70/70/203 71/73/204
f 8/16/205 13/15/206 78/72/207 73/74/208
f 7/40/209 6/39/210 71/73/211 72/75/212
f 14/13/213 15/134/214 80/135/215 79/71/216
f 9/33/217 7/40/218 72/75/219 74/77/220
f 10/34/221 9/33/222 74/77/223 75/78/224
s 3
f 2/25/225 102/104/226 103/105/227 67/80/228
s off
f 11/29/229 10/34/230 75/78/231 76/81/232
f 3/37/233 4/24/234 69/82/235 68/69/236
f 12/30/237 11/29/238 76/81/239 77/83/240
f 4/24/241 2/112/242 67/111/243 69/82/244
f 1/17/245 8/16/246 73/74/247 66/84/248
f 20/49/249 21/46/250 87/85/251 86/86/252
f 28/1/253 23/6/254 89/87/255 94/88/256
f 21/46/257 22/45/258 88/89/259 87/85/260
f 15/134/261 29/2/262 95/90/263 81/91/264
f 22/45/265 24/59/266 90/92/267 88/89/268
f 24/59/269 25/57/270 91/93/271 90/92/272
s 4
f 99/94/273 100/107/274 17/109/275 83/110/276
s off
f 25/57/277 26/54/278 92/96/279 91/93/280
f 19/18/281 18/51/282 84/97/283 85/98/284
f 26/54/285 27/53/286 93/99/287 92/96/288
f 17/19/289 19/18/290 85/98/291 83/95/292
f 23/6/293 16/126/294 82/125/295 89/87/296
f 18/51/297 20/49/298 86/86/299 84/97/300
f 29/2/301 28/1/302 94/88/303 95/90/304
f 15/14/305 81/133/306 98/101/307 96/102/308
f 80/76/309 15/137/310 96/136/311 97/103/312
s 4
f 16/5/313 100/28/274 99/108/273 82/100/314
s 2
f 101/26/63 100/28/62 16/5/315 30/8/316
s 1
f 102/27/60 101/26/59 30/8/317 1/127/318
s 3
f 103/79/227 102/27/226 1/127/319 66/128/320
