# This file uses centimeters as units for non-parametric coordinates.

mtllib Tip4_2.mtl
g default
v 0.000000 0.149514 0.070000
v 0.000000 0.138318 0.124048
v 0.000000 0.149514 0.133197
v 0.000000 -0.000000 0.144302
v 0.000000 0.125820 0.116979
v 0.000000 0.112429 0.113971
v 0.000000 0.097699 0.118985
v 0.000000 0.084202 0.127648
v 0.000000 0.074560 0.134867
v 0.000000 0.018640 0.134867
v 0.000000 3.500180 0.070000
v 0.070000 0.149514 0.000000
v 0.124048 0.138318 0.000000
v 0.133197 0.149514 0.000000
v 0.144302 -0.000000 0.000000
v 0.116979 0.125820 0.000000
v 0.113971 0.112429 0.000000
v 0.118985 0.097699 0.000000
v 0.127648 0.084202 0.000000
v 0.134867 0.074560 0.000000
v 0.134867 0.018640 0.000000
v 0.070000 3.500180 0.000000
v 0.070000 0.149514 0.070000
v 0.124050 0.138318 0.124048
v 0.133200 0.149514 0.133197
v 0.118980 0.097699 0.118985
v 0.127650 0.084202 0.127648
v 0.134870 0.074560 0.134867
v 0.144300 -0.000000 0.144302
v 0.116980 0.125820 0.116979
v 0.113970 0.112429 0.113971
v 0.134870 0.018640 0.134867
v 0.070000 3.500180 0.070000
vt 0.717705 0.912547
vt 0.717703 0.904617
vt 0.772479 0.904599
vt 0.769157 0.912530
vt 0.004571 0.244062
vt 0.717721 0.966490
vt 0.768543 0.966475
vt 0.004584 0.021889
vt 0.717714 0.944434
vt 0.717713 0.938347
vt 0.766427 0.938330
vt 0.763138 0.944421
vt 0.717719 0.961001
vt 0.717718 0.955549
vt 0.762382 0.955537
vt 0.765067 0.960987
vt 0.717712 0.933774
vt 0.769163 0.933757
vt 0.717716 0.950341
vt 0.761239 0.950328
vt 0.717977 0.955552
vt 0.717977 0.961002
vt 0.717971 0.933775
vt 0.717971 0.938347
vt 0.717974 0.950342
vt 0.717960 0.912547
vt 0.717981 0.966490
vt 0.717987 0.990480
vt 0.717974 0.944435
vt 0.717960 0.904617
vt 0.994801 0.021090
vt 0.994789 0.243886
vt 0.994785 0.003334
vt 0.004567 0.004133
vt 0.744559 0.990472
vt 0.744300 0.990471
vt 0.762879 0.944420
vt 0.760979 0.950327
vt 0.768901 0.912531
vt 0.768908 0.933758
vt 0.762123 0.955538
vt 0.766168 0.938331
vt 0.764808 0.960987
vt 0.768283 0.966474
vt 0.717728 0.990480
vt 0.772737 0.904599
vt 0.004567 0.223375
vt 0.994785 0.223199
vn 0.000000 0.451608 0.892216
vn 0.000000 0.451608 0.892216
vn 0.000000 0.451608 0.892216
vn 0.000000 0.451608 0.892216
vn 0.000000 1.000000 0.000000
vn 0.000000 1.000000 0.000000
vn 0.000000 1.000000 0.000000
vn 0.000000 1.000000 0.000000
vn 0.000000 0.540100 0.841601
vn 0.000000 0.540100 0.841601
vn 0.000000 0.540100 0.841601
vn 0.000000 0.540100 0.841601
vn 0.000000 -0.492311 0.870419
vn 0.000000 -0.492311 0.870419
vn 0.000000 -0.492311 0.870419
vn 0.000000 -0.492311 0.870419
vn 0.000000 -0.632807 0.774309
vn 0.000000 -0.632807 0.774309
vn 0.000000 0.599376 0.800468
vn 0.000000 0.599376 0.800468
vn 0.000000 -0.219196 0.975681
vn 0.000000 -0.219196 0.975681
vn 0.870419 -0.492311 0.000000
vn 0.870419 -0.492311 0.000000
vn 0.870419 -0.492311 0.000000
vn 0.870419 -0.492311 0.000000
vn 0.800468 0.599376 0.000000
vn 0.800468 0.599376 0.000000
vn 0.800468 0.599376 0.000000
vn 0.800468 0.599376 0.000000
vn 0.975681 -0.219196 0.000000
vn 0.975681 -0.219196 0.000000
vn 1.000000 0.000000 0.000000
vn 1.000000 0.000000 0.000000
vn 0.000000 1.000000 0.000000
vn 0.000000 1.000000 0.000000
vn 0.000000 1.000000 0.000000
vn 0.000000 1.000000 0.000000
vn 0.946705 0.322102 0.000000
vn 0.946705 0.322102 0.000000
vn 0.774309 -0.632807 0.000000
vn 0.774309 -0.632807 0.000000
vn 0.892277 0.451488 0.000000
vn 0.892277 0.451488 0.000000
vn 0.000000 0.000000 1.000000
vn 0.000000 0.000000 1.000000
vn 0.000000 0.000000 1.000000
vn 0.000000 0.000000 1.000000
vn 1.000000 0.000000 0.000000
vn 1.000000 0.000000 0.000000
vn 1.000000 0.000000 0.000000
vn 1.000000 0.000000 0.000000
s 1
g Tip4_2
usemtl initialShadingGroup
f 10/1/1 4/2/2 29/3/3 32/39/4
s off
f 1/45/5 3/6/6 25/44/7 23/36/8
s 1
f 7/9/9 8/10/10 27/42/11 26/37/12
f 2/13/13 5/14/14 30/41/15 24/43/16
f 3/6/17 2/13/13 24/43/16 25/44/18
f 8/10/10 9/17/19 28/40/20 27/42/11
f 5/14/14 6/19/21 31/38/22 30/41/15
f 9/17/19 10/1/1 32/39/4 28/40/20
f 6/19/21 7/9/9 26/37/12 31/38/22
s 4
f 16/21/23 13/22/24 24/16/25 30/15/26
f 20/23/27 19/24/28 27/11/29 28/18/30
f 17/25/31 16/21/23 30/15/26 31/20/32
f 21/26/33 20/23/27 28/18/30 32/4/34
s off
f 14/27/35 12/28/36 23/35/37 25/7/38
s 4
f 18/29/39 17/25/31 31/20/32 26/12/40
f 13/22/24 14/27/41 25/7/42 24/16/25
f 15/30/43 21/26/33 32/4/34 29/46/44
f 19/24/28 18/29/39 26/12/40 27/11/29
s off
f 33/48/45 11/32/46 1/5/47 23/47/48
f 22/33/49 33/31/50 23/8/51 12/34/52
