# This file uses centimeters as units for non-parametric coordinates.

mtllib Tip4.mtl
g default
v 0.000000 0.149514 0.070000
v 0.000000 0.138318 0.124048
v 0.000000 0.149514 0.133197
v 0.000000 0.000000 0.144302
v 0.000000 0.125820 0.116979
v 0.000000 0.112429 0.113971
v 0.000000 0.097699 0.118985
v 0.000000 0.084202 0.127648
v 0.000000 0.074560 0.134867
v 0.000000 0.018640 0.134867
v 0.070000 0.149514 0.000000
v 0.124048 0.138318 0.000000
v 0.133197 0.149514 0.000000
v 0.144302 0.000000 0.000000
v 0.116979 0.125820 0.000000
v 0.113971 0.112429 0.000000
v 0.118985 0.097699 0.000000
v 0.127648 0.084202 0.000000
v 0.134867 0.074560 0.000000
v 0.134867 0.018640 0.000000
v 0.070000 0.149514 0.070000
v 0.124050 0.138318 0.124048
v 0.133200 0.149514 0.133197
v 0.118980 0.097699 0.118985
v 0.127650 0.084202 0.127648
v 0.134870 0.074560 0.134867
v 0.144300 0.000000 0.144302
v 0.116980 0.125820 0.116979
v 0.113970 0.112429 0.113971
v 0.134870 0.018640 0.134867
v 0.000000 0.149514 0.000000
vt 0.717878 0.912655
vt 0.717876 0.904657
vt 0.773115 0.904646
vt 0.769255 0.913002
vt 0.596994 0.956334
vt 0.717889 0.967053
vt 0.768677 0.966820
vt 0.744768 0.990777
vt 0.717885 0.944811
vt 0.717884 0.938672
vt 0.766547 0.938744
vt 0.763273 0.944822
vt 0.717888 0.961518
vt 0.717887 0.956022
vt 0.762525 0.955913
vt 0.765207 0.961348
vt 0.717883 0.934061
vt 0.769277 0.934179
vt 0.717886 0.950768
vt 0.761380 0.950716
vt 0.718224 0.955957
vt 0.718230 0.961395
vt 0.718202 0.934232
vt 0.718207 0.938794
vt 0.718219 0.950760
vt 0.718180 0.913055
vt 0.718236 0.966871
vt 0.718259 0.990804
vt 0.718213 0.944867
vt 0.718172 0.905143
vt 0.596999 0.992963
vt 0.763431 0.944802
vt 0.761514 0.950759
vt 0.769507 0.912644
vt 0.769511 0.934050
vt 0.762667 0.956012
vt 0.766748 0.938662
vt 0.765375 0.961508
vt 0.768879 0.967042
vt 0.744691 0.991240
vt 0.717895 0.991245
vt 0.772819 0.905087
vt 0.632572 0.991900
vt 0.632566 0.956328
vn 0.000000 0.451608 0.892216
vn 0.000000 0.451608 0.892216
vn 0.000000 0.451608 0.892216
vn 0.000000 0.451608 0.892216
vn 0.000000 1.000000 0.000000
vn 0.000000 1.000000 0.000000
vn 0.000000 1.000000 0.000000
vn 0.000000 1.000000 0.000000
vn 0.000000 0.540100 0.841601
vn 0.000000 0.540100 0.841601
vn 0.000000 0.540100 0.841601
vn 0.000000 0.540100 0.841601
vn 0.000000 -0.492311 0.870419
vn 0.000000 -0.492311 0.870419
vn 0.000000 -0.492311 0.870419
vn 0.000000 -0.492311 0.870419
vn 0.000000 -0.632807 0.774309
vn 0.000000 -0.632807 0.774309
vn 0.000000 0.599376 0.800468
vn 0.000000 0.599376 0.800468
vn 0.000000 -0.219196 0.975681
vn 0.000000 -0.219196 0.975681
vn 0.870419 -0.492311 0.000000
vn 0.870419 -0.492311 0.000000
vn 0.870419 -0.492311 0.000000
vn 0.870419 -0.492311 0.000000
vn 0.800468 0.599376 0.000000
vn 0.800468 0.599376 0.000000
vn 0.800468 0.599376 0.000000
vn 0.800468 0.599376 0.000000
vn 0.975681 -0.219196 0.000000
vn 0.975681 -0.219196 0.000000
vn 1.000000 0.000000 0.000000
vn 1.000000 0.000000 0.000000
vn 0.000000 1.000000 0.000000
vn 0.000000 1.000000 0.000000
vn 0.000000 1.000000 0.000000
vn 0.000000 1.000000 0.000000
vn 0.946705 0.322102 0.000000
vn 0.946705 0.322102 0.000000
vn 0.774309 -0.632807 0.000000
vn 0.774309 -0.632807 0.000000
vn 0.892277 0.451488 0.000000
vn 0.892277 0.451488 0.000000
vn 0.000000 1.000000 0.000000
vn 0.000000 1.000000 0.000000
vn 0.000000 1.000000 0.000000
vn 0.000000 1.000000 0.000000
s 1
g Tip4
usemtl set7
f 10/1/1 4/2/2 27/3/3 30/34/4
s off
f 1/41/5 3/6/6 23/39/7 21/40/8
s 1
f 7/9/9 8/10/10 25/37/11 24/32/12
f 2/13/13 5/14/14 28/36/15 22/38/16
f 3/6/17 2/13/13 22/38/16 23/39/18
f 8/10/10 9/17/19 26/35/20 25/37/11
f 5/14/14 6/19/21 29/33/22 28/36/15
f 9/17/19 10/1/1 30/34/4 26/35/20
f 6/19/21 7/9/9 24/32/12 29/33/22
s 4
f 15/21/23 12/22/24 22/16/25 28/15/26
f 19/23/27 18/24/28 25/11/29 26/18/30
f 16/25/31 15/21/23 28/15/26 29/20/32
f 20/26/33 19/23/27 26/18/30 30/4/34
s off
f 13/27/35 11/28/36 21/8/37 23/7/38
s 4
f 17/29/39 16/25/31 29/20/32 24/12/40
f 12/22/24 13/27/41 23/7/42 22/16/25
f 14/30/43 20/26/33 30/4/34 27/42/44
f 18/24/28 17/29/39 24/12/40 25/11/29
s off
f 1/5/45 21/44/46 11/43/47 31/31/48
