# Blender 4.4.0
# www.blender.org
mtllib Llave 2.mtl
o Llave_2
v -1.000000 0.000000 0.092442
v 1.000000 0.000000 0.092442
v -1.000000 0.206484 0.092442
v 1.000000 0.220998 0.092442
v -0.940170 0.000000 0.161688
v -0.940170 0.230281 0.161688
v 0.942184 0.000000 0.161688
v 0.942184 0.242956 0.161688
v 1.000000 0.000000 0.000000
v -1.000000 0.000000 0.000000
v 1.000000 0.220998 0.000000
v -1.000000 0.206484 0.000000
v -0.873230 0.000000 0.154514
v -0.873230 0.242723 0.154514
v 0.889631 0.000000 0.154514
v 0.889631 0.254044 0.154514
v -0.873230 0.000000 0.126271
v -0.873230 0.242723 0.126271
v 0.889631 0.000000 0.126271
v 0.612949 0.000000 0.126271
v 0.612949 0.284876 0.126271
v 0.889631 0.254044 0.126271
v 0.549236 0.945051 0.092442
v 0.808960 0.905639 0.092442
v 0.634128 0.946274 0.092442
v 0.729194 0.931848 0.092442
v 0.876030 0.874426 0.092442
v 1.000000 0.678310 0.092442
v 0.938015 0.827034 0.092442
v 0.983391 0.755251 0.092442
v 0.816499 0.817446 0.161688
v 0.942184 0.624415 0.161688
v 0.879341 0.771721 0.161688
v 0.925345 0.701066 0.161688
v 0.771170 0.837019 0.161688
v 0.509443 0.874207 0.161688
v 0.690563 0.861666 0.161688
v 0.594764 0.875278 0.161688
v 0.549334 0.945064 0.000000
v 0.808958 0.905640 0.000000
v 0.634176 0.946280 0.000000
v 0.729205 0.931850 0.000000
v 0.876075 0.874405 0.000000
v 1.000000 0.678425 0.000000
v 0.938038 0.827039 0.000000
v 0.983397 0.755305 0.000000
v 0.762599 0.771016 0.154514
v 0.889631 0.579828 0.154514
v 0.826115 0.726254 0.154514
v 0.872612 0.656274 0.154514
v 0.475637 0.816873 0.154514
v 0.738378 0.780991 0.154514
v 0.561097 0.817839 0.154514
v 0.657267 0.804705 0.154514
v 0.889631 0.579960 0.126271
v 0.762668 0.770988 0.126271
v 0.872621 0.656336 0.126271
v 0.826149 0.726257 0.126271
v 0.738371 0.780994 0.126271
v 0.475742 0.816885 0.126271
v 0.612949 0.697198 0.126271
v 0.657278 0.804708 0.126271
v 0.561149 0.817845 0.126271
v -0.645445 0.789969 0.092442
v -0.904742 0.565931 0.092442
v -0.728655 0.764676 0.092442
v -0.807153 0.713217 0.092442
v -0.868986 0.643428 0.092442
v -0.904730 0.565975 0.000000
v -0.645673 0.789940 0.000000
v -0.868996 0.643452 0.000000
v -0.807216 0.713222 0.000000
v -0.728796 0.764661 0.000000
v -0.857390 0.520099 0.161688
v -0.593353 0.741386 0.161688
v -0.820108 0.597102 0.161688
v -0.756838 0.666196 0.161688
v -0.677212 0.716862 0.161688
v -0.801675 0.481653 0.154514
v -0.534503 0.700839 0.154514
v -0.763415 0.558182 0.154514
v -0.699206 0.626711 0.154514
v -0.618822 0.676805 0.154514
v -0.534781 0.700807 0.126271
v -0.801664 0.481689 0.126271
v -0.618994 0.676788 0.126271
v -0.699284 0.626712 0.126271
v -0.763430 0.558202 0.126271
v -1.000000 0.000000 -0.092442
v 1.000000 0.000000 -0.092442
v -1.000000 0.206484 -0.092442
v 1.000000 0.220998 -0.092442
v -0.940170 0.000000 -0.161688
v -0.940170 0.230281 -0.161688
v 0.942184 0.000000 -0.161688
v 0.942184 0.242956 -0.161688
v -0.873230 0.000000 -0.154514
v -0.873230 0.242723 -0.154514
v 0.889631 0.000000 -0.154514
v 0.889631 0.254044 -0.154514
v -0.873230 0.000000 -0.126271
v -0.873230 0.242723 -0.126271
v 0.889631 0.000000 -0.126271
v 0.612949 0.000000 -0.126271
v 0.612949 0.284876 -0.126271
v 0.889631 0.254044 -0.126271
v 0.549236 0.945051 -0.092442
v 0.808960 0.905639 -0.092442
v 0.634128 0.946274 -0.092442
v 0.729194 0.931848 -0.092442
v 0.876030 0.874426 -0.092442
v 1.000000 0.678310 -0.092442
v 0.938015 0.827034 -0.092442
v 0.983391 0.755251 -0.092442
v 0.816499 0.817446 -0.161688
v 0.942184 0.624415 -0.161688
v 0.879341 0.771721 -0.161688
v 0.925345 0.701066 -0.161688
v 0.771170 0.837019 -0.161688
v 0.509443 0.874207 -0.161688
v 0.690563 0.861666 -0.161688
v 0.594764 0.875278 -0.161688
v 0.762599 0.771016 -0.154514
v 0.889631 0.579828 -0.154514
v 0.826115 0.726254 -0.154514
v 0.872612 0.656274 -0.154514
v 0.475637 0.816873 -0.154514
v 0.738378 0.780991 -0.154514
v 0.561097 0.817839 -0.154514
v 0.657267 0.804705 -0.154514
v 0.889631 0.579960 -0.126271
v 0.762668 0.770988 -0.126271
v 0.872621 0.656336 -0.126271
v 0.826149 0.726257 -0.126271
v 0.738371 0.780994 -0.126271
v 0.475742 0.816885 -0.126271
v 0.612949 0.697198 -0.126271
v 0.657278 0.804708 -0.126271
v 0.561149 0.817845 -0.126271
v -0.645445 0.789969 -0.092442
v -0.904742 0.565931 -0.092442
v -0.728655 0.764676 -0.092442
v -0.807153 0.713217 -0.092442
v -0.868986 0.643428 -0.092442
v -0.857390 0.520099 -0.161688
v -0.593353 0.741386 -0.161688
v -0.820108 0.597102 -0.161688
v -0.756838 0.666196 -0.161688
v -0.677212 0.716862 -0.161688
v -0.801675 0.481653 -0.154514
v -0.534503 0.700839 -0.154514
v -0.763415 0.558182 -0.154514
v -0.699206 0.626711 -0.154514
v -0.618822 0.676805 -0.154514
v -0.534781 0.700807 -0.126271
v -0.801664 0.481689 -0.126271
v -0.618994 0.676788 -0.126271
v -0.699284 0.626712 -0.126271
v -0.763430 0.558202 -0.126271
v -1.000000 -0.206484 0.092442
v 1.000000 -0.220998 0.092442
v -0.940170 -0.230281 0.161688
v 0.942184 -0.242956 0.161688
v 1.000000 -0.220998 0.000000
v -1.000000 -0.206484 0.000000
v -0.873230 -0.242723 0.154514
v 0.889631 -0.254044 0.154514
v -0.873230 -0.242723 0.126271
v 0.612949 -0.284876 0.126271
v 0.889631 -0.254044 0.126271
v 0.549236 -0.945051 0.092442
v 0.808960 -0.905639 0.092442
v 0.634128 -0.946274 0.092442
v 0.729194 -0.931848 0.092442
v 0.876030 -0.874426 0.092442
v 1.000000 -0.678310 0.092442
v 0.938015 -0.827034 0.092442
v 0.983391 -0.755251 0.092442
v 0.816499 -0.817446 0.161688
v 0.942184 -0.624415 0.161688
v 0.879341 -0.771721 0.161688
v 0.925345 -0.701066 0.161688
v 0.771170 -0.837019 0.161688
v 0.509443 -0.874207 0.161688
v 0.690563 -0.861666 0.161688
v 0.594764 -0.875278 0.161688
v 0.549334 -0.945064 0.000000
v 0.808958 -0.905640 0.000000
v 0.634176 -0.946280 0.000000
v 0.729205 -0.931850 0.000000
v 0.876075 -0.874405 0.000000
v 1.000000 -0.678425 0.000000
v 0.938038 -0.827039 0.000000
v 0.983397 -0.755305 0.000000
v 0.762599 -0.771016 0.154514
v 0.889631 -0.579828 0.154514
v 0.826115 -0.726254 0.154514
v 0.872612 -0.656274 0.154514
v 0.475637 -0.816873 0.154514
v 0.738378 -0.780991 0.154514
v 0.561097 -0.817839 0.154514
v 0.657267 -0.804705 0.154514
v 0.889631 -0.579960 0.126271
v 0.762668 -0.770988 0.126271
v 0.872621 -0.656336 0.126271
v 0.826149 -0.726257 0.126271
v 0.738371 -0.780994 0.126271
v 0.475742 -0.816885 0.126271
v 0.612949 -0.697198 0.126271
v 0.657278 -0.804708 0.126271
v 0.561149 -0.817845 0.126271
v -0.645445 -0.789969 0.092442
v -0.904742 -0.565931 0.092442
v -0.728655 -0.764676 0.092442
v -0.807153 -0.713217 0.092442
v -0.868986 -0.643428 0.092442
v -0.904730 -0.565975 0.000000
v -0.645673 -0.789940 0.000000
v -0.868996 -0.643452 0.000000
v -0.807216 -0.713222 0.000000
v -0.728796 -0.764661 0.000000
v -0.857390 -0.520099 0.161688
v -0.593353 -0.741386 0.161688
v -0.820108 -0.597102 0.161688
v -0.756838 -0.666196 0.161688
v -0.677212 -0.716862 0.161688
v -0.801675 -0.481653 0.154514
v -0.534503 -0.700839 0.154514
v -0.763415 -0.558182 0.154514
v -0.699206 -0.626711 0.154514
v -0.618822 -0.676805 0.154514
v -0.534781 -0.700807 0.126271
v -0.801664 -0.481689 0.126271
v -0.618994 -0.676788 0.126271
v -0.699284 -0.626712 0.126271
v -0.763430 -0.558202 0.126271
v -1.000000 -0.206484 -0.092442
v 1.000000 -0.220998 -0.092442
v -0.940170 -0.230281 -0.161688
v 0.942184 -0.242956 -0.161688
v -0.873230 -0.242723 -0.154514
v 0.889631 -0.254044 -0.154514
v -0.873230 -0.242723 -0.126271
v 0.612949 -0.284876 -0.126271
v 0.889631 -0.254044 -0.126271
v 0.549236 -0.945051 -0.092442
v 0.808960 -0.905639 -0.092442
v 0.634128 -0.946274 -0.092442
v 0.729194 -0.931848 -0.092442
v 0.876030 -0.874426 -0.092442
v 1.000000 -0.678310 -0.092442
v 0.938015 -0.827034 -0.092442
v 0.983391 -0.755251 -0.092442
v 0.816499 -0.817446 -0.161688
v 0.942184 -0.624415 -0.161688
v 0.879341 -0.771721 -0.161688
v 0.925345 -0.701066 -0.161688
v 0.771170 -0.837019 -0.161688
v 0.509443 -0.874207 -0.161688
v 0.690563 -0.861666 -0.161688
v 0.594764 -0.875278 -0.161688
v 0.762599 -0.771016 -0.154514
v 0.889631 -0.579828 -0.154514
v 0.826115 -0.726254 -0.154514
v 0.872612 -0.656274 -0.154514
v 0.475637 -0.816873 -0.154514
v 0.738378 -0.780991 -0.154514
v 0.561097 -0.817839 -0.154514
v 0.657267 -0.804705 -0.154514
v 0.889631 -0.579960 -0.126271
v 0.762668 -0.770988 -0.126271
v 0.872621 -0.656336 -0.126271
v 0.826149 -0.726257 -0.126271
v 0.738371 -0.780994 -0.126271
v 0.475742 -0.816885 -0.126271
v 0.612949 -0.697198 -0.126271
v 0.657278 -0.804708 -0.126271
v 0.561149 -0.817845 -0.126271
v -0.645445 -0.789969 -0.092442
v -0.904742 -0.565931 -0.092442
v -0.728655 -0.764676 -0.092442
v -0.807153 -0.713217 -0.092442
v -0.868986 -0.643428 -0.092442
v -0.857390 -0.520099 -0.161688
v -0.593353 -0.741386 -0.161688
v -0.820108 -0.597102 -0.161688
v -0.756838 -0.666196 -0.161688
v -0.677212 -0.716862 -0.161688
v -0.801675 -0.481653 -0.154514
v -0.534503 -0.700839 -0.154514
v -0.763415 -0.558182 -0.154514
v -0.699206 -0.626711 -0.154514
v -0.618822 -0.676805 -0.154514
v -0.534781 -0.700807 -0.126271
v -0.801664 -0.481689 -0.126271
v -0.618994 -0.676788 -0.126271
v -0.699284 -0.626712 -0.126271
v -0.763430 -0.558202 -0.126271
v -1.212325 -0.149433 -0.000000
v -5.209658 -0.149433 0.000000
v -1.212325 -0.146553 -0.029244
v -5.209658 -0.146553 -0.029244
v -1.212325 -0.138023 -0.057364
v -5.209658 -0.138023 -0.057364
v -1.212325 -0.124170 -0.083280
v -5.209658 -0.124170 -0.083280
v -1.212325 -0.105528 -0.105995
v -5.209658 -0.105528 -0.105995
v -1.212325 -0.082813 -0.124637
v -5.209658 -0.082813 -0.124637
v -1.212325 -0.056897 -0.138490
v -5.209658 -0.056897 -0.138489
v -1.212325 -0.028777 -0.147020
v -5.209658 -0.028777 -0.147020
v -1.212325 0.000467 -0.149900
v -5.209658 0.000467 -0.149900
v -5.209658 -0.193544 0.000000
v -5.209658 -0.189816 -0.037850
v -5.209658 -0.178776 -0.074245
v -5.209658 -0.160847 -0.107787
v -5.209658 -0.136720 -0.137186
v -5.209658 -0.107320 -0.161314
v -5.209658 -0.073778 -0.179243
v -5.209658 -0.037383 -0.190283
v -5.209658 0.000467 -0.194011
v -5.309591 -0.193544 0.000000
v -5.309591 -0.189816 -0.037850
v -5.309591 -0.178776 -0.074245
v -5.309591 -0.160847 -0.107787
v -5.309591 -0.136720 -0.137186
v -5.309591 -0.107320 -0.161314
v -5.309591 -0.073778 -0.179243
v -5.309591 -0.037383 -0.190283
v -5.309591 0.000467 -0.194011
v -5.309592 -0.149122 0.000000
v -5.309592 -0.146248 -0.029183
v -5.309592 -0.137736 -0.057245
v -5.309592 -0.123912 -0.083107
v -5.309592 -0.105309 -0.105775
v -5.309592 -0.082641 -0.124379
v -5.309592 -0.056779 -0.138202
v -5.309592 -0.028717 -0.146715
v -5.309592 0.000467 -0.149589
v -5.409525 -0.149122 0.000000
v -5.409525 -0.146248 -0.029183
v -5.409525 -0.137736 -0.057245
v -5.409525 -0.123912 -0.083107
v -5.409525 -0.105309 -0.105775
v -5.409525 -0.082641 -0.124379
v -5.409525 -0.056779 -0.138202
v -5.409525 -0.028717 -0.146715
v -5.409525 0.000467 -0.149589
v -6.208993 -0.149123 0.000000
v -6.208993 -0.146248 -0.029183
v -6.208993 -0.137736 -0.057245
v -6.208993 -0.123912 -0.083107
v -6.208993 -0.105309 -0.105775
v -6.208993 -0.082641 -0.124379
v -6.208993 -0.056779 -0.138202
v -6.208993 -0.028717 -0.146715
v -6.208993 0.000467 -0.149589
v -6.258958 -0.137314 0.000000
v -6.258958 -0.134666 -0.026879
v -6.258958 -0.126826 -0.052726
v -6.258958 -0.114093 -0.076546
v -6.258958 -0.096959 -0.097425
v -6.258958 -0.076080 -0.114560
v -6.258958 -0.052260 -0.127292
v -6.258958 -0.026413 -0.135133
v -6.258958 0.000467 -0.137780
v -6.308924 -0.103568 0.000000
v -6.308924 -0.101569 -0.020296
v -6.308924 -0.095649 -0.039812
v -6.308924 -0.086035 -0.057799
v -6.308924 -0.073097 -0.073564
v -6.308924 -0.057332 -0.086502
v -6.308924 -0.039346 -0.096116
v -6.308924 -0.019829 -0.102036
v -6.308924 0.000467 -0.104035
v -6.347349 -0.039301 0.000000
v -6.347349 -0.038537 -0.007758
v -6.347349 -0.036274 -0.015218
v -6.347349 -0.032599 -0.022094
v -6.347349 -0.027653 -0.028120
v -6.347349 -0.021627 -0.033066
v -6.347349 -0.014752 -0.036740
v -6.347349 -0.007292 -0.039004
v -6.347349 0.000467 -0.039768
v -6.358892 -0.013537 0.000000
v -6.358892 -0.013268 -0.002732
v -6.358892 -0.012471 -0.005359
v -6.358892 -0.011177 -0.007780
v -6.358892 -0.009436 -0.009902
v -6.358892 -0.007313 -0.011644
v -6.358892 -0.004892 -0.012938
v -6.358892 -0.002265 -0.013735
v -6.358892 0.000467 -0.014004
v -6.361921 0.000467 0.000000
v -5.409525 -0.464350 -0.029183
v -6.208993 -0.464350 -0.029183
v -5.409525 -0.599953 -0.029183
v -6.190501 -0.665099 -0.029183
v -6.009126 -0.146248 -0.029183
v -5.809258 -0.146248 -0.029183
v -5.609392 -0.146248 -0.029183
v -6.009126 -0.137736 -0.057245
v -5.809258 -0.137736 -0.057245
v -5.609392 -0.137736 -0.057245
v -6.009126 -0.123912 -0.083107
v -5.809258 -0.123912 -0.083107
v -5.609392 -0.123912 -0.083107
v -6.009126 -0.105309 -0.105775
v -5.809258 -0.105309 -0.105775
v -5.609392 -0.105309 -0.105775
v -6.009126 -0.082641 -0.124379
v -5.809258 -0.082641 -0.124379
v -5.609392 -0.082641 -0.124379
v -6.009126 -0.056779 -0.138202
v -5.809258 -0.056779 -0.138202
v -5.609392 -0.056779 -0.138202
v -6.009126 -0.028717 -0.146715
v -5.809258 -0.028717 -0.146715
v -5.609392 -0.028717 -0.146715
v -6.009126 0.000467 -0.149589
v -5.809258 0.000467 -0.149589
v -5.609392 0.000467 -0.149589
v -6.009126 -0.464350 -0.029183
v -5.809258 -0.430809 -0.029183
v -5.609392 -0.464350 -0.029183
v -6.027618 -0.665099 -0.029183
v -5.762450 -0.623742 -0.029183
v -5.609392 -0.599953 -0.029183
v -5.441341 -0.694176 -0.029183
v -5.577576 -0.694176 -0.029183
v -1.212325 0.150367 -0.000000
v -5.209658 0.150367 0.000000
v -1.212325 0.147487 -0.029244
v -5.209658 0.147487 -0.029244
v -1.212325 0.138957 -0.057364
v -5.209658 0.138956 -0.057364
v -1.212325 0.125104 -0.083280
v -5.209658 0.125104 -0.083280
v -1.212325 0.106462 -0.105995
v -5.209658 0.106462 -0.105995
v -1.212325 0.083747 -0.124637
v -5.209658 0.083747 -0.124637
v -1.212325 0.057831 -0.138490
v -5.209658 0.057831 -0.138489
v -1.212325 0.029711 -0.147020
v -5.209658 0.029711 -0.147020
v -5.209658 0.194478 0.000000
v -5.209658 0.190750 -0.037850
v -5.209658 0.179710 -0.074245
v -5.209658 0.161781 -0.107787
v -5.209658 0.137653 -0.137186
v -5.209658 0.108254 -0.161314
v -5.209658 0.074712 -0.179243
v -5.209658 0.038316 -0.190283
v -5.309591 0.194478 0.000000
v -5.309591 0.190750 -0.037850
v -5.309591 0.179710 -0.074245
v -5.309591 0.161781 -0.107787
v -5.309591 0.137653 -0.137186
v -5.309591 0.108254 -0.161314
v -5.309591 0.074712 -0.179243
v -5.309591 0.038316 -0.190283
v -5.309592 0.150056 0.000000
v -5.309592 0.147182 -0.029183
v -5.309592 0.138669 -0.057245
v -5.309592 0.124846 -0.083107
v -5.309592 0.106242 -0.105775
v -5.309592 0.083574 -0.124379
v -5.309592 0.057712 -0.138202
v -5.309592 0.029650 -0.146715
v -5.409525 0.150056 0.000000
v -5.409525 0.147182 -0.029183
v -5.409525 0.138669 -0.057245
v -5.409525 0.124846 -0.083107
v -5.409525 0.106242 -0.105775
v -5.409525 0.083574 -0.124379
v -5.409525 0.057712 -0.138202
v -5.409525 0.029650 -0.146715
v -6.208993 0.150056 0.000000
v -6.208993 0.147182 -0.029183
v -6.208993 0.138669 -0.057245
v -6.208993 0.124846 -0.083107
v -6.208993 0.106242 -0.105775
v -6.208993 0.083574 -0.124379
v -6.208993 0.057712 -0.138202
v -6.208993 0.029650 -0.146715
v -6.258958 0.138247 0.000000
v -6.258958 0.135600 -0.026879
v -6.258958 0.127759 -0.052726
v -6.258958 0.115027 -0.076546
v -6.258958 0.097892 -0.097425
v -6.258958 0.077013 -0.114560
v -6.258958 0.053193 -0.127292
v -6.258958 0.027346 -0.135133
v -6.308924 0.104502 0.000000
v -6.308924 0.102503 -0.020296
v -6.308924 0.096583 -0.039812
v -6.308924 0.086969 -0.057799
v -6.308924 0.074031 -0.073564
v -6.308924 0.058265 -0.086502
v -6.308924 0.040279 -0.096116
v -6.308924 0.020763 -0.102036
v -6.347349 0.040235 0.000000
v -6.347349 0.039470 -0.007758
v -6.347349 0.037207 -0.015218
v -6.347349 0.033533 -0.022094
v -6.347349 0.028587 -0.028120
v -6.347349 0.022561 -0.033066
v -6.347349 0.015685 -0.036740
v -6.347349 0.008225 -0.039004
v -6.358892 0.014471 0.000000
v -6.358892 0.014202 -0.002732
v -6.358892 0.013405 -0.005359
v -6.358892 0.012111 -0.007780
v -6.358892 0.010369 -0.009902
v -6.358892 0.008247 -0.011644
v -6.358892 0.005826 -0.012938
v -6.358892 0.003199 -0.013735
v -6.009126 0.147182 -0.029183
v -5.809258 0.147182 -0.029183
v -5.609392 0.147182 -0.029183
v -6.009126 0.138669 -0.057245
v -5.809258 0.138669 -0.057245
v -5.609392 0.138669 -0.057245
v -6.009126 0.124846 -0.083107
v -5.809258 0.124846 -0.083107
v -5.609392 0.124846 -0.083107
v -6.009126 0.106242 -0.105775
v -5.809258 0.106242 -0.105775
v -5.609392 0.106242 -0.105775
v -6.009126 0.083574 -0.124379
v -5.809258 0.083574 -0.124379
v -5.609392 0.083574 -0.124379
v -6.009126 0.057712 -0.138202
v -5.809258 0.057712 -0.138202
v -5.609392 0.057712 -0.138202
v -6.009126 0.029650 -0.146715
v -5.809258 0.029650 -0.146715
v -5.609392 0.029650 -0.146715
v -1.112392 -0.200946 -0.000000
v -1.112396 -0.197076 -0.039294
v -1.112392 -0.185615 -0.077078
v -1.112392 -0.167002 -0.111899
v -1.112392 -0.141954 -0.142421
v -1.112392 -0.111432 -0.167469
v -1.112392 -0.076611 -0.186082
v -1.112392 -0.038827 -0.197543
v -1.112392 0.000467 -0.201413
v -1.112392 0.201880 -0.000000
v -1.112396 0.198010 -0.039294
v -1.112392 0.186549 -0.077078
v -1.112392 0.167936 -0.111899
v -1.112392 0.142888 -0.142421
v -1.112392 0.112366 -0.167469
v -1.112392 0.077545 -0.186082
v -1.112392 0.039761 -0.197543
v -6.011003 0.150056 0.000000
v -5.811766 0.150056 0.000000
v -5.612528 0.150056 0.000000
v -0.999995 -0.200946 -0.000000
v -0.999999 -0.197076 -0.039294
v -0.999995 -0.185615 -0.077078
v -0.999995 -0.167002 -0.111899
v -0.999995 -0.141954 -0.142421
v -0.999995 -0.111432 -0.167469
v -0.999995 -0.076611 -0.186082
v -0.999995 -0.038827 -0.197543
v -0.999995 0.000467 -0.201413
v -0.999995 0.201880 -0.000000
v -0.999999 0.198010 -0.039294
v -0.999995 0.186549 -0.077078
v -0.999995 0.167936 -0.111899
v -0.999995 0.142888 -0.142421
v -0.999995 0.112366 -0.167469
v -0.999995 0.077545 -0.186082
v -0.999995 0.039761 -0.197543
v -0.999995 0.000467 -0.000000
v -5.409525 -0.464350 0.000000
v -6.208993 -0.464350 0.000000
v -5.409525 -0.599953 0.000000
v -6.190501 -0.665099 0.000000
v -6.009126 -0.464350 0.000000
v -6.027618 -0.665099 0.000000
v -5.609392 -0.599953 0.000000
v -5.762450 -0.623742 0.000000
v -5.809258 -0.430809 0.000000
v -5.441341 -0.694176 0.000000
v -5.577576 -0.694176 0.000000
v -1.212325 -0.146553 0.029244
v -5.209658 -0.146553 0.029244
v -1.212325 -0.138023 0.057364
v -5.209658 -0.138023 0.057364
v -1.212325 -0.124170 0.083280
v -5.209658 -0.124170 0.083280
v -1.212325 -0.105528 0.105995
v -5.209658 -0.105528 0.105995
v -1.212325 -0.082813 0.124637
v -5.209658 -0.082813 0.124637
v -1.212325 -0.056897 0.138489
v -5.209658 -0.056897 0.138490
v -1.212325 -0.028777 0.147020
v -5.209658 -0.028777 0.147020
v -1.212325 0.000467 0.149900
v -5.209658 0.000467 0.149900
v -5.209658 -0.189816 0.037850
v -5.209658 -0.178776 0.074245
v -5.209658 -0.160847 0.107787
v -5.209658 -0.136720 0.137187
v -5.209658 -0.107320 0.161314
v -5.209658 -0.073778 0.179243
v -5.209658 -0.037383 0.190283
v -5.209658 0.000467 0.194011
v -5.309591 -0.189816 0.037850
v -5.309591 -0.178776 0.074245
v -5.309591 -0.160847 0.107787
v -5.309591 -0.136720 0.137187
v -5.309591 -0.107320 0.161314
v -5.309591 -0.073778 0.179243
v -5.309591 -0.037383 0.190283
v -5.309591 0.000467 0.194011
v -5.309592 -0.146248 0.029184
v -5.309592 -0.137736 0.057246
v -5.309592 -0.123912 0.083108
v -5.309592 -0.105309 0.105776
v -5.309592 -0.082641 0.124379
v -5.309592 -0.056779 0.138203
v -5.309592 -0.028717 0.146715
v -5.309592 0.000467 0.149589
v -5.409525 -0.146248 0.029184
v -5.409525 -0.137736 0.057246
v -5.409525 -0.123912 0.083108
v -5.409525 -0.105309 0.105776
v -5.409525 -0.082641 0.124379
v -5.409525 -0.056779 0.138203
v -5.409525 -0.028717 0.146715
v -5.409525 0.000467 0.149589
v -6.208993 -0.146248 0.029184
v -6.208993 -0.137736 0.057246
v -6.208993 -0.123912 0.083108
v -6.208993 -0.105309 0.105776
v -6.208993 -0.082641 0.124379
v -6.208993 -0.056779 0.138203
v -6.208993 -0.028717 0.146715
v -6.208993 0.000467 0.149590
v -6.258958 -0.134666 0.026880
v -6.258958 -0.126826 0.052727
v -6.258958 -0.114093 0.076547
v -6.258958 -0.096959 0.097426
v -6.258958 -0.076080 0.114561
v -6.258958 -0.052260 0.127293
v -6.258958 -0.026413 0.135133
v -6.258958 0.000467 0.137781
v -6.308924 -0.101569 0.020297
v -6.308924 -0.095649 0.039813
v -6.308924 -0.086035 0.057799
v -6.308924 -0.073097 0.073564
v -6.308924 -0.057332 0.086502
v -6.308924 -0.039346 0.096116
v -6.308924 -0.019829 0.102036
v -6.308924 0.000467 0.104035
v -6.347349 -0.038537 0.007759
v -6.347349 -0.036274 0.015219
v -6.347349 -0.032599 0.022094
v -6.347349 -0.027653 0.028120
v -6.347349 -0.021627 0.033066
v -6.347349 -0.014752 0.036741
v -6.347349 -0.007292 0.039004
v -6.347349 0.000467 0.039768
v -6.358892 -0.013268 0.002732
v -6.358892 -0.012471 0.005359
v -6.358892 -0.011177 0.007781
v -6.358892 -0.009436 0.009903
v -6.358892 -0.007313 0.011644
v -6.358892 -0.004892 0.012938
v -6.358892 -0.002265 0.013735
v -6.358892 0.000467 0.014004
v -5.409525 -0.464350 0.029184
v -6.208993 -0.464350 0.029184
v -5.409525 -0.599953 0.029184
v -6.190501 -0.665099 0.029184
v -6.009126 -0.146248 0.029184
v -5.809258 -0.146248 0.029184
v -5.609392 -0.146248 0.029184
v -6.009126 -0.137736 0.057246
v -5.809258 -0.137736 0.057246
v -5.609392 -0.137736 0.057246
v -6.009126 -0.123912 0.083108
v -5.809258 -0.123912 0.083108
v -5.609392 -0.123912 0.083108
v -6.009126 -0.105309 0.105776
v -5.809258 -0.105309 0.105776
v -5.609392 -0.105309 0.105776
v -6.009126 -0.082641 0.124379
v -5.809258 -0.082641 0.124379
v -5.609392 -0.082641 0.124379
v -6.009126 -0.056779 0.138203
v -5.809258 -0.056779 0.138203
v -5.609392 -0.056779 0.138203
v -6.009126 -0.028717 0.146715
v -5.809258 -0.028717 0.146715
v -5.609392 -0.028717 0.146715
v -6.009126 0.000467 0.149590
v -5.809258 0.000467 0.149590
v -5.609392 0.000467 0.149589
v -6.009126 -0.464350 0.029184
v -5.809258 -0.430809 0.029184
v -5.609392 -0.464350 0.029184
v -6.027618 -0.665099 0.029184
v -5.762450 -0.623742 0.029184
v -5.609392 -0.599953 0.029184
v -5.441341 -0.694176 0.029184
v -5.577576 -0.694176 0.029184
v -1.212325 0.147487 0.029244
v -5.209658 0.147487 0.029244
v -1.212325 0.138957 0.057364
v -5.209658 0.138956 0.057364
v -1.212325 0.125104 0.083280
v -5.209658 0.125104 0.083280
v -1.212325 0.106462 0.105995
v -5.209658 0.106462 0.105995
v -1.212325 0.083747 0.124637
v -5.209658 0.083747 0.124637
v -1.212325 0.057831 0.138489
v -5.209658 0.057831 0.138490
v -1.212325 0.029711 0.147020
v -5.209658 0.029711 0.147020
v -5.209658 0.190750 0.037850
v -5.209658 0.179710 0.074245
v -5.209658 0.161781 0.107787
v -5.209658 0.137653 0.137187
v -5.209658 0.108254 0.161314
v -5.209658 0.074712 0.179243
v -5.209658 0.038316 0.190283
v -5.309591 0.190750 0.037850
v -5.309591 0.179710 0.074245
v -5.309591 0.161781 0.107787
v -5.309591 0.137653 0.137187
v -5.309591 0.108254 0.161314
v -5.309591 0.074712 0.179243
v -5.309591 0.038316 0.190283
v -5.309592 0.147182 0.029184
v -5.309592 0.138669 0.057246
v -5.309592 0.124846 0.083108
v -5.309592 0.106242 0.105776
v -5.309592 0.083574 0.124379
v -5.309592 0.057712 0.138203
v -5.309592 0.029650 0.146715
v -5.409525 0.147182 0.029184
v -5.409525 0.138669 0.057246
v -5.409525 0.124846 0.083108
v -5.409525 0.106242 0.105776
v -5.409525 0.083574 0.124379
v -5.409525 0.057712 0.138203
v -5.409525 0.029650 0.146715
v -6.208993 0.147182 0.029184
v -6.208993 0.138669 0.057246
v -6.208993 0.124846 0.083108
v -6.208993 0.106242 0.105776
v -6.208993 0.083574 0.124379
v -6.208993 0.057712 0.138203
v -6.208993 0.029650 0.146715
v -6.258958 0.135600 0.026880
v -6.258958 0.127759 0.052727
v -6.258958 0.115027 0.076547
v -6.258958 0.097892 0.097426
v -6.258958 0.077013 0.114561
v -6.258958 0.053193 0.127293
v -6.258958 0.027346 0.135133
v -6.308924 0.102503 0.020297
v -6.308924 0.096583 0.039813
v -6.308924 0.086969 0.057799
v -6.308924 0.074031 0.073564
v -6.308924 0.058265 0.086502
v -6.308924 0.040279 0.096116
v -6.308924 0.020763 0.102036
v -6.347349 0.039470 0.007759
v -6.347349 0.037207 0.015219
v -6.347349 0.033533 0.022094
v -6.347349 0.028587 0.028120
v -6.347349 0.022561 0.033066
v -6.347349 0.015685 0.036741
v -6.347349 0.008225 0.039004
v -6.358892 0.014202 0.002732
v -6.358892 0.013405 0.005359
v -6.358892 0.012111 0.007781
v -6.358892 0.010369 0.009903
v -6.358892 0.008247 0.011644
v -6.358892 0.005826 0.012938
v -6.358892 0.003199 0.013735
v -6.009126 0.147182 0.029184
v -5.809258 0.147182 0.029184
v -5.609392 0.147182 0.029184
v -6.009126 0.138669 0.057246
v -5.809258 0.138669 0.057246
v -5.609392 0.138669 0.057246
v -6.009126 0.124846 0.083108
v -5.809258 0.124846 0.083108
v -5.609392 0.124846 0.083108
v -6.009126 0.106242 0.105776
v -5.809258 0.106242 0.105776
v -5.609392 0.106242 0.105776
v -6.009126 0.083574 0.124379
v -5.809258 0.083574 0.124379
v -5.609392 0.083574 0.124379
v -6.009126 0.057712 0.138203
v -5.809258 0.057712 0.138203
v -5.609392 0.057712 0.138203
v -6.009126 0.029650 0.146715
v -5.809258 0.029650 0.146715
v -5.609392 0.029650 0.146715
v -1.112396 -0.197076 0.039294
v -1.112392 -0.185615 0.077077
v -1.112392 -0.167002 0.111899
v -1.112392 -0.141954 0.142421
v -1.112392 -0.111432 0.167469
v -1.112392 -0.076611 0.186081
v -1.112392 -0.038827 0.197543
v -1.112392 0.000467 0.201413
v -1.112396 0.198010 0.039294
v -1.112392 0.186549 0.077077
v -1.112392 0.167936 0.111899
v -1.112392 0.142888 0.142421
v -1.112392 0.112366 0.167469
v -1.112392 0.077545 0.186081
v -1.112392 0.039761 0.197543
v -0.999999 -0.197076 0.039294
v -0.999995 -0.185615 0.077077
v -0.999995 -0.167002 0.111899
v -0.999995 -0.141954 0.142420
v -0.999995 -0.111432 0.167469
v -0.999995 -0.076611 0.186081
v -0.999995 -0.038827 0.197543
v -0.999995 0.000467 0.201413
v -0.999999 0.198010 0.039294
v -0.999995 0.186549 0.077077
v -0.999995 0.167936 0.111899
v -0.999995 0.142888 0.142420
v -0.999995 0.112366 0.167469
v -0.999995 0.077545 0.186081
v -0.999995 0.039761 0.197543
vn 0.7676 -0.0000 0.6409
vn 0.7237 0.0998 0.6829
vn 0.3798 0.0231 0.9248
vn 0.3614 -0.0000 0.9324
vn -0.7609 0.0808 0.6438
vn -0.7567 -0.0000 0.6538
vn -0.3670 -0.0000 0.9302
vn -0.4057 0.0700 0.9113
vn 1.0000 -0.0000 -0.0000
vn -0.3727 0.1280 0.9191
vn 0.1083 -0.0190 0.9939
vn 0.1031 -0.0383 0.9939
vn 0.3412 0.5615 0.7539
vn 0.2404 0.6209 0.7461
vn 0.1125 0.2957 0.9486
vn 0.1609 0.2847 0.9450
vn -0.0371 -0.1052 0.9938
vn -0.0502 -0.0954 0.9942
vn -0.3808 -0.9247 -0.0000
vn -0.1353 -0.0000 0.9908
vn -0.0332 0.3536 0.9348
vn -0.0650 0.3677 0.9277
vn 0.0218 -0.1364 0.9904
vn 0.0118 -0.1358 0.9907
vn -0.1284 -0.0082 0.9917
vn -0.7060 0.2727 0.6536
vn -0.0398 0.7198 0.6931
vn -0.1712 0.7316 0.6599
vn -1.0000 -0.0000 -0.0000
vn -0.1287 0.9917 -0.0000
vn -0.0000 -0.0000 1.0000
vn 0.1141 -0.9935 -0.0000
vn 0.1066 -0.0000 0.9943
vn 0.9580 -0.2869 -0.0000
vn -0.0144 0.9999 0.0001
vn 0.1501 0.9887 0.0001
vn 0.3122 0.9500 -0.0000
vn 0.6073 0.7944 0.0002
vn 0.8452 0.5344 0.0003
vn 0.9775 0.2110 0.0002
vn 0.2486 0.2306 0.9408
vn 0.4759 0.4437 0.7594
vn 0.3391 0.1228 0.9327
vn 0.6181 0.2755 0.7363
vn -0.1025 -0.0383 0.9940
vn -0.0730 -0.0712 0.9948
vn -0.0048 -0.1214 0.9926
vn 0.0140 0.3341 0.9425
vn -0.0225 -0.1120 0.9934
vn 0.0683 0.3163 0.9462
vn 0.1568 0.6501 0.7435
vn 0.0562 0.6825 0.7287
vn -0.2806 -0.9598 -0.0001
vn -0.1354 -0.9908 -0.0003
vn 0.0113 -0.9999 -0.0003
vn -0.5760 -0.8174 -0.0007
vn -0.8329 -0.5535 -0.0013
vn -0.9761 -0.2173 -0.0009
vn 0.4219 0.9066 -0.0000
vn -0.3196 0.2054 0.9250
vn -0.5964 0.4056 0.6927
vn -0.2358 0.2822 0.9299
vn -0.4649 0.5388 0.7026
vn -0.1468 0.3519 0.9245
vn -0.3192 0.6534 0.6864
vn 0.0437 -0.1138 0.9925
vn 0.0661 -0.0840 0.9943
vn 0.0855 -0.0587 0.9946
vn -0.2909 0.9568 0.0003
vn -0.5484 0.8362 0.0006
vn -0.7486 0.6630 0.0004
vn -0.9080 0.4189 0.0001
vn 0.2742 -0.9617 -0.0013
vn 0.5290 -0.8486 -0.0021
vn 0.7299 -0.6836 -0.0015
vn 0.8945 -0.4471 -0.0005
vn -0.9666 0.2562 -0.0000
vn 0.7676 -0.0000 -0.6409
vn 0.3614 -0.0000 -0.9324
vn 0.3798 0.0231 -0.9248
vn 0.7237 0.0998 -0.6829
vn -0.7609 0.0808 -0.6438
vn -0.4057 0.0700 -0.9113
vn -0.3670 -0.0000 -0.9302
vn -0.7567 -0.0000 -0.6538
vn -0.3727 0.1280 -0.9191
vn 0.1031 -0.0383 -0.9939
vn 0.1083 -0.0190 -0.9939
vn 0.3412 0.5615 -0.7539
vn 0.1609 0.2847 -0.9450
vn 0.1125 0.2957 -0.9486
vn 0.2404 0.6209 -0.7461
vn -0.0502 -0.0954 -0.9942
vn -0.0371 -0.1052 -0.9938
vn -0.1353 -0.0000 -0.9908
vn -0.0332 0.3536 -0.9348
vn 0.0118 -0.1358 -0.9907
vn 0.0218 -0.1364 -0.9904
vn -0.0650 0.3677 -0.9277
vn -0.1284 -0.0082 -0.9917
vn -0.7060 0.2726 -0.6536
vn -0.0398 0.7198 -0.6931
vn -0.1712 0.7316 -0.6599
vn -0.0000 -0.0000 -1.0000
vn 0.1066 -0.0000 -0.9943
vn -0.0144 0.9999 -0.0001
vn 0.1501 0.9887 -0.0001
vn 0.6073 0.7944 -0.0002
vn 0.8452 0.5344 -0.0003
vn 0.9775 0.2110 -0.0002
vn 0.4759 0.4437 -0.7594
vn 0.2486 0.2306 -0.9408
vn 0.6181 0.2755 -0.7363
vn 0.3391 0.1228 -0.9327
vn -0.1025 -0.0383 -0.9940
vn -0.0730 -0.0712 -0.9948
vn 0.0140 0.3341 -0.9425
vn -0.0048 -0.1214 -0.9926
vn 0.0683 0.3163 -0.9462
vn -0.0225 -0.1120 -0.9934
vn 0.1568 0.6501 -0.7435
vn 0.0562 0.6825 -0.7287
vn -0.2806 -0.9598 0.0001
vn -0.1354 -0.9908 0.0003
vn 0.0113 -0.9999 0.0003
vn -0.5760 -0.8174 0.0007
vn -0.8329 -0.5535 0.0013
vn -0.9761 -0.2173 0.0009
vn -0.5964 0.4056 -0.6927
vn -0.3196 0.2054 -0.9250
vn -0.4649 0.5388 -0.7026
vn -0.2358 0.2822 -0.9299
vn -0.3192 0.6534 -0.6864
vn -0.1468 0.3519 -0.9245
vn 0.0437 -0.1138 -0.9925
vn 0.0661 -0.0840 -0.9943
vn 0.0855 -0.0587 -0.9946
vn -0.2909 0.9568 -0.0003
vn -0.5484 0.8362 -0.0006
vn -0.7486 0.6630 -0.0004
vn -0.9080 0.4189 -0.0001
vn 0.2742 -0.9617 0.0013
vn 0.5290 -0.8486 0.0021
vn 0.7299 -0.6836 0.0015
vn 0.8945 -0.4471 0.0005
vn 0.3798 -0.0231 0.9248
vn 0.7237 -0.0998 0.6829
vn -0.7609 -0.0808 0.6438
vn -0.4057 -0.0700 0.9113
vn -0.3727 -0.1280 0.9191
vn 0.1031 0.0383 0.9939
vn 0.1083 0.0190 0.9939
vn 0.3412 -0.5615 0.7539
vn 0.1609 -0.2847 0.9450
vn 0.1125 -0.2957 0.9486
vn 0.2404 -0.6209 0.7461
vn -0.0502 0.0954 0.9942
vn -0.0371 0.1052 0.9938
vn -0.3808 0.9247 -0.0000
vn -0.0332 -0.3536 0.9348
vn 0.0118 0.1358 0.9907
vn 0.0218 0.1364 0.9904
vn -0.0650 -0.3677 0.9277
vn -0.1284 0.0082 0.9917
vn -0.7060 -0.2726 0.6536
vn -0.0398 -0.7198 0.6931
vn -0.1712 -0.7316 0.6599
vn -0.1287 -0.9917 -0.0000
vn 0.1141 0.9935 -0.0000
vn 0.9580 0.2869 -0.0000
vn -0.0144 -0.9999 0.0001
vn 0.1501 -0.9887 0.0001
vn 0.3122 -0.9500 -0.0000
vn 0.6073 -0.7944 0.0002
vn 0.8452 -0.5344 0.0003
vn 0.9775 -0.2110 0.0002
vn 0.4759 -0.4437 0.7594
vn 0.2486 -0.2306 0.9408
vn 0.6181 -0.2755 0.7363
vn 0.3391 -0.1228 0.9327
vn -0.1025 0.0383 0.9940
vn -0.0730 0.0712 0.9948
vn 0.0140 -0.3341 0.9425
vn -0.0048 0.1214 0.9926
vn 0.0683 -0.3163 0.9462
vn -0.0225 0.1120 0.9934
vn 0.1568 -0.6501 0.7435
vn 0.0562 -0.6825 0.7287
vn -0.2806 0.9598 -0.0001
vn -0.1354 0.9908 -0.0003
vn 0.0113 0.9999 -0.0003
vn -0.5760 0.8174 -0.0007
vn -0.8329 0.5535 -0.0013
vn -0.9761 0.2173 -0.0009
vn 0.4219 -0.9066 -0.0000
vn -0.5964 -0.4056 0.6927
vn -0.3196 -0.2054 0.9250
vn -0.4649 -0.5388 0.7026
vn -0.2358 -0.2822 0.9299
vn -0.3192 -0.6534 0.6864
vn -0.1468 -0.3519 0.9245
vn 0.0437 0.1138 0.9925
vn 0.0661 0.0840 0.9943
vn 0.0855 0.0587 0.9946
vn -0.2909 -0.9568 0.0003
vn -0.5484 -0.8362 0.0006
vn -0.7486 -0.6630 0.0004
vn -0.9080 -0.4189 0.0001
vn 0.2742 0.9617 -0.0013
vn 0.5290 0.8486 -0.0021
vn 0.7299 0.6836 -0.0015
vn 0.8945 0.4471 -0.0005
vn -0.9666 -0.2562 -0.0000
vn 0.7237 -0.0998 -0.6829
vn 0.3798 -0.0231 -0.9248
vn -0.7609 -0.0808 -0.6438
vn -0.4057 -0.0700 -0.9113
vn -0.3727 -0.1280 -0.9191
vn 0.1083 0.0190 -0.9939
vn 0.1031 0.0383 -0.9939
vn 0.3412 -0.5615 -0.7539
vn 0.2404 -0.6209 -0.7461
vn 0.1125 -0.2957 -0.9486
vn 0.1609 -0.2847 -0.9450
vn -0.0371 0.1052 -0.9938
vn -0.0502 0.0954 -0.9942
vn -0.0332 -0.3536 -0.9348
vn -0.0650 -0.3677 -0.9277
vn 0.0218 0.1364 -0.9904
vn 0.0118 0.1358 -0.9907
vn -0.1284 0.0082 -0.9917
vn -0.7060 -0.2727 -0.6536
vn -0.0398 -0.7198 -0.6931
vn -0.1712 -0.7316 -0.6599
vn -0.0144 -0.9999 -0.0001
vn 0.1501 -0.9887 -0.0001
vn 0.6073 -0.7944 -0.0002
vn 0.8452 -0.5344 -0.0003
vn 0.9775 -0.2110 -0.0002
vn 0.2486 -0.2306 -0.9408
vn 0.4759 -0.4437 -0.7594
vn 0.3391 -0.1228 -0.9327
vn 0.6181 -0.2755 -0.7363
vn -0.1025 0.0383 -0.9940
vn -0.0730 0.0712 -0.9948
vn -0.0048 0.1214 -0.9926
vn 0.0140 -0.3341 -0.9425
vn -0.0225 0.1120 -0.9934
vn 0.0683 -0.3163 -0.9462
vn 0.1568 -0.6501 -0.7435
vn 0.0562 -0.6825 -0.7287
vn -0.2806 0.9598 0.0001
vn -0.1354 0.9908 0.0003
vn 0.0113 0.9999 0.0003
vn -0.5760 0.8174 0.0007
vn -0.8329 0.5535 0.0013
vn -0.9761 0.2173 0.0009
vn -0.3196 -0.2054 -0.9250
vn -0.5964 -0.4056 -0.6927
vn -0.2358 -0.2822 -0.9299
vn -0.4649 -0.5388 -0.7026
vn -0.1468 -0.3519 -0.9245
vn -0.3192 -0.6534 -0.6864
vn 0.0437 0.1138 -0.9925
vn 0.0661 0.0840 -0.9943
vn 0.0855 0.0587 -0.9946
vn -0.2909 -0.9568 -0.0003
vn -0.5484 -0.8362 -0.0006
vn -0.7486 -0.6630 -0.0004
vn -0.9080 -0.4189 -0.0001
vn 0.2742 0.9617 0.0013
vn 0.5290 0.8486 0.0021
vn 0.7299 0.6836 0.0015
vn 0.8945 0.4471 0.0005
vn -0.0000 -0.9952 -0.0980
vn -0.0000 -0.9569 -0.2903
vn -0.0000 -0.8819 -0.4714
vn -0.0000 -0.7730 -0.6344
vn -0.0000 -0.6344 -0.7730
vn -0.0000 -0.4714 -0.8819
vn -0.0000 -0.2903 -0.9569
vn -0.0000 -0.0980 -0.9952
vn -0.2290 -0.8585 -0.4589
vn -0.2290 -0.7525 -0.6175
vn -0.2290 -0.6175 -0.7525
vn -0.2290 -0.4589 -0.8585
vn -0.2290 -0.2826 -0.9315
vn -0.2290 -0.0954 -0.9688
vn -0.2290 -0.9687 -0.0954
vn -0.2290 -0.9315 -0.2826
vn -0.5578 -0.3912 -0.7320
vn -0.5578 -0.2409 -0.7942
vn -0.5578 -0.0814 -0.8260
vn -0.5578 -0.8260 -0.0813
vn -0.5578 -0.7942 -0.2409
vn -0.5578 -0.7320 -0.3912
vn -0.5578 -0.6416 -0.5265
vn -0.5578 -0.5265 -0.6416
vn -0.8572 -0.5125 -0.0505
vn -0.8572 -0.4928 -0.1495
vn -0.8572 -0.4542 -0.2428
vn -0.8572 -0.3981 -0.3267
vn -0.8572 -0.3267 -0.3981
vn -0.8572 -0.2428 -0.4542
vn -0.8572 -0.1495 -0.4928
vn -0.8572 -0.0505 -0.5125
vn -0.9119 -0.4085 -0.0402
vn -0.9119 -0.3928 -0.1191
vn -0.9119 -0.3620 -0.1935
vn -0.9119 -0.3173 -0.2604
vn -0.9119 -0.2604 -0.3173
vn -0.9119 -0.1935 -0.3620
vn -0.9119 -0.1192 -0.3928
vn -0.9119 -0.0402 -0.4085
vn -0.9774 -0.2074 -0.0413
vn -0.9774 -0.1758 -0.1175
vn -0.9774 -0.1175 -0.1758
vn -0.9774 -0.0412 -0.2074
vn -0.9958 -0.0917 -0.0000
vn 0.1536 -0.9881 -0.0000
vn -0.9718 -0.2358 -0.0000
vn 0.1655 -0.9862 -0.0000
vn -0.9474 -0.3199 -0.0000
vn -0.0000 0.9952 -0.0980
vn -0.0000 0.9569 -0.2903
vn -0.0000 0.8819 -0.4714
vn -0.0000 0.7730 -0.6344
vn -0.0000 0.6344 -0.7730
vn -0.0000 0.4714 -0.8819
vn -0.0000 0.2903 -0.9569
vn -0.0000 0.0980 -0.9952
vn -0.2290 0.8585 -0.4589
vn -0.2290 0.7525 -0.6175
vn -0.2290 0.6175 -0.7525
vn -0.2290 0.4589 -0.8585
vn -0.2290 0.2826 -0.9315
vn -0.2290 0.0954 -0.9687
vn -0.2290 0.9687 -0.0954
vn -0.2290 0.9315 -0.2826
vn -0.5578 0.3912 -0.7320
vn -0.5578 0.2409 -0.7942
vn -0.5578 0.0813 -0.8260
vn -0.5578 0.8260 -0.0813
vn -0.5578 0.7942 -0.2409
vn -0.5578 0.7320 -0.3912
vn -0.5578 0.6416 -0.5265
vn -0.5578 0.5265 -0.6416
vn -0.8572 0.5125 -0.0505
vn -0.8572 0.4928 -0.1495
vn -0.8572 0.4542 -0.2427
vn -0.8572 0.3981 -0.3267
vn -0.8572 0.3267 -0.3981
vn -0.8572 0.2428 -0.4542
vn -0.8572 0.1495 -0.4928
vn -0.8572 0.0505 -0.5125
vn -0.9119 0.4085 -0.0401
vn -0.9119 0.3928 -0.1191
vn -0.9119 0.3620 -0.1935
vn -0.9119 0.3173 -0.2604
vn -0.9118 0.2604 -0.3174
vn -0.9119 0.1935 -0.3620
vn -0.9118 0.1192 -0.3929
vn -0.9119 0.0402 -0.4085
vn -0.9774 0.2074 -0.0413
vn -0.9774 0.1758 -0.1174
vn -0.9774 0.1175 -0.1759
vn -0.9774 0.0412 -0.2074
vn -0.4564 0.6878 -0.5645
vn -0.4564 -0.0872 -0.8855
vn -0.4564 -0.6878 -0.5645
vn -0.4564 0.5645 -0.6878
vn -0.4564 0.8855 -0.0872
vn -0.4564 -0.5645 -0.6878
vn -0.4564 0.4194 -0.7847
vn -0.4564 -0.8855 -0.0872
vn -0.4564 0.8514 -0.2583
vn -0.4564 -0.4194 -0.7847
vn -0.4564 0.2583 -0.8514
vn -0.4564 -0.8514 -0.2583
vn -0.4564 0.7847 -0.4194
vn -0.4564 -0.2583 -0.8514
vn -0.4564 0.0872 -0.8855
vn -0.4564 -0.7847 -0.4194
vn -0.0000 -1.0000 -0.0000
vn 0.9958 -0.0917 -0.0000
vn 0.9474 -0.3199 -0.0000
vn -0.0000 -0.9952 0.0980
vn -0.0000 -0.9569 0.2903
vn -0.0000 -0.8819 0.4714
vn -0.0000 -0.7730 0.6344
vn -0.0000 -0.6344 0.7730
vn -0.0000 -0.4714 0.8819
vn -0.0000 -0.2903 0.9569
vn -0.0000 -0.0980 0.9952
vn -0.2290 -0.8585 0.4589
vn -0.2290 -0.7525 0.6175
vn -0.2290 -0.6175 0.7525
vn -0.2290 -0.4589 0.8585
vn -0.2290 -0.2826 0.9315
vn -0.2290 -0.0954 0.9688
vn -0.2290 -0.9687 0.0954
vn -0.2290 -0.9315 0.2826
vn -0.5578 -0.3912 0.7320
vn -0.5578 -0.2409 0.7942
vn -0.5578 -0.0814 0.8260
vn -0.5578 -0.8260 0.0813
vn -0.5578 -0.7942 0.2409
vn -0.5578 -0.7320 0.3912
vn -0.5578 -0.6416 0.5265
vn -0.5578 -0.5265 0.6416
vn -0.8572 -0.5125 0.0505
vn -0.8572 -0.4928 0.1495
vn -0.8572 -0.4542 0.2428
vn -0.8572 -0.3981 0.3267
vn -0.8572 -0.3267 0.3981
vn -0.8572 -0.2428 0.4542
vn -0.8572 -0.1495 0.4928
vn -0.8572 -0.0505 0.5125
vn -0.9119 -0.4085 0.0402
vn -0.9119 -0.3928 0.1191
vn -0.9118 -0.3620 0.1936
vn -0.9119 -0.3173 0.2604
vn -0.9119 -0.2604 0.3173
vn -0.9119 -0.1935 0.3620
vn -0.9119 -0.1192 0.3928
vn -0.9119 -0.0402 0.4085
vn -0.9774 -0.2074 0.0413
vn -0.9774 -0.1758 0.1174
vn -0.9774 -0.1175 0.1759
vn -0.9774 -0.0412 0.2074
vn -0.0000 0.9952 0.0980
vn -0.0000 0.9569 0.2903
vn -0.0000 0.8819 0.4714
vn -0.0000 0.7730 0.6344
vn -0.0000 0.6344 0.7730
vn -0.0000 0.4714 0.8819
vn -0.0000 0.2903 0.9569
vn -0.0000 0.0980 0.9952
vn -0.2290 0.8585 0.4589
vn -0.2290 0.7525 0.6175
vn -0.2290 0.6175 0.7525
vn -0.2290 0.4589 0.8585
vn -0.2290 0.2826 0.9315
vn -0.2290 0.0954 0.9687
vn -0.2290 0.9687 0.0954
vn -0.2290 0.9315 0.2826
vn -0.5578 0.3912 0.7320
vn -0.5578 0.2409 0.7942
vn -0.5578 0.0813 0.8260
vn -0.5578 0.8260 0.0813
vn -0.5578 0.7942 0.2409
vn -0.5578 0.7320 0.3912
vn -0.5578 0.6416 0.5265
vn -0.5578 0.5265 0.6416
vn -0.8572 0.5125 0.0505
vn -0.8572 0.4928 0.1495
vn -0.8572 0.4542 0.2428
vn -0.8572 0.3981 0.3267
vn -0.8572 0.3267 0.3981
vn -0.8572 0.2428 0.4542
vn -0.8572 0.1495 0.4928
vn -0.8572 0.0505 0.5125
vn -0.9119 0.4085 0.0401
vn -0.9119 0.3928 0.1192
vn -0.9119 0.3620 0.1935
vn -0.9119 0.3173 0.2604
vn -0.9118 0.2604 0.3174
vn -0.9119 0.1935 0.3620
vn -0.9118 0.1192 0.3929
vn -0.9119 0.0402 0.4085
vn -0.9774 0.2074 0.0412
vn -0.9774 0.1758 0.1174
vn -0.9774 0.1175 0.1759
vn -0.9774 0.0412 0.2074
vn -0.4564 0.6878 0.5645
vn -0.4564 -0.0872 0.8855
vn -0.4564 -0.6878 0.5645
vn -0.4564 0.5645 0.6878
vn -0.4564 0.8855 0.0872
vn -0.4564 -0.5645 0.6878
vn -0.4564 0.4194 0.7847
vn -0.4564 -0.8855 0.0872
vn -0.4564 0.8514 0.2583
vn -0.4564 -0.4194 0.7847
vn -0.4564 0.2583 0.8514
vn -0.4564 -0.8514 0.2583
vn -0.4564 0.7847 0.4194
vn -0.4564 -0.2583 0.8514
vn -0.4564 0.0872 0.8855
vn -0.4564 -0.7847 0.4194
vt 0.387767 0.530894
vt 0.391800 0.463416
vt 0.403830 0.472424
vt 0.401601 0.527797
vt 0.693121 0.525822
vt 0.696010 0.556687
vt 0.681961 0.557406
vt 0.679363 0.524304
vt 0.373270 0.530708
vt 0.377685 0.459219
vt 0.664089 0.484295
vt 0.669670 0.523376
vt 0.656813 0.490569
vt 0.409558 0.435804
vt 0.418615 0.430188
vt 0.426516 0.442703
vt 0.420459 0.445806
vt 0.431601 0.450300
vt 0.428268 0.451906
vt 0.388473 0.564456
vt 0.402086 0.564141
vt 0.374458 0.564772
vt 0.433123 0.453806
vt 0.430082 0.455178
vt 0.409402 0.526256
vt 0.410025 0.563941
vt 0.463684 0.435574
vt 0.624552 0.453472
vt 0.615799 0.459464
vt 0.468840 0.443822
vt 0.411153 0.478908
vt 0.674479 0.474560
vt 0.457132 0.420615
vt 0.634055 0.441555
vt 0.707174 0.522622
vt 0.711001 0.555912
vt 0.456388 0.405468
vt 0.639054 0.427253
vt 0.543243 0.034277
vt 0.600537 0.034277
vt 0.621147 0.082917
vt 0.548663 0.082917
vt 0.413496 0.526287
vt 0.414231 0.563828
vt 0.615017 0.463403
vt 0.468711 0.447788
vt 0.671965 0.557906
vt 0.665877 0.524216
vt 0.653252 0.492442
vt 0.634119 0.056597
vt 0.635878 0.060868
vt 0.640047 0.075124
vt 0.498583 0.034277
vt 0.498583 0.082917
vt 0.541252 0.344181
vt 0.498583 0.344181
vt 0.667721 0.558111
vt 0.617559 0.299487
vt 0.608756 0.313602
vt 0.596712 0.324878
vt 0.415006 0.479389
vt 0.642357 0.092023
vt 0.642188 0.107037
vt 0.444077 0.421798
vt 0.441452 0.406809
vt 0.430015 0.425238
vt 0.424875 0.411000
vt 0.411268 0.417141
vt 0.400409 0.424493
vt 0.401489 0.442995
vt 0.390859 0.434131
vt 0.395404 0.452862
vt 0.382663 0.446291
vt 0.412219 0.452359
vt 0.406281 0.462029
vt 0.413522 0.468128
vt 0.419535 0.458232
vt 0.456401 0.444164
vt 0.451226 0.435953
vt 0.442768 0.446492
vt 0.437636 0.438592
vt 0.443721 0.450292
vt 0.456758 0.448148
vt 0.422374 0.460864
vt 0.417007 0.469488
vt 0.613964 0.037267
vt 0.626256 0.045437
vt 0.657895 0.473766
vt 0.667628 0.463798
vt 0.648307 0.464338
vt 0.657979 0.454117
vt 0.636740 0.457260
vt 0.646372 0.446554
vt 0.628199 0.463145
vt 0.640155 0.470321
vt 0.650108 0.479973
vt 0.653627 0.433229
vt 0.667645 0.442761
vt 0.678926 0.454783
vt 0.687234 0.467149
vt 0.626609 0.466854
vt 0.637701 0.473540
vt 0.646876 0.482620
vt 0.621782 0.284683
vt 0.583262 0.331600
vt 0.359112 0.532068
vt 0.345459 0.530184
vt 0.337607 0.477566
vt 0.348261 0.467803
vt 0.070611 0.541383
vt 0.084016 0.539049
vt 0.082951 0.571438
vt 0.069464 0.571747
vt 0.361323 0.462494
vt 0.096046 0.499223
vt 0.103494 0.504629
vt 0.093511 0.537534
vt 0.329156 0.442950
vt 0.319419 0.453162
vt 0.313493 0.450518
vt 0.320258 0.438220
vt 0.312261 0.459387
vt 0.309012 0.457982
vt 0.360640 0.565085
vt 0.347405 0.565386
vt 0.310634 0.462594
vt 0.307697 0.461368
vt 0.339768 0.565560
vt 0.337852 0.529341
vt 0.278171 0.445367
vt 0.273693 0.453263
vt 0.138775 0.473392
vt 0.130555 0.468224
vt 0.331284 0.484556
vt 0.085474 0.490685
vt 0.283692 0.431159
vt 0.121299 0.457641
vt 0.054720 0.572085
vt 0.056706 0.539089
vt 0.283716 0.417094
vt 0.116023 0.444618
vt 0.333961 0.529701
vt 0.295013 0.527666
vt 0.291967 0.472606
vt 0.327648 0.485448
vt 0.335746 0.565652
vt 0.273975 0.456943
vt 0.139627 0.476972
vt 0.092428 0.571221
vt 0.107079 0.506112
vt 0.097301 0.538149
vt 0.297482 0.458429
vt 0.296623 0.566546
vt 0.096493 0.571128
vt 0.112148 0.496123
vt 0.119661 0.487087
vt 0.129240 0.480456
vt 0.285067 0.456788
vt 0.297622 0.417602
vt 0.295914 0.431675
vt 0.313276 0.420610
vt 0.309259 0.434198
vt 0.326336 0.425529
vt 0.336978 0.431674
vt 0.346659 0.439977
vt 0.337308 0.449183
vt 0.355402 0.450737
vt 0.343888 0.458069
vt 0.327712 0.458951
vt 0.334226 0.467791
vt 0.327730 0.474385
vt 0.320925 0.465222
vt 0.289831 0.445201
vt 0.285267 0.453055
vt 0.302759 0.447129
vt 0.298244 0.454795
vt 0.318268 0.467972
vt 0.324451 0.476089
vt 0.091294 0.480078
vt 0.101109 0.488798
vt 0.099774 0.470465
vt 0.109345 0.479391
vt 0.110148 0.462843
vt 0.119573 0.472230
vt 0.127638 0.477174
vt 0.117212 0.484338
vt 0.108882 0.493981
vt 0.102763 0.450812
vt 0.090147 0.460351
vt 0.080140 0.472177
vt 0.072857 0.484355
vt 0.389418 0.598085
vt 0.403539 0.600659
vt 0.407439 0.656149
vt 0.395514 0.666300
vt 0.696315 0.587724
vt 0.682775 0.590804
vt 0.374822 0.598840
vt 0.381107 0.671305
vt 0.672574 0.631895
vt 0.664715 0.626582
vt 0.673191 0.592886
vt 0.415950 0.694651
vt 0.427144 0.683343
vt 0.433824 0.686415
vt 0.425964 0.700218
vt 0.435323 0.676382
vt 0.439016 0.678010
vt 0.437176 0.672738
vt 0.440577 0.674156
vt 0.411502 0.601913
vt 0.473545 0.692468
vt 0.478480 0.683653
vt 0.626744 0.659653
vt 0.635924 0.665252
vt 0.414492 0.649032
vt 0.683893 0.640409
vt 0.467363 0.708439
vt 0.646262 0.676747
vt 0.710599 0.589346
vt 0.467399 0.724203
vt 0.652351 0.690969
vt 0.453923 0.034277
vt 0.448503 0.082917
vt 0.376018 0.082917
vt 0.396628 0.034277
vt 0.415636 0.601719
vt 0.478147 0.679590
vt 0.625750 0.655702
vt 0.661028 0.625203
vt 0.669292 0.592494
vt 0.357118 0.075124
vt 0.361287 0.060868
vt 0.455913 0.344181
vt 0.400453 0.324879
vt 0.388409 0.313602
vt 0.379606 0.299487
vt 0.418303 0.648297
vt 0.354809 0.092023
vt 0.354977 0.107037
vt 0.451655 0.723794
vt 0.453570 0.707857
vt 0.433745 0.720398
vt 0.438435 0.704936
vt 0.418782 0.714591
vt 0.406715 0.707240
vt 0.396014 0.697320
vt 0.406922 0.687364
vt 0.386795 0.684710
vt 0.399909 0.677195
vt 0.417870 0.676719
vt 0.410803 0.666846
vt 0.417872 0.659831
vt 0.425443 0.669786
vt 0.460494 0.692642
vt 0.465653 0.683881
vt 0.445952 0.690374
vt 0.451167 0.681791
vt 0.452096 0.677714
vt 0.465907 0.679728
vt 0.428335 0.666657
vt 0.421362 0.658018
vt 0.370909 0.045437
vt 0.383201 0.037267
vt 0.678164 0.651795
vt 0.667624 0.642867
vt 0.669408 0.662311
vt 0.658970 0.652959
vt 0.658358 0.670830
vt 0.647948 0.660759
vt 0.639076 0.655349
vt 0.650532 0.647653
vt 0.659549 0.637602
vt 0.666753 0.683761
vt 0.680140 0.672884
vt 0.690328 0.659678
vt 0.697334 0.646433
vt 0.637321 0.651720
vt 0.647949 0.644646
vt 0.656206 0.635357
vt 0.375383 0.284683
vt 0.413904 0.331600
vt 0.360619 0.598130
vt 0.352722 0.662819
vt 0.341632 0.653554
vt 0.347069 0.600637
vt 0.072000 0.602027
vt 0.085497 0.603745
vt 0.366013 0.667523
vt 0.099338 0.642978
vt 0.095052 0.604823
vt 0.106531 0.637237
vt 0.334776 0.688519
vt 0.326105 0.693652
vt 0.318784 0.681676
vt 0.324582 0.678764
vt 0.313966 0.674426
vt 0.317147 0.672874
vt 0.312497 0.671105
vt 0.315375 0.669745
vt 0.339509 0.601827
vt 0.283736 0.688440
vt 0.135229 0.672364
vt 0.143205 0.666826
vt 0.278901 0.680758
vt 0.334997 0.646862
vt 0.089168 0.651991
vt 0.289901 0.702380
vt 0.126468 0.683360
vt 0.058214 0.604955
vt 0.290569 0.716429
vt 0.121794 0.696610
vt 0.335606 0.601645
vt 0.331325 0.646137
vt 0.296270 0.660599
vt 0.296794 0.605458
vt 0.143892 0.663210
vt 0.279014 0.677068
vt 0.098810 0.604035
vt 0.110044 0.635591
vt 0.302428 0.674507
vt 0.133356 0.660205
vt 0.123484 0.654020
vt 0.115565 0.645337
vt 0.290101 0.676715
vt 0.302087 0.701305
vt 0.304438 0.715285
vt 0.315302 0.698174
vt 0.319937 0.711563
vt 0.332758 0.706051
vt 0.343106 0.699425
vt 0.342634 0.681920
vt 0.352397 0.690687
vt 0.348800 0.672742
vt 0.360637 0.679539
vt 0.332601 0.672602
vt 0.338704 0.663474
vt 0.331912 0.657184
vt 0.325535 0.666649
vt 0.290472 0.680435
vt 0.295391 0.688071
vt 0.303356 0.678103
vt 0.308216 0.685554
vt 0.322755 0.664023
vt 0.328560 0.655632
vt 0.104873 0.653160
vt 0.095468 0.662320
vt 0.113531 0.662180
vt 0.104379 0.671535
vt 0.124077 0.668865
vt 0.115090 0.678674
vt 0.131906 0.663558
vt 0.121164 0.656879
vt 0.112400 0.647627
vt 0.108264 0.691030
vt 0.095225 0.682079
vt 0.084687 0.670724
vt 0.076854 0.658892
vt 0.882537 0.952977
vt 0.228966 0.951818
vt 0.228588 0.947240
vt 0.882430 0.948025
vt 0.228571 0.942497
vt 0.882106 0.943206
vt 0.228394 0.937737
vt 0.881791 0.938457
vt 0.228534 0.932963
vt 0.881488 0.933793
vt 0.228403 0.928191
vt 0.881244 0.929211
vt 0.228575 0.923428
vt 0.880905 0.924698
vt 0.228442 0.918672
vt 0.880653 0.920203
vt 0.228603 0.913926
vt 0.880690 0.915719
vt 0.222068 0.928156
vt 0.222053 0.923381
vt 0.221964 0.932952
vt 0.209717 0.932783
vt 0.209771 0.928055
vt 0.222149 0.947714
vt 0.221965 0.942681
vt 0.222153 0.918641
vt 0.222028 0.937777
vt 0.222131 0.913904
vt 0.222445 0.953017
vt 0.209917 0.923344
vt 0.209922 0.918631
vt 0.210025 0.913924
vt 0.208398 0.952724
vt 0.208965 0.947377
vt 0.209304 0.942406
vt 0.209562 0.937582
vt 0.203436 0.923229
vt 0.203632 0.918567
vt 0.203528 0.913884
vt 0.201958 0.951046
vt 0.202601 0.946578
vt 0.202928 0.941933
vt 0.203107 0.937261
vt 0.203194 0.932573
vt 0.203468 0.927907
vt 0.186664 0.949953
vt 0.186984 0.945465
vt 0.187159 0.941019
vt 0.187309 0.936521
vt 0.187430 0.931997
vt 0.187530 0.927456
vt 0.187605 0.922904
vt 0.187659 0.918346
vt 0.187688 0.913786
vt 0.095848 0.939090
vt 0.095481 0.943570
vt 0.064749 0.939508
vt 0.066464 0.935055
vt 0.096202 0.934690
vt 0.067824 0.930977
vt 0.096514 0.930346
vt 0.068915 0.927183
vt 0.096775 0.926056
vt 0.069773 0.923512
vt 0.096978 0.921809
vt 0.070393 0.919959
vt 0.097115 0.917593
vt 0.070795 0.916492
vt 0.097183 0.913395
vt 0.070992 0.913048
vt 0.059531 0.931706
vt 0.061347 0.928339
vt 0.062710 0.925137
vt 0.063758 0.922036
vt 0.064522 0.918959
vt 0.064991 0.915903
vt 0.065202 0.912877
vt 0.061836 0.943900
vt 0.054264 0.938628
vt 0.057269 0.935030
vt 0.056970 0.919676
vt 0.057743 0.917366
vt 0.058231 0.915025
vt 0.058444 0.912671
vt 0.047609 0.930325
vt 0.050386 0.928475
vt 0.052638 0.926397
vt 0.054463 0.924228
vt 0.055887 0.921970
vt 0.043590 0.918765
vt 0.044767 0.918362
vt 0.045807 0.917788
vt 0.046702 0.917071
vt 0.047454 0.916245
vt 0.048051 0.915335
vt 0.048493 0.914363
vt 0.048766 0.913344
vt 0.048880 0.912305
vt 0.042889 0.914316
vt 0.043312 0.914235
vt 0.043703 0.914080
vt 0.044053 0.913861
vt 0.044352 0.913587
vt 0.044595 0.913269
vt 0.044776 0.912917
vt 0.044891 0.912541
vt 0.044939 0.912153
vt 0.042801 0.912069
vt 0.907151 0.566629
vt 0.955522 0.577894
vt 0.954909 0.582538
vt 0.906270 0.571028
vt 0.950149 0.670280
vt 0.958568 0.699141
vt 0.912206 0.712238
vt 0.901647 0.683922
vt 0.893175 0.717304
vt 0.879138 0.691201
vt 0.959360 0.703512
vt 0.913428 0.716576
vt 0.883982 0.567064
vt 0.882312 0.563392
vt 0.873797 0.690923
vt 0.871490 0.669396
vt 0.875444 0.670346
vt 0.886769 0.644897
vt 0.892068 0.646502
vt 0.886055 0.605230
vt 0.891966 0.603546
vt 0.874798 0.577817
vt 0.947437 0.614048
vt 0.945666 0.642949
vt 0.156862 0.918151
vt 0.156884 0.913673
vt 0.126552 0.917973
vt 0.126580 0.913564
vt 0.156830 0.922629
vt 0.126505 0.922386
vt 0.156788 0.927106
vt 0.126441 0.926808
vt 0.156739 0.931582
vt 0.126362 0.931239
vt 0.156682 0.936057
vt 0.126270 0.935683
vt 0.156621 0.940529
vt 0.126170 0.940141
vt 0.156559 0.944998
vt 0.126066 0.944614
vt 0.874612 0.705371
vt 0.870835 0.705676
vt 0.880768 0.717657
vt 0.882758 0.878417
vt 0.882665 0.883366
vt 0.228770 0.880581
vt 0.229170 0.875966
vt 0.882357 0.888186
vt 0.228730 0.885322
vt 0.881941 0.892928
vt 0.228813 0.890134
vt 0.881497 0.897589
vt 0.228693 0.894948
vt 0.881078 0.902188
vt 0.228611 0.899725
vt 0.880905 0.906751
vt 0.228536 0.904473
vt 0.880837 0.911252
vt 0.228435 0.909188
vt 0.222192 0.904510
vt 0.222170 0.899761
vt 0.209902 0.899739
vt 0.209881 0.894992
vt 0.222147 0.894963
vt 0.222158 0.885143
vt 0.222313 0.880124
vt 0.222233 0.909205
vt 0.222101 0.890095
vt 0.222573 0.874701
vt 0.210017 0.904462
vt 0.209995 0.909194
vt 0.209147 0.880425
vt 0.208514 0.875281
vt 0.209477 0.885392
vt 0.209712 0.890207
vt 0.203687 0.909204
vt 0.203510 0.904521
vt 0.202838 0.881246
vt 0.202351 0.876830
vt 0.203132 0.885856
vt 0.203306 0.890499
vt 0.203357 0.895171
vt 0.203589 0.899837
vt 0.187294 0.882054
vt 0.187159 0.877571
vt 0.187414 0.886519
vt 0.187513 0.891023
vt 0.187590 0.895560
vt 0.187649 0.900109
vt 0.187685 0.904663
vt 0.187701 0.909223
vt 0.096284 0.887862
vt 0.067608 0.891424
vt 0.066320 0.887320
vt 0.095965 0.883427
vt 0.096570 0.892221
vt 0.068711 0.895303
vt 0.096811 0.896523
vt 0.069601 0.899006
vt 0.096996 0.900781
vt 0.070279 0.902621
vt 0.097139 0.904999
vt 0.070715 0.906140
vt 0.097196 0.909202
vt 0.070957 0.909604
vt 0.062347 0.897433
vt 0.060845 0.894067
vt 0.063460 0.900630
vt 0.064310 0.903747
vt 0.064855 0.906833
vt 0.065151 0.909858
vt 0.058971 0.890550
vt 0.056504 0.886775
vt 0.064785 0.882800
vt 0.058058 0.907947
vt 0.057455 0.905601
vt 0.058390 0.910314
vt 0.051616 0.896384
vt 0.049038 0.894297
vt 0.053697 0.898649
vt 0.055294 0.900911
vt 0.056544 0.903260
vt 0.045261 0.905960
vt 0.044122 0.905465
vt 0.046250 0.906617
vt 0.047087 0.907395
vt 0.047764 0.908279
vt 0.048279 0.909233
vt 0.048642 0.910230
vt 0.048835 0.911262
vt 0.043480 0.909952
vt 0.043066 0.909837
vt 0.043858 0.910137
vt 0.044189 0.910383
vt 0.044466 0.910679
vt 0.044682 0.911015
vt 0.044836 0.911379
vt 0.044921 0.911762
vt 0.156895 0.909195
vt 0.126592 0.909156
vt 0.156895 0.904717
vt 0.126585 0.904747
vt 0.156885 0.900240
vt 0.126559 0.900332
vt 0.156865 0.895763
vt 0.126517 0.895909
vt 0.156837 0.891288
vt 0.126461 0.891473
vt 0.156803 0.886814
vt 0.126392 0.887027
vt 0.156766 0.882343
vt 0.126315 0.882569
vt 0.897976 0.894927
vt 0.896950 0.899469
vt 0.895084 0.915763
vt 0.895222 0.919714
vt 0.896886 0.932036
vt 0.897928 0.936491
vt 0.896151 0.903713
vt 0.902508 0.878210
vt 0.900747 0.884575
vt 0.896065 0.927814
vt 0.895548 0.907810
vt 0.900589 0.946694
vt 0.902291 0.953018
vt 0.899270 0.889984
vt 0.895527 0.923715
vt 0.895175 0.911805
vt 0.899186 0.941291
vt 0.156249 0.877877
vt 0.095338 0.878958
vt 0.125855 0.878101
vt 0.906574 0.906098
vt 0.905674 0.909337
vt 0.905140 0.912533
vt 0.904949 0.915713
vt 0.914835 0.939920
vt 0.919069 0.944031
vt 0.911694 0.935904
vt 0.909366 0.932209
vt 0.919515 0.887527
vt 0.915197 0.891644
vt 0.907642 0.928723
vt 0.912001 0.895687
vt 0.906401 0.925373
vt 0.909606 0.899266
vt 0.905566 0.922109
vt 0.907821 0.902692
vt 0.905090 0.918897
vt 0.927393 0.915890
vt 0.878151 0.721363
vt 0.870835 0.577855
vt 0.893607 0.721977
vt 0.882627 0.799681
vt 0.882516 0.804619
vt 0.227889 0.801832
vt 0.228294 0.797231
vt 0.882193 0.809424
vt 0.227840 0.806558
vt 0.881763 0.814150
vt 0.227897 0.811335
vt 0.881302 0.818806
vt 0.227718 0.816103
vt 0.881031 0.823416
vt 0.227848 0.820861
vt 0.880847 0.827954
vt 0.227673 0.825610
vt 0.880576 0.832444
vt 0.227777 0.830346
vt 0.880595 0.836925
vt 0.227882 0.835131
vt 0.221421 0.825582
vt 0.221337 0.820855
vt 0.209149 0.820822
vt 0.209063 0.816090
vt 0.221375 0.816083
vt 0.221344 0.806385
vt 0.221460 0.801369
vt 0.221347 0.830306
vt 0.221294 0.811282
vt 0.221300 0.835080
vt 0.221736 0.795969
vt 0.209202 0.825552
vt 0.209191 0.830284
vt 0.209227 0.835030
vt 0.208336 0.801624
vt 0.207763 0.796450
vt 0.208708 0.806531
vt 0.208926 0.811336
vt 0.202745 0.830302
vt 0.202788 0.825638
vt 0.202625 0.834980
vt 0.202108 0.802435
vt 0.201472 0.798034
vt 0.202401 0.807021
vt 0.202586 0.811660
vt 0.202704 0.816316
vt 0.202771 0.820976
vt 0.186693 0.803370
vt 0.186431 0.799061
vt 0.186802 0.807786
vt 0.186885 0.812244
vt 0.186941 0.816735
vt 0.186969 0.821249
vt 0.186972 0.825779
vt 0.186951 0.830321
vt 0.186908 0.834868
vt 0.095930 0.808226
vt 0.066573 0.811846
vt 0.064906 0.807416
vt 0.095628 0.803756
vt 0.096209 0.812623
vt 0.067920 0.815913
vt 0.096450 0.816954
vt 0.068982 0.819735
vt 0.096641 0.821228
vt 0.069791 0.823386
vt 0.096793 0.825449
vt 0.070342 0.826941
vt 0.096861 0.829646
vt 0.070691 0.830398
vt 0.096862 0.833822
vt 0.070830 0.833817
vt 0.061428 0.818426
vt 0.059665 0.815116
vt 0.062778 0.821634
vt 0.063783 0.824762
vt 0.064485 0.827832
vt 0.064916 0.830859
vt 0.065083 0.833862
vt 0.057460 0.811775
vt 0.054647 0.808269
vt 0.062060 0.803117
vt 0.057731 0.829299
vt 0.057000 0.826987
vt 0.058181 0.831636
vt 0.058356 0.833981
vt 0.050579 0.818188
vt 0.047831 0.816236
vt 0.052798 0.820285
vt 0.054566 0.822449
vt 0.055953 0.824694
vt 0.044887 0.828074
vt 0.043725 0.827656
vt 0.045909 0.828665
vt 0.046784 0.829392
vt 0.047509 0.830230
vt 0.048077 0.831149
vt 0.048497 0.832121
vt 0.048748 0.833136
vt 0.048854 0.834170
vt 0.043355 0.832139
vt 0.042938 0.832049
vt 0.043740 0.832301
vt 0.044083 0.832526
vt 0.044375 0.832804
vt 0.044608 0.833125
vt 0.044780 0.833479
vt 0.044887 0.833854
vt 0.044927 0.834241
vt 0.042801 0.834278
vt 0.906983 0.559455
vt 0.906077 0.555224
vt 0.954235 0.543729
vt 0.954839 0.548325
vt 0.950193 0.455905
vt 0.901635 0.441989
vt 0.912344 0.413652
vt 0.958772 0.427002
vt 0.879100 0.434603
vt 0.893285 0.408490
vt 0.959587 0.422624
vt 0.913590 0.409308
vt 0.883806 0.563081
vt 0.884838 0.559864
vt 0.873745 0.434861
vt 0.875319 0.455497
vt 0.871352 0.456436
vt 0.891903 0.479422
vt 0.886595 0.481028
vt 0.891988 0.522468
vt 0.886000 0.520833
vt 0.875657 0.549344
vt 0.947125 0.512292
vt 0.945544 0.483301
vt 0.156263 0.834503
vt 0.156313 0.830046
vt 0.126107 0.834123
vt 0.126150 0.829735
vt 0.156353 0.825590
vt 0.126175 0.825343
vt 0.156384 0.821135
vt 0.126182 0.820943
vt 0.156406 0.816681
vt 0.126175 0.816531
vt 0.156422 0.812230
vt 0.126156 0.812107
vt 0.156434 0.807781
vt 0.126129 0.807668
vt 0.156445 0.803335
vt 0.126099 0.803214
vt 0.870835 0.420056
vt 0.874621 0.420378
vt 0.880845 0.408084
vt 0.882445 0.874327
vt 0.228077 0.873168
vt 0.227719 0.868509
vt 0.882335 0.869341
vt 0.227750 0.863713
vt 0.882003 0.864488
vt 0.227642 0.858902
vt 0.881676 0.859705
vt 0.227588 0.854117
vt 0.881364 0.855009
vt 0.227547 0.849360
vt 0.881114 0.850398
vt 0.227485 0.844640
vt 0.880959 0.845864
vt 0.227691 0.839912
vt 0.880723 0.841391
vt 0.221191 0.849267
vt 0.221285 0.844555
vt 0.221128 0.854039
vt 0.208829 0.853930
vt 0.208892 0.849196
vt 0.221134 0.868909
vt 0.221022 0.863815
vt 0.221298 0.839840
vt 0.221073 0.858878
vt 0.221369 0.874395
vt 0.209026 0.844499
vt 0.209126 0.839781
vt 0.207239 0.873714
vt 0.207887 0.868508
vt 0.208327 0.863563
vt 0.208611 0.858722
vt 0.202661 0.844334
vt 0.202661 0.839656
vt 0.200942 0.872019
vt 0.201607 0.867625
vt 0.201972 0.863009
vt 0.202190 0.858348
vt 0.202316 0.853666
vt 0.202633 0.849001
vt 0.185826 0.870955
vt 0.186047 0.866489
vt 0.186245 0.862039
vt 0.186418 0.857542
vt 0.186565 0.853023
vt 0.186690 0.848492
vt 0.186786 0.843954
vt 0.186855 0.839412
vt 0.095554 0.859183
vt 0.095158 0.863568
vt 0.065778 0.859301
vt 0.067128 0.855250
vt 0.095915 0.854859
vt 0.068308 0.851375
vt 0.096229 0.850588
vt 0.069245 0.847681
vt 0.096486 0.846361
vt 0.069953 0.844139
vt 0.096680 0.842166
vt 0.070453 0.840654
vt 0.096806 0.837990
vt 0.070741 0.837225
vt 0.060453 0.852498
vt 0.061993 0.849207
vt 0.063180 0.846037
vt 0.064045 0.842918
vt 0.064653 0.839882
vt 0.065003 0.836869
vt 0.064300 0.863648
vt 0.056131 0.859733
vt 0.058556 0.855976
vt 0.057265 0.840992
vt 0.057905 0.838664
vt 0.058266 0.836326
vt 0.048683 0.852170
vt 0.051335 0.850046
vt 0.053409 0.847844
vt 0.055059 0.845596
vt 0.056320 0.843317
vt 0.043974 0.840880
vt 0.045112 0.840411
vt 0.046116 0.839776
vt 0.046960 0.839012
vt 0.047657 0.838151
vt 0.048185 0.837215
vt 0.048565 0.836228
vt 0.048788 0.835207
vt 0.043015 0.836503
vt 0.043430 0.836397
vt 0.043810 0.836221
vt 0.044144 0.835984
vt 0.044425 0.835695
vt 0.044648 0.835367
vt 0.044807 0.835007
vt 0.044901 0.834628
vt 0.156202 0.838960
vt 0.126047 0.838508
vt 0.156131 0.843417
vt 0.125968 0.842895
vt 0.156049 0.847874
vt 0.125870 0.847287
vt 0.155957 0.852330
vt 0.125755 0.851687
vt 0.155857 0.856786
vt 0.125624 0.856097
vt 0.155749 0.861239
vt 0.125482 0.860520
vt 0.155637 0.865691
vt 0.125331 0.864956
vt 0.896826 0.853169
vt 0.897895 0.857669
vt 0.895140 0.832994
vt 0.894997 0.836920
vt 0.897838 0.816167
vt 0.896824 0.820664
vt 0.896001 0.848927
vt 0.900687 0.867997
vt 0.902471 0.874395
vt 0.896015 0.824926
vt 0.895404 0.844855
vt 0.902251 0.799622
vt 0.900524 0.805928
vt 0.899220 0.862560
vt 0.895412 0.828982
vt 0.895087 0.840860
vt 0.899081 0.811314
vt 0.155048 0.870128
vt 0.094455 0.867994
vt 0.124795 0.869394
vt 0.905518 0.843341
vt 0.906409 0.846583
vt 0.904991 0.840139
vt 0.904802 0.836955
vt 0.919062 0.808691
vt 0.914813 0.812791
vt 0.911666 0.816806
vt 0.909335 0.820510
vt 0.915076 0.860902
vt 0.919382 0.864990
vt 0.907609 0.824015
vt 0.911886 0.856876
vt 0.906309 0.827295
vt 0.909494 0.853312
vt 0.905479 0.830575
vt 0.907709 0.849895
vt 0.904938 0.833764
vt 0.927192 0.836815
vt 0.878237 0.404357
vt 0.870835 0.549888
vt 0.893738 0.403807
vt 0.363046 0.056597
s 1
f 4/1/1 28/2/2 32/3/3 8/4/4
f 3/5/5 1/6/6 5/7/7 6/8/8
s 0
f 11/9/9 44/10/9 28/2/9 4/1/9
s 1
f 74/11/10 6/8/8 14/12/11 79/13/12
f 27/14/13 24/15/14 35/16/15 31/17/16
f 31/17/16 35/16/15 52/18/17 47/19/18
f 2/20/1 4/1/1 8/4/4 7/21/4
s 0
f 9/22/9 11/9/9 4/1/9 2/20/9
f 47/19/19 52/18/19 59/23/19 56/24/19
s 1
f 7/21/4 8/4/4 16/25/20 15/26/20
f 36/27/21 75/28/22 80/29/23 51/30/24
f 8/4/4 32/3/3 48/31/25 16/25/20
f 65/32/26 3/5/5 6/8/8 74/11/10
f 23/33/27 64/34/28 75/28/22 36/27/21
s 0
f 1/6/29 3/5/29 12/35/29 10/36/29
f 39/37/30 70/38/30 64/34/30 23/33/30
f 22/39/31 55/40/31 61/41/31 21/42/31
f 15/26/29 16/25/29 22/43/29 19/44/29
f 51/30/32 80/29/32 84/45/32 60/46/32
s 1
f 6/8/8 5/7/7 13/47/33 14/12/11
s 0
f 79/13/34 14/12/34 18/48/34 85/49/34
f 61/41/31 56/50/31 59/51/31 62/52/31
f 19/53/31 22/39/31 21/42/31 20/54/31
f 20/54/31 21/42/31 18/55/31 17/56/31
f 14/12/9 13/47/9 17/57/9 18/48/9
f 61/41/31 86/58/31 87/59/31 88/60/31
f 16/25/29 48/31/29 55/61/29 22/43/29
f 63/62/31 60/63/31 61/41/31 62/52/31
f 39/37/35 23/33/35 25/64/35 41/65/35
f 41/65/36 25/64/36 26/66/36 42/67/36
f 42/67/37 26/66/37 24/15/37 40/68/37
f 43/69/38 27/14/38 29/70/38 45/71/38
f 45/71/39 29/70/39 30/72/39 46/73/39
f 46/73/40 30/72/40 28/2/40 44/10/40
s 1
f 27/14/13 31/17/16 33/74/41 29/70/42
f 29/70/42 33/74/41 34/75/43 30/72/44
f 30/72/44 34/75/43 32/3/3 28/2/2
f 48/31/25 32/3/3 34/75/43 50/76/45
f 50/76/45 34/75/43 33/74/41 49/77/46
f 49/77/46 33/74/41 31/17/16 47/19/18
f 36/27/21 51/30/24 53/78/47 38/79/48
f 38/79/48 53/78/47 54/80/49 37/81/50
f 37/81/50 54/80/49 52/18/17 35/16/15
f 35/16/15 24/15/14 26/66/51 37/81/50
f 37/81/50 26/66/51 25/64/52 38/79/48
f 38/79/48 25/64/52 23/33/27 36/27/21
s 0
f 59/23/53 52/18/53 54/80/53 62/82/53
f 62/82/54 54/80/54 53/78/54 63/83/54
f 63/83/55 53/78/55 51/30/55 60/46/55
f 47/19/56 56/24/56 58/84/56 49/77/56
f 49/77/57 58/84/57 57/85/57 50/76/57
f 50/76/58 57/85/58 55/61/58 48/31/58
f 43/69/59 40/68/59 24/15/59 27/14/59
f 61/41/31 55/40/31 57/86/31 58/87/31
s 1
f 65/32/26 74/11/10 76/88/60 68/89/61
f 68/89/61 76/88/60 77/90/62 67/91/63
f 67/91/63 77/90/62 78/92/64 66/93/65
f 66/93/65 78/92/64 75/28/22 64/34/28
f 80/29/23 75/28/22 78/92/64 83/94/66
f 83/94/66 78/92/64 77/90/62 82/95/67
f 82/95/67 77/90/62 76/88/60 81/96/68
f 81/96/68 76/88/60 74/11/10 79/13/12
s 0
f 64/34/69 70/38/69 73/97/69 66/93/69
f 66/93/70 73/97/70 72/98/70 67/91/70
f 67/91/71 72/98/71 71/99/71 68/89/71
f 68/89/72 71/99/72 69/100/72 65/32/72
f 84/45/73 80/29/73 83/94/73 86/101/73
f 86/101/74 83/94/74 82/95/74 87/102/74
f 87/102/75 82/95/75 81/96/75 88/103/75
f 88/103/76 81/96/76 79/13/76 85/49/76
f 3/5/77 65/32/77 69/100/77 12/35/77
f 86/58/31 61/41/31 60/63/31 84/104/31
f 88/60/31 85/105/31 18/55/31 61/41/31
f 61/41/31 18/55/31 21/42/31
s 1
f 92/106/78 96/107/79 116/108/80 112/109/81
f 91/110/82 94/111/83 93/112/84 89/113/85
s 0
f 11/9/9 92/106/9 112/109/9 44/114/9
s 1
f 145/115/86 150/116/87 98/117/88 94/111/83
f 111/118/89 115/119/90 119/120/91 108/121/92
f 115/119/90 123/122/93 128/123/94 119/120/91
f 90/124/78 95/125/79 96/107/79 92/106/78
s 0
f 9/22/9 90/124/9 92/106/9 11/9/9
f 123/122/19 132/126/19 135/127/19 128/123/19
s 1
f 95/125/79 99/128/95 100/129/95 96/107/79
f 120/130/96 127/131/97 151/132/98 146/133/99
f 96/107/79 100/129/95 124/134/100 116/108/80
f 141/135/101 145/115/86 94/111/83 91/110/82
f 107/136/102 120/130/96 146/133/99 140/137/103
s 0
f 89/113/29 10/138/29 12/139/29 91/110/29
f 39/140/30 107/136/30 140/137/30 70/141/30
f 106/142/104 105/143/104 137/144/104 131/145/104
f 99/128/29 103/146/29 106/142/29 100/129/29
f 127/131/32 136/147/32 155/148/32 151/132/32
s 1
f 94/111/83 98/117/88 97/149/105 93/112/84
s 0
f 150/116/34 156/150/34 102/151/34 98/117/34
f 137/144/104 138/152/104 135/127/104
f 103/146/104 104/153/104 105/143/104 106/142/104
f 104/153/104 101/154/104 102/151/104 105/143/104
f 98/117/9 102/151/9 101/154/9 97/149/9
f 137/144/104 159/155/104 158/156/104 157/157/104
f 100/129/29 106/142/29 131/145/29 124/134/29
f 139/158/104 138/152/104 137/144/104 136/147/104
f 39/140/106 41/159/106 109/160/106 107/136/106
f 41/159/107 42/161/107 110/162/107 109/160/107
f 42/161/37 40/163/37 108/121/37 110/162/37
f 43/164/108 45/165/108 113/166/108 111/118/108
f 45/165/109 46/167/109 114/168/109 113/166/109
f 46/167/110 44/114/110 112/109/110 114/168/110
s 1
f 111/118/89 113/166/111 117/169/112 115/119/90
f 113/166/111 114/168/113 118/170/114 117/169/112
f 114/168/113 112/109/81 116/108/80 118/170/114
f 124/134/100 126/171/115 118/170/114 116/108/80
f 126/171/115 125/172/116 117/169/112 118/170/114
f 125/172/116 123/122/93 115/119/90 117/169/112
f 120/130/96 122/173/117 129/174/118 127/131/97
f 122/173/117 121/175/119 130/176/120 129/174/118
f 121/175/119 119/120/91 128/123/94 130/176/120
f 119/120/91 121/175/119 110/162/121 108/121/92
f 121/175/119 122/173/117 109/160/122 110/162/121
f 122/173/117 120/130/96 107/136/102 109/160/122
s 0
f 135/127/123 138/152/123 130/176/123 128/123/123
f 138/152/124 139/158/124 129/174/124 130/176/124
f 139/158/125 136/147/125 127/131/125 129/174/125
f 123/122/126 125/172/126 134/177/126 132/126/126
f 125/172/127 126/171/127 133/178/127 134/177/127
f 126/171/128 124/134/128 131/145/128 133/178/128
f 43/164/59 111/118/59 108/121/59 40/163/59
f 137/144/104 134/177/104 133/178/104 131/145/104
s 1
f 141/135/101 144/179/129 147/180/130 145/115/86
f 144/179/129 143/181/131 148/182/132 147/180/130
f 143/181/131 142/183/133 149/184/134 148/182/132
f 142/183/133 140/137/103 146/133/99 149/184/134
f 151/132/98 154/185/135 149/184/134 146/133/99
f 154/185/135 153/186/136 148/182/132 149/184/134
f 153/186/136 152/187/137 147/180/130 148/182/132
f 152/187/137 150/116/87 145/115/86 147/180/130
s 0
f 140/137/138 142/183/138 73/188/138 70/141/138
f 142/183/139 143/181/139 72/189/139 73/188/139
f 143/181/140 144/179/140 71/190/140 72/189/140
f 144/179/141 141/135/141 69/191/141 71/190/141
f 155/148/142 157/157/142 154/185/142 151/132/142
f 157/157/143 158/156/143 153/186/143 154/185/143
f 158/156/144 159/155/144 152/187/144 153/186/144
f 159/155/145 156/150/145 150/116/145 152/187/145
f 91/110/77 12/139/77 69/191/77 141/135/77
f 157/157/104 155/148/104 136/147/104 137/144/104
f 159/155/104 137/144/104 102/151/104 156/150/104
f 137/144/104 105/143/104 102/151/104
s 1
f 161/192/1 163/193/4 180/194/146 176/195/147
f 160/196/148 162/197/149 5/7/7 1/6/6
s 0
f 164/198/9 161/192/9 176/195/9 192/199/9
s 1
f 222/200/150 227/201/151 166/202/152 162/197/149
f 175/203/153 179/204/154 183/205/155 172/206/156
f 179/204/154 195/207/157 200/208/158 183/205/155
f 2/20/1 7/21/4 163/193/4 161/192/1
s 0
f 9/22/9 2/20/9 161/192/9 164/198/9
f 195/207/159 204/209/159 207/210/159 200/208/159
s 1
f 7/21/4 15/26/20 167/211/20 163/193/4
f 184/212/160 199/213/161 228/214/162 223/215/163
f 163/193/4 167/211/20 196/216/164 180/194/146
f 213/217/165 222/200/150 162/197/149 160/196/148
f 171/218/166 184/212/160 223/215/163 212/219/167
s 0
f 1/6/29 10/36/29 165/220/29 160/196/29
f 187/221/168 171/218/168 212/219/168 218/222/168
f 170/223/31 169/224/31 209/225/31 203/226/31
f 15/26/29 19/44/29 170/227/29 167/211/29
f 199/213/169 208/228/169 232/229/169 228/214/169
s 1
f 162/197/149 166/202/152 13/47/33 5/7/7
s 0
f 227/201/170 233/230/170 168/231/170 166/202/170
f 209/225/31 210/232/31 207/233/31
f 19/53/31 20/54/31 169/224/31 170/223/31
f 20/54/31 17/56/31 168/234/31 169/224/31
f 166/202/9 168/231/9 17/57/9 13/47/9
f 209/225/31 236/235/31 235/236/31 234/237/31
f 167/211/29 170/227/29 203/238/29 196/216/29
f 211/239/31 210/232/31 209/225/31 208/240/31
f 187/221/171 189/241/171 173/242/171 171/218/171
f 189/241/172 190/243/172 174/244/172 173/242/172
f 190/243/173 188/245/173 172/206/173 174/244/173
f 191/246/174 193/247/174 177/248/174 175/203/174
f 193/247/175 194/249/175 178/250/175 177/248/175
f 194/249/176 192/199/176 176/195/176 178/250/176
s 1
f 175/203/153 177/248/177 181/251/178 179/204/154
f 177/248/177 178/250/179 182/252/180 181/251/178
f 178/250/179 176/195/147 180/194/146 182/252/180
f 196/216/164 198/253/181 182/252/180 180/194/146
f 198/253/181 197/254/182 181/251/178 182/252/180
f 197/254/182 195/207/157 179/204/154 181/251/178
f 184/212/160 186/255/183 201/256/184 199/213/161
f 186/255/183 185/257/185 202/258/186 201/256/184
f 185/257/185 183/205/155 200/208/158 202/258/186
f 183/205/155 185/257/185 174/244/187 172/206/156
f 185/257/185 186/255/183 173/242/188 174/244/187
f 186/255/183 184/212/160 171/218/166 173/242/188
s 0
f 207/210/189 210/259/189 202/258/189 200/208/189
f 210/259/190 211/260/190 201/256/190 202/258/190
f 211/260/191 208/228/191 199/213/191 201/256/191
f 195/207/192 197/254/192 206/261/192 204/209/192
f 197/254/193 198/253/193 205/262/193 206/261/193
f 198/253/194 196/216/194 203/238/194 205/262/194
f 191/246/195 175/203/195 172/206/195 188/245/195
f 209/225/31 206/263/31 205/264/31 203/226/31
s 1
f 213/217/165 216/265/196 224/266/197 222/200/150
f 216/265/196 215/267/198 225/268/199 224/266/197
f 215/267/198 214/269/200 226/270/201 225/268/199
f 214/269/200 212/219/167 223/215/163 226/270/201
f 228/214/162 231/271/202 226/270/201 223/215/163
f 231/271/202 230/272/203 225/268/199 226/270/201
f 230/272/203 229/273/204 224/266/197 225/268/199
f 229/273/204 227/201/151 222/200/150 224/266/197
s 0
f 212/219/205 214/269/205 221/274/205 218/222/205
f 214/269/206 215/267/206 220/275/206 221/274/206
f 215/267/207 216/265/207 219/276/207 220/275/207
f 216/265/208 213/217/208 217/277/208 219/276/208
f 232/229/209 234/278/209 231/271/209 228/214/209
f 234/278/210 235/279/210 230/272/210 231/271/210
f 235/279/211 236/280/211 229/273/211 230/272/211
f 236/280/212 233/230/212 227/201/212 229/273/212
f 160/196/213 165/220/213 217/277/213 213/217/213
f 234/237/31 232/281/31 208/240/31 209/225/31
f 236/235/31 209/225/31 168/234/31 233/282/31
f 209/225/31 169/224/31 168/234/31
s 1
f 238/283/78 251/284/214 255/285/215 240/286/79
f 237/287/216 89/113/85 93/112/84 239/288/217
s 0
f 164/198/9 192/289/9 251/284/9 238/283/9
s 1
f 284/290/218 239/288/217 241/291/219 289/292/220
f 250/293/221 247/294/222 258/295/223 254/296/224
f 254/296/224 258/295/223 267/297/225 262/298/226
f 90/124/78 238/283/78 240/286/79 95/125/79
s 0
f 9/22/9 164/198/9 238/283/9 90/124/9
f 262/298/159 267/297/159 274/299/159 271/300/159
s 1
f 95/125/79 240/286/79 242/301/95 99/128/95
f 259/302/227 285/303/228 290/304/229 266/305/230
f 240/286/79 255/285/215 263/306/231 242/301/95
f 280/307/232 237/287/216 239/288/217 284/290/218
f 246/308/233 279/309/234 285/303/228 259/302/227
s 0
f 89/113/29 237/287/29 165/310/29 10/138/29
f 187/311/168 218/312/168 279/309/168 246/308/168
f 245/313/104 270/314/104 276/315/104 244/316/104
f 99/128/29 242/301/29 245/313/29 103/146/29
f 266/305/169 290/304/169 294/317/169 275/318/169
s 1
f 239/288/217 93/112/84 97/149/105 241/291/219
s 0
f 289/292/170 241/291/170 243/319/170 295/320/170
f 276/315/104 274/299/104 277/321/104
f 103/146/104 245/313/104 244/316/104 104/153/104
f 104/153/104 244/316/104 243/319/104 101/154/104
f 241/291/9 97/149/9 101/154/9 243/319/9
f 276/315/104 296/322/104 297/323/104 298/324/104
f 242/301/29 263/306/29 270/314/29 245/313/29
f 278/325/104 275/318/104 276/315/104 277/321/104
f 187/311/235 246/308/235 248/326/235 189/327/235
f 189/327/236 248/326/236 249/328/236 190/329/236
f 190/329/173 249/328/173 247/294/173 188/330/173
f 191/331/237 250/293/237 252/332/237 193/333/237
f 193/333/238 252/332/238 253/334/238 194/335/238
f 194/335/239 253/334/239 251/284/239 192/289/239
s 1
f 250/293/221 254/296/224 256/336/240 252/332/241
f 252/332/241 256/336/240 257/337/242 253/334/243
f 253/334/243 257/337/242 255/285/215 251/284/214
f 263/306/231 255/285/215 257/337/242 265/338/244
f 265/338/244 257/337/242 256/336/240 264/339/245
f 264/339/245 256/336/240 254/296/224 262/298/226
f 259/302/227 266/305/230 268/340/246 261/341/247
f 261/341/247 268/340/246 269/342/248 260/343/249
f 260/343/249 269/342/248 267/297/225 258/295/223
f 258/295/223 247/294/222 249/328/250 260/343/249
f 260/343/249 249/328/250 248/326/251 261/341/247
f 261/341/247 248/326/251 246/308/233 259/302/227
s 0
f 274/299/252 267/297/252 269/342/252 277/321/252
f 277/321/253 269/342/253 268/340/253 278/325/253
f 278/325/254 268/340/254 266/305/254 275/318/254
f 262/298/255 271/300/255 273/344/255 264/339/255
f 264/339/256 273/344/256 272/345/256 265/338/256
f 265/338/257 272/345/257 270/314/257 263/306/257
f 191/331/195 188/330/195 247/294/195 250/293/195
f 276/315/104 270/314/104 272/345/104 273/344/104
s 1
f 280/307/232 284/290/218 286/346/258 283/347/259
f 283/347/259 286/346/258 287/348/260 282/349/261
f 282/349/261 287/348/260 288/350/262 281/351/263
f 281/351/263 288/350/262 285/303/228 279/309/234
f 290/304/229 285/303/228 288/350/262 293/352/264
f 293/352/264 288/350/262 287/348/260 292/353/265
f 292/353/265 287/348/260 286/346/258 291/354/266
f 291/354/266 286/346/258 284/290/218 289/292/220
s 0
f 279/309/267 218/312/267 221/355/267 281/351/267
f 281/351/268 221/355/268 220/356/268 282/349/268
f 282/349/269 220/356/269 219/357/269 283/347/269
f 283/347/270 219/357/270 217/358/270 280/307/270
f 294/317/271 290/304/271 293/352/271 296/322/271
f 296/322/272 293/352/272 292/353/272 297/323/272
f 297/323/273 292/353/273 291/354/273 298/324/273
f 298/324/274 291/354/274 289/292/274 295/320/274
f 237/287/213 280/307/213 217/358/213 165/310/213
f 296/322/104 276/315/104 275/318/104 294/317/104
f 298/324/104 295/320/104 243/319/104 276/315/104
f 276/315/104 243/319/104 244/316/104
f 56/50/31 61/41/31 58/87/31
f 299/359/275 300/360/275 302/361/275 301/362/275
f 301/362/276 302/361/276 304/363/276 303/364/276
f 303/364/277 304/363/277 306/365/277 305/366/277
f 305/366/278 306/365/278 308/367/278 307/368/278
f 307/368/279 308/367/279 310/369/279 309/370/279
f 309/370/280 310/369/280 312/371/280 311/372/280
f 311/372/281 312/371/281 314/373/281 313/374/281
f 313/374/282 314/373/282 316/375/282 315/376/282
f 312/371/9 310/369/9 322/377/9 323/378/9
f 322/377/279 321/379/279 330/380/279 331/381/279
f 304/363/9 302/361/9 318/382/9 319/383/9
f 314/373/9 312/371/9 323/378/9 324/384/9
f 306/365/9 304/363/9 319/383/9 320/385/9
f 316/375/9 314/373/9 324/384/9 325/386/9
f 308/367/9 306/365/9 320/385/9 321/379/9
f 310/369/9 308/367/9 321/379/9 322/377/9
f 302/361/9 300/360/9 317/387/9 318/382/9
f 323/378/280 322/377/280 331/381/280 332/388/280
f 324/384/281 323/378/281 332/388/281 333/389/281
f 325/386/282 324/384/282 333/389/282 334/390/282
f 318/382/275 317/387/275 326/391/275 327/392/275
f 319/383/276 318/382/276 327/392/276 328/393/276
f 320/385/277 319/383/277 328/393/277 329/394/277
f 321/379/278 320/385/278 329/394/278 330/380/278
f 333/389/29 332/388/29 341/395/29 342/396/29
f 334/390/29 333/389/29 342/396/29 343/397/29
f 327/392/29 326/391/29 335/398/29 336/399/29
f 328/393/29 327/392/29 336/399/29 337/400/29
f 329/394/29 328/393/29 337/400/29 338/401/29
f 330/380/29 329/394/29 338/401/29 339/402/29
f 331/381/29 330/380/29 339/402/29 340/403/29
f 332/388/29 331/381/29 340/403/29 341/395/29
f 336/399/275 335/398/275 344/404/275 345/405/275
f 337/400/276 336/399/276 345/405/276 346/406/276
f 338/401/277 337/400/277 346/406/277 347/407/277
f 339/402/278 338/401/278 347/407/278 348/408/278
f 340/403/279 339/402/279 348/408/279 349/409/279
f 341/395/280 340/403/280 349/409/280 350/410/280
f 342/396/281 341/395/281 350/410/281 351/411/281
f 343/397/282 342/396/282 351/411/282 352/412/282
f 406/413/276 403/414/276 354/415/276 355/416/276
f 409/417/277 406/413/277 355/416/277 356/418/277
f 412/419/278 409/417/278 356/418/278 357/420/278
f 415/421/279 412/419/279 357/420/279 358/422/279
f 418/423/280 415/421/280 358/422/280 359/424/280
f 421/425/281 418/423/281 359/424/281 360/426/281
f 424/427/282 421/425/282 360/426/282 361/428/282
f 356/418/283 355/416/283 364/429/283 365/430/283
f 357/420/284 356/418/284 365/430/284 366/431/284
f 358/422/285 357/420/285 366/431/285 367/432/285
f 359/424/286 358/422/286 367/432/286 368/433/286
f 360/426/287 359/424/287 368/433/287 369/434/287
f 361/428/288 360/426/288 369/434/288 370/435/288
f 354/415/289 353/436/289 362/437/289 363/438/289
f 355/416/290 354/415/290 363/438/290 364/429/290
f 368/433/291 367/432/291 376/439/291 377/440/291
f 369/434/292 368/433/292 377/440/292 378/441/292
f 370/435/293 369/434/293 378/441/293 379/442/293
f 363/438/294 362/437/294 371/443/294 372/444/294
f 364/429/295 363/438/295 372/444/295 373/445/295
f 365/430/296 364/429/296 373/445/296 374/446/296
f 366/431/297 365/430/297 374/446/297 375/447/297
f 367/432/298 366/431/298 375/447/298 376/439/298
f 372/444/299 371/443/299 380/448/299 381/449/299
f 373/445/300 372/444/300 381/449/300 382/450/300
f 374/446/301 373/445/301 382/450/301 383/451/301
f 375/447/302 374/446/302 383/451/302 384/452/302
f 376/439/303 375/447/303 384/452/303 385/453/303
f 377/440/304 376/439/304 385/453/304 386/454/304
f 378/441/305 377/440/305 386/454/305 387/455/305
f 379/442/306 378/441/306 387/455/306 388/456/306
f 381/449/307 380/448/307 389/457/307 390/458/307
f 382/450/308 381/449/308 390/458/308 391/459/308
f 383/451/309 382/450/309 391/459/309 392/460/309
f 384/452/310 383/451/310 392/460/310 393/461/310
f 385/453/311 384/452/311 393/461/311 394/462/311
f 386/454/312 385/453/312 394/462/312 395/463/312
f 387/455/313 386/454/313 395/463/313 396/464/313
f 388/456/314 387/455/314 396/464/314 397/465/314
f 389/457/315 398/466/315 391/459/315 390/458/315
f 391/459/316 398/466/316 393/461/316 392/460/316
f 393/461/317 398/466/317 395/463/317 394/462/317
f 395/463/318 398/466/318 397/465/318 396/464/318
f 583/467/29 353/468/29 354/469/29 400/470/29
f 405/471/104 345/472/104 399/473/104 429/474/104
f 429/474/104 399/473/104 401/475/104 432/476/104
f 344/477/9 582/478/9 399/473/9 345/472/9
f 583/467/319 400/470/319 402/479/319 585/480/319
f 588/481/320 589/482/320 431/483/320 432/476/320
f 589/482/321 590/484/321 428/485/321 431/483/321
f 590/484/322 586/486/322 427/487/322 428/485/322
f 400/470/104 427/487/104 430/488/104 402/479/104
f 428/485/104 429/474/104 432/476/104 431/483/104
f 354/469/104 403/489/104 427/487/104 400/470/104
f 403/489/104 404/490/104 428/485/104 427/487/104
f 404/490/104 405/471/104 429/474/104 428/485/104
f 352/412/282 351/411/282 423/491/282 426/492/282
f 426/492/282 423/491/282 422/493/282 425/494/282
f 425/494/282 422/493/282 421/425/282 424/427/282
f 351/411/281 350/410/281 420/495/281 423/491/281
f 423/491/281 420/495/281 419/496/281 422/493/281
f 422/493/281 419/496/281 418/423/281 421/425/281
f 350/410/280 349/409/280 417/497/280 420/495/280
f 420/495/280 417/497/280 416/498/280 419/496/280
f 419/496/280 416/498/280 415/421/280 418/423/280
f 349/409/279 348/408/279 414/499/279 417/497/279
f 417/497/279 414/499/279 413/500/279 416/498/279
f 416/498/279 413/500/279 412/419/279 415/421/279
f 348/408/278 347/407/278 411/501/278 414/499/278
f 414/499/278 411/501/278 410/502/278 413/500/278
f 413/500/278 410/502/278 409/417/278 412/419/278
f 347/407/277 346/406/277 408/503/277 411/501/277
f 411/501/277 408/503/277 407/504/277 410/502/277
f 410/502/277 407/504/277 406/413/277 409/417/277
f 346/406/276 345/405/276 405/505/276 408/503/276
f 408/503/276 405/505/276 404/506/276 407/504/276
f 407/504/276 404/506/276 403/414/276 406/413/276
f 588/481/323 432/476/323 434/507/323 592/508/323
f 432/476/104 401/475/104 433/509/104 434/507/104
f 435/510/324 437/511/324 438/512/324 436/513/324
f 437/511/325 439/514/325 440/515/325 438/512/325
f 439/514/326 441/516/326 442/517/326 440/515/326
f 441/516/327 443/518/327 444/519/327 442/517/327
f 443/518/328 445/520/328 446/521/328 444/519/328
f 445/520/329 447/522/329 448/523/329 446/521/329
f 447/522/330 449/524/330 450/525/330 448/523/330
f 449/524/331 315/376/331 316/375/331 450/525/331
f 448/523/9 457/526/9 456/527/9 446/521/9
f 456/527/328 464/528/328 463/529/328 455/530/328
f 440/515/9 453/531/9 452/532/9 438/512/9
f 450/525/9 458/533/9 457/526/9 448/523/9
f 442/517/9 454/534/9 453/531/9 440/515/9
f 316/375/9 325/386/9 458/533/9 450/525/9
f 444/519/9 455/530/9 454/534/9 442/517/9
f 446/521/9 456/527/9 455/530/9 444/519/9
f 438/512/9 452/532/9 451/535/9 436/513/9
f 457/526/329 465/536/329 464/528/329 456/527/329
f 458/533/330 466/537/330 465/536/330 457/526/330
f 325/386/331 334/390/331 466/537/331 458/533/331
f 452/532/324 460/538/324 459/539/324 451/535/324
f 453/531/325 461/540/325 460/538/325 452/532/325
f 454/534/326 462/541/326 461/540/326 453/531/326
f 455/530/327 463/529/327 462/541/327 454/534/327
f 466/537/29 474/542/29 473/543/29 465/536/29
f 334/390/29 343/397/29 474/542/29 466/537/29
f 460/538/29 468/544/29 467/545/29 459/539/29
f 461/540/29 469/546/29 468/544/29 460/538/29
f 462/541/29 470/547/29 469/546/29 461/540/29
f 463/529/29 471/548/29 470/547/29 462/541/29
f 464/528/29 472/549/29 471/548/29 463/529/29
f 465/536/29 473/543/29 472/549/29 464/528/29
f 468/544/324 476/550/324 475/551/324 467/545/324
f 469/546/325 477/552/325 476/550/325 468/544/325
f 470/547/326 478/553/326 477/552/326 469/546/326
f 471/548/327 479/554/327 478/553/327 470/547/327
f 472/549/328 480/555/328 479/554/328 471/548/328
f 473/543/329 481/556/329 480/555/329 472/549/329
f 474/542/330 482/557/330 481/556/330 473/543/330
f 343/397/331 352/412/331 482/557/331 474/542/331
f 526/558/325 485/559/325 484/560/325 523/561/325
f 529/562/326 486/563/326 485/559/326 526/558/326
f 532/564/327 487/565/327 486/563/327 529/562/327
f 535/566/328 488/567/328 487/565/328 532/564/328
f 538/568/329 489/569/329 488/567/329 535/566/329
f 541/570/330 490/571/330 489/569/330 538/568/330
f 424/427/331 361/428/331 490/571/331 541/570/331
f 486/563/332 494/572/332 493/573/332 485/559/332
f 487/565/333 495/574/333 494/572/333 486/563/333
f 488/567/334 496/575/334 495/574/334 487/565/334
f 489/569/335 497/576/335 496/575/335 488/567/335
f 490/571/336 498/577/336 497/576/336 489/569/336
f 361/428/337 370/435/337 498/577/337 490/571/337
f 484/560/338 492/578/338 491/579/338 483/580/338
f 485/559/339 493/573/339 492/578/339 484/560/339
f 497/576/340 505/581/340 504/582/340 496/575/340
f 498/577/341 506/583/341 505/581/341 497/576/341
f 370/435/342 379/442/342 506/583/342 498/577/342
f 492/578/343 500/584/343 499/585/343 491/579/343
f 493/573/344 501/586/344 500/584/344 492/578/344
f 494/572/345 502/587/345 501/586/345 493/573/345
f 495/574/346 503/588/346 502/587/346 494/572/346
f 496/575/347 504/582/347 503/588/347 495/574/347
f 500/584/348 508/589/348 507/590/348 499/585/348
f 501/586/349 509/591/349 508/589/349 500/584/349
f 502/587/350 510/592/350 509/591/350 501/586/350
f 503/588/351 511/593/351 510/592/351 502/587/351
f 504/582/352 512/594/352 511/593/352 503/588/352
f 505/581/353 513/595/353 512/594/353 504/582/353
f 506/583/354 514/596/354 513/595/354 505/581/354
f 379/442/355 388/456/355 514/596/355 506/583/355
f 508/589/356 516/597/356 515/598/356 507/590/356
f 509/591/357 517/599/357 516/597/357 508/589/357
f 510/592/358 518/600/358 517/599/358 509/591/358
f 511/593/359 519/601/359 518/600/359 510/592/359
f 512/594/360 520/602/360 519/601/360 511/593/360
f 513/595/361 521/603/361 520/602/361 512/594/361
f 514/596/362 522/604/362 521/603/362 513/595/362
f 388/456/363 397/465/363 522/604/363 514/596/363
f 515/598/364 516/597/364 517/599/364 398/466/364
f 517/599/365 518/600/365 519/601/365 398/466/365
f 519/601/366 520/602/366 521/603/366 398/466/366
f 521/603/367 522/604/367 397/465/367 398/466/367
f 352/412/331 426/492/331 543/605/331 482/557/331
f 426/492/331 425/494/331 542/606/331 543/605/331
f 425/494/331 424/427/331 541/570/331 542/606/331
f 482/557/330 543/605/330 540/607/330 481/556/330
f 543/605/330 542/606/330 539/608/330 540/607/330
f 542/606/330 541/570/330 538/568/330 539/608/330
f 481/556/329 540/607/329 537/609/329 480/555/329
f 540/607/329 539/608/329 536/610/329 537/609/329
f 539/608/329 538/568/329 535/566/329 536/610/329
f 480/555/328 537/609/328 534/611/328 479/554/328
f 537/609/328 536/610/328 533/612/328 534/611/328
f 536/610/328 535/566/328 532/564/328 533/612/328
f 479/554/327 534/611/327 531/613/327 478/553/327
f 534/611/327 533/612/327 530/614/327 531/613/327
f 533/612/327 532/564/327 529/562/327 530/614/327
f 478/553/326 531/613/326 528/615/326 477/552/326
f 531/613/326 530/614/326 527/616/326 528/615/326
f 530/614/326 529/562/326 526/558/326 527/616/326
f 477/552/325 528/615/325 525/617/325 476/550/325
f 528/615/325 527/616/325 524/618/325 525/617/325
f 527/616/325 526/558/325 523/561/325 524/618/325
f 443/518/368 441/516/368 556/619/368 557/620/368
f 313/374/369 315/376/369 552/621/369 551/622/369
f 305/366/370 307/368/370 548/623/370 547/624/370
f 445/520/371 443/518/371 557/620/371 558/625/371
f 437/511/372 435/510/372 553/626/372 554/627/372
f 307/368/373 309/370/373 549/628/373 548/623/373
f 447/522/374 445/520/374 558/625/374 559/629/374
f 299/359/375 301/362/375 545/630/375 544/631/375
f 439/514/376 437/511/376 554/627/376 555/632/376
f 309/370/377 311/372/377 550/633/377 549/628/377
f 449/524/378 447/522/378 559/629/378 560/634/378
f 301/362/379 303/364/379 546/635/379 545/630/379
f 441/516/380 439/514/380 555/632/380 556/619/380
f 311/372/381 313/374/381 551/622/381 550/633/381
f 315/376/382 449/524/382 560/634/382 552/621/382
f 303/364/383 305/366/383 547/624/383 546/635/383
f 476/550/324 525/617/324 563/636/324 475/551/324
f 561/637/324 523/561/324 484/560/324 483/580/324
f 562/638/324 524/618/324 523/561/324 561/637/324
f 563/636/324 525/617/324 524/618/324 562/638/324
f 559/629/329 558/625/329 578/639/329 579/640/329
f 560/634/330 559/629/330 579/640/330 580/641/330
f 552/621/331 560/634/331 580/641/331 572/642/331
f 544/631/275 545/630/275 565/643/275 564/644/275
f 545/630/276 546/635/276 566/645/276 565/643/276
f 546/635/277 547/624/277 567/646/277 566/645/277
f 554/627/324 553/626/324 573/647/324 574/648/324
f 547/624/278 548/623/278 568/649/278 567/646/278
f 555/632/325 554/627/325 574/648/325 575/650/325
f 548/623/279 549/628/279 569/651/279 568/649/279
f 556/619/326 555/632/326 575/650/326 576/652/326
f 549/628/280 550/633/280 570/653/280 569/651/280
f 557/620/327 556/619/327 576/652/327 577/654/327
f 550/633/281 551/622/281 571/655/281 570/653/281
f 558/625/328 557/620/328 577/654/328 578/639/328
f 551/622/282 552/621/282 572/642/282 571/655/282
f 573/647/9 581/656/9 575/650/9 574/648/9
f 575/650/9 581/656/9 577/654/9 576/652/9
f 577/654/9 581/656/9 579/640/9 578/639/9
f 579/640/9 581/656/9 572/642/9 580/641/9
f 572/642/9 581/656/9 570/653/9 571/655/9
f 570/653/9 581/656/9 568/649/9 569/651/9
f 568/649/9 581/656/9 566/645/9 567/646/9
f 566/645/9 581/656/9 564/644/9 565/643/9
f 433/509/384 591/657/384 592/508/384 434/507/384
f 402/479/384 430/488/384 587/658/384 585/480/384
f 427/487/385 586/486/385 587/658/385 430/488/385
f 399/473/9 582/478/9 584/659/9 401/475/9
f 401/475/386 584/659/386 591/657/386 433/509/386
f 299/660/387 593/661/387 594/662/387 300/663/387
f 593/661/388 595/664/388 596/665/388 594/662/388
f 595/664/389 597/666/389 598/667/389 596/665/389
f 597/666/390 599/668/390 600/669/390 598/667/390
f 599/668/391 601/670/391 602/671/391 600/669/391
f 601/670/392 603/672/392 604/673/392 602/671/392
f 603/672/393 605/674/393 606/675/393 604/673/393
f 605/674/394 607/676/394 608/677/394 606/675/394
f 604/673/9 614/678/9 613/679/9 602/671/9
f 613/679/391 621/680/391 620/681/391 612/682/391
f 596/665/9 610/683/9 609/684/9 594/662/9
f 606/675/9 615/685/9 614/678/9 604/673/9
f 598/667/9 611/686/9 610/683/9 596/665/9
f 608/677/9 616/687/9 615/685/9 606/675/9
f 600/669/9 612/682/9 611/686/9 598/667/9
f 602/671/9 613/679/9 612/682/9 600/669/9
f 594/662/9 609/684/9 317/688/9 300/663/9
f 614/678/392 622/689/392 621/680/392 613/679/392
f 615/685/393 623/690/393 622/689/393 614/678/393
f 616/687/394 624/691/394 623/690/394 615/685/394
f 609/684/387 617/692/387 326/693/387 317/688/387
f 610/683/388 618/694/388 617/692/388 609/684/388
f 611/686/389 619/695/389 618/694/389 610/683/389
f 612/682/390 620/681/390 619/695/390 611/686/390
f 623/690/29 631/696/29 630/697/29 622/689/29
f 624/691/29 632/698/29 631/696/29 623/690/29
f 617/692/29 625/699/29 335/700/29 326/693/29
f 618/694/29 626/701/29 625/699/29 617/692/29
f 619/695/29 627/702/29 626/701/29 618/694/29
f 620/681/29 628/703/29 627/702/29 619/695/29
f 621/680/29 629/704/29 628/703/29 620/681/29
f 622/689/29 630/697/29 629/704/29 621/680/29
f 625/699/387 633/705/387 344/706/387 335/700/387
f 626/701/388 634/707/388 633/705/388 625/699/388
f 627/702/389 635/708/389 634/707/389 626/701/389
f 628/703/390 636/709/390 635/708/390 627/702/390
f 629/704/391 637/710/391 636/709/391 628/703/391
f 630/697/392 638/711/392 637/710/392 629/704/392
f 631/696/393 639/712/393 638/711/393 630/697/393
f 632/698/394 640/713/394 639/712/394 631/696/394
f 688/714/388 642/715/388 641/716/388 685/717/388
f 691/718/389 643/719/389 642/715/389 688/714/389
f 694/720/390 644/721/390 643/719/390 691/718/390
f 697/722/391 645/723/391 644/721/391 694/720/391
f 700/724/392 646/725/392 645/723/392 697/722/392
f 703/726/393 647/727/393 646/725/393 700/724/393
f 706/728/394 648/729/394 647/727/394 703/726/394
f 643/719/395 651/730/395 650/731/395 642/715/395
f 644/721/396 652/732/396 651/730/396 643/719/396
f 645/723/397 653/733/397 652/732/397 644/721/397
f 646/725/398 654/734/398 653/733/398 645/723/398
f 647/727/399 655/735/399 654/734/399 646/725/399
f 648/729/400 656/736/400 655/735/400 647/727/400
f 641/716/401 649/737/401 362/738/401 353/739/401
f 642/715/402 650/731/402 649/737/402 641/716/402
f 654/734/403 662/740/403 661/741/403 653/733/403
f 655/735/404 663/742/404 662/740/404 654/734/404
f 656/736/405 664/743/405 663/742/405 655/735/405
f 649/737/406 657/744/406 371/745/406 362/738/406
f 650/731/407 658/746/407 657/744/407 649/737/407
f 651/730/408 659/747/408 658/746/408 650/731/408
f 652/732/409 660/748/409 659/747/409 651/730/409
f 653/733/410 661/741/410 660/748/410 652/732/410
f 657/744/411 665/749/411 380/750/411 371/745/411
f 658/746/412 666/751/412 665/749/412 657/744/412
f 659/747/413 667/752/413 666/751/413 658/746/413
f 660/748/414 668/753/414 667/752/414 659/747/414
f 661/741/415 669/754/415 668/753/415 660/748/415
f 662/740/416 670/755/416 669/754/416 661/741/416
f 663/742/417 671/756/417 670/755/417 662/740/417
f 664/743/418 672/757/418 671/756/418 663/742/418
f 665/749/419 673/758/419 389/759/419 380/750/419
f 666/751/420 674/760/420 673/758/420 665/749/420
f 667/752/421 675/761/421 674/760/421 666/751/421
f 668/753/422 676/762/422 675/761/422 667/752/422
f 669/754/423 677/763/423 676/762/423 668/753/423
f 670/755/424 678/764/424 677/763/424 669/754/424
f 671/756/425 679/765/425 678/764/425 670/755/425
f 672/757/426 680/766/426 679/765/426 671/756/426
f 389/759/427 673/758/427 674/760/427 398/767/427
f 674/760/428 675/761/428 676/762/428 398/767/428
f 676/762/429 677/763/429 678/764/429 398/767/429
f 678/764/430 679/765/430 680/766/430 398/767/430
f 583/768/29 682/769/29 641/770/29 353/771/29
f 687/772/31 711/773/31 681/774/31 633/775/31
f 711/773/31 714/776/31 683/777/31 681/774/31
f 344/778/9 633/775/9 681/774/9 582/779/9
f 583/768/319 585/780/319 684/781/319 682/769/319
f 588/782/320 714/776/320 713/783/320 589/784/320
f 589/784/321 713/783/321 710/785/321 590/786/321
f 590/786/322 710/785/322 709/787/322 586/788/322
f 682/769/31 684/781/31 712/789/31 709/787/31
f 710/785/31 713/783/31 714/776/31 711/773/31
f 641/770/31 682/769/31 709/787/31 685/790/31
f 685/790/31 709/787/31 710/785/31 686/791/31
f 686/791/31 710/785/31 711/773/31 687/772/31
f 640/713/394 708/792/394 705/793/394 639/712/394
f 708/792/394 707/794/394 704/795/394 705/793/394
f 707/794/394 706/728/394 703/726/394 704/795/394
f 639/712/393 705/793/393 702/796/393 638/711/393
f 705/793/393 704/795/393 701/797/393 702/796/393
f 704/795/393 703/726/393 700/724/393 701/797/393
f 638/711/392 702/796/392 699/798/392 637/710/392
f 702/796/392 701/797/392 698/799/392 699/798/392
f 701/797/392 700/724/392 697/722/392 698/799/392
f 637/710/391 699/798/391 696/800/391 636/709/391
f 699/798/391 698/799/391 695/801/391 696/800/391
f 698/799/391 697/722/391 694/720/391 695/801/391
f 636/709/390 696/800/390 693/802/390 635/708/390
f 696/800/390 695/801/390 692/803/390 693/802/390
f 695/801/390 694/720/390 691/718/390 692/803/390
f 635/708/389 693/802/389 690/804/389 634/707/389
f 693/802/389 692/803/389 689/805/389 690/804/389
f 692/803/389 691/718/389 688/714/389 689/805/389
f 634/707/388 690/804/388 687/806/388 633/705/388
f 690/804/388 689/805/388 686/807/388 687/806/388
f 689/805/388 688/714/388 685/717/388 686/807/388
f 588/782/323 592/808/323 716/809/323 714/776/323
f 714/776/31 716/809/31 715/810/31 683/777/31
f 435/811/431 436/812/431 718/813/431 717/814/431
f 717/814/432 718/813/432 720/815/432 719/816/432
f 719/816/433 720/815/433 722/817/433 721/818/433
f 721/818/434 722/817/434 724/819/434 723/820/434
f 723/820/435 724/819/435 726/821/435 725/822/435
f 725/822/436 726/821/436 728/823/436 727/824/436
f 727/824/437 728/823/437 730/825/437 729/826/437
f 729/826/438 730/825/438 608/677/438 607/676/438
f 728/823/9 726/821/9 735/827/9 736/828/9
f 735/827/435 734/829/435 741/830/435 742/831/435
f 720/815/9 718/813/9 731/832/9 732/833/9
f 730/825/9 728/823/9 736/828/9 737/834/9
f 722/817/9 720/815/9 732/833/9 733/835/9
f 608/677/9 730/825/9 737/834/9 616/687/9
f 724/819/9 722/817/9 733/835/9 734/829/9
f 726/821/9 724/819/9 734/829/9 735/827/9
f 718/813/9 436/812/9 451/836/9 731/832/9
f 736/828/436 735/827/436 742/831/436 743/837/436
f 737/834/437 736/828/437 743/837/437 744/838/437
f 616/687/438 737/834/438 744/838/438 624/691/438
f 731/832/431 451/836/431 459/839/431 738/840/431
f 732/833/432 731/832/432 738/840/432 739/841/432
f 733/835/433 732/833/433 739/841/433 740/842/433
f 734/829/434 733/835/434 740/842/434 741/830/434
f 744/838/29 743/837/29 750/843/29 751/844/29
f 624/691/29 744/838/29 751/844/29 632/698/29
f 738/840/29 459/839/29 467/845/29 745/846/29
f 739/841/29 738/840/29 745/846/29 746/847/29
f 740/842/29 739/841/29 746/847/29 747/848/29
f 741/830/29 740/842/29 747/848/29 748/849/29
f 742/831/29 741/830/29 748/849/29 749/850/29
f 743/837/29 742/831/29 749/850/29 750/843/29
f 745/846/431 467/845/431 475/851/431 752/852/431
f 746/847/432 745/846/432 752/852/432 753/853/432
f 747/848/433 746/847/433 753/853/433 754/854/433
f 748/849/434 747/848/434 754/854/434 755/855/434
f 749/850/435 748/849/435 755/855/435 756/856/435
f 750/843/436 749/850/436 756/856/436 757/857/436
f 751/844/437 750/843/437 757/857/437 758/858/437
f 632/698/438 751/844/438 758/858/438 640/713/438
f 797/859/432 794/860/432 759/861/432 760/862/432
f 800/863/433 797/859/433 760/862/433 761/864/433
f 803/865/434 800/863/434 761/864/434 762/866/434
f 806/867/435 803/865/435 762/866/435 763/868/435
f 809/869/436 806/867/436 763/868/436 764/870/436
f 812/871/437 809/869/437 764/870/437 765/872/437
f 706/728/438 812/871/438 765/872/438 648/729/438
f 761/864/439 760/862/439 767/873/439 768/874/439
f 762/866/440 761/864/440 768/874/440 769/875/440
f 763/868/441 762/866/441 769/875/441 770/876/441
f 764/870/442 763/868/442 770/876/442 771/877/442
f 765/872/443 764/870/443 771/877/443 772/878/443
f 648/729/444 765/872/444 772/878/444 656/736/444
f 759/861/445 483/879/445 491/880/445 766/881/445
f 760/862/446 759/861/446 766/881/446 767/873/446
f 771/877/447 770/876/447 777/882/447 778/883/447
f 772/878/448 771/877/448 778/883/448 779/884/448
f 656/736/449 772/878/449 779/884/449 664/743/449
f 766/881/450 491/880/450 499/885/450 773/886/450
f 767/873/451 766/881/451 773/886/451 774/887/451
f 768/874/452 767/873/452 774/887/452 775/888/452
f 769/875/453 768/874/453 775/888/453 776/889/453
f 770/876/454 769/875/454 776/889/454 777/882/454
f 773/886/455 499/885/455 507/890/455 780/891/455
f 774/887/456 773/886/456 780/891/456 781/892/456
f 775/888/457 774/887/457 781/892/457 782/893/457
f 776/889/458 775/888/458 782/893/458 783/894/458
f 777/882/459 776/889/459 783/894/459 784/895/459
f 778/883/460 777/882/460 784/895/460 785/896/460
f 779/884/461 778/883/461 785/896/461 786/897/461
f 664/743/462 779/884/462 786/897/462 672/757/462
f 780/891/463 507/890/463 515/898/463 787/899/463
f 781/892/464 780/891/464 787/899/464 788/900/464
f 782/893/465 781/892/465 788/900/465 789/901/465
f 783/894/466 782/893/466 789/901/466 790/902/466
f 784/895/467 783/894/467 790/902/467 791/903/467
f 785/896/468 784/895/468 791/903/468 792/904/468
f 786/897/469 785/896/469 792/904/469 793/905/469
f 672/757/470 786/897/470 793/905/470 680/766/470
f 515/898/471 398/767/471 788/900/471 787/899/471
f 788/900/472 398/767/472 790/902/472 789/901/472
f 790/902/473 398/767/473 792/904/473 791/903/473
f 792/904/474 398/767/474 680/766/474 793/905/474
f 640/713/438 758/858/438 814/906/438 708/792/438
f 708/792/438 814/906/438 813/907/438 707/794/438
f 707/794/438 813/907/438 812/871/438 706/728/438
f 758/858/437 757/857/437 811/908/437 814/906/437
f 814/906/437 811/908/437 810/909/437 813/907/437
f 813/907/437 810/909/437 809/869/437 812/871/437
f 757/857/436 756/856/436 808/910/436 811/908/436
f 811/908/436 808/910/436 807/911/436 810/909/436
f 810/909/436 807/911/436 806/867/436 809/869/436
f 756/856/435 755/855/435 805/912/435 808/910/435
f 808/910/435 805/912/435 804/913/435 807/911/435
f 807/911/435 804/913/435 803/865/435 806/867/435
f 755/855/434 754/854/434 802/914/434 805/912/434
f 805/912/434 802/914/434 801/915/434 804/913/434
f 804/913/434 801/915/434 800/863/434 803/865/434
f 754/854/433 753/853/433 799/916/433 802/914/433
f 802/914/433 799/916/433 798/917/433 801/915/433
f 801/915/433 798/917/433 797/859/433 800/863/433
f 753/853/432 752/852/432 796/918/432 799/916/432
f 799/916/432 796/918/432 795/919/432 798/917/432
f 798/917/432 795/919/432 794/860/432 797/859/432
f 723/820/475 826/920/475 825/921/475 721/818/475
f 605/674/476 821/922/476 822/923/476 607/676/476
f 597/666/477 817/924/477 818/925/477 599/668/477
f 725/822/478 827/926/478 826/920/478 723/820/478
f 717/814/479 823/927/479 553/928/479 435/811/479
f 599/668/480 818/925/480 819/929/480 601/670/480
f 727/824/481 828/930/481 827/926/481 725/822/481
f 299/660/482 544/931/482 815/932/482 593/661/482
f 719/816/483 824/933/483 823/927/483 717/814/483
f 601/670/484 819/929/484 820/934/484 603/672/484
f 729/826/485 829/935/485 828/930/485 727/824/485
f 593/661/486 815/932/486 816/936/486 595/664/486
f 721/818/487 825/921/487 824/933/487 719/816/487
f 603/672/488 820/934/488 821/922/488 605/674/488
f 607/676/489 822/923/489 829/935/489 729/826/489
f 595/664/490 816/936/490 817/924/490 597/666/490
f 752/852/431 475/851/431 563/937/431 796/918/431
f 561/938/431 483/879/431 759/861/431 794/860/431
f 562/939/431 561/938/431 794/860/431 795/919/431
f 563/937/431 562/939/431 795/919/431 796/918/431
f 828/930/436 843/940/436 842/941/436 827/926/436
f 829/935/437 844/942/437 843/940/437 828/930/437
f 822/923/438 837/943/438 844/942/438 829/935/438
f 544/931/387 564/944/387 830/945/387 815/932/387
f 815/932/388 830/945/388 831/946/388 816/936/388
f 816/936/389 831/946/389 832/947/389 817/924/389
f 823/927/431 838/948/431 573/949/431 553/928/431
f 817/924/390 832/947/390 833/950/390 818/925/390
f 824/933/432 839/951/432 838/948/432 823/927/432
f 818/925/391 833/950/391 834/952/391 819/929/391
f 825/921/433 840/953/433 839/951/433 824/933/433
f 819/929/392 834/952/392 835/954/392 820/934/392
f 826/920/434 841/955/434 840/953/434 825/921/434
f 820/934/393 835/954/393 836/956/393 821/922/393
f 827/926/435 842/941/435 841/955/435 826/920/435
f 821/922/394 836/956/394 837/943/394 822/923/394
f 573/949/9 838/948/9 839/951/9 581/957/9
f 839/951/9 840/953/9 841/955/9 581/957/9
f 841/955/9 842/941/9 843/940/9 581/957/9
f 843/940/9 844/942/9 837/943/9 581/957/9
f 837/943/9 836/956/9 835/954/9 581/957/9
f 835/954/9 834/952/9 833/950/9 581/957/9
f 833/950/9 832/947/9 831/946/9 581/957/9
f 831/946/9 830/945/9 564/944/9 581/957/9
f 715/810/384 716/809/384 592/808/384 591/958/384
f 684/781/384 585/780/384 587/959/384 712/789/384
f 709/787/385 712/789/385 587/959/385 586/788/385
f 681/774/9 683/777/9 584/960/9 582/779/9
f 683/777/386 715/810/386 591/958/386 584/960/386
f 135/127/104 132/126/104 134/177/104 137/144/104
f 274/299/104 276/315/104 273/344/104 271/300/104
f 207/233/31 204/961/31 206/263/31 209/225/31
