# Blender 4.4.0
# www.blender.org
mtllib Llave 1.mtl
o Llave_1
v -1.000000 0.000000 0.092442
v 1.000000 0.000000 0.092442
v -1.000000 0.206484 0.092442
v 1.000000 0.220998 0.092442
v -0.940170 0.000000 0.161688
v -0.940170 0.230281 0.161688
v 0.942184 0.000000 0.161688
v 0.942184 0.242956 0.161688
v 1.000000 0.000000 0.000000
v -1.000000 0.000000 0.000000
v 1.000000 0.220998 0.000000
v -1.000000 0.206484 0.000000
v -0.873230 0.000000 0.154514
v -0.873230 0.242723 0.154514
v 0.889631 0.000000 0.154514
v 0.889631 0.254044 0.154514
v -0.873230 0.000000 0.126271
v -0.873230 0.242723 0.126271
v 0.889631 0.000000 0.126271
v 0.612949 0.000000 0.126271
v 0.612949 0.284876 0.126271
v 0.889631 0.254044 0.126271
v 0.549236 0.945051 0.092442
v 0.808960 0.905639 0.092442
v 0.634128 0.946274 0.092442
v 0.729194 0.931848 0.092442
v 0.876030 0.874426 0.092442
v 1.000000 0.678310 0.092442
v 0.938015 0.827034 0.092442
v 0.983391 0.755251 0.092442
v 0.816499 0.817446 0.161688
v 0.942184 0.624415 0.161688
v 0.879341 0.771721 0.161688
v 0.925345 0.701066 0.161688
v 0.771170 0.837019 0.161688
v 0.509443 0.874207 0.161688
v 0.690563 0.861666 0.161688
v 0.594764 0.875278 0.161688
v 0.549334 0.945064 0.000000
v 0.808958 0.905640 0.000000
v 0.634176 0.946280 0.000000
v 0.729205 0.931850 0.000000
v 0.876075 0.874405 0.000000
v 1.000000 0.678425 0.000000
v 0.938038 0.827039 0.000000
v 0.983397 0.755305 0.000000
v 0.762599 0.771016 0.154514
v 0.889631 0.579828 0.154514
v 0.826115 0.726254 0.154514
v 0.872612 0.656274 0.154514
v 0.475637 0.816873 0.154514
v 0.738378 0.780991 0.154514
v 0.561097 0.817839 0.154514
v 0.657267 0.804705 0.154514
v 0.889631 0.579960 0.126271
v 0.762668 0.770988 0.126271
v 0.872621 0.656336 0.126271
v 0.826149 0.726257 0.126271
v 0.738371 0.780994 0.126271
v 0.475742 0.816885 0.126271
v 0.612949 0.697198 0.126271
v 0.657278 0.804708 0.126271
v 0.561149 0.817845 0.126271
v -0.645445 0.789969 0.092442
v -0.904742 0.565931 0.092442
v -0.728655 0.764676 0.092442
v -0.807153 0.713217 0.092442
v -0.868986 0.643428 0.092442
v -0.904730 0.565975 0.000000
v -0.645673 0.789940 0.000000
v -0.868996 0.643452 0.000000
v -0.807216 0.713222 0.000000
v -0.728796 0.764661 0.000000
v -0.857390 0.520099 0.161688
v -0.593353 0.741386 0.161688
v -0.820108 0.597102 0.161688
v -0.756838 0.666196 0.161688
v -0.677212 0.716862 0.161688
v -0.801675 0.481653 0.154514
v -0.534503 0.700839 0.154514
v -0.763415 0.558182 0.154514
v -0.699206 0.626711 0.154514
v -0.618822 0.676805 0.154514
v -0.534781 0.700807 0.126271
v -0.801664 0.481689 0.126271
v -0.618994 0.676788 0.126271
v -0.699284 0.626712 0.126271
v -0.763430 0.558202 0.126271
v -1.000000 0.000000 -0.092442
v 1.000000 0.000000 -0.092442
v -1.000000 0.206484 -0.092442
v 1.000000 0.220998 -0.092442
v -0.940170 0.000000 -0.161688
v -0.940170 0.230281 -0.161688
v 0.942184 0.000000 -0.161688
v 0.942184 0.242956 -0.161688
v -0.873230 0.000000 -0.154514
v -0.873230 0.242723 -0.154514
v 0.889631 0.000000 -0.154514
v 0.889631 0.254044 -0.154514
v -0.873230 0.000000 -0.126271
v -0.873230 0.242723 -0.126271
v 0.889631 0.000000 -0.126271
v 0.612949 0.000000 -0.126271
v 0.612949 0.284876 -0.126271
v 0.889631 0.254044 -0.126271
v 0.549236 0.945051 -0.092442
v 0.808960 0.905639 -0.092442
v 0.634128 0.946274 -0.092442
v 0.729194 0.931848 -0.092442
v 0.876030 0.874426 -0.092442
v 1.000000 0.678310 -0.092442
v 0.938015 0.827034 -0.092442
v 0.983391 0.755251 -0.092442
v 0.816499 0.817446 -0.161688
v 0.942184 0.624415 -0.161688
v 0.879341 0.771721 -0.161688
v 0.925345 0.701066 -0.161688
v 0.771170 0.837019 -0.161688
v 0.509443 0.874207 -0.161688
v 0.690563 0.861666 -0.161688
v 0.594764 0.875278 -0.161688
v 0.762599 0.771016 -0.154514
v 0.889631 0.579828 -0.154514
v 0.826115 0.726254 -0.154514
v 0.872612 0.656274 -0.154514
v 0.475637 0.816873 -0.154514
v 0.738378 0.780991 -0.154514
v 0.561097 0.817839 -0.154514
v 0.657267 0.804705 -0.154514
v 0.889631 0.579960 -0.126271
v 0.762668 0.770988 -0.126271
v 0.872621 0.656336 -0.126271
v 0.826149 0.726257 -0.126271
v 0.738371 0.780994 -0.126271
v 0.475742 0.816885 -0.126271
v 0.612949 0.697198 -0.126271
v 0.657278 0.804708 -0.126271
v 0.561149 0.817845 -0.126271
v -0.645445 0.789969 -0.092442
v -0.904742 0.565931 -0.092442
v -0.728655 0.764676 -0.092442
v -0.807153 0.713217 -0.092442
v -0.868986 0.643428 -0.092442
v -0.857390 0.520099 -0.161688
v -0.593353 0.741386 -0.161688
v -0.820108 0.597102 -0.161688
v -0.756838 0.666196 -0.161688
v -0.677212 0.716862 -0.161688
v -0.801675 0.481653 -0.154514
v -0.534503 0.700839 -0.154514
v -0.763415 0.558182 -0.154514
v -0.699206 0.626711 -0.154514
v -0.618822 0.676805 -0.154514
v -0.534781 0.700807 -0.126271
v -0.801664 0.481689 -0.126271
v -0.618994 0.676788 -0.126271
v -0.699284 0.626712 -0.126271
v -0.763430 0.558202 -0.126271
v -1.000000 -0.206484 0.092442
v 1.000000 -0.220998 0.092442
v -0.940170 -0.230281 0.161688
v 0.942184 -0.242956 0.161688
v 1.000000 -0.220998 0.000000
v -1.000000 -0.206484 0.000000
v -0.873230 -0.242723 0.154514
v 0.889631 -0.254044 0.154514
v -0.873230 -0.242723 0.126271
v 0.612949 -0.284876 0.126271
v 0.889631 -0.254044 0.126271
v 0.549236 -0.945051 0.092442
v 0.808960 -0.905639 0.092442
v 0.634128 -0.946274 0.092442
v 0.729194 -0.931848 0.092442
v 0.876030 -0.874426 0.092442
v 1.000000 -0.678310 0.092442
v 0.938015 -0.827034 0.092442
v 0.983391 -0.755251 0.092442
v 0.816499 -0.817446 0.161688
v 0.942184 -0.624415 0.161688
v 0.879341 -0.771721 0.161688
v 0.925345 -0.701066 0.161688
v 0.771170 -0.837019 0.161688
v 0.509443 -0.874207 0.161688
v 0.690563 -0.861666 0.161688
v 0.594764 -0.875278 0.161688
v 0.549334 -0.945064 0.000000
v 0.808958 -0.905640 0.000000
v 0.634176 -0.946280 0.000000
v 0.729205 -0.931850 0.000000
v 0.876075 -0.874405 0.000000
v 1.000000 -0.678425 0.000000
v 0.938038 -0.827039 0.000000
v 0.983397 -0.755305 0.000000
v 0.762599 -0.771016 0.154514
v 0.889631 -0.579828 0.154514
v 0.826115 -0.726254 0.154514
v 0.872612 -0.656274 0.154514
v 0.475637 -0.816873 0.154514
v 0.738378 -0.780991 0.154514
v 0.561097 -0.817839 0.154514
v 0.657267 -0.804705 0.154514
v 0.889631 -0.579960 0.126271
v 0.762668 -0.770988 0.126271
v 0.872621 -0.656336 0.126271
v 0.826149 -0.726257 0.126271
v 0.738371 -0.780994 0.126271
v 0.475742 -0.816885 0.126271
v 0.612949 -0.697198 0.126271
v 0.657278 -0.804708 0.126271
v 0.561149 -0.817845 0.126271
v -0.645445 -0.789969 0.092442
v -0.904742 -0.565931 0.092442
v -0.728655 -0.764676 0.092442
v -0.807153 -0.713217 0.092442
v -0.868986 -0.643428 0.092442
v -0.904730 -0.565975 0.000000
v -0.645673 -0.789940 0.000000
v -0.868996 -0.643452 0.000000
v -0.807216 -0.713222 0.000000
v -0.728796 -0.764661 0.000000
v -0.857390 -0.520099 0.161688
v -0.593353 -0.741386 0.161688
v -0.820108 -0.597102 0.161688
v -0.756838 -0.666196 0.161688
v -0.677212 -0.716862 0.161688
v -0.801675 -0.481653 0.154514
v -0.534503 -0.700839 0.154514
v -0.763415 -0.558182 0.154514
v -0.699206 -0.626711 0.154514
v -0.618822 -0.676805 0.154514
v -0.534781 -0.700807 0.126271
v -0.801664 -0.481689 0.126271
v -0.618994 -0.676788 0.126271
v -0.699284 -0.626712 0.126271
v -0.763430 -0.558202 0.126271
v -1.000000 -0.206484 -0.092442
v 1.000000 -0.220998 -0.092442
v -0.940170 -0.230281 -0.161688
v 0.942184 -0.242956 -0.161688
v -0.873230 -0.242723 -0.154514
v 0.889631 -0.254044 -0.154514
v -0.873230 -0.242723 -0.126271
v 0.612949 -0.284876 -0.126271
v 0.889631 -0.254044 -0.126271
v 0.549236 -0.945051 -0.092442
v 0.808960 -0.905639 -0.092442
v 0.634128 -0.946274 -0.092442
v 0.729194 -0.931848 -0.092442
v 0.876030 -0.874426 -0.092442
v 1.000000 -0.678310 -0.092442
v 0.938015 -0.827034 -0.092442
v 0.983391 -0.755251 -0.092442
v 0.816499 -0.817446 -0.161688
v 0.942184 -0.624415 -0.161688
v 0.879341 -0.771721 -0.161688
v 0.925345 -0.701066 -0.161688
v 0.771170 -0.837019 -0.161688
v 0.509443 -0.874207 -0.161688
v 0.690563 -0.861666 -0.161688
v 0.594764 -0.875278 -0.161688
v 0.762599 -0.771016 -0.154514
v 0.889631 -0.579828 -0.154514
v 0.826115 -0.726254 -0.154514
v 0.872612 -0.656274 -0.154514
v 0.475637 -0.816873 -0.154514
v 0.738378 -0.780991 -0.154514
v 0.561097 -0.817839 -0.154514
v 0.657267 -0.804705 -0.154514
v 0.889631 -0.579960 -0.126271
v 0.762668 -0.770988 -0.126271
v 0.872621 -0.656336 -0.126271
v 0.826149 -0.726257 -0.126271
v 0.738371 -0.780994 -0.126271
v 0.475742 -0.816885 -0.126271
v 0.612949 -0.697198 -0.126271
v 0.657278 -0.804708 -0.126271
v 0.561149 -0.817845 -0.126271
v -0.645445 -0.789969 -0.092442
v -0.904742 -0.565931 -0.092442
v -0.728655 -0.764676 -0.092442
v -0.807153 -0.713217 -0.092442
v -0.868986 -0.643428 -0.092442
v -0.857390 -0.520099 -0.161688
v -0.593353 -0.741386 -0.161688
v -0.820108 -0.597102 -0.161688
v -0.756838 -0.666196 -0.161688
v -0.677212 -0.716862 -0.161688
v -0.801675 -0.481653 -0.154514
v -0.534503 -0.700839 -0.154514
v -0.763415 -0.558182 -0.154514
v -0.699206 -0.626711 -0.154514
v -0.618822 -0.676805 -0.154514
v -0.534781 -0.700807 -0.126271
v -0.801664 -0.481689 -0.126271
v -0.618994 -0.676788 -0.126271
v -0.699284 -0.626712 -0.126271
v -0.763430 -0.558202 -0.126271
v -1.212325 -0.149433 -0.000000
v -5.209658 -0.149433 0.000000
v -1.212325 -0.146553 -0.029244
v -5.209658 -0.146553 -0.029244
v -1.212325 -0.138023 -0.057364
v -5.209658 -0.138023 -0.057364
v -1.212325 -0.124170 -0.083280
v -5.209658 -0.124170 -0.083280
v -1.212325 -0.105528 -0.105995
v -5.209658 -0.105528 -0.105995
v -1.212325 -0.082813 -0.124637
v -5.209658 -0.082813 -0.124637
v -1.212325 -0.056897 -0.138490
v -5.209658 -0.056897 -0.138489
v -1.212325 -0.028777 -0.147020
v -5.209658 -0.028777 -0.147020
v -1.212325 0.000467 -0.149900
v -5.209658 0.000467 -0.149900
v -5.209658 -0.193544 0.000000
v -5.209658 -0.189816 -0.037850
v -5.209658 -0.178776 -0.074245
v -5.209658 -0.160847 -0.107787
v -5.209658 -0.136720 -0.137186
v -5.209658 -0.107320 -0.161314
v -5.209658 -0.073778 -0.179243
v -5.209658 -0.037383 -0.190283
v -5.209658 0.000467 -0.194011
v -5.309591 -0.193544 0.000000
v -5.309591 -0.189816 -0.037850
v -5.309591 -0.178776 -0.074245
v -5.309591 -0.160847 -0.107787
v -5.309591 -0.136720 -0.137186
v -5.309591 -0.107320 -0.161314
v -5.309591 -0.073778 -0.179243
v -5.309591 -0.037383 -0.190283
v -5.309591 0.000467 -0.194011
v -5.309592 -0.149122 0.000000
v -5.309592 -0.146248 -0.029183
v -5.309592 -0.137736 -0.057245
v -5.309592 -0.123912 -0.083107
v -5.309592 -0.105309 -0.105775
v -5.309592 -0.082641 -0.124379
v -5.309592 -0.056779 -0.138202
v -5.309592 -0.028717 -0.146715
v -5.309592 0.000467 -0.149589
v -5.409525 -0.149122 0.000000
v -5.409525 -0.146248 -0.029183
v -5.409525 -0.137736 -0.057245
v -5.409525 -0.123912 -0.083107
v -5.409525 -0.105309 -0.105775
v -5.409525 -0.082641 -0.124379
v -5.409525 -0.056779 -0.138202
v -5.409525 -0.028717 -0.146715
v -5.409525 0.000467 -0.149589
v -6.208993 -0.149123 0.000000
v -6.208993 -0.146248 -0.029183
v -6.208993 -0.137736 -0.057245
v -6.208993 -0.123912 -0.083107
v -6.208993 -0.105309 -0.105775
v -6.208993 -0.082641 -0.124379
v -6.208993 -0.056779 -0.138202
v -6.208993 -0.028717 -0.146715
v -6.208993 0.000467 -0.149589
v -6.258958 -0.137314 0.000000
v -6.258958 -0.134666 -0.026879
v -6.258958 -0.126826 -0.052726
v -6.258958 -0.114093 -0.076546
v -6.258958 -0.096959 -0.097425
v -6.258958 -0.076080 -0.114560
v -6.258958 -0.052260 -0.127292
v -6.258958 -0.026413 -0.135133
v -6.258958 0.000467 -0.137780
v -6.308924 -0.103568 0.000000
v -6.308924 -0.101569 -0.020296
v -6.308924 -0.095649 -0.039812
v -6.308924 -0.086035 -0.057799
v -6.308924 -0.073097 -0.073564
v -6.308924 -0.057332 -0.086502
v -6.308924 -0.039346 -0.096116
v -6.308924 -0.019829 -0.102036
v -6.308924 0.000467 -0.104035
v -6.347349 -0.039301 0.000000
v -6.347349 -0.038537 -0.007758
v -6.347349 -0.036274 -0.015218
v -6.347349 -0.032599 -0.022094
v -6.347349 -0.027653 -0.028120
v -6.347349 -0.021627 -0.033066
v -6.347349 -0.014752 -0.036740
v -6.347349 -0.007292 -0.039004
v -6.347349 0.000467 -0.039768
v -6.358892 -0.013537 0.000000
v -6.358892 -0.013268 -0.002732
v -6.358892 -0.012471 -0.005359
v -6.358892 -0.011177 -0.007780
v -6.358892 -0.009436 -0.009902
v -6.358892 -0.007313 -0.011644
v -6.358892 -0.004892 -0.012938
v -6.358892 -0.002265 -0.013735
v -6.358892 0.000467 -0.014004
v -6.361921 0.000467 0.000000
v -5.409525 -0.464350 -0.029183
v -6.208993 -0.464350 -0.029183
v -5.409525 -0.599953 -0.029183
v -6.208993 -0.533174 -0.029183
v -6.009126 -0.146248 -0.029183
v -5.809258 -0.146248 -0.029183
v -5.609392 -0.146248 -0.029183
v -6.009126 -0.137736 -0.057245
v -5.809258 -0.137736 -0.057245
v -5.609392 -0.137736 -0.057245
v -6.009126 -0.123912 -0.083107
v -5.809258 -0.123912 -0.083107
v -5.609392 -0.123912 -0.083107
v -6.009126 -0.105309 -0.105775
v -5.809258 -0.105309 -0.105775
v -5.609392 -0.105309 -0.105775
v -6.009126 -0.082641 -0.124379
v -5.809258 -0.082641 -0.124379
v -5.609392 -0.082641 -0.124379
v -6.009126 -0.056779 -0.138202
v -5.809258 -0.056779 -0.138202
v -5.609392 -0.056779 -0.138202
v -6.009126 -0.028717 -0.146715
v -5.809258 -0.028717 -0.146715
v -5.609392 -0.028717 -0.146715
v -6.009126 0.000467 -0.149589
v -5.809258 0.000467 -0.149589
v -5.609392 0.000467 -0.149589
v -6.009126 -0.464350 -0.029183
v -5.809258 -0.464350 -0.029183
v -5.609392 -0.464350 -0.029183
v -6.009126 -0.533174 -0.029183
v -5.809258 -0.599953 -0.029183
v -5.609392 -0.599953 -0.029183
v -5.409525 -0.694176 -0.029183
v -5.609392 -0.694176 -0.029183
v -1.212325 0.150367 -0.000000
v -5.209658 0.150367 0.000000
v -1.212325 0.147487 -0.029244
v -5.209658 0.147487 -0.029244
v -1.212325 0.138957 -0.057364
v -5.209658 0.138956 -0.057364
v -1.212325 0.125104 -0.083280
v -5.209658 0.125104 -0.083280
v -1.212325 0.106462 -0.105995
v -5.209658 0.106462 -0.105995
v -1.212325 0.083747 -0.124637
v -5.209658 0.083747 -0.124637
v -1.212325 0.057831 -0.138490
v -5.209658 0.057831 -0.138489
v -1.212325 0.029711 -0.147020
v -5.209658 0.029711 -0.147020
v -5.209658 0.194478 0.000000
v -5.209658 0.190750 -0.037850
v -5.209658 0.179710 -0.074245
v -5.209658 0.161781 -0.107787
v -5.209658 0.137653 -0.137186
v -5.209658 0.108254 -0.161314
v -5.209658 0.074712 -0.179243
v -5.209658 0.038316 -0.190283
v -5.309591 0.194478 0.000000
v -5.309591 0.190750 -0.037850
v -5.309591 0.179710 -0.074245
v -5.309591 0.161781 -0.107787
v -5.309591 0.137653 -0.137186
v -5.309591 0.108254 -0.161314
v -5.309591 0.074712 -0.179243
v -5.309591 0.038316 -0.190283
v -5.309592 0.150056 0.000000
v -5.309592 0.147182 -0.029183
v -5.309592 0.138669 -0.057245
v -5.309592 0.124846 -0.083107
v -5.309592 0.106242 -0.105775
v -5.309592 0.083574 -0.124379
v -5.309592 0.057712 -0.138202
v -5.309592 0.029650 -0.146715
v -5.409525 0.150056 0.000000
v -5.409525 0.147182 -0.029183
v -5.409525 0.138669 -0.057245
v -5.409525 0.124846 -0.083107
v -5.409525 0.106242 -0.105775
v -5.409525 0.083574 -0.124379
v -5.409525 0.057712 -0.138202
v -5.409525 0.029650 -0.146715
v -6.208993 0.150056 0.000000
v -6.208993 0.147182 -0.029183
v -6.208993 0.138669 -0.057245
v -6.208993 0.124846 -0.083107
v -6.208993 0.106242 -0.105775
v -6.208993 0.083574 -0.124379
v -6.208993 0.057712 -0.138202
v -6.208993 0.029650 -0.146715
v -6.258958 0.138247 0.000000
v -6.258958 0.135600 -0.026879
v -6.258958 0.127759 -0.052726
v -6.258958 0.115027 -0.076546
v -6.258958 0.097892 -0.097425
v -6.258958 0.077013 -0.114560
v -6.258958 0.053193 -0.127292
v -6.258958 0.027346 -0.135133
v -6.308924 0.104502 0.000000
v -6.308924 0.102503 -0.020296
v -6.308924 0.096583 -0.039812
v -6.308924 0.086969 -0.057799
v -6.308924 0.074031 -0.073564
v -6.308924 0.058265 -0.086502
v -6.308924 0.040279 -0.096116
v -6.308924 0.020763 -0.102036
v -6.347349 0.040235 0.000000
v -6.347349 0.039470 -0.007758
v -6.347349 0.037207 -0.015218
v -6.347349 0.033533 -0.022094
v -6.347349 0.028587 -0.028120
v -6.347349 0.022561 -0.033066
v -6.347349 0.015685 -0.036740
v -6.347349 0.008225 -0.039004
v -6.358892 0.014471 0.000000
v -6.358892 0.014202 -0.002732
v -6.358892 0.013405 -0.005359
v -6.358892 0.012111 -0.007780
v -6.358892 0.010369 -0.009902
v -6.358892 0.008247 -0.011644
v -6.358892 0.005826 -0.012938
v -6.358892 0.003199 -0.013735
v -6.009126 0.147182 -0.029183
v -5.809258 0.147182 -0.029183
v -5.609392 0.147182 -0.029183
v -6.009126 0.138669 -0.057245
v -5.809258 0.138669 -0.057245
v -5.609392 0.138669 -0.057245
v -6.009126 0.124846 -0.083107
v -5.809258 0.124846 -0.083107
v -5.609392 0.124846 -0.083107
v -6.009126 0.106242 -0.105775
v -5.809258 0.106242 -0.105775
v -5.609392 0.106242 -0.105775
v -6.009126 0.083574 -0.124379
v -5.809258 0.083574 -0.124379
v -5.609392 0.083574 -0.124379
v -6.009126 0.057712 -0.138202
v -5.809258 0.057712 -0.138202
v -5.609392 0.057712 -0.138202
v -6.009126 0.029650 -0.146715
v -5.809258 0.029650 -0.146715
v -5.609392 0.029650 -0.146715
v -1.112392 -0.200946 -0.000000
v -1.112396 -0.197076 -0.039294
v -1.112392 -0.185615 -0.077078
v -1.112392 -0.167002 -0.111899
v -1.112392 -0.141954 -0.142421
v -1.112392 -0.111432 -0.167469
v -1.112392 -0.076611 -0.186082
v -1.112392 -0.038827 -0.197543
v -1.112392 0.000467 -0.201413
v -1.112392 0.201880 -0.000000
v -1.112396 0.198010 -0.039294
v -1.112392 0.186549 -0.077078
v -1.112392 0.167936 -0.111899
v -1.112392 0.142888 -0.142421
v -1.112392 0.112366 -0.167469
v -1.112392 0.077545 -0.186082
v -1.112392 0.039761 -0.197543
v -6.011003 0.150056 0.000000
v -5.811766 0.150056 0.000000
v -5.612528 0.150056 0.000000
v -0.999995 -0.200946 -0.000000
v -0.999999 -0.197076 -0.039294
v -0.999995 -0.185615 -0.077078
v -0.999995 -0.167002 -0.111899
v -0.999995 -0.141954 -0.142421
v -0.999995 -0.111432 -0.167469
v -0.999995 -0.076611 -0.186082
v -0.999995 -0.038827 -0.197543
v -0.999995 0.000467 -0.201413
v -0.999995 0.201880 -0.000000
v -0.999999 0.198010 -0.039294
v -0.999995 0.186549 -0.077078
v -0.999995 0.167936 -0.111899
v -0.999995 0.142888 -0.142421
v -0.999995 0.112366 -0.167469
v -0.999995 0.077545 -0.186082
v -0.999995 0.039761 -0.197543
v -0.999995 0.000467 -0.000000
v -5.409525 -0.464350 0.000000
v -6.208993 -0.464350 0.000000
v -5.409525 -0.599953 0.000000
v -6.208993 -0.533174 0.000000
v -6.009126 -0.464350 0.000000
v -6.009126 -0.533174 0.000000
v -5.609392 -0.599953 0.000000
v -5.809258 -0.599953 0.000000
v -5.809258 -0.464350 0.000000
v -5.409525 -0.694176 0.000000
v -5.609392 -0.694176 0.000000
v -1.212325 -0.146553 0.029244
v -5.209658 -0.146553 0.029244
v -1.212325 -0.138023 0.057364
v -5.209658 -0.138023 0.057364
v -1.212325 -0.124170 0.083280
v -5.209658 -0.124170 0.083280
v -1.212325 -0.105528 0.105995
v -5.209658 -0.105528 0.105995
v -1.212325 -0.082813 0.124637
v -5.209658 -0.082813 0.124637
v -1.212325 -0.056897 0.138489
v -5.209658 -0.056897 0.138490
v -1.212325 -0.028777 0.147020
v -5.209658 -0.028777 0.147020
v -1.212325 0.000467 0.149900
v -5.209658 0.000467 0.149900
v -5.209658 -0.189816 0.037850
v -5.209658 -0.178776 0.074245
v -5.209658 -0.160847 0.107787
v -5.209658 -0.136720 0.137187
v -5.209658 -0.107320 0.161314
v -5.209658 -0.073778 0.179243
v -5.209658 -0.037383 0.190283
v -5.209658 0.000467 0.194011
v -5.309591 -0.189816 0.037850
v -5.309591 -0.178776 0.074245
v -5.309591 -0.160847 0.107787
v -5.309591 -0.136720 0.137187
v -5.309591 -0.107320 0.161314
v -5.309591 -0.073778 0.179243
v -5.309591 -0.037383 0.190283
v -5.309591 0.000467 0.194011
v -5.309592 -0.146248 0.029184
v -5.309592 -0.137736 0.057246
v -5.309592 -0.123912 0.083108
v -5.309592 -0.105309 0.105776
v -5.309592 -0.082641 0.124379
v -5.309592 -0.056779 0.138203
v -5.309592 -0.028717 0.146715
v -5.309592 0.000467 0.149589
v -5.409525 -0.146248 0.029184
v -5.409525 -0.137736 0.057246
v -5.409525 -0.123912 0.083108
v -5.409525 -0.105309 0.105776
v -5.409525 -0.082641 0.124379
v -5.409525 -0.056779 0.138203
v -5.409525 -0.028717 0.146715
v -5.409525 0.000467 0.149589
v -6.208993 -0.146248 0.029184
v -6.208993 -0.137736 0.057246
v -6.208993 -0.123912 0.083108
v -6.208993 -0.105309 0.105776
v -6.208993 -0.082641 0.124379
v -6.208993 -0.056779 0.138203
v -6.208993 -0.028717 0.146715
v -6.208993 0.000467 0.149590
v -6.258958 -0.134666 0.026880
v -6.258958 -0.126826 0.052727
v -6.258958 -0.114093 0.076547
v -6.258958 -0.096959 0.097426
v -6.258958 -0.076080 0.114561
v -6.258958 -0.052260 0.127293
v -6.258958 -0.026413 0.135133
v -6.258958 0.000467 0.137781
v -6.308924 -0.101569 0.020297
v -6.308924 -0.095649 0.039813
v -6.308924 -0.086035 0.057799
v -6.308924 -0.073097 0.073564
v -6.308924 -0.057332 0.086502
v -6.308924 -0.039346 0.096116
v -6.308924 -0.019829 0.102036
v -6.308924 0.000467 0.104035
v -6.347349 -0.038537 0.007759
v -6.347349 -0.036274 0.015219
v -6.347349 -0.032599 0.022094
v -6.347349 -0.027653 0.028120
v -6.347349 -0.021627 0.033066
v -6.347349 -0.014752 0.036741
v -6.347349 -0.007292 0.039004
v -6.347349 0.000467 0.039768
v -6.358892 -0.013268 0.002732
v -6.358892 -0.012471 0.005359
v -6.358892 -0.011177 0.007781
v -6.358892 -0.009436 0.009903
v -6.358892 -0.007313 0.011644
v -6.358892 -0.004892 0.012938
v -6.358892 -0.002265 0.013735
v -6.358892 0.000467 0.014004
v -5.409525 -0.464350 0.029184
v -6.208993 -0.464350 0.029184
v -5.409525 -0.599953 0.029184
v -6.208993 -0.533174 0.029184
v -6.009126 -0.146248 0.029184
v -5.809258 -0.146248 0.029184
v -5.609392 -0.146248 0.029184
v -6.009126 -0.137736 0.057246
v -5.809258 -0.137736 0.057246
v -5.609392 -0.137736 0.057246
v -6.009126 -0.123912 0.083108
v -5.809258 -0.123912 0.083108
v -5.609392 -0.123912 0.083108
v -6.009126 -0.105309 0.105776
v -5.809258 -0.105309 0.105776
v -5.609392 -0.105309 0.105776
v -6.009126 -0.082641 0.124379
v -5.809258 -0.082641 0.124379
v -5.609392 -0.082641 0.124379
v -6.009126 -0.056779 0.138203
v -5.809258 -0.056779 0.138203
v -5.609392 -0.056779 0.138203
v -6.009126 -0.028717 0.146715
v -5.809258 -0.028717 0.146715
v -5.609392 -0.028717 0.146715
v -6.009126 0.000467 0.149590
v -5.809258 0.000467 0.149590
v -5.609392 0.000467 0.149589
v -6.009126 -0.464350 0.029184
v -5.809258 -0.464350 0.029184
v -5.609392 -0.464350 0.029184
v -6.009126 -0.533174 0.029184
v -5.809258 -0.599953 0.029184
v -5.609392 -0.599953 0.029184
v -5.409525 -0.694176 0.029184
v -5.609392 -0.694176 0.029184
v -1.212325 0.147487 0.029244
v -5.209658 0.147487 0.029244
v -1.212325 0.138957 0.057364
v -5.209658 0.138956 0.057364
v -1.212325 0.125104 0.083280
v -5.209658 0.125104 0.083280
v -1.212325 0.106462 0.105995
v -5.209658 0.106462 0.105995
v -1.212325 0.083747 0.124637
v -5.209658 0.083747 0.124637
v -1.212325 0.057831 0.138489
v -5.209658 0.057831 0.138490
v -1.212325 0.029711 0.147020
v -5.209658 0.029711 0.147020
v -5.209658 0.190750 0.037850
v -5.209658 0.179710 0.074245
v -5.209658 0.161781 0.107787
v -5.209658 0.137653 0.137187
v -5.209658 0.108254 0.161314
v -5.209658 0.074712 0.179243
v -5.209658 0.038316 0.190283
v -5.309591 0.190750 0.037850
v -5.309591 0.179710 0.074245
v -5.309591 0.161781 0.107787
v -5.309591 0.137653 0.137187
v -5.309591 0.108254 0.161314
v -5.309591 0.074712 0.179243
v -5.309591 0.038316 0.190283
v -5.309592 0.147182 0.029184
v -5.309592 0.138669 0.057246
v -5.309592 0.124846 0.083108
v -5.309592 0.106242 0.105776
v -5.309592 0.083574 0.124379
v -5.309592 0.057712 0.138203
v -5.309592 0.029650 0.146715
v -5.409525 0.147182 0.029184
v -5.409525 0.138669 0.057246
v -5.409525 0.124846 0.083108
v -5.409525 0.106242 0.105776
v -5.409525 0.083574 0.124379
v -5.409525 0.057712 0.138203
v -5.409525 0.029650 0.146715
v -6.208993 0.147182 0.029184
v -6.208993 0.138669 0.057246
v -6.208993 0.124846 0.083108
v -6.208993 0.106242 0.105776
v -6.208993 0.083574 0.124379
v -6.208993 0.057712 0.138203
v -6.208993 0.029650 0.146715
v -6.258958 0.135600 0.026880
v -6.258958 0.127759 0.052727
v -6.258958 0.115027 0.076547
v -6.258958 0.097892 0.097426
v -6.258958 0.077013 0.114561
v -6.258958 0.053193 0.127293
v -6.258958 0.027346 0.135133
v -6.308924 0.102503 0.020297
v -6.308924 0.096583 0.039813
v -6.308924 0.086969 0.057799
v -6.308924 0.074031 0.073564
v -6.308924 0.058265 0.086502
v -6.308924 0.040279 0.096116
v -6.308924 0.020763 0.102036
v -6.347349 0.039470 0.007759
v -6.347349 0.037207 0.015219
v -6.347349 0.033533 0.022094
v -6.347349 0.028587 0.028120
v -6.347349 0.022561 0.033066
v -6.347349 0.015685 0.036741
v -6.347349 0.008225 0.039004
v -6.358892 0.014202 0.002732
v -6.358892 0.013405 0.005359
v -6.358892 0.012111 0.007781
v -6.358892 0.010369 0.009903
v -6.358892 0.008247 0.011644
v -6.358892 0.005826 0.012938
v -6.358892 0.003199 0.013735
v -6.009126 0.147182 0.029184
v -5.809258 0.147182 0.029184
v -5.609392 0.147182 0.029184
v -6.009126 0.138669 0.057246
v -5.809258 0.138669 0.057246
v -5.609392 0.138669 0.057246
v -6.009126 0.124846 0.083108
v -5.809258 0.124846 0.083108
v -5.609392 0.124846 0.083108
v -6.009126 0.106242 0.105776
v -5.809258 0.106242 0.105776
v -5.609392 0.106242 0.105776
v -6.009126 0.083574 0.124379
v -5.809258 0.083574 0.124379
v -5.609392 0.083574 0.124379
v -6.009126 0.057712 0.138203
v -5.809258 0.057712 0.138203
v -5.609392 0.057712 0.138203
v -6.009126 0.029650 0.146715
v -5.809258 0.029650 0.146715
v -5.609392 0.029650 0.146715
v -1.112396 -0.197076 0.039294
v -1.112392 -0.185615 0.077077
v -1.112392 -0.167002 0.111899
v -1.112392 -0.141954 0.142421
v -1.112392 -0.111432 0.167469
v -1.112392 -0.076611 0.186081
v -1.112392 -0.038827 0.197543
v -1.112392 0.000467 0.201413
v -1.112396 0.198010 0.039294
v -1.112392 0.186549 0.077077
v -1.112392 0.167936 0.111899
v -1.112392 0.142888 0.142421
v -1.112392 0.112366 0.167469
v -1.112392 0.077545 0.186081
v -1.112392 0.039761 0.197543
v -0.999999 -0.197076 0.039294
v -0.999995 -0.185615 0.077077
v -0.999995 -0.167002 0.111899
v -0.999995 -0.141954 0.142420
v -0.999995 -0.111432 0.167469
v -0.999995 -0.076611 0.186081
v -0.999995 -0.038827 0.197543
v -0.999995 0.000467 0.201413
v -0.999999 0.198010 0.039294
v -0.999995 0.186549 0.077077
v -0.999995 0.167936 0.111899
v -0.999995 0.142888 0.142420
v -0.999995 0.112366 0.167469
v -0.999995 0.077545 0.186081
v -0.999995 0.039761 0.197543
vn 0.7676 -0.0000 0.6409
vn 0.7237 0.0998 0.6829
vn 0.3798 0.0231 0.9248
vn 0.3614 -0.0000 0.9324
vn -0.7609 0.0808 0.6438
vn -0.7567 -0.0000 0.6538
vn -0.3670 -0.0000 0.9302
vn -0.4057 0.0700 0.9113
vn 1.0000 -0.0000 -0.0000
vn -0.3727 0.1280 0.9191
vn 0.1083 -0.0190 0.9939
vn 0.1031 -0.0383 0.9939
vn 0.3412 0.5615 0.7539
vn 0.2404 0.6209 0.7461
vn 0.1125 0.2957 0.9486
vn 0.1609 0.2847 0.9450
vn -0.0371 -0.1052 0.9938
vn -0.0502 -0.0954 0.9942
vn -0.3808 -0.9247 -0.0000
vn -0.1353 -0.0000 0.9908
vn -0.0332 0.3536 0.9348
vn -0.0650 0.3677 0.9277
vn 0.0218 -0.1364 0.9904
vn 0.0118 -0.1358 0.9907
vn -0.1284 -0.0082 0.9917
vn -0.7060 0.2727 0.6536
vn -0.0398 0.7198 0.6931
vn -0.1712 0.7316 0.6599
vn -1.0000 -0.0000 -0.0000
vn -0.1287 0.9917 -0.0000
vn -0.0000 -0.0000 1.0000
vn 0.1141 -0.9935 -0.0000
vn 0.1066 -0.0000 0.9943
vn 0.9580 -0.2869 -0.0000
vn -0.0144 0.9999 0.0001
vn 0.1501 0.9887 0.0001
vn 0.3122 0.9500 -0.0000
vn 0.6073 0.7944 0.0002
vn 0.8452 0.5344 0.0003
vn 0.9775 0.2110 0.0002
vn 0.2486 0.2306 0.9408
vn 0.4759 0.4437 0.7594
vn 0.3391 0.1228 0.9327
vn 0.6181 0.2755 0.7363
vn -0.1025 -0.0383 0.9940
vn -0.0730 -0.0712 0.9948
vn -0.0048 -0.1214 0.9926
vn 0.0140 0.3341 0.9425
vn -0.0225 -0.1120 0.9934
vn 0.0683 0.3163 0.9462
vn 0.1568 0.6501 0.7435
vn 0.0562 0.6825 0.7287
vn -0.2806 -0.9598 -0.0001
vn -0.1354 -0.9908 -0.0003
vn 0.0113 -0.9999 -0.0003
vn -0.5760 -0.8174 -0.0007
vn -0.8329 -0.5535 -0.0013
vn -0.9761 -0.2173 -0.0009
vn 0.4219 0.9066 -0.0000
vn -0.3196 0.2054 0.9250
vn -0.5964 0.4056 0.6927
vn -0.2358 0.2822 0.9299
vn -0.4649 0.5388 0.7026
vn -0.1468 0.3519 0.9245
vn -0.3192 0.6534 0.6864
vn 0.0437 -0.1138 0.9925
vn 0.0661 -0.0840 0.9943
vn 0.0855 -0.0587 0.9946
vn -0.2909 0.9568 0.0003
vn -0.5484 0.8362 0.0006
vn -0.7486 0.6630 0.0004
vn -0.9080 0.4189 0.0001
vn 0.2742 -0.9617 -0.0013
vn 0.5290 -0.8486 -0.0021
vn 0.7299 -0.6836 -0.0015
vn 0.8945 -0.4471 -0.0005
vn -0.9666 0.2562 -0.0000
vn 0.7676 -0.0000 -0.6409
vn 0.3614 -0.0000 -0.9324
vn 0.3798 0.0231 -0.9248
vn 0.7237 0.0998 -0.6829
vn -0.7609 0.0808 -0.6438
vn -0.4057 0.0700 -0.9113
vn -0.3670 -0.0000 -0.9302
vn -0.7567 -0.0000 -0.6538
vn -0.3727 0.1280 -0.9191
vn 0.1031 -0.0383 -0.9939
vn 0.1083 -0.0190 -0.9939
vn 0.3412 0.5615 -0.7539
vn 0.1609 0.2847 -0.9450
vn 0.1125 0.2957 -0.9486
vn 0.2404 0.6209 -0.7461
vn -0.0502 -0.0954 -0.9942
vn -0.0371 -0.1052 -0.9938
vn -0.1353 -0.0000 -0.9908
vn -0.0332 0.3536 -0.9348
vn 0.0118 -0.1358 -0.9907
vn 0.0218 -0.1364 -0.9904
vn -0.0650 0.3677 -0.9277
vn -0.1284 -0.0082 -0.9917
vn -0.7060 0.2726 -0.6536
vn -0.0398 0.7198 -0.6931
vn -0.1712 0.7316 -0.6599
vn -0.0000 -0.0000 -1.0000
vn 0.1066 -0.0000 -0.9943
vn -0.0144 0.9999 -0.0001
vn 0.1501 0.9887 -0.0001
vn 0.6073 0.7944 -0.0002
vn 0.8452 0.5344 -0.0003
vn 0.9775 0.2110 -0.0002
vn 0.4759 0.4437 -0.7594
vn 0.2486 0.2306 -0.9408
vn 0.6181 0.2755 -0.7363
vn 0.3391 0.1228 -0.9327
vn -0.1025 -0.0383 -0.9940
vn -0.0730 -0.0712 -0.9948
vn 0.0140 0.3341 -0.9425
vn -0.0048 -0.1214 -0.9926
vn 0.0683 0.3163 -0.9462
vn -0.0225 -0.1120 -0.9934
vn 0.1568 0.6501 -0.7435
vn 0.0562 0.6825 -0.7287
vn -0.2806 -0.9598 0.0001
vn -0.1354 -0.9908 0.0003
vn 0.0113 -0.9999 0.0003
vn -0.5760 -0.8174 0.0007
vn -0.8329 -0.5535 0.0013
vn -0.9761 -0.2173 0.0009
vn -0.5964 0.4056 -0.6927
vn -0.3196 0.2054 -0.9250
vn -0.4649 0.5388 -0.7026
vn -0.2358 0.2822 -0.9299
vn -0.3192 0.6534 -0.6864
vn -0.1468 0.3519 -0.9245
vn 0.0437 -0.1138 -0.9925
vn 0.0661 -0.0840 -0.9943
vn 0.0855 -0.0587 -0.9946
vn -0.2909 0.9568 -0.0003
vn -0.5484 0.8362 -0.0006
vn -0.7486 0.6630 -0.0004
vn -0.9080 0.4189 -0.0001
vn 0.2742 -0.9617 0.0013
vn 0.5290 -0.8486 0.0021
vn 0.7299 -0.6836 0.0015
vn 0.8945 -0.4471 0.0005
vn 0.3798 -0.0231 0.9248
vn 0.7237 -0.0998 0.6829
vn -0.7609 -0.0808 0.6438
vn -0.4057 -0.0700 0.9113
vn -0.3727 -0.1280 0.9191
vn 0.1031 0.0383 0.9939
vn 0.1083 0.0190 0.9939
vn 0.3412 -0.5615 0.7539
vn 0.1609 -0.2847 0.9450
vn 0.1125 -0.2957 0.9486
vn 0.2404 -0.6209 0.7461
vn -0.0502 0.0954 0.9942
vn -0.0371 0.1052 0.9938
vn -0.3808 0.9247 -0.0000
vn -0.0332 -0.3536 0.9348
vn 0.0118 0.1358 0.9907
vn 0.0218 0.1364 0.9904
vn -0.0650 -0.3677 0.9277
vn -0.1284 0.0082 0.9917
vn -0.7060 -0.2726 0.6536
vn -0.0398 -0.7198 0.6931
vn -0.1712 -0.7316 0.6599
vn -0.1287 -0.9917 -0.0000
vn 0.1141 0.9935 -0.0000
vn 0.9580 0.2869 -0.0000
vn -0.0144 -0.9999 0.0001
vn 0.1501 -0.9887 0.0001
vn 0.3122 -0.9500 -0.0000
vn 0.6073 -0.7944 0.0002
vn 0.8452 -0.5344 0.0003
vn 0.9775 -0.2110 0.0002
vn 0.4759 -0.4437 0.7594
vn 0.2486 -0.2306 0.9408
vn 0.6181 -0.2755 0.7363
vn 0.3391 -0.1228 0.9327
vn -0.1025 0.0383 0.9940
vn -0.0730 0.0712 0.9948
vn 0.0140 -0.3341 0.9425
vn -0.0048 0.1214 0.9926
vn 0.0683 -0.3163 0.9462
vn -0.0225 0.1120 0.9934
vn 0.1568 -0.6501 0.7435
vn 0.0562 -0.6825 0.7287
vn -0.2806 0.9598 -0.0001
vn -0.1354 0.9908 -0.0003
vn 0.0113 0.9999 -0.0003
vn -0.5760 0.8174 -0.0007
vn -0.8329 0.5535 -0.0013
vn -0.9761 0.2173 -0.0009
vn 0.4219 -0.9066 -0.0000
vn -0.5964 -0.4056 0.6927
vn -0.3196 -0.2054 0.9250
vn -0.4649 -0.5388 0.7026
vn -0.2358 -0.2822 0.9299
vn -0.3192 -0.6534 0.6864
vn -0.1468 -0.3519 0.9245
vn 0.0437 0.1138 0.9925
vn 0.0661 0.0840 0.9943
vn 0.0855 0.0587 0.9946
vn -0.2909 -0.9568 0.0003
vn -0.5484 -0.8362 0.0006
vn -0.7486 -0.6630 0.0004
vn -0.9080 -0.4189 0.0001
vn 0.2742 0.9617 -0.0013
vn 0.5290 0.8486 -0.0021
vn 0.7299 0.6836 -0.0015
vn 0.8945 0.4471 -0.0005
vn -0.9666 -0.2562 -0.0000
vn 0.7237 -0.0998 -0.6829
vn 0.3798 -0.0231 -0.9248
vn -0.7609 -0.0808 -0.6438
vn -0.4057 -0.0700 -0.9113
vn -0.3727 -0.1280 -0.9191
vn 0.1083 0.0190 -0.9939
vn 0.1031 0.0383 -0.9939
vn 0.3412 -0.5615 -0.7539
vn 0.2404 -0.6209 -0.7461
vn 0.1125 -0.2957 -0.9486
vn 0.1609 -0.2847 -0.9450
vn -0.0371 0.1052 -0.9938
vn -0.0502 0.0954 -0.9942
vn -0.0332 -0.3536 -0.9348
vn -0.0650 -0.3677 -0.9277
vn 0.0218 0.1364 -0.9904
vn 0.0118 0.1358 -0.9907
vn -0.1284 0.0082 -0.9917
vn -0.7060 -0.2727 -0.6536
vn -0.0398 -0.7198 -0.6931
vn -0.1712 -0.7316 -0.6599
vn -0.0144 -0.9999 -0.0001
vn 0.1501 -0.9887 -0.0001
vn 0.6073 -0.7944 -0.0002
vn 0.8452 -0.5344 -0.0003
vn 0.9775 -0.2110 -0.0002
vn 0.2486 -0.2306 -0.9408
vn 0.4759 -0.4437 -0.7594
vn 0.3391 -0.1228 -0.9327
vn 0.6181 -0.2755 -0.7363
vn -0.1025 0.0383 -0.9940
vn -0.0730 0.0712 -0.9948
vn -0.0048 0.1214 -0.9926
vn 0.0140 -0.3341 -0.9425
vn -0.0225 0.1120 -0.9934
vn 0.0683 -0.3163 -0.9462
vn 0.1568 -0.6501 -0.7435
vn 0.0562 -0.6825 -0.7287
vn -0.2806 0.9598 0.0001
vn -0.1354 0.9908 0.0003
vn 0.0113 0.9999 0.0003
vn -0.5760 0.8174 0.0007
vn -0.8329 0.5535 0.0013
vn -0.9761 0.2173 0.0009
vn -0.3196 -0.2054 -0.9250
vn -0.5964 -0.4056 -0.6927
vn -0.2358 -0.2822 -0.9299
vn -0.4649 -0.5388 -0.7026
vn -0.1468 -0.3519 -0.9245
vn -0.3192 -0.6534 -0.6864
vn 0.0437 0.1138 -0.9925
vn 0.0661 0.0840 -0.9943
vn 0.0855 0.0587 -0.9946
vn -0.2909 -0.9568 -0.0003
vn -0.5484 -0.8362 -0.0006
vn -0.7486 -0.6630 -0.0004
vn -0.9080 -0.4189 -0.0001
vn 0.2742 0.9617 0.0013
vn 0.5290 0.8486 0.0021
vn 0.7299 0.6836 0.0015
vn 0.8945 0.4471 0.0005
vn -0.0000 -0.9952 -0.0980
vn -0.0000 -0.9569 -0.2903
vn -0.0000 -0.8819 -0.4714
vn -0.0000 -0.7730 -0.6344
vn -0.0000 -0.6344 -0.7730
vn -0.0000 -0.4714 -0.8819
vn -0.0000 -0.2903 -0.9569
vn -0.0000 -0.0980 -0.9952
vn -0.2290 -0.8585 -0.4589
vn -0.2290 -0.7525 -0.6175
vn -0.2290 -0.6175 -0.7525
vn -0.2290 -0.4589 -0.8585
vn -0.2290 -0.2826 -0.9315
vn -0.2290 -0.0954 -0.9688
vn -0.2290 -0.9687 -0.0954
vn -0.2290 -0.9315 -0.2826
vn -0.5578 -0.3912 -0.7320
vn -0.5578 -0.2409 -0.7942
vn -0.5578 -0.0814 -0.8260
vn -0.5578 -0.8260 -0.0813
vn -0.5578 -0.7942 -0.2409
vn -0.5578 -0.7320 -0.3912
vn -0.5578 -0.6416 -0.5265
vn -0.5578 -0.5265 -0.6416
vn -0.8572 -0.5125 -0.0505
vn -0.8572 -0.4928 -0.1495
vn -0.8572 -0.4542 -0.2428
vn -0.8572 -0.3981 -0.3267
vn -0.8572 -0.3267 -0.3981
vn -0.8572 -0.2428 -0.4542
vn -0.8572 -0.1495 -0.4928
vn -0.8572 -0.0505 -0.5125
vn -0.9119 -0.4085 -0.0402
vn -0.9119 -0.3928 -0.1191
vn -0.9119 -0.3620 -0.1935
vn -0.9119 -0.3173 -0.2604
vn -0.9119 -0.2604 -0.3173
vn -0.9119 -0.1935 -0.3620
vn -0.9119 -0.1192 -0.3928
vn -0.9119 -0.0402 -0.4085
vn -0.9774 -0.2074 -0.0413
vn -0.9774 -0.1758 -0.1175
vn -0.9774 -0.1175 -0.1758
vn -0.9774 -0.0412 -0.2074
vn -0.0000 -1.0000 -0.0000
vn -0.0000 0.9952 -0.0980
vn -0.0000 0.9569 -0.2903
vn -0.0000 0.8819 -0.4714
vn -0.0000 0.7730 -0.6344
vn -0.0000 0.6344 -0.7730
vn -0.0000 0.4714 -0.8819
vn -0.0000 0.2903 -0.9569
vn -0.0000 0.0980 -0.9952
vn -0.2290 0.8585 -0.4589
vn -0.2290 0.7525 -0.6175
vn -0.2290 0.6175 -0.7525
vn -0.2290 0.4589 -0.8585
vn -0.2290 0.2826 -0.9315
vn -0.2290 0.0954 -0.9687
vn -0.2290 0.9687 -0.0954
vn -0.2290 0.9315 -0.2826
vn -0.5578 0.3912 -0.7320
vn -0.5578 0.2409 -0.7942
vn -0.5578 0.0813 -0.8260
vn -0.5578 0.8260 -0.0813
vn -0.5578 0.7942 -0.2409
vn -0.5578 0.7320 -0.3912
vn -0.5578 0.6416 -0.5265
vn -0.5578 0.5265 -0.6416
vn -0.8572 0.5125 -0.0505
vn -0.8572 0.4928 -0.1495
vn -0.8572 0.4542 -0.2427
vn -0.8572 0.3981 -0.3267
vn -0.8572 0.3267 -0.3981
vn -0.8572 0.2428 -0.4542
vn -0.8572 0.1495 -0.4928
vn -0.8572 0.0505 -0.5125
vn -0.9119 0.4085 -0.0401
vn -0.9119 0.3928 -0.1191
vn -0.9119 0.3620 -0.1935
vn -0.9119 0.3173 -0.2604
vn -0.9118 0.2604 -0.3174
vn -0.9119 0.1935 -0.3620
vn -0.9118 0.1192 -0.3929
vn -0.9119 0.0402 -0.4085
vn -0.9774 0.2074 -0.0413
vn -0.9774 0.1758 -0.1174
vn -0.9774 0.1175 -0.1759
vn -0.9774 0.0412 -0.2074
vn -0.4564 0.6878 -0.5645
vn -0.4564 -0.0872 -0.8855
vn -0.4564 -0.6878 -0.5645
vn -0.4564 0.5645 -0.6878
vn -0.4564 0.8855 -0.0872
vn -0.4564 -0.5645 -0.6878
vn -0.4564 0.4194 -0.7847
vn -0.4564 -0.8855 -0.0872
vn -0.4564 0.8514 -0.2583
vn -0.4564 -0.4194 -0.7847
vn -0.4564 0.2583 -0.8514
vn -0.4564 -0.8514 -0.2583
vn -0.4564 0.7847 -0.4194
vn -0.4564 -0.2583 -0.8514
vn -0.4564 0.0872 -0.8855
vn -0.4564 -0.7847 -0.4194
vn -0.0000 -0.9952 0.0980
vn -0.0000 -0.9569 0.2903
vn -0.0000 -0.8819 0.4714
vn -0.0000 -0.7730 0.6344
vn -0.0000 -0.6344 0.7730
vn -0.0000 -0.4714 0.8819
vn -0.0000 -0.2903 0.9569
vn -0.0000 -0.0980 0.9952
vn -0.2290 -0.8585 0.4589
vn -0.2290 -0.7525 0.6175
vn -0.2290 -0.6175 0.7525
vn -0.2290 -0.4589 0.8585
vn -0.2290 -0.2826 0.9315
vn -0.2290 -0.0954 0.9688
vn -0.2290 -0.9687 0.0954
vn -0.2290 -0.9315 0.2826
vn -0.5578 -0.3912 0.7320
vn -0.5578 -0.2409 0.7942
vn -0.5578 -0.0814 0.8260
vn -0.5578 -0.8260 0.0813
vn -0.5578 -0.7942 0.2409
vn -0.5578 -0.7320 0.3912
vn -0.5578 -0.6416 0.5265
vn -0.5578 -0.5265 0.6416
vn -0.8572 -0.5125 0.0505
vn -0.8572 -0.4928 0.1495
vn -0.8572 -0.4542 0.2428
vn -0.8572 -0.3981 0.3267
vn -0.8572 -0.3267 0.3981
vn -0.8572 -0.2428 0.4542
vn -0.8572 -0.1495 0.4928
vn -0.8572 -0.0505 0.5125
vn -0.9119 -0.4085 0.0402
vn -0.9119 -0.3928 0.1191
vn -0.9118 -0.3620 0.1936
vn -0.9119 -0.3173 0.2604
vn -0.9119 -0.2604 0.3173
vn -0.9119 -0.1935 0.3620
vn -0.9119 -0.1192 0.3928
vn -0.9119 -0.0402 0.4085
vn -0.9774 -0.2074 0.0413
vn -0.9774 -0.1758 0.1174
vn -0.9774 -0.1175 0.1759
vn -0.9774 -0.0412 0.2074
vn -0.0000 0.9952 0.0980
vn -0.0000 0.9569 0.2903
vn -0.0000 0.8819 0.4714
vn -0.0000 0.7730 0.6344
vn -0.0000 0.6344 0.7730
vn -0.0000 0.4714 0.8819
vn -0.0000 0.2903 0.9569
vn -0.0000 0.0980 0.9952
vn -0.2290 0.8585 0.4589
vn -0.2290 0.7525 0.6175
vn -0.2290 0.6175 0.7525
vn -0.2290 0.4589 0.8585
vn -0.2290 0.2826 0.9315
vn -0.2290 0.0954 0.9687
vn -0.2290 0.9687 0.0954
vn -0.2290 0.9315 0.2826
vn -0.5578 0.3912 0.7320
vn -0.5578 0.2409 0.7942
vn -0.5578 0.0813 0.8260
vn -0.5578 0.8260 0.0813
vn -0.5578 0.7942 0.2409
vn -0.5578 0.7320 0.3912
vn -0.5578 0.6416 0.5265
vn -0.5578 0.5265 0.6416
vn -0.8572 0.5125 0.0505
vn -0.8572 0.4928 0.1495
vn -0.8572 0.4542 0.2428
vn -0.8572 0.3981 0.3267
vn -0.8572 0.3267 0.3981
vn -0.8572 0.2428 0.4542
vn -0.8572 0.1495 0.4928
vn -0.8572 0.0505 0.5125
vn -0.9119 0.4085 0.0401
vn -0.9119 0.3928 0.1192
vn -0.9119 0.3620 0.1935
vn -0.9119 0.3173 0.2604
vn -0.9118 0.2604 0.3174
vn -0.9119 0.1935 0.3620
vn -0.9118 0.1192 0.3929
vn -0.9119 0.0402 0.4085
vn -0.9774 0.2074 0.0412
vn -0.9774 0.1758 0.1174
vn -0.9774 0.1175 0.1759
vn -0.9774 0.0412 0.2074
vn -0.4564 0.6878 0.5645
vn -0.4564 -0.0872 0.8855
vn -0.4564 -0.6878 0.5645
vn -0.4564 0.5645 0.6878
vn -0.4564 0.8855 0.0872
vn -0.4564 -0.5645 0.6878
vn -0.4564 0.4194 0.7847
vn -0.4564 -0.8855 0.0872
vn -0.4564 0.8514 0.2583
vn -0.4564 -0.4194 0.7847
vn -0.4564 0.2583 0.8514
vn -0.4564 -0.8514 0.2583
vn -0.4564 0.7847 0.4194
vn -0.4564 -0.2583 0.8514
vn -0.4564 0.0872 0.8855
vn -0.4564 -0.7847 0.4194
vt 0.456437 0.531082
vt 0.461902 0.463442
vt 0.473787 0.472736
vt 0.470387 0.528265
vt 0.763016 0.532405
vt 0.765267 0.563444
vt 0.751152 0.563870
vt 0.749240 0.530592
vt 0.441891 0.530591
vt 0.447824 0.458933
vt 0.734749 0.490116
vt 0.739530 0.529457
vt 0.727315 0.496260
vt 0.480305 0.436102
vt 0.489513 0.430655
vt 0.497180 0.443382
vt 0.491036 0.446369
vt 0.502125 0.451114
vt 0.498746 0.452655
vt 0.456441 0.564782
vt 0.470111 0.564751
vt 0.442368 0.564804
vt 0.503578 0.454664
vt 0.500497 0.455977
vt 0.478249 0.526882
vt 0.478083 0.564718
vt 0.534634 0.437008
vt 0.695716 0.458350
vt 0.686805 0.464180
vt 0.539636 0.445394
vt 0.481001 0.479396
vt 0.745382 0.480564
vt 0.528373 0.421856
vt 0.705504 0.446589
vt 0.777188 0.529488
vt 0.780330 0.562981
vt 0.527944 0.406638
vt 0.710821 0.432339
vt 0.898711 0.037084
vt 0.956006 0.037084
vt 0.976616 0.085724
vt 0.904131 0.085724
vt 0.482357 0.526998
vt 0.482307 0.564692
vt 0.685937 0.468117
vt 0.539423 0.449372
vt 0.741108 0.564162
vt 0.735705 0.530221
vt 0.723702 0.498066
vt 0.989588 0.059404
vt 0.991347 0.063675
vt 0.995516 0.077931
vt 0.854051 0.037084
vt 0.854051 0.085724
vt 0.896721 0.346988
vt 0.854051 0.346988
vt 0.736845 0.564279
vt 0.973028 0.302294
vt 0.964225 0.316409
vt 0.952181 0.327686
vt 0.484858 0.479960
vt 0.997825 0.094830
vt 0.997656 0.109844
vt 0.515245 0.422770
vt 0.512925 0.407671
vt 0.501059 0.425926
vt 0.496199 0.411528
vt 0.482414 0.417406
vt 0.471360 0.424558
vt 0.472056 0.443149
vt 0.461573 0.434029
vt 0.465741 0.452925
vt 0.453091 0.446063
vt 0.482629 0.452774
vt 0.476466 0.462354
vt 0.483605 0.468627
vt 0.489848 0.458822
vt 0.527144 0.445476
vt 0.522123 0.437127
vt 0.513412 0.447526
vt 0.508427 0.439490
vt 0.514289 0.451361
vt 0.527419 0.449482
vt 0.492641 0.461522
vt 0.487075 0.470065
vt 0.969432 0.040074
vt 0.981724 0.048244
vt 0.728754 0.479418
vt 0.738732 0.469619
vt 0.719329 0.469754
vt 0.729251 0.459699
vt 0.707868 0.462407
vt 0.717760 0.451865
vt 0.699173 0.468135
vt 0.711022 0.475589
vt 0.720809 0.485485
vt 0.725322 0.438643
vt 0.739191 0.448505
vt 0.750261 0.460807
vt 0.758340 0.473393
vt 0.697499 0.471824
vt 0.708491 0.478768
vt 0.717509 0.488073
vt 0.977250 0.287490
vt 0.938730 0.334407
vt 0.427653 0.531658
vt 0.413990 0.529481
vt 0.407213 0.476506
vt 0.418112 0.466930
vt 0.137900 0.534949
vt 0.151403 0.532887
vt 0.149653 0.565373
vt 0.136111 0.565400
vt 0.431333 0.461876
vt 0.164313 0.493168
vt 0.171676 0.498750
vt 0.160964 0.531566
vt 0.399459 0.441586
vt 0.389471 0.451630
vt 0.383579 0.448852
vt 0.390628 0.436650
vt 0.382157 0.457727
vt 0.378926 0.456249
vt 0.428493 0.564829
vt 0.415203 0.564853
vt 0.380456 0.460912
vt 0.377534 0.459619
vt 0.407535 0.564867
vt 0.406372 0.528475
vt 0.348236 0.442940
vt 0.343576 0.450771
vt 0.207742 0.468140
vt 0.199599 0.462781
vt 0.400721 0.483388
vt 0.153882 0.484377
vt 0.354076 0.428796
vt 0.190532 0.451964
vt 0.121306 0.565429
vt 0.123992 0.532354
vt 0.354396 0.414680
vt 0.185510 0.438783
vt 0.402460 0.528755
vt 0.363412 0.525895
vt 0.361511 0.470568
vt 0.397053 0.484207
vt 0.403496 0.564875
vt 0.343782 0.454470
vt 0.208522 0.471751
vt 0.159170 0.565354
vt 0.175242 0.500314
vt 0.164755 0.532263
vt 0.367344 0.456456
vt 0.364211 0.564951
vt 0.163252 0.565346
vt 0.180539 0.490395
vt 0.188270 0.481484
vt 0.198023 0.475030
vt 0.354918 0.454548
vt 0.368342 0.415481
vt 0.366332 0.429570
vt 0.383990 0.418830
vt 0.379673 0.432383
vt 0.396995 0.424041
vt 0.407546 0.430432
vt 0.417089 0.438969
vt 0.407510 0.448012
vt 0.425637 0.449952
vt 0.413927 0.457069
vt 0.397674 0.457614
vt 0.404026 0.466623
vt 0.397367 0.473105
vt 0.390730 0.463766
vt 0.359942 0.443019
vt 0.355197 0.450806
vt 0.372877 0.445225
vt 0.368185 0.452824
vt 0.388006 0.466470
vt 0.394041 0.474747
vt 0.159946 0.473853
vt 0.169613 0.482812
vt 0.168659 0.464383
vt 0.178078 0.473543
vt 0.179231 0.456951
vt 0.188494 0.466570
vt 0.196484 0.471702
vt 0.185870 0.478673
vt 0.177306 0.488176
vt 0.172071 0.444721
vt 0.159210 0.454030
vt 0.148917 0.465689
vt 0.141352 0.477759
vt 0.456683 0.598554
vt 0.470801 0.601434
vt 0.473550 0.657209
vt 0.461369 0.667147
vt 0.764921 0.594601
vt 0.751267 0.597408
vt 0.442018 0.599005
vt 0.446804 0.671867
vt 0.740166 0.638434
vt 0.732390 0.632937
vt 0.741604 0.599296
vt 0.481285 0.696030
vt 0.492757 0.684916
vt 0.499397 0.688140
vt 0.491218 0.701828
vt 0.501112 0.678102
vt 0.504784 0.679813
vt 0.503048 0.674483
vt 0.506432 0.675978
vt 0.478768 0.602860
vt 0.539136 0.695050
vt 0.544275 0.686306
vt 0.693585 0.665331
vt 0.702681 0.671144
vt 0.480779 0.650214
vt 0.751347 0.647218
vt 0.532596 0.710949
vt 0.712816 0.682898
vt 0.779224 0.596528
vt 0.532301 0.726771
vt 0.718629 0.697300
vt 0.809391 0.037084
vt 0.803971 0.085724
vt 0.731486 0.085724
vt 0.752096 0.037084
vt 0.482921 0.602752
vt 0.544026 0.682221
vt 0.692670 0.661345
vt 0.728718 0.631475
vt 0.737699 0.598820
vt 0.712586 0.077931
vt 0.716755 0.063675
vt 0.811381 0.346988
vt 0.755921 0.327686
vt 0.743878 0.316409
vt 0.735074 0.302294
vt 0.484619 0.649557
vt 0.710277 0.094830
vt 0.710446 0.109844
vt 0.516508 0.726031
vt 0.518765 0.710075
vt 0.498604 0.722245
vt 0.503636 0.706825
vt 0.483708 0.716103
vt 0.471751 0.708472
vt 0.461220 0.698291
vt 0.472376 0.688527
vt 0.452231 0.685441
vt 0.465551 0.678174
vt 0.483588 0.678073
vt 0.476702 0.668016
vt 0.483944 0.661124
vt 0.491334 0.671274
vt 0.526033 0.694950
vt 0.531396 0.686265
vt 0.511486 0.692368
vt 0.516901 0.683864
vt 0.517918 0.679791
vt 0.531737 0.682102
vt 0.494302 0.668194
vt 0.487486 0.659377
vt 0.726378 0.048244
vt 0.738670 0.040074
vt 0.745358 0.658525
vt 0.734968 0.649343
vt 0.736349 0.668896
vt 0.726070 0.659290
vt 0.725080 0.677214
vt 0.714843 0.666887
vt 0.706052 0.661271
vt 0.717713 0.653787
vt 0.726973 0.643889
vt 0.733234 0.690368
vt 0.746898 0.679733
vt 0.757401 0.666693
vt 0.764711 0.653546
vt 0.704367 0.657592
vt 0.715183 0.650715
vt 0.723665 0.641565
vt 0.730852 0.287490
vt 0.769372 0.334407
vt 0.427778 0.597994
vt 0.418494 0.662754
vt 0.407558 0.653223
vt 0.414125 0.600225
vt 0.138020 0.595843
vt 0.151531 0.597851
vt 0.431734 0.667755
vt 0.164598 0.637519
vt 0.161098 0.599135
vt 0.171938 0.631907
vt 0.399942 0.688171
vt 0.391131 0.693141
vt 0.384035 0.680968
vt 0.389915 0.678167
vt 0.379352 0.673590
vt 0.382577 0.672099
vt 0.377947 0.670225
vt 0.380864 0.668921
vt 0.406513 0.601261
vt 0.348716 0.687020
vt 0.200004 0.667766
vt 0.208125 0.662375
vt 0.344025 0.679208
vt 0.401039 0.646366
vt 0.154202 0.646351
vt 0.354612 0.701140
vt 0.190980 0.678619
vt 0.124122 0.598493
vt 0.354987 0.715255
vt 0.186010 0.691819
vt 0.402599 0.600996
vt 0.397368 0.645562
vt 0.361881 0.659340
vt 0.363565 0.604009
vt 0.208890 0.658761
vt 0.344216 0.675508
vt 0.164886 0.598422
vt 0.175499 0.630330
vt 0.367770 0.673429
vt 0.198379 0.655523
vt 0.188601 0.649108
vt 0.180835 0.640227
vt 0.355352 0.675386
vt 0.366864 0.700318
vt 0.368930 0.714398
vt 0.380194 0.697452
vt 0.384564 0.710988
vt 0.397548 0.705725
vt 0.408073 0.699292
vt 0.407968 0.681713
vt 0.417581 0.690718
vt 0.414348 0.672632
vt 0.426086 0.679701
vt 0.398093 0.672151
vt 0.404410 0.663117
vt 0.397726 0.656662
vt 0.391126 0.666027
vt 0.355645 0.679127
vt 0.360422 0.686895
vt 0.368625 0.677057
vt 0.373347 0.684637
vt 0.388391 0.663333
vt 0.394393 0.655033
vt 0.169939 0.647854
vt 0.160307 0.656850
vt 0.178440 0.657089
vt 0.169058 0.666286
vt 0.188884 0.664021
vt 0.179658 0.673676
vt 0.196854 0.658858
vt 0.186212 0.651929
vt 0.177610 0.642459
vt 0.172548 0.685934
vt 0.159649 0.676677
vt 0.149311 0.665058
vt 0.141698 0.653019
vt 0.934224 0.973047
vt 0.222240 0.971784
vt 0.221828 0.966797
vt 0.934107 0.967652
vt 0.221810 0.961631
vt 0.933754 0.962403
vt 0.221617 0.956445
vt 0.933411 0.957229
vt 0.221770 0.951244
vt 0.933081 0.952148
vt 0.221626 0.946046
vt 0.932815 0.947157
vt 0.221813 0.940857
vt 0.932446 0.942241
vt 0.221669 0.935676
vt 0.932171 0.937344
vt 0.221844 0.930506
vt 0.932212 0.932459
vt 0.214726 0.946007
vt 0.214709 0.940806
vt 0.214612 0.951232
vt 0.201270 0.951048
vt 0.201329 0.945898
vt 0.214814 0.967314
vt 0.214613 0.961831
vt 0.214818 0.935642
vt 0.214682 0.956489
vt 0.214794 0.930482
vt 0.215136 0.973091
vt 0.201488 0.940765
vt 0.201493 0.935632
vt 0.201606 0.930504
vt 0.199833 0.972772
vt 0.200451 0.966947
vt 0.200820 0.961531
vt 0.201101 0.956276
vt 0.194428 0.940640
vt 0.194641 0.935561
vt 0.194528 0.930461
vt 0.192818 0.970943
vt 0.193518 0.966076
vt 0.193874 0.961016
vt 0.194070 0.955927
vt 0.194164 0.950819
vt 0.194463 0.945736
vt 0.176156 0.969752
vt 0.176506 0.964863
vt 0.176697 0.960021
vt 0.176860 0.955120
vt 0.176992 0.950192
vt 0.177100 0.945245
vt 0.177183 0.940287
vt 0.177241 0.935321
vt 0.177273 0.930353
vt 0.077224 0.957919
vt 0.076825 0.962800
vt 0.043346 0.958374
vt 0.045214 0.953523
vt 0.077609 0.953126
vt 0.046695 0.949081
vt 0.077949 0.948393
vt 0.047885 0.944948
vt 0.078234 0.943720
vt 0.048819 0.940949
vt 0.078455 0.939093
vt 0.049494 0.937078
vt 0.078604 0.934501
vt 0.049932 0.933302
vt 0.078679 0.929928
vt 0.050147 0.929550
vt 0.037662 0.949875
vt 0.039640 0.946207
vt 0.041125 0.942719
vt 0.042266 0.939341
vt 0.043098 0.935988
vt 0.043609 0.932660
vt 0.043840 0.929363
vt 0.040173 0.963159
vt 0.031924 0.957415
vt 0.035197 0.953496
vt 0.034872 0.936769
vt 0.035713 0.934254
vt 0.036245 0.931703
vt 0.036477 0.929139
vt 0.024674 0.948370
vt 0.027699 0.946355
vt 0.030152 0.944091
vt 0.032140 0.941728
vt 0.033692 0.939269
vt 0.020296 0.935777
vt 0.021578 0.935338
vt 0.022711 0.934713
vt 0.023686 0.933932
vt 0.024505 0.933033
vt 0.025156 0.932041
vt 0.025637 0.930982
vt 0.025935 0.929872
vt 0.026059 0.928740
vt 0.019532 0.930931
vt 0.019993 0.930842
vt 0.020419 0.930674
vt 0.020800 0.930435
vt 0.021126 0.930137
vt 0.021391 0.929790
vt 0.021587 0.929406
vt 0.021713 0.928997
vt 0.021765 0.928574
vt 0.019436 0.928483
vt 0.925381 0.565916
vt 0.871252 0.556512
vt 0.871635 0.551427
vt 0.925733 0.560728
vt 0.879515 0.454995
vt 0.871888 0.423337
vt 0.923200 0.411510
vt 0.933416 0.444357
vt 0.945783 0.406203
vt 0.961051 0.435931
vt 0.871252 0.418530
vt 0.922017 0.406682
vt 0.934139 0.561141
vt 0.936640 0.564965
vt 0.966662 0.437316
vt 0.966696 0.470765
vt 0.962442 0.469159
vt 0.951824 0.488278
vt 0.945591 0.485318
vt 0.946334 0.531517
vt 0.939811 0.532525
vt 0.945952 0.543494
vt 0.878753 0.516563
vt 0.882506 0.484421
vt 0.143692 0.935109
vt 0.143716 0.930231
vt 0.110673 0.934915
vt 0.110703 0.930111
vt 0.143657 0.939987
vt 0.110622 0.939722
vt 0.143611 0.944864
vt 0.110552 0.944539
vt 0.143557 0.949740
vt 0.110465 0.949366
vt 0.143495 0.954614
vt 0.110365 0.954208
vt 0.143429 0.959486
vt 0.110256 0.959064
vt 0.143361 0.964355
vt 0.110143 0.963937
vt 0.967847 0.422986
vt 0.972521 0.422731
vt 0.959112 0.404045
vt 0.934465 0.891823
vt 0.934363 0.897214
vt 0.222026 0.894181
vt 0.222462 0.889153
vt 0.934027 0.902466
vt 0.221983 0.899346
vt 0.933574 0.907631
vt 0.222073 0.904587
vt 0.933090 0.912709
vt 0.221942 0.909831
vt 0.932634 0.917719
vt 0.221853 0.915036
vt 0.932445 0.922689
vt 0.221771 0.920208
vt 0.932372 0.927593
vt 0.221662 0.925344
vt 0.214860 0.920249
vt 0.214837 0.915075
vt 0.201472 0.915051
vt 0.201449 0.909880
vt 0.214812 0.909848
vt 0.214823 0.899150
vt 0.214993 0.893683
vt 0.214905 0.925363
vt 0.214761 0.904545
vt 0.215275 0.887775
vt 0.201597 0.920196
vt 0.201573 0.925351
vt 0.200650 0.894011
vt 0.199960 0.888407
vt 0.201009 0.899422
vt 0.201265 0.904667
vt 0.194702 0.925361
vt 0.194509 0.920261
vt 0.193777 0.894905
vt 0.193246 0.890094
vt 0.194096 0.899928
vt 0.194286 0.904986
vt 0.194342 0.910075
vt 0.194594 0.915158
vt 0.176844 0.895786
vt 0.176696 0.890902
vt 0.176973 0.900649
vt 0.177082 0.905556
vt 0.177166 0.910499
vt 0.177230 0.915454
vt 0.177269 0.920415
vt 0.177286 0.925383
vt 0.077699 0.902113
vt 0.046460 0.905993
vt 0.045057 0.901522
vt 0.077351 0.897281
vt 0.078011 0.906861
vt 0.047661 0.910218
vt 0.078273 0.911548
vt 0.048632 0.914253
vt 0.078475 0.916186
vt 0.049370 0.918191
vt 0.078630 0.920781
vt 0.049845 0.922024
vt 0.078693 0.925360
vt 0.050109 0.925798
vt 0.040729 0.912538
vt 0.039093 0.908872
vt 0.041941 0.916021
vt 0.042868 0.919418
vt 0.043461 0.922779
vt 0.043784 0.926074
vt 0.037051 0.905041
vt 0.034364 0.900928
vt 0.043385 0.896598
vt 0.036057 0.923992
vt 0.035400 0.921437
vt 0.036418 0.926571
vt 0.029039 0.911397
vt 0.026231 0.909122
vt 0.031306 0.913863
vt 0.033046 0.916328
vt 0.034407 0.918887
vt 0.022116 0.921828
vt 0.020875 0.921289
vt 0.023194 0.922543
vt 0.024105 0.923391
vt 0.024843 0.924354
vt 0.025404 0.925394
vt 0.025799 0.926480
vt 0.026009 0.927604
vt 0.020176 0.926176
vt 0.019725 0.926051
vt 0.020588 0.926378
vt 0.020948 0.926646
vt 0.021250 0.926969
vt 0.021485 0.927335
vt 0.021653 0.927732
vt 0.021746 0.928149
vt 0.143727 0.925352
vt 0.110717 0.925310
vt 0.143727 0.920474
vt 0.110709 0.920506
vt 0.143716 0.915597
vt 0.110680 0.915697
vt 0.143695 0.910720
vt 0.110634 0.910879
vt 0.143664 0.905844
vt 0.110573 0.906047
vt 0.143627 0.900971
vt 0.110498 0.901203
vt 0.143586 0.896100
vt 0.110414 0.896346
vt 0.951042 0.909809
vt 0.949924 0.914757
vt 0.947892 0.932507
vt 0.948042 0.936811
vt 0.949855 0.950234
vt 0.950990 0.955088
vt 0.949054 0.919380
vt 0.955980 0.891598
vt 0.954061 0.898531
vt 0.948961 0.945635
vt 0.948398 0.923844
vt 0.953889 0.966203
vt 0.955744 0.973091
vt 0.952452 0.904424
vt 0.948374 0.941169
vt 0.947991 0.928195
vt 0.952360 0.960317
vt 0.143024 0.891235
vt 0.076669 0.892412
vt 0.109913 0.891479
vt 0.960408 0.921978
vt 0.959428 0.925507
vt 0.958847 0.928989
vt 0.958638 0.932452
vt 0.969408 0.958823
vt 0.974021 0.963302
vt 0.965986 0.954448
vt 0.963450 0.950423
vt 0.974506 0.901747
vt 0.969803 0.906232
vt 0.961573 0.946625
vt 0.966321 0.910637
vt 0.960221 0.942976
vt 0.963712 0.914536
vt 0.959311 0.939420
vt 0.961767 0.918267
vt 0.958792 0.935921
vt 0.983089 0.932646
vt 0.960990 0.400265
vt 0.950091 0.543652
vt 0.945073 0.400730
vt 0.934321 0.806051
vt 0.934201 0.811430
vt 0.221066 0.808394
vt 0.221507 0.803382
vt 0.933849 0.816665
vt 0.221013 0.813542
vt 0.933380 0.821813
vt 0.221076 0.818747
vt 0.932878 0.826886
vt 0.220880 0.823940
vt 0.932583 0.831908
vt 0.221022 0.829124
vt 0.932382 0.836851
vt 0.220831 0.834298
vt 0.932087 0.841743
vt 0.220944 0.839456
vt 0.932108 0.846624
vt 0.221059 0.844669
vt 0.214020 0.834267
vt 0.213929 0.829118
vt 0.200651 0.829081
vt 0.200558 0.823927
vt 0.213970 0.823919
vt 0.213937 0.813354
vt 0.214063 0.807890
vt 0.213940 0.839413
vt 0.213882 0.818689
vt 0.213889 0.844614
vt 0.214363 0.802007
vt 0.200709 0.834234
vt 0.200698 0.839389
vt 0.200737 0.844559
vt 0.199766 0.808168
vt 0.199141 0.802531
vt 0.200171 0.813513
vt 0.200409 0.818748
vt 0.193675 0.839409
vt 0.193722 0.834327
vt 0.193545 0.844505
vt 0.192981 0.809051
vt 0.192288 0.804257
vt 0.193300 0.814047
vt 0.193502 0.819100
vt 0.193631 0.824172
vt 0.193703 0.829249
vt 0.176188 0.810069
vt 0.175903 0.805375
vt 0.176307 0.814880
vt 0.176398 0.819737
vt 0.176458 0.824629
vt 0.176490 0.829546
vt 0.176492 0.834482
vt 0.176469 0.839429
vt 0.176423 0.844383
vt 0.077313 0.815360
vt 0.045333 0.819303
vt 0.043517 0.814477
vt 0.076984 0.810490
vt 0.077617 0.820150
vt 0.046800 0.823734
vt 0.077880 0.824868
vt 0.047957 0.827897
vt 0.078088 0.829524
vt 0.048838 0.831875
vt 0.078253 0.834122
vt 0.049438 0.835748
vt 0.078328 0.838694
vt 0.049818 0.839513
vt 0.078328 0.843243
vt 0.049970 0.843238
vt 0.039728 0.826472
vt 0.037807 0.822865
vt 0.041199 0.829966
vt 0.042293 0.833374
vt 0.043058 0.836718
vt 0.043527 0.840016
vt 0.043709 0.843287
vt 0.035405 0.819226
vt 0.032341 0.815407
vt 0.040416 0.809794
vt 0.035701 0.838316
vt 0.034905 0.835797
vt 0.036191 0.840862
vt 0.036381 0.843417
vt 0.027909 0.826212
vt 0.024915 0.824086
vt 0.030327 0.828497
vt 0.032253 0.830854
vt 0.033763 0.833299
vt 0.021708 0.836982
vt 0.020443 0.836526
vt 0.022822 0.837625
vt 0.023775 0.838418
vt 0.024565 0.839331
vt 0.025183 0.840331
vt 0.025641 0.841390
vt 0.025915 0.842496
vt 0.026030 0.843622
vt 0.020040 0.841410
vt 0.019585 0.841312
vt 0.020459 0.841587
vt 0.020833 0.841831
vt 0.021150 0.842135
vt 0.021405 0.842485
vt 0.021592 0.842870
vt 0.021709 0.843278
vt 0.021752 0.843699
vt 0.019436 0.843740
vt 0.923311 0.566261
vt 0.923808 0.571021
vt 0.871688 0.580988
vt 0.871252 0.576082
vt 0.879372 0.677092
vt 0.933916 0.687264
vt 0.923936 0.720542
vt 0.871846 0.709165
vt 0.962036 0.695076
vt 0.947303 0.725308
vt 0.871252 0.714042
vt 0.922816 0.725497
vt 0.933147 0.566756
vt 0.931576 0.570049
vt 0.967426 0.693544
vt 0.962452 0.662026
vt 0.966631 0.660343
vt 0.945346 0.646209
vt 0.951522 0.643137
vt 0.938238 0.598874
vt 0.945031 0.599704
vt 0.943778 0.587000
vt 0.878492 0.615137
vt 0.882216 0.647518
vt 0.143039 0.843985
vt 0.143094 0.839130
vt 0.110188 0.843571
vt 0.110235 0.838791
vt 0.143137 0.834275
vt 0.110262 0.834007
vt 0.143170 0.829422
vt 0.110270 0.829213
vt 0.143195 0.824571
vt 0.110262 0.824407
vt 0.143212 0.819721
vt 0.110241 0.819587
vt 0.143225 0.814875
vt 0.110212 0.814752
vt 0.143237 0.810032
vt 0.110179 0.809900
vt 0.973428 0.706651
vt 0.969521 0.706950
vt 0.961569 0.726477
vt 0.934123 0.887368
vt 0.221271 0.886106
vt 0.220881 0.881030
vt 0.934003 0.881937
vt 0.220915 0.875806
vt 0.933641 0.876650
vt 0.220797 0.870565
vt 0.933286 0.871440
vt 0.220738 0.865352
vt 0.932945 0.866324
vt 0.220694 0.860170
vt 0.932673 0.861301
vt 0.220627 0.855028
vt 0.932505 0.856361
vt 0.220851 0.849878
vt 0.932248 0.851489
vt 0.213770 0.860068
vt 0.213872 0.854935
vt 0.213701 0.865267
vt 0.200303 0.865149
vt 0.200371 0.859992
vt 0.213708 0.881466
vt 0.213586 0.875917
vt 0.213886 0.849799
vt 0.213641 0.870539
vt 0.213964 0.887443
vt 0.200518 0.854875
vt 0.200626 0.849735
vt 0.198571 0.886700
vt 0.199277 0.881030
vt 0.199755 0.875643
vt 0.200066 0.870369
vt 0.193583 0.854694
vt 0.193584 0.849599
vt 0.191710 0.884855
vt 0.192435 0.880067
vt 0.192833 0.875039
vt 0.193071 0.869962
vt 0.193208 0.864861
vt 0.193553 0.859779
vt 0.175243 0.883695
vt 0.175484 0.878830
vt 0.175700 0.873983
vt 0.175889 0.869084
vt 0.176049 0.864161
vt 0.176185 0.859225
vt 0.176290 0.854281
vt 0.176365 0.849333
vt 0.076904 0.870871
vt 0.076472 0.875649
vt 0.044467 0.870999
vt 0.045937 0.866587
vt 0.077298 0.866160
vt 0.047223 0.862365
vt 0.077639 0.861508
vt 0.048244 0.858341
vt 0.077920 0.856903
vt 0.049014 0.854482
vt 0.078131 0.852333
vt 0.049559 0.850686
vt 0.078268 0.847784
vt 0.049873 0.846951
vt 0.038666 0.863589
vt 0.040343 0.860004
vt 0.041636 0.856550
vt 0.042578 0.853152
vt 0.043241 0.849845
vt 0.043622 0.846563
vt 0.042857 0.875735
vt 0.033958 0.871471
vt 0.036599 0.867377
vt 0.035193 0.851054
vt 0.035890 0.848518
vt 0.036283 0.845971
vt 0.025844 0.863231
vt 0.028733 0.860917
vt 0.030992 0.858518
vt 0.032789 0.856070
vt 0.034163 0.853587
vt 0.020714 0.850932
vt 0.021954 0.850422
vt 0.023048 0.849729
vt 0.023967 0.848897
vt 0.024726 0.847960
vt 0.025301 0.846940
vt 0.025716 0.845865
vt 0.025959 0.844752
vt 0.019670 0.846164
vt 0.020121 0.846049
vt 0.020535 0.845857
vt 0.020899 0.845598
vt 0.021205 0.845284
vt 0.021449 0.844926
vt 0.021622 0.844535
vt 0.021724 0.844122
vt 0.142973 0.848841
vt 0.110123 0.848348
vt 0.142895 0.853696
vt 0.110037 0.853128
vt 0.142805 0.858551
vt 0.109930 0.857912
vt 0.142705 0.863406
vt 0.109804 0.862705
vt 0.142596 0.868259
vt 0.109662 0.867509
vt 0.142479 0.873111
vt 0.109506 0.872327
vt 0.142357 0.877960
vt 0.109342 0.877160
vt 0.949790 0.864320
vt 0.950954 0.869222
vt 0.947952 0.842341
vt 0.947797 0.846619
vt 0.950892 0.824010
vt 0.949787 0.828910
vt 0.948891 0.859699
vt 0.953996 0.880473
vt 0.955939 0.887443
vt 0.948906 0.833552
vt 0.948240 0.855262
vt 0.955699 0.805987
vt 0.953819 0.812856
vt 0.952397 0.874550
vt 0.948249 0.837971
vt 0.947896 0.850910
vt 0.952246 0.818724
vt 0.141715 0.882794
vt 0.075707 0.880469
vt 0.108758 0.881994
vt 0.959258 0.853613
vt 0.960229 0.857145
vt 0.958684 0.850125
vt 0.958478 0.846656
vt 0.974013 0.815866
vt 0.969384 0.820333
vt 0.965956 0.824706
vt 0.963417 0.828741
vt 0.969670 0.872743
vt 0.974362 0.877197
vt 0.961537 0.832559
vt 0.966195 0.868358
vt 0.960121 0.836133
vt 0.963589 0.864476
vt 0.959216 0.839706
vt 0.961645 0.860753
vt 0.958627 0.843180
vt 0.982870 0.846505
vt 0.964664 0.730851
vt 0.948778 0.586214
vt 0.946821 0.731137
vt 0.718514 0.059404
s 1
f 4/1/1 28/2/2 32/3/3 8/4/4
f 3/5/5 1/6/6 5/7/7 6/8/8
s 0
f 11/9/9 44/10/9 28/2/9 4/1/9
s 1
f 74/11/10 6/8/8 14/12/11 79/13/12
f 27/14/13 24/15/14 35/16/15 31/17/16
f 31/17/16 35/16/15 52/18/17 47/19/18
f 2/20/1 4/1/1 8/4/4 7/21/4
s 0
f 9/22/9 11/9/9 4/1/9 2/20/9
f 47/19/19 52/18/19 59/23/19 56/24/19
s 1
f 7/21/4 8/4/4 16/25/20 15/26/20
f 36/27/21 75/28/22 80/29/23 51/30/24
f 8/4/4 32/3/3 48/31/25 16/25/20
f 65/32/26 3/5/5 6/8/8 74/11/10
f 23/33/27 64/34/28 75/28/22 36/27/21
s 0
f 1/6/29 3/5/29 12/35/29 10/36/29
f 39/37/30 70/38/30 64/34/30 23/33/30
f 22/39/31 55/40/31 61/41/31 21/42/31
f 15/26/29 16/25/29 22/43/29 19/44/29
f 51/30/32 80/29/32 84/45/32 60/46/32
s 1
f 6/8/8 5/7/7 13/47/33 14/12/11
s 0
f 79/13/34 14/12/34 18/48/34 85/49/34
f 61/41/31 56/50/31 59/51/31 62/52/31
f 19/53/31 22/39/31 21/42/31 20/54/31
f 20/54/31 21/42/31 18/55/31 17/56/31
f 14/12/9 13/47/9 17/57/9 18/48/9
f 61/41/31 86/58/31 87/59/31 88/60/31
f 16/25/29 48/31/29 55/61/29 22/43/29
f 63/62/31 60/63/31 61/41/31 62/52/31
f 39/37/35 23/33/35 25/64/35 41/65/35
f 41/65/36 25/64/36 26/66/36 42/67/36
f 42/67/37 26/66/37 24/15/37 40/68/37
f 43/69/38 27/14/38 29/70/38 45/71/38
f 45/71/39 29/70/39 30/72/39 46/73/39
f 46/73/40 30/72/40 28/2/40 44/10/40
s 1
f 27/14/13 31/17/16 33/74/41 29/70/42
f 29/70/42 33/74/41 34/75/43 30/72/44
f 30/72/44 34/75/43 32/3/3 28/2/2
f 48/31/25 32/3/3 34/75/43 50/76/45
f 50/76/45 34/75/43 33/74/41 49/77/46
f 49/77/46 33/74/41 31/17/16 47/19/18
f 36/27/21 51/30/24 53/78/47 38/79/48
f 38/79/48 53/78/47 54/80/49 37/81/50
f 37/81/50 54/80/49 52/18/17 35/16/15
f 35/16/15 24/15/14 26/66/51 37/81/50
f 37/81/50 26/66/51 25/64/52 38/79/48
f 38/79/48 25/64/52 23/33/27 36/27/21
s 0
f 59/23/53 52/18/53 54/80/53 62/82/53
f 62/82/54 54/80/54 53/78/54 63/83/54
f 63/83/55 53/78/55 51/30/55 60/46/55
f 47/19/56 56/24/56 58/84/56 49/77/56
f 49/77/57 58/84/57 57/85/57 50/76/57
f 50/76/58 57/85/58 55/61/58 48/31/58
f 43/69/59 40/68/59 24/15/59 27/14/59
f 61/41/31 55/40/31 57/86/31 58/87/31
s 1
f 65/32/26 74/11/10 76/88/60 68/89/61
f 68/89/61 76/88/60 77/90/62 67/91/63
f 67/91/63 77/90/62 78/92/64 66/93/65
f 66/93/65 78/92/64 75/28/22 64/34/28
f 80/29/23 75/28/22 78/92/64 83/94/66
f 83/94/66 78/92/64 77/90/62 82/95/67
f 82/95/67 77/90/62 76/88/60 81/96/68
f 81/96/68 76/88/60 74/11/10 79/13/12
s 0
f 64/34/69 70/38/69 73/97/69 66/93/69
f 66/93/70 73/97/70 72/98/70 67/91/70
f 67/91/71 72/98/71 71/99/71 68/89/71
f 68/89/72 71/99/72 69/100/72 65/32/72
f 84/45/73 80/29/73 83/94/73 86/101/73
f 86/101/74 83/94/74 82/95/74 87/102/74
f 87/102/75 82/95/75 81/96/75 88/103/75
f 88/103/76 81/96/76 79/13/76 85/49/76
f 3/5/77 65/32/77 69/100/77 12/35/77
f 86/58/31 61/41/31 60/63/31 84/104/31
f 88/60/31 85/105/31 18/55/31 61/41/31
f 61/41/31 18/55/31 21/42/31
s 1
f 92/106/78 96/107/79 116/108/80 112/109/81
f 91/110/82 94/111/83 93/112/84 89/113/85
s 0
f 11/9/9 92/106/9 112/109/9 44/114/9
s 1
f 145/115/86 150/116/87 98/117/88 94/111/83
f 111/118/89 115/119/90 119/120/91 108/121/92
f 115/119/90 123/122/93 128/123/94 119/120/91
f 90/124/78 95/125/79 96/107/79 92/106/78
s 0
f 9/22/9 90/124/9 92/106/9 11/9/9
f 123/122/19 132/126/19 135/127/19 128/123/19
s 1
f 95/125/79 99/128/95 100/129/95 96/107/79
f 120/130/96 127/131/97 151/132/98 146/133/99
f 96/107/79 100/129/95 124/134/100 116/108/80
f 141/135/101 145/115/86 94/111/83 91/110/82
f 107/136/102 120/130/96 146/133/99 140/137/103
s 0
f 89/113/29 10/138/29 12/139/29 91/110/29
f 39/140/30 107/136/30 140/137/30 70/141/30
f 106/142/104 105/143/104 137/144/104 131/145/104
f 99/128/29 103/146/29 106/142/29 100/129/29
f 127/131/32 136/147/32 155/148/32 151/132/32
s 1
f 94/111/83 98/117/88 97/149/105 93/112/84
s 0
f 150/116/34 156/150/34 102/151/34 98/117/34
f 137/144/104 138/152/104 135/127/104
f 103/146/104 104/153/104 105/143/104 106/142/104
f 104/153/104 101/154/104 102/151/104 105/143/104
f 98/117/9 102/151/9 101/154/9 97/149/9
f 137/144/104 159/155/104 158/156/104 157/157/104
f 100/129/29 106/142/29 131/145/29 124/134/29
f 139/158/104 138/152/104 137/144/104 136/147/104
f 39/140/106 41/159/106 109/160/106 107/136/106
f 41/159/107 42/161/107 110/162/107 109/160/107
f 42/161/37 40/163/37 108/121/37 110/162/37
f 43/164/108 45/165/108 113/166/108 111/118/108
f 45/165/109 46/167/109 114/168/109 113/166/109
f 46/167/110 44/114/110 112/109/110 114/168/110
s 1
f 111/118/89 113/166/111 117/169/112 115/119/90
f 113/166/111 114/168/113 118/170/114 117/169/112
f 114/168/113 112/109/81 116/108/80 118/170/114
f 124/134/100 126/171/115 118/170/114 116/108/80
f 126/171/115 125/172/116 117/169/112 118/170/114
f 125/172/116 123/122/93 115/119/90 117/169/112
f 120/130/96 122/173/117 129/174/118 127/131/97
f 122/173/117 121/175/119 130/176/120 129/174/118
f 121/175/119 119/120/91 128/123/94 130/176/120
f 119/120/91 121/175/119 110/162/121 108/121/92
f 121/175/119 122/173/117 109/160/122 110/162/121
f 122/173/117 120/130/96 107/136/102 109/160/122
s 0
f 135/127/123 138/152/123 130/176/123 128/123/123
f 138/152/124 139/158/124 129/174/124 130/176/124
f 139/158/125 136/147/125 127/131/125 129/174/125
f 123/122/126 125/172/126 134/177/126 132/126/126
f 125/172/127 126/171/127 133/178/127 134/177/127
f 126/171/128 124/134/128 131/145/128 133/178/128
f 43/164/59 111/118/59 108/121/59 40/163/59
f 137/144/104 134/177/104 133/178/104 131/145/104
s 1
f 141/135/101 144/179/129 147/180/130 145/115/86
f 144/179/129 143/181/131 148/182/132 147/180/130
f 143/181/131 142/183/133 149/184/134 148/182/132
f 142/183/133 140/137/103 146/133/99 149/184/134
f 151/132/98 154/185/135 149/184/134 146/133/99
f 154/185/135 153/186/136 148/182/132 149/184/134
f 153/186/136 152/187/137 147/180/130 148/182/132
f 152/187/137 150/116/87 145/115/86 147/180/130
s 0
f 140/137/138 142/183/138 73/188/138 70/141/138
f 142/183/139 143/181/139 72/189/139 73/188/139
f 143/181/140 144/179/140 71/190/140 72/189/140
f 144/179/141 141/135/141 69/191/141 71/190/141
f 155/148/142 157/157/142 154/185/142 151/132/142
f 157/157/143 158/156/143 153/186/143 154/185/143
f 158/156/144 159/155/144 152/187/144 153/186/144
f 159/155/145 156/150/145 150/116/145 152/187/145
f 91/110/77 12/139/77 69/191/77 141/135/77
f 157/157/104 155/148/104 136/147/104 137/144/104
f 159/155/104 137/144/104 102/151/104 156/150/104
f 137/144/104 105/143/104 102/151/104
s 1
f 161/192/1 163/193/4 180/194/146 176/195/147
f 160/196/148 162/197/149 5/7/7 1/6/6
s 0
f 164/198/9 161/192/9 176/195/9 192/199/9
s 1
f 222/200/150 227/201/151 166/202/152 162/197/149
f 175/203/153 179/204/154 183/205/155 172/206/156
f 179/204/154 195/207/157 200/208/158 183/205/155
f 2/20/1 7/21/4 163/193/4 161/192/1
s 0
f 9/22/9 2/20/9 161/192/9 164/198/9
f 195/207/159 204/209/159 207/210/159 200/208/159
s 1
f 7/21/4 15/26/20 167/211/20 163/193/4
f 184/212/160 199/213/161 228/214/162 223/215/163
f 163/193/4 167/211/20 196/216/164 180/194/146
f 213/217/165 222/200/150 162/197/149 160/196/148
f 171/218/166 184/212/160 223/215/163 212/219/167
s 0
f 1/6/29 10/36/29 165/220/29 160/196/29
f 187/221/168 171/218/168 212/219/168 218/222/168
f 170/223/31 169/224/31 209/225/31 203/226/31
f 15/26/29 19/44/29 170/227/29 167/211/29
f 199/213/169 208/228/169 232/229/169 228/214/169
s 1
f 162/197/149 166/202/152 13/47/33 5/7/7
s 0
f 227/201/170 233/230/170 168/231/170 166/202/170
f 209/225/31 210/232/31 207/233/31
f 19/53/31 20/54/31 169/224/31 170/223/31
f 20/54/31 17/56/31 168/234/31 169/224/31
f 166/202/9 168/231/9 17/57/9 13/47/9
f 209/225/31 236/235/31 235/236/31 234/237/31
f 167/211/29 170/227/29 203/238/29 196/216/29
f 211/239/31 210/232/31 209/225/31 208/240/31
f 187/221/171 189/241/171 173/242/171 171/218/171
f 189/241/172 190/243/172 174/244/172 173/242/172
f 190/243/173 188/245/173 172/206/173 174/244/173
f 191/246/174 193/247/174 177/248/174 175/203/174
f 193/247/175 194/249/175 178/250/175 177/248/175
f 194/249/176 192/199/176 176/195/176 178/250/176
s 1
f 175/203/153 177/248/177 181/251/178 179/204/154
f 177/248/177 178/250/179 182/252/180 181/251/178
f 178/250/179 176/195/147 180/194/146 182/252/180
f 196/216/164 198/253/181 182/252/180 180/194/146
f 198/253/181 197/254/182 181/251/178 182/252/180
f 197/254/182 195/207/157 179/204/154 181/251/178
f 184/212/160 186/255/183 201/256/184 199/213/161
f 186/255/183 185/257/185 202/258/186 201/256/184
f 185/257/185 183/205/155 200/208/158 202/258/186
f 183/205/155 185/257/185 174/244/187 172/206/156
f 185/257/185 186/255/183 173/242/188 174/244/187
f 186/255/183 184/212/160 171/218/166 173/242/188
s 0
f 207/210/189 210/259/189 202/258/189 200/208/189
f 210/259/190 211/260/190 201/256/190 202/258/190
f 211/260/191 208/228/191 199/213/191 201/256/191
f 195/207/192 197/254/192 206/261/192 204/209/192
f 197/254/193 198/253/193 205/262/193 206/261/193
f 198/253/194 196/216/194 203/238/194 205/262/194
f 191/246/195 175/203/195 172/206/195 188/245/195
f 209/225/31 206/263/31 205/264/31 203/226/31
s 1
f 213/217/165 216/265/196 224/266/197 222/200/150
f 216/265/196 215/267/198 225/268/199 224/266/197
f 215/267/198 214/269/200 226/270/201 225/268/199
f 214/269/200 212/219/167 223/215/163 226/270/201
f 228/214/162 231/271/202 226/270/201 223/215/163
f 231/271/202 230/272/203 225/268/199 226/270/201
f 230/272/203 229/273/204 224/266/197 225/268/199
f 229/273/204 227/201/151 222/200/150 224/266/197
s 0
f 212/219/205 214/269/205 221/274/205 218/222/205
f 214/269/206 215/267/206 220/275/206 221/274/206
f 215/267/207 216/265/207 219/276/207 220/275/207
f 216/265/208 213/217/208 217/277/208 219/276/208
f 232/229/209 234/278/209 231/271/209 228/214/209
f 234/278/210 235/279/210 230/272/210 231/271/210
f 235/279/211 236/280/211 229/273/211 230/272/211
f 236/280/212 233/230/212 227/201/212 229/273/212
f 160/196/213 165/220/213 217/277/213 213/217/213
f 234/237/31 232/281/31 208/240/31 209/225/31
f 236/235/31 209/225/31 168/234/31 233/282/31
f 209/225/31 169/224/31 168/234/31
s 1
f 238/283/78 251/284/214 255/285/215 240/286/79
f 237/287/216 89/113/85 93/112/84 239/288/217
s 0
f 164/198/9 192/289/9 251/284/9 238/283/9
s 1
f 284/290/218 239/288/217 241/291/219 289/292/220
f 250/293/221 247/294/222 258/295/223 254/296/224
f 254/296/224 258/295/223 267/297/225 262/298/226
f 90/124/78 238/283/78 240/286/79 95/125/79
s 0
f 9/22/9 164/198/9 238/283/9 90/124/9
f 262/298/159 267/297/159 274/299/159 271/300/159
s 1
f 95/125/79 240/286/79 242/301/95 99/128/95
f 259/302/227 285/303/228 290/304/229 266/305/230
f 240/286/79 255/285/215 263/306/231 242/301/95
f 280/307/232 237/287/216 239/288/217 284/290/218
f 246/308/233 279/309/234 285/303/228 259/302/227
s 0
f 89/113/29 237/287/29 165/310/29 10/138/29
f 187/311/168 218/312/168 279/309/168 246/308/168
f 245/313/104 270/314/104 276/315/104 244/316/104
f 99/128/29 242/301/29 245/313/29 103/146/29
f 266/305/169 290/304/169 294/317/169 275/318/169
s 1
f 239/288/217 93/112/84 97/149/105 241/291/219
s 0
f 289/292/170 241/291/170 243/319/170 295/320/170
f 276/315/104 274/299/104 277/321/104
f 103/146/104 245/313/104 244/316/104 104/153/104
f 104/153/104 244/316/104 243/319/104 101/154/104
f 241/291/9 97/149/9 101/154/9 243/319/9
f 276/315/104 296/322/104 297/323/104 298/324/104
f 242/301/29 263/306/29 270/314/29 245/313/29
f 278/325/104 275/318/104 276/315/104 277/321/104
f 187/311/235 246/308/235 248/326/235 189/327/235
f 189/327/236 248/326/236 249/328/236 190/329/236
f 190/329/173 249/328/173 247/294/173 188/330/173
f 191/331/237 250/293/237 252/332/237 193/333/237
f 193/333/238 252/332/238 253/334/238 194/335/238
f 194/335/239 253/334/239 251/284/239 192/289/239
s 1
f 250/293/221 254/296/224 256/336/240 252/332/241
f 252/332/241 256/336/240 257/337/242 253/334/243
f 253/334/243 257/337/242 255/285/215 251/284/214
f 263/306/231 255/285/215 257/337/242 265/338/244
f 265/338/244 257/337/242 256/336/240 264/339/245
f 264/339/245 256/336/240 254/296/224 262/298/226
f 259/302/227 266/305/230 268/340/246 261/341/247
f 261/341/247 268/340/246 269/342/248 260/343/249
f 260/343/249 269/342/248 267/297/225 258/295/223
f 258/295/223 247/294/222 249/328/250 260/343/249
f 260/343/249 249/328/250 248/326/251 261/341/247
f 261/341/247 248/326/251 246/308/233 259/302/227
s 0
f 274/299/252 267/297/252 269/342/252 277/321/252
f 277/321/253 269/342/253 268/340/253 278/325/253
f 278/325/254 268/340/254 266/305/254 275/318/254
f 262/298/255 271/300/255 273/344/255 264/339/255
f 264/339/256 273/344/256 272/345/256 265/338/256
f 265/338/257 272/345/257 270/314/257 263/306/257
f 191/331/195 188/330/195 247/294/195 250/293/195
f 276/315/104 270/314/104 272/345/104 273/344/104
s 1
f 280/307/232 284/290/218 286/346/258 283/347/259
f 283/347/259 286/346/258 287/348/260 282/349/261
f 282/349/261 287/348/260 288/350/262 281/351/263
f 281/351/263 288/350/262 285/303/228 279/309/234
f 290/304/229 285/303/228 288/350/262 293/352/264
f 293/352/264 288/350/262 287/348/260 292/353/265
f 292/353/265 287/348/260 286/346/258 291/354/266
f 291/354/266 286/346/258 284/290/218 289/292/220
s 0
f 279/309/267 218/312/267 221/355/267 281/351/267
f 281/351/268 221/355/268 220/356/268 282/349/268
f 282/349/269 220/356/269 219/357/269 283/347/269
f 283/347/270 219/357/270 217/358/270 280/307/270
f 294/317/271 290/304/271 293/352/271 296/322/271
f 296/322/272 293/352/272 292/353/272 297/323/272
f 297/323/273 292/353/273 291/354/273 298/324/273
f 298/324/274 291/354/274 289/292/274 295/320/274
f 237/287/213 280/307/213 217/358/213 165/310/213
f 296/322/104 276/315/104 275/318/104 294/317/104
f 298/324/104 295/320/104 243/319/104 276/315/104
f 276/315/104 243/319/104 244/316/104
f 56/50/31 61/41/31 58/87/31
f 299/359/275 300/360/275 302/361/275 301/362/275
f 301/362/276 302/361/276 304/363/276 303/364/276
f 303/364/277 304/363/277 306/365/277 305/366/277
f 305/366/278 306/365/278 308/367/278 307/368/278
f 307/368/279 308/367/279 310/369/279 309/370/279
f 309/370/280 310/369/280 312/371/280 311/372/280
f 311/372/281 312/371/281 314/373/281 313/374/281
f 313/374/282 314/373/282 316/375/282 315/376/282
f 312/371/9 310/369/9 322/377/9 323/378/9
f 322/377/279 321/379/279 330/380/279 331/381/279
f 304/363/9 302/361/9 318/382/9 319/383/9
f 314/373/9 312/371/9 323/378/9 324/384/9
f 306/365/9 304/363/9 319/383/9 320/385/9
f 316/375/9 314/373/9 324/384/9 325/386/9
f 308/367/9 306/365/9 320/385/9 321/379/9
f 310/369/9 308/367/9 321/379/9 322/377/9
f 302/361/9 300/360/9 317/387/9 318/382/9
f 323/378/280 322/377/280 331/381/280 332/388/280
f 324/384/281 323/378/281 332/388/281 333/389/281
f 325/386/282 324/384/282 333/389/282 334/390/282
f 318/382/275 317/387/275 326/391/275 327/392/275
f 319/383/276 318/382/276 327/392/276 328/393/276
f 320/385/277 319/383/277 328/393/277 329/394/277
f 321/379/278 320/385/278 329/394/278 330/380/278
f 333/389/29 332/388/29 341/395/29 342/396/29
f 334/390/29 333/389/29 342/396/29 343/397/29
f 327/392/29 326/391/29 335/398/29 336/399/29
f 328/393/29 327/392/29 336/399/29 337/400/29
f 329/394/29 328/393/29 337/400/29 338/401/29
f 330/380/29 329/394/29 338/401/29 339/402/29
f 331/381/29 330/380/29 339/402/29 340/403/29
f 332/388/29 331/381/29 340/403/29 341/395/29
f 336/399/275 335/398/275 344/404/275 345/405/275
f 337/400/276 336/399/276 345/405/276 346/406/276
f 338/401/277 337/400/277 346/406/277 347/407/277
f 339/402/278 338/401/278 347/407/278 348/408/278
f 340/403/279 339/402/279 348/408/279 349/409/279
f 341/395/280 340/403/280 349/409/280 350/410/280
f 342/396/281 341/395/281 350/410/281 351/411/281
f 343/397/282 342/396/282 351/411/282 352/412/282
f 406/413/276 403/414/276 354/415/276 355/416/276
f 409/417/277 406/413/277 355/416/277 356/418/277
f 412/419/278 409/417/278 356/418/278 357/420/278
f 415/421/279 412/419/279 357/420/279 358/422/279
f 418/423/280 415/421/280 358/422/280 359/424/280
f 421/425/281 418/423/281 359/424/281 360/426/281
f 424/427/282 421/425/282 360/426/282 361/428/282
f 356/418/283 355/416/283 364/429/283 365/430/283
f 357/420/284 356/418/284 365/430/284 366/431/284
f 358/422/285 357/420/285 366/431/285 367/432/285
f 359/424/286 358/422/286 367/432/286 368/433/286
f 360/426/287 359/424/287 368/433/287 369/434/287
f 361/428/288 360/426/288 369/434/288 370/435/288
f 354/415/289 353/436/289 362/437/289 363/438/289
f 355/416/290 354/415/290 363/438/290 364/429/290
f 368/433/291 367/432/291 376/439/291 377/440/291
f 369/434/292 368/433/292 377/440/292 378/441/292
f 370/435/293 369/434/293 378/441/293 379/442/293
f 363/438/294 362/437/294 371/443/294 372/444/294
f 364/429/295 363/438/295 372/444/295 373/445/295
f 365/430/296 364/429/296 373/445/296 374/446/296
f 366/431/297 365/430/297 374/446/297 375/447/297
f 367/432/298 366/431/298 375/447/298 376/439/298
f 372/444/299 371/443/299 380/448/299 381/449/299
f 373/445/300 372/444/300 381/449/300 382/450/300
f 374/446/301 373/445/301 382/450/301 383/451/301
f 375/447/302 374/446/302 383/451/302 384/452/302
f 376/439/303 375/447/303 384/452/303 385/453/303
f 377/440/304 376/439/304 385/453/304 386/454/304
f 378/441/305 377/440/305 386/454/305 387/455/305
f 379/442/306 378/441/306 387/455/306 388/456/306
f 381/449/307 380/448/307 389/457/307 390/458/307
f 382/450/308 381/449/308 390/458/308 391/459/308
f 383/451/309 382/450/309 391/459/309 392/460/309
f 384/452/310 383/451/310 392/460/310 393/461/310
f 385/453/311 384/452/311 393/461/311 394/462/311
f 386/454/312 385/453/312 394/462/312 395/463/312
f 387/455/313 386/454/313 395/463/313 396/464/313
f 388/456/314 387/455/314 396/464/314 397/465/314
f 389/457/315 398/466/315 391/459/315 390/458/315
f 391/459/316 398/466/316 393/461/316 392/460/316
f 393/461/317 398/466/317 395/463/317 394/462/317
f 395/463/318 398/466/318 397/465/318 396/464/318
f 583/467/29 353/468/29 354/469/29 400/470/29
f 405/471/104 345/472/104 399/473/104 429/474/104
f 429/474/104 399/473/104 401/475/104 432/476/104
f 344/477/9 582/478/9 399/473/9 345/472/9
f 583/467/29 400/470/29 402/479/29 585/480/29
f 588/481/319 589/482/319 431/483/319 432/476/319
f 589/482/29 590/484/29 428/485/29 431/483/29
f 590/484/319 586/486/319 427/487/319 428/485/319
f 400/470/104 427/487/104 430/488/104 402/479/104
f 428/485/104 429/474/104 432/476/104 431/483/104
f 354/469/104 403/489/104 427/487/104 400/470/104
f 403/489/104 404/490/104 428/485/104 427/487/104
f 404/490/104 405/471/104 429/474/104 428/485/104
f 352/412/282 351/411/282 423/491/282 426/492/282
f 426/492/282 423/491/282 422/493/282 425/494/282
f 425/494/282 422/493/282 421/425/282 424/427/282
f 351/411/281 350/410/281 420/495/281 423/491/281
f 423/491/281 420/495/281 419/496/281 422/493/281
f 422/493/281 419/496/281 418/423/281 421/425/281
f 350/410/280 349/409/280 417/497/280 420/495/280
f 420/495/280 417/497/280 416/498/280 419/496/280
f 419/496/280 416/498/280 415/421/280 418/423/280
f 349/409/279 348/408/279 414/499/279 417/497/279
f 417/497/279 414/499/279 413/500/279 416/498/279
f 416/498/279 413/500/279 412/419/279 415/421/279
f 348/408/278 347/407/278 411/501/278 414/499/278
f 414/499/278 411/501/278 410/502/278 413/500/278
f 413/500/278 410/502/278 409/417/278 412/419/278
f 347/407/277 346/406/277 408/503/277 411/501/277
f 411/501/277 408/503/277 407/504/277 410/502/277
f 410/502/277 407/504/277 406/413/277 409/417/277
f 346/406/276 345/405/276 405/505/276 408/503/276
f 408/503/276 405/505/276 404/506/276 407/504/276
f 407/504/276 404/506/276 403/414/276 406/413/276
f 588/481/29 432/476/29 434/507/29 592/508/29
f 432/476/104 401/475/104 433/509/104 434/507/104
f 435/510/320 437/511/320 438/512/320 436/513/320
f 437/511/321 439/514/321 440/515/321 438/512/321
f 439/514/322 441/516/322 442/517/322 440/515/322
f 441/516/323 443/518/323 444/519/323 442/517/323
f 443/518/324 445/520/324 446/521/324 444/519/324
f 445/520/325 447/522/325 448/523/325 446/521/325
f 447/522/326 449/524/326 450/525/326 448/523/326
f 449/524/327 315/376/327 316/375/327 450/525/327
f 448/523/9 457/526/9 456/527/9 446/521/9
f 456/527/324 464/528/324 463/529/324 455/530/324
f 440/515/9 453/531/9 452/532/9 438/512/9
f 450/525/9 458/533/9 457/526/9 448/523/9
f 442/517/9 454/534/9 453/531/9 440/515/9
f 316/375/9 325/386/9 458/533/9 450/525/9
f 444/519/9 455/530/9 454/534/9 442/517/9
f 446/521/9 456/527/9 455/530/9 444/519/9
f 438/512/9 452/532/9 451/535/9 436/513/9
f 457/526/325 465/536/325 464/528/325 456/527/325
f 458/533/326 466/537/326 465/536/326 457/526/326
f 325/386/327 334/390/327 466/537/327 458/533/327
f 452/532/320 460/538/320 459/539/320 451/535/320
f 453/531/321 461/540/321 460/538/321 452/532/321
f 454/534/322 462/541/322 461/540/322 453/531/322
f 455/530/323 463/529/323 462/541/323 454/534/323
f 466/537/29 474/542/29 473/543/29 465/536/29
f 334/390/29 343/397/29 474/542/29 466/537/29
f 460/538/29 468/544/29 467/545/29 459/539/29
f 461/540/29 469/546/29 468/544/29 460/538/29
f 462/541/29 470/547/29 469/546/29 461/540/29
f 463/529/29 471/548/29 470/547/29 462/541/29
f 464/528/29 472/549/29 471/548/29 463/529/29
f 465/536/29 473/543/29 472/549/29 464/528/29
f 468/544/320 476/550/320 475/551/320 467/545/320
f 469/546/321 477/552/321 476/550/321 468/544/321
f 470/547/322 478/553/322 477/552/322 469/546/322
f 471/548/323 479/554/323 478/553/323 470/547/323
f 472/549/324 480/555/324 479/554/324 471/548/324
f 473/543/325 481/556/325 480/555/325 472/549/325
f 474/542/326 482/557/326 481/556/326 473/543/326
f 343/397/327 352/412/327 482/557/327 474/542/327
f 526/558/321 485/559/321 484/560/321 523/561/321
f 529/562/322 486/563/322 485/559/322 526/558/322
f 532/564/323 487/565/323 486/563/323 529/562/323
f 535/566/324 488/567/324 487/565/324 532/564/324
f 538/568/325 489/569/325 488/567/325 535/566/325
f 541/570/326 490/571/326 489/569/326 538/568/326
f 424/427/327 361/428/327 490/571/327 541/570/327
f 486/563/328 494/572/328 493/573/328 485/559/328
f 487/565/329 495/574/329 494/572/329 486/563/329
f 488/567/330 496/575/330 495/574/330 487/565/330
f 489/569/331 497/576/331 496/575/331 488/567/331
f 490/571/332 498/577/332 497/576/332 489/569/332
f 361/428/333 370/435/333 498/577/333 490/571/333
f 484/560/334 492/578/334 491/579/334 483/580/334
f 485/559/335 493/573/335 492/578/335 484/560/335
f 497/576/336 505/581/336 504/582/336 496/575/336
f 498/577/337 506/583/337 505/581/337 497/576/337
f 370/435/338 379/442/338 506/583/338 498/577/338
f 492/578/339 500/584/339 499/585/339 491/579/339
f 493/573/340 501/586/340 500/584/340 492/578/340
f 494/572/341 502/587/341 501/586/341 493/573/341
f 495/574/342 503/588/342 502/587/342 494/572/342
f 496/575/343 504/582/343 503/588/343 495/574/343
f 500/584/344 508/589/344 507/590/344 499/585/344
f 501/586/345 509/591/345 508/589/345 500/584/345
f 502/587/346 510/592/346 509/591/346 501/586/346
f 503/588/347 511/593/347 510/592/347 502/587/347
f 504/582/348 512/594/348 511/593/348 503/588/348
f 505/581/349 513/595/349 512/594/349 504/582/349
f 506/583/350 514/596/350 513/595/350 505/581/350
f 379/442/351 388/456/351 514/596/351 506/583/351
f 508/589/352 516/597/352 515/598/352 507/590/352
f 509/591/353 517/599/353 516/597/353 508/589/353
f 510/592/354 518/600/354 517/599/354 509/591/354
f 511/593/355 519/601/355 518/600/355 510/592/355
f 512/594/356 520/602/356 519/601/356 511/593/356
f 513/595/357 521/603/357 520/602/357 512/594/357
f 514/596/358 522/604/358 521/603/358 513/595/358
f 388/456/359 397/465/359 522/604/359 514/596/359
f 515/598/360 516/597/360 517/599/360 398/466/360
f 517/599/361 518/600/361 519/601/361 398/466/361
f 519/601/362 520/602/362 521/603/362 398/466/362
f 521/603/363 522/604/363 397/465/363 398/466/363
f 352/412/327 426/492/327 543/605/327 482/557/327
f 426/492/327 425/494/327 542/606/327 543/605/327
f 425/494/327 424/427/327 541/570/327 542/606/327
f 482/557/326 543/605/326 540/607/326 481/556/326
f 543/605/326 542/606/326 539/608/326 540/607/326
f 542/606/326 541/570/326 538/568/326 539/608/326
f 481/556/325 540/607/325 537/609/325 480/555/325
f 540/607/325 539/608/325 536/610/325 537/609/325
f 539/608/325 538/568/325 535/566/325 536/610/325
f 480/555/324 537/609/324 534/611/324 479/554/324
f 537/609/324 536/610/324 533/612/324 534/611/324
f 536/610/324 535/566/324 532/564/324 533/612/324
f 479/554/323 534/611/323 531/613/323 478/553/323
f 534/611/323 533/612/323 530/614/323 531/613/323
f 533/612/323 532/564/323 529/562/323 530/614/323
f 478/553/322 531/613/322 528/615/322 477/552/322
f 531/613/322 530/614/322 527/616/322 528/615/322
f 530/614/322 529/562/322 526/558/322 527/616/322
f 477/552/321 528/615/321 525/617/321 476/550/321
f 528/615/321 527/616/321 524/618/321 525/617/321
f 527/616/321 526/558/321 523/561/321 524/618/321
f 443/518/364 441/516/364 556/619/364 557/620/364
f 313/374/365 315/376/365 552/621/365 551/622/365
f 305/366/366 307/368/366 548/623/366 547/624/366
f 445/520/367 443/518/367 557/620/367 558/625/367
f 437/511/368 435/510/368 553/626/368 554/627/368
f 307/368/369 309/370/369 549/628/369 548/623/369
f 447/522/370 445/520/370 558/625/370 559/629/370
f 299/359/371 301/362/371 545/630/371 544/631/371
f 439/514/372 437/511/372 554/627/372 555/632/372
f 309/370/373 311/372/373 550/633/373 549/628/373
f 449/524/374 447/522/374 559/629/374 560/634/374
f 301/362/375 303/364/375 546/635/375 545/630/375
f 441/516/376 439/514/376 555/632/376 556/619/376
f 311/372/377 313/374/377 551/622/377 550/633/377
f 315/376/378 449/524/378 560/634/378 552/621/378
f 303/364/379 305/366/379 547/624/379 546/635/379
f 476/550/320 525/617/320 563/636/320 475/551/320
f 561/637/320 523/561/320 484/560/320 483/580/320
f 562/638/320 524/618/320 523/561/320 561/637/320
f 563/636/320 525/617/320 524/618/320 562/638/320
f 559/629/325 558/625/325 578/639/325 579/640/325
f 560/634/326 559/629/326 579/640/326 580/641/326
f 552/621/327 560/634/327 580/641/327 572/642/327
f 544/631/275 545/630/275 565/643/275 564/644/275
f 545/630/276 546/635/276 566/645/276 565/643/276
f 546/635/277 547/624/277 567/646/277 566/645/277
f 554/627/320 553/626/320 573/647/320 574/648/320
f 547/624/278 548/623/278 568/649/278 567/646/278
f 555/632/321 554/627/321 574/648/321 575/650/321
f 548/623/279 549/628/279 569/651/279 568/649/279
f 556/619/322 555/632/322 575/650/322 576/652/322
f 549/628/280 550/633/280 570/653/280 569/651/280
f 557/620/323 556/619/323 576/652/323 577/654/323
f 550/633/281 551/622/281 571/655/281 570/653/281
f 558/625/324 557/620/324 577/654/324 578/639/324
f 551/622/282 552/621/282 572/642/282 571/655/282
f 573/647/9 581/656/9 575/650/9 574/648/9
f 575/650/9 581/656/9 577/654/9 576/652/9
f 577/654/9 581/656/9 579/640/9 578/639/9
f 579/640/9 581/656/9 572/642/9 580/641/9
f 572/642/9 581/656/9 570/653/9 571/655/9
f 570/653/9 581/656/9 568/649/9 569/651/9
f 568/649/9 581/656/9 566/645/9 567/646/9
f 566/645/9 581/656/9 564/644/9 565/643/9
f 433/509/319 591/657/319 592/508/319 434/507/319
f 402/479/319 430/488/319 587/658/319 585/480/319
f 427/487/9 586/486/9 587/658/9 430/488/9
f 399/473/9 582/478/9 584/659/9 401/475/9
f 401/475/9 584/659/9 591/657/9 433/509/9
f 299/660/380 593/661/380 594/662/380 300/663/380
f 593/661/381 595/664/381 596/665/381 594/662/381
f 595/664/382 597/666/382 598/667/382 596/665/382
f 597/666/383 599/668/383 600/669/383 598/667/383
f 599/668/384 601/670/384 602/671/384 600/669/384
f 601/670/385 603/672/385 604/673/385 602/671/385
f 603/672/386 605/674/386 606/675/386 604/673/386
f 605/674/387 607/676/387 608/677/387 606/675/387
f 604/673/9 614/678/9 613/679/9 602/671/9
f 613/679/384 621/680/384 620/681/384 612/682/384
f 596/665/9 610/683/9 609/684/9 594/662/9
f 606/675/9 615/685/9 614/678/9 604/673/9
f 598/667/9 611/686/9 610/683/9 596/665/9
f 608/677/9 616/687/9 615/685/9 606/675/9
f 600/669/9 612/682/9 611/686/9 598/667/9
f 602/671/9 613/679/9 612/682/9 600/669/9
f 594/662/9 609/684/9 317/688/9 300/663/9
f 614/678/385 622/689/385 621/680/385 613/679/385
f 615/685/386 623/690/386 622/689/386 614/678/386
f 616/687/387 624/691/387 623/690/387 615/685/387
f 609/684/380 617/692/380 326/693/380 317/688/380
f 610/683/381 618/694/381 617/692/381 609/684/381
f 611/686/382 619/695/382 618/694/382 610/683/382
f 612/682/383 620/681/383 619/695/383 611/686/383
f 623/690/29 631/696/29 630/697/29 622/689/29
f 624/691/29 632/698/29 631/696/29 623/690/29
f 617/692/29 625/699/29 335/700/29 326/693/29
f 618/694/29 626/701/29 625/699/29 617/692/29
f 619/695/29 627/702/29 626/701/29 618/694/29
f 620/681/29 628/703/29 627/702/29 619/695/29
f 621/680/29 629/704/29 628/703/29 620/681/29
f 622/689/29 630/697/29 629/704/29 621/680/29
f 625/699/380 633/705/380 344/706/380 335/700/380
f 626/701/381 634/707/381 633/705/381 625/699/381
f 627/702/382 635/708/382 634/707/382 626/701/382
f 628/703/383 636/709/383 635/708/383 627/702/383
f 629/704/384 637/710/384 636/709/384 628/703/384
f 630/697/385 638/711/385 637/710/385 629/704/385
f 631/696/386 639/712/386 638/711/386 630/697/386
f 632/698/387 640/713/387 639/712/387 631/696/387
f 688/714/381 642/715/381 641/716/381 685/717/381
f 691/718/382 643/719/382 642/715/382 688/714/382
f 694/720/383 644/721/383 643/719/383 691/718/383
f 697/722/384 645/723/384 644/721/384 694/720/384
f 700/724/385 646/725/385 645/723/385 697/722/385
f 703/726/386 647/727/386 646/725/386 700/724/386
f 706/728/387 648/729/387 647/727/387 703/726/387
f 643/719/388 651/730/388 650/731/388 642/715/388
f 644/721/389 652/732/389 651/730/389 643/719/389
f 645/723/390 653/733/390 652/732/390 644/721/390
f 646/725/391 654/734/391 653/733/391 645/723/391
f 647/727/392 655/735/392 654/734/392 646/725/392
f 648/729/393 656/736/393 655/735/393 647/727/393
f 641/716/394 649/737/394 362/738/394 353/739/394
f 642/715/395 650/731/395 649/737/395 641/716/395
f 654/734/396 662/740/396 661/741/396 653/733/396
f 655/735/397 663/742/397 662/740/397 654/734/397
f 656/736/398 664/743/398 663/742/398 655/735/398
f 649/737/399 657/744/399 371/745/399 362/738/399
f 650/731/400 658/746/400 657/744/400 649/737/400
f 651/730/401 659/747/401 658/746/401 650/731/401
f 652/732/402 660/748/402 659/747/402 651/730/402
f 653/733/403 661/741/403 660/748/403 652/732/403
f 657/744/404 665/749/404 380/750/404 371/745/404
f 658/746/405 666/751/405 665/749/405 657/744/405
f 659/747/406 667/752/406 666/751/406 658/746/406
f 660/748/407 668/753/407 667/752/407 659/747/407
f 661/741/408 669/754/408 668/753/408 660/748/408
f 662/740/409 670/755/409 669/754/409 661/741/409
f 663/742/410 671/756/410 670/755/410 662/740/410
f 664/743/411 672/757/411 671/756/411 663/742/411
f 665/749/412 673/758/412 389/759/412 380/750/412
f 666/751/413 674/760/413 673/758/413 665/749/413
f 667/752/414 675/761/414 674/760/414 666/751/414
f 668/753/415 676/762/415 675/761/415 667/752/415
f 669/754/416 677/763/416 676/762/416 668/753/416
f 670/755/417 678/764/417 677/763/417 669/754/417
f 671/756/418 679/765/418 678/764/418 670/755/418
f 672/757/419 680/766/419 679/765/419 671/756/419
f 389/759/420 673/758/420 674/760/420 398/767/420
f 674/760/421 675/761/421 676/762/421 398/767/421
f 676/762/422 677/763/422 678/764/422 398/767/422
f 678/764/423 679/765/423 680/766/423 398/767/423
f 583/768/29 682/769/29 641/770/29 353/771/29
f 687/772/31 711/773/31 681/774/31 633/775/31
f 711/773/31 714/776/31 683/777/31 681/774/31
f 344/778/9 633/775/9 681/774/9 582/779/9
f 583/768/29 585/780/29 684/781/29 682/769/29
f 588/782/319 714/776/319 713/783/319 589/784/319
f 589/784/29 713/783/29 710/785/29 590/786/29
f 590/786/319 710/785/319 709/787/319 586/788/319
f 682/769/31 684/781/31 712/789/31 709/787/31
f 710/785/31 713/783/31 714/776/31 711/773/31
f 641/770/31 682/769/31 709/787/31 685/790/31
f 685/790/31 709/787/31 710/785/31 686/791/31
f 686/791/31 710/785/31 711/773/31 687/772/31
f 640/713/387 708/792/387 705/793/387 639/712/387
f 708/792/387 707/794/387 704/795/387 705/793/387
f 707/794/387 706/728/387 703/726/387 704/795/387
f 639/712/386 705/793/386 702/796/386 638/711/386
f 705/793/386 704/795/386 701/797/386 702/796/386
f 704/795/386 703/726/386 700/724/386 701/797/386
f 638/711/385 702/796/385 699/798/385 637/710/385
f 702/796/385 701/797/385 698/799/385 699/798/385
f 701/797/385 700/724/385 697/722/385 698/799/385
f 637/710/384 699/798/384 696/800/384 636/709/384
f 699/798/384 698/799/384 695/801/384 696/800/384
f 698/799/384 697/722/384 694/720/384 695/801/384
f 636/709/383 696/800/383 693/802/383 635/708/383
f 696/800/383 695/801/383 692/803/383 693/802/383
f 695/801/383 694/720/383 691/718/383 692/803/383
f 635/708/382 693/802/382 690/804/382 634/707/382
f 693/802/382 692/803/382 689/805/382 690/804/382
f 692/803/382 691/718/382 688/714/382 689/805/382
f 634/707/381 690/804/381 687/806/381 633/705/381
f 690/804/381 689/805/381 686/807/381 687/806/381
f 689/805/381 688/714/381 685/717/381 686/807/381
f 588/782/29 592/808/29 716/809/29 714/776/29
f 714/776/31 716/809/31 715/810/31 683/777/31
f 435/811/424 436/812/424 718/813/424 717/814/424
f 717/814/425 718/813/425 720/815/425 719/816/425
f 719/816/426 720/815/426 722/817/426 721/818/426
f 721/818/427 722/817/427 724/819/427 723/820/427
f 723/820/428 724/819/428 726/821/428 725/822/428
f 725/822/429 726/821/429 728/823/429 727/824/429
f 727/824/430 728/823/430 730/825/430 729/826/430
f 729/826/431 730/825/431 608/677/431 607/676/431
f 728/823/9 726/821/9 735/827/9 736/828/9
f 735/827/428 734/829/428 741/830/428 742/831/428
f 720/815/9 718/813/9 731/832/9 732/833/9
f 730/825/9 728/823/9 736/828/9 737/834/9
f 722/817/9 720/815/9 732/833/9 733/835/9
f 608/677/9 730/825/9 737/834/9 616/687/9
f 724/819/9 722/817/9 733/835/9 734/829/9
f 726/821/9 724/819/9 734/829/9 735/827/9
f 718/813/9 436/812/9 451/836/9 731/832/9
f 736/828/429 735/827/429 742/831/429 743/837/429
f 737/834/430 736/828/430 743/837/430 744/838/430
f 616/687/431 737/834/431 744/838/431 624/691/431
f 731/832/424 451/836/424 459/839/424 738/840/424
f 732/833/425 731/832/425 738/840/425 739/841/425
f 733/835/426 732/833/426 739/841/426 740/842/426
f 734/829/427 733/835/427 740/842/427 741/830/427
f 744/838/29 743/837/29 750/843/29 751/844/29
f 624/691/29 744/838/29 751/844/29 632/698/29
f 738/840/29 459/839/29 467/845/29 745/846/29
f 739/841/29 738/840/29 745/846/29 746/847/29
f 740/842/29 739/841/29 746/847/29 747/848/29
f 741/830/29 740/842/29 747/848/29 748/849/29
f 742/831/29 741/830/29 748/849/29 749/850/29
f 743/837/29 742/831/29 749/850/29 750/843/29
f 745/846/424 467/845/424 475/851/424 752/852/424
f 746/847/425 745/846/425 752/852/425 753/853/425
f 747/848/426 746/847/426 753/853/426 754/854/426
f 748/849/427 747/848/427 754/854/427 755/855/427
f 749/850/428 748/849/428 755/855/428 756/856/428
f 750/843/429 749/850/429 756/856/429 757/857/429
f 751/844/430 750/843/430 757/857/430 758/858/430
f 632/698/431 751/844/431 758/858/431 640/713/431
f 797/859/425 794/860/425 759/861/425 760/862/425
f 800/863/426 797/859/426 760/862/426 761/864/426
f 803/865/427 800/863/427 761/864/427 762/866/427
f 806/867/428 803/865/428 762/866/428 763/868/428
f 809/869/429 806/867/429 763/868/429 764/870/429
f 812/871/430 809/869/430 764/870/430 765/872/430
f 706/728/431 812/871/431 765/872/431 648/729/431
f 761/864/432 760/862/432 767/873/432 768/874/432
f 762/866/433 761/864/433 768/874/433 769/875/433
f 763/868/434 762/866/434 769/875/434 770/876/434
f 764/870/435 763/868/435 770/876/435 771/877/435
f 765/872/436 764/870/436 771/877/436 772/878/436
f 648/729/437 765/872/437 772/878/437 656/736/437
f 759/861/438 483/879/438 491/880/438 766/881/438
f 760/862/439 759/861/439 766/881/439 767/873/439
f 771/877/440 770/876/440 777/882/440 778/883/440
f 772/878/441 771/877/441 778/883/441 779/884/441
f 656/736/442 772/878/442 779/884/442 664/743/442
f 766/881/443 491/880/443 499/885/443 773/886/443
f 767/873/444 766/881/444 773/886/444 774/887/444
f 768/874/445 767/873/445 774/887/445 775/888/445
f 769/875/446 768/874/446 775/888/446 776/889/446
f 770/876/447 769/875/447 776/889/447 777/882/447
f 773/886/448 499/885/448 507/890/448 780/891/448
f 774/887/449 773/886/449 780/891/449 781/892/449
f 775/888/450 774/887/450 781/892/450 782/893/450
f 776/889/451 775/888/451 782/893/451 783/894/451
f 777/882/452 776/889/452 783/894/452 784/895/452
f 778/883/453 777/882/453 784/895/453 785/896/453
f 779/884/454 778/883/454 785/896/454 786/897/454
f 664/743/455 779/884/455 786/897/455 672/757/455
f 780/891/456 507/890/456 515/898/456 787/899/456
f 781/892/457 780/891/457 787/899/457 788/900/457
f 782/893/458 781/892/458 788/900/458 789/901/458
f 783/894/459 782/893/459 789/901/459 790/902/459
f 784/895/460 783/894/460 790/902/460 791/903/460
f 785/896/461 784/895/461 791/903/461 792/904/461
f 786/897/462 785/896/462 792/904/462 793/905/462
f 672/757/463 786/897/463 793/905/463 680/766/463
f 515/898/464 398/767/464 788/900/464 787/899/464
f 788/900/465 398/767/465 790/902/465 789/901/465
f 790/902/466 398/767/466 792/904/466 791/903/466
f 792/904/467 398/767/467 680/766/467 793/905/467
f 640/713/431 758/858/431 814/906/431 708/792/431
f 708/792/431 814/906/431 813/907/431 707/794/431
f 707/794/431 813/907/431 812/871/431 706/728/431
f 758/858/430 757/857/430 811/908/430 814/906/430
f 814/906/430 811/908/430 810/909/430 813/907/430
f 813/907/430 810/909/430 809/869/430 812/871/430
f 757/857/429 756/856/429 808/910/429 811/908/429
f 811/908/429 808/910/429 807/911/429 810/909/429
f 810/909/429 807/911/429 806/867/429 809/869/429
f 756/856/428 755/855/428 805/912/428 808/910/428
f 808/910/428 805/912/428 804/913/428 807/911/428
f 807/911/428 804/913/428 803/865/428 806/867/428
f 755/855/427 754/854/427 802/914/427 805/912/427
f 805/912/427 802/914/427 801/915/427 804/913/427
f 804/913/427 801/915/427 800/863/427 803/865/427
f 754/854/426 753/853/426 799/916/426 802/914/426
f 802/914/426 799/916/426 798/917/426 801/915/426
f 801/915/426 798/917/426 797/859/426 800/863/426
f 753/853/425 752/852/425 796/918/425 799/916/425
f 799/916/425 796/918/425 795/919/425 798/917/425
f 798/917/425 795/919/425 794/860/425 797/859/425
f 723/820/468 826/920/468 825/921/468 721/818/468
f 605/674/469 821/922/469 822/923/469 607/676/469
f 597/666/470 817/924/470 818/925/470 599/668/470
f 725/822/471 827/926/471 826/920/471 723/820/471
f 717/814/472 823/927/472 553/928/472 435/811/472
f 599/668/473 818/925/473 819/929/473 601/670/473
f 727/824/474 828/930/474 827/926/474 725/822/474
f 299/660/475 544/931/475 815/932/475 593/661/475
f 719/816/476 824/933/476 823/927/476 717/814/476
f 601/670/477 819/929/477 820/934/477 603/672/477
f 729/826/478 829/935/478 828/930/478 727/824/478
f 593/661/479 815/932/479 816/936/479 595/664/479
f 721/818/480 825/921/480 824/933/480 719/816/480
f 603/672/481 820/934/481 821/922/481 605/674/481
f 607/676/482 822/923/482 829/935/482 729/826/482
f 595/664/483 816/936/483 817/924/483 597/666/483
f 752/852/424 475/851/424 563/937/424 796/918/424
f 561/938/424 483/879/424 759/861/424 794/860/424
f 562/939/424 561/938/424 794/860/424 795/919/424
f 563/937/424 562/939/424 795/919/424 796/918/424
f 828/930/429 843/940/429 842/941/429 827/926/429
f 829/935/430 844/942/430 843/940/430 828/930/430
f 822/923/431 837/943/431 844/942/431 829/935/431
f 544/931/380 564/944/380 830/945/380 815/932/380
f 815/932/381 830/945/381 831/946/381 816/936/381
f 816/936/382 831/946/382 832/947/382 817/924/382
f 823/927/424 838/948/424 573/949/424 553/928/424
f 817/924/383 832/947/383 833/950/383 818/925/383
f 824/933/425 839/951/425 838/948/425 823/927/425
f 818/925/384 833/950/384 834/952/384 819/929/384
f 825/921/426 840/953/426 839/951/426 824/933/426
f 819/929/385 834/952/385 835/954/385 820/934/385
f 826/920/427 841/955/427 840/953/427 825/921/427
f 820/934/386 835/954/386 836/956/386 821/922/386
f 827/926/428 842/941/428 841/955/428 826/920/428
f 821/922/387 836/956/387 837/943/387 822/923/387
f 573/949/9 838/948/9 839/951/9 581/957/9
f 839/951/9 840/953/9 841/955/9 581/957/9
f 841/955/9 842/941/9 843/940/9 581/957/9
f 843/940/9 844/942/9 837/943/9 581/957/9
f 837/943/9 836/956/9 835/954/9 581/957/9
f 835/954/9 834/952/9 833/950/9 581/957/9
f 833/950/9 832/947/9 831/946/9 581/957/9
f 831/946/9 830/945/9 564/944/9 581/957/9
f 715/810/319 716/809/319 592/808/319 591/958/319
f 684/781/319 585/780/319 587/959/319 712/789/319
f 709/787/9 712/789/9 587/959/9 586/788/9
f 681/774/9 683/777/9 584/960/9 582/779/9
f 683/777/9 715/810/9 591/958/9 584/960/9
f 135/127/104 132/126/104 134/177/104 137/144/104
f 274/299/104 276/315/104 273/344/104 271/300/104
f 207/233/31 204/961/31 206/263/31 209/225/31
