# Blender 4.4.0
# www.blender.org
mtllib Corner 1.mtl
o Esquina_1
v 1.084755 0.256492 0.220179
v 1.084755 0.844130 0.220179
v 1.103296 0.241075 0.205437
v 1.103296 0.859547 0.205437
v 1.046709 0.948831 0.120062
v 1.046709 0.151790 0.120062
v 1.103296 0.241075 0.501133
v 1.103296 0.859547 0.501133
v 1.084755 0.256492 0.501133
v 1.084755 0.844130 0.501133
v 1.046709 0.151790 0.501133
v 1.046709 0.948831 0.501133
v 1.095888 0.948831 0.001133
v 1.095888 0.151790 0.001133
v 1.018134 0.140595 0.120062
v 1.018134 0.140595 0.501133
v 1.007550 0.140595 -0.008992
v 1.002976 0.151790 -0.004418
v 1.008986 0.151790 0.501133
v 1.008986 0.151790 0.120062
v 1.025153 0.128097 0.501133
v 1.011060 0.128097 -0.012502
v 1.003597 0.995214 0.501133
v 1.028161 0.114706 0.501133
v 1.012564 0.114706 -0.014006
v 1.023148 0.099976 0.501133
v 1.010057 0.099976 -0.011499
v 1.000282 0.948831 -0.001724
v 1.014485 0.086478 0.501133
v 1.005726 0.086478 -0.007168
v 1.003597 0.948831 0.501133
v 1.007265 0.076836 0.501133
v 1.002116 0.076836 -0.003558
v 1.003597 0.948831 0.120062
v 1.007265 0.020916 0.501133
v 1.002116 0.020916 -0.003558
v 0.997881 0.002276 0.120062
v 0.997881 0.002276 0.501133
v 0.997424 0.002276 0.001134
v 1.003597 0.995214 0.120062
v 1.000282 0.995214 -0.001724
v 1.097534 0.995214 0.120062
v 1.097534 0.995214 0.501133
v 1.097534 0.995214 0.001133
v 1.025203 0.128097 0.120062
v 1.028211 0.114706 0.120062
v 1.023198 0.099976 0.120062
v 1.014535 0.086478 0.120062
v 1.007316 0.076836 0.120062
v 1.007316 0.020916 0.120062
v 1.177724 0.995214 0.120062
v 1.177724 0.995214 0.501133
v 1.177724 0.995214 0.001133
v 1.177724 3.002276 0.120062
v 1.177724 3.002276 0.501133
v 1.177724 3.002276 0.001133
v 1.084755 0.256492 0.782087
v 1.084755 0.844130 0.782087
v 1.103296 0.241075 0.796829
v 1.103296 0.859547 0.796829
v 1.046709 0.948831 0.882204
v 1.046709 0.151790 0.882204
v 1.095888 0.948831 1.001132
v 1.095888 0.151790 1.001132
v 1.018134 0.140595 0.882204
v 1.018134 0.140595 1.001132
v 1.008986 0.151790 1.001132
v 1.008986 0.151790 0.882204
v 1.025153 0.128097 1.001132
v 1.028161 0.114706 1.001132
v 1.023148 0.099976 1.001132
v 1.003597 0.948831 1.001132
v 1.014485 0.086478 1.001132
v 1.007265 0.076836 1.001132
v 1.003597 0.948831 0.882204
v 1.007265 0.020916 1.001132
v 0.997880 0.002276 0.882204
v 0.997880 0.002276 1.001132
v 1.003597 0.995214 0.882204
v 1.003597 0.995214 1.001132
v 1.097534 0.995214 0.882204
v 1.097534 0.995214 1.001132
v 1.025203 0.128097 0.882204
v 1.028211 0.114706 0.882204
v 1.023198 0.099976 0.882204
v 1.014535 0.086478 0.882204
v 1.007316 0.076836 0.882204
v 1.007316 0.020916 0.882204
v 1.177724 0.995214 0.882204
v 1.177724 0.995214 1.001132
v 1.177724 3.002276 0.882204
v 1.177724 3.002276 1.001132
v 0.216013 0.256492 -0.085739
v 0.216013 0.844130 -0.085739
v 0.201272 0.241075 -0.104280
v 0.201272 0.859547 -0.104280
v 0.115896 0.948831 -0.047693
v 0.115896 0.151790 -0.047693
v 0.496967 0.241075 -0.104280
v 0.496967 0.859547 -0.104280
v 0.496967 0.256492 -0.085739
v 0.496967 0.844130 -0.085739
v 0.496967 0.151790 -0.047693
v 0.496967 0.948831 -0.047693
v -0.003032 0.948831 -0.096872
v -0.003032 0.151790 -0.096872
v 0.115896 0.140595 -0.019118
v 0.496967 0.140595 -0.019118
v -0.003032 0.140595 -0.019118
v -0.003032 0.151790 -0.009970
v 0.496967 0.151790 -0.009970
v 0.115896 0.151790 -0.009970
v 0.496967 0.128097 -0.026137
v -0.003032 0.128097 -0.026137
v 0.496967 0.995214 -0.004581
v 0.496967 0.114706 -0.029145
v -0.003032 0.114706 -0.029145
v 0.496967 0.099976 -0.024132
v -0.003032 0.099976 -0.024132
v -0.003032 0.948831 -0.004581
v 0.496967 0.086478 -0.015469
v -0.003032 0.086478 -0.015469
v 0.496967 0.948831 -0.004581
v 0.496967 0.076836 -0.008250
v -0.003032 0.076836 -0.008250
v 0.115896 0.948831 -0.004581
v 0.496967 0.020916 -0.008250
v -0.003032 0.020916 -0.008250
v 0.115896 0.002276 0.001135
v 0.496967 0.002276 0.001135
v -0.003032 0.002276 0.001135
v 0.115896 0.995214 -0.004581
v -0.003032 0.995214 -0.004581
v 0.115896 0.995214 -0.098519
v 0.496967 0.995214 -0.098519
v -0.003032 0.995214 -0.098519
v 0.115896 0.128097 -0.026187
v 0.115896 0.114706 -0.029195
v 0.115896 0.099976 -0.024182
v 0.115896 0.086478 -0.015519
v 0.115896 0.076836 -0.008300
v 0.115896 0.020916 -0.008300
v 0.115896 0.995214 -0.178708
v 0.496967 0.995214 -0.178708
v -0.003032 0.995214 -0.178708
v 0.115896 3.002276 -0.178708
v 0.496967 3.002276 -0.178708
v -0.003032 3.002276 -0.178708
v 0.777921 0.256492 -0.085739
v 0.777921 0.844130 -0.085739
v 0.792663 0.241075 -0.104280
v 0.792663 0.859547 -0.104280
v 0.878038 0.948831 -0.047693
v 0.878038 0.151790 -0.047693
v 0.996967 0.948831 -0.096872
v 0.996967 0.151790 -0.096872
v 0.878038 0.140595 -0.019118
v 1.177724 3.002276 -0.178505
v 1.177724 3.002276 -0.098666
v 0.878038 0.151790 -0.009970
v 1.097534 0.995214 -0.178505
v 1.177724 0.995214 -0.178505
v 1.097534 0.995214 -0.098666
v 0.878038 0.948831 -0.004581
v 0.878038 0.002276 0.001135
v 0.878038 0.995214 -0.004581
v 1.177724 0.995214 -0.098666
v 0.878038 0.995214 -0.098519
v 0.996967 0.995214 -0.098519
v 0.878038 0.128097 -0.026187
v 0.878038 0.114706 -0.029195
v 0.878038 0.099976 -0.024182
v 0.878038 0.086478 -0.015519
v 0.878038 0.076836 -0.008300
v 0.878038 0.020916 -0.008300
v 0.878038 0.995214 -0.178708
v 0.996967 0.995214 -0.178708
v 0.878038 3.002276 -0.178708
v 0.996967 3.002276 -0.178708
v 1.097534 3.001232 -0.178505
v 1.097534 0.948807 -0.098666
v 1.097534 0.153908 -0.098666
vn -0.6223 -0.0000 -0.7827
vn -1.0000 -0.0000 -0.0000
vn -0.6394 0.7689 -0.0000
vn -0.8446 -0.5353 -0.0000
vn -0.8446 0.5353 -0.0000
vn -0.8335 -0.0000 0.5525
vn -0.6394 -0.7689 -0.0000
vn -0.9241 -0.0000 -0.3821
vn -0.0000 1.0000 -0.0000
vn -0.7743 -0.6328 -0.0000
vn -0.8462 -0.5299 0.0554
vn -0.0000 -1.0000 -0.0000
vn -0.9996 -0.0000 0.0272
vn -0.9340 0.3567 0.0218
vn -0.9991 -0.0000 0.0420
vn -0.8670 0.4959 0.0484
vn -0.8936 0.4423 0.0758
vn -0.9615 0.2543 0.1042
vn -0.9792 -0.1711 0.1094
vn -0.9131 -0.3985 0.0863
vn -0.8712 -0.4910 -0.0001
vn -0.9757 -0.2192 -0.0001
vn -0.9467 0.3222 -0.0001
vn -0.8416 0.5401 -0.0001
vn -0.8005 0.5994 -0.0001
vn -1.0000 -0.0000 -0.0001
vn -0.8927 0.4507 -0.0001
vn -0.6223 -0.0000 0.7827
vn -0.8335 -0.0000 -0.5525
vn -0.9241 -0.0000 0.3821
vn -0.8927 0.4507 -0.0002
vn -1.0000 -0.0000 -0.0004
vn -0.8005 0.5994 -0.0003
vn -0.8416 0.5401 -0.0004
vn -0.9467 0.3222 -0.0004
vn -0.9757 -0.2192 -0.0004
vn -0.8712 -0.4910 -0.0002
vn -0.8712 -0.4910 0.0001
vn -0.9757 -0.2192 0.0001
vn -0.9467 0.3222 0.0001
vn -0.8416 0.5401 0.0001
vn -0.8005 0.5994 0.0001
vn -1.0000 -0.0000 0.0001
vn -0.8927 0.4507 0.0001
vn -0.7827 -0.0000 0.6223
vn -0.0000 -0.0000 1.0000
vn -0.0000 0.7689 0.6394
vn -0.0000 -0.5353 0.8446
vn -0.0000 0.5353 0.8446
vn 0.5525 -0.0000 0.8335
vn -0.0000 -0.7689 0.6394
vn -0.3821 -0.0000 0.9241
vn -0.0000 -0.6328 0.7743
vn 0.0002 0.4507 0.8927
vn 0.0004 -0.0000 1.0000
vn 0.0003 0.5994 0.8005
vn 0.0004 0.5401 0.8416
vn 0.0004 0.3222 0.9467
vn 0.0004 -0.2192 0.9757
vn 0.0002 -0.4910 0.8712
vn -0.0001 -0.4910 0.8712
vn -0.0001 -0.2192 0.9757
vn -0.0001 0.3222 0.9467
vn -0.0001 0.5401 0.8416
vn -0.0001 0.5994 0.8005
vn -0.0001 -0.0000 1.0000
vn -0.0001 0.4507 0.8927
vn 0.7827 -0.0000 0.6223
vn -0.5525 -0.0000 0.8335
vn 0.3821 -0.0000 0.9241
vn -0.0522 -0.5296 0.8467
vn -0.0234 -0.0000 0.9997
vn -0.0182 0.3563 0.9342
vn -0.0382 -0.0000 0.9993
vn -0.0451 0.4956 0.8674
vn -0.0724 0.4420 0.8941
vn -0.1006 0.2541 0.9619
vn -0.1057 -0.1710 0.9796
vn -0.0829 -0.3982 0.9135
vn 0.0001 -0.4910 0.8712
vn 0.0001 -0.2192 0.9757
vn 0.0001 0.3222 0.9467
vn 0.0001 0.5401 0.8416
vn 0.0001 0.5994 0.8005
vn 0.0001 -0.0000 1.0000
vn 0.0001 0.4507 0.8927
vn -0.0020 -0.0000 1.0000
vn -0.0001 -1.0000 0.0001
vn -0.0112 0.9999 0.0113
vn -0.9999 -0.0000 -0.0165
vn 0.0178 -0.0000 0.9998
vt 0.375000 0.000000
vt 0.625000 0.000000
vt 0.625000 0.250000
vt 0.375000 0.250000
vt 0.375000 0.875000
vt 0.625000 0.875000
vt 0.625000 1.000000
vt 0.375000 1.000000
vt 0.750000 0.500000
vt 0.875000 0.500000
vt 0.875000 0.750000
vt 0.750000 0.750000
vt 0.250000 0.500000
vt 0.125000 0.500000
vt 0.250000 0.750000
vt 0.125000 0.750000
vt 0.000000 0.000000
s 0
f 1/1/1 2/2/1 4/3/1 3/4/1
f 9/5/2 10/6/2 2/7/2 1/8/2
f 8/9/3 4/10/3 2/11/3 10/12/3
f 4/10/4 8/9/4 12/9/4 5/10/4
f 7/13/5 3/14/5 6/14/5 11/13/5
f 3/4/6 4/3/6 5/3/6 6/4/6
f 3/14/7 7/13/7 9/15/7 1/16/7
f 6/4/8 5/3/8 13/3/8 14/4/8
f 6/4/9 14/4/9 18/4/9 20/4/9
f 19/13/10 20/14/10 15/14/10 16/13/10
f 11/13/9 6/14/9 20/14/9 19/13/9
f 20/4/11 18/4/11 17/4/11 15/4/11
f 13/3/12 5/3/12 34/3/12 28/3/12
f 5/10/12 12/9/12 31/9/12 34/10/12
f 28/3/13 34/3/13 40/3/13 41/3/13
f 34/10/2 31/9/2 23/9/2 40/10/2
f 41/3/9 40/3/9 42/3/9 44/3/9
f 40/10/9 23/9/9 43/9/9 42/10/9
f 39/17/14 37/17/14 50/17/14 36/17/14
f 36/17/15 50/17/15 49/14/15 33/17/15
f 33/17/16 49/14/16 48/14/16 30/17/16
f 30/17/17 48/14/17 47/14/17 27/17/17
f 27/17/18 47/14/18 46/14/18 25/17/18
f 25/17/19 46/14/19 45/14/19 22/17/19
f 22/17/20 45/17/20 15/17/20 17/17/20
f 16/17/21 15/17/21 45/17/21 21/17/21
f 24/17/22 21/17/22 45/17/22 46/17/22
f 26/17/23 24/17/23 46/17/23 47/17/23
f 29/17/24 26/17/24 47/17/24 48/17/24
f 32/17/25 29/17/25 48/17/25 49/17/25
f 35/17/26 32/17/26 49/17/26 50/17/26
f 37/17/27 38/17/27 35/17/27 50/17/27
f 44/3/9 42/3/9 51/3/9 53/3/9
f 42/10/9 43/9/9 52/9/9 51/10/9
f 51/10/2 52/9/2 55/9/2 54/10/2
f 53/3/2 51/3/2 54/3/2 56/3/2
f 57/1/28 59/4/28 60/3/28 58/2/28
f 9/5/2 57/8/2 58/7/2 10/6/2
f 8/9/3 10/12/3 58/11/3 60/10/3
f 60/10/4 61/10/4 12/9/4 8/9/4
f 7/13/5 11/13/5 62/14/5 59/14/5
f 59/4/29 62/4/29 61/3/29 60/3/29
f 59/14/7 57/16/7 9/15/7 7/13/7
f 62/4/30 64/4/30 63/3/30 61/3/30
f 62/4/9 68/4/9 67/4/9 64/4/9
f 19/13/10 16/13/10 65/14/10 68/14/10
f 11/13/9 19/13/9 68/14/9 62/14/9
f 68/4/10 65/4/10 66/4/10 67/4/10
f 63/3/12 72/3/12 75/3/12 61/3/12
f 61/10/12 75/10/12 31/9/12 12/9/12
f 72/3/2 80/3/2 79/3/2 75/3/2
f 75/10/2 79/10/2 23/9/2 31/9/2
f 80/3/9 82/3/9 81/3/9 79/3/9
f 79/10/9 81/10/9 43/9/9 23/9/9
f 78/17/31 76/17/31 88/17/31 77/17/31
f 76/17/32 74/17/32 87/14/32 88/17/32
f 74/17/33 73/17/33 86/14/33 87/14/33
f 73/17/34 71/17/34 85/14/34 86/14/34
f 71/17/35 70/17/35 84/14/35 85/14/35
f 70/17/36 69/17/36 83/14/36 84/14/36
f 69/17/37 66/17/37 65/17/37 83/17/37
f 16/17/38 21/17/38 83/17/38 65/17/38
f 24/17/39 84/17/39 83/17/39 21/17/39
f 26/17/40 85/17/40 84/17/40 24/17/40
f 29/17/41 86/17/41 85/17/41 26/17/41
f 32/17/42 87/17/42 86/17/42 29/17/42
f 35/17/43 88/17/43 87/17/43 32/17/43
f 77/17/44 88/17/44 35/17/44 38/17/44
f 82/3/9 90/3/9 89/3/9 81/3/9
f 81/10/9 89/10/9 52/9/9 43/9/9
f 89/10/2 91/10/2 55/9/2 52/9/2
f 90/3/2 92/3/2 91/3/2 89/3/2
f 93/1/45 94/2/45 96/3/45 95/4/45
f 101/5/46 102/6/46 94/7/46 93/8/46
f 100/9/47 96/10/47 94/11/47 102/12/47
f 96/10/48 100/9/48 104/9/48 97/10/48
f 99/13/49 95/14/49 98/14/49 103/13/49
f 95/4/50 96/3/50 97/3/50 98/4/50
f 95/14/51 99/13/51 101/15/51 93/16/51
f 98/4/52 97/3/52 105/3/52 106/4/52
f 98/4/9 106/4/9 110/4/9 112/4/9
f 111/13/53 112/14/53 107/14/53 108/13/53
f 103/13/9 98/14/9 112/14/9 111/13/9
f 112/4/53 110/4/53 109/4/53 107/4/53
f 105/3/12 97/3/12 126/3/12 120/3/12
f 97/10/12 104/9/12 123/9/12 126/10/12
f 120/3/46 126/3/46 132/3/46 133/3/46
f 126/10/46 123/9/46 115/9/46 132/10/46
f 133/3/9 132/3/9 134/3/9 136/3/9
f 132/10/9 115/9/9 135/9/9 134/10/9
f 131/17/54 129/17/54 142/17/54 128/17/54
f 128/17/55 142/17/55 141/14/55 125/17/55
f 125/17/56 141/14/56 140/14/56 122/17/56
f 122/17/57 140/14/57 139/14/57 119/17/57
f 119/17/58 139/14/58 138/14/58 117/17/58
f 117/17/59 138/14/59 137/14/59 114/17/59
f 114/17/60 137/17/60 107/17/60 109/17/60
f 108/17/61 107/17/61 137/17/61 113/17/61
f 116/17/62 113/17/62 137/17/62 138/17/62
f 118/17/63 116/17/63 138/17/63 139/17/63
f 121/17/64 118/17/64 139/17/64 140/17/64
f 124/17/65 121/17/65 140/17/65 141/17/65
f 127/17/66 124/17/66 141/17/66 142/17/66
f 129/17/67 130/17/67 127/17/67 142/17/67
f 136/3/9 134/3/9 143/3/9 145/3/9
f 134/10/9 135/9/9 144/9/9 143/10/9
f 143/10/46 144/9/46 147/9/46 146/10/46
f 145/3/46 143/3/46 146/3/46 148/3/46
f 149/1/68 151/4/68 152/3/68 150/2/68
f 101/5/46 149/8/46 150/7/46 102/6/46
f 100/9/47 102/12/47 150/11/47 152/10/47
f 152/10/48 153/10/48 104/9/48 100/9/48
f 99/13/49 103/13/49 154/14/49 151/14/49
f 151/4/69 154/4/69 153/3/69 152/3/69
f 151/14/51 149/16/51 101/15/51 99/13/51
f 154/4/70 156/4/70 155/3/70 153/3/70
f 154/4/9 160/4/9 18/4/9 156/4/9
f 111/13/53 108/13/53 157/14/53 160/14/53
f 103/13/9 111/13/9 160/14/9 154/14/9
f 160/4/71 157/4/71 17/4/71 18/4/71
f 155/3/12 28/3/12 164/3/12 153/3/12
f 153/10/12 164/10/12 123/9/12 104/9/12
f 28/3/72 41/3/72 166/3/72 164/3/72
f 164/10/46 166/10/46 115/9/46 123/9/46
f 41/3/9 169/3/9 168/3/9 166/3/9
f 166/10/9 168/10/9 135/9/9 115/9/9
f 39/17/73 36/17/73 175/17/73 165/17/73
f 36/17/74 33/17/74 174/14/74 175/17/74
f 33/17/75 30/17/75 173/14/75 174/14/75
f 30/17/76 27/17/76 172/14/76 173/14/76
f 27/17/77 25/17/77 171/14/77 172/14/77
f 25/17/78 22/17/78 170/14/78 171/14/78
f 22/17/79 17/17/79 157/17/79 170/17/79
f 108/17/80 113/17/80 170/17/80 157/17/80
f 116/17/81 171/17/81 170/17/81 113/17/81
f 118/17/82 172/17/82 171/17/82 116/17/82
f 121/17/83 173/17/83 172/17/83 118/17/83
f 124/17/84 174/17/84 173/17/84 121/17/84
f 127/17/85 175/17/85 174/17/85 124/17/85
f 165/17/86 175/17/86 127/17/86 130/17/86
f 169/3/9 177/3/9 176/3/9 168/3/9
f 168/10/9 176/10/9 144/9/9 135/9/9
f 176/10/46 178/10/46 147/9/46 144/9/46
f 180/17/46 161/3/46 162/3/46 158/3/46
f 177/3/46 179/3/46 178/3/46 176/3/46
f 53/3/2 56/3/2 159/3/2 167/3/2
f 44/3/9 53/3/9 167/3/9 163/3/9
f 163/3/9 167/3/9 162/3/9 161/3/9
f 167/3/2 159/3/2 158/3/2 162/3/2
f 163/3/9 161/3/9 177/3/9 169/3/9
f 41/3/9 44/3/9 163/3/9 169/3/9
f 161/3/87 180/17/87 179/3/87 177/3/87
f 28/3/88 155/3/88 181/17/88 13/3/88
f 18/4/89 14/4/89 182/17/89 156/4/89
f 14/4/90 13/3/90 181/17/90 182/17/90
f 156/4/91 182/17/91 181/17/91 155/3/91
