# Blender 4.4.0
# www.blender.org
mtllib Cup.mtl
o Cup
v 0.000000 -0.000000 -0.193623
v -0.000000 0.546028 -0.221480
v 0.037815 -0.000000 -0.189903
v 0.043255 0.546028 -0.217225
v 0.074176 -0.000000 -0.178885
v 0.084848 0.546028 -0.204621
v 0.107687 -0.000000 -0.160992
v 0.123181 0.546028 -0.184154
v 0.137060 -0.000000 -0.136912
v 0.156779 0.546028 -0.156610
v 0.161165 -0.000000 -0.107571
v 0.184353 0.546028 -0.123048
v 0.179077 -0.000000 -0.074096
v 0.204842 0.546028 -0.084757
v 0.190108 -0.000000 -0.037774
v 0.217459 0.546028 -0.043209
v 0.193832 -0.000000 -0.000000
v 0.221719 0.546028 0.000000
v 0.190108 -0.000000 0.037774
v 0.217459 0.546028 0.043209
v 0.179077 -0.000000 0.074096
v 0.204842 0.546028 0.084757
v 0.161165 -0.000000 0.107571
v 0.184353 0.546028 0.123048
v 0.137060 -0.000000 0.136912
v 0.156779 0.546028 0.156610
v 0.107687 -0.000000 0.160992
v 0.123181 0.546028 0.184154
v 0.074176 -0.000000 0.178885
v 0.084848 0.546028 0.204621
v 0.037815 -0.000000 0.189903
v 0.043255 0.546028 0.217225
v 0.000000 -0.000000 0.193623
v -0.000000 0.546028 0.221480
v -0.037815 -0.000000 0.189903
v -0.043255 0.546028 0.217225
v -0.074176 -0.000000 0.178885
v -0.084848 0.546028 0.204621
v -0.107687 -0.000000 0.160992
v -0.123181 0.546028 0.184154
v -0.137060 -0.000000 0.136912
v -0.156779 0.546028 0.156610
v -0.161165 -0.000000 0.107571
v -0.184353 0.546028 0.123048
v -0.179077 -0.000000 0.074096
v -0.204842 0.546028 0.084757
v -0.190108 -0.000000 0.037774
v -0.217459 0.546028 0.043209
v -0.193832 -0.000000 -0.000000
v -0.221719 0.546028 0.000000
v -0.190108 -0.000000 -0.037774
v -0.217459 0.546028 -0.043209
v -0.179077 -0.000000 -0.074096
v -0.204842 0.546028 -0.084757
v -0.161165 -0.000000 -0.107571
v -0.184353 0.546028 -0.123048
v -0.137060 -0.000000 -0.136912
v -0.156779 0.546028 -0.156610
v -0.107687 -0.000000 -0.160992
v -0.123181 0.546028 -0.184154
v -0.074176 -0.000000 -0.178885
v -0.084848 0.546028 -0.204621
v -0.037815 -0.000000 -0.189903
v -0.043255 0.546028 -0.217225
v 0.014318 0.019807 -0.071901
v 0.000000 0.019807 -0.073310
v 0.028085 0.019807 -0.067730
v 0.040773 0.019807 -0.060955
v 0.051894 0.019807 -0.051838
v 0.061021 0.019807 -0.040729
v 0.067803 0.019807 -0.028055
v 0.071979 0.019807 -0.014302
v 0.073389 0.019807 0.000000
v 0.071979 0.019807 0.014302
v 0.067803 0.019807 0.028055
v 0.061021 0.019807 0.040729
v 0.051894 0.019807 0.051838
v 0.040773 0.019807 0.060955
v 0.028085 0.019807 0.067730
v 0.014318 0.019807 0.071901
v 0.000000 0.019807 0.073310
v -0.014317 0.019807 0.071901
v -0.028085 0.019807 0.067730
v -0.040773 0.019807 0.060955
v -0.051894 0.019807 0.051838
v -0.061021 0.019807 0.040729
v -0.067803 0.019807 0.028055
v -0.071979 0.019807 0.014302
v -0.073389 0.019807 0.000000
v -0.071979 0.019807 -0.014302
v -0.067803 0.019807 -0.028055
v -0.061021 0.019807 -0.040729
v -0.051894 0.019807 -0.051838
v -0.040773 0.019807 -0.060955
v -0.028085 0.019807 -0.067730
v -0.014317 0.019807 -0.071901
v 0.134486 0.048690 0.026722
v 0.126683 0.048690 0.052417
v -0.134486 0.048690 0.026722
v -0.137120 0.048690 0.000000
v 0.114011 0.048690 0.076098
v -0.134486 0.048690 -0.026722
v 0.096959 0.048690 0.096854
v -0.126683 0.048690 -0.052417
v 0.076180 0.048690 0.113889
v -0.114011 0.048690 -0.076098
v 0.052474 0.048690 0.126546
v 0.000000 0.048690 -0.136973
v 0.026751 0.048690 -0.134341
v -0.096959 0.048690 -0.096854
v 0.026751 0.048690 0.134341
v 0.052474 0.048690 -0.126546
v -0.076180 0.048690 -0.113889
v 0.000000 0.048690 0.136973
v 0.076180 0.048690 -0.113889
v -0.052474 0.048690 -0.126546
v -0.026751 0.048690 0.134341
v 0.096959 0.048690 -0.096854
v -0.026751 0.048690 -0.134341
v -0.052474 0.048690 0.126546
v 0.114011 0.048690 -0.076098
v -0.076180 0.048690 0.113889
v 0.126683 0.048690 -0.052417
v -0.096959 0.048690 0.096854
v 0.134486 0.048690 -0.026722
v -0.114011 0.048690 0.076098
v 0.137120 0.048690 0.000000
v -0.126683 0.048690 0.052417
v 0.151141 0.106001 0.062537
v -0.163594 0.106001 0.000000
v 0.136023 0.106001 0.090790
v -0.160450 0.106001 -0.031881
v 0.115678 0.106001 0.115554
v -0.151141 0.106001 -0.062537
v 0.090888 0.106001 0.135877
v -0.136023 0.106001 -0.090790
v 0.062605 0.106001 0.150978
v 0.031916 0.106001 -0.160277
v -0.115678 0.106001 -0.115554
v 0.031916 0.106001 0.160277
v 0.062605 0.106001 -0.150978
v -0.090888 0.106001 -0.135877
v 0.000000 0.106001 0.163417
v 0.090888 0.106001 -0.135877
v -0.062605 0.106001 -0.150978
v -0.031916 0.106001 0.160277
v 0.115678 0.106001 -0.115554
v -0.031916 0.106001 -0.160277
v -0.062605 0.106001 0.150978
v 0.136023 0.106001 -0.090790
v -0.090888 0.106001 0.135877
v 0.151141 0.106001 -0.062537
v -0.115678 0.106001 0.115554
v 0.160450 0.106001 -0.031881
v -0.136023 0.106001 0.090790
v 0.163594 0.106001 0.000000
v -0.151141 0.106001 0.062537
v 0.160450 0.106001 0.031881
v -0.160450 0.106001 0.031881
v 0.000000 0.106001 -0.163417
v 0.167984 0.191733 0.069506
v -0.181824 0.191733 0.000000
v 0.151181 0.191733 0.100907
v -0.178331 0.191733 -0.035434
v 0.128569 0.191733 0.128431
v -0.167984 0.191733 -0.069506
v 0.101016 0.191733 0.151019
v -0.151181 0.191733 -0.100907
v 0.069581 0.191733 0.167803
v 0.035472 0.191733 -0.178139
v -0.128569 0.191733 -0.128431
v 0.035472 0.191733 0.178139
v 0.069581 0.191733 -0.167803
v -0.101016 0.191733 -0.151019
v 0.000000 0.191733 0.181628
v 0.101016 0.191733 -0.151019
v -0.069581 0.191733 -0.167803
v -0.035472 0.191733 0.178139
v 0.128569 0.191733 -0.128431
v -0.035472 0.191733 -0.178139
v -0.069581 0.191733 0.167803
v 0.151181 0.191733 -0.100907
v -0.101016 0.191733 0.151019
v 0.167984 0.191733 -0.069506
v -0.128569 0.191733 0.128431
v 0.178331 0.191733 -0.035434
v -0.151181 0.191733 0.100907
v 0.181824 0.191733 0.000000
v -0.167984 0.191733 0.069506
v 0.178331 0.191733 0.035434
v -0.178331 0.191733 0.035434
v 0.000000 0.191733 -0.181628
v 0.042003 0.573766 -0.210938
v -0.000000 0.573766 -0.215070
v 0.082393 0.573766 -0.198699
v 0.119615 0.573766 -0.178824
v 0.152242 0.573766 -0.152078
v 0.179017 0.573766 -0.119487
v 0.198913 0.573766 -0.082304
v 0.211165 0.573766 -0.041958
v 0.215302 0.573766 -0.000000
v 0.211165 0.573766 0.041958
v 0.198913 0.573766 0.082304
v 0.179017 0.573766 0.119487
v 0.152242 0.573766 0.152078
v 0.119615 0.573766 0.178824
v 0.082393 0.573766 0.198699
v 0.042003 0.573766 0.210938
v -0.000000 0.573766 0.215070
v -0.042003 0.573766 0.210938
v -0.082393 0.573766 0.198699
v -0.119615 0.573766 0.178824
v -0.152242 0.573766 0.152078
v -0.179017 0.573766 0.119487
v -0.198913 0.573766 0.082304
v -0.211165 0.573766 0.041958
v -0.215302 0.573766 -0.000000
v -0.211165 0.573766 -0.041958
v -0.198913 0.573766 -0.082304
v -0.179017 0.573766 -0.119487
v -0.152242 0.573766 -0.152078
v -0.119615 0.573766 -0.178824
v -0.082393 0.573766 -0.198699
v -0.042003 0.573766 -0.210938
v 0.044370 0.549441 -0.223063
v -0.000000 0.549441 -0.227433
v 0.087035 0.549441 -0.210121
v 0.126355 0.549441 -0.189104
v 0.160820 0.549441 -0.160820
v 0.189104 0.549441 -0.126355
v 0.210121 0.549441 -0.087035
v 0.223063 0.549441 -0.044370
v 0.227433 0.549441 0.000000
v 0.223063 0.549441 0.044370
v 0.210121 0.549441 0.087035
v 0.189104 0.549441 0.126355
v 0.160820 0.549441 0.160820
v 0.126355 0.549441 0.189104
v 0.087035 0.549441 0.210121
v 0.044370 0.549441 0.223063
v -0.000000 0.549441 0.227433
v -0.044370 0.549441 0.223063
v -0.087035 0.549441 0.210121
v -0.126355 0.549441 0.189104
v -0.160820 0.549441 0.160820
v -0.189104 0.549441 0.126355
v -0.210121 0.549441 0.087035
v -0.223063 0.549441 0.044370
v -0.227433 0.549441 0.000000
v -0.223063 0.549441 -0.044370
v -0.210121 0.549441 -0.087035
v -0.189104 0.549441 -0.126355
v -0.160820 0.549441 -0.160820
v -0.126355 0.549441 -0.189104
v -0.087035 0.549441 -0.210121
v -0.044370 0.549441 -0.223063
v -0.223063 0.567209 -0.044370
v -0.000000 0.567209 0.227433
v 0.223063 0.567209 -0.044370
v -0.227433 0.567209 0.000000
v 0.044370 0.567209 0.223063
v 0.210121 0.567209 -0.087035
v -0.000000 0.567209 -0.227433
v -0.223063 0.567209 0.044370
v 0.087035 0.567209 0.210121
v 0.126355 0.567209 0.189104
v 0.189104 0.567209 -0.126355
v 0.160820 0.567209 -0.160820
v -0.044370 0.567209 -0.223063
v -0.087035 0.567209 -0.210121
v -0.210121 0.567209 0.087035
v -0.189104 0.567209 0.126355
v 0.044370 0.567209 -0.223063
v 0.087035 0.567209 -0.210121
v 0.126355 0.567209 -0.189104
v 0.227433 0.567209 0.000000
v 0.223063 0.567209 0.044370
v 0.210121 0.567209 0.087035
v 0.189104 0.567209 0.126355
v 0.160820 0.567209 0.160820
v -0.044370 0.567209 0.223063
v -0.087035 0.567209 0.210121
v -0.126355 0.567209 0.189104
v -0.160820 0.567209 0.160820
v -0.210121 0.567209 -0.087035
v -0.189104 0.567209 -0.126355
v -0.160820 0.567209 -0.160820
v -0.126355 0.567209 -0.189104
v 0.000000 0.019807 -0.000000
v -0.064979 0.019807 0.026499
v -0.000000 -0.000000 -0.000000
vn -0.0000 -0.0510 -0.9987
vn 0.1946 -0.0510 -0.9796
vn 0.3818 -0.0510 -0.9228
vn 0.5544 -0.0510 -0.8307
vn 0.7058 -0.0510 -0.7066
vn 0.8301 -0.0510 -0.5553
vn 0.9225 -0.0510 -0.3825
vn 0.9795 -0.0510 -0.1950
vn 0.9987 -0.0510 -0.0000
vn 0.9795 -0.0510 0.1950
vn 0.9225 -0.0510 0.3825
vn 0.8301 -0.0510 0.5553
vn 0.7058 -0.0510 0.7066
vn 0.5544 -0.0510 0.8307
vn 0.3818 -0.0510 0.9228
vn 0.1946 -0.0510 0.9796
vn -0.0000 -0.0510 0.9987
vn -0.1946 -0.0510 0.9796
vn -0.3818 -0.0510 0.9228
vn -0.5544 -0.0510 0.8307
vn -0.7058 -0.0510 0.7066
vn -0.8301 -0.0510 0.5553
vn -0.9225 -0.0510 0.3825
vn -0.9795 -0.0510 0.1950
vn -0.9987 -0.0510 -0.0000
vn -0.9795 -0.0510 -0.1950
vn -0.9225 -0.0510 -0.3825
vn -0.8301 -0.0510 -0.5553
vn -0.7058 -0.0510 -0.7066
vn -0.5544 -0.0510 -0.8307
vn -0.3818 -0.0510 -0.9228
vn -0.9700 0.1474 -0.1932
vn -0.9770 0.0873 -0.1945
vn -0.9962 0.0873 -0.0000
vn -0.9891 0.1474 -0.0000
vn -0.1946 -0.0510 -0.9796
vn -0.0000 -1.0000 -0.0000
vn -0.6607 0.6989 -0.2740
vn -0.7014 0.6989 -0.1397
vn -0.2194 0.9747 -0.0437
vn -0.2067 0.9747 -0.0857
vn -0.4195 0.8796 0.2243
vn -0.9700 0.1474 0.1932
vn -0.9770 0.0873 0.1945
vn -0.0489 -0.8664 -0.4969
vn -0.9137 0.1473 0.3788
vn -0.9202 0.0873 0.3816
vn 0.0461 0.8825 -0.4681
vn -0.3667 0.8803 0.3011
vn -0.8280 0.0873 0.5539
vn -0.8221 0.1473 0.5499
vn 0.1942 0.0872 0.9771
vn 0.1928 0.1472 0.9701
vn -0.0000 0.1472 0.9891
vn -0.0000 0.0872 0.9962
vn -0.4911 -0.8582 0.1491
vn -0.7040 0.0872 0.7048
vn -0.6990 0.1473 0.6998
vn 0.3809 0.0872 0.9205
vn 0.3782 0.1472 0.9140
vn -0.3000 0.8810 0.3658
vn -0.5531 0.0872 0.8286
vn -0.5491 0.1473 0.8227
vn 0.5531 0.0872 0.8286
vn 0.5491 0.1473 0.8227
vn 0.2368 -0.8646 0.4433
vn -0.3809 0.0872 0.9205
vn -0.3782 0.1472 0.9140
vn 0.7040 0.0872 0.7048
vn 0.6990 0.1473 0.6998
vn 0.3928 -0.8612 -0.3226
vn -0.1942 0.0872 0.9771
vn -0.1928 0.1472 0.9701
vn 0.8280 0.0873 0.5539
vn 0.8221 0.1473 0.5499
vn -0.2223 0.8817 0.4162
vn -0.1452 -0.8658 -0.4789
vn 0.9202 0.0873 0.3816
vn 0.9137 0.1473 0.3788
vn -0.1366 0.8822 0.4506
vn 0.9770 0.0873 0.1945
vn 0.9700 0.1474 0.1932
vn -0.4507 -0.8595 0.2410
vn 0.9962 0.0873 -0.0000
vn 0.9891 0.1474 -0.0000
vn 0.3205 -0.8629 0.3907
vn -0.0461 0.8825 0.4681
vn 0.9770 0.0873 -0.1945
vn 0.9700 0.1474 -0.1932
vn 0.3205 -0.8629 -0.3907
vn -0.0436 0.9746 0.2196
vn -0.0000 0.9746 0.2239
vn -0.0000 1.0000 -0.0000
vn -0.0856 0.9746 0.2069
vn 0.7152 0.6989 -0.0000
vn 0.7014 0.6989 -0.1397
vn 0.2194 0.9747 -0.0437
vn 0.2237 0.9747 -0.0000
vn -0.5945 0.6988 -0.3977
vn -0.1860 0.9746 -0.1244
vn 0.7014 0.6989 0.1397
vn 0.2194 0.9747 0.0437
vn -0.5055 0.6988 -0.5061
vn -0.1581 0.9746 -0.1583
vn 0.6607 0.6989 0.2740
vn 0.2067 0.9747 0.0857
vn -0.3972 0.6987 -0.5950
vn -0.1242 0.9746 -0.1862
vn 0.5945 0.6988 0.3977
vn 0.1860 0.9746 0.1244
vn -0.2735 0.6987 -0.6611
vn -0.0856 0.9746 -0.2069
vn -0.1394 0.6987 0.7017
vn -0.0000 0.6987 0.7155
vn 0.5055 0.6988 0.5061
vn 0.1581 0.9746 0.1583
vn -0.1394 0.6987 -0.7017
vn -0.0436 0.9746 -0.2196
vn -0.2735 0.6987 0.6611
vn 0.3972 0.6987 0.5950
vn 0.1242 0.9746 0.1862
vn -0.0000 0.6987 -0.7155
vn -0.0000 0.9746 -0.2239
vn -0.3972 0.6987 0.5950
vn -0.1242 0.9746 0.1862
vn 0.2735 0.6987 0.6611
vn 0.0856 0.9746 0.2069
vn 0.1394 0.6987 -0.7017
vn 0.0436 0.9746 -0.2196
vn -0.5055 0.6988 0.5061
vn -0.1581 0.9746 0.1583
vn 0.1394 0.6987 0.7017
vn 0.0436 0.9746 0.2196
vn 0.2735 0.6987 -0.6611
vn 0.0856 0.9746 -0.2069
vn -0.5945 0.6988 0.3977
vn -0.1860 0.9746 0.1244
vn 0.3972 0.6987 -0.5950
vn 0.1242 0.9746 -0.1862
vn -0.6607 0.6989 0.2740
vn -0.2067 0.9747 0.0857
vn 0.5055 0.6988 -0.5061
vn 0.1581 0.9746 -0.1583
vn -0.7014 0.6989 0.1397
vn -0.2194 0.9747 0.0437
vn 0.5945 0.6988 -0.3977
vn 0.1860 0.9746 -0.1244
vn -0.7152 0.6989 -0.0000
vn -0.2237 0.9747 -0.0000
vn 0.6607 0.6989 -0.2740
vn 0.2067 0.9747 -0.0857
vn 0.9313 0.3136 -0.1854
vn 0.8772 0.3135 -0.3637
vn -0.9313 0.3136 -0.1854
vn -0.9496 0.3136 -0.0000
vn 0.7893 0.3135 -0.5279
vn -0.9313 0.3136 0.1854
vn 0.6711 0.3134 -0.6718
vn -0.8772 0.3135 0.3637
vn 0.5272 0.3134 -0.7898
vn -0.7893 0.3135 0.5279
vn 0.3631 0.3133 -0.8775
vn -0.0000 0.3133 0.9497
vn 0.1851 0.3133 0.9314
vn -0.6711 0.3134 0.6718
vn 0.1851 0.3133 -0.9314
vn 0.3631 0.3133 0.8775
vn -0.5272 0.3134 0.7898
vn -0.0000 0.3133 -0.9497
vn 0.5272 0.3134 0.7898
vn -0.3631 0.3133 0.8775
vn -0.1851 0.3133 -0.9314
vn 0.6711 0.3134 0.6718
vn -0.1851 0.3133 0.9314
vn -0.3631 0.3133 -0.8775
vn 0.7893 0.3135 0.5279
vn -0.5272 0.3134 -0.7898
vn 0.8772 0.3135 0.3637
vn -0.6711 0.3134 -0.6718
vn 0.9313 0.3136 0.1854
vn -0.7893 0.3135 -0.5279
vn 0.9496 0.3136 -0.0000
vn -0.8772 0.3135 -0.3637
vn -0.9137 0.1473 -0.3788
vn -0.8221 0.1473 -0.5499
vn -0.6990 0.1473 -0.6998
vn -0.5491 0.1473 -0.8227
vn -0.3782 0.1472 -0.9140
vn -0.1928 0.1472 -0.9701
vn -0.0000 0.1472 -0.9891
vn 0.1928 0.1472 -0.9701
vn 0.3782 0.1472 -0.9140
vn 0.5491 0.1473 -0.8227
vn 0.6990 0.1473 -0.6998
vn 0.8221 0.1473 -0.5499
vn 0.9137 0.1473 -0.3788
vn -0.9202 0.0873 -0.3816
vn 0.9202 0.0873 -0.3816
vn 0.8280 0.0873 -0.5539
vn 0.7040 0.0872 -0.7048
vn 0.5531 0.0872 -0.8286
vn 0.3809 0.0872 -0.9205
vn 0.1942 0.0872 -0.9771
vn -0.0000 0.0872 -0.9962
vn -0.1942 0.0872 -0.9771
vn -0.3809 0.0872 -0.9205
vn -0.5531 0.0872 -0.8286
vn -0.7040 0.0872 -0.7048
vn -0.8280 0.0873 -0.5539
vn 0.3667 0.8803 -0.3011
vn 0.2223 0.8817 0.4162
vn -0.4561 0.8791 0.1384
vn -0.0461 0.8825 -0.4681
vn 0.4561 0.8791 0.1384
vn -0.3667 0.8803 -0.3011
vn 0.4195 0.8796 -0.2243
vn 0.1366 0.8822 0.4506
vn -0.4749 0.8788 0.0468
vn 0.1366 0.8822 -0.4506
vn 0.4195 0.8796 0.2243
vn -0.3000 0.8810 -0.3658
vn 0.4561 0.8791 -0.1384
vn 0.0461 0.8825 0.4681
vn -0.4749 0.8788 -0.0468
vn 0.2223 0.8817 -0.4162
vn 0.3667 0.8803 0.3011
vn -0.2223 0.8817 -0.4162
vn 0.4749 0.8788 -0.0468
vn -0.4561 0.8791 -0.1384
vn 0.3000 0.8810 -0.3658
vn 0.3000 0.8810 0.3658
vn -0.1366 0.8822 -0.4506
vn 0.4749 0.8788 0.0468
vn -0.4195 0.8796 -0.2243
vn -0.2368 -0.8646 -0.4433
vn -0.3928 -0.8612 0.3226
vn 0.3928 -0.8612 0.3226
vn 0.2368 -0.8646 -0.4433
vn -0.3205 -0.8629 -0.3907
vn -0.3205 -0.8629 0.3907
vn 0.4507 -0.8595 0.2410
vn 0.1452 -0.8658 -0.4789
vn -0.3928 -0.8612 -0.3226
vn -0.2368 -0.8646 0.4433
vn -0.1951 -0.0000 0.9808
vn -0.0000 -0.0000 1.0000
vn 1.0000 -0.0000 -0.0000
vn 0.9808 -0.0000 -0.1951
vn -0.9808 -0.0000 -0.1951
vn -1.0000 -0.0000 -0.0000
vn 0.1951 -0.0000 0.9808
vn 0.9239 -0.0000 -0.3827
vn -0.9808 -0.0000 0.1951
vn 0.3827 -0.0000 0.9239
vn 0.8315 -0.0000 -0.5556
vn -0.0000 -0.0000 -1.0000
vn -0.1951 -0.0000 -0.9808
vn -0.9239 -0.0000 0.3827
vn 0.5556 -0.0000 0.8315
vn 0.7071 -0.0000 -0.7071
vn -0.3827 -0.0000 -0.9239
vn -0.8315 -0.0000 0.5556
vn -0.9239 -0.0000 -0.3827
vn 0.9808 -0.0000 0.1951
vn -0.3827 -0.0000 0.9239
vn 0.1951 -0.0000 -0.9808
vn -0.8315 -0.0000 -0.5556
vn 0.9239 -0.0000 0.3827
vn -0.5556 -0.0000 0.8315
vn -0.7071 -0.0000 -0.7071
vn 0.3827 -0.0000 -0.9239
vn 0.8315 -0.0000 0.5556
vn -0.7071 -0.0000 0.7071
vn -0.5556 -0.0000 -0.8315
vn 0.5556 -0.0000 -0.8315
vn 0.7071 -0.0000 0.7071
vn 0.4507 -0.8595 -0.2410
vn 0.1452 -0.8658 0.4789
vn -0.5120 -0.8575 0.0505
vn 0.4911 -0.8582 -0.1491
vn 0.0489 -0.8664 0.4969
vn -0.5120 -0.8575 -0.0505
vn 0.5120 -0.8575 -0.0505
vn -0.0489 -0.8664 0.4969
vn -0.4911 -0.8582 -0.1491
vn 0.5120 -0.8575 0.0505
vn -0.1452 -0.8658 0.4789
vn 0.0489 -0.8664 -0.4969
vn -0.4507 -0.8595 -0.2410
vn 0.4911 -0.8582 0.1491
vt 0.736653 0.259530
vt 0.573203 0.466865
vt 0.536687 0.430291
vt 0.736917 0.259219
vt 0.508075 0.387425
vt 0.737236 0.258961
vt 0.485674 0.340898
vt 0.737621 0.258813
vt 0.475546 0.289977
vt 0.738008 0.258693
vt 0.475542 0.238196
vt 0.738412 0.258650
vt 0.482781 0.186821
vt 0.738808 0.258731
vt 0.502755 0.138588
vt 0.739190 0.258842
vt 0.531684 0.095310
vt 0.739545 0.259028
vt 0.568399 0.058622
vt 0.739859 0.259282
vt 0.611442 0.029891
vt 0.740118 0.259595
vt 0.659121 0.010167
vt 0.740313 0.259956
vt 0.709582 0.000148
vt 0.740434 0.260351
vt 0.760877 0.000155
vt 0.740477 0.260766
vt 0.811041 0.010122
vt 0.740438 0.261185
vt 0.859427 0.027016
vt 0.740272 0.261566
vt 0.902278 0.055594
vt 0.740079 0.261937
vt 0.938644 0.091873
vt 0.739817 0.262265
vt 0.967173 0.134426
vt 0.739495 0.262538
vt 0.989541 0.180634
vt 0.739104 0.262694
vt 0.999721 0.231218
vt 0.738707 0.262823
vt 0.999852 0.282680
vt 0.738292 0.262872
vt 0.992793 0.333763
vt 0.737883 0.262793
vt 0.975724 0.383015
vt 0.737507 0.262637
vt 0.949077 0.428463
vt 0.737180 0.262412
vt 0.911695 0.465988
vt 0.736869 0.262165
vt 0.867835 0.495374
vt 0.736615 0.261857
vt 0.819226 0.515549
vt 0.736426 0.261499
vt 0.767770 0.525800
vt 0.736311 0.261107
vt 0.715463 0.525800
vt 0.736277 0.260696
vt 0.664315 0.515617
vt 0.736325 0.260282
vt 0.387809 0.065985
vt 0.214395 0.062313
vt 0.252081 0.049777
vt 0.394959 0.063186
vt 0.616280 0.495707
vt 0.736455 0.259882
vt 0.010816 0.622786
vt 0.093884 0.667186
vt 0.000148 0.657954
vt 0.003750 0.639844
vt 0.418228 0.065728
vt 0.423361 0.060771
vt 0.448386 0.034810
vt 0.439027 0.047213
vt 0.508277 0.600942
vt 0.502258 0.597621
vt 0.514166 0.579843
vt 0.519442 0.584306
vt 0.402003 0.061849
vt 0.289024 0.044291
vt 0.585333 0.773970
vt 0.560980 0.768699
vt 0.562219 0.764911
vt 0.585761 0.769884
vt 0.408654 0.062207
vt 0.324532 0.045483
vt 0.608031 0.752337
vt 0.608648 0.759424
vt 0.586755 0.759364
vt 0.587512 0.752221
vt 0.533670 0.570149
vt 0.529352 0.564705
vt 0.357829 0.053017
vt 0.414717 0.064222
vt 0.474840 0.204860
vt 0.430072 0.101819
vt 0.430365 0.093836
vt 0.468184 0.169669
vt 0.480644 0.613363
vt 0.489762 0.591126
vt 0.493128 0.592869
vt 0.484237 0.614432
vt 0.388315 0.066433
vt 0.419923 0.067952
vt 0.475246 0.242436
vt 0.428537 0.109900
vt 0.550436 0.559038
vt 0.547249 0.552816
vt 0.415205 0.085358
vt 0.424146 0.073023
vt 0.469042 0.281639
vt 0.425775 0.117828
vt 0.658577 0.541282
vt 0.678573 0.555218
vt 0.676009 0.558141
vt 0.656627 0.544686
vt 0.437862 0.109266
vt 0.427346 0.079187
vt 0.455924 0.321675
vt 0.421889 0.125335
vt 0.694032 0.728833
vt 0.676959 0.745992
vt 0.674464 0.743056
vt 0.691042 0.726460
vt 0.455699 0.137579
vt 0.429445 0.086208
vt 0.435652 0.361720
vt 0.416835 0.132202
vt 0.567206 0.544649
vt 0.569132 0.551423
vt 0.538444 0.758833
vt 0.540400 0.755418
vt 0.408048 0.400915
vt 0.410784 0.138179
vt 0.588501 0.540518
vt 0.589087 0.547611
vt 0.372892 0.438583
vt 0.404274 0.143004
vt 0.503116 0.570997
vt 0.506110 0.573374
vt 0.330329 0.473322
vt 0.396781 0.146635
vt 0.695416 0.572734
vt 0.692351 0.575077
vt 0.610374 0.540678
vt 0.609593 0.547818
vt 0.280292 0.504457
vt 0.388911 0.148762
vt 0.656794 0.759532
vt 0.654906 0.756132
vt 0.425325 0.064346
vt 0.422415 0.069890
vt 0.422427 0.070886
vt 0.429611 0.057826
vt 0.403900 0.108363
vt 0.401490 0.109115
vt 0.408765 0.094961
vt 0.410418 0.094817
vt 0.413344 0.070669
vt 0.431426 0.057191
vt 0.406444 0.106591
vt 0.410901 0.093523
vt 0.408543 0.075825
vt 0.425185 0.065399
vt 0.408948 0.104075
vt 0.411717 0.091714
vt 0.404601 0.081434
vt 0.420158 0.071526
vt 0.411273 0.101046
vt 0.412791 0.089403
vt 0.400931 0.086350
vt 0.415978 0.077149
vt 0.421767 0.072775
vt 0.420314 0.078056
vt 0.413496 0.097398
vt 0.414073 0.086584
vt 0.398207 0.091401
vt 0.412684 0.081269
vt 0.422677 0.067058
vt 0.415583 0.093223
vt 0.415551 0.083258
vt 0.396059 0.095736
vt 0.410017 0.085055
vt 0.423965 0.061943
vt 0.434386 0.050504
vt 0.417282 0.088419
vt 0.417621 0.079278
vt 0.394723 0.099610
vt 0.407963 0.088074
vt 0.425180 0.057291
vt 0.440713 0.041781
vt 0.419037 0.083502
vt 0.419591 0.074945
vt 0.394180 0.102927
vt 0.406472 0.090355
vt 0.426382 0.053585
vt 0.449120 0.031110
vt 0.394402 0.105611
vt 0.405475 0.091917
vt 0.427575 0.051648
vt 0.460319 0.017660
vt 0.395354 0.107622
vt 0.404896 0.092755
vt 0.428998 0.052524
vt 0.475246 0.000148
vt 0.397016 0.108794
vt 0.405665 0.094350
vt 0.426465 0.055559
vt 0.459699 0.020349
vt 0.399105 0.109307
vt 0.407274 0.094623
vt 0.396909 0.122655
vt 0.392731 0.122892
vt 0.406951 0.065315
vt 0.411238 0.062316
vt 0.388992 0.121964
vt 0.415012 0.060680
vt 0.385788 0.119993
vt 0.418011 0.060491
vt 0.383309 0.117060
vt 0.420296 0.061950
vt 0.381742 0.113178
vt 0.423589 0.085066
vt 0.422709 0.090952
vt 0.421918 0.064939
vt 0.381152 0.108479
vt 0.421081 0.096763
vt 0.423104 0.068956
vt 0.381579 0.103137
vt 0.419024 0.102313
vt 0.423749 0.073843
vt 0.383014 0.097338
vt 0.416218 0.107540
vt 0.424048 0.079290
vt 0.385424 0.091303
vt 0.412972 0.112144
vt 0.388718 0.085271
vt 0.409297 0.116074
vt 0.392654 0.079559
vt 0.405298 0.119273
vt 0.397251 0.074172
vt 0.401161 0.121452
vt 0.402099 0.069245
vt 0.380706 0.070260
vt 0.373939 0.075942
vt 0.367814 0.082825
vt 0.362614 0.090772
vt 0.358635 0.099694
vt 0.356049 0.108637
vt 0.355083 0.117963
vt 0.355674 0.126488
vt 0.357829 0.134148
vt 0.361427 0.140407
vt 0.366963 0.145090
vt 0.373812 0.148032
vt 0.381025 0.149218
vt 0.176987 0.082010
vt 0.222869 0.531010
vt 0.158006 0.552309
vt 0.086365 0.566578
vt 0.008055 0.573154
vt 0.000148 0.493633
vt 0.001320 0.419340
vt 0.010535 0.350839
vt 0.026455 0.288870
vt 0.048614 0.233271
vt 0.075505 0.184799
vt 0.106606 0.143259
vt 0.140750 0.108981
vt 0.677739 0.715548
vt 0.683000 0.719999
vt 0.667817 0.735117
vt 0.663503 0.729683
vt 0.651644 0.553853
vt 0.669362 0.566122
vt 0.664911 0.571504
vt 0.648302 0.560039
vt 0.500560 0.619365
vt 0.494053 0.617302
vt 0.565338 0.754839
vt 0.567431 0.748047
vt 0.697096 0.621566
vt 0.703702 0.619619
vt 0.707487 0.640664
vt 0.700674 0.641277
vt 0.518095 0.713996
vt 0.512688 0.718387
vt 0.501089 0.700275
vt 0.507220 0.697047
vt 0.688895 0.698967
vt 0.694887 0.702268
vt 0.631755 0.545256
vt 0.629658 0.552038
vt 0.496532 0.638797
vt 0.489808 0.638067
vt 0.628002 0.748459
vt 0.629954 0.755228
vt 0.689756 0.602882
vt 0.695878 0.599656
vt 0.532108 0.728514
vt 0.527640 0.733908
vt 0.696555 0.680625
vt 0.703042 0.682659
vt 0.496292 0.658655
vt 0.489488 0.659272
vt 0.646717 0.740801
vt 0.649914 0.747014
vt 0.678896 0.585973
vt 0.684288 0.581587
vt 0.548749 0.740023
vt 0.545399 0.746224
vt 0.700430 0.661223
vt 0.707179 0.661922
vt 0.499873 0.678346
vt 0.493268 0.680297
vt 0.518392 0.744835
vt 0.520967 0.741906
vt 0.520207 0.553824
vt 0.522702 0.556763
vt 0.708482 0.593172
vt 0.705045 0.594861
vt 0.634289 0.768939
vt 0.633099 0.765196
vt 0.501525 0.727248
vt 0.504601 0.724905
vt 0.540386 0.540295
vt 0.542269 0.543697
vt 0.717270 0.615730
vt 0.713601 0.616719
vt 0.610228 0.773855
vt 0.609806 0.769897
vt 0.488464 0.706756
vt 0.491907 0.705069
vt 0.562907 0.530933
vt 0.564088 0.534678
vt 0.587383 0.530053
vt 0.611406 0.530174
vt 0.717361 0.662897
vt 0.712830 0.685496
vt 0.479285 0.660186
vt 0.479633 0.637069
vt 0.634884 0.535209
vt 0.703993 0.707003
vt 0.483369 0.683193
vt 0.717700 0.639746
vt 0.707352 0.708739
vt 0.636127 0.531434
vt 0.476012 0.636676
vt 0.716416 0.686554
vt 0.611848 0.526097
vt 0.475542 0.660462
vt 0.720982 0.663282
vt 0.586977 0.526097
vt 0.479700 0.684178
vt 0.721447 0.639468
vt 0.408109 0.093442
vt 0.003750 0.694528
vt 0.000148 0.676418
vt 0.021075 0.726939
vt 0.010816 0.711587
vt 0.184018 0.639844
vt 0.187620 0.657954
vt 0.187620 0.676418
vt 0.049484 0.750254
vt 0.034131 0.739996
vt 0.166694 0.607433
vt 0.176952 0.622785
vt 0.084652 0.760922
vt 0.066542 0.757320
vt 0.138285 0.584118
vt 0.153637 0.594377
vt 0.121226 0.757320
vt 0.103116 0.760922
vt 0.103116 0.573450
vt 0.121226 0.577052
vt 0.153638 0.739996
vt 0.138285 0.750254
vt 0.066542 0.577052
vt 0.084652 0.573450
vt 0.034131 0.594377
vt 0.049484 0.584118
vt 0.176952 0.711587
vt 0.166694 0.726939
vt 0.184018 0.694528
vt 0.021075 0.607433
s 1
f 1/1/1 2/2/1 4/3/2 3/4/2
f 3/4/2 4/3/2 6/5/3 5/6/3
f 5/6/3 6/5/3 8/7/4 7/8/4
f 7/8/4 8/7/4 10/9/5 9/10/5
f 9/10/5 10/9/5 12/11/6 11/12/6
f 11/12/6 12/11/6 14/13/7 13/14/7
f 13/14/7 14/13/7 16/15/8 15/16/8
f 15/16/8 16/15/8 18/17/9 17/18/9
f 17/18/9 18/17/9 20/19/10 19/20/10
f 19/20/10 20/19/10 22/21/11 21/22/11
f 21/22/11 22/21/11 24/23/12 23/24/12
f 23/24/12 24/23/12 26/25/13 25/26/13
f 25/26/13 26/25/13 28/27/14 27/28/14
f 27/28/14 28/27/14 30/29/15 29/30/15
f 29/30/15 30/29/15 32/31/16 31/32/16
f 31/32/16 32/31/16 34/33/17 33/34/17
f 33/34/17 34/33/17 36/35/18 35/36/18
f 35/36/18 36/35/18 38/37/19 37/38/19
f 37/38/19 38/37/19 40/39/20 39/40/20
f 39/40/20 40/39/20 42/41/21 41/42/21
f 41/42/21 42/41/21 44/43/22 43/44/22
f 43/44/22 44/43/22 46/45/23 45/46/23
f 45/46/23 46/45/23 48/47/24 47/48/24
f 47/48/24 48/47/24 50/49/25 49/50/25
f 49/50/25 50/49/25 52/51/26 51/52/26
f 51/52/26 52/51/26 54/53/27 53/54/27
f 53/54/27 54/53/27 56/55/28 55/56/28
f 55/56/28 56/55/28 58/57/29 57/58/29
f 57/58/29 58/57/29 60/59/30 59/60/30
f 59/60/30 60/59/30 62/61/31 61/62/31
f 190/63/32 202/64/33 201/65/34 188/66/35
f 61/62/31 62/61/31 64/67/36 63/68/36
f 63/68/36 64/67/36 2/2/1 1/1/1
s 0
f 1/69/37 291/70/37 61/71/37 63/72/37
s 1
f 98/73/38 97/74/39 74/75/40 75/76/41
s 0
f 215/77/42 271/78/42 272/79/42 214/80/42
s 1
f 186/81/43 188/66/35 201/65/34 200/82/44
s 0
f 2/83/45 64/84/45 256/85/45 226/86/45
s 1
f 184/87/46 186/81/43 200/82/44 199/88/47
s 0
f 193/89/48 273/90/48 263/91/48 194/92/48
f 213/93/49 214/80/49 272/79/49 284/94/49
s 1
f 198/95/50 182/96/51 184/87/46 199/88/47
f 224/97/52 180/98/53 192/99/54 194/100/55
s 0
f 48/101/56 46/102/56 247/103/56 248/104/56
s 1
f 197/105/57 179/106/58 182/96/51 198/95/50
f 223/107/59 177/108/60 180/98/53 224/97/52
s 0
f 212/109/61 213/93/61 284/94/61 283/110/61
s 1
f 196/111/62 176/112/63 179/106/58 197/105/57
f 222/113/64 174/114/65 177/108/60 223/107/59
s 0
f 30/115/66 28/116/66 238/117/66 239/118/66
s 1
f 195/119/67 173/120/68 176/112/63 196/111/62
f 221/121/69 171/122/70 174/114/65 222/113/64
s 0
f 12/123/71 10/124/71 229/125/71 230/126/71
s 1
f 193/127/72 170/128/73 173/120/68 195/119/67
f 220/129/74 168/130/75 171/122/70 221/121/69
s 0
f 282/131/76 211/132/76 212/109/76 283/110/76
f 64/84/77 62/133/77 255/134/77 256/85/77
s 1
f 219/135/78 166/136/79 168/130/75 220/129/74
s 0
f 281/137/80 210/138/80 211/132/80 282/131/80
s 1
f 218/139/81 164/140/82 166/136/79 219/135/78
s 0
f 46/102/83 44/141/83 246/142/83 247/103/83
s 1
f 217/143/84 162/144/85 164/140/82 218/139/81
s 0
f 28/116/86 26/145/86 237/146/86 238/117/86
f 258/147/87 209/148/87 210/138/87 281/137/87
s 1
f 216/149/88 191/150/89 162/144/85 217/143/84
s 0
f 10/124/90 8/151/90 228/152/90 229/125/90
s 1
f 65/153/91 66/154/92 289/155/93 67/156/94
f 100/157/95 99/158/96 88/159/97 89/160/98
f 101/161/99 98/73/38 75/76/41 76/162/100
f 102/163/101 100/157/95 89/160/98 90/164/102
f 103/165/103 101/161/99 76/162/100 77/166/104
f 104/167/105 102/163/101 90/164/102 91/168/106
f 105/169/107 103/165/103 77/166/104 78/170/108
f 106/171/109 104/167/105 91/168/106 92/172/110
f 107/173/111 105/169/107 78/170/108 79/174/112
f 109/175/113 108/176/114 66/154/92 65/153/91
f 110/177/115 106/171/109 92/172/110 93/178/116
f 111/179/117 107/173/111 79/174/112 80/180/118
f 112/181/119 109/175/113 65/153/91 67/156/94
f 113/182/120 110/177/115 93/178/116 94/183/121
f 114/184/122 111/179/117 80/180/118 81/185/123
f 115/186/124 112/181/119 67/156/94 68/187/125
f 116/188/126 113/182/120 94/183/121 95/189/127
f 117/190/128 114/184/122 81/185/123 82/191/129
f 118/192/130 115/186/124 68/187/125 69/193/131
f 119/194/132 116/188/126 95/189/127 96/195/133
f 120/196/134 117/190/128 82/191/129 83/197/135
f 121/198/136 118/192/130 69/193/131 70/199/137
f 108/176/114 119/194/132 96/195/133 66/154/92
f 122/200/138 120/196/134 83/197/135 84/201/139
f 123/202/140 121/198/136 70/199/137 71/203/141
f 124/204/142 122/200/138 84/201/139 85/205/143
f 125/206/144 123/202/140 71/203/141 72/207/145
f 126/208/146 124/204/142 85/205/143 86/209/147
f 127/210/148 125/206/144 72/207/145 73/211/149
f 128/212/150 126/208/146 86/209/147 87/213/151
f 97/74/39 127/210/148 73/211/149 74/75/40
f 99/158/96 128/212/150 87/213/151 88/159/97
f 159/214/152 157/215/153 128/212/150 99/158/96
f 158/216/154 156/217/155 127/210/148 97/74/39
f 157/215/153 155/218/156 126/208/146 128/212/150
f 156/217/155 154/219/157 125/206/144 127/210/148
f 155/218/156 153/220/158 124/204/142 126/208/146
f 154/219/157 152/221/159 123/202/140 125/206/144
f 153/220/158 151/222/160 122/200/138 124/204/142
f 152/221/159 150/223/161 121/198/136 123/202/140
f 151/222/160 149/224/162 120/196/134 122/200/138
f 160/225/163 148/226/164 119/194/132 108/176/114
f 150/223/161 147/227/165 118/192/130 121/198/136
f 149/224/162 146/228/166 117/190/128 120/196/134
f 148/226/164 145/229/167 116/188/126 119/194/132
f 147/227/165 144/230/168 115/186/124 118/192/130
f 146/228/166 143/231/169 114/184/122 117/190/128
f 145/229/167 142/232/170 113/182/120 116/188/126
f 144/230/168 141/233/171 112/181/119 115/186/124
f 143/231/169 140/234/172 111/179/117 114/184/122
f 142/232/170 139/235/173 110/177/115 113/182/120
f 141/233/171 138/236/174 109/175/113 112/181/119
f 140/234/172 137/237/175 107/173/111 111/179/117
f 139/235/173 136/238/176 106/171/109 110/177/115
f 138/236/174 160/225/163 108/176/114 109/175/113
f 137/237/175 135/239/177 105/169/107 107/173/111
f 136/238/176 134/240/178 104/167/105 106/171/109
f 135/239/177 133/241/179 103/165/103 105/169/107
f 134/240/178 132/242/180 102/163/101 104/167/105
f 133/241/179 131/243/181 101/161/99 103/165/103
f 132/242/180 130/244/182 100/157/95 102/163/101
f 131/243/181 129/245/183 98/73/38 101/161/99
f 130/244/182 159/214/152 99/158/96 100/157/95
f 129/245/183 158/216/154 97/74/39 98/73/38
f 161/246/184 190/63/32 158/216/154 129/245/183
f 162/144/85 191/150/89 159/214/152 130/244/182
f 163/247/185 161/246/184 129/245/183 131/243/181
f 164/140/82 162/144/85 130/244/182 132/242/180
f 165/248/186 163/247/185 131/243/181 133/241/179
f 166/136/79 164/140/82 132/242/180 134/240/178
f 167/249/187 165/248/186 133/241/179 135/239/177
f 168/130/75 166/136/79 134/240/178 136/238/176
f 169/250/188 167/249/187 135/239/177 137/237/175
f 170/128/73 192/99/54 160/225/163 138/236/174
f 171/122/70 168/130/75 136/238/176 139/235/173
f 172/251/189 169/250/188 137/237/175 140/234/172
f 173/120/68 170/128/73 138/236/174 141/233/171
f 174/114/65 171/122/70 139/235/173 142/232/170
f 175/252/190 172/251/189 140/234/172 143/231/169
f 176/112/63 173/120/68 141/233/171 144/230/168
f 177/108/60 174/114/65 142/232/170 145/229/167
f 178/253/191 175/252/190 143/231/169 146/228/166
f 179/106/58 176/112/63 144/230/168 147/227/165
f 180/98/53 177/108/60 145/229/167 148/226/164
f 181/254/192 178/253/191 146/228/166 149/224/162
f 182/96/51 179/106/58 147/227/165 150/223/161
f 192/99/54 180/98/53 148/226/164 160/225/163
f 183/255/193 181/254/192 149/224/162 151/222/160
f 184/87/46 182/96/51 150/223/161 152/221/159
f 185/256/194 183/255/193 151/222/160 153/220/158
f 186/81/43 184/87/46 152/221/159 154/219/157
f 187/257/195 185/256/194 153/220/158 155/218/156
f 188/66/35 186/81/43 154/219/157 156/217/155
f 189/258/196 187/257/195 155/218/156 157/215/153
f 190/63/32 188/66/35 156/217/155 158/216/154
f 191/150/89 189/258/196 157/215/153 159/214/152
f 161/246/184 203/259/197 202/64/33 190/63/32
f 215/260/198 189/258/196 191/150/89 216/149/88
f 215/260/198 214/261/199 187/257/195 189/258/196
f 187/257/195 214/261/199 213/262/200 185/256/194
f 185/256/194 213/262/200 212/263/201 183/255/193
f 183/255/193 212/263/201 211/264/202 181/254/192
f 181/254/192 211/264/202 210/265/203 178/253/191
f 178/253/191 210/265/203 209/266/204 175/252/190
f 175/252/190 209/266/204 208/267/205 172/251/189
f 172/251/189 208/267/205 207/268/206 169/250/188
f 169/250/188 207/268/206 206/269/207 167/249/187
f 167/249/187 206/269/207 205/270/208 165/248/186
f 165/248/186 205/270/208 204/271/209 163/247/185
f 163/247/185 204/271/209 203/259/197 161/246/184
s 0
f 198/272/210 267/273/210 268/274/210 197/275/210
f 265/276/211 266/277/211 206/278/211 207/279/211
f 216/280/212 264/281/212 271/78/212 215/77/212
f 194/92/213 263/91/213 269/282/213 224/283/213
f 203/284/214 278/285/214 277/286/214 202/287/214
f 221/288/215 287/289/215 286/290/215 220/291/215
f 199/292/216 262/293/216 267/273/216 198/272/216
f 261/294/217 265/276/217 207/279/217 208/295/217
f 217/296/218 260/297/218 264/281/218 216/280/218
f 195/298/219 274/299/219 273/90/219 193/89/219
f 204/300/220 279/301/220 278/285/220 203/284/220
f 222/302/221 288/303/221 287/289/221 221/288/221
f 200/304/222 259/305/222 262/293/222 199/292/222
f 261/294/223 208/295/223 209/148/223 258/147/223
f 218/306/224 257/307/224 260/297/224 217/296/224
f 196/308/225 275/309/225 274/299/225 195/298/225
f 205/310/226 280/311/226 279/301/226 204/300/226
f 223/312/227 270/313/227 288/303/227 222/302/227
f 201/314/228 276/315/228 259/305/228 200/304/228
f 219/316/229 285/317/229 257/307/229 218/306/229
f 197/275/230 268/274/230 275/309/230 196/308/230
f 266/277/231 280/311/231 205/310/231 206/278/231
f 224/283/232 269/282/232 270/313/232 223/312/232
f 202/287/233 277/286/233 276/315/233 201/314/233
f 220/291/234 286/290/234 285/317/234 219/316/234
f 62/133/235 60/318/235 254/319/235 255/134/235
f 44/141/236 42/320/236 245/321/236 246/142/236
f 26/145/237 24/322/237 236/323/237 237/146/237
f 8/151/238 6/324/238 227/325/238 228/152/238
f 60/318/239 58/326/239 253/327/239 254/319/239
f 42/320/240 40/328/240 244/329/240 245/321/240
f 24/322/241 22/330/241 235/331/241 236/323/241
f 6/324/242 4/332/242 225/333/242 227/325/242
f 58/326/243 56/334/243 252/335/243 253/327/243
f 40/328/244 38/336/244 243/337/244 244/329/244
s 1
f 242/338/245 241/339/246 258/147/246 281/137/245
f 233/340/247 232/341/248 259/305/248 276/315/247
f 250/342/249 249/343/250 260/297/250 257/307/249
f 241/339/246 240/344/251 261/294/251 258/147/246
f 232/341/248 231/345/252 262/293/252 259/305/248
f 249/343/250 248/104/253 264/281/253 260/297/250
f 240/344/251 239/118/254 265/276/254 261/294/251
f 231/345/252 230/126/255 267/273/255 262/293/252
f 226/86/256 256/85/257 269/282/257 263/91/256
f 248/104/253 247/103/258 271/78/258 264/281/253
f 239/118/254 238/117/259 266/277/259 265/276/254
f 230/126/255 229/125/260 268/274/260 267/273/255
f 256/85/257 255/134/261 270/313/261 269/282/257
f 247/103/258 246/142/262 272/79/262 271/78/258
f 251/346/263 250/342/249 257/307/249 285/317/263
f 234/347/264 233/340/247 276/315/247 277/286/264
f 243/337/265 242/338/245 281/137/245 282/131/265
f 225/333/266 226/86/256 263/91/256 273/90/266
f 252/335/267 251/346/263 285/317/263 286/290/267
f 235/331/268 234/347/264 277/286/264 278/285/268
f 244/329/269 243/337/265 282/131/265 283/110/269
f 253/327/270 252/335/267 286/290/267 287/289/270
f 227/325/271 225/333/266 273/90/266 274/299/271
f 236/323/272 235/331/268 278/285/268 279/301/272
f 245/321/273 244/329/269 283/110/269 284/94/273
f 254/319/274 253/327/270 287/289/270 288/303/274
f 228/152/275 227/325/271 274/299/271 275/309/275
f 237/146/276 236/323/272 279/301/272 280/311/276
f 246/142/262 245/321/273 284/94/273 272/79/262
f 255/134/261 254/319/274 288/303/274 270/313/261
f 229/125/260 228/152/275 275/309/275 268/274/260
f 238/117/259 237/146/276 280/311/276 266/277/259
s 0
f 14/348/277 12/123/277 230/126/277 231/345/277
f 32/349/278 30/115/278 239/118/278 240/344/278
f 50/350/279 48/101/279 248/104/279 249/343/279
f 16/351/280 14/348/280 231/345/280 232/341/280
f 34/352/281 32/349/281 240/344/281 241/339/281
f 52/353/282 50/350/282 249/343/282 250/342/282
f 18/354/283 16/351/283 232/341/283 233/340/283
f 36/355/284 34/352/284 241/339/284 242/338/284
f 54/356/285 52/353/285 250/342/285 251/346/285
f 20/357/286 18/354/286 233/340/286 234/347/286
f 38/336/287 36/355/287 242/338/287 243/337/287
f 4/332/288 2/83/288 226/86/288 225/333/288
f 56/334/289 54/356/289 251/346/289 252/335/289
f 22/330/290 20/357/290 234/347/290 235/331/290
s 1
f 81/185/123 289/155/93 83/197/135 82/191/129
f 73/211/149 289/155/93 75/76/41 74/75/40
f 89/160/98 289/155/93 91/168/106 90/164/102
f 67/156/94 289/155/93 69/193/131 68/187/125
f 83/197/135 289/155/93 85/205/143 84/201/139
f 85/205/143 289/155/93 290/358/93 87/213/151 86/209/147
f 69/193/131 289/155/93 71/203/141 70/199/137
f 71/203/141 289/155/93 73/211/149 72/207/145
f 87/213/151 290/358/93 289/155/93 89/160/98 88/159/97
f 91/168/106 289/155/93 93/178/116 92/172/110
f 75/76/41 289/155/93 77/166/104 76/162/100
f 93/178/116 289/155/93 95/189/127 94/183/121
f 77/166/104 289/155/93 79/174/112 78/170/108
f 95/189/127 289/155/93 66/154/92 96/195/133
f 79/174/112 289/155/93 81/185/123 80/180/118
s 0
f 61/71/37 291/70/37 57/359/37 59/360/37
f 57/359/37 291/70/37 53/361/37 55/362/37
f 291/70/37 25/363/37 27/364/37 29/365/37
f 53/361/37 291/70/37 49/366/37 51/367/37
f 291/70/37 21/368/37 23/369/37 25/363/37
f 49/366/37 291/70/37 45/370/37 47/371/37
f 291/70/37 17/372/37 19/373/37 21/368/37
f 45/370/37 291/70/37 41/374/37 43/375/37
f 291/70/37 13/376/37 15/377/37 17/372/37
f 41/374/37 291/70/37 37/378/37 39/379/37
f 291/70/37 9/380/37 11/381/37 13/376/37
f 291/70/37 5/382/37 7/383/37 9/380/37
f 37/378/37 291/70/37 33/384/37 35/385/37
f 33/384/37 291/70/37 29/365/37 31/386/37
f 291/70/37 1/69/37 3/387/37 5/382/37
s 1
f 194/100/55 192/99/54 170/128/73 193/127/72
